<svg xmlns="http://www.w3.org/2000/svg" width="372.251" height="55.7" viewBox="-33.4 0 372.251 55.7"><path d="M9.9 39.1c0 2.7-.6 5.1-1.7 7.1-1.2 2-2.7 3.7-4.7 5.1-2 1.4-4.3 2.4-7 3.1-2.7.7-5.5 1-8.4 1-2 0-3.9-.1-5.8-.3-1.9-.2-3.7-.6-5.4-1.1-1.7-.6-3.5-1.3-5.2-2.3-1.7-1-3.4-2.2-5.1-3.7l7-9.2c2.3 1.8 4.6 3.2 7 4.1 2.3.9 4.7 1.3 7.1 1.3 1.7 0 3.2-.2 4.3-.5 1.2-.3 2.1-.7 2.8-1.2.7-.5 1.2-1 1.5-1.6.3-.6.4-1.1.4-1.7 0-.8-.2-1.5-.6-2.1-.4-.6-1.1-1.2-2-1.7-.9-.5-2.2-1.1-3.8-1.6-1.6-.5-3.5-1.1-5.8-1.7-2.5-.7-4.8-1.5-6.7-2.3-1.9-.9-3.6-1.9-4.9-3.2-1.3-1.2-2.4-2.7-3-4.4-.7-1.7-1-3.7-1-6.1 0-2.5.5-4.7 1.5-6.7s2.3-3.7 4.1-5.1c1.8-1.4 3.9-2.5 6.3-3.2 2.4-.7 5.1-1.1 8-1.1C-8 0-4.9.3-1.8.9c3.1.6 6.3 2 9.6 4.2L2.2 15.2c-2.6-1.6-4.9-2.7-7.1-3.1-2.1-.4-4.3-.6-6.4-.6-2 0-3.6.3-4.9 1-1.2.7-1.9 1.8-1.9 3.3 0 .7.2 1.3.6 1.9.4.6 1.1 1.1 2 1.6.9.5 2.2 1 3.7 1.5s3.4 1.1 5.6 1.7c3.5.9 6.3 2 8.4 3.2 2.1 1.2 3.7 2.5 4.9 3.9C8.2 31 9 32.5 9.4 34.1c.3 1.6.5 3.3.5 5zm28.7-2.3l5.5-19.7L48.8.7h13.1L44.7 55.1H31.8L14.4.7h13.4l4.9 16.7 5.4 19.4zm63.8 14.6c-1.6 1-3.1 1.9-4.8 2.5-1.6.6-3.3 1.1-4.9 1.3-1.6.3-3.2.4-4.6.4-2.5 0-5-.3-7.5-1s-4.8-1.7-6.9-3.2c-2.1-1.4-3.7-3.2-5-5.4-1.3-2.2-1.9-4.8-1.9-7.8V18c0-3 .6-5.6 1.9-7.8 1.2-2.2 2.9-4.1 4.9-5.6 2-1.5 4.3-2.6 6.8-3.4C82.9.5 85.5.1 88.1.1c3.2 0 6.4.5 9.7 1.4 3.2.9 5.9 2.3 8.1 4.2l-6.1 9.7c-1.8-1.5-3.7-2.5-5.7-3s-3.9-.8-5.6-.8c-1.1 0-2.1.2-3.2.5s-2 .8-2.9 1.5c-.9.7-1.6 1.5-2.2 2.6-.6 1.1-.8 2.4-.8 4v15.4c0 1.6.3 2.9.8 4s1.2 1.9 2.1 2.6c.8.7 1.8 1.1 2.8 1.5 1 .3 2.1.5 3.1.5.9 0 1.9-.1 3-.4 1-.3 2-.8 2.9-1.5V35h-7.5V24.3h20.1v23.3c-1.4 1.5-2.7 2.8-4.3 3.8z" fill="#e37863"/><path d="M122.9 25.1v-9.2h4.8l1.8-9.9h9.5v9.9h8.8v9.2H139v15.2c0 1.9.4 3.1 1.3 3.8.8.6 2.3.9 4.3.9 1.5 0 3.3-.1 5.5-.2l.9 9.4c-1.7.6-3.5 1-5.3 1.2-1.8.2-3.5.3-4.9.3-2.8 0-5-.3-6.8-1-1.7-.7-3-1.6-4-2.7-.9-1.2-1.6-2.5-1.9-4.1-.3-1.6-.5-3.4-.5-5.3V25.1zM179.5 44c-.1.4-.2.8-.4 1.1-.1.3-.3.7-.4 1-.2.5-.6 1.2-1.1 2.2-.5 1-1.2 2-2.1 2.9-.9.9-1.9 1.7-3.2 2.4-1.3.6-2.8.8-4.5.6-2.8-.6-5.2-1.7-7.1-3.2-1.2-.9-2.2-2.1-3-3.6-.2-.4-.4-.8-.6-1.3-.2-.4-.3-.9-.4-1.3v-.3l-.2-.9c-.1-.2-.1-.4-.1-.6 0-.2-.1-.4-.1-.7v-1.2c-.1-.3-.1-.6-.1-.9v-1.3c0-2.4.4-4.6 1.3-6.6.9-1.9 2.1-3.5 3.6-4.7 1.6-1.3 3.4-2.2 5.6-2.9 1.9-.5 4-.8 6.2-.9v-4l9.3 9.3-9.3 9.3v-4.3c-.6.1-1.1.2-1.6.4s-1 .4-1.5.8c-1.3.9-1.9 2.3-1.9 4.3 0 .1 0 .2.1.3 0 .1.1.4.2.8h.1c0 .3.1.5.2.6 0 .1.1.2.2.3v.3c.1.1.2.2.2.3l.2.2.2.2c.2.2.3.3.4.3 1.2.8 2.6 1.3 4.1 1.3 1.5 0 2.8-.4 4-1.3 1.3-.8 1.9-2.2 1.9-4.3v-3.7c.1.4.1 1 .2 1.7s.1 1.6.1 2.4c0 .7 0 1.4-.1 2-.1.6-.1 1.1-.2 1.5-.1.8-.2 1.2-.2 1.5zm-20.6-18.8c-1.1.8-2 1.8-2.8 3 .2-1.7.6-3.3 1.3-4.9.4-.9 1-1.8 1.6-2.6.7-.8 1.4-1.5 2.2-2.1 1.5-1.2 3.4-2.2 5.6-2.9.5-.1.9-.2 1.4-.3.4-.1.9-.2 1.4-.3V21c-1.5.2-2.9.4-4 .8-2.5.7-4.7 1.8-6.7 3.4zm27.7-6.6c3.2 2.6 4.7 6.5 4.7 11.5v9.6c0 1.3-.1 2.4-.3 3.5-.2 1.1-.5 2.1-.9 3-.9 1.9-2.1 3.5-3.6 4.7-1.6 1.3-3.5 2.3-5.6 2.9-.8.3-1.7.5-2.6.6-.9.1-1.8.3-2.8.4.6-.5 1.1-1 1.6-1.5s.9-1 1.3-1.6c1.6-2.1 2.6-4.3 2.9-6.8.1-.4.2-.9.2-1.3.1-.5.1-.9.1-1.4 0-.2 0-.8-.1-1.8s-.3-2.2-.6-3.7c-.1-.3-.2-.5-.2-.8-.1-.2-.1-.5-.2-.8l6-6L172 14.7c.3-.1.5-.1.8-.1h.8c5.5.1 9.8 1.4 13 4z" fill="#556a72"/><path fill="#47a4a5" d="M240.391 45.862a18.062 18.062 0 01-4.344 5.309c-1.737 1.448-3.86 2.413-6.274 3.089-2.317.675-4.73 1.061-7.143 1.061-3.282 0-6.468-.482-9.557-1.351-3.089-.869-5.695-2.22-7.818-4.054l5.791-9.557c1.834 1.448 3.572 2.414 5.213 2.896 1.64.483 3.282.773 4.826.773 1.255 0 2.413-.097 3.475-.387a6.656 6.656 0 002.703-1.447c.772-.676 1.352-1.545 1.834-2.703.483-1.159.676-2.607.676-4.344V.976h12.26v37.26c0 2.896-.58 5.502-1.642 7.626zM276.3.976c2.992 0 5.599.482 7.722 1.448 2.124.965 3.861 2.22 5.213 3.86 1.351 1.642 2.316 3.476 2.992 5.503.676 2.027.965 4.15.965 6.37 0 2.22-.386 4.345-1.158 6.372-.772 2.027-1.834 3.86-3.378 5.502-1.448 1.64-3.282 2.896-5.406 3.861-2.124.965-4.633 1.448-7.336 1.448h-10.715v19.595h-12.452V.975zm-11.101 23.167h9.17c2.317 0 4.054-.58 5.02-1.738.965-1.158 1.448-2.606 1.448-4.344 0-1.737-.483-3.089-1.448-4.344-.966-1.158-2.607-1.737-5.02-1.737h-9.17zm69.5 27.028c-1.544 1.062-3.088 1.834-4.729 2.51-1.641.579-3.185 1.061-4.826 1.35a25.41 25.41 0 01-4.537.387c-2.414 0-4.923-.386-7.433-1.062s-4.73-1.737-6.757-3.089c-2.027-1.448-3.668-3.185-4.923-5.309s-1.93-4.73-1.93-7.722V18.06c0-2.992.579-5.598 1.833-7.722 1.255-2.22 2.8-4.054 4.827-5.502 2.027-1.448 4.247-2.607 6.757-3.282C315.49.783 318 .493 320.607.493c3.185 0 6.37.483 9.556 1.351 3.185.87 5.888 2.317 8.012 4.151l-5.985 9.653c-1.737-1.544-3.668-2.51-5.695-2.992-2.027-.483-3.861-.773-5.599-.773-1.062 0-2.123.193-3.089.483a8.175 8.175 0 00-2.896 1.448c-.868.676-1.64 1.544-2.123 2.606-.58 1.062-.869 2.413-.869 3.958V35.63c0 1.544.29 2.895.772 3.957.483 1.062 1.159 1.93 2.027 2.607.87.675 1.738 1.158 2.8 1.447 1.062.29 2.027.483 3.089.483.965 0 1.93-.096 2.896-.386 1.061-.29 1.93-.772 2.895-1.448v-7.24h-7.432V24.336h19.885v23.07c-1.255 1.545-2.607 2.8-4.151 3.765z"/></svg>