<svg version="1.1" xmlns="http://www.w3.org/2000/svg" xmlns:xlink="http://www.w3.org/1999/xlink" width="422" height="580"><defs/><g><rect fill="#202020" stroke="none" x="0" y="0" width="422" height="580"/><g transform="scale(1,1) translate(100,40)"><rect fill="#dddd90" stroke="none" x="-1" y="0" width="2" height="70"/><rect fill="#dddd90" stroke="none" x="-1" y="70" width="2" height="50"/><path fill="none" stroke="#dddd90" paint-order="fill stroke markers" d=" M 1.5 120.5 L 280.5 120.5" stroke-linecap="round" stroke-miterlimit="10"/><g transform="translate(1.5,120.5) rotate(180,0,0)"><path fill="#dddd90" stroke="#dddd90" paint-order="fill stroke markers" d=" M -20 -6 L 0 0 L -20 6 Z" stroke-linecap="round" stroke-linejoin="round" stroke-miterlimit="10"/></g><g transform="translate(280.5,120.5) rotate(0,0,0)"/><rect fill="#dddd90" stroke="none" x="-1" y="120" width="2" height="40"/><rect fill="#dddd90" stroke="none" x="-1" y="440" width="2" height="60"/><path fill="none" stroke="#dddd90" paint-order="fill stroke markers" d=" M 0.5 160.5 L 130.5 160.5" stroke-linecap="round" stroke-miterlimit="10"/><rect fill="#dddd90" stroke="none" x="130" y="160" width="1" height="60"/><rect fill="#dddd90" stroke="none" x="130" y="220" width="1" height="60"/><rect fill="#dddd90" stroke="none" x="280" y="120" width="1" height="280"/><rect fill="#dddd90" stroke="none" x="130" y="360" width="1" height="40"/><path fill="none" stroke="#dddd90" paint-order="fill stroke markers" d=" M 130.5 400.5 L 280.5 400.5" stroke-linecap="round" stroke-miterlimit="10"/><path fill="none" stroke="#dddd90" paint-order="fill stroke markers" d=" M 130.5 220.5 L 260.5 220.5" stroke-linecap="round" stroke-miterlimit="10"/><rect fill="#dddd90" stroke="none" x="260" y="220" width="1" height="100"/><rect fill="#dddd90" stroke="none" x="130" y="280" width="1" height="40"/><rect fill="#dddd90" stroke="none" x="130" y="320" width="1" height="40"/><path fill="none" stroke="#dddd90" paint-order="fill stroke markers" d=" M 130.5 320.5 L 260.5 320.5" stroke-linecap="round" stroke-miterlimit="10"/><path fill="none" stroke="#dddd90" paint-order="fill stroke markers" d=" M 0.5 0.5 L 160.5 0.5" stroke-linecap="round" stroke-miterlimit="10"/><rect fill="#dddd90" stroke="none" x="-1" y="160" width="2" height="280"/><path fill="#000000" stroke="none" paint-order="stroke fill markers" d=" M -30 520 A 20 20 0 0 1 -30.000000000000004 480 L 30 480 L 29.999999999999996 480 A 20 20 0 0 1 30 520 Z"/><path fill="none" stroke="#98984D" paint-order="fill stroke markers" d=" M -29.5 520.5 A 20 20 0 0 1 -29.500000000000004 480.5 L 30.5 480.5 L 30.499999999999996 480.5 A 20 20 0 0 1 30.5 520.5 Z" stroke-linecap="round" stroke-miterlimit="10"/><text fill="#ffffcc" stroke="none" font-family="Consolas, Monaco, Cousine" font-size="14px" font-style="normal" font-weight="normal" text-decoration="normal" x="-13" y="504" text-anchor="start" dominant-baseline="alphabetic">End</text><rect fill="#000000" stroke="none" x="-80" y="40" width="160" height="60"/><rect fill="none" stroke="#98984D" x="-79.5" y="40.5" width="160" height="60" stroke-linecap="round" stroke-miterlimit="10"/><text fill="#ffffcc" stroke="none" font-family="Consolas, Monaco, Cousine" font-size="14px" font-style="normal" font-weight="normal" text-decoration="normal" x="-70" y="66" text-anchor="start" dominant-baseline="alphabetic">count</text><text fill="#95DCFC" stroke="none" font-family="Consolas, Monaco, Cousine" font-size="14px" font-style="normal" font-weight="normal" text-decoration="normal" x="-20" y="66" text-anchor="start" dominant-baseline="alphabetic">=</text><text fill="#ffffff" stroke="none" font-family="Consolas, Monaco, Cousine" font-size="14px" font-style="normal" font-weight="normal" text-decoration="normal" x="-4" y="66" text-anchor="start" dominant-baseline="alphabetic">0</text><text fill="#ffffcc" stroke="none" font-family="Consolas, Monaco, Cousine" font-size="14px" font-style="normal" font-weight="normal" text-decoration="normal" x="-70" y="82" text-anchor="start" dominant-baseline="alphabetic">node</text><text fill="#95DCFC" stroke="none" font-family="Consolas, Monaco, Cousine" font-size="14px" font-style="normal" font-weight="normal" text-decoration="normal" x="-28" y="82" text-anchor="start" dominant-baseline="alphabetic">=</text><text fill="#ffffcc" stroke="none" font-family="Consolas, Monaco, Cousine" font-size="14px" font-style="normal" font-weight="normal" text-decoration="normal" x="-12" y="82" text-anchor="start" dominant-baseline="alphabetic">list</text><text fill="#95DCFC" stroke="none" font-family="Consolas, Monaco, Cousine" font-size="14px" font-style="normal" font-weight="normal" text-decoration="normal" x="22" y="82" text-anchor="start" dominant-baseline="alphabetic">.</text><text fill="#ffffcc" stroke="none" font-family="Consolas, Monaco, Cousine" font-size="14px" font-style="normal" font-weight="normal" text-decoration="normal" x="30" y="82" text-anchor="start" dominant-baseline="alphabetic">head</text><path fill="#000000" stroke="none" paint-order="stroke fill markers" d=" M -82 160 L -62 140 L 62 140 L 82 160 L 62 180 L -62 180 Z"/><path fill="none" stroke="#98984D" paint-order="fill stroke markers" d=" M -81.5 160.5 L -61.5 140.5 L 62.5 140.5 L 82.5 160.5 L 62.5 180.5 L -61.5 180.5 Z" stroke-linecap="round" stroke-miterlimit="10"/><text fill="#ffffcc" stroke="none" font-family="Consolas, Monaco, Cousine" font-size="14px" font-style="normal" font-weight="normal" text-decoration="normal" x="-60" y="164" text-anchor="start" dominant-baseline="alphabetic">node</text><text fill="#ffffcc" stroke="none" font-family="Consolas, Monaco, Cousine" font-size="14px" font-style="normal" font-weight="normal" text-decoration="normal" x="-20" y="193" text-anchor="start" dominant-baseline="alphabetic">No</text><text fill="#ffffcc" stroke="none" font-family="Consolas, Monaco, Cousine" font-size="14px" font-style="normal" font-weight="normal" text-decoration="normal" x="88" y="153" text-anchor="start" dominant-baseline="alphabetic">Yes</text><rect fill="#000000" stroke="none" x="20" y="340" width="220" height="40"/><rect fill="none" stroke="#98984D" x="20.5" y="340.5" width="220" height="40" stroke-linecap="round" stroke-miterlimit="10"/><text fill="#ffffcc" stroke="none" font-family="Consolas, Monaco, Cousine" font-size="14px" font-style="normal" font-weight="normal" text-decoration="normal" x="30" y="364" text-anchor="start" dominant-baseline="alphabetic">node</text><text fill="#95DCFC" stroke="none" font-family="Consolas, Monaco, Cousine" font-size="14px" font-style="normal" font-weight="normal" text-decoration="normal" x="72" y="364" text-anchor="start" dominant-baseline="alphabetic">=</text><text fill="#ffffcc" stroke="none" font-family="Consolas, Monaco, Cousine" font-size="14px" font-style="normal" font-weight="normal" text-decoration="normal" x="88" y="364" text-anchor="start" dominant-baseline="alphabetic">node</text><text fill="#95DCFC" stroke="none" font-family="Consolas, Monaco, Cousine" font-size="14px" font-style="normal" font-weight="normal" text-decoration="normal" x="122" y="364" text-anchor="start" dominant-baseline="alphabetic">.</text><text fill="#ffffcc" stroke="none" font-family="Consolas, Monaco, Cousine" font-size="14px" font-style="normal" font-weight="normal" text-decoration="normal" x="130" y="364" text-anchor="start" dominant-baseline="alphabetic">next</text><path fill="#000000" stroke="none" paint-order="stroke fill markers" d=" M 18 220 L 38 200 L 222 200 L 242 220 L 222 240 L 38 240 Z"/><path fill="none" stroke="#98984D" paint-order="fill stroke markers" d=" M 18.5 220.5 L 38.5 200.5 L 222.5 200.5 L 242.5 220.5 L 222.5 240.5 L 38.5 240.5 Z" stroke-linecap="round" stroke-miterlimit="10"/><text fill="#ffffcc" stroke="none" font-family="Consolas, Monaco, Cousine" font-size="14px" font-style="normal" font-weight="normal" text-decoration="normal" x="40" y="224" text-anchor="start" dominant-baseline="alphabetic">node</text><text fill="#95DCFC" stroke="none" font-family="Consolas, Monaco, Cousine" font-size="14px" font-style="normal" font-weight="normal" text-decoration="normal" x="74" y="224" text-anchor="start" dominant-baseline="alphabetic">.</text><text fill="#ffffcc" stroke="none" font-family="Consolas, Monaco, Cousine" font-size="14px" font-style="normal" font-weight="normal" text-decoration="normal" x="82" y="224" text-anchor="start" dominant-baseline="alphabetic">value</text><text fill="#95DCFC" stroke="none" font-family="Consolas, Monaco, Cousine" font-size="14px" font-style="normal" font-weight="normal" text-decoration="normal" x="132" y="224" text-anchor="start" dominant-baseline="alphabetic">===</text><text fill="#ffffcc" stroke="none" font-family="Consolas, Monaco, Cousine" font-size="14px" font-style="normal" font-weight="normal" text-decoration="normal" x="165" y="224" text-anchor="start" dominant-baseline="alphabetic">value</text><text fill="#ffffcc" stroke="none" font-family="Consolas, Monaco, Cousine" font-size="14px" font-style="normal" font-weight="normal" text-decoration="normal" x="97" y="253" text-anchor="start" dominant-baseline="alphabetic">Yes</text><text fill="#ffffcc" stroke="none" font-family="Consolas, Monaco, Cousine" font-size="14px" font-style="normal" font-weight="normal" text-decoration="normal" x="248" y="213" text-anchor="start" dominant-baseline="alphabetic">No</text><rect fill="#000000" stroke="none" x="20" y="260" width="220" height="40"/><rect fill="none" stroke="#98984D" x="20.5" y="260.5" width="220" height="40" stroke-linecap="round" stroke-miterlimit="10"/><text fill="#ffffcc" stroke="none" font-family="Consolas, Monaco, Cousine" font-size="14px" font-style="normal" font-weight="normal" text-decoration="normal" x="30" y="284" text-anchor="start" dominant-baseline="alphabetic">count</text><text fill="#95DCFC" stroke="none" font-family="Consolas, Monaco, Cousine" font-size="14px" font-style="normal" font-weight="normal" text-decoration="normal" x="72" y="284" text-anchor="start" dominant-baseline="alphabetic">++</text><rect fill="#000000" stroke="none" x="-80" y="420" width="160" height="40"/><rect fill="none" stroke="#98984D" x="-79.5" y="420.5" width="160" height="40" stroke-linecap="round" stroke-miterlimit="10"/><text fill="#80ff80" stroke="none" font-family="Consolas, Monaco, Cousine" font-size="14px" font-style="normal" font-weight="normal" text-decoration="normal" x="-70" y="444" text-anchor="start" dominant-baseline="alphabetic">return</text><text fill="#ffffcc" stroke="none" font-family="Consolas, Monaco, Cousine" font-size="14px" font-style="normal" font-weight="normal" text-decoration="normal" x="-12" y="444" text-anchor="start" dominant-baseline="alphabetic">count</text><path fill="#000000" stroke="none" paint-order="stroke fill markers" d=" M -60 20 A 20 20 0 0 1 -60.00000000000001 -20 L 60 -20 L 59.99999999999999 -20 A 20 20 0 0 1 60 20 Z"/><path fill="none" stroke="#98984D" paint-order="fill stroke markers" d=" M -59.5 20.5 A 20 20 0 0 1 -59.50000000000001 -19.5 L 60.5 -19.5 L 60.49999999999999 -19.5 A 20 20 0 0 1 60.5 20.5 Z" stroke-linecap="round" stroke-miterlimit="10"/><text fill="#ffffcc" stroke="none" font-family="Consolas, Monaco, Cousine" font-size="18px" font-style="normal" font-weight="normal" text-decoration="normal" x="-60" y="6" text-anchor="start" dominant-baseline="alphabetic">Countvalues</text><rect fill="#000000" stroke="none" x="100" y="-20" width="120" height="40"/><rect fill="none" stroke="#98984D" x="100.5" y="-19.5" width="120" height="40" stroke-linecap="round" stroke-miterlimit="10"/><text fill="#ffffcc" stroke="none" font-family="Consolas, Monaco, Cousine" font-size="14px" font-style="normal" font-weight="normal" text-decoration="normal" x="110" y="4" text-anchor="start" dominant-baseline="alphabetic">list,</text><text fill="#ffffcc" stroke="none" font-family="Consolas, Monaco, Cousine" font-size="14px" font-style="normal" font-weight="normal" text-decoration="normal" x="160" y="4" text-anchor="start" dominant-baseline="alphabetic">value</text></g></g></svg>