<svg width="211pt" height="231pt" viewBox="0.00 0.00 211.00 231.00" xmlns="http://www.w3.org/2000/svg" xmlns:xlink="http://www.w3.org/1999/xlink">
<g id="graph0" class="graph" transform="scale(1 1) rotate(0) translate(4 227.2)">
<title>G</title>
<!-- 21 -->
<g id="node1" class="node">
<title>21</title>
<ellipse fill="red" stroke="black" cx="188.4" cy="-14.4" rx="14.4" ry="14.4"/>
<text xml:space="preserve" text-anchor="middle" x="188.4" y="-10.8" font-family="Arial" font-size="12.00" fill="white">21</text>
</g>
<!-- 11 -->
<g id="node2" class="node">
<title>11</title>
<ellipse fill="black" stroke="black" cx="101.4" cy="-208.8" rx="14.4" ry="14.4"/>
<text xml:space="preserve" text-anchor="middle" x="101.4" y="-205.2" font-family="Arial" font-size="12.00" fill="white">11</text>
</g>
<!-- 5 -->
<g id="node3" class="node">
<title>5</title>
<ellipse fill="black" stroke="black" cx="72.4" cy="-144" rx="14.4" ry="14.4"/>
<text xml:space="preserve" text-anchor="middle" x="72.4" y="-140.4" font-family="Arial" font-size="12.00" fill="white">5</text>
</g>
<!-- 11&#45;&gt;5 -->
<g id="edge1" class="edge">
<title>11-&gt;5</title>
<path fill="none" stroke="black" d="M95.67,-195.39C90.59,-184.38 83.2,-168.38 78.12,-157.38"/>
</g>
<!-- 17 -->
<g id="node4" class="node">
<title>17</title>
<ellipse fill="black" stroke="black" cx="130.4" cy="-144" rx="14.4" ry="14.4"/>
<text xml:space="preserve" text-anchor="middle" x="130.4" y="-140.4" font-family="Arial" font-size="12.00" fill="white">17</text>
</g>
<!-- 11&#45;&gt;17 -->
<g id="edge2" class="edge">
<title>11-&gt;17</title>
<path fill="none" stroke="black" d="M107.13,-195.39C112.21,-184.38 119.6,-168.38 124.68,-157.38"/>
</g>
<!-- 1 -->
<g id="node5" class="node">
<title>1</title>
<ellipse fill="black" stroke="black" cx="14.4" cy="-79.2" rx="14.4" ry="14.4"/>
<text xml:space="preserve" text-anchor="middle" x="14.4" y="-75.6" font-family="Arial" font-size="12.00" fill="white">1</text>
</g>
<!-- 5&#45;&gt;1 -->
<g id="edge3" class="edge">
<title>5-&gt;1</title>
<path fill="none" stroke="black" d="M62.82,-132.63C52.01,-120.92 34.54,-102 23.8,-90.38"/>
</g>
<!-- 8 -->
<g id="node6" class="node">
<title>8</title>
<ellipse fill="black" stroke="black" cx="72.4" cy="-79.2" rx="14.4" ry="14.4"/>
<text xml:space="preserve" text-anchor="middle" x="72.4" y="-75.6" font-family="Arial" font-size="12.00" fill="white">8</text>
</g>
<!-- 5&#45;&gt;8 -->
<g id="edge4" class="edge">
<title>5-&gt;8</title>
<path fill="none" stroke="black" d="M72.4,-129.37C72.4,-118.84 72.4,-104.33 72.4,-93.8"/>
</g>
<!-- 15 -->
<g id="node7" class="node">
<title>15</title>
<ellipse fill="black" stroke="black" cx="130.4" cy="-79.2" rx="14.4" ry="14.4"/>
<text xml:space="preserve" text-anchor="middle" x="130.4" y="-75.6" font-family="Arial" font-size="12.00" fill="white">15</text>
</g>
<!-- 17&#45;&gt;15 -->
<g id="edge5" class="edge">
<title>17-&gt;15</title>
<path fill="none" stroke="black" d="M130.4,-129.37C130.4,-118.84 130.4,-104.33 130.4,-93.8"/>
</g>
<!-- 19 -->
<g id="node8" class="node">
<title>19</title>
<ellipse fill="black" stroke="black" cx="188.4" cy="-79.2" rx="14.4" ry="14.4"/>
<text xml:space="preserve" text-anchor="middle" x="188.4" y="-75.6" font-family="Arial" font-size="12.00" fill="white">19</text>
</g>
<!-- 17&#45;&gt;19 -->
<g id="edge6" class="edge">
<title>17-&gt;19</title>
<path fill="none" stroke="black" d="M139.98,-132.63C150.79,-120.92 168.26,-102 179,-90.38"/>
</g>
<!-- 13 -->
<g id="node9" class="node">
<title>13</title>
<ellipse fill="black" stroke="black" cx="130.4" cy="-14.4" rx="14.4" ry="14.4"/>
<text xml:space="preserve" text-anchor="middle" x="130.4" y="-10.8" font-family="Arial" font-size="12.00" fill="white">13</text>
</g>
<!-- 15&#45;&gt;13 -->
<g id="edge7" class="edge">
<title>15-&gt;13</title>
<path fill="none" stroke="black" d="M130.4,-64.57C130.4,-54.04 130.4,-39.53 130.4,-29"/>
</g>
<!-- 19&#45;&gt;21 -->
<g id="edge8" class="edge">
<title>19-&gt;21</title>
<path fill="none" stroke="black" d="M188.4,-64.57C188.4,-54.04 188.4,-39.53 188.4,-29"/>
</g>
</g>
</svg>