<?xml version="1.0" standalone="no"?>
<!DOCTYPE svg PUBLIC "-//W3C//DTD SVG 20010904//EN"
 "http://www.w3.org/TR/2001/REC-SVG-20010904/DTD/svg10.dtd">
<svg version="1.0" xmlns="http://www.w3.org/2000/svg"
 width="2780.000000pt" height="1020.000000pt" viewBox="0 0 2780.000000 1020.000000"
 preserveAspectRatio="xMidYMid meet">

<g transform="translate(0.000000,1020.000000) scale(0.100000,-0.100000)"
fill="#000000" stroke="none">
<path d="M20901 9784 c-30 -8 -70 -24 -90 -36 -51 -30 -128 -106 -157 -155
-74 -127 -68 -305 16 -429 l29 -44 -278 -209 c-152 -115 -287 -214 -298 -222
-19 -11 -25 -9 -56 18 -114 100 -300 120 -443 47 -65 -33 -151 -121 -183 -187
-76 -158 -41 -348 88 -470 99 -93 211 -130 341 -110 91 14 152 45 221 110 144
137 169 356 59 519 l-29 44 278 209 c152 115 287 214 298 222 19 11 25 9 56
-18 110 -96 296 -119 434 -52 66 31 154 118 187 182 82 162 48 355 -83 480
-109 104 -247 140 -390 101z m274 -43 c151 -75 238 -230 220 -396 -8 -82 -43
-153 -107 -221 -63 -67 -122 -99 -212 -115 -112 -21 -252 17 -316 86 l-25 27
25 18 c14 10 34 25 45 33 11 9 17 18 13 22 -4 4 -27 -8 -52 -25 -55 -40 -65
-35 -107 54 -51 107 -48 244 8 348 50 93 160 178 255 198 77 16 186 3 253 -29z
m-1200 -1000 c244 -120 298 -433 108 -625 -91 -91 -215 -130 -339 -107 -86 15
-134 41 -202 105 -158 148 -160 394 -5 549 86 87 174 119 303 112 56 -4 90
-12 135 -34z"/>
<path d="M20827 9555 c-20 -14 -37 -32 -37 -40 0 -20 6 -19 41 6 l29 20 0
-130 0 -131 -40 0 c-29 0 -40 -4 -40 -15 0 -12 18 -15 100 -15 82 0 100 3 100
15 0 11 -11 15 -40 15 l-40 0 0 150 c0 170 -2 173 -73 125z"/>
<path d="M21098 9558 c-22 -13 -38 -30 -38 -40 0 -23 5 -23 41 3 l29 20 0
-130 0 -131 -40 0 c-29 0 -40 -4 -40 -15 0 -12 18 -15 100 -15 82 0 100 3 100
15 0 11 -11 15 -40 15 l-40 0 0 150 c0 169 0 170 -72 128z"/>
<path d="M19720 8548 c0 -18 -3 -57 -7 -87 l-6 -54 29 6 c16 4 44 9 62 13 50
10 82 -16 82 -66 0 -75 -75 -108 -124 -55 -23 25 -56 34 -56 16 0 -6 10 -22
23 -36 16 -20 35 -28 67 -32 83 -9 135 33 135 110 0 72 -90 122 -156 87 -16
-9 -19 -7 -19 13 0 14 3 39 6 56 l7 31 73 0 c59 0 74 3 74 15 0 12 -17 15 -95
15 l-95 0 0 -32z"/>
<path d="M14501 9584 c-68 -18 -113 -45 -174 -103 -61 -58 -93 -113 -113 -193
-28 -109 -7 -231 56 -324 l29 -44 -278 -209 c-152 -115 -287 -214 -298 -222
-19 -11 -25 -9 -56 18 -113 99 -300 119 -444 47 -64 -33 -151 -121 -181 -186
-54 -110 -52 -254 4 -364 33 -65 121 -151 186 -182 106 -52 250 -52 355 -1 59
28 144 107 178 165 75 128 69 306 -15 430 l-29 44 278 209 c152 115 287 214
298 222 19 11 25 9 56 -18 110 -96 296 -119 434 -52 66 32 154 118 187 183 56
110 58 254 4 364 -27 58 -106 143 -163 177 -90 52 -210 67 -314 39z m274 -43
c244 -120 298 -434 108 -625 -91 -91 -214 -130 -341 -107 -70 13 -152 52 -187
91 l-20 22 25 18 c14 10 34 25 45 33 11 9 17 18 13 22 -4 4 -27 -8 -52 -25
-55 -40 -65 -35 -107 54 -50 105 -48 240 6 346 47 92 160 179 259 200 75 16
184 3 251 -29z m-1200 -1000 c151 -75 238 -230 220 -396 -8 -82 -43 -153 -107
-221 -63 -67 -122 -99 -212 -115 -127 -24 -249 16 -343 113 -150 153 -148 389
4 541 52 52 125 94 185 107 77 16 186 3 253 -29z"/>
<path d="M14427 9355 c-20 -14 -37 -32 -37 -40 0 -20 6 -19 41 6 l29 20 0
-130 0 -131 -40 0 c-29 0 -40 -4 -40 -15 0 -12 18 -15 100 -15 82 0 100 3 100
15 0 11 -11 15 -40 15 l-40 0 0 150 c0 170 -2 173 -73 125z"/>
<path d="M14698 9358 c-22 -13 -38 -30 -38 -40 0 -23 5 -23 41 3 l29 20 0
-130 0 -131 -40 0 c-29 0 -40 -4 -40 -15 0 -12 18 -15 100 -15 82 0 100 3 100
15 0 11 -11 15 -40 15 l-40 0 0 150 c0 169 0 170 -72 128z"/>
<path d="M13320 8348 c0 -18 -3 -57 -7 -87 l-6 -54 29 6 c16 4 44 9 62 13 50
10 82 -16 82 -66 0 -75 -75 -108 -124 -55 -23 25 -56 34 -56 16 0 -6 10 -22
23 -36 16 -20 35 -28 67 -32 83 -9 135 33 135 110 0 72 -90 122 -156 87 -16
-9 -19 -7 -19 13 0 14 3 39 6 56 l7 31 73 0 c59 0 74 3 74 15 0 12 -17 15 -95
15 l-95 0 0 -32z"/>
<path d="M2902 9384 c-73 -19 -131 -55 -189 -117 -90 -95 -125 -209 -106 -338
15 -93 54 -167 122 -232 99 -93 211 -130 341 -110 91 14 152 45 221 110 170
162 170 424 0 586 -109 104 -247 140 -389 101z m273 -43 c151 -75 238 -230
220 -396 -8 -82 -43 -153 -107 -221 -63 -67 -122 -99 -212 -115 -127 -24 -249
16 -343 113 -150 153 -148 389 4 541 52 52 125 94 185 107 77 16 186 3 253
-29z"/>
<path d="M2827 9155 c-20 -14 -37 -32 -37 -40 0 -20 6 -19 41 6 l29 20 0 -130
0 -131 -40 0 c-29 0 -40 -4 -40 -15 0 -12 18 -15 100 -15 82 0 100 3 100 15 0
11 -11 15 -40 15 l-40 0 0 150 c0 170 -2 173 -73 125z"/>
<path d="M3098 9158 c-22 -13 -38 -30 -38 -40 0 -23 5 -23 41 3 l29 20 0 -130
0 -131 -40 0 c-29 0 -40 -4 -40 -15 0 -12 18 -15 100 -15 82 0 100 3 100 15 0
11 -11 15 -40 15 l-40 0 0 150 c0 169 0 170 -72 128z"/>
<path d="M6321 9389 c-105 -20 -224 -113 -275 -213 -73 -144 -51 -334 51 -447
l34 -38 -122 -183 c-67 -101 -125 -187 -129 -191 -4 -5 -27 3 -50 18 -121 76
-279 83 -408 18 -63 -32 -150 -121 -180 -185 -54 -110 -52 -254 4 -364 33 -65
121 -151 187 -183 106 -51 249 -51 355 1 65 31 153 117 186 182 73 145 52 333
-51 447 l-34 38 122 183 c67 101 125 187 129 191 4 5 30 -5 57 -22 54 -33 147
-61 204 -61 111 0 208 39 290 117 100 95 143 224 121 359 -15 90 -54 163 -121
227 -104 99 -227 134 -370 106z m254 -48 c110 -55 191 -157 215 -275 54 -266
-180 -505 -448 -457 -256 46 -395 328 -277 561 47 92 160 179 259 200 75 16
184 3 251 -29z m-800 -1000 c286 -136 298 -532 21 -692 -104 -59 -254 -61
-365 -4 -148 75 -235 256 -201 421 30 145 154 275 292 304 75 16 185 3 253
-29z"/>
<path d="M6228 9157 c-21 -12 -38 -30 -38 -39 0 -23 6 -23 41 3 l29 20 0 -130
0 -131 -40 0 c-29 0 -40 -4 -40 -15 0 -12 18 -15 100 -15 82 0 100 3 100 15 0
11 -11 15 -40 15 l-40 0 0 150 c0 169 0 170 -72 127z"/>
<path d="M6498 9158 c-22 -13 -38 -30 -38 -40 0 -23 5 -23 41 3 l29 20 0 -130
0 -131 -40 0 c-29 0 -40 -4 -40 -15 0 -12 18 -15 100 -15 82 0 100 3 100 15 0
11 -11 15 -40 15 l-40 0 0 150 c0 169 0 170 -72 128z"/>
<path d="M5520 8148 c0 -18 -3 -57 -7 -87 l-6 -54 29 6 c16 4 44 9 62 13 50
10 82 -16 82 -66 0 -75 -75 -108 -124 -55 -23 25 -56 34 -56 16 0 -6 10 -22
23 -36 16 -20 35 -28 67 -32 83 -9 135 33 135 110 0 31 -7 45 -33 68 -34 31
-71 37 -116 19 -23 -9 -26 -7 -26 14 0 13 3 38 6 55 l7 31 73 0 c59 0 74 3 74
15 0 12 -17 15 -95 15 l-95 0 0 -32z"/>
<path d="M9521 9389 c-105 -20 -224 -113 -274 -211 -67 -132 -58 -295 23 -414
l29 -44 -278 -209 c-152 -115 -287 -214 -298 -222 -19 -11 -25 -9 -56 18 -112
99 -301 119 -443 47 -65 -33 -152 -121 -182 -186 -54 -110 -52 -254 4 -364 33
-65 121 -151 187 -183 106 -51 249 -51 355 1 64 30 153 117 185 180 67 133 58
294 -23 414 l-29 44 278 209 c152 115 287 214 298 222 19 11 25 9 56 -18 81
-71 201 -104 317 -86 91 14 152 45 221 110 100 95 143 224 121 359 -15 90 -54
163 -121 227 -104 99 -227 134 -370 106z m254 -48 c110 -55 191 -157 215 -275
54 -266 -180 -505 -448 -457 -71 13 -152 52 -187 91 l-20 22 25 18 c14 10 34
25 45 33 11 9 17 18 13 22 -4 4 -27 -8 -52 -25 -55 -40 -65 -35 -107 54 -50
105 -48 240 6 346 47 92 160 179 259 200 75 16 184 3 251 -29z m-1206 -996
c67 -31 154 -113 186 -175 119 -233 -21 -515 -277 -561 -127 -23 -250 16 -341
107 -153 154 -153 394 0 547 52 52 125 94 185 107 71 15 184 3 247 -25z"/>
<path d="M9428 9157 c-21 -12 -38 -30 -38 -39 0 -23 6 -23 41 3 l29 20 0 -130
0 -131 -40 0 c-29 0 -40 -4 -40 -15 0 -12 18 -15 100 -15 82 0 100 3 100 15 0
11 -11 15 -40 15 l-40 0 0 150 c0 169 0 170 -72 127z"/>
<path d="M9698 9158 c-22 -13 -38 -30 -38 -40 0 -23 5 -23 41 3 l29 20 0 -130
0 -131 -40 0 c-29 0 -40 -4 -40 -15 0 -12 18 -15 100 -15 82 0 100 3 100 15 0
11 -11 15 -40 15 l-40 0 0 150 c0 169 0 170 -72 128z"/>
<path d="M8320 8148 c0 -18 -3 -57 -7 -87 l-6 -54 29 6 c16 4 44 9 62 13 50
10 82 -16 82 -66 0 -75 -75 -108 -124 -55 -23 25 -56 34 -56 16 0 -6 10 -22
23 -36 16 -20 35 -28 67 -32 83 -9 135 33 135 110 0 31 -7 45 -33 68 -34 31
-71 37 -116 19 -23 -9 -26 -7 -26 14 0 13 3 38 6 55 l7 31 73 0 c59 0 74 3 74
15 0 12 -17 15 -95 15 l-95 0 0 -32z"/>
<path d="M18000 9260 l0 -60 -400 0 c-260 0 -400 -3 -400 -10 0 -6 140 -10
400 -10 l400 0 0 -60 c0 -33 3 -60 6 -60 11 0 408 121 413 126 2 2 2 6 0 8 -5
5 -402 126 -413 126 -3 0 -6 -27 -6 -60z"/>
<path d="M21400 9192 c0 -12 810 -615 817 -608 4 3 2 10 -3 15 -25 23 -802
601 -807 601 -4 0 -7 -3 -7 -8z"/>
<path d="M4600 9060 l0 -60 -400 0 c-260 0 -400 -3 -400 -10 0 -6 140 -10 400
-10 l400 0 0 -60 c0 -33 3 -60 8 -60 12 0 405 120 410 125 3 3 3 7 0 10 -4 5
-401 125 -412 125 -3 0 -6 -27 -6 -60z"/>
<path d="M8000 9060 l0 -60 -400 0 c-260 0 -400 -3 -400 -10 0 -6 140 -10 400
-10 l400 0 0 -60 c0 -33 2 -60 5 -60 10 0 409 121 414 125 2 3 2 7 0 9 -5 5
-402 126 -413 126 -3 0 -6 -27 -6 -60z"/>
<path d="M12600 9060 l0 -60 -400 0 c-260 0 -400 -3 -400 -10 0 -6 140 -10
400 -10 l400 0 0 -60 c0 -33 3 -60 8 -60 12 0 405 120 410 125 3 3 3 7 0 10
-4 5 -401 125 -412 125 -3 0 -6 -27 -6 -60z"/>
<path d="M15000 8992 c0 -12 810 -615 817 -608 4 3 2 10 -3 15 -25 23 -802
601 -807 601 -4 0 -7 -3 -7 -8z"/>
<path d="M10000 8792 c0 -12 810 -615 817 -608 4 3 2 10 -3 15 -25 23 -802
601 -807 601 -4 0 -7 -3 -7 -8z"/>
<path d="M22502 8784 c-73 -19 -131 -55 -189 -117 -155 -165 -148 -414 16
-570 66 -62 126 -94 210 -109 75 -14 179 0 248 33 66 32 154 118 187 183 56
110 58 254 4 364 -27 58 -106 143 -163 177 -90 52 -210 67 -313 39z m273 -43
c244 -120 298 -434 108 -625 -91 -91 -215 -130 -339 -107 -86 15 -134 41 -202
105 -158 148 -160 394 -5 549 86 87 174 119 303 112 56 -4 90 -12 135 -34z"/>
<path d="M22427 8555 c-20 -14 -37 -32 -37 -40 0 -20 6 -19 41 6 l29 20 0
-130 0 -131 -40 0 c-29 0 -40 -4 -40 -15 0 -12 18 -15 100 -15 82 0 100 3 100
15 0 11 -11 15 -40 15 l-40 0 0 150 c0 170 -2 173 -73 125z"/>
<path d="M22630 8565 c0 -12 17 -15 90 -15 l89 0 -35 -58 c-68 -115 -97 -242
-54 -242 15 0 20 7 20 29 0 46 37 151 75 214 53 87 53 87 -75 87 -91 0 -110
-3 -110 -15z"/>
<path d="M16102 8584 c-73 -19 -131 -55 -189 -117 -90 -95 -125 -209 -106
-338 15 -93 54 -167 122 -232 99 -93 211 -130 341 -110 91 14 152 45 221 110
170 162 170 424 0 586 -109 104 -247 140 -389 101z m273 -43 c151 -75 238
-230 220 -396 -8 -82 -43 -153 -107 -221 -63 -67 -122 -99 -212 -115 -127 -24
-249 16 -343 113 -150 153 -148 389 4 541 52 52 125 94 185 107 77 16 186 3
253 -29z"/>
<path d="M16027 8355 c-20 -14 -37 -32 -37 -40 0 -20 6 -19 41 6 l29 20 0
-130 0 -131 -40 0 c-29 0 -40 -4 -40 -15 0 -12 18 -15 100 -15 82 0 100 3 100
15 0 11 -11 15 -40 15 l-40 0 0 150 c0 170 -2 173 -73 125z"/>
<path d="M16230 8365 c0 -12 17 -15 91 -15 l91 0 -22 -32 c-41 -63 -82 -162
-87 -215 -5 -49 -4 -53 16 -53 17 0 21 6 21 29 0 46 37 151 75 214 53 87 53
87 -75 87 -91 0 -110 -3 -110 -15z"/>
<path d="M11121 8389 c-68 -13 -131 -48 -192 -106 -170 -162 -170 -424 0 -586
69 -65 130 -96 221 -110 130 -20 242 17 341 110 170 162 170 424 0 586 -104
99 -227 134 -370 106z m254 -48 c286 -136 298 -532 21 -692 -104 -59 -254 -61
-365 -4 -148 75 -235 256 -201 421 30 145 154 275 292 304 75 16 185 3 253
-29z"/>
<path d="M11027 8155 c-20 -14 -37 -32 -37 -40 0 -20 6 -19 41 6 l29 20 0
-130 0 -131 -40 0 c-29 0 -40 -4 -40 -15 0 -12 18 -15 100 -15 82 0 100 3 100
15 0 11 -11 15 -40 15 l-40 0 0 150 c0 170 -2 173 -73 125z"/>
<path d="M11230 8165 c0 -12 17 -15 90 -15 l89 0 -35 -58 c-68 -115 -97 -242
-54 -242 15 0 20 7 20 29 0 46 37 151 75 214 53 87 53 87 -75 87 -91 0 -110
-3 -110 -15z"/>
<path d="M19402 7594 c-112 -223 -201 -409 -198 -412 4 -3 8 -3 10 -1 6 6 406
808 406 814 0 28 -44 -53 -218 -401z"/>
<path d="M22301 7697 c-56 -166 -101 -305 -101 -310 0 -4 4 -7 9 -7 8 0 211
590 211 613 0 4 -4 7 -9 7 -5 0 -55 -136 -110 -303z"/>
<path d="M15901 7497 c-56 -166 -101 -305 -101 -310 0 -4 4 -7 9 -7 8 0 211
590 211 613 0 4 -4 7 -9 7 -5 0 -55 -136 -110 -303z"/>
<path d="M21921 7389 c-68 -13 -131 -48 -192 -106 -67 -64 -106 -137 -121
-227 -22 -135 21 -264 121 -359 99 -93 211 -130 341 -110 91 14 152 45 221
110 67 64 106 137 121 227 22 135 -21 264 -121 359 -104 99 -227 134 -370 106z
m254 -48 c110 -55 191 -157 215 -275 54 -266 -180 -505 -448 -457 -256 46
-395 328 -277 561 47 92 160 179 259 200 75 16 184 3 251 -29z"/>
<path d="M21828 7157 c-21 -12 -38 -30 -38 -39 0 -23 6 -23 41 3 l29 20 0
-130 0 -131 -40 0 c-29 0 -40 -4 -40 -15 0 -12 18 -15 100 -15 82 0 100 3 100
15 0 11 -11 15 -40 15 l-40 0 0 150 c0 169 0 170 -72 127z"/>
<path d="M22046 7128 c-3 -29 -6 -68 -6 -87 0 -32 1 -33 33 -27 89 19 95 18
116 -3 28 -28 28 -84 1 -111 -28 -28 -76 -26 -104 5 -23 25 -56 34 -56 16 0
-6 10 -22 23 -36 43 -51 157 -41 187 14 17 33 12 96 -10 124 -25 31 -81 45
-122 29 l-29 -11 3 52 3 52 78 3 c59 2 77 6 77 17 0 12 -18 15 -94 15 l-93 0
-7 -52z"/>
<path d="M15521 7189 c-68 -13 -131 -48 -192 -106 -170 -162 -170 -424 0 -586
69 -65 130 -96 221 -110 130 -20 242 17 341 110 170 162 170 424 0 586 -104
99 -227 134 -370 106z m254 -48 c286 -136 298 -532 21 -692 -104 -59 -254 -61
-365 -4 -148 75 -235 256 -201 421 30 145 154 275 292 304 75 16 185 3 253
-29z"/>
<path d="M15427 6955 c-20 -14 -37 -32 -37 -40 0 -20 6 -19 41 6 l29 20 0
-130 0 -131 -40 0 c-29 0 -40 -4 -40 -15 0 -12 18 -15 100 -15 82 0 100 3 100
15 0 11 -11 15 -40 15 l-40 0 0 150 c0 170 -2 173 -73 125z"/>
<path d="M15646 6928 c-3 -29 -6 -68 -6 -87 0 -32 1 -33 33 -27 89 19 95 18
116 -3 28 -28 28 -84 1 -111 -28 -28 -76 -26 -104 5 -23 25 -56 34 -56 16 0
-6 10 -22 23 -36 43 -51 157 -41 187 14 17 33 12 96 -10 124 -25 31 -81 45
-122 29 l-29 -11 3 52 3 52 78 3 c59 2 77 6 77 17 0 12 -18 15 -94 15 l-93 0
-7 -52z"/>
<path d="M18902 7184 c-73 -19 -131 -55 -189 -117 -155 -165 -148 -414 16
-570 66 -62 126 -94 210 -109 75 -14 179 0 248 33 66 32 154 118 187 183 56
110 58 254 4 364 -27 58 -106 143 -163 177 -90 52 -210 67 -313 39z m273 -43
c244 -120 298 -434 108 -625 -91 -91 -215 -130 -339 -107 -86 15 -134 41 -202
105 -158 148 -160 394 -5 549 86 87 174 119 303 112 56 -4 90 -12 135 -34z"/>
<path d="M18968 6957 c-21 -12 -38 -30 -38 -39 0 -23 6 -23 41 3 l29 20 0
-130 0 -131 -40 0 c-29 0 -40 -4 -40 -15 0 -12 18 -15 100 -15 82 0 100 3 100
15 0 11 -11 15 -40 15 l-40 0 0 150 c0 169 0 170 -72 127z"/>
<path d="M22721 5189 c-98 -19 -212 -102 -266 -195 -75 -128 -69 -306 15 -430
l29 -44 -278 -209 c-152 -115 -287 -214 -298 -222 -19 -11 -25 -9 -56 18 -112
99 -301 119 -443 47 -65 -33 -152 -121 -183 -186 -52 -109 -50 -255 5 -364 33
-65 121 -152 186 -182 106 -52 249 -52 355 -1 65 31 154 118 186 181 67 132
58 295 -23 414 l-29 44 278 209 c152 115 287 214 298 222 19 11 25 9 56 -18
81 -71 216 -106 328 -85 84 15 144 47 210 109 170 162 170 424 0 586 -104 99
-227 134 -370 106z m254 -48 c110 -52 190 -154 215 -275 55 -265 -181 -506
-447 -457 -76 14 -147 47 -183 86 l-25 27 25 18 c14 10 34 25 45 33 11 9 17
18 13 22 -4 4 -27 -8 -52 -25 -54 -39 -62 -36 -105 51 -53 106 -51 245 6 351
50 93 160 178 255 198 75 16 185 3 253 -29z m-1208 -995 c66 -31 151 -110 185
-173 152 -283 -94 -621 -410 -564 -256 46 -395 328 -277 561 47 92 160 179
259 200 68 15 182 3 243 -24z"/>
<path d="M22627 4955 c-20 -14 -37 -32 -37 -40 0 -20 6 -19 41 6 l29 20 0
-130 0 -131 -40 0 c-29 0 -40 -4 -40 -15 0 -12 18 -15 100 -15 82 0 100 3 100
15 0 11 -11 15 -40 15 l-40 0 0 150 c0 170 -2 173 -73 125z"/>
<path d="M22898 4958 c-22 -13 -38 -30 -38 -40 0 -23 5 -23 41 3 l29 20 0
-130 0 -131 -40 0 c-29 0 -40 -4 -40 -15 0 -12 18 -15 100 -15 82 0 100 3 100
15 0 11 -11 15 -40 15 l-40 0 0 150 c0 169 0 170 -72 128z"/>
<path d="M21520 3948 c0 -18 -3 -57 -7 -87 l-6 -54 29 6 c16 4 44 9 62 13 50
10 82 -16 82 -66 0 -75 -75 -108 -124 -55 -23 25 -56 34 -56 16 0 -6 10 -22
23 -36 16 -20 35 -28 67 -32 83 -9 135 33 135 110 0 31 -7 45 -33 68 -34 31
-71 37 -116 19 -23 -9 -26 -7 -26 14 0 13 3 38 6 55 l7 31 73 0 c59 0 74 3 74
15 0 12 -17 15 -95 15 l-95 0 0 -32z"/>
<path d="M15701 4984 c-30 -8 -70 -24 -90 -36 -51 -30 -128 -106 -157 -155
-74 -127 -68 -305 16 -429 l29 -44 -278 -209 c-152 -115 -287 -214 -298 -222
-19 -11 -25 -9 -56 18 -114 100 -300 120 -443 47 -65 -33 -151 -121 -183 -187
-76 -158 -41 -348 88 -470 99 -93 211 -130 341 -110 91 14 152 45 221 110 144
137 169 356 59 519 l-29 44 278 209 c152 115 287 214 298 222 19 11 25 9 56
-18 110 -96 296 -119 434 -52 66 31 154 118 187 182 82 162 48 355 -83 480
-109 104 -247 140 -390 101z m274 -43 c151 -75 238 -230 220 -396 -8 -82 -43
-153 -107 -221 -63 -67 -122 -99 -212 -115 -112 -21 -252 17 -316 86 l-25 27
25 18 c14 10 34 25 45 33 11 9 17 18 13 22 -4 4 -27 -8 -52 -25 -55 -40 -65
-35 -107 54 -51 107 -48 244 8 348 50 93 160 178 255 198 77 16 186 3 253 -29z
m-1200 -1000 c244 -120 298 -433 108 -625 -91 -91 -215 -130 -339 -107 -86 15
-134 41 -202 105 -158 148 -160 394 -5 549 86 87 174 119 303 112 56 -4 90
-12 135 -34z"/>
<path d="M15627 4755 c-20 -14 -37 -32 -37 -40 0 -20 6 -19 41 6 l29 20 0
-130 0 -131 -40 0 c-29 0 -40 -4 -40 -15 0 -12 18 -15 100 -15 82 0 100 3 100
15 0 11 -11 15 -40 15 l-40 0 0 150 c0 170 -2 173 -73 125z"/>
<path d="M15898 4758 c-22 -13 -38 -30 -38 -40 0 -23 5 -23 41 3 l29 20 0
-130 0 -131 -40 0 c-29 0 -40 -4 -40 -15 0 -12 18 -15 100 -15 82 0 100 3 100
15 0 11 -11 15 -40 15 l-40 0 0 150 c0 169 0 170 -72 128z"/>
<path d="M14520 3748 c0 -18 -3 -57 -7 -87 l-6 -54 29 6 c16 4 44 9 62 13 50
10 82 -16 82 -66 0 -75 -75 -108 -124 -55 -23 25 -56 34 -56 16 0 -6 10 -22
23 -36 16 -20 35 -28 67 -32 83 -9 135 33 135 110 0 72 -90 122 -156 87 -16
-9 -19 -7 -19 13 0 14 3 39 6 56 l7 31 73 0 c59 0 74 3 74 15 0 12 -17 15 -95
15 l-95 0 0 -32z"/>
<path d="M12600 4860 l0 -60 -400 0 c-260 0 -400 -3 -400 -10 0 -6 140 -10
400 -10 l400 0 0 -60 c0 -33 3 -60 6 -60 11 0 408 121 413 126 2 2 2 6 -1 9
-4 5 -402 125 -413 125 -3 0 -5 -27 -5 -60z"/>
<path d="M19000 4860 l0 -60 -400 0 c-260 0 -400 -3 -400 -10 0 -6 140 -10
400 -10 l400 0 0 -60 c0 -33 3 -60 6 -60 11 0 408 121 413 126 2 2 2 6 -1 9
-4 5 -402 125 -413 125 -3 0 -5 -27 -5 -60z"/>
<path d="M3121 4789 c-98 -19 -212 -102 -266 -195 -75 -128 -69 -306 15 -430
l29 -44 -278 -209 c-152 -115 -287 -214 -298 -222 -19 -11 -25 -9 -56 18 -112
99 -301 119 -443 47 -65 -33 -152 -121 -183 -186 -52 -109 -50 -255 5 -364 33
-65 121 -152 186 -182 106 -52 249 -52 355 -1 65 31 154 118 186 181 67 132
58 295 -23 414 l-29 44 278 209 c152 115 287 214 298 222 19 11 25 9 56 -18
81 -71 216 -106 328 -85 84 15 144 47 210 109 170 162 170 424 0 586 -104 99
-227 134 -370 106z m254 -48 c110 -52 190 -154 215 -275 55 -265 -181 -506
-447 -457 -76 14 -147 47 -183 86 l-25 27 25 18 c14 10 34 25 45 33 11 9 17
18 13 22 -4 4 -27 -8 -52 -25 -54 -39 -62 -36 -105 51 -53 106 -51 245 6 351
50 93 160 178 255 198 75 16 185 3 253 -29z m-1208 -995 c66 -31 151 -110 185
-173 152 -283 -94 -621 -410 -564 -256 46 -395 328 -277 561 47 92 160 179
259 200 68 15 182 3 243 -24z"/>
<path d="M3027 4555 c-20 -14 -37 -32 -37 -40 0 -20 6 -19 41 6 l29 20 0 -130
0 -131 -40 0 c-29 0 -40 -4 -40 -15 0 -12 18 -15 100 -15 82 0 100 3 100 15 0
11 -11 15 -40 15 l-40 0 0 150 c0 170 -2 173 -73 125z"/>
<path d="M3298 4558 c-22 -13 -38 -30 -38 -40 0 -23 5 -23 41 3 l29 20 0 -130
0 -131 -40 0 c-29 0 -40 -4 -40 -15 0 -12 18 -15 100 -15 82 0 100 3 100 15 0
11 -11 15 -40 15 l-40 0 0 150 c0 169 0 170 -72 128z"/>
<path d="M1920 3548 c0 -18 -3 -57 -7 -87 l-6 -54 29 6 c16 4 44 9 62 13 50
10 82 -16 82 -66 0 -75 -75 -108 -124 -55 -23 25 -56 34 -56 16 0 -6 10 -22
23 -36 16 -20 35 -28 67 -32 83 -9 135 33 135 110 0 31 -7 45 -33 68 -34 31
-71 37 -116 19 -23 -9 -26 -7 -26 14 0 13 3 38 6 55 l7 31 73 0 c59 0 74 3 74
15 0 12 -17 15 -95 15 l-95 0 0 -32z"/>
<path d="M8721 4789 c-98 -19 -212 -102 -266 -195 -75 -128 -69 -306 15 -430
l29 -44 -278 -209 c-152 -115 -287 -214 -298 -222 -19 -11 -25 -9 -56 18 -112
99 -301 119 -443 47 -65 -33 -152 -121 -183 -186 -52 -109 -50 -255 5 -364 33
-65 121 -152 186 -182 106 -52 249 -52 355 -1 65 31 154 118 186 181 67 132
58 295 -23 414 l-29 44 278 209 c152 115 287 214 298 222 19 11 25 9 56 -18
81 -71 216 -106 328 -85 84 15 144 47 210 109 170 162 170 424 0 586 -104 99
-227 134 -370 106z m254 -48 c110 -52 190 -154 215 -275 55 -265 -181 -506
-447 -457 -76 14 -147 47 -183 86 l-25 27 25 18 c14 10 34 25 45 33 11 9 17
18 13 22 -4 4 -27 -8 -52 -25 -54 -39 -62 -36 -105 51 -53 106 -51 245 6 351
50 93 160 178 255 198 75 16 185 3 253 -29z m-1208 -995 c66 -31 151 -110 185
-173 152 -283 -94 -621 -410 -564 -256 46 -395 328 -277 561 47 92 160 179
259 200 68 15 182 3 243 -24z"/>
<path d="M8627 4555 c-20 -14 -37 -32 -37 -40 0 -20 6 -19 41 6 l29 20 0 -130
0 -131 -40 0 c-29 0 -40 -4 -40 -15 0 -12 18 -15 100 -15 82 0 100 3 100 15 0
11 -11 15 -40 15 l-40 0 0 150 c0 170 -2 173 -73 125z"/>
<path d="M8898 4558 c-22 -13 -38 -30 -38 -40 0 -23 5 -23 41 3 l29 20 0 -130
0 -131 -40 0 c-29 0 -40 -4 -40 -15 0 -12 18 -15 100 -15 82 0 100 3 100 15 0
11 -11 15 -40 15 l-40 0 0 150 c0 169 0 170 -72 128z"/>
<path d="M7520 3548 c0 -18 -3 -57 -7 -87 l-6 -54 29 6 c16 4 44 9 62 13 50
10 82 -16 82 -66 0 -75 -75 -108 -124 -55 -23 25 -56 34 -56 16 0 -6 10 -22
23 -36 16 -20 35 -28 67 -32 83 -9 135 33 135 110 0 31 -7 45 -33 68 -34 31
-71 37 -116 19 -23 -9 -26 -7 -26 14 0 13 3 38 6 55 l7 31 73 0 c59 0 74 3 74
15 0 12 -17 15 -95 15 l-95 0 0 -32z"/>
<path d="M6400 4660 l0 -60 -400 0 c-260 0 -400 -3 -400 -10 0 -6 140 -10 400
-10 l400 0 0 -60 c0 -33 2 -60 5 -60 10 0 409 121 414 125 2 3 2 7 0 9 -5 5
-402 126 -413 126 -3 0 -6 -27 -6 -60z"/>
<path d="M23200 4592 c0 -12 810 -615 817 -608 4 3 2 10 -3 15 -25 23 -802
601 -807 601 -4 0 -7 -3 -7 -8z"/>
<path d="M16200 4392 c0 -12 810 -615 817 -608 4 3 2 10 -3 15 -25 23 -802
601 -807 601 -4 0 -7 -3 -7 -8z"/>
<path d="M3600 4192 c0 -12 810 -615 817 -608 4 3 2 10 -3 15 -25 23 -802 601
-807 601 -4 0 -7 -3 -7 -8z"/>
<path d="M9200 4192 c0 -12 810 -615 817 -608 4 3 2 10 -3 15 -25 23 -802 601
-807 601 -4 0 -7 -3 -7 -8z"/>
<path d="M24321 4189 c-68 -13 -131 -48 -192 -106 -67 -64 -106 -137 -121
-227 -14 -84 0 -178 38 -252 33 -65 121 -152 186 -182 136 -66 320 -46 430 46
l30 25 358 -358 c198 -198 363 -356 367 -352 4 4 -154 169 -352 367 l-358 358
25 30 c94 112 112 300 42 438 -32 64 -121 151 -184 182 -80 38 -176 49 -269
31z m254 -48 c151 -75 238 -231 220 -397 -7 -68 -50 -167 -85 -199 -20 -18
-21 -18 -60 20 -52 50 -66 37 -15 -15 33 -34 36 -41 25 -55 -27 -33 -115 -74
-182 -86 -315 -56 -558 275 -413 561 47 92 160 179 259 200 75 16 184 3 251
-29z"/>
<path d="M24228 3957 c-21 -12 -38 -30 -38 -39 0 -23 6 -23 41 3 l29 20 0
-130 0 -131 -40 0 c-29 0 -40 -4 -40 -15 0 -12 18 -15 100 -15 82 0 100 3 100
15 0 11 -11 15 -40 15 l-40 0 0 150 c0 169 0 170 -72 127z"/>
<path d="M24430 3965 c0 -12 17 -15 90 -15 l89 0 -35 -58 c-68 -115 -97 -242
-54 -242 15 0 20 7 20 29 0 46 37 151 75 214 53 87 53 87 -75 87 -91 0 -110
-3 -110 -15z"/>
<path d="M17302 3984 c-73 -19 -131 -55 -189 -117 -155 -165 -148 -414 16
-570 66 -62 126 -94 210 -109 108 -20 243 13 323 80 l30 25 358 -358 c198
-198 363 -356 367 -352 4 4 -154 169 -352 367 l-358 358 25 30 c92 110 112
294 46 430 -27 58 -106 143 -163 177 -90 52 -210 67 -313 39z m273 -43 c151
-75 238 -231 220 -397 -7 -68 -50 -167 -85 -199 -20 -18 -21 -18 -60 20 -52
50 -65 37 -15 -15 38 -39 38 -40 19 -61 -56 -62 -202 -100 -310 -80 -86 15
-134 41 -202 105 -158 148 -160 394 -5 549 86 87 174 119 303 112 56 -4 90
-12 135 -34z"/>
<path d="M17227 3755 c-20 -14 -37 -32 -37 -40 0 -20 6 -19 41 6 l29 20 0
-130 0 -131 -40 0 c-29 0 -40 -4 -40 -15 0 -12 18 -15 100 -15 82 0 100 3 100
15 0 11 -11 15 -40 15 l-40 0 0 150 c0 170 -2 173 -73 125z"/>
<path d="M17430 3765 c0 -12 17 -15 90 -15 l89 0 -35 -58 c-68 -115 -97 -242
-54 -242 15 0 20 7 20 29 0 46 37 151 75 214 53 87 53 87 -75 87 -91 0 -110
-3 -110 -15z"/>
<path d="M4721 3789 c-105 -20 -224 -113 -275 -213 -57 -113 -57 -259 0 -372
33 -65 121 -152 186 -182 106 -52 249 -52 355 -1 66 31 154 118 187 183 38 74
52 168 38 252 -15 90 -54 163 -121 227 -104 99 -227 134 -370 106z m254 -48
c110 -55 191 -157 215 -275 54 -266 -180 -505 -448 -457 -256 46 -395 328
-277 561 47 92 160 179 259 200 75 16 184 3 251 -29z"/>
<path d="M4628 3557 c-21 -12 -38 -30 -38 -39 0 -23 6 -23 41 3 l29 20 0 -130
0 -131 -40 0 c-29 0 -40 -4 -40 -15 0 -12 18 -15 100 -15 82 0 100 3 100 15 0
11 -11 15 -40 15 l-40 0 0 150 c0 169 0 170 -72 127z"/>
<path d="M4830 3565 c0 -12 17 -15 90 -15 l89 0 -35 -58 c-68 -115 -97 -242
-54 -242 15 0 20 7 20 29 0 46 37 151 75 214 53 87 53 87 -75 87 -91 0 -110
-3 -110 -15z"/>
<path d="M10321 3789 c-68 -13 -131 -48 -192 -106 -67 -64 -106 -137 -121
-227 -14 -84 0 -178 38 -252 33 -65 121 -152 186 -182 136 -66 320 -46 430 46
l30 25 358 -358 c198 -198 363 -356 367 -352 4 4 -154 169 -352 367 l-358 358
25 30 c94 112 112 300 42 438 -32 64 -121 151 -184 182 -80 38 -176 49 -269
31z m254 -48 c151 -75 238 -231 220 -397 -7 -68 -50 -167 -85 -199 -20 -18
-21 -18 -60 20 -52 50 -66 37 -15 -15 33 -34 36 -41 25 -55 -27 -33 -115 -74
-182 -86 -315 -56 -558 275 -413 561 47 92 160 179 259 200 75 16 184 3 251
-29z"/>
<path d="M10228 3557 c-21 -12 -38 -30 -38 -39 0 -23 6 -23 41 3 l29 20 0
-130 0 -131 -40 0 c-29 0 -40 -4 -40 -15 0 -12 18 -15 100 -15 82 0 100 3 100
15 0 11 -11 15 -40 15 l-40 0 0 150 c0 169 0 170 -72 127z"/>
<path d="M10430 3565 c0 -12 17 -15 90 -15 l89 0 -35 -58 c-68 -115 -97 -242
-54 -242 15 0 20 7 20 29 0 46 37 151 75 214 53 87 53 87 -75 87 -91 0 -110
-3 -110 -15z"/>
<path d="M21202 2994 c-112 -223 -201 -409 -198 -412 4 -3 8 -3 10 -1 6 6 406
808 406 814 0 28 -44 -53 -218 -401z"/>
<path d="M21800 3395 c0 -3 88 -181 195 -395 107 -214 195 -392 195 -394 0 -2
-27 -9 -59 -15 -79 -15 -145 -51 -207 -113 -165 -161 -163 -422 5 -581 99 -93
211 -130 341 -110 91 14 152 45 221 110 170 162 170 424 0 586 -67 64 -128 95
-214 109 l-63 10 -200 399 c-170 342 -214 422 -214 394z m575 -854 c151 -75
238 -230 220 -396 -8 -82 -43 -153 -107 -221 -63 -67 -122 -99 -212 -115 -127
-24 -249 16 -343 113 -150 153 -148 389 4 541 52 52 125 94 185 107 77 16 186
3 253 -29z"/>
<path d="M22155 2368 c-50 -29 -60 -84 -21 -123 17 -17 20 -25 10 -29 -27 -10
-46 -55 -40 -91 12 -62 87 -91 165 -64 38 13 51 35 51 87 0 40 -22 71 -51 73
-8 0 -5 5 8 11 12 6 27 24 34 41 23 55 -26 107 -101 107 -19 -1 -44 -6 -55
-12z m96 -28 c22 -12 27 -68 7 -88 -17 -17 -68 -15 -90 5 -54 49 15 119 83 83z
m11 -147 c22 -20 23 -70 1 -95 -16 -18 -68 -24 -90 -10 -34 21 -35 102 -1 115
27 11 72 6 90 -10z"/>
<path d="M24101 3097 c-56 -166 -101 -305 -101 -310 0 -4 4 -7 9 -7 8 0 211
590 211 613 0 4 -4 7 -9 7 -5 0 -55 -136 -110 -303z"/>
<path d="M14202 2794 c-112 -223 -201 -409 -198 -412 4 -3 8 -3 10 -1 6 6 406
808 406 814 0 28 -44 -53 -218 -401z"/>
<path d="M14800 3195 c0 -3 88 -181 195 -395 107 -214 195 -392 195 -394 0 -2
-27 -9 -59 -15 -79 -15 -145 -51 -207 -113 -165 -161 -163 -422 5 -581 69 -65
130 -96 221 -110 130 -20 242 17 341 110 170 162 170 424 0 586 -67 64 -128
95 -214 109 l-63 10 -200 399 c-170 342 -214 422 -214 394z m575 -854 c286
-136 298 -532 21 -692 -104 -59 -254 -61 -365 -4 -148 75 -235 256 -201 421
30 145 154 275 292 304 75 16 185 3 253 -29z"/>
<path d="M15155 2168 c-50 -29 -60 -84 -21 -123 17 -17 20 -25 10 -29 -27 -10
-46 -55 -40 -91 12 -64 106 -96 175 -60 33 17 41 33 41 85 0 29 -6 43 -24 58
-24 18 -24 19 -6 35 44 37 30 106 -26 127 -34 13 -84 12 -109 -2z m96 -28 c22
-12 27 -68 7 -88 -17 -17 -68 -15 -90 5 -54 49 15 119 83 83z m11 -147 c22
-20 23 -70 1 -95 -16 -18 -68 -24 -90 -10 -6 4 -17 20 -22 35 -11 29 -1 63 23
79 20 13 69 8 88 -9z"/>
<path d="M17101 2897 c-56 -166 -101 -305 -101 -310 0 -4 4 -7 9 -7 8 0 211
590 211 613 0 4 -4 7 -9 7 -5 0 -55 -136 -110 -303z"/>
<path d="M1602 2594 c-112 -223 -201 -409 -198 -412 4 -3 8 -3 10 -1 6 6 406
808 406 814 0 28 -44 -53 -218 -401z"/>
<path d="M2200 2995 c0 -3 88 -181 195 -395 107 -214 195 -392 195 -394 0 -2
-27 -9 -59 -15 -79 -15 -145 -51 -207 -113 -165 -161 -163 -422 5 -581 99 -93
211 -130 341 -110 91 14 152 45 221 110 170 162 170 424 0 586 -67 64 -128 95
-214 109 l-63 10 -200 399 c-170 342 -214 422 -214 394z m575 -854 c151 -75
238 -230 220 -396 -8 -82 -43 -153 -107 -221 -63 -67 -122 -99 -212 -115 -127
-24 -249 16 -343 113 -150 153 -148 389 4 541 52 52 125 94 185 107 77 16 186
3 253 -29z"/>
<path d="M2555 1968 c-50 -29 -60 -84 -21 -123 17 -17 20 -25 10 -29 -27 -10
-46 -55 -40 -91 12 -62 87 -91 165 -64 38 13 51 35 51 87 0 40 -22 71 -51 73
-8 0 -5 5 8 11 12 6 27 24 34 41 23 55 -26 107 -101 107 -19 -1 -44 -6 -55
-12z m96 -28 c22 -12 27 -68 7 -88 -17 -17 -68 -15 -90 5 -54 49 15 119 83 83z
m11 -147 c22 -20 23 -70 1 -95 -16 -18 -68 -24 -90 -10 -34 21 -35 102 -1 115
27 11 72 6 90 -10z"/>
<path d="M4501 2697 c-56 -166 -101 -305 -101 -310 0 -4 4 -7 9 -7 8 0 211
590 211 613 0 4 -4 7 -9 7 -5 0 -55 -136 -110 -303z"/>
<path d="M7202 2594 c-112 -223 -201 -409 -198 -412 4 -3 8 -3 10 -1 6 6 406
808 406 814 0 28 -44 -53 -218 -401z"/>
<path d="M7800 2995 c0 -3 88 -181 195 -395 107 -214 195 -392 195 -394 0 -2
-27 -9 -59 -15 -79 -15 -145 -51 -207 -113 -165 -161 -163 -422 5 -581 99 -93
211 -130 341 -110 91 14 152 45 221 110 170 162 170 424 0 586 -67 64 -128 95
-214 109 l-63 10 -200 399 c-170 342 -214 422 -214 394z m575 -854 c151 -75
238 -230 220 -396 -8 -82 -43 -153 -107 -221 -63 -67 -122 -99 -212 -115 -127
-24 -249 16 -343 113 -150 153 -148 389 4 541 52 52 125 94 185 107 77 16 186
3 253 -29z"/>
<path d="M8155 1968 c-50 -29 -60 -84 -21 -123 17 -17 20 -25 10 -29 -27 -10
-46 -55 -40 -91 12 -62 87 -91 165 -64 38 13 51 35 51 87 0 40 -22 71 -51 73
-8 0 -5 5 8 11 12 6 27 24 34 41 23 55 -26 107 -101 107 -19 -1 -44 -6 -55
-12z m96 -28 c22 -12 27 -68 7 -88 -17 -17 -68 -15 -90 5 -54 49 15 119 83 83z
m11 -147 c22 -20 23 -70 1 -95 -16 -18 -68 -24 -90 -10 -34 21 -35 102 -1 115
27 11 72 6 90 -10z"/>
<path d="M10101 2697 c-56 -166 -101 -305 -101 -310 0 -4 4 -7 9 -7 8 0 211
590 211 613 0 4 -4 7 -9 7 -5 0 -55 -136 -110 -303z"/>
<path d="M23702 2784 c-73 -19 -131 -55 -189 -117 -155 -165 -148 -414 16
-570 66 -62 126 -94 210 -109 75 -14 179 0 248 33 66 32 154 118 187 183 56
110 58 254 4 364 -27 58 -106 143 -163 177 -90 52 -210 67 -313 39z m273 -43
c244 -120 298 -434 108 -625 -91 -91 -215 -130 -339 -107 -86 15 -134 41 -202
105 -158 148 -160 394 -5 549 86 87 174 119 303 112 56 -4 90 -12 135 -34z"/>
<path d="M23627 2555 c-20 -14 -37 -32 -37 -40 0 -20 6 -19 41 6 l29 20 0
-130 0 -131 -40 0 c-29 0 -40 -4 -40 -15 0 -12 18 -15 100 -15 82 0 100 3 100
15 0 11 -11 15 -40 15 l-40 0 0 150 c0 170 -2 173 -73 125z"/>
<path d="M23846 2528 c-3 -29 -6 -68 -6 -87 0 -32 1 -33 33 -27 89 19 95 18
116 -3 28 -28 28 -84 1 -111 -28 -28 -76 -26 -104 5 -23 25 -56 34 -56 16 0
-6 10 -22 23 -36 43 -51 157 -41 187 14 17 33 12 96 -10 124 -25 31 -81 45
-122 29 l-29 -11 3 52 3 52 78 3 c59 2 77 6 77 17 0 12 -18 15 -94 15 l-93 0
-7 -52z"/>
<path d="M25521 2789 c-68 -13 -131 -48 -192 -106 -170 -162 -170 -424 0 -586
65 -62 124 -93 207 -108 105 -20 213 2 300 61 l44 29 256 -342 c289 -385 271
-363 280 -354 4 3 -111 163 -255 355 -143 192 -261 353 -261 359 0 5 11 19 24
32 37 35 77 124 89 200 20 135 -22 259 -122 354 -104 99 -227 134 -370 106z
m254 -48 c70 -33 147 -106 180 -171 69 -137 50 -318 -45 -426 l-29 -34 -32 45
c-18 25 -36 45 -41 45 -13 0 -9 -10 23 -55 17 -24 28 -48 24 -54 -15 -26 -113
-71 -177 -82 -127 -23 -250 16 -341 107 -153 154 -153 394 0 547 52 52 125 94
185 107 75 16 185 3 253 -29z"/>
<path d="M25427 2555 c-20 -14 -37 -32 -37 -40 0 -20 6 -19 41 6 l29 20 0
-130 0 -131 -40 0 c-29 0 -40 -4 -40 -15 0 -12 18 -15 100 -15 82 0 100 3 100
15 0 11 -11 15 -40 15 l-40 0 0 150 c0 170 -2 173 -73 125z"/>
<path d="M25681 2566 c-51 -28 -65 -97 -31 -153 25 -41 77 -53 126 -29 32 15
34 15 34 -4 0 -78 -75 -129 -117 -80 -18 20 -53 28 -53 11 0 -25 39 -53 80
-58 81 -9 130 53 130 167 0 70 -18 120 -51 144 -28 19 -85 20 -118 2z m102
-34 c45 -50 18 -132 -43 -132 -33 0 -70 40 -70 75 0 59 76 98 113 57z"/>
<path d="M16721 2589 c-68 -13 -131 -48 -192 -106 -67 -64 -106 -137 -121
-227 -22 -135 21 -264 121 -359 99 -93 211 -130 341 -110 91 14 152 45 221
110 100 95 143 224 121 359 -15 90 -54 163 -121 227 -104 99 -227 134 -370
106z m254 -48 c110 -55 191 -157 215 -275 54 -266 -180 -505 -448 -457 -256
46 -395 328 -277 561 47 92 160 179 259 200 75 16 184 3 251 -29z"/>
<path d="M16628 2357 c-21 -12 -38 -30 -38 -39 0 -23 6 -23 41 3 l29 20 0
-130 0 -131 -40 0 c-29 0 -40 -4 -40 -15 0 -12 18 -15 100 -15 82 0 100 3 100
15 0 11 -11 15 -40 15 l-40 0 0 150 c0 169 0 170 -72 127z"/>
<path d="M16846 2328 c-3 -29 -6 -68 -6 -87 0 -32 1 -33 33 -27 89 19 95 18
116 -3 28 -28 28 -84 1 -111 -28 -28 -76 -26 -104 5 -23 25 -56 34 -56 16 0
-6 10 -22 23 -36 43 -51 157 -41 187 14 17 33 12 96 -10 124 -25 31 -81 45
-122 29 l-29 -11 3 52 3 52 78 3 c59 2 77 6 77 17 0 12 -18 15 -94 15 l-93 0
-7 -52z"/>
<path d="M18502 2584 c-73 -19 -131 -55 -189 -117 -90 -95 -125 -209 -106
-338 15 -93 54 -167 122 -232 99 -93 211 -130 341 -110 91 14 152 45 221 110
170 162 170 424 0 586 -109 104 -247 140 -389 101z m273 -43 c151 -75 238
-230 220 -396 -8 -82 -43 -153 -107 -221 -63 -67 -122 -99 -212 -115 -127 -24
-249 16 -343 113 -150 153 -148 389 4 541 52 52 125 94 185 107 77 16 186 3
253 -29z"/>
<path d="M18427 2355 c-20 -14 -37 -32 -37 -40 0 -20 6 -19 41 6 l29 20 0
-130 0 -131 -40 0 c-29 0 -40 -4 -40 -15 0 -12 18 -15 100 -15 82 0 100 3 100
15 0 11 -11 15 -40 15 l-40 0 0 150 c0 170 -2 173 -73 125z"/>
<path d="M18681 2366 c-51 -28 -65 -97 -31 -153 25 -41 77 -53 126 -29 32 15
34 15 34 -4 0 -78 -75 -129 -117 -80 -18 20 -53 28 -53 11 0 -25 39 -53 80
-58 81 -9 130 53 130 167 0 70 -18 120 -51 144 -28 19 -85 20 -118 2z m102
-34 c45 -50 18 -132 -43 -132 -33 0 -70 40 -70 75 0 59 76 98 113 57z"/>
<path d="M20721 2589 c-68 -13 -131 -48 -192 -106 -100 -95 -143 -224 -121
-359 15 -90 54 -163 121 -227 99 -93 211 -130 341 -110 91 14 152 45 221 110
100 95 143 224 121 359 -15 90 -54 163 -121 227 -104 99 -227 134 -370 106z
m254 -48 c110 -55 191 -157 215 -275 54 -266 -180 -505 -448 -457 -256 46
-395 328 -277 561 47 92 160 179 259 200 75 16 184 3 251 -29z"/>
<path d="M20767 2355 c-20 -14 -37 -32 -37 -40 0 -20 6 -19 41 6 l29 20 0
-130 0 -131 -40 0 c-29 0 -40 -4 -40 -15 0 -12 18 -15 100 -15 82 0 100 3 100
15 0 11 -11 15 -40 15 l-40 0 0 150 c0 170 -2 173 -73 125z"/>
<path d="M4102 2384 c-73 -19 -131 -55 -189 -117 -155 -165 -148 -414 16 -570
66 -62 126 -94 210 -109 75 -14 179 0 248 33 66 32 154 118 187 183 56 110 58
254 4 364 -27 58 -106 143 -163 177 -90 52 -210 67 -313 39z m273 -43 c244
-120 298 -434 108 -625 -91 -91 -215 -130 -339 -107 -86 15 -134 41 -202 105
-158 148 -160 394 -5 549 86 87 174 119 303 112 56 -4 90 -12 135 -34z"/>
<path d="M4027 2155 c-20 -14 -37 -32 -37 -40 0 -20 6 -19 41 6 l29 20 0 -130
0 -131 -40 0 c-29 0 -40 -4 -40 -15 0 -12 18 -15 100 -15 82 0 100 3 100 15 0
11 -11 15 -40 15 l-40 0 0 150 c0 170 -2 173 -73 125z"/>
<path d="M4246 2128 c-3 -29 -6 -68 -6 -87 0 -32 1 -33 33 -27 89 19 95 18
116 -3 28 -28 28 -84 1 -111 -28 -28 -76 -26 -104 5 -23 25 -56 34 -56 16 0
-6 10 -22 23 -36 43 -51 157 -41 187 14 17 33 12 96 -10 124 -25 31 -81 45
-122 29 l-29 -11 3 52 3 52 78 3 c59 2 77 6 77 17 0 12 -18 15 -94 15 l-93 0
-7 -52z"/>
<path d="M9702 2384 c-73 -19 -131 -55 -189 -117 -155 -165 -148 -414 16 -570
66 -62 126 -94 210 -109 75 -14 179 0 248 33 66 32 154 118 187 183 56 110 58
254 4 364 -27 58 -106 143 -163 177 -90 52 -210 67 -313 39z m273 -43 c244
-120 298 -434 108 -625 -91 -91 -215 -130 -339 -107 -86 15 -134 41 -202 105
-158 148 -160 394 -5 549 86 87 174 119 303 112 56 -4 90 -12 135 -34z"/>
<path d="M9627 2155 c-20 -14 -37 -32 -37 -40 0 -20 6 -19 41 6 l29 20 0 -130
0 -131 -40 0 c-29 0 -40 -4 -40 -15 0 -12 18 -15 100 -15 82 0 100 3 100 15 0
11 -11 15 -40 15 l-40 0 0 150 c0 170 -2 173 -73 125z"/>
<path d="M9846 2128 c-3 -29 -6 -68 -6 -87 0 -32 1 -33 33 -27 89 19 95 18
116 -3 28 -28 28 -84 1 -111 -28 -28 -76 -26 -104 5 -23 25 -56 34 -56 16 0
-6 10 -22 23 -36 43 -51 157 -41 187 14 17 33 12 96 -10 124 -25 31 -81 45
-122 29 l-29 -11 3 52 3 52 78 3 c59 2 77 6 77 17 0 12 -18 15 -94 15 l-93 0
-7 -52z"/>
<path d="M11521 2389 c-68 -13 -131 -48 -192 -106 -170 -162 -170 -424 0 -586
69 -65 130 -96 221 -110 130 -20 242 17 341 110 171 162 171 424 0 586 -104
99 -227 134 -370 106z m254 -48 c158 -75 247 -248 216 -417 -16 -90 -48 -149
-115 -212 -68 -64 -139 -99 -221 -107 -168 -18 -321 68 -398 224 -29 60 -32
73 -32 161 1 81 4 103 27 152 31 68 105 149 166 186 103 59 247 65 357 13z"/>
<path d="M11427 2155 c-20 -14 -37 -32 -37 -40 0 -20 6 -19 41 6 l29 20 0
-130 0 -131 -40 0 c-29 0 -40 -4 -40 -15 0 -12 18 -15 100 -15 82 0 100 3 100
15 0 11 -11 15 -40 15 l-40 0 0 150 c0 170 -2 173 -73 125z"/>
<path d="M11681 2166 c-51 -28 -65 -97 -31 -153 25 -41 77 -53 126 -29 32 15
34 15 34 -4 0 -78 -75 -129 -117 -80 -18 20 -53 28 -53 11 0 -25 39 -53 80
-58 81 -9 130 53 130 167 0 70 -18 120 -51 144 -28 19 -85 20 -118 2z m102
-34 c45 -50 18 -132 -43 -132 -33 0 -70 40 -70 75 0 59 76 98 113 57z"/>
<path d="M13702 2384 c-73 -19 -131 -55 -189 -117 -155 -165 -148 -414 16
-570 66 -62 126 -94 210 -109 75 -14 179 0 248 33 66 32 154 118 187 183 56
110 58 254 4 364 -27 58 -106 143 -163 177 -90 52 -210 67 -313 39z m273 -43
c244 -120 298 -434 108 -625 -91 -91 -215 -130 -339 -107 -86 15 -134 41 -202
105 -158 148 -160 394 -5 549 86 87 174 119 303 112 56 -4 90 -12 135 -34z"/>
<path d="M13768 2157 c-21 -12 -38 -30 -38 -39 0 -23 6 -23 41 3 l29 20 0
-130 0 -131 -40 0 c-29 0 -40 -4 -40 -15 0 -12 18 -15 100 -15 82 0 100 3 100
15 0 11 -11 15 -40 15 l-40 0 0 150 c0 169 0 170 -72 127z"/>
<path d="M1121 2189 c-105 -20 -224 -113 -275 -213 -57 -113 -57 -259 0 -372
33 -65 121 -152 186 -182 106 -52 249 -52 355 -1 66 31 154 118 187 183 57
113 57 259 0 372 -32 64 -121 151 -184 182 -80 38 -176 49 -269 31z m254 -48
c159 -79 247 -249 216 -418 -16 -89 -48 -148 -115 -211 -68 -64 -139 -99 -221
-107 -167 -18 -325 71 -399 225 -27 59 -31 74 -31 160 0 86 4 101 31 160 35
72 107 150 169 183 107 55 246 58 350 8z"/>
<path d="M1167 1955 c-20 -14 -37 -32 -37 -40 0 -20 6 -19 41 6 l29 20 0 -130
0 -131 -40 0 c-29 0 -40 -4 -40 -15 0 -12 18 -15 100 -15 82 0 100 3 100 15 0
11 -11 15 -40 15 l-40 0 0 150 c0 170 -2 173 -73 125z"/>
<path d="M6721 2189 c-68 -13 -131 -48 -192 -106 -67 -64 -106 -137 -121 -227
-22 -135 21 -264 121 -359 99 -93 211 -130 341 -110 91 14 152 45 221 110 100
95 143 224 121 359 -15 90 -54 163 -121 227 -104 99 -227 134 -370 106z m254
-48 c110 -55 191 -157 215 -275 54 -266 -180 -505 -448 -457 -256 46 -395 328
-277 561 47 92 160 179 259 200 75 16 184 3 251 -29z"/>
<path d="M6767 1955 c-20 -14 -37 -32 -37 -40 0 -20 6 -19 41 6 l29 20 0 -130
0 -131 -40 0 c-29 0 -40 -4 -40 -15 0 -12 18 -15 100 -15 82 0 100 3 100 15 0
11 -11 15 -40 15 l-40 0 0 150 c0 170 -2 173 -73 125z"/>
<path d="M23501 1697 c-56 -166 -101 -305 -101 -310 0 -4 4 -7 9 -7 8 0 211
590 211 613 0 4 -4 7 -9 7 -5 0 -55 -136 -110 -303z"/>
<path d="M16501 1497 c-56 -166 -101 -305 -101 -310 0 -4 4 -7 9 -7 8 0 211
590 211 613 0 4 -4 7 -9 7 -5 0 -55 -136 -110 -303z"/>
<path d="M23121 1389 c-68 -13 -131 -48 -192 -106 -67 -64 -106 -137 -121
-227 -22 -135 21 -264 121 -359 99 -93 211 -130 341 -110 91 14 152 45 221
110 100 95 143 224 121 359 -15 90 -54 163 -121 227 -104 99 -227 134 -370
106z m254 -48 c110 -55 191 -157 215 -275 54 -266 -180 -505 -448 -457 -256
46 -395 328 -277 561 47 92 160 179 259 200 75 16 184 3 251 -29z"/>
<path d="M23028 1157 c-21 -12 -38 -30 -38 -39 0 -23 6 -23 41 3 l29 20 0
-130 0 -131 -40 0 c-29 0 -40 -4 -40 -15 0 -12 18 -15 100 -15 82 0 100 3 100
15 0 11 -11 15 -40 15 l-40 0 0 150 c0 169 0 170 -72 127z"/>
<path d="M23279 1165 c-14 -7 -31 -25 -37 -40 -10 -22 -9 -27 5 -32 10 -4 21
1 29 13 26 38 35 44 64 44 36 0 60 -23 60 -60 0 -33 -31 -60 -67 -60 -14 0
-23 -6 -23 -15 0 -10 10 -15 28 -15 41 0 72 -26 72 -60 0 -54 -79 -81 -120
-40 -11 11 -20 25 -20 30 0 6 -9 10 -20 10 -26 0 -25 -23 3 -55 45 -52 178
-40 192 18 13 50 2 81 -35 99 -19 10 -29 18 -22 18 37 0 64 67 46 115 -16 40
-105 57 -155 30z"/>
<path d="M26502 1384 c-73 -19 -131 -55 -189 -117 -90 -95 -125 -209 -106
-338 15 -93 54 -167 122 -232 99 -93 211 -130 341 -110 91 14 152 45 221 110
170 162 170 424 0 586 -109 104 -247 140 -389 101z m273 -43 c151 -75 238
-230 220 -396 -8 -82 -43 -153 -107 -221 -63 -67 -122 -99 -212 -115 -127 -24
-249 16 -343 113 -150 153 -148 389 4 541 52 52 125 94 185 107 77 16 186 3
253 -29z"/>
<path d="M26424 1170 c-24 -9 -54 -47 -54 -67 0 -21 37 -15 43 7 13 51 104 50
118 -1 10 -38 -13 -77 -72 -124 -52 -42 -89 -91 -89 -119 0 -14 15 -16 105
-16 85 0 105 3 105 15 0 11 -19 15 -87 17 l-88 3 82 80 c45 44 84 92 88 107
19 73 -70 131 -151 98z"/>
<path d="M26698 1158 c-22 -13 -38 -30 -38 -40 0 -23 5 -23 41 3 l29 20 0
-130 0 -131 -40 0 c-29 0 -40 -4 -40 -15 0 -12 18 -15 100 -15 82 0 100 3 100
15 0 11 -11 15 -40 15 l-40 0 0 150 c0 169 0 170 -72 128z"/>
<path d="M16102 1184 c-73 -19 -131 -55 -189 -117 -155 -165 -148 -414 16
-570 66 -62 126 -94 210 -109 75 -14 179 0 248 33 66 32 154 118 187 183 56
110 58 254 4 364 -27 58 -106 143 -163 177 -90 52 -210 67 -313 39z m273 -43
c244 -120 298 -434 108 -625 -91 -91 -215 -130 -339 -107 -86 15 -134 41 -202
105 -158 148 -160 394 -5 549 86 87 174 119 303 112 56 -4 90 -12 135 -34z"/>
<path d="M16027 955 c-20 -14 -37 -32 -37 -40 0 -20 6 -19 41 6 l29 20 0 -130
0 -131 -40 0 c-29 0 -40 -4 -40 -15 0 -12 18 -15 100 -15 82 0 100 3 100 15 0
11 -11 15 -40 15 l-40 0 0 150 c0 170 -2 173 -73 125z"/>
<path d="M16279 965 c-14 -7 -31 -25 -37 -40 -10 -22 -9 -27 5 -32 10 -4 21 1
29 13 26 38 35 44 64 44 36 0 60 -23 60 -60 0 -33 -31 -60 -67 -60 -14 0 -23
-6 -23 -15 0 -10 10 -15 28 -15 41 0 72 -26 72 -60 0 -54 -79 -81 -120 -40
-11 11 -20 25 -20 30 0 6 -9 10 -20 10 -26 0 -25 -23 3 -55 45 -52 178 -40
192 18 12 48 2 81 -31 98 l-31 15 28 17 c23 13 29 23 29 51 0 48 -8 65 -41 81
-35 19 -86 19 -120 0z"/>
</g>
</svg>
