<?xml version="1.0" encoding="UTF-8" standalone="no"?>
<svg
   width="445pt"
   height="303pt"
   viewBox="0.00 0.00 445.00 303.00"
   version="1.1"
   id="svg28"
   sodipodi:docname="Fig8_12b_Tree.svg"
   inkscape:version="1.4.3 (fcd0343856, 2026-01-01)"
   xmlns:inkscape="http://www.inkscape.org/namespaces/inkscape"
   xmlns:sodipodi="http://sodipodi.sourceforge.net/DTD/sodipodi-0.dtd"
   xmlns="http://www.w3.org/2000/svg"
   xmlns:svg="http://www.w3.org/2000/svg">
  <defs
     id="defs28" />
  <sodipodi:namedview
     id="namedview28"
     pagecolor="#505050"
     bordercolor="#eeeeee"
     borderopacity="1"
     inkscape:showpageshadow="0"
     inkscape:pageopacity="0"
     inkscape:pagecheckerboard="0"
     inkscape:deskcolor="#505050"
     inkscape:document-units="pt"
     inkscape:zoom="1"
     inkscape:cx="296.5"
     inkscape:cy="202"
     inkscape:window-width="1920"
     inkscape:window-height="1152"
     inkscape:window-x="0"
     inkscape:window-y="25"
     inkscape:window-maximized="1"
     inkscape:current-layer="svg28" />
  <g
     id="node1"
     class="node"
     transform="matrix(0.51207241,0,0,0.51207241,110.56338,227.18189)">
    <title
       id="title2">n11</title>
    <circle
       fill="#000000"
       stroke="#ffffff"
       stroke-width="3"
       cx="250.39999"
       cy="-271.79999"
       id="ellipse2"
       r="23.4" />
    <text
       xml:space="preserve"
       text-anchor="middle"
       x="250.39999"
       y="-264.60001"
       font-family="Arial"
       font-size="24px"
       fill="#ffffff"
       id="text2">11</text>
  </g>
  <g
     id="node2"
     class="node"
     transform="matrix(0.51207241,0,0,0.51207241,110.56338,227.18189)">
    <title
       id="title3">n5</title>
    <circle
       fill="#000000"
       stroke="#ffffff"
       stroke-width="3"
       cx="185.39999"
       cy="-189"
       id="ellipse3"
       r="23.4" />
    <text
       xml:space="preserve"
       text-anchor="middle"
       x="185.39999"
       y="-181.8"
       font-family="Arial"
       font-size="24px"
       fill="#ffffff"
       id="text3">5</text>
  </g>
  <g
     id="edge1"
     class="edge"
     transform="matrix(0.51207241,0,0,0.51207241,110.56338,227.18189)">
    <title
       id="title4">n11-&gt;n5</title>
    <path
       fill="none"
       stroke="#ffffff"
       stroke-width="2"
       d="m 235.32,-252.06 c -10.5,13.05 -24.44,30.39 -34.93,43.42"
       id="path4" />
  </g>
  <g
     id="node3"
     class="node"
     transform="matrix(0.51207241,0,0,0.51207241,110.56338,227.18189)">
    <title
       id="title5">n17</title>
    <circle
       fill="#000000"
       stroke="#ffffff"
       stroke-width="3"
       cx="299.39999"
       cy="-189"
       id="ellipse5"
       r="23.4" />
    <text
       xml:space="preserve"
       text-anchor="middle"
       x="299.39999"
       y="-181.8"
       font-family="Arial"
       font-size="24px"
       fill="#ffffff"
       id="text5">17</text>
  </g>
  <g
     id="edge2"
     class="edge"
     transform="matrix(0.51207241,0,0,0.51207241,110.56338,227.18189)">
    <title
       id="title6">n11-&gt;n17</title>
    <path
       fill="none"
       stroke="#ffffff"
       stroke-width="2"
       d="m 262.76,-250.41 c 7.43,12.25 16.85,27.78 24.28,40.03"
       id="path6" />
  </g>
  <g
     id="node4"
     class="node"
     transform="matrix(0.51207241,0,0,0.51207241,110.56338,227.18189)">
    <title
       id="title7">n2</title>
    <circle
       fill="#000000"
       stroke="#ffffff"
       stroke-width="3"
       cx="88.400002"
       cy="-106.2"
       id="ellipse7"
       r="23.4" />
    <text
       xml:space="preserve"
       text-anchor="middle"
       x="88.400002"
       y="-99"
       font-family="Arial"
       font-size="24px"
       fill="#ffffff"
       id="text7">2</text>
  </g>
  <g
     id="edge3"
     class="edge"
     transform="matrix(0.51207241,0,0,0.51207241,110.56338,227.18189)">
    <title
       id="title8">n5-&gt;n2</title>
    <path
       fill="none"
       stroke="#ffffff"
       stroke-width="2"
       d="m 167.16,-172.8 c -17.24,14.35 -42.95,35.77 -60.27,50.2"
       id="path8" />
  </g>
  <g
     id="node5"
     class="node"
     transform="matrix(0.51207241,0,0,0.51207241,110.56338,227.18189)">
    <title
       id="title9">n8</title>
    <circle
       fill="#000000"
       stroke="#ffffff"
       stroke-width="3"
       cx="185.39999"
       cy="-106.2"
       id="ellipse9"
       r="23.4" />
    <text
       xml:space="preserve"
       text-anchor="middle"
       x="185.39999"
       y="-99"
       font-family="Arial"
       font-size="24px"
       fill="#ffffff"
       id="text9">8</text>
  </g>
  <g
     id="edge4"
     class="edge"
     transform="matrix(0.51207241,0,0,0.51207241,110.56338,227.18189)">
    <title
       id="title10">n5-&gt;n8</title>
    <path
       fill="none"
       stroke="#ffffff"
       stroke-width="2"
       d="m 185.4,-164.19 c 0,10.52 0,22.85 0,33.35"
       id="path10" />
  </g>
  <g
     id="node6"
     class="node"
     transform="matrix(0.51207241,0,0,0.51207241,110.56338,227.18189)">
    <title
       id="title11">n15</title>
    <circle
       fill="#000000"
       stroke="#ffffff"
       stroke-width="3"
       cx="299.39999"
       cy="-106.2"
       id="ellipse11"
       r="23.4" />
    <text
       xml:space="preserve"
       text-anchor="middle"
       x="299.39999"
       y="-99"
       font-family="Arial"
       font-size="24px"
       fill="#ffffff"
       id="text11">15</text>
  </g>
  <g
     id="edge5"
     class="edge"
     transform="matrix(0.51207241,0,0,0.51207241,110.56338,227.18189)">
    <title
       id="title12">n17-&gt;n15</title>
    <path
       fill="none"
       stroke="#ffffff"
       stroke-width="2"
       d="m 299.4,-164.19 c 0,10.52 0,22.85 0,33.35"
       id="path12" />
  </g>
  <g
     id="node7"
     class="node"
     transform="matrix(0.51207241,0,0,0.51207241,110.56338,227.18189)">
    <title
       id="title13">n19</title>
    <circle
       fill="#000000"
       stroke="#ffffff"
       stroke-width="3"
       cx="396.39999"
       cy="-106.2"
       id="ellipse13"
       r="23.4" />
    <text
       xml:space="preserve"
       text-anchor="middle"
       x="396.39999"
       y="-99"
       font-family="Arial"
       font-size="24px"
       fill="#ffffff"
       id="text13">19</text>
  </g>
  <g
     id="edge6"
     class="edge"
     transform="matrix(0.51207241,0,0,0.51207241,110.56338,227.18189)">
    <title
       id="title14">n17-&gt;n19</title>
    <path
       fill="none"
       stroke="#ffffff"
       stroke-width="2"
       d="m 317.64,-172.8 c 17.24,14.35 42.95,35.77 60.27,50.2"
       id="path14" />
  </g>
  <g
     id="node8"
     class="node"
     transform="matrix(0.51207241,0,0,0.51207241,110.56338,227.18189)">
    <title
       id="title15">n1</title>
    <circle
       fill="#000000"
       stroke="#ffffff"
       stroke-width="3"
       cx="23.4"
       cy="-23.4"
       id="ellipse15"
       r="23.4" />
    <text
       xml:space="preserve"
       text-anchor="middle"
       x="23.4"
       y="-16.200001"
       font-family="Arial"
       font-size="24px"
       fill="#ffffff"
       id="text15">1</text>
  </g>
  <g
     id="edge7"
     class="edge"
     transform="matrix(0.51207241,0,0,0.51207241,110.56338,227.18189)">
    <title
       id="title16">n2-&gt;n1</title>
    <path
       fill="none"
       stroke="#ffffff"
       stroke-width="2"
       d="m 73.32,-86.46 c -10.5,13.05 -24.44,30.39 -34.93,43.42"
       id="path16" />
  </g>
  <g
     id="node9"
     class="node"
     transform="matrix(0.51207241,0,0,0.51207241,110.56338,227.18189)">
    <title
       id="title17">n3</title>
    <circle
       fill="#000000"
       stroke="#ffffff"
       stroke-width="3"
       cx="88.400002"
       cy="-23.4"
       id="ellipse17"
       r="23.4" />
    <text
       xml:space="preserve"
       text-anchor="middle"
       x="88.400002"
       y="-16.200001"
       font-family="Arial"
       font-size="24px"
       fill="#ffffff"
       id="text17">3</text>
  </g>
  <g
     id="edge8"
     class="edge"
     transform="matrix(0.51207241,0,0,0.51207241,110.56338,227.18189)">
    <title
       id="title18">n2-&gt;n3</title>
    <path
       fill="none"
       stroke="#ffffff"
       stroke-width="2"
       d="m 88.4,-81.39 c 0,10.52 0,22.85 0,33.35"
       id="path18" />
  </g>
  <g
     id="node10"
     class="node"
     transform="matrix(0.51207241,0,0,0.51207241,110.56338,227.18189)">
    <title
       id="title19">n6</title>
    <circle
       fill="#000000"
       stroke="#ffffff"
       stroke-width="3"
       cx="153.39999"
       cy="-23.4"
       id="ellipse19"
       r="23.4" />
    <text
       xml:space="preserve"
       text-anchor="middle"
       x="153.39999"
       y="-16.200001"
       font-family="Arial"
       font-size="24px"
       fill="#ffffff"
       id="text19">6</text>
  </g>
  <g
     id="edge9"
     class="edge"
     transform="matrix(0.51207241,0,0,0.51207241,110.56338,227.18189)">
    <title
       id="title20">n8-&gt;n6</title>
    <path
       fill="none"
       stroke="#ffffff"
       stroke-width="2"
       d="m 176.66,-83.12 c -4.52,11.4 -10.01,25.27 -14.53,36.67"
       id="path20" />
  </g>
  <g
     id="node11"
     class="node"
     transform="matrix(0.51207241,0,0,0.51207241,110.56338,227.18189)">
    <title
       id="title21">n10</title>
    <circle
       fill="#000000"
       stroke="#ffffff"
       stroke-width="3"
       cx="218.39999"
       cy="-23.4"
       id="ellipse21"
       r="23.4" />
    <text
       xml:space="preserve"
       text-anchor="middle"
       x="218.39999"
       y="-16.200001"
       font-family="Arial"
       font-size="24px"
       fill="#ffffff"
       id="text21">10</text>
  </g>
  <g
     id="edge10"
     class="edge"
     transform="matrix(0.51207241,0,0,0.51207241,110.56338,227.18189)">
    <title
       id="title22">n8-&gt;n10</title>
    <path
       fill="none"
       stroke="#ffffff"
       stroke-width="2"
       d="m 194.42,-83.12 c 4.65,11.4 10.32,25.27 14.97,36.67"
       id="path22" />
  </g>
  <g
     id="node12"
     class="node"
     transform="matrix(0.51207241,0,0,0.51207241,110.56338,227.18189)">
    <title
       id="title23">n13</title>
    <circle
       fill="#000000"
       stroke="#ffffff"
       stroke-width="3"
       cx="283.39999"
       cy="-23.4"
       id="ellipse23"
       r="23.4" />
    <text
       xml:space="preserve"
       text-anchor="middle"
       x="283.39999"
       y="-16.200001"
       font-family="Arial"
       font-size="24px"
       fill="#ffffff"
       id="text23">13</text>
  </g>
  <g
     id="edge11"
     class="edge"
     transform="matrix(0.51207241,0,0,0.51207241,110.56338,227.18189)">
    <title
       id="title24">n15-&gt;n13</title>
    <path
       fill="none"
       stroke="#ffffff"
       stroke-width="2"
       d="m 294.77,-81.83 c -2.12,10.72 -4.63,23.4 -6.75,34.11"
       id="path24" />
  </g>
  <g
     id="node13"
     class="node"
     transform="matrix(0.51207241,0,0,0.51207241,110.56338,227.18189)">
    <title
       id="title25">n16</title>
    <circle
       fill="#000000"
       stroke="#ffffff"
       stroke-width="3"
       cx="348.39999"
       cy="-23.4"
       id="ellipse25"
       r="23.4" />
    <text
       xml:space="preserve"
       text-anchor="middle"
       x="348.39999"
       y="-16.200001"
       font-family="Arial"
       font-size="24px"
       fill="#ffffff"
       id="text25">16</text>
  </g>
  <g
     id="edge12"
     class="edge"
     transform="matrix(0.51207241,0,0,0.51207241,110.56338,227.18189)">
    <title
       id="title26">n15-&gt;n16</title>
    <path
       fill="none"
       stroke="#ffffff"
       stroke-width="2"
       d="m 311.76,-84.81 c 7.43,12.25 16.85,27.78 24.28,40.03"
       id="path26" />
  </g>
  <g
     id="node14"
     class="node"
     transform="matrix(0.51207241,0,0,0.51207241,110.56338,227.18189)">
    <title
       id="title27">n21</title>
    <circle
       fill="#000000"
       stroke="#ffffff"
       stroke-width="3"
       cx="413.39999"
       cy="-23.4"
       id="ellipse27"
       r="23.4" />
    <text
       xml:space="preserve"
       text-anchor="middle"
       x="413.39999"
       y="-16.200001"
       font-family="Arial"
       font-size="24px"
       fill="#ffffff"
       id="text27">21</text>
  </g>
  <g
     id="edge13"
     class="edge"
     transform="matrix(0.51207241,0,0,0.51207241,110.56338,227.18189)">
    <title
       id="title28">n19-&gt;n21</title>
    <path
       fill="none"
       stroke="#ffffff"
       stroke-width="2"
       d="m 401.32,-81.83 c 2.25,10.72 4.92,23.4 7.17,34.11"
       id="path28" />
  </g>
</svg>
