<svg width="600" height="480" xmlns="http://www.w3.org/2000/svg">
  <defs>
    <style>
      .black { fill: #cccccc; stroke: black; }
      .red { fill: #ff9999; stroke: black; }
      .text { font: bold 18px sans-serif; text-anchor: middle; dominant-baseline: central; }
      .line { stroke: black; stroke-width: 2; }
    </style>
  </defs>

  <!-- Узлы -->
  <!-- Уровень 0 -->
  <circle cx="300" cy="40" r="18" class="black"/>
  <text x="300" y="40" class="text">25</text>

  <!-- Уровень 1 -->
  <circle cx="180" cy="90" r="18" class="red"/>
  <text x="180" y="90" class="text">15</text>
  <circle cx="420" cy="90" r="18" class="red"/>
  <text x="420" y="90" class="text">35</text>

  <!-- Уровень 2 -->
  <circle cx="120" cy="140" r="18" class="black"/>
  <text x="120" y="140" class="text">10</text>
  <circle cx="240" cy="140" r="18" class="black"/>
  <text x="240" y="140" class="text">20</text>
  <circle cx="360" cy="140" r="18" class="black"/>
  <text x="360" y="140" class="text">30</text>
  <circle cx="480" cy="140" r="18" class="black"/>
  <text x="480" y="140" class="text">40</text>

  <!-- Уровень 3 -->
  <circle cx="90" cy="190" r="18" class="red"/>
  <text x="90" y="190" class="text">5</text>
  <circle cx="150" cy="190" r="18" class="red"/>
  <text x="150" y="190" class="text">12</text>
  <circle cx="390" cy="190" r="18" class="red"/>
  <text x="390" y="190" class="text">32</text>

  <!-- Уровень 4 -->
  <circle cx="60" cy="240" r="18" class="black"/>
  <text x="60" y="240" class="text">3</text>
  <circle cx="420" cy="240" r="18" class="black"/>
  <text x="420" y="240" class="text">33</text>

  <!-- Уровень 5 -->
  <circle cx="30" cy="290" r="18" class="red"/>
  <text x="30" y="290" class="text">1</text>

  <!-- Линии -->
  <line x1="300" y1="58" x2="180" y2="72" class="line"/>
  <line x1="300" y1="58" x2="420" y2="72" class="line"/>

  <line x1="180" y1="108" x2="120" y2="122" class="line"/>
  <line x1="180" y1="108" x2="240" y2="122" class="line"/>

  <line x1="420" y1="108" x2="360" y2="122" class="line"/>
  <line x1="420" y1="108" x2="480" y2="122" class="line"/>

  <line x1="120" y1="158" x2="90" y2="172" class="line"/>
  <line x1="120" y1="158" x2="150" y2="172" class="line"/>

  <line x1="360" y1="158" x2="390" y2="172" class="line"/>

  <line x1="90" y1="208" x2="60" y2="222" class="line"/>
  <line x1="390" y1="208" x2="420" y2="222" class="line"/>

  <line x1="60" y1="258" x2="30" y2="272" class="line"/>
</svg>
