<svg version="1.1" xmlns="http://www.w3.org/2000/svg" xmlns:xlink="http://www.w3.org/1999/xlink" width="1242" height="582"><defs/><g><rect fill="#97D3E1" stroke="none" x="0" y="0" width="1242" height="582"/><g transform="scale(1,1) translate(42,40)"><rect fill="#000000" stroke="none" x="0" y="40" width="1" height="460"/><rect fill="#000000" stroke="none" x="139" y="90" width="2" height="150"/><rect fill="#000000" stroke="none" x="139" y="240" width="2" height="60"/><rect fill="#000000" stroke="none" x="139" y="380" width="2" height="70"/><path fill="none" stroke="#000000" paint-order="fill stroke markers" d=" M 140.5 240.5 L 280.5 240.5" stroke-linecap="round" stroke-miterlimit="10"/><rect fill="#000000" stroke="none" x="280" y="240" width="1" height="100"/><rect fill="#000000" stroke="none" x="139" y="300" width="2" height="40"/><rect fill="#000000" stroke="none" x="139" y="340" width="2" height="40"/><path fill="none" stroke="#000000" paint-order="fill stroke markers" d=" M 140.5 340.5 L 280.5 340.5" stroke-linecap="round" stroke-miterlimit="10"/><path fill="none" stroke="#000000" paint-order="fill stroke markers" d=" M 0.5 40.5 L 139.5 40.5" stroke-linecap="round" stroke-miterlimit="10"/><g transform="translate(0.5,40.5) rotate(180,0,0)"/><g transform="translate(139.5,40.5) rotate(0,0,0)"><path fill="#000000" stroke="#000000" paint-order="fill stroke markers" d=" M -20 -6 L 0 0 L -20 6 Z" stroke-linecap="round" stroke-linejoin="round" stroke-miterlimit="10"/></g><rect fill="#000000" stroke="none" x="139" y="40" width="2" height="50"/><path fill="none" stroke="#000000" paint-order="fill stroke markers" d=" M 0.5 500.5 L 140.5 500.5" stroke-linecap="round" stroke-miterlimit="10"/><rect fill="#000000" stroke="none" x="139" y="450" width="2" height="50"/><rect fill="#000000" stroke="none" x="459" y="90" width="2" height="70"/><rect fill="#000000" stroke="none" x="459" y="160" width="2" height="60"/><rect fill="#000000" stroke="none" x="459" y="220" width="2" height="60"/><path fill="none" stroke="#000000" paint-order="fill stroke markers" d=" M 460.5 220.5 L 620.5 220.5" stroke-linecap="round" stroke-miterlimit="10"/><rect fill="#000000" stroke="none" x="620" y="220" width="1" height="100"/><rect fill="#000000" stroke="none" x="459" y="280" width="2" height="40"/><rect fill="#000000" stroke="none" x="459" y="320" width="2" height="40"/><path fill="none" stroke="#000000" paint-order="fill stroke markers" d=" M 460.5 320.5 L 620.5 320.5" stroke-linecap="round" stroke-miterlimit="10"/><path fill="none" stroke="#000000" paint-order="fill stroke markers" d=" M 460.5 160.5 L 640.5 160.5" stroke-linecap="round" stroke-miterlimit="10"/><rect fill="#000000" stroke="none" x="640" y="160" width="1" height="240"/><rect fill="#000000" stroke="none" x="459" y="360" width="2" height="40"/><rect fill="#000000" stroke="none" x="459" y="400" width="2" height="50"/><path fill="none" stroke="#000000" paint-order="fill stroke markers" d=" M 460.5 400.5 L 640.5 400.5" stroke-linecap="round" stroke-miterlimit="10"/><path fill="none" stroke="#000000" paint-order="fill stroke markers" d=" M 140.5 40.5 L 460.5 40.5" stroke-linecap="round" stroke-miterlimit="10"/><rect fill="#000000" stroke="none" x="459" y="40" width="2" height="50"/><path fill="none" stroke="#000000" paint-order="fill stroke markers" d=" M 140.5 500.5 L 460.5 500.5" stroke-linecap="round" stroke-miterlimit="10"/><rect fill="#000000" stroke="none" x="459" y="450" width="2" height="50"/><rect fill="#000000" stroke="none" x="829" y="90" width="2" height="70"/><rect fill="#000000" stroke="none" x="829" y="160" width="2" height="60"/><rect fill="#000000" stroke="none" x="829" y="220" width="2" height="60"/><path fill="none" stroke="#000000" paint-order="fill stroke markers" d=" M 830.5 220.5 L 1000.5 220.5" stroke-linecap="round" stroke-miterlimit="10"/><rect fill="#000000" stroke="none" x="1000" y="220" width="1" height="100"/><rect fill="#000000" stroke="none" x="829" y="280" width="2" height="40"/><rect fill="#000000" stroke="none" x="829" y="320" width="2" height="40"/><path fill="none" stroke="#000000" paint-order="fill stroke markers" d=" M 830.5 320.5 L 1000.5 320.5" stroke-linecap="round" stroke-miterlimit="10"/><path fill="none" stroke="#000000" paint-order="fill stroke markers" d=" M 830.5 160.5 L 1020.5 160.5" stroke-linecap="round" stroke-miterlimit="10"/><rect fill="#000000" stroke="none" x="1020" y="160" width="1" height="240"/><rect fill="#000000" stroke="none" x="829" y="360" width="2" height="40"/><rect fill="#000000" stroke="none" x="829" y="400" width="2" height="50"/><path fill="none" stroke="#000000" paint-order="fill stroke markers" d=" M 830.5 400.5 L 1020.5 400.5" stroke-linecap="round" stroke-miterlimit="10"/><path fill="none" stroke="#000000" paint-order="fill stroke markers" d=" M 460.5 40.5 L 830.5 40.5" stroke-linecap="round" stroke-miterlimit="10"/><rect fill="#000000" stroke="none" x="829" y="40" width="2" height="50"/><path fill="none" stroke="#000000" paint-order="fill stroke markers" d=" M 460.5 500.5 L 830.5 500.5" stroke-linecap="round" stroke-miterlimit="10"/><rect fill="#000000" stroke="none" x="829" y="450" width="2" height="50"/><rect fill="#000000" stroke="none" x="1119" y="90" width="2" height="70"/><rect fill="#000000" stroke="none" x="1119" y="160" width="2" height="60"/><path fill="none" stroke="#000000" paint-order="fill stroke markers" d=" M 830.5 40.5 L 1120.5 40.5" stroke-linecap="round" stroke-miterlimit="10"/><rect fill="#000000" stroke="none" x="1119" y="40" width="2" height="50"/><rect fill="#000000" stroke="none" x="139" y="0" width="2" height="40"/><path fill="none" stroke="#000000" paint-order="fill stroke markers" d=" M 140.5 0.5 L 280.5 0.5" stroke-linecap="round" stroke-miterlimit="10"/><path fill="rgb(0,0,0)" stroke="none" paint-order="stroke fill markers" d=" M 1094 245.6 A 20 20 0 0 1 1094 205.6 L 1154 205.6 L 1154 205.6 A 20 20 0 0 1 1154 245.6 Z" fill-opacity="0.3"/><path fill="#ffffff" stroke="none" paint-order="stroke fill markers" d=" M 1090 240 A 20 20 0 0 1 1090 200 L 1150 200 L 1150 200 A 20 20 0 0 1 1150 240 Z"/><text fill="#000000" stroke="none" font-family="Consolas, Monaco, Cousine" font-size="14px" font-style="normal" font-weight="normal" text-decoration="normal" x="1108" y="224" text-anchor="start" dominant-baseline="alphabetic">End</text><path fill="rgb(0,0,0)" stroke="none" paint-order="stroke fill markers" d=" M 24 65.6 L 264 65.6 L 264 105.6 L 144 125.6 L 24 105.6 Z" fill-opacity="0.3"/><path fill="#ffffff" stroke="none" paint-order="stroke fill markers" d=" M 20 60 L 260 60 L 260 100 L 140 120 L 20 100 Z"/><text fill="#000000" stroke="none" font-family="Consolas, Monaco, Cousine" font-size="14px" font-style="normal" font-weight="normal" text-decoration="normal" x="30" y="84" text-anchor="start" dominant-baseline="alphabetic">Branch1</text><path fill="rgb(0,0,0)" stroke="none" paint-order="stroke fill markers" d=" M 22 245.6 L 42 225.6 L 246 225.6 L 266 245.6 L 246 265.6 L 42 265.6 Z" fill-opacity="0.3"/><path fill="#ffffff" stroke="none" paint-order="stroke fill markers" d=" M 18 240 L 38 220 L 242 220 L 262 240 L 242 260 L 38 260 Z"/><text fill="#cc3399" stroke="none" font-family="Consolas, Monaco, Cousine" font-size="14px" font-style="normal" font-weight="normal" text-decoration="normal" x="40" y="244" text-anchor="start" dominant-baseline="alphabetic">!</text><text fill="#000000" stroke="none" font-family="Consolas, Monaco, Cousine" font-size="14px" font-style="normal" font-weight="normal" text-decoration="normal" x="48" y="244" text-anchor="start" dominant-baseline="alphabetic">node</text><text fill="#000000" stroke="none" font-family="Consolas, Monaco, Cousine" font-size="14px" font-style="normal" font-weight="normal" text-decoration="normal" x="109.4" y="273" text-anchor="start" dominant-baseline="alphabetic">Yes</text><text fill="#000000" stroke="none" font-family="Consolas, Monaco, Cousine" font-size="14px" font-style="normal" font-weight="normal" text-decoration="normal" x="268" y="233" text-anchor="start" dominant-baseline="alphabetic">No</text><rect fill="rgb(0,0,0)" stroke="none" x="25" y="287" width="240" height="40" fill-opacity="0.3"/><rect fill="#ffffff" stroke="none" x="20" y="280" width="240" height="40"/><text fill="#003399" stroke="none" font-family="Consolas, Monaco, Cousine" font-size="14px" font-style="normal" font-weight="normal" text-decoration="normal" x="30" y="304" text-anchor="start" dominant-baseline="alphabetic">return</text><text fill="#003399" stroke="none" font-family="Consolas, Monaco, Cousine" font-size="14px" font-style="normal" font-weight="normal" text-decoration="normal" x="84" y="304" text-anchor="start" dominant-baseline="alphabetic">null</text><rect fill="rgb(0,0,0)" stroke="none" x="25" y="367" width="240" height="40" fill-opacity="0.3"/><rect fill="#ffffff" stroke="none" x="20" y="360" width="240" height="40"/><text fill="#000000" stroke="none" font-family="Consolas, Monaco, Cousine" font-size="14px" font-style="normal" font-weight="normal" text-decoration="normal" x="30" y="384" text-anchor="start" dominant-baseline="alphabetic">balance</text><text fill="#cc3399" stroke="none" font-family="Consolas, Monaco, Cousine" font-size="14px" font-style="normal" font-weight="normal" text-decoration="normal" x="92" y="384" text-anchor="start" dominant-baseline="alphabetic">=</text><text fill="#000000" stroke="none" font-family="Consolas, Monaco, Cousine" font-size="14px" font-style="normal" font-weight="normal" text-decoration="normal" x="108" y="384" text-anchor="start" dominant-baseline="alphabetic">getBalance</text><text fill="#cc3399" stroke="none" font-family="Consolas, Monaco, Cousine" font-size="14px" font-style="normal" font-weight="normal" text-decoration="normal" x="185" y="384" text-anchor="start" dominant-baseline="alphabetic">(</text><text fill="#000000" stroke="none" font-family="Consolas, Monaco, Cousine" font-size="14px" font-style="normal" font-weight="normal" text-decoration="normal" x="193" y="384" text-anchor="start" dominant-baseline="alphabetic">node</text><text fill="#cc3399" stroke="none" font-family="Consolas, Monaco, Cousine" font-size="14px" font-style="normal" font-weight="normal" text-decoration="normal" x="224" y="384" text-anchor="start" dominant-baseline="alphabetic">)</text><path fill="rgb(0,0,0)" stroke="none" paint-order="stroke fill markers" d=" M 1064 65.6 L 1184 65.6 L 1184 105.6 L 1124 125.6 L 1064 105.6 Z" fill-opacity="0.3"/><path fill="#ffffff" stroke="none" paint-order="stroke fill markers" d=" M 1060 60 L 1180 60 L 1180 100 L 1120 120 L 1060 100 Z"/><text fill="#000000" stroke="none" font-family="Consolas, Monaco, Cousine" font-size="14px" font-style="normal" font-weight="normal" text-decoration="normal" x="1070" y="84" text-anchor="start" dominant-baseline="alphabetic">Exit</text><path fill="rgb(0,0,0)" stroke="none" paint-order="stroke fill markers" d=" M 324 65.6 L 604 65.6 L 604 105.6 L 464 125.6 L 324 105.6 Z" fill-opacity="0.3"/><path fill="#ffffff" stroke="none" paint-order="stroke fill markers" d=" M 320 60 L 600 60 L 600 100 L 460 120 L 320 100 Z"/><text fill="#000000" stroke="none" font-family="Consolas, Monaco, Cousine" font-size="14px" font-style="normal" font-weight="normal" text-decoration="normal" x="330" y="84" text-anchor="start" dominant-baseline="alphabetic">Branch2</text><path fill="rgb(0,0,0)" stroke="none" paint-order="stroke fill markers" d=" M 322 165.6 L 342 145.6 L 586 145.6 L 606 165.6 L 586 185.6 L 342 185.6 Z" fill-opacity="0.3"/><path fill="#ffffff" stroke="none" paint-order="stroke fill markers" d=" M 318 160 L 338 140 L 582 140 L 602 160 L 582 180 L 338 180 Z"/><text fill="#000000" stroke="none" font-family="Consolas, Monaco, Cousine" font-size="14px" font-style="normal" font-weight="normal" text-decoration="normal" x="340" y="164" text-anchor="start" dominant-baseline="alphabetic">balance</text><text fill="#cc3399" stroke="none" font-family="Consolas, Monaco, Cousine" font-size="14px" font-style="normal" font-weight="normal" text-decoration="normal" x="402" y="164" text-anchor="start" dominant-baseline="alphabetic">&gt;</text><text fill="#004d00" stroke="none" font-family="Consolas, Monaco, Cousine" font-size="14px" font-style="normal" font-weight="normal" text-decoration="normal" x="418" y="164" text-anchor="start" dominant-baseline="alphabetic">1</text><text fill="#000000" stroke="none" font-family="Consolas, Monaco, Cousine" font-size="14px" font-style="normal" font-weight="normal" text-decoration="normal" x="429.4" y="193" text-anchor="start" dominant-baseline="alphabetic">Yes</text><text fill="#000000" stroke="none" font-family="Consolas, Monaco, Cousine" font-size="14px" font-style="normal" font-weight="normal" text-decoration="normal" x="608" y="153" text-anchor="start" dominant-baseline="alphabetic">No</text><path fill="rgb(0,0,0)" stroke="none" paint-order="stroke fill markers" d=" M 322 225.6 L 342 205.6 L 586 205.6 L 606 225.6 L 586 245.6 L 342 245.6 Z" fill-opacity="0.3"/><path fill="#ffffff" stroke="none" paint-order="stroke fill markers" d=" M 318 220 L 338 200 L 582 200 L 602 220 L 582 240 L 338 240 Z"/><text fill="#000000" stroke="none" font-family="Consolas, Monaco, Cousine" font-size="14px" font-style="normal" font-weight="normal" text-decoration="normal" x="340" y="224" text-anchor="start" dominant-baseline="alphabetic">getBalance</text><text fill="#cc3399" stroke="none" font-family="Consolas, Monaco, Cousine" font-size="14px" font-style="normal" font-weight="normal" text-decoration="normal" x="417" y="224" text-anchor="start" dominant-baseline="alphabetic">(</text><text fill="#000000" stroke="none" font-family="Consolas, Monaco, Cousine" font-size="14px" font-style="normal" font-weight="normal" text-decoration="normal" x="425" y="224" text-anchor="start" dominant-baseline="alphabetic">node</text><text fill="#cc3399" stroke="none" font-family="Consolas, Monaco, Cousine" font-size="14px" font-style="normal" font-weight="normal" text-decoration="normal" x="456" y="224" text-anchor="start" dominant-baseline="alphabetic">.</text><text fill="#000000" stroke="none" font-family="Consolas, Monaco, Cousine" font-size="14px" font-style="normal" font-weight="normal" text-decoration="normal" x="464" y="224" text-anchor="start" dominant-baseline="alphabetic">left</text><text fill="#cc3399" stroke="none" font-family="Consolas, Monaco, Cousine" font-size="14px" font-style="normal" font-weight="normal" text-decoration="normal" x="495" y="224" text-anchor="start" dominant-baseline="alphabetic">)</text><text fill="#cc3399" stroke="none" font-family="Consolas, Monaco, Cousine" font-size="14px" font-style="normal" font-weight="normal" text-decoration="normal" x="511" y="224" text-anchor="start" dominant-baseline="alphabetic">&lt;</text><text fill="#004d00" stroke="none" font-family="Consolas, Monaco, Cousine" font-size="14px" font-style="normal" font-weight="normal" text-decoration="normal" x="527" y="224" text-anchor="start" dominant-baseline="alphabetic">0</text><text fill="#000000" stroke="none" font-family="Consolas, Monaco, Cousine" font-size="14px" font-style="normal" font-weight="normal" text-decoration="normal" x="429.4" y="253" text-anchor="start" dominant-baseline="alphabetic">Yes</text><text fill="#000000" stroke="none" font-family="Consolas, Monaco, Cousine" font-size="14px" font-style="normal" font-weight="normal" text-decoration="normal" x="608" y="213" text-anchor="start" dominant-baseline="alphabetic">No</text><rect fill="rgb(0,0,0)" stroke="none" x="325" y="267" width="280" height="40" fill-opacity="0.3"/><rect fill="#ffffff" stroke="none" x="320" y="260" width="280" height="40"/><text fill="#000000" stroke="none" font-family="Consolas, Monaco, Cousine" font-size="14px" font-style="normal" font-weight="normal" text-decoration="normal" x="330" y="284" text-anchor="start" dominant-baseline="alphabetic">ode</text><text fill="#cc3399" stroke="none" font-family="Consolas, Monaco, Cousine" font-size="14px" font-style="normal" font-weight="normal" text-decoration="normal" x="353" y="284" text-anchor="start" dominant-baseline="alphabetic">.</text><text fill="#000000" stroke="none" font-family="Consolas, Monaco, Cousine" font-size="14px" font-style="normal" font-weight="normal" text-decoration="normal" x="361" y="284" text-anchor="start" dominant-baseline="alphabetic">left</text><text fill="#cc3399" stroke="none" font-family="Consolas, Monaco, Cousine" font-size="14px" font-style="normal" font-weight="normal" text-decoration="normal" x="400" y="284" text-anchor="start" dominant-baseline="alphabetic">=</text><text fill="#000000" stroke="none" font-family="Consolas, Monaco, Cousine" font-size="14px" font-style="normal" font-weight="normal" text-decoration="normal" x="416" y="284" text-anchor="start" dominant-baseline="alphabetic">rotateLeft</text><text fill="#cc3399" stroke="none" font-family="Consolas, Monaco, Cousine" font-size="14px" font-style="normal" font-weight="normal" text-decoration="normal" x="493" y="284" text-anchor="start" dominant-baseline="alphabetic">(</text><text fill="#000000" stroke="none" font-family="Consolas, Monaco, Cousine" font-size="14px" font-style="normal" font-weight="normal" text-decoration="normal" x="501" y="284" text-anchor="start" dominant-baseline="alphabetic">node</text><text fill="#cc3399" stroke="none" font-family="Consolas, Monaco, Cousine" font-size="14px" font-style="normal" font-weight="normal" text-decoration="normal" x="532" y="284" text-anchor="start" dominant-baseline="alphabetic">.</text><text fill="#000000" stroke="none" font-family="Consolas, Monaco, Cousine" font-size="14px" font-style="normal" font-weight="normal" text-decoration="normal" x="540" y="284" text-anchor="start" dominant-baseline="alphabetic">left</text><text fill="#cc3399" stroke="none" font-family="Consolas, Monaco, Cousine" font-size="14px" font-style="normal" font-weight="normal" text-decoration="normal" x="571" y="284" text-anchor="start" dominant-baseline="alphabetic">)</text><rect fill="rgb(0,0,0)" stroke="none" x="325" y="347" width="280" height="40" fill-opacity="0.3"/><rect fill="#ffffff" stroke="none" x="320" y="340" width="280" height="40"/><text fill="#003399" stroke="none" font-family="Consolas, Monaco, Cousine" font-size="14px" font-style="normal" font-weight="normal" text-decoration="normal" x="330" y="364" text-anchor="start" dominant-baseline="alphabetic">return</text><text fill="#000000" stroke="none" font-family="Consolas, Monaco, Cousine" font-size="14px" font-style="normal" font-weight="normal" text-decoration="normal" x="384" y="364" text-anchor="start" dominant-baseline="alphabetic">rotateRight</text><text fill="#cc3399" stroke="none" font-family="Consolas, Monaco, Cousine" font-size="14px" font-style="normal" font-weight="normal" text-decoration="normal" x="469" y="364" text-anchor="start" dominant-baseline="alphabetic">(</text><text fill="#000000" stroke="none" font-family="Consolas, Monaco, Cousine" font-size="14px" font-style="normal" font-weight="normal" text-decoration="normal" x="477" y="364" text-anchor="start" dominant-baseline="alphabetic">node</text><text fill="#cc3399" stroke="none" font-family="Consolas, Monaco, Cousine" font-size="14px" font-style="normal" font-weight="normal" text-decoration="normal" x="508" y="364" text-anchor="start" dominant-baseline="alphabetic">)</text><path fill="rgb(0,0,0)" stroke="none" paint-order="stroke fill markers" d=" M 684 65.6 L 984 65.6 L 984 105.6 L 834 125.6 L 684 105.6 Z" fill-opacity="0.3"/><path fill="#ffffff" stroke="none" paint-order="stroke fill markers" d=" M 680 60 L 980 60 L 980 100 L 830 120 L 680 100 Z"/><text fill="#000000" stroke="none" font-family="Consolas, Monaco, Cousine" font-size="14px" font-style="normal" font-weight="normal" text-decoration="normal" x="690" y="84" text-anchor="start" dominant-baseline="alphabetic">Branch3</text><path fill="rgb(0,0,0)" stroke="none" paint-order="stroke fill markers" d=" M 682 165.6 L 702 145.6 L 966 145.6 L 986 165.6 L 966 185.6 L 702 185.6 Z" fill-opacity="0.3"/><path fill="#ffffff" stroke="none" paint-order="stroke fill markers" d=" M 678 160 L 698 140 L 962 140 L 982 160 L 962 180 L 698 180 Z"/><text fill="#000000" stroke="none" font-family="Consolas, Monaco, Cousine" font-size="14px" font-style="normal" font-weight="normal" text-decoration="normal" x="700" y="164" text-anchor="start" dominant-baseline="alphabetic">balance</text><text fill="#cc3399" stroke="none" font-family="Consolas, Monaco, Cousine" font-size="14px" font-style="normal" font-weight="normal" text-decoration="normal" x="762" y="164" text-anchor="start" dominant-baseline="alphabetic">&lt;</text><text fill="#cc3399" stroke="none" font-family="Consolas, Monaco, Cousine" font-size="14px" font-style="normal" font-weight="normal" text-decoration="normal" x="778" y="164" text-anchor="start" dominant-baseline="alphabetic">-</text><text fill="#004d00" stroke="none" font-family="Consolas, Monaco, Cousine" font-size="14px" font-style="normal" font-weight="normal" text-decoration="normal" x="786" y="164" text-anchor="start" dominant-baseline="alphabetic">1</text><text fill="#000000" stroke="none" font-family="Consolas, Monaco, Cousine" font-size="14px" font-style="normal" font-weight="normal" text-decoration="normal" x="799.4" y="193" text-anchor="start" dominant-baseline="alphabetic">Yes</text><text fill="#000000" stroke="none" font-family="Consolas, Monaco, Cousine" font-size="14px" font-style="normal" font-weight="normal" text-decoration="normal" x="988" y="153" text-anchor="start" dominant-baseline="alphabetic">No</text><path fill="rgb(0,0,0)" stroke="none" paint-order="stroke fill markers" d=" M 682 225.6 L 702 205.6 L 966 205.6 L 986 225.6 L 966 245.6 L 702 245.6 Z" fill-opacity="0.3"/><path fill="#ffffff" stroke="none" paint-order="stroke fill markers" d=" M 678 220 L 698 200 L 962 200 L 982 220 L 962 240 L 698 240 Z"/><text fill="#000000" stroke="none" font-family="Consolas, Monaco, Cousine" font-size="14px" font-style="normal" font-weight="normal" text-decoration="normal" x="700" y="224" text-anchor="start" dominant-baseline="alphabetic">getBalance</text><text fill="#cc3399" stroke="none" font-family="Consolas, Monaco, Cousine" font-size="14px" font-style="normal" font-weight="normal" text-decoration="normal" x="777" y="224" text-anchor="start" dominant-baseline="alphabetic">(</text><text fill="#000000" stroke="none" font-family="Consolas, Monaco, Cousine" font-size="14px" font-style="normal" font-weight="normal" text-decoration="normal" x="785" y="224" text-anchor="start" dominant-baseline="alphabetic">node</text><text fill="#cc3399" stroke="none" font-family="Consolas, Monaco, Cousine" font-size="14px" font-style="normal" font-weight="normal" text-decoration="normal" x="816" y="224" text-anchor="start" dominant-baseline="alphabetic">.</text><text fill="#000000" stroke="none" font-family="Consolas, Monaco, Cousine" font-size="14px" font-style="normal" font-weight="normal" text-decoration="normal" x="824" y="224" text-anchor="start" dominant-baseline="alphabetic">right</text><text fill="#cc3399" stroke="none" font-family="Consolas, Monaco, Cousine" font-size="14px" font-style="normal" font-weight="normal" text-decoration="normal" x="862" y="224" text-anchor="start" dominant-baseline="alphabetic">)</text><text fill="#cc3399" stroke="none" font-family="Consolas, Monaco, Cousine" font-size="14px" font-style="normal" font-weight="normal" text-decoration="normal" x="878" y="224" text-anchor="start" dominant-baseline="alphabetic">&gt;</text><text fill="#004d00" stroke="none" font-family="Consolas, Monaco, Cousine" font-size="14px" font-style="normal" font-weight="normal" text-decoration="normal" x="894" y="224" text-anchor="start" dominant-baseline="alphabetic">0</text><text fill="#000000" stroke="none" font-family="Consolas, Monaco, Cousine" font-size="14px" font-style="normal" font-weight="normal" text-decoration="normal" x="799.4" y="253" text-anchor="start" dominant-baseline="alphabetic">Yes</text><text fill="#000000" stroke="none" font-family="Consolas, Monaco, Cousine" font-size="14px" font-style="normal" font-weight="normal" text-decoration="normal" x="988" y="213" text-anchor="start" dominant-baseline="alphabetic">No</text><rect fill="rgb(0,0,0)" stroke="none" x="685" y="267" width="300" height="40" fill-opacity="0.3"/><rect fill="#ffffff" stroke="none" x="680" y="260" width="300" height="40"/><text fill="#000000" stroke="none" font-family="Consolas, Monaco, Cousine" font-size="14px" font-style="normal" font-weight="normal" text-decoration="normal" x="690" y="284" text-anchor="start" dominant-baseline="alphabetic">node</text><text fill="#cc3399" stroke="none" font-family="Consolas, Monaco, Cousine" font-size="14px" font-style="normal" font-weight="normal" text-decoration="normal" x="721" y="284" text-anchor="start" dominant-baseline="alphabetic">.</text><text fill="#000000" stroke="none" font-family="Consolas, Monaco, Cousine" font-size="14px" font-style="normal" font-weight="normal" text-decoration="normal" x="729" y="284" text-anchor="start" dominant-baseline="alphabetic">right</text><text fill="#cc3399" stroke="none" font-family="Consolas, Monaco, Cousine" font-size="14px" font-style="normal" font-weight="normal" text-decoration="normal" x="775" y="284" text-anchor="start" dominant-baseline="alphabetic">=</text><text fill="#000000" stroke="none" font-family="Consolas, Monaco, Cousine" font-size="14px" font-style="normal" font-weight="normal" text-decoration="normal" x="791" y="284" text-anchor="start" dominant-baseline="alphabetic">rotateRight</text><text fill="#cc3399" stroke="none" font-family="Consolas, Monaco, Cousine" font-size="14px" font-style="normal" font-weight="normal" text-decoration="normal" x="876" y="284" text-anchor="start" dominant-baseline="alphabetic">(</text><text fill="#000000" stroke="none" font-family="Consolas, Monaco, Cousine" font-size="14px" font-style="normal" font-weight="normal" text-decoration="normal" x="884" y="284" text-anchor="start" dominant-baseline="alphabetic">node</text><text fill="#cc3399" stroke="none" font-family="Consolas, Monaco, Cousine" font-size="14px" font-style="normal" font-weight="normal" text-decoration="normal" x="915" y="284" text-anchor="start" dominant-baseline="alphabetic">.</text><text fill="#000000" stroke="none" font-family="Consolas, Monaco, Cousine" font-size="14px" font-style="normal" font-weight="normal" text-decoration="normal" x="923" y="284" text-anchor="start" dominant-baseline="alphabetic">right</text><text fill="#cc3399" stroke="none" font-family="Consolas, Monaco, Cousine" font-size="14px" font-style="normal" font-weight="normal" text-decoration="normal" x="961" y="284" text-anchor="start" dominant-baseline="alphabetic">)</text><rect fill="rgb(0,0,0)" stroke="none" x="685" y="347" width="300" height="40" fill-opacity="0.3"/><rect fill="#ffffff" stroke="none" x="680" y="340" width="300" height="40"/><text fill="#003399" stroke="none" font-family="Consolas, Monaco, Cousine" font-size="14px" font-style="normal" font-weight="normal" text-decoration="normal" x="690" y="364" text-anchor="start" dominant-baseline="alphabetic">return</text><text fill="#000000" stroke="none" font-family="Consolas, Monaco, Cousine" font-size="14px" font-style="normal" font-weight="normal" text-decoration="normal" x="744" y="364" text-anchor="start" dominant-baseline="alphabetic">rotateLeft</text><text fill="#cc3399" stroke="none" font-family="Consolas, Monaco, Cousine" font-size="14px" font-style="normal" font-weight="normal" text-decoration="normal" x="821" y="364" text-anchor="start" dominant-baseline="alphabetic">(</text><text fill="#000000" stroke="none" font-family="Consolas, Monaco, Cousine" font-size="14px" font-style="normal" font-weight="normal" text-decoration="normal" x="829" y="364" text-anchor="start" dominant-baseline="alphabetic">node</text><text fill="#cc3399" stroke="none" font-family="Consolas, Monaco, Cousine" font-size="14px" font-style="normal" font-weight="normal" text-decoration="normal" x="860" y="364" text-anchor="start" dominant-baseline="alphabetic">)</text><rect fill="rgb(0,0,0)" stroke="none" x="1065" y="147" width="120" height="40" fill-opacity="0.3"/><rect fill="#ffffff" stroke="none" x="1060" y="140" width="120" height="40"/><text fill="#003399" stroke="none" font-family="Consolas, Monaco, Cousine" font-size="14px" font-style="normal" font-weight="normal" text-decoration="normal" x="1070" y="164" text-anchor="start" dominant-baseline="alphabetic">return</text><text fill="#000000" stroke="none" font-family="Consolas, Monaco, Cousine" font-size="14px" font-style="normal" font-weight="normal" text-decoration="normal" x="1124" y="164" text-anchor="start" dominant-baseline="alphabetic">node</text><text fill="#cc3399" stroke="none" font-family="Consolas, Monaco, Cousine" font-size="14px" font-style="normal" font-weight="normal" text-decoration="normal" x="1155" y="164" text-anchor="start" dominant-baseline="alphabetic">;</text><path fill="rgb(0,0,0)" stroke="none" paint-order="stroke fill markers" d=" M 94 25.6 A 20 20 0 0 1 94 -14.399999999999999 L 194 -14.399999999999999 L 194 -14.399999999999999 A 20 20 0 0 1 194 25.6 Z" fill-opacity="0.3"/><path fill="#ffffff" stroke="none" paint-order="stroke fill markers" d=" M 90 20 A 20 20 0 0 1 90 -20 L 190 -20 L 190 -20 A 20 20 0 0 1 190 20 Z"/><text fill="#000000" stroke="none" font-family="Consolas, Monaco, Cousine" font-size="18px" font-style="normal" font-weight="normal" text-decoration="normal" x="95" y="6" text-anchor="start" dominant-baseline="alphabetic">rebalance</text><rect fill="rgb(0,0,0)" stroke="none" x="235" y="-13" width="100" height="40" fill-opacity="0.3"/><rect fill="#ffffff" stroke="none" x="230" y="-20" width="100" height="40"/><text fill="#000000" stroke="none" font-family="Consolas, Monaco, Cousine" font-size="14px" font-style="normal" font-weight="normal" text-decoration="normal" x="240" y="4" text-anchor="start" dominant-baseline="alphabetic">node</text><path fill="rgb(0,0,0)" stroke="none" paint-order="stroke fill markers" d=" M 24 445.6 L 144 425.6 L 264 445.6 L 264 485.6 L 24 485.6 Z" fill-opacity="0.3"/><path fill="#ffffff" stroke="none" paint-order="stroke fill markers" d=" M 20 440 L 140 420 L 260 440 L 260 480 L 20 480 Z"/><text fill="#000000" stroke="none" font-family="Consolas, Monaco, Cousine" font-size="14px" font-style="normal" font-weight="normal" text-decoration="normal" x="30" y="464" text-anchor="start" dominant-baseline="alphabetic">Branch2</text><path fill="rgb(0,0,0)" stroke="none" paint-order="stroke fill markers" d=" M 324 445.6 L 464 425.6 L 604 445.6 L 604 485.6 L 324 485.6 Z" fill-opacity="0.3"/><path fill="#ffffff" stroke="none" paint-order="stroke fill markers" d=" M 320 440 L 460 420 L 600 440 L 600 480 L 320 480 Z"/><text fill="#000000" stroke="none" font-family="Consolas, Monaco, Cousine" font-size="14px" font-style="normal" font-weight="normal" text-decoration="normal" x="330" y="464" text-anchor="start" dominant-baseline="alphabetic">Branch3</text><path fill="rgb(0,0,0)" stroke="none" paint-order="stroke fill markers" d=" M 684 445.6 L 834 425.6 L 984 445.6 L 984 485.6 L 684 485.6 Z" fill-opacity="0.3"/><path fill="#ffffff" stroke="none" paint-order="stroke fill markers" d=" M 680 440 L 830 420 L 980 440 L 980 480 L 680 480 Z"/><text fill="#000000" stroke="none" font-family="Consolas, Monaco, Cousine" font-size="14px" font-style="normal" font-weight="normal" text-decoration="normal" x="690" y="464" text-anchor="start" dominant-baseline="alphabetic">Exit</text></g></g></svg>