<svg version="1.1" xmlns="http://www.w3.org/2000/svg" xmlns:xlink="http://www.w3.org/1999/xlink" width="420" height="340"><defs/><g><rect fill="#202020" stroke="none" x="0" y="0" width="420" height="340"/><g transform="scale(1,1) translate(110,40)"><rect fill="#dddd90" stroke="none" x="-1" y="0" width="2" height="60"/><rect fill="#dddd90" stroke="none" x="-1" y="60" width="2" height="60"/><rect fill="#dddd90" stroke="none" x="-1" y="120" width="2" height="60"/><path fill="none" stroke="#dddd90" paint-order="fill stroke markers" d=" M 0.5 120.5 L 200.5 120.5" stroke-linecap="round" stroke-miterlimit="10"/><rect fill="#dddd90" stroke="none" x="200" y="120" width="1" height="60"/><rect fill="#dddd90" stroke="none" x="200" y="180" width="1" height="40"/><rect fill="#dddd90" stroke="none" x="-1" y="180" width="2" height="40"/><rect fill="#dddd90" stroke="none" x="-1" y="220" width="2" height="40"/><path fill="none" stroke="#dddd90" paint-order="fill stroke markers" d=" M 0.5 220.5 L 200.5 220.5" stroke-linecap="round" stroke-miterlimit="10"/><path fill="none" stroke="#dddd90" paint-order="fill stroke markers" d=" M 0.5 0.5 L 130.5 0.5" stroke-linecap="round" stroke-miterlimit="10"/><path fill="#000000" stroke="none" paint-order="stroke fill markers" d=" M -30 280 A 20 20 0 0 1 -30.000000000000004 240 L 30 240 L 29.999999999999996 240 A 20 20 0 0 1 30 280 Z"/><path fill="none" stroke="#98984D" paint-order="fill stroke markers" d=" M -29.5 280.5 A 20 20 0 0 1 -29.500000000000004 240.5 L 30.5 240.5 L 30.499999999999996 240.5 A 20 20 0 0 1 30.5 280.5 Z" stroke-linecap="round" stroke-miterlimit="10"/><text fill="#ffffcc" stroke="none" font-family="Consolas, Monaco, Cousine" font-size="14px" font-style="normal" font-weight="normal" text-decoration="normal" x="-13" y="264" text-anchor="start" dominant-baseline="alphabetic">End</text><rect fill="#000000" stroke="none" x="-90" y="40" width="180" height="40"/><rect fill="none" stroke="#98984D" x="-89.5" y="40.5" width="180" height="40" stroke-linecap="round" stroke-miterlimit="10"/><text fill="#ffffcc" stroke="none" font-family="Consolas, Monaco, Cousine" font-size="14px" font-style="normal" font-weight="normal" text-decoration="normal" x="-80" y="64" text-anchor="start" dominant-baseline="alphabetic">sum</text><text fill="#95DCFC" stroke="none" font-family="Consolas, Monaco, Cousine" font-size="14px" font-style="normal" font-weight="normal" text-decoration="normal" x="-47" y="64" text-anchor="start" dominant-baseline="alphabetic">=</text><text fill="#ffffcc" stroke="none" font-family="Consolas, Monaco, Cousine" font-size="14px" font-style="normal" font-weight="normal" text-decoration="normal" x="-31" y="64" text-anchor="start" dominant-baseline="alphabetic">sumDigits</text><text fill="#95DCFC" stroke="none" font-family="Consolas, Monaco, Cousine" font-size="14px" font-style="normal" font-weight="normal" text-decoration="normal" x="45" y="64" text-anchor="start" dominant-baseline="alphabetic">(</text><text fill="#ffffcc" stroke="none" font-family="Consolas, Monaco, Cousine" font-size="14px" font-style="normal" font-weight="normal" text-decoration="normal" x="53" y="64" text-anchor="start" dominant-baseline="alphabetic">n</text><text fill="#95DCFC" stroke="none" font-family="Consolas, Monaco, Cousine" font-size="14px" font-style="normal" font-weight="normal" text-decoration="normal" x="61" y="64" text-anchor="start" dominant-baseline="alphabetic">)</text><path fill="#000000" stroke="none" paint-order="stroke fill markers" d=" M -92 120 L -72 100 L 72 100 L 92 120 L 72 140 L -72 140 Z"/><path fill="none" stroke="#98984D" paint-order="fill stroke markers" d=" M -91.5 120.5 L -71.5 100.5 L 72.5 100.5 L 92.5 120.5 L 72.5 140.5 L -71.5 140.5 Z" stroke-linecap="round" stroke-miterlimit="10"/><text fill="#ffffcc" stroke="none" font-family="Consolas, Monaco, Cousine" font-size="14px" font-style="normal" font-weight="normal" text-decoration="normal" x="-70" y="124" text-anchor="start" dominant-baseline="alphabetic">sum</text><text fill="#95DCFC" stroke="none" font-family="Consolas, Monaco, Cousine" font-size="14px" font-style="normal" font-weight="normal" text-decoration="normal" x="-37" y="124" text-anchor="start" dominant-baseline="alphabetic">&lt;</text><text fill="#ffffff" stroke="none" font-family="Consolas, Monaco, Cousine" font-size="14px" font-style="normal" font-weight="normal" text-decoration="normal" x="-21" y="124" text-anchor="start" dominant-baseline="alphabetic">10</text><text fill="#ffffcc" stroke="none" font-family="Consolas, Monaco, Cousine" font-size="14px" font-style="normal" font-weight="normal" text-decoration="normal" x="-33" y="153" text-anchor="start" dominant-baseline="alphabetic">Yes</text><text fill="#ffffcc" stroke="none" font-family="Consolas, Monaco, Cousine" font-size="14px" font-style="normal" font-weight="normal" text-decoration="normal" x="98" y="113" text-anchor="start" dominant-baseline="alphabetic">No</text><rect fill="#000000" stroke="none" x="-90" y="160" width="180" height="40"/><rect fill="none" stroke="#98984D" x="-89.5" y="160.5" width="180" height="40" stroke-linecap="round" stroke-miterlimit="10"/><text fill="#80ff80" stroke="none" font-family="Consolas, Monaco, Cousine" font-size="14px" font-style="normal" font-weight="normal" text-decoration="normal" x="-80" y="184" text-anchor="start" dominant-baseline="alphabetic">return</text><text fill="#ffffcc" stroke="none" font-family="Consolas, Monaco, Cousine" font-size="14px" font-style="normal" font-weight="normal" text-decoration="normal" x="-22" y="184" text-anchor="start" dominant-baseline="alphabetic">sum</text><rect fill="#000000" stroke="none" x="110" y="160" width="180" height="40"/><rect fill="none" stroke="#98984D" x="110.5" y="160.5" width="180" height="40" stroke-linecap="round" stroke-miterlimit="10"/><text fill="#80ff80" stroke="none" font-family="Consolas, Monaco, Cousine" font-size="14px" font-style="normal" font-weight="normal" text-decoration="normal" x="120" y="184" text-anchor="start" dominant-baseline="alphabetic">return</text><text fill="#ffffcc" stroke="none" font-family="Consolas, Monaco, Cousine" font-size="14px" font-style="normal" font-weight="normal" text-decoration="normal" x="178" y="184" text-anchor="start" dominant-baseline="alphabetic">digRoot</text><text fill="#95DCFC" stroke="none" font-family="Consolas, Monaco, Cousine" font-size="14px" font-style="normal" font-weight="normal" text-decoration="normal" x="237" y="184" text-anchor="start" dominant-baseline="alphabetic">(</text><text fill="#ffffcc" stroke="none" font-family="Consolas, Monaco, Cousine" font-size="14px" font-style="normal" font-weight="normal" text-decoration="normal" x="245" y="184" text-anchor="start" dominant-baseline="alphabetic">sum</text><text fill="#95DCFC" stroke="none" font-family="Consolas, Monaco, Cousine" font-size="14px" font-style="normal" font-weight="normal" text-decoration="normal" x="270" y="184" text-anchor="start" dominant-baseline="alphabetic">)</text><path fill="#000000" stroke="none" paint-order="stroke fill markers" d=" M -40 20 A 20 20 0 0 1 -40.00000000000001 -20 L 40 -20 L 39.99999999999999 -20 A 20 20 0 0 1 40 20 Z"/><path fill="none" stroke="#98984D" paint-order="fill stroke markers" d=" M -39.5 20.5 A 20 20 0 0 1 -39.50000000000001 -19.5 L 40.5 -19.5 L 40.49999999999999 -19.5 A 20 20 0 0 1 40.5 20.5 Z" stroke-linecap="round" stroke-miterlimit="10"/><text fill="#ffffcc" stroke="none" font-family="Consolas, Monaco, Cousine" font-size="18px" font-style="normal" font-weight="normal" text-decoration="normal" x="-38" y="6" text-anchor="start" dominant-baseline="alphabetic">digRoot</text><rect fill="#000000" stroke="none" x="80" y="-20" width="100" height="40"/><rect fill="none" stroke="#98984D" x="80.5" y="-19.5" width="100" height="40" stroke-linecap="round" stroke-miterlimit="10"/><text fill="#ffffcc" stroke="none" font-family="Consolas, Monaco, Cousine" font-size="14px" font-style="normal" font-weight="normal" text-decoration="normal" x="90" y="4" text-anchor="start" dominant-baseline="alphabetic">n</text></g></g></svg>