<svg version="1.1" xmlns="http://www.w3.org/2000/svg" xmlns:xlink="http://www.w3.org/1999/xlink" width="180" height="200"><defs/><g><rect fill="#202020" stroke="none" x="0" y="0" width="180" height="200"/><g transform="scale(1,1) translate(90,40)"><rect fill="#dddd90" stroke="none" x="-1" y="0" width="2" height="60"/><rect fill="#dddd90" stroke="none" x="-1" y="60" width="2" height="60"/><path fill="#000000" stroke="none" paint-order="stroke fill markers" d=" M -30 140 A 20 20 0 0 1 -30.000000000000004 100 L 30 100 L 29.999999999999996 100 A 20 20 0 0 1 30 140 Z"/><path fill="none" stroke="#98984D" paint-order="fill stroke markers" d=" M -29.5 140.5 A 20 20 0 0 1 -29.500000000000004 100.5 L 30.5 100.5 L 30.499999999999996 100.5 A 20 20 0 0 1 30.5 140.5 Z" stroke-linecap="round" stroke-miterlimit="10"/><text fill="#ffffcc" stroke="none" font-family="Consolas, Monaco, Cousine" font-size="14px" font-style="normal" font-weight="normal" text-decoration="normal" x="-13" y="123" text-anchor="start" dominant-baseline="alphabetic">End</text><rect fill="#000000" stroke="none" x="-70" y="40" width="140" height="40"/><rect fill="none" stroke="#98984D" x="-69.5" y="40.5" width="140" height="40" stroke-linecap="round" stroke-miterlimit="10"/><path fill="#000000" stroke="none" paint-order="stroke fill markers" d=" M -50 20 A 20 20 0 0 1 -50.00000000000001 -20 L 50 -20 L 49.99999999999999 -20 A 20 20 0 0 1 50 20 Z"/><path fill="none" stroke="#98984D" paint-order="fill stroke markers" d=" M -49.5 20.5 A 20 20 0 0 1 -49.50000000000001 -19.5 L 50.5 -19.5 L 50.49999999999999 -19.5 A 20 20 0 0 1 50.5 20.5 Z" stroke-linecap="round" stroke-miterlimit="10"/><text fill="#ffffcc" stroke="none" font-family="Consolas, Monaco, Cousine" font-size="18px" font-style="normal" font-weight="normal" text-decoration="normal" x="-49" y="5" text-anchor="start" dominant-baseline="alphabetic">Interface</text></g></g></svg>