<svg version="1.1" xmlns="http://www.w3.org/2000/svg" xmlns:xlink="http://www.w3.org/1999/xlink" width="360" height="500"><defs/><g><rect fill="#202020" stroke="none" x="0" y="0" width="360" height="500"/><g transform="scale(1,1) translate(150,40)"><rect fill="#dddd90" stroke="none" x="-1" y="0" width="2" height="60"/><rect fill="#dddd90" stroke="none" x="-1" y="60" width="2" height="60"/><rect fill="#dddd90" stroke="none" x="-1" y="120" width="2" height="60"/><rect fill="#dddd90" stroke="none" x="-1" y="180" width="2" height="60"/><rect fill="#dddd90" stroke="none" x="-1" y="240" width="2" height="60"/><rect fill="#dddd90" stroke="none" x="-1" y="300" width="2" height="60"/><rect fill="#dddd90" stroke="none" x="-1" y="360" width="2" height="60"/><path fill="none" stroke="#dddd90" paint-order="fill stroke markers" d=" M 0.5 0.5 L 140.5 0.5" stroke-linecap="round" stroke-miterlimit="10"/><path fill="#000000" stroke="none" paint-order="stroke fill markers" d=" M -30 440 A 20 20 0 0 1 -30.000000000000004 400 L 30 400 L 29.999999999999996 400 A 20 20 0 0 1 30 440 Z"/><path fill="none" stroke="#98984D" paint-order="fill stroke markers" d=" M -29.5 440.5 A 20 20 0 0 1 -29.500000000000004 400.5 L 30.5 400.5 L 30.499999999999996 400.5 A 20 20 0 0 1 30.5 440.5 Z" stroke-linecap="round" stroke-miterlimit="10"/><text fill="#ffffcc" stroke="none" font-family="Consolas, Monaco, Cousine" font-size="14px" font-style="normal" font-weight="normal" text-decoration="normal" x="-13" y="424" text-anchor="start" dominant-baseline="alphabetic">End</text><rect fill="#000000" stroke="none" x="-130" y="40" width="260" height="40"/><rect fill="none" stroke="#98984D" x="-129.5" y="40.5" width="260" height="40" stroke-linecap="round" stroke-miterlimit="10"/><text fill="#ffffcc" stroke="none" font-family="Consolas, Monaco, Cousine" font-size="14px" font-style="normal" font-weight="normal" text-decoration="normal" x="-120" y="64" text-anchor="start" dominant-baseline="alphabetic">sum</text><text fill="#95DCFC" stroke="none" font-family="Consolas, Monaco, Cousine" font-size="14px" font-style="normal" font-weight="normal" text-decoration="normal" x="-87" y="64" text-anchor="start" dominant-baseline="alphabetic">=</text><text fill="#ffffff" stroke="none" font-family="Consolas, Monaco, Cousine" font-size="14px" font-style="normal" font-weight="normal" text-decoration="normal" x="-71" y="64" text-anchor="start" dominant-baseline="alphabetic">0</text><rect fill="#000000" stroke="none" x="-130" y="100" width="260" height="40"/><rect fill="none" stroke="#98984D" x="-129.5" y="100.5" width="260" height="40" stroke-linecap="round" stroke-miterlimit="10"/><text fill="#ffffcc" stroke="none" font-family="Consolas, Monaco, Cousine" font-size="14px" font-style="normal" font-weight="normal" text-decoration="normal" x="-120" y="124" text-anchor="start" dominant-baseline="alphabetic">digits</text><text fill="#95DCFC" stroke="none" font-family="Consolas, Monaco, Cousine" font-size="14px" font-style="normal" font-weight="normal" text-decoration="normal" x="-62" y="124" text-anchor="start" dominant-baseline="alphabetic">=</text><text fill="#ffffcc" stroke="none" font-family="Consolas, Monaco, Cousine" font-size="14px" font-style="normal" font-weight="normal" text-decoration="normal" x="-46" y="124" text-anchor="start" dominant-baseline="alphabetic">String</text><text fill="#95DCFC" stroke="none" font-family="Consolas, Monaco, Cousine" font-size="14px" font-style="normal" font-weight="normal" text-decoration="normal" x="4" y="124" text-anchor="start" dominant-baseline="alphabetic">(</text><text fill="#ffffcc" stroke="none" font-family="Consolas, Monaco, Cousine" font-size="14px" font-style="normal" font-weight="normal" text-decoration="normal" x="12" y="124" text-anchor="start" dominant-baseline="alphabetic">n</text><text fill="#95DCFC" stroke="none" font-family="Consolas, Monaco, Cousine" font-size="14px" font-style="normal" font-weight="normal" text-decoration="normal" x="20" y="124" text-anchor="start" dominant-baseline="alphabetic">)</text><text fill="#95DCFC" stroke="none" font-family="Consolas, Monaco, Cousine" font-size="14px" font-style="normal" font-weight="normal" text-decoration="normal" x="28" y="124" text-anchor="start" dominant-baseline="alphabetic">.</text><text fill="#ffffcc" stroke="none" font-family="Consolas, Monaco, Cousine" font-size="14px" font-style="normal" font-weight="normal" text-decoration="normal" x="36" y="124" text-anchor="start" dominant-baseline="alphabetic">split</text><text fill="#95DCFC" stroke="none" font-family="Consolas, Monaco, Cousine" font-size="14px" font-style="normal" font-weight="normal" text-decoration="normal" x="78" y="124" text-anchor="start" dominant-baseline="alphabetic">(</text><text fill="#CF8E60" stroke="none" font-family="Consolas, Monaco, Cousine" font-size="14px" font-style="normal" font-weight="normal" text-decoration="normal" x="86" y="124" text-anchor="start" dominant-baseline="alphabetic">''</text><text fill="#95DCFC" stroke="none" font-family="Consolas, Monaco, Cousine" font-size="14px" font-style="normal" font-weight="normal" text-decoration="normal" x="103" y="124" text-anchor="start" dominant-baseline="alphabetic">)</text><path fill="#000000" stroke="none" paint-order="stroke fill markers" d=" M -135 280 L 135 280 L 135 300 L 115 320 L -115 320 L -135 300 Z"/><path fill="none" stroke="#98984D" paint-order="fill stroke markers" d=" M -134.5 280.5 L 135.5 280.5 L 135.5 300.5 L 115.5 320.5 L -114.5 320.5 L -134.5 300.5 Z" stroke-linecap="round" stroke-miterlimit="10"/><path fill="#000000" stroke="none" paint-order="stroke fill markers" d=" M -135 200 L -135 180 L -115 160 L 115 160 L 135 180 L 135 200 Z"/><path fill="none" stroke="#98984D" paint-order="fill stroke markers" d=" M -134.5 200.5 L -134.5 180.5 L -114.5 160.5 L 115.5 160.5 L 135.5 180.5 L 135.5 200.5 Z" stroke-linecap="round" stroke-miterlimit="10"/><text fill="#ffffcc" stroke="none" font-family="Consolas, Monaco, Cousine" font-size="14px" font-style="normal" font-weight="normal" text-decoration="normal" x="-120" y="184" text-anchor="start" dominant-baseline="alphabetic">digit</text><text fill="#95DCFC" stroke="none" font-family="Consolas, Monaco, Cousine" font-size="14px" font-style="normal" font-weight="normal" text-decoration="normal" x="-78" y="184" text-anchor="start" dominant-baseline="alphabetic">;</text><text fill="#ffffcc" stroke="none" font-family="Consolas, Monaco, Cousine" font-size="14px" font-style="normal" font-weight="normal" text-decoration="normal" x="-62" y="184" text-anchor="start" dominant-baseline="alphabetic">digits</text><rect fill="#000000" stroke="none" x="-130" y="220" width="260" height="40"/><rect fill="none" stroke="#98984D" x="-129.5" y="220.5" width="260" height="40" stroke-linecap="round" stroke-miterlimit="10"/><text fill="#ffffcc" stroke="none" font-family="Consolas, Monaco, Cousine" font-size="14px" font-style="normal" font-weight="normal" text-decoration="normal" x="-120" y="244" text-anchor="start" dominant-baseline="alphabetic">sum</text><text fill="#95DCFC" stroke="none" font-family="Consolas, Monaco, Cousine" font-size="14px" font-style="normal" font-weight="normal" text-decoration="normal" x="-87" y="244" text-anchor="start" dominant-baseline="alphabetic">+=</text><text fill="#ffffcc" stroke="none" font-family="Consolas, Monaco, Cousine" font-size="14px" font-style="normal" font-weight="normal" text-decoration="normal" x="-62" y="244" text-anchor="start" dominant-baseline="alphabetic">parseInt</text><text fill="#95DCFC" stroke="none" font-family="Consolas, Monaco, Cousine" font-size="14px" font-style="normal" font-weight="normal" text-decoration="normal" x="5" y="244" text-anchor="start" dominant-baseline="alphabetic">(</text><text fill="#ffffcc" stroke="none" font-family="Consolas, Monaco, Cousine" font-size="14px" font-style="normal" font-weight="normal" text-decoration="normal" x="13" y="244" text-anchor="start" dominant-baseline="alphabetic">digit</text><text fill="#95DCFC" stroke="none" font-family="Consolas, Monaco, Cousine" font-size="14px" font-style="normal" font-weight="normal" text-decoration="normal" x="55" y="244" text-anchor="start" dominant-baseline="alphabetic">,</text><text fill="#ffffff" stroke="none" font-family="Consolas, Monaco, Cousine" font-size="14px" font-style="normal" font-weight="normal" text-decoration="normal" x="71" y="244" text-anchor="start" dominant-baseline="alphabetic">10</text><text fill="#95DCFC" stroke="none" font-family="Consolas, Monaco, Cousine" font-size="14px" font-style="normal" font-weight="normal" text-decoration="normal" x="88" y="244" text-anchor="start" dominant-baseline="alphabetic">)</text><rect fill="#000000" stroke="none" x="-130" y="340" width="260" height="40"/><rect fill="none" stroke="#98984D" x="-129.5" y="340.5" width="260" height="40" stroke-linecap="round" stroke-miterlimit="10"/><text fill="#80ff80" stroke="none" font-family="Consolas, Monaco, Cousine" font-size="14px" font-style="normal" font-weight="normal" text-decoration="normal" x="-120" y="364" text-anchor="start" dominant-baseline="alphabetic">return</text><text fill="#ffffcc" stroke="none" font-family="Consolas, Monaco, Cousine" font-size="14px" font-style="normal" font-weight="normal" text-decoration="normal" x="-62" y="364" text-anchor="start" dominant-baseline="alphabetic">sum</text><path fill="#000000" stroke="none" paint-order="stroke fill markers" d=" M -50 20 A 20 20 0 0 1 -50.00000000000001 -20 L 50 -20 L 49.99999999999999 -20 A 20 20 0 0 1 50 20 Z"/><path fill="none" stroke="#98984D" paint-order="fill stroke markers" d=" M -49.5 20.5 A 20 20 0 0 1 -49.50000000000001 -19.5 L 50.5 -19.5 L 50.49999999999999 -19.5 A 20 20 0 0 1 50.5 20.5 Z" stroke-linecap="round" stroke-miterlimit="10"/><text fill="#ffffcc" stroke="none" font-family="Consolas, Monaco, Cousine" font-size="18px" font-style="normal" font-weight="normal" text-decoration="normal" x="-49" y="6" text-anchor="start" dominant-baseline="alphabetic">sumDigits</text><rect fill="#000000" stroke="none" x="90" y="-20" width="100" height="40"/><rect fill="none" stroke="#98984D" x="90.5" y="-19.5" width="100" height="40" stroke-linecap="round" stroke-miterlimit="10"/><text fill="#ffffcc" stroke="none" font-family="Consolas, Monaco, Cousine" font-size="14px" font-style="normal" font-weight="normal" text-decoration="normal" x="100" y="4" text-anchor="start" dominant-baseline="alphabetic">n</text></g></g></svg>