<svg version="1.1" xmlns="http://www.w3.org/2000/svg" xmlns:xlink="http://www.w3.org/1999/xlink" width="472" height="660"><defs/><g><rect fill="#202020" stroke="none" x="0" y="0" width="472" height="660"/><g transform="scale(1,1) translate(110,40)"><rect fill="#dddd90" stroke="none" x="-1" y="0" width="2" height="60"/><rect fill="#dddd90" stroke="none" x="-1" y="60" width="2" height="60"/><rect fill="#dddd90" stroke="none" x="-1" y="120" width="2" height="40"/><path fill="none" stroke="#dddd90" paint-order="fill stroke markers" d=" M 1.5 160.5 L 320.5 160.5" stroke-linecap="round" stroke-miterlimit="10"/><g transform="translate(1.5,160.5) rotate(180,0,0)"><path fill="#dddd90" stroke="#dddd90" paint-order="fill stroke markers" d=" M -20 -6 L 0 0 L -20 6 Z" stroke-linecap="round" stroke-linejoin="round" stroke-miterlimit="10"/></g><g transform="translate(320.5,160.5) rotate(0,0,0)"/><rect fill="#dddd90" stroke="none" x="-1" y="160" width="2" height="40"/><rect fill="#dddd90" stroke="none" x="-1" y="200" width="2" height="60"/><path fill="none" stroke="#dddd90" paint-order="fill stroke markers" d=" M 0.5 260.5 L 150.5 260.5" stroke-linecap="round" stroke-miterlimit="10"/><rect fill="#dddd90" stroke="none" x="150" y="260" width="1" height="60"/><rect fill="#dddd90" stroke="none" x="150" y="320" width="1" height="90"/><rect fill="#dddd90" stroke="none" x="150" y="410" width="1" height="90"/><rect fill="#dddd90" stroke="none" x="150" y="500" width="1" height="40"/><path fill="none" stroke="#dddd90" paint-order="fill stroke markers" d=" M 150.5 540.5 L 320.5 540.5" stroke-linecap="round" stroke-miterlimit="10"/><rect fill="#dddd90" stroke="none" x="320" y="320" width="1" height="220"/><rect fill="#dddd90" stroke="none" x="320" y="160" width="1" height="160"/><path fill="none" stroke="#dddd90" paint-order="fill stroke markers" d=" M 150.5 320.5 L 320.5 320.5" stroke-linecap="round" stroke-miterlimit="10"/><path fill="none" stroke="#dddd90" paint-order="fill stroke markers" d=" M 0.5 0.5 L 160.5 0.5" stroke-linecap="round" stroke-miterlimit="10"/><rect fill="#dddd90" stroke="none" x="-1" y="260" width="2" height="320"/><path fill="#000000" stroke="none" paint-order="stroke fill markers" d=" M -30 600 A 20 20 0 0 1 -30.000000000000004 560 L 30 560 L 29.999999999999996 560 A 20 20 0 0 1 30 600 Z"/><path fill="none" stroke="#98984D" paint-order="fill stroke markers" d=" M -29.5 600.5 A 20 20 0 0 1 -29.500000000000004 560.5 L 30.5 560.5 L 30.499999999999996 560.5 A 20 20 0 0 1 30.5 600.5 Z" stroke-linecap="round" stroke-miterlimit="10"/><text fill="#ffffcc" stroke="none" font-family="Consolas, Monaco, Cousine" font-size="14px" font-style="normal" font-weight="normal" text-decoration="normal" x="-13" y="584" text-anchor="start" dominant-baseline="alphabetic">End</text><rect fill="#000000" stroke="none" x="-90" y="40" width="180" height="40"/><rect fill="none" stroke="#98984D" x="-89.5" y="40.5" width="180" height="40" stroke-linecap="round" stroke-miterlimit="10"/><text fill="#ffffcc" stroke="none" font-family="Consolas, Monaco, Cousine" font-size="14px" font-style="normal" font-weight="normal" text-decoration="normal" x="-80" y="64" text-anchor="start" dominant-baseline="alphabetic">size</text><text fill="#95DCFC" stroke="none" font-family="Consolas, Monaco, Cousine" font-size="14px" font-style="normal" font-weight="normal" text-decoration="normal" x="-38" y="64" text-anchor="start" dominant-baseline="alphabetic">=</text><text fill="#ffffcc" stroke="none" font-family="Consolas, Monaco, Cousine" font-size="14px" font-style="normal" font-weight="normal" text-decoration="normal" x="-22" y="64" text-anchor="start" dominant-baseline="alphabetic">data</text><text fill="#95DCFC" stroke="none" font-family="Consolas, Monaco, Cousine" font-size="14px" font-style="normal" font-weight="normal" text-decoration="normal" x="12" y="64" text-anchor="start" dominant-baseline="alphabetic">.</text><text fill="#ffffcc" stroke="none" font-family="Consolas, Monaco, Cousine" font-size="14px" font-style="normal" font-weight="normal" text-decoration="normal" x="20" y="64" text-anchor="start" dominant-baseline="alphabetic">length</text><rect fill="#000000" stroke="none" x="-90" y="100" width="180" height="40"/><rect fill="none" stroke="#98984D" x="-89.5" y="100.5" width="180" height="40" stroke-linecap="round" stroke-miterlimit="10"/><text fill="#ffffcc" stroke="none" font-family="Consolas, Monaco, Cousine" font-size="14px" font-style="normal" font-weight="normal" text-decoration="normal" x="-80" y="124" text-anchor="start" dominant-baseline="alphabetic">i</text><text fill="#95DCFC" stroke="none" font-family="Consolas, Monaco, Cousine" font-size="14px" font-style="normal" font-weight="normal" text-decoration="normal" x="-64" y="124" text-anchor="start" dominant-baseline="alphabetic">=</text><text fill="#95DCFC" stroke="none" font-family="Consolas, Monaco, Cousine" font-size="14px" font-style="normal" font-weight="normal" text-decoration="normal" x="-48" y="124" text-anchor="start" dominant-baseline="alphabetic">-</text><text fill="#ffffff" stroke="none" font-family="Consolas, Monaco, Cousine" font-size="14px" font-style="normal" font-weight="normal" text-decoration="normal" x="-40" y="124" text-anchor="start" dominant-baseline="alphabetic">1</text><path fill="#000000" stroke="none" paint-order="stroke fill markers" d=" M -92 260 L -72 240 L 72 240 L 92 260 L 72 280 L -72 280 Z"/><path fill="none" stroke="#98984D" paint-order="fill stroke markers" d=" M -91.5 260.5 L -71.5 240.5 L 72.5 240.5 L 92.5 260.5 L 72.5 280.5 L -71.5 280.5 Z" stroke-linecap="round" stroke-miterlimit="10"/><text fill="#80ff80" stroke="none" font-family="Consolas, Monaco, Cousine" font-size="14px" font-style="normal" font-weight="normal" text-decoration="normal" x="-70" y="264" text-anchor="start" dominant-baseline="alphabetic">true</text><text fill="#ffffcc" stroke="none" font-family="Consolas, Monaco, Cousine" font-size="14px" font-style="normal" font-weight="normal" text-decoration="normal" x="-20" y="293" text-anchor="start" dominant-baseline="alphabetic">No</text><text fill="#ffffcc" stroke="none" font-family="Consolas, Monaco, Cousine" font-size="14px" font-style="normal" font-weight="normal" text-decoration="normal" x="98" y="253" text-anchor="start" dominant-baseline="alphabetic">Yes</text><path fill="#000000" stroke="none" paint-order="stroke fill markers" d=" M 18 320 L 38 300 L 262 300 L 282 320 L 262 340 L 38 340 Z"/><path fill="none" stroke="#98984D" paint-order="fill stroke markers" d=" M 18.5 320.5 L 38.5 300.5 L 262.5 300.5 L 282.5 320.5 L 262.5 340.5 L 38.5 340.5 Z" stroke-linecap="round" stroke-miterlimit="10"/><text fill="#ffffcc" stroke="none" font-family="Consolas, Monaco, Cousine" font-size="14px" font-style="normal" font-weight="normal" text-decoration="normal" x="40" y="324" text-anchor="start" dominant-baseline="alphabetic">data</text><text fill="#95DCFC" stroke="none" font-family="Consolas, Monaco, Cousine" font-size="14px" font-style="normal" font-weight="normal" text-decoration="normal" x="74" y="324" text-anchor="start" dominant-baseline="alphabetic">[</text><text fill="#ffffcc" stroke="none" font-family="Consolas, Monaco, Cousine" font-size="14px" font-style="normal" font-weight="normal" text-decoration="normal" x="82" y="324" text-anchor="start" dominant-baseline="alphabetic">i</text><text fill="#95DCFC" stroke="none" font-family="Consolas, Monaco, Cousine" font-size="14px" font-style="normal" font-weight="normal" text-decoration="normal" x="90" y="324" text-anchor="start" dominant-baseline="alphabetic">]</text><text fill="#95DCFC" stroke="none" font-family="Consolas, Monaco, Cousine" font-size="14px" font-style="normal" font-weight="normal" text-decoration="normal" x="106" y="324" text-anchor="start" dominant-baseline="alphabetic">&gt;=</text><text fill="#ffffcc" stroke="none" font-family="Consolas, Monaco, Cousine" font-size="14px" font-style="normal" font-weight="normal" text-decoration="normal" x="131" y="324" text-anchor="start" dominant-baseline="alphabetic">value</text><text fill="#ffffcc" stroke="none" font-family="Consolas, Monaco, Cousine" font-size="14px" font-style="normal" font-weight="normal" text-decoration="normal" x="117" y="353" text-anchor="start" dominant-baseline="alphabetic">Yes</text><text fill="#ffffcc" stroke="none" font-family="Consolas, Monaco, Cousine" font-size="14px" font-style="normal" font-weight="normal" text-decoration="normal" x="288" y="313" text-anchor="start" dominant-baseline="alphabetic">No</text><rect fill="#000000" stroke="none" x="20" y="360" width="260" height="100"/><rect fill="none" stroke="#98984D" x="20.5" y="360.5" width="260" height="100" stroke-linecap="round" stroke-miterlimit="10"/><text fill="#ffffcc" stroke="none" font-family="Consolas, Monaco, Cousine" font-size="14px" font-style="normal" font-weight="normal" text-decoration="normal" x="30" y="390" text-anchor="start" dominant-baseline="alphabetic">console</text><text fill="#95DCFC" stroke="none" font-family="Consolas, Monaco, Cousine" font-size="14px" font-style="normal" font-weight="normal" text-decoration="normal" x="89" y="390" text-anchor="start" dominant-baseline="alphabetic">.</text><text fill="#ffffcc" stroke="none" font-family="Consolas, Monaco, Cousine" font-size="14px" font-style="normal" font-weight="normal" text-decoration="normal" x="97" y="390" text-anchor="start" dominant-baseline="alphabetic">log</text><text fill="#95DCFC" stroke="none" font-family="Consolas, Monaco, Cousine" font-size="14px" font-style="normal" font-weight="normal" text-decoration="normal" x="122" y="390" text-anchor="start" dominant-baseline="alphabetic">(</text><text fill="#CF8E60" stroke="none" font-family="Consolas, Monaco, Cousine" font-size="14px" font-style="normal" font-weight="normal" text-decoration="normal" x="62" y="406" text-anchor="start" dominant-baseline="alphabetic">"The element value --&gt;"</text><text fill="#95DCFC" stroke="none" font-family="Consolas, Monaco, Cousine" font-size="14px" font-style="normal" font-weight="normal" text-decoration="normal" x="255" y="406" text-anchor="start" dominant-baseline="alphabetic">,</text><text fill="#ffffcc" stroke="none" font-family="Consolas, Monaco, Cousine" font-size="14px" font-style="normal" font-weight="normal" text-decoration="normal" x="62" y="422" text-anchor="start" dominant-baseline="alphabetic">value</text><text fill="#95DCFC" stroke="none" font-family="Consolas, Monaco, Cousine" font-size="14px" font-style="normal" font-weight="normal" text-decoration="normal" x="30" y="438" text-anchor="start" dominant-baseline="alphabetic">)</text><rect fill="#000000" stroke="none" x="-90" y="180" width="180" height="40"/><rect fill="none" stroke="#98984D" x="-89.5" y="180.5" width="180" height="40" stroke-linecap="round" stroke-miterlimit="10"/><text fill="#ffffcc" stroke="none" font-family="Consolas, Monaco, Cousine" font-size="14px" font-style="normal" font-weight="normal" text-decoration="normal" x="-80" y="204" text-anchor="start" dominant-baseline="alphabetic">i</text><text fill="#95DCFC" stroke="none" font-family="Consolas, Monaco, Cousine" font-size="14px" font-style="normal" font-weight="normal" text-decoration="normal" x="-72" y="204" text-anchor="start" dominant-baseline="alphabetic">++</text><rect fill="#000000" stroke="none" x="20" y="480" width="260" height="40"/><rect fill="none" stroke="#98984D" x="20.5" y="480.5" width="260" height="40" stroke-linecap="round" stroke-miterlimit="10"/><text fill="#80ff80" stroke="none" font-family="Consolas, Monaco, Cousine" font-size="14px" font-style="normal" font-weight="normal" text-decoration="normal" x="30" y="504" text-anchor="start" dominant-baseline="alphabetic">return</text><path fill="#000000" stroke="none" paint-order="stroke fill markers" d=" M -60 20 A 20 20 0 0 1 -60.00000000000001 -20 L 60 -20 L 59.99999999999999 -20 A 20 20 0 0 1 60 20 Z"/><path fill="none" stroke="#98984D" paint-order="fill stroke markers" d=" M -59.5 20.5 A 20 20 0 0 1 -59.50000000000001 -19.5 L 60.5 -19.5 L 60.49999999999999 -19.5 A 20 20 0 0 1 60.5 20.5 Z" stroke-linecap="round" stroke-miterlimit="10"/><text fill="#ffffcc" stroke="none" font-family="Consolas, Monaco, Cousine" font-size="18px" font-style="normal" font-weight="normal" text-decoration="normal" x="-54" y="6" text-anchor="start" dominant-baseline="alphabetic">dataSorted</text><rect fill="#000000" stroke="none" x="100" y="-20" width="120" height="40"/><rect fill="none" stroke="#98984D" x="100.5" y="-19.5" width="120" height="40" stroke-linecap="round" stroke-miterlimit="10"/><text fill="#ffffcc" stroke="none" font-family="Consolas, Monaco, Cousine" font-size="14px" font-style="normal" font-weight="normal" text-decoration="normal" x="110" y="4" text-anchor="start" dominant-baseline="alphabetic">data,value</text></g></g></svg>