<?xml version="1.0" encoding="UTF-8"?>
<svg version="1.1" xmlns="http://www.w3.org/2000/svg" width="2200" height="560">
<path d="M0 0 C726 0 1452 0 2200 0 C2200 184.8 2200 369.6 2200 560 C1474 560 748 560 0 560 C0 375.2 0 190.4 0 0 Z " fill="#FEFEFE" transform="translate(0,0)"/>
<path d="M0 0 C469.26 0 938.52 0 1422 0 C1422 40.26 1422 80.52 1422 122 C952.74 122 483.48 122 0 122 C0 103.52 0 85.04 0 66 C-37.62 66 -75.24 66 -114 66 C-114 108.9 -114 151.8 -114 196 C-108.72 196 -103.44 196 -98 196 C-94 199 -94 199 -93.4765625 201.15625 C-94.25779071 205.4005346 -96.28059379 208.75883221 -98.375 212.5 C-102.81267838 220.64243339 -106.8838968 228.90346097 -110.77490234 237.3203125 C-111.36585693 238.58681641 -111.36585693 238.58681641 -111.96875 239.87890625 C-112.31357422 240.6272876 -112.65839844 241.37566895 -113.01367188 242.14672852 C-114 244 -114 244 -116 246 C-118.9375 246.4375 -118.9375 246.4375 -122 246 C-124.9153832 241.90631194 -126.96986844 237.1719957 -129.1953125 232.671875 C-129.58822479 231.88226379 -129.98113708 231.09265259 -130.38595581 230.27911377 C-131.63424492 227.77036833 -132.8799337 225.26034629 -134.125 222.75 C-135.77117046 219.43115883 -137.41992994 216.11362322 -139.0703125 212.796875 C-139.44946808 212.0302655 -139.82862366 211.26365601 -140.2192688 210.47381592 C-141.77036765 207.00880176 -141.77036765 207.00880176 -144 204 C-144.29386153 200.27775401 -144.14809171 199.22213757 -142 196 C-140.12060547 195.65942383 -140.12060547 195.65942383 -137.8671875 195.70703125 C-137.06152344 195.71669922 -136.25585938 195.72636719 -135.42578125 195.73632812 C-134.58402344 195.76146484 -133.74226562 195.78660156 -132.875 195.8125 C-132.02550781 195.82603516 -131.17601562 195.83957031 -130.30078125 195.85351562 C-128.20025163 195.88891781 -126.10004707 195.94272599 -124 196 C-124.00184359 195.29062853 -124.00368717 194.58125706 -124.00558662 193.85038948 C-124.04971019 176.60851195 -124.0828295 159.36664872 -124.10362434 142.12472725 C-124.11394725 133.78674419 -124.1280269 125.44879876 -124.15087891 117.11083984 C-124.1707818 109.84546792 -124.18370905 102.58012323 -124.18817699 95.3147248 C-124.19078965 91.46594806 -124.19695144 87.61724928 -124.21146011 83.76849747 C-124.22499513 80.14884068 -124.22923097 76.52929426 -124.22621536 72.90961456 C-124.22703134 70.94189551 -124.23781427 68.97418858 -124.24884033 67.00650024 C-124.246091 65.84259766 -124.24334167 64.67869507 -124.24050903 63.47952271 C-124.24235262 62.46370684 -124.24419621 61.44789097 -124.24609566 60.4012928 C-124 58 -124 58 -122 56 C-119.84858513 55.75390434 -119.84858513 55.75390434 -117.12789917 55.75949097 C-115.58398499 55.75536697 -115.58398499 55.75536697 -114.00888062 55.75115967 C-112.87528107 55.75835022 -111.74168152 55.76554077 -110.57373047 55.77294922 C-109.38350281 55.77265717 -108.19327515 55.77236511 -106.96697998 55.77206421 C-103.69853958 55.77322085 -100.43026925 55.78326842 -97.16186285 55.79721212 C-93.74790018 55.80969364 -90.33393436 55.81088794 -86.91995239 55.81326294 C-80.45303099 55.81948531 -73.986177 55.83590633 -67.51928532 55.85596192 C-59.4360469 55.88048741 -51.35279758 55.8914525 -43.26953125 55.90234375 C-28.84630161 55.92183744 -14.42321915 55.96189933 0 56 C0 37.52 0 19.04 0 0 Z " fill="#FDFDFD" transform="translate(360,160)"/>
<path d="M0 0 C78.54 0 157.08 0 238 0 C238 38.94 238 77.88 238 118 C159.46 118 80.92 118 0 118 C0 79.06 0 40.12 0 0 Z " fill="#FEFEFE" transform="translate(1542,162)"/>
<path d="M0 0 C78.54 0 157.08 0 238 0 C238 38.94 238 77.88 238 118 C159.46 118 80.92 118 0 118 C0 79.06 0 40.12 0 0 Z " fill="#FEFEFE" transform="translate(1302,162)"/>
<path d="M0 0 C78.54 0 157.08 0 238 0 C238 38.94 238 77.88 238 118 C159.46 118 80.92 118 0 118 C0 79.06 0 40.12 0 0 Z " fill="#FEFEFE" transform="translate(1062,162)"/>
<path d="M0 0 C78.54 0 157.08 0 238 0 C238 38.94 238 77.88 238 118 C159.46 118 80.92 118 0 118 C0 79.06 0 40.12 0 0 Z " fill="#FEFEFE" transform="translate(602,162)"/>
<path d="M0 0 C71.94 0 143.88 0 218 0 C218 38.94 218 77.88 218 118 C146.06 118 74.12 118 0 118 C0 79.06 0 40.12 0 0 Z " fill="#FEFEFE" transform="translate(842,162)"/>
<path d="M0 0 C469.26 0 938.52 0 1422 0 C1422 40.26 1422 80.52 1422 122 C952.74 122 483.48 122 0 122 C0 103.52 0 85.04 0 66 C-37.62 66 -75.24 66 -114 66 C-114 108.9 -114 151.8 -114 196 C-108.72 196 -103.44 196 -98 196 C-94 199 -94 199 -93.4765625 201.15625 C-94.25779071 205.4005346 -96.28059379 208.75883221 -98.375 212.5 C-102.81267838 220.64243339 -106.8838968 228.90346097 -110.77490234 237.3203125 C-111.36585693 238.58681641 -111.36585693 238.58681641 -111.96875 239.87890625 C-112.31357422 240.6272876 -112.65839844 241.37566895 -113.01367188 242.14672852 C-114 244 -114 244 -116 246 C-118.9375 246.4375 -118.9375 246.4375 -122 246 C-124.9153832 241.90631194 -126.96986844 237.1719957 -129.1953125 232.671875 C-129.58822479 231.88226379 -129.98113708 231.09265259 -130.38595581 230.27911377 C-131.63424492 227.77036833 -132.8799337 225.26034629 -134.125 222.75 C-135.77117046 219.43115883 -137.41992994 216.11362322 -139.0703125 212.796875 C-139.44946808 212.0302655 -139.82862366 211.26365601 -140.2192688 210.47381592 C-141.77036765 207.00880176 -141.77036765 207.00880176 -144 204 C-144.29386153 200.27775401 -144.14809171 199.22213757 -142 196 C-140.12060547 195.65942383 -140.12060547 195.65942383 -137.8671875 195.70703125 C-137.06152344 195.71669922 -136.25585938 195.72636719 -135.42578125 195.73632812 C-134.58402344 195.76146484 -133.74226562 195.78660156 -132.875 195.8125 C-132.02550781 195.82603516 -131.17601562 195.83957031 -130.30078125 195.85351562 C-128.20025163 195.88891781 -126.10004707 195.94272599 -124 196 C-124.00184359 195.29062853 -124.00368717 194.58125706 -124.00558662 193.85038948 C-124.04971019 176.60851195 -124.0828295 159.36664872 -124.10362434 142.12472725 C-124.11394725 133.78674419 -124.1280269 125.44879876 -124.15087891 117.11083984 C-124.1707818 109.84546792 -124.18370905 102.58012323 -124.18817699 95.3147248 C-124.19078965 91.46594806 -124.19695144 87.61724928 -124.21146011 83.76849747 C-124.22499513 80.14884068 -124.22923097 76.52929426 -124.22621536 72.90961456 C-124.22703134 70.94189551 -124.23781427 68.97418858 -124.24884033 67.00650024 C-124.246091 65.84259766 -124.24334167 64.67869507 -124.24050903 63.47952271 C-124.24235262 62.46370684 -124.24419621 61.44789097 -124.24609566 60.4012928 C-124 58 -124 58 -122 56 C-119.84858513 55.75390434 -119.84858513 55.75390434 -117.12789917 55.75949097 C-115.58398499 55.75536697 -115.58398499 55.75536697 -114.00888062 55.75115967 C-112.87528107 55.75835022 -111.74168152 55.76554077 -110.57373047 55.77294922 C-109.38350281 55.77265717 -108.19327515 55.77236511 -106.96697998 55.77206421 C-103.69853958 55.77322085 -100.43026925 55.78326842 -97.16186285 55.79721212 C-93.74790018 55.80969364 -90.33393436 55.81088794 -86.91995239 55.81326294 C-80.45303099 55.81948531 -73.986177 55.83590633 -67.51928532 55.85596192 C-59.4360469 55.88048741 -51.35279758 55.8914525 -43.26953125 55.90234375 C-28.84630161 55.92183744 -14.42321915 55.96189933 0 56 C0 37.52 0 19.04 0 0 Z M2 2 C2 19.82 2 37.64 2 56 C2.99 56.33 3.98 56.66 5 57 C5 59.64 5 62.28 5 65 C3.515 65.495 3.515 65.495 2 66 C2 83.82 2 101.64 2 120 C80.54 120 159.08 120 240 120 C240 81.06 240 42.12 240 2 C161.46 2 82.92 2 2 2 Z M242 2 C242 40.94 242 79.88 242 120 C320.54 120 399.08 120 480 120 C480 81.06 480 42.12 480 2 C401.46 2 322.92 2 242 2 Z M482 2 C482 40.94 482 79.88 482 120 C553.94 120 625.88 120 700 120 C700 81.06 700 42.12 700 2 C628.06 2 556.12 2 482 2 Z M702 2 C702 40.94 702 79.88 702 120 C780.54 120 859.08 120 940 120 C940 81.06 940 42.12 940 2 C861.46 2 782.92 2 702 2 Z M942 2 C942 40.94 942 79.88 942 120 C1020.54 120 1099.08 120 1180 120 C1180 81.06 1180 42.12 1180 2 C1101.46 2 1022.92 2 942 2 Z M1182 2 C1182 40.94 1182 79.88 1182 120 C1260.54 120 1339.08 120 1420 120 C1420 81.06 1420 42.12 1420 2 C1341.46 2 1262.92 2 1182 2 Z " fill="#000000" transform="translate(360,160)"/>
<path d="M0 0 C0.94875 0.268125 1.8975 0.53625 2.875 0.8125 C4.45168842 3.96587684 4.02226387 7.34814344 4.02026367 10.81054688 C4.02362228 11.63667984 4.0269809 12.46281281 4.03044128 13.3139801 C4.03996402 16.05308523 4.04189494 18.79212934 4.04296875 21.53125 C4.04617999 23.42932155 4.04954395 25.32739285 4.05305481 27.22546387 C4.05904909 31.20679295 4.06089436 35.18810031 4.06030273 39.16943359 C4.060201 44.2810096 4.07386378 49.39244705 4.09107494 54.50399017 C4.10217024 58.424384 4.10422272 62.34474405 4.10369301 66.26515198 C4.10487646 68.15027851 4.10931851 70.03540582 4.11702538 71.92051697 C4.12677727 74.55192906 4.12396657 77.18303656 4.11791992 79.81445312 C4.12353943 80.59893326 4.12915894 81.38341339 4.13494873 82.19166565 C4.10331672 87.58418328 4.10331672 87.58418328 1.875 89.8125 C-0.21394539 90.05859566 -0.21394539 90.05859566 -2.84524536 90.05300903 C-3.84086487 90.05575836 -4.83648438 90.05850769 -5.86227417 90.06134033 C-6.95847076 90.05414978 -8.05466736 90.04695923 -9.18408203 90.03955078 C-10.33529541 90.03984283 -11.48650879 90.04013489 -12.67260742 90.04043579 C-16.49275142 90.03903807 -20.31270241 90.02345592 -24.1328125 90.0078125 C-26.77554213 90.00408395 -29.41827314 90.00123623 -32.06100464 89.99923706 C-38.31543134 89.99301494 -44.56978833 89.97659429 -50.8241843 89.95653808 C-57.9437952 89.93420179 -65.06340938 89.92319137 -72.18304658 89.91314721 C-86.83040039 89.89222866 -101.47769922 89.85703851 -116.125 89.8125 C-116.07279297 91.60107422 -116.07279297 91.60107422 -116.01953125 93.42578125 C-115.99139247 94.99217342 -115.9640924 96.55858081 -115.9375 98.125 C-115.91236328 98.91068359 -115.88722656 99.69636719 -115.86132812 100.50585938 C-115.85166016 101.26318359 -115.84199219 102.02050781 -115.83203125 102.80078125 C-115.8163208 103.49727783 -115.80061035 104.19377441 -115.78442383 104.91137695 C-116.23344621 107.41785531 -117.11162128 108.29656163 -119.125 109.8125 C-126.23242876 109.98285116 -132.10503542 105.98156201 -138.1875 102.6875 C-140.41751478 101.50175 -142.64798102 100.31684864 -144.87890625 99.1328125 C-146.48596436 98.27478027 -146.48596436 98.27478027 -148.12548828 97.39941406 C-152.98383355 94.82907023 -157.90911204 92.40378487 -162.84375 89.984375 C-165.125 88.8125 -165.125 88.8125 -166.125 87.8125 C-166.5 84.9375 -166.5 84.9375 -166.125 81.8125 C-162.29792776 79.09440892 -157.95756711 77.18989094 -153.75 75.125 C-147.49723305 72.0305258 -141.31404682 68.82778536 -135.17431641 65.51489258 C-123.50145531 59.22108712 -123.50145531 59.22108712 -119.125 59.8125 C-118.135 60.4725 -117.145 61.1325 -116.125 61.8125 C-116.125 67.7525 -116.125 73.6925 -116.125 79.8125 C-79.825 79.8125 -43.525 79.8125 -6.125 79.8125 C-6.24377696 54.60671556 -6.24377696 54.60671556 -6.39526367 29.40112305 C-6.40881348 24.52697754 -6.40881348 24.52697754 -6.41133118 22.24543762 C-6.41593905 20.65137725 -6.42649267 19.05732736 -6.44172668 17.46333313 C-6.46364638 15.04918237 -6.46671944 12.63567072 -6.46557617 10.22143555 C-6.4763705 9.51086596 -6.48716482 8.80029638 -6.49828625 8.06819439 C-6.48005876 5.19825586 -6.4230939 3.25645234 -4.79902649 0.83772278 C-3.125 -0.1875 -3.125 -0.1875 0 0 Z " fill="#010101" transform="translate(1962.125,136.1875)"/>
<path d="M0 0 C23.37210648 0 23.37210648 0 30.4375 5.4375 C34.92243642 9.92243642 35.29353967 13.04225017 35.3125 19.375 C35.32925781 20.66148437 35.34601563 21.94796875 35.36328125 23.2734375 C34.73268688 29.74211527 31.91260852 33.86894283 27 38 C20 41 20 41 0 41 C0 27.47 0 13.94 0 0 Z " fill="#F5F5F5" transform="translate(123,458)"/>
<path d="M0 0 C3 2 3 2 5 4 C5.33 2.68 5.66 1.36 6 0 C7.65 0 9.3 0 11 0 C11 14.85 11 29.7 11 45 C9.35 45 7.7 45 6 45 C5.67 40.05 5.34 35.1 5 30 C3.35 31.32 1.7 32.64 0 34 C-3.0998371 34.76965134 -5.87868481 34.65711899 -9 34 C-12.82546344 31.15125063 -14.55241803 28.47607582 -16 24 C-16.66737536 16.66753829 -17.08701538 9.34192042 -13 3 C-9.17292437 -0.38969556 -4.92426293 -0.9431552 0 0 Z " fill="#171717" transform="translate(1932,66)"/>
<path d="M0 0 C3.4375 1.5 3.4375 1.5 6 3 C6.33 2.01 6.66 1.02 7 0 C8.65 0 10.3 0 12 0 C12 14.85 12 29.7 12 45 C10.35 45 8.7 45 7 45 C6.67 40.05 6.34 35.1 6 30 C5.01 30.99 4.02 31.98 3 33 C-0.60572704 34.20190901 -3.2102435 34.32670315 -7 34 C-10.75003759 31.86929682 -12.95488338 29.32660788 -14.49609375 25.2578125 C-15.88614153 19.02953641 -15.82705333 12.48115998 -13.8125 6.4375 C-9.79386646 1.03313076 -6.84028781 -0.84003534 0 0 Z " fill="#181818" transform="translate(212,466)"/>
<path d="M0 0 C2.89648232 1.48521753 4.88265923 3.21792713 6.8984375 5.75390625 C8.74159537 11.93390618 9.32567898 18.69956051 7.01171875 24.83203125 C4.71935113 28.73701079 2.294573 31.70389072 -2.0390625 33.31640625 C-6.67561655 33.89243435 -10.93329511 33.71143723 -15.0390625 31.31640625 C-20.20761612 25.70483374 -21.44299253 21.57540755 -21.29296875 14.07421875 C-20.83772803 9.12960418 -19.26855476 5.7764283 -16.0390625 1.94140625 C-11.62275602 -1.64684277 -5.27792045 -1.76941777 0 0 Z " fill="#171717" transform="translate(480.0390625,206.68359375)"/>
<path d="M0 0 C3.79790983 1.61613184 5.80975831 3.54104166 8 7 C8.43237305 9.47363281 8.43237305 9.47363281 8.51171875 12.203125 C8.56489258 13.67265625 8.56489258 13.67265625 8.61914062 15.171875 C8.64169922 16.18765625 8.66425781 17.2034375 8.6875 18.25 C8.73874023 19.796875 8.73874023 19.796875 8.79101562 21.375 C8.87338093 23.91655812 8.94256834 26.45777626 9 29 C9.99 29.33 10.98 29.66 12 30 C12 31.32 12 32.64 12 34 C8.625 34.1875 8.625 34.1875 5 34 C3 31 3 31 3 28 C2.34 28 1.68 28 1 28 C0.731875 28.61875 0.46375 29.2375 0.1875 29.875 C-1 32 -1 32 -4 34 C-8.63278267 34.82418418 -12.02726907 34.59554955 -16.0625 32.125 C-18.77720094 27.7464501 -19.04774909 24.02424565 -18 19 C-15.47323961 15.65374976 -13.96066458 14.32022153 -10 13 C-7.93854893 12.931009 -5.87498599 12.91532273 -3.8125 12.9375 C-2.18248047 12.95103516 -2.18248047 12.95103516 -0.51953125 12.96484375 C0.31191406 12.97644531 1.14335938 12.98804688 2 13 C1.74438677 10.6568787 1.40729228 8.32156597 1 6 C-1.28705831 4.85647084 -2.59264762 4.89665561 -5.125 4.9375 C-6.40375 4.958125 -7.6825 4.97875 -9 5 C-9.66 6.32 -10.32 7.64 -11 9 C-12.98 9 -14.96 9 -17 9 C-16.80037128 5.40668306 -16.21261372 4.20171045 -13.5625 1.6875 C-8.89113477 -0.52525195 -5.08569875 -0.70587458 0 0 Z " fill="#151515" transform="translate(1657,206)"/>
<path d="M0 0 C23.37210648 0 23.37210648 0 30.4375 5.4375 C34.92243642 9.92243642 35.29353967 13.04225017 35.3125 19.375 C35.32925781 20.66148437 35.34601563 21.94796875 35.36328125 23.2734375 C34.73268688 29.74211527 31.91260852 33.86894283 27 38 C20 41 20 41 0 41 C0 27.47 0 13.94 0 0 Z M5 5 C5 15.23 5 25.46 5 36 C17.26539742 36.85514651 17.26539742 36.85514651 26.6796875 31.59765625 C30.28398124 26.96861233 30.80176887 22.68195769 30.5546875 16.8828125 C29.69867312 12.43394904 27.64402312 9.64013822 24 7 C17.73108186 4.13342176 17.73108186 4.13342176 5 5 Z " fill="#0A0A0A" transform="translate(123,458)"/>
<path d="M0 0 C3.00933151 0.63098887 4.80643684 2.27518684 6.9375 4.40625 C7.618125 3.74625 8.29875 3.08625 9 2.40625 C12.71948762 -0.1261671 14.513684 -0.29224726 18.9375 0.40625 C23.18321729 2.58354092 23.18321729 2.58354092 24.9375 5.40625 C25.69618238 10.19199229 25.50021282 14.88875483 25.3125 19.71875 C25.27189453 21.68811523 25.27189453 21.68811523 25.23046875 23.69726562 C25.1598216 26.93525979 25.06120566 30.16991958 24.9375 33.40625 C23.2875 33.40625 21.6375 33.40625 19.9375 33.40625 C19.907771 32.24053467 19.907771 32.24053467 19.87744141 31.05126953 C19.78242991 27.54424309 19.67265441 24.03783206 19.5625 20.53125 C19.5315625 19.30792969 19.500625 18.08460938 19.46875 16.82421875 C19.41074219 15.07431641 19.41074219 15.07431641 19.3515625 13.2890625 C19.3201416 12.21027832 19.2887207 11.13149414 19.25634766 10.02001953 C19.19073678 7.24863346 19.19073678 7.24863346 16.9375 5.40625 C12.87410275 4.93293895 12.87410275 4.93293895 9.27807617 6.56567383 C7.4123023 9.12733276 7.50573178 11.017918 7.42578125 14.16796875 C7.39033203 15.28623047 7.35488281 16.40449219 7.31835938 17.55664062 C7.29580078 18.72388672 7.27324219 19.89113281 7.25 21.09375 C7.21583984 22.27259766 7.18167969 23.45144531 7.14648438 24.66601562 C7.06392075 27.57933225 6.99479678 30.49234466 6.9375 33.40625 C4.9575 33.40625 2.9775 33.40625 0.9375 33.40625 C0.6075 24.49625 0.2775 15.58625 -0.0625 6.40625 C-6.5536133 4.68891214 -6.5536133 4.68891214 -9.46191406 6.99121094 C-11.38512902 9.89304778 -11.59818896 11.58363094 -11.671875 15.046875 C-11.70410156 16.11679688 -11.73632812 17.18671875 -11.76953125 18.2890625 C-11.78371094 19.40023437 -11.79789063 20.51140625 -11.8125 21.65625 C-11.84214844 22.78289062 -11.87179687 23.90953125 -11.90234375 25.0703125 C-11.97298912 27.84903021 -12.02571277 30.62691148 -12.0625 33.40625 C-13.7125 33.40625 -15.3625 33.40625 -17.0625 33.40625 C-17.0625 22.84625 -17.0625 12.28625 -17.0625 1.40625 C-15.4125 1.40625 -13.7625 1.40625 -12.0625 1.40625 C-11.7325 2.39625 -11.4025 3.38625 -11.0625 4.40625 C-10.4025 3.74625 -9.7425 3.08625 -9.0625 2.40625 C-5.68643925 0.15554283 -3.94829901 -0.17946814 0 0 Z " fill="#1C1C1C" transform="translate(1000.0625,205.59375)"/>
<path d="M0 0 C3.4375 2 3.4375 2 6 4 C6.66 3.34 7.32 2.68 8 2 C11.33869458 -0.22579639 13.06438027 -0.49615819 16.9375 -0.62890625 C20.25843401 0.38372704 21.80275532 2.37054342 24 5 C24.56762695 8.13793945 24.56762695 8.13793945 24.48828125 11.61328125 C24.47216797 12.86044922 24.45605469 14.10761719 24.43945312 15.39257812 C24.37661133 17.33293945 24.37661133 17.33293945 24.3125 19.3125 C24.28994141 20.62541016 24.26738281 21.93832031 24.24414062 23.29101562 C24.18527725 26.5285013 24.10308804 29.76367 24 33 C22.35 33 20.7 33 19 33 C18.970271 31.83428467 18.970271 31.83428467 18.93994141 30.64501953 C18.84492991 27.13799309 18.73515441 23.63158206 18.625 20.125 C18.5940625 18.90167969 18.563125 17.67835938 18.53125 16.41796875 C18.47324219 14.66806641 18.47324219 14.66806641 18.4140625 12.8828125 C18.3826416 11.80402832 18.3512207 10.72524414 18.31884766 9.61376953 C18.25323678 6.84238346 18.25323678 6.84238346 16 5 C12.60402937 4.78323592 10.24221555 4.91926148 7 6 C6.67 14.91 6.34 23.82 6 33 C4.02 33 2.04 33 0 33 C-0.33 24.09 -0.66 15.18 -1 6 C-7.4911133 4.28266214 -7.4911133 4.28266214 -10.39941406 6.58496094 C-12.32262902 9.48679778 -12.53568896 11.17738094 -12.609375 14.640625 C-12.64160156 15.71054688 -12.67382812 16.78046875 -12.70703125 17.8828125 C-12.72121094 18.99398437 -12.73539063 20.10515625 -12.75 21.25 C-12.77964844 22.37664062 -12.80929687 23.50328125 -12.83984375 24.6640625 C-12.91048912 27.44278021 -12.96321277 30.22066148 -13 33 C-14.65 33 -16.3 33 -18 33 C-18 22.44 -18 11.88 -18 1 C-16.35 1 -14.7 1 -13 1 C-12.67 1.99 -12.34 2.98 -12 4 C-11.319375 3.34 -10.63875 2.68 -9.9375 2 C-6.23305758 -0.52217356 -4.40834824 -0.61871554 0 0 Z " fill="#1B1B1B" transform="translate(1421,206)"/>
<path d="M0 0 C3.4375 2 3.4375 2 6 4 C6.66 3.34 7.32 2.68 8 2 C11.33869458 -0.22579639 13.06438027 -0.49615819 16.9375 -0.62890625 C20.25843401 0.38372704 21.80275532 2.37054342 24 5 C24.56762695 8.13793945 24.56762695 8.13793945 24.48828125 11.61328125 C24.47216797 12.86044922 24.45605469 14.10761719 24.43945312 15.39257812 C24.37661133 17.33293945 24.37661133 17.33293945 24.3125 19.3125 C24.28994141 20.62541016 24.26738281 21.93832031 24.24414062 23.29101562 C24.18527725 26.5285013 24.10308804 29.76367 24 33 C22.35 33 20.7 33 19 33 C18.970271 31.83428467 18.970271 31.83428467 18.93994141 30.64501953 C18.84492991 27.13799309 18.73515441 23.63158206 18.625 20.125 C18.5940625 18.90167969 18.563125 17.67835938 18.53125 16.41796875 C18.47324219 14.66806641 18.47324219 14.66806641 18.4140625 12.8828125 C18.3826416 11.80402832 18.3512207 10.72524414 18.31884766 9.61376953 C18.25323678 6.84238346 18.25323678 6.84238346 16 5 C12.60402937 4.78323592 10.24221555 4.91926148 7 6 C6.67 14.91 6.34 23.82 6 33 C4.02 33 2.04 33 0 33 C-0.33 24.09 -0.66 15.18 -1 6 C-7.4911133 4.28266214 -7.4911133 4.28266214 -10.39941406 6.58496094 C-12.32262902 9.48679778 -12.53568896 11.17738094 -12.609375 14.640625 C-12.64160156 15.71054688 -12.67382812 16.78046875 -12.70703125 17.8828125 C-12.72121094 18.99398437 -12.73539063 20.10515625 -12.75 21.25 C-12.77964844 22.37664062 -12.80929687 23.50328125 -12.83984375 24.6640625 C-12.91048912 27.44278021 -12.96321277 30.22066148 -13 33 C-14.65 33 -16.3 33 -18 33 C-18 22.44 -18 11.88 -18 1 C-16.35 1 -14.7 1 -13 1 C-12.67 1.99 -12.34 2.98 -12 4 C-11.319375 3.34 -10.63875 2.68 -9.9375 2 C-6.23305758 -0.52217356 -4.40834824 -0.61871554 0 0 Z " fill="#1B1B1B" transform="translate(1221,206)"/>
<path d="M0 0 C3.4375 2 3.4375 2 6 4 C6.66 3.34 7.32 2.68 8 2 C11.33869458 -0.22579639 13.06438027 -0.49615819 16.9375 -0.62890625 C20.25843401 0.38372704 21.80275532 2.37054342 24 5 C24.56762695 8.13793945 24.56762695 8.13793945 24.48828125 11.61328125 C24.47216797 12.86044922 24.45605469 14.10761719 24.43945312 15.39257812 C24.37661133 17.33293945 24.37661133 17.33293945 24.3125 19.3125 C24.28994141 20.62541016 24.26738281 21.93832031 24.24414062 23.29101562 C24.18527725 26.5285013 24.10308804 29.76367 24 33 C22.35 33 20.7 33 19 33 C18.970271 31.83428467 18.970271 31.83428467 18.93994141 30.64501953 C18.84492991 27.13799309 18.73515441 23.63158206 18.625 20.125 C18.5940625 18.90167969 18.563125 17.67835938 18.53125 16.41796875 C18.47324219 14.66806641 18.47324219 14.66806641 18.4140625 12.8828125 C18.3826416 11.80402832 18.3512207 10.72524414 18.31884766 9.61376953 C18.25323678 6.84238346 18.25323678 6.84238346 16 5 C12.60402937 4.78323592 10.24221555 4.91926148 7 6 C6.67 14.91 6.34 23.82 6 33 C4.02 33 2.04 33 0 33 C-0.33 24.09 -0.66 15.18 -1 6 C-7.4911133 4.28266214 -7.4911133 4.28266214 -10.39941406 6.58496094 C-12.32262902 9.48679778 -12.53568896 11.17738094 -12.609375 14.640625 C-12.64160156 15.71054688 -12.67382812 16.78046875 -12.70703125 17.8828125 C-12.72121094 18.99398437 -12.73539063 20.10515625 -12.75 21.25 C-12.77964844 22.37664062 -12.80929687 23.50328125 -12.83984375 24.6640625 C-12.91048912 27.44278021 -12.96321277 30.22066148 -13 33 C-14.65 33 -16.3 33 -18 33 C-18 22.44 -18 11.88 -18 1 C-16.35 1 -14.7 1 -13 1 C-12.67 1.99 -12.34 2.98 -12 4 C-11.319375 3.34 -10.63875 2.68 -9.9375 2 C-6.23305758 -0.52217356 -4.40834824 -0.61871554 0 0 Z " fill="#1B1B1B" transform="translate(781,206)"/>
<path d="M0 0 C3.36417982 2.3471022 4.90113013 4.16484719 6.6875 7.875 C6.6875 10.845 6.6875 13.815 6.6875 16.875 C-0.5725 16.875 -7.8325 16.875 -15.3125 16.875 C-14.89717123 23.37776388 -14.89717123 23.37776388 -12.6875 26.3125 C-9.3507229 28.50774809 -7.22701456 28.43421637 -3.3125 27.875 C-1.95941687 26.56171343 -0.62379922 25.23000919 0.6875 23.875 C3.4375 24.125 3.4375 24.125 5.6875 24.875 C4.7842987 28.2168448 4.02397374 29.63105654 1.1875 31.6875 C-4.37779987 33.57572674 -9.77783023 33.95358288 -15.25 31.625 C-18.67580454 28.71825675 -20.46719052 26.28108215 -21.3125 21.875 C-22.29937102 8.44708287 -22.29937102 8.44708287 -19.625 4.1875 C-13.6886794 -1.7488206 -7.90990871 -2.68638409 0 0 Z " fill="#121212" transform="translate(1389.3125,207.125)"/>
<path d="M0 0 C3.36417982 2.3471022 4.90113013 4.16484719 6.6875 7.875 C6.6875 10.845 6.6875 13.815 6.6875 16.875 C-0.5725 16.875 -7.8325 16.875 -15.3125 16.875 C-14.89717123 23.37776388 -14.89717123 23.37776388 -12.6875 26.3125 C-9.3507229 28.50774809 -7.22701456 28.43421637 -3.3125 27.875 C-1.95941687 26.56171343 -0.62379922 25.23000919 0.6875 23.875 C3.4375 24.125 3.4375 24.125 5.6875 24.875 C4.7842987 28.2168448 4.02397374 29.63105654 1.1875 31.6875 C-4.37779987 33.57572674 -9.77783023 33.95358288 -15.25 31.625 C-18.67580454 28.71825675 -20.46719052 26.28108215 -21.3125 21.875 C-22.29937102 8.44708287 -22.29937102 8.44708287 -19.625 4.1875 C-13.6886794 -1.7488206 -7.90990871 -2.68638409 0 0 Z " fill="#121212" transform="translate(1189.3125,207.125)"/>
<path d="M0 0 C3.36417982 2.3471022 4.90113013 4.16484719 6.6875 7.875 C6.6875 10.845 6.6875 13.815 6.6875 16.875 C-0.5725 16.875 -7.8325 16.875 -15.3125 16.875 C-14.89717123 23.37776388 -14.89717123 23.37776388 -12.6875 26.3125 C-9.3507229 28.50774809 -7.22701456 28.43421637 -3.3125 27.875 C-1.95941687 26.56171343 -0.62379922 25.23000919 0.6875 23.875 C3.4375 24.125 3.4375 24.125 5.6875 24.875 C4.7842987 28.2168448 4.02397374 29.63105654 1.1875 31.6875 C-4.37779987 33.57572674 -9.77783023 33.95358288 -15.25 31.625 C-18.67580454 28.71825675 -20.46719052 26.28108215 -21.3125 21.875 C-22.29937102 8.44708287 -22.29937102 8.44708287 -19.625 4.1875 C-13.6886794 -1.7488206 -7.90990871 -2.68638409 0 0 Z " fill="#121212" transform="translate(749.3125,207.125)"/>
<path d="M0 0 C3.36417982 2.3471022 4.90113013 4.16484719 6.6875 7.875 C6.6875 10.845 6.6875 13.815 6.6875 16.875 C-0.5725 16.875 -7.8325 16.875 -15.3125 16.875 C-14.89717123 23.37776388 -14.89717123 23.37776388 -12.6875 26.3125 C-9.3507229 28.50774809 -7.22701456 28.43421637 -3.3125 27.875 C-1.95941687 26.56171343 -0.62379922 25.23000919 0.6875 23.875 C3.4375 24.125 3.4375 24.125 5.6875 24.875 C4.7842987 28.2168448 4.02397374 29.63105654 1.1875 31.6875 C-3.4770577 33.27011779 -7.45370225 33.94229351 -12.3125 32.875 C-16.50538954 30.30162262 -19.73952236 27.59393292 -21.3125 22.875 C-21.48491708 20.44137528 -21.57915768 18.00179404 -21.625 15.5625 C-21.66238281 14.26699219 -21.69976563 12.97148437 -21.73828125 11.63671875 C-21.15007734 6.44001811 -19.05593288 3.36937104 -15.125 0 C-9.95914671 -2.06634131 -5.22081388 -1.7731066 0 0 Z " fill="#121212" transform="translate(969.3125,207.125)"/>
<path d="M0 0 C3.36417982 2.3471022 4.90113013 4.16484719 6.6875 7.875 C6.6875 10.845 6.6875 13.815 6.6875 16.875 C-0.5725 16.875 -7.8325 16.875 -15.3125 16.875 C-14.85012064 23.34546389 -14.85012064 23.34546389 -12.8125 26.375 C-9.44542213 28.39524672 -7.14513922 27.98925692 -3.3359375 27.52734375 C-0.93711133 26.98543343 -0.93711133 26.98543343 0.6875 23.875 C2.3375 24.205 3.9875 24.535 5.6875 24.875 C4.7842987 28.2168448 4.02397374 29.63105654 1.1875 31.6875 C-4.34431641 33.56436628 -9.63472527 33.8063999 -15.1875 31.875 C-19.14568786 28.14964672 -21.0174528 24.34683989 -21.6640625 18.9296875 C-21.83101324 12.87392884 -21.55049144 8.05578631 -18.3125 2.875 C-12.74887858 -2.29121989 -6.90604781 -2.3454502 0 0 Z " fill="#121212" transform="translate(185.3125,467.125)"/>
<path d="M0 0 C4.40617281 2.16303029 7.1644597 4.41114924 9 9 C9 11.97 9 14.94 9 18 C1.74 18 -5.52 18 -13 18 C-12.58467123 24.50276388 -12.58467123 24.50276388 -10.375 27.4375 C-7.0382229 29.63274809 -4.91451456 29.55921637 -1 29 C0.35308313 27.68671343 1.68870078 26.35500919 3 25 C5.75 25.25 5.75 25.25 8 26 C7.0967987 29.3418448 6.33647374 30.75605654 3.5 32.8125 C-2.03181641 34.68936628 -7.32222527 34.9313999 -12.875 33 C-16.83318786 29.27464672 -18.7049528 25.47183989 -19.3515625 20.0546875 C-19.51851324 13.99892884 -19.23799144 9.18078631 -16 4 C-11.21210272 -0.55434131 -6.31040018 -1.01582052 0 0 Z " fill="#111111" transform="translate(2002,66)"/>
<path d="M0 0 C3.85554931 1.30943184 5.64640284 2.60918209 8.375 5.625 C10 9 10 9 10 18 C2.74 18 -4.52 18 -12 18 C-11.58467123 24.50276388 -11.58467123 24.50276388 -9.375 27.4375 C-6.0382229 29.63274809 -3.91451456 29.55921637 0 29 C1.35308313 27.68671343 2.68870078 26.35500919 4 25 C6.75 25.25 6.75 25.25 9 26 C8.0967987 29.3418448 7.33647374 30.75605654 4.5 32.8125 C-1.03181641 34.68936628 -6.32222527 34.9313999 -11.875 33 C-15.61559505 29.47943995 -17.6677796 25.62495127 -18.31640625 20.5 C-18.46649984 13.93590685 -17.94320206 8.23468237 -13.5 3.125 C-9.13299356 -0.58695547 -5.56402606 -0.50667354 0 0 Z " fill="#121212" transform="translate(349,466)"/>
<path d="M0 0 C4.40617281 2.16303029 7.1644597 4.41114924 9 9 C9 11.97 9 14.94 9 18 C1.74 18 -5.52 18 -13 18 C-11.60764647 25.19433044 -11.60764647 25.19433044 -9.8125 28 C-6.76072611 29.68373732 -4.41212983 29.40482896 -1 29 C1.02951535 27.71203834 3.03501678 26.38442 5 25 C5.99 25.33 6.98 25.66 8 26 C7.07349738 29.42805969 6.33885367 30.76602961 3.375 32.8125 C-1.54100455 34.5422053 -5.55058565 34.56963124 -10.6875 33.375 C-14.43119364 31.14902 -17.04436123 27.91127755 -19 24 C-19.93739328 12.01365965 -19.93739328 12.01365965 -17.3125 6.375 C-16.549375 5.59125 -15.78625 4.8075 -15 4 C-13.948125 2.824375 -13.948125 2.824375 -12.875 1.625 C-8.61227024 -0.78436899 -4.78472426 -0.75911491 0 0 Z " fill="#101010" transform="translate(283,466)"/>
<path d="M0 0 C10.23 0 20.46 0 31 0 C31 1.65 31 3.3 31 5 C22.42 5 13.84 5 5 5 C5 8.96 5 12.92 5 17 C12.92 17 20.84 17 29 17 C29 18.65 29 20.3 29 22 C21.08 22 13.16 22 5 22 C5 26.62 5 31.24 5 36 C13.91 36 22.82 36 32 36 C32 37.65 32 39.3 32 41 C21.44 41 10.88 41 0 41 C0 27.47 0 13.94 0 0 Z " fill="#030303" transform="translate(1845,58)"/>
<path d="M0 0 C5.11762818 2.65358498 8.17705942 5.53117826 10 11 C10 13.31 10 15.62 10 18 C2.41 18 -5.18 18 -13 18 C-10.96896279 26.32917961 -10.96896279 26.32917961 -8 29 C-3.77892205 29.47785788 -1.77394881 29.60810264 1.625 26.9375 C2.800625 25.9784375 2.800625 25.9784375 4 25 C6.8125 25.25 6.8125 25.25 9 26 C7.47255894 30.27683498 4.99924698 32.00037651 1 34 C-4.01272948 34.81375479 -7.83046822 34.55286957 -12.4375 32.375 C-16.29548643 28.79930526 -17.83270578 25.54993176 -18.3984375 20.30859375 C-18.38683594 18.39240234 -18.38683594 18.39240234 -18.375 16.4375 C-18.38273437 15.15746094 -18.39046875 13.87742187 -18.3984375 12.55859375 C-17.82964713 7.47851507 -16.16066487 5.02249048 -12.375 1.6875 C-8.06540114 -0.46729943 -4.73160284 -0.8479575 0 0 Z " fill="#101010" transform="translate(2068,66)"/>
<path d="M0 0 C9.57 0 19.14 0 29 0 C29 1.65 29 3.3 29 5 C21.08 5 13.16 5 5 5 C5 9.95 5 14.9 5 20 C12.92 20 20.84 20 29 20 C29 21.65 29 23.3 29 25 C21.08 25 13.16 25 5 25 C5 30.28 5 35.56 5 41 C3.35 41 1.7 41 0 41 C0 27.47 0 13.94 0 0 Z " fill="#060606" transform="translate(405,198)"/>
<path d="M0 0 C1.98 0 3.96 0 6 0 C6.33 9.24 6.66 18.48 7 28 C14.42789679 28.68376347 14.42789679 28.68376347 17.94921875 26.23828125 C21.02481103 21.38177459 20.78149119 16.82765731 20.8125 11.1875 C20.83763672 10.11306641 20.86277344 9.03863281 20.88867188 7.93164062 C20.94743295 5.28739229 20.98379376 2.64479512 21 0 C22.65 0 24.3 0 26 0 C26 10.56 26 21.12 26 32 C24.35 32 22.7 32 21 32 C20.67 30.68 20.34 29.36 20 28 C19.360625 28.825 18.72125 29.65 18.0625 30.5 C14.45660019 33.44359168 12.67638858 33.74470137 8.15625 33.49609375 C4.67250002 32.69457881 3.08081779 30.7960989 1 28 C-0.0592918 24.82212459 -0.11458939 22.57411057 -0.09765625 19.23828125 C-0.09443359 18.12001953 -0.09121094 17.00175781 -0.08789062 15.84960938 C-0.07951172 14.68236328 -0.07113281 13.51511719 -0.0625 12.3125 C-0.05573242 10.54422852 -0.05573242 10.54422852 -0.04882812 8.74023438 C-0.03703273 5.82677211 -0.0205727 2.91341137 0 0 Z " fill="#1D1D1D" transform="translate(2017,67)"/>
<path d="M0 0 C3.53851289 2.70260332 4.85966898 4.15062802 5.59375 8.59375 C5.54734375 10.52734375 5.54734375 10.52734375 5.5 12.5 C5.4896875 13.7890625 5.479375 15.078125 5.46875 16.40625 C4.98147687 20.14201064 4.40115902 22.11538614 2 25 C-0.96963664 26.18676087 -3.82704831 26.30409844 -7 26 C-10.07049877 23.85065086 -10.81691629 22.54925112 -12 19 C-12.44891421 13.02839707 -12.2126567 7.58986957 -10 2 C-6.24952518 -0.50031654 -4.44143734 -0.53603554 0 0 Z " fill="#F7F7F7" transform="translate(477,210)"/>
<path d="M0 0 C3.49079112 0.96235851 4.99325018 2.87516595 7.28125 5.62890625 C7.84887695 8.7668457 7.84887695 8.7668457 7.76953125 12.2421875 C7.75341797 13.48935547 7.73730469 14.73652344 7.72070312 16.02148438 C7.67880859 17.31505859 7.63691406 18.60863281 7.59375 19.94140625 C7.57119141 21.25431641 7.54863281 22.56722656 7.52539062 23.91992188 C7.46652725 27.15740755 7.38433804 30.39257625 7.28125 33.62890625 C5.63125 33.62890625 3.98125 33.62890625 2.28125 33.62890625 C2.28125 24.71890625 2.28125 15.80890625 2.28125 6.62890625 C-1.34203619 5.42114419 -3.91486527 5.22849733 -7.71875 5.62890625 C-10.43747801 7.85953228 -11.57259488 9.71349989 -12.12866211 13.19628906 C-12.33717656 16.28240496 -12.42718517 19.3486051 -12.46875 22.44140625 C-12.49839844 23.51583984 -12.52804687 24.59027344 -12.55859375 25.69726562 C-12.62909921 28.34122052 -12.68189143 30.98430355 -12.71875 33.62890625 C-14.36875 33.62890625 -16.01875 33.62890625 -17.71875 33.62890625 C-17.71875 23.06890625 -17.71875 12.50890625 -17.71875 1.62890625 C-16.06875 1.62890625 -14.41875 1.62890625 -12.71875 1.62890625 C-12.38875 2.61890625 -12.05875 3.60890625 -11.71875 4.62890625 C-11.079375 3.96890625 -10.44 3.30890625 -9.78125 2.62890625 C-6.21834874 0.30211359 -4.13686828 0.12381472 0 0 Z " fill="#111111" transform="translate(511.71875,205.37109375)"/>
<path d="M0 0 C1.65 0 3.3 0 5 0 C5.01981934 0.74161377 5.03963867 1.48322754 5.06005859 2.24731445 C5.15522928 5.60273834 5.26494094 8.95753286 5.375 12.3125 C5.4059375 13.47974609 5.436875 14.64699219 5.46875 15.84960938 C5.50742188 16.96787109 5.54609375 18.08613281 5.5859375 19.23828125 C5.6173584 20.26993408 5.6487793 21.30158691 5.68115234 22.36450195 C5.82674629 25.22843236 5.82674629 25.22843236 8 28 C11.38653643 28.44172214 13.3215904 28.38504329 16.3125 26.6875 C19.1975179 23.8024821 19.15931588 20.77690758 19.31640625 16.89453125 C19.35830078 15.91162109 19.40019531 14.92871094 19.44335938 13.91601562 C19.48267578 12.89185547 19.52199219 11.86769531 19.5625 10.8125 C19.60568359 9.77673828 19.64886719 8.74097656 19.69335938 7.67382812 C19.79944366 5.1160181 19.90150146 2.55811155 20 0 C21.65 0 23.3 0 25 0 C25 10.56 25 21.12 25 32 C23.35 32 21.7 32 20 32 C19.67 31.01 19.34 30.02 19 29 C18.566875 29.474375 18.13375 29.94875 17.6875 30.4375 C14.56516516 33.32855078 11.05604965 33.33082307 6.9375 33.29296875 C5 33 5 33 2.5625 31.125 C-0.09783175 27.50694883 -0.11855771 25.37134923 -0.09765625 20.8984375 C-0.09443359 19.68671875 -0.09121094 18.475 -0.08789062 17.2265625 C-0.07951172 15.95554687 -0.07113281 14.68453125 -0.0625 13.375 C-0.05798828 12.09625 -0.05347656 10.8175 -0.04882812 9.5 C-0.03701203 6.33328708 -0.02053815 3.16666644 0 0 Z " fill="#0F0F0F" transform="translate(1951,67)"/>
<path d="M0 0 C1.65 0 3.3 0 5 0 C5.01981934 0.77714355 5.03963867 1.55428711 5.06005859 2.35498047 C5.15507009 5.86200691 5.26484559 9.36841794 5.375 12.875 C5.4059375 14.09832031 5.436875 15.32164062 5.46875 16.58203125 C5.50742187 17.74863281 5.54609375 18.91523438 5.5859375 20.1171875 C5.6173584 21.19597168 5.6487793 22.27475586 5.68115234 23.38623047 C5.74676322 26.15761654 5.74676322 26.15761654 8 28 C11.77618086 28.58740591 13.45858701 28.36573326 16.6484375 26.2109375 C20.14992006 21.42984337 19.78069314 16.97281398 19.8125 11.1875 C19.83763672 10.11306641 19.86277344 9.03863281 19.88867188 7.93164062 C19.94743295 5.28739229 19.98379376 2.64479512 20 0 C21.65 0 23.3 0 25 0 C25 10.56 25 21.12 25 32 C23.35 32 21.7 32 20 32 C19.67 31.01 19.34 30.02 19 29 C18.360625 29.66 17.72125 30.32 17.0625 31 C13.00662863 33.64873232 9.73077787 33.9019427 5 33 C2.49839182 31.12379387 1.38054348 29.76108697 0 27 C-0.08527628 24.96767366 -0.10716135 22.93252994 -0.09765625 20.8984375 C-0.09443359 19.68671875 -0.09121094 18.475 -0.08789062 17.2265625 C-0.07951172 15.95554687 -0.07113281 14.68453125 -0.0625 13.375 C-0.05798828 12.09625 -0.05347656 10.8175 -0.04882812 9.5 C-0.03701203 6.33328708 -0.02053815 3.16666644 0 0 Z " fill="#0E0E0E" transform="translate(299,467)"/>
<path d="M0 0 C4.56944444 2.13888889 4.56944444 2.13888889 6 5 C6.08543895 7.10528933 6.10714725 9.21331157 6.09765625 11.3203125 C6.09443359 12.57714844 6.09121094 13.83398438 6.08789062 15.12890625 C6.07951172 16.44761719 6.07113281 17.76632813 6.0625 19.125 C6.05748489 20.46484211 6.05292201 21.804686 6.04882812 23.14453125 C6.03701086 26.42973206 6.02053617 29.71484397 6 33 C4.35 33 2.7 33 1 33 C1 24.09 1 15.18 1 6 C-2.62328619 4.79223794 -5.19611527 4.59959108 -9 5 C-11.71872801 7.23062603 -12.85384488 9.08459364 -13.40991211 12.56738281 C-13.61842656 15.65349871 -13.70843517 18.71969885 -13.75 21.8125 C-13.77964844 22.88693359 -13.80929687 23.96136719 -13.83984375 25.06835938 C-13.91034921 27.71231427 -13.96314143 30.3553973 -14 33 C-15.65 33 -17.3 33 -19 33 C-19 22.44 -19 11.88 -19 1 C-17.35 1 -15.7 1 -14 1 C-13.67 1.99 -13.34 2.98 -13 4 C-12.34 3.34 -11.68 2.68 -11 2 C-7.17462812 -0.55024792 -4.47606377 -0.76861701 0 0 Z " fill="#111111" transform="translate(1903,66)"/>
<path d="M0 0 C1.65 0 3.3 0 5 0 C5.01981934 0.77714355 5.03963867 1.55428711 5.06005859 2.35498047 C5.15507009 5.86200691 5.26484559 9.36841794 5.375 12.875 C5.4059375 14.09832031 5.436875 15.32164062 5.46875 16.58203125 C5.50742188 17.74863281 5.54609375 18.91523438 5.5859375 20.1171875 C5.6173584 21.19597168 5.6487793 22.27475586 5.68115234 23.38623047 C5.74676322 26.15761654 5.74676322 26.15761654 8 28 C11.41538144 28.58369443 11.41538144 28.58369443 15 28 C17.71954684 25.76782715 18.85359682 23.91741919 19.40966797 20.43286133 C19.61842689 17.34664902 19.70843367 14.28041301 19.75 11.1875 C19.79447266 9.57584961 19.79447266 9.57584961 19.83984375 7.93164062 C19.91034921 5.28768573 19.96314143 2.6446027 20 0 C21.65 0 23.3 0 25 0 C25 10.56 25 21.12 25 32 C23.35 32 21.7 32 20 32 C19.67 31.01 19.34 30.02 19 29 C18.360625 29.66 17.72125 30.32 17.0625 31 C13.5130738 33.31799262 11.40195445 33.5379387 7.28125 33.7265625 C4.47793256 32.8337251 2.76765626 31.51817752 0.97705078 29.18408203 C-1.24848279 24.20916366 -0.49302612 18.45746371 -0.3125 13.125 C-0.28994141 11.86429687 -0.26738281 10.60359375 -0.24414062 9.3046875 C-0.18537581 6.20190501 -0.10325851 3.10156801 0 0 Z " fill="#121212" transform="translate(232,467)"/>
<path d="M0 0 C3.98065806 0.38275558 5.45425264 1.51675264 8.25 4.3125 C9.34697531 7.60342594 9.4871983 10.22362159 9.5625 13.6875 C9.59988281 14.80898438 9.63726562 15.93046875 9.67578125 17.0859375 C9.16371636 20.96635586 7.95908823 22.54812425 5.25 25.3125 C2.45129973 26.71185013 0.34501208 26.56515405 -2.75 26.3125 C-5.30949546 24.45907225 -5.72918798 23.37493607 -6.75 20.3125 C-6.89619515 18.02398355 -6.97091336 15.73049684 -7 13.4375 C-7.03867188 11.61605469 -7.03867188 11.61605469 -7.078125 9.7578125 C-6.61970493 4.94440175 -5.12073108 0.58190126 0 0 Z " fill="#F6F6F6" transform="translate(209.75,469.6875)"/>
<path d="M0 0 C10.89 0 21.78 0 33 0 C33 1.65 33 3.3 33 5 C28.38 5 23.76 5 19 5 C19 16.88 19 28.76 19 41 C17.35 41 15.7 41 14 41 C14 29.12 14 17.24 14 5 C9.38 5 4.76 5 0 5 C0 3.35 0 1.7 0 0 Z " fill="#030303" transform="translate(1608,198)"/>
<path d="M0 0 C4.05783896 0.47739282 5.40198199 1.39417021 8.1875 4.375 C8.70154955 7.41998764 8.89007878 9.78434163 8.8125 12.8125 C8.83183594 13.56337891 8.85117188 14.31425781 8.87109375 15.08789062 C8.83408008 19.29634435 8.52001029 20.95064827 5.83984375 24.37109375 C3.1875 26.375 3.1875 26.375 0.125 27 C-2.8125 26.375 -2.8125 26.375 -4.97265625 24.23828125 C-7.16576857 20.8252211 -7.29166835 18.95745126 -7.1875 14.9375 C-7.17460938 13.84566406 -7.16171875 12.75382812 -7.1484375 11.62890625 C-6.60390839 6.35457198 -5.99999092 0.79999879 0 0 Z " fill="#FAFAFA" transform="translate(1928.8125,69.625)"/>
<path d="M0 0 C1.32 0 2.64 0 4 0 C4 2.31 4 4.62 4 7 C5.65 7 7.3 7 9 7 C9 8.32 9 9.64 9 11 C7.35 11 5.7 11 4 11 C4.33 18.92 4.66 26.84 5 35 C6.65 35.33 8.3 35.66 10 36 C10 37.32 10 38.64 10 40 C2.5184669 40.36794425 2.5184669 40.36794425 0.0625 38.625 C-2.03350362 35.4193474 -2.11775069 33.37263033 -2.09765625 29.5546875 C-2.09443359 28.47832031 -2.09121094 27.40195313 -2.08789062 26.29296875 C-2.07951172 25.16503906 -2.07113281 24.03710938 -2.0625 22.875 C-2.05798828 21.73933594 -2.05347656 20.60367188 -2.04882812 19.43359375 C-2.03701615 16.62234362 -2.02054507 13.8111977 -2 11 C-2.99 11 -3.98 11 -5 11 C-5 9.68 -5 8.36 -5 7 C-3.68 7 -2.36 7 -1 7 C-0.67 4.69 -0.34 2.38 0 0 Z " fill="#191919" transform="translate(1355,200)"/>
<path d="M0 0 C1.32 0 2.64 0 4 0 C4 2.31 4 4.62 4 7 C5.65 7 7.3 7 9 7 C9 8.32 9 9.64 9 11 C7.35 11 5.7 11 4 11 C4.33 18.92 4.66 26.84 5 35 C6.65 35.33 8.3 35.66 10 36 C10 37.32 10 38.64 10 40 C2.5184669 40.36794425 2.5184669 40.36794425 0.0625 38.625 C-2.03350362 35.4193474 -2.11775069 33.37263033 -2.09765625 29.5546875 C-2.09443359 28.47832031 -2.09121094 27.40195313 -2.08789062 26.29296875 C-2.07951172 25.16503906 -2.07113281 24.03710938 -2.0625 22.875 C-2.05798828 21.73933594 -2.05347656 20.60367188 -2.04882812 19.43359375 C-2.03701615 16.62234362 -2.02054507 13.8111977 -2 11 C-2.99 11 -3.98 11 -5 11 C-5 9.68 -5 8.36 -5 7 C-3.68 7 -2.36 7 -1 7 C-0.67 4.69 -0.34 2.38 0 0 Z " fill="#191919" transform="translate(1155,200)"/>
<path d="M0 0 C1.32 0 2.64 0 4 0 C4 2.31 4 4.62 4 7 C5.65 7 7.3 7 9 7 C9 8.32 9 9.64 9 11 C7.35 11 5.7 11 4 11 C4.33 18.92 4.66 26.84 5 35 C6.65 35.33 8.3 35.66 10 36 C10 37.32 10 38.64 10 40 C2.5184669 40.36794425 2.5184669 40.36794425 0.0625 38.625 C-2.03350362 35.4193474 -2.11775069 33.37263033 -2.09765625 29.5546875 C-2.09443359 28.47832031 -2.09121094 27.40195313 -2.08789062 26.29296875 C-2.07951172 25.16503906 -2.07113281 24.03710938 -2.0625 22.875 C-2.05798828 21.73933594 -2.05347656 20.60367188 -2.04882812 19.43359375 C-2.03701615 16.62234362 -2.02054507 13.8111977 -2 11 C-2.99 11 -3.98 11 -5 11 C-5 9.68 -5 8.36 -5 7 C-3.68 7 -2.36 7 -1 7 C-0.67 4.69 -0.34 2.38 0 0 Z " fill="#191919" transform="translate(935,200)"/>
<path d="M0 0 C1.32 0 2.64 0 4 0 C4 2.31 4 4.62 4 7 C5.65 7 7.3 7 9 7 C9 8.32 9 9.64 9 11 C7.35 11 5.7 11 4 11 C4.33 18.92 4.66 26.84 5 35 C6.65 35.33 8.3 35.66 10 36 C10 37.32 10 38.64 10 40 C2.5184669 40.36794425 2.5184669 40.36794425 0.0625 38.625 C-2.03350362 35.4193474 -2.11775069 33.37263033 -2.09765625 29.5546875 C-2.09443359 28.47832031 -2.09121094 27.40195313 -2.08789062 26.29296875 C-2.07951172 25.16503906 -2.07113281 24.03710938 -2.0625 22.875 C-2.05798828 21.73933594 -2.05347656 20.60367188 -2.04882812 19.43359375 C-2.03701615 16.62234362 -2.02054507 13.8111977 -2 11 C-2.99 11 -3.98 11 -5 11 C-5 9.68 -5 8.36 -5 7 C-3.68 7 -2.36 7 -1 7 C-0.67 4.69 -0.34 2.38 0 0 Z " fill="#191919" transform="translate(715,200)"/>
<path d="M0 0 C1.32 0 2.64 0 4 0 C4 2.31 4 4.62 4 7 C5.98 7 7.96 7 10 7 C10 8.32 10 9.64 10 11 C8.02 11 6.04 11 4 11 C4.33 18.92 4.66 26.84 5 35 C6.98 35.33 8.96 35.66 11 36 C10.67 37.32 10.34 38.64 10 40 C4.04296875 40.390625 4.04296875 40.390625 2 40 C-0.18732857 37.7463083 -0.95136403 36.39257419 -1.34057617 33.25097656 C-1.32486572 32.22456055 -1.30915527 31.19814453 -1.29296875 30.140625 C-1.2784668 28.46806641 -1.2784668 28.46806641 -1.26367188 26.76171875 C-1.23853516 25.60285156 -1.21339844 24.44398438 -1.1875 23.25 C-1.16719727 21.48849609 -1.16719727 21.48849609 -1.14648438 19.69140625 C-1.1111478 16.79380702 -1.06180979 13.89713573 -1 11 C-2.32 11 -3.64 11 -5 11 C-5 9.68 -5 8.36 -5 7 C-3.68 7 -2.36 7 -1 7 C-0.67 4.69 -0.34 2.38 0 0 Z " fill="#0F0F0F" transform="translate(529,200)"/>
<path d="M0 0 C1.32 0 2.64 0 4 0 C4 14.85 4 29.7 4 45 C2.35 45 0.7 45 -1 45 C-1 39.72 -1 34.44 -1 29 C-1.66 29 -2.32 29 -3 29 C-2.83757812 28.3090625 -2.67515625 27.618125 -2.5078125 26.90625 C-1.95058348 23.71718547 -1.86743847 20.7363363 -1.875 17.5 C-1.87242187 16.3965625 -1.86984375 15.293125 -1.8671875 14.15625 C-1.98674179 11.31507756 -2.35074185 8.76192358 -3 6 C-2.01 6 -1.02 6 0 6 C0 4.02 0 2.04 0 0 Z " fill="#0C0C0C" transform="translate(220,466)"/>
<path d="M0 0 C1.65 0 3.3 0 5 0 C5 14.19 5 28.38 5 43 C3.35 43 1.7 43 0 43 C0 28.81 0 14.62 0 0 Z " fill="#0E0E0E" transform="translate(1687,196)"/>
<path d="M0 0 C0.7425 0.0825 1.485 0.165 2.25 0.25 C2.25 1.9 2.25 3.55 2.25 5.25 C0.579375 5.6521875 0.579375 5.6521875 -1.125 6.0625 C-4.96840951 6.90809019 -4.96840951 6.90809019 -6.75 10.25 C-7.11696181 12.76502177 -7.11696181 12.76502177 -7.1640625 15.57421875 C-7.20273437 16.60224609 -7.24140625 17.63027344 -7.28125 18.68945312 C-7.32765625 20.29723633 -7.32765625 20.29723633 -7.375 21.9375 C-7.41367187 23.02095703 -7.45234375 24.10441406 -7.4921875 25.22070312 C-7.58650509 27.89696467 -7.67210005 30.57321843 -7.75 33.25 C-9.4 33.25 -11.05 33.25 -12.75 33.25 C-12.75 22.69 -12.75 12.13 -12.75 1.25 C-11.1 1.25 -9.45 1.25 -7.75 1.25 C-7.42 2.24 -7.09 3.23 -6.75 4.25 C-6.193125 3.59 -5.63625 2.93 -5.0625 2.25 C-2.75 0.25 -2.75 0.25 0 0 Z " fill="#0B0B0B" transform="translate(453.75,205.75)"/>
<path d="M0 0 C1.65 0 3.3 0 5 0 C5 13.53 5 27.06 5 41 C3.35 41 1.7 41 0 41 C0 27.47 0 13.94 0 0 Z " fill="#070707" transform="translate(1338,198)"/>
<path d="M0 0 C1.65 0 3.3 0 5 0 C5 13.53 5 27.06 5 41 C3.35 41 1.7 41 0 41 C0 27.47 0 13.94 0 0 Z " fill="#070707" transform="translate(1138,198)"/>
<path d="M0 0 C1.65 0 3.3 0 5 0 C5 13.53 5 27.06 5 41 C3.35 41 1.7 41 0 41 C0 27.47 0 13.94 0 0 Z " fill="#070707" transform="translate(918,198)"/>
<path d="M0 0 C1.65 0 3.3 0 5 0 C5 13.53 5 27.06 5 41 C3.35 41 1.7 41 0 41 C0 27.47 0 13.94 0 0 Z " fill="#070707" transform="translate(698,198)"/>
<path d="M0 0 C1.98 0 3.96 0 6 0 C6 10.56 6 21.12 6 32 C4.02 32 2.04 32 0 32 C0 21.44 0 10.88 0 0 Z " fill="#222222" transform="translate(1673,207)"/>
<path d="M0 0 C7.24344527 -0.61385129 7.24344527 -0.61385129 10.609375 2.1171875 C13.50698472 5.61136392 13.59042219 7.13950818 13.48828125 11.61328125 C13.47216797 12.86044922 13.45605469 14.10761719 13.43945312 15.39257812 C13.39755859 16.68615234 13.35566406 17.97972656 13.3125 19.3125 C13.27866211 21.28186523 13.27866211 21.28186523 13.24414062 23.29101562 C13.18527725 26.5285013 13.10308804 29.76367 13 33 C11.35 33 9.7 33 8 33 C7.98018066 32.22285645 7.96036133 31.44571289 7.93994141 30.64501953 C7.84492991 27.13799309 7.73515441 23.63158206 7.625 20.125 C7.5940625 18.90167969 7.563125 17.67835938 7.53125 16.41796875 C7.49257812 15.25136719 7.45390625 14.08476562 7.4140625 12.8828125 C7.36693115 11.26463623 7.36693115 11.26463623 7.31884766 9.61376953 C7.25323678 6.84238346 7.25323678 6.84238346 5 5 C2.67724823 4.59952556 0.34260643 4.2602896 -2 4 C-1.34 2.68 -0.68 1.36 0 0 Z " fill="#0D0D0D" transform="translate(1432,206)"/>
<path d="M0 0 C7.24344527 -0.61385129 7.24344527 -0.61385129 10.609375 2.1171875 C13.50698472 5.61136392 13.59042219 7.13950818 13.48828125 11.61328125 C13.47216797 12.86044922 13.45605469 14.10761719 13.43945312 15.39257812 C13.39755859 16.68615234 13.35566406 17.97972656 13.3125 19.3125 C13.27866211 21.28186523 13.27866211 21.28186523 13.24414062 23.29101562 C13.18527725 26.5285013 13.10308804 29.76367 13 33 C11.35 33 9.7 33 8 33 C7.98018066 32.22285645 7.96036133 31.44571289 7.93994141 30.64501953 C7.84492991 27.13799309 7.73515441 23.63158206 7.625 20.125 C7.5940625 18.90167969 7.563125 17.67835938 7.53125 16.41796875 C7.49257812 15.25136719 7.45390625 14.08476562 7.4140625 12.8828125 C7.36693115 11.26463623 7.36693115 11.26463623 7.31884766 9.61376953 C7.25323678 6.84238346 7.25323678 6.84238346 5 5 C2.67724823 4.59952556 0.34260643 4.2602896 -2 4 C-1.34 2.68 -0.68 1.36 0 0 Z " fill="#0D0D0D" transform="translate(1232,206)"/>
<path d="M0 0 C7.24344527 -0.61385129 7.24344527 -0.61385129 10.609375 2.1171875 C13.50698472 5.61136392 13.59042219 7.13950818 13.48828125 11.61328125 C13.47216797 12.86044922 13.45605469 14.10761719 13.43945312 15.39257812 C13.39755859 16.68615234 13.35566406 17.97972656 13.3125 19.3125 C13.27866211 21.28186523 13.27866211 21.28186523 13.24414062 23.29101562 C13.18527725 26.5285013 13.10308804 29.76367 13 33 C11.35 33 9.7 33 8 33 C7.98018066 32.22285645 7.96036133 31.44571289 7.93994141 30.64501953 C7.84492991 27.13799309 7.73515441 23.63158206 7.625 20.125 C7.5940625 18.90167969 7.563125 17.67835938 7.53125 16.41796875 C7.49257813 15.25136719 7.45390625 14.08476562 7.4140625 12.8828125 C7.36693115 11.26463623 7.36693115 11.26463623 7.31884766 9.61376953 C7.25323678 6.84238346 7.25323678 6.84238346 5 5 C2.67724823 4.59952556 0.34260643 4.2602896 -2 4 C-1.34 2.68 -0.68 1.36 0 0 Z " fill="#0D0D0D" transform="translate(792,206)"/>
<path d="M0 0 C4.09413131 -0.40941313 6.51699404 -0.24384767 10.21875 1.625 C12.57777851 3.71183291 12.98076925 4.87834547 13.47998047 8.03637695 C13.59181473 11.81168528 13.52167358 15.53847608 13.375 19.3125 C13.34792969 20.62541016 13.32085938 21.93832031 13.29296875 23.29101562 C13.2223216 26.52900979 13.12370566 29.76366958 13 33 C11.35 33 9.7 33 8 33 C7.98018066 32.22285645 7.96036133 31.44571289 7.93994141 30.64501953 C7.84492991 27.13799309 7.73515441 23.63158206 7.625 20.125 C7.5940625 18.90167969 7.563125 17.67835938 7.53125 16.41796875 C7.49257813 15.25136719 7.45390625 14.08476562 7.4140625 12.8828125 C7.36693115 11.26463623 7.36693115 11.26463623 7.31884766 9.61376953 C7.25323678 6.84238346 7.25323678 6.84238346 5 5 C2.67724823 4.59952556 0.34260643 4.2602896 -2 4 C-1.34 2.68 -0.68 1.36 0 0 Z " fill="#0D0D0D" transform="translate(1012,206)"/>
<path d="M0 0 C1.65 0 3.3 0 5 0 C5 10.56 5 21.12 5 32 C3.35 32 1.7 32 0 32 C0 30.35 0 28.7 0 27 C-0.66 27 -1.32 27 -2 27 C-1.84152588 26.45182617 -1.68305176 25.90365234 -1.51977539 25.33886719 C-0.9372438 22.71761184 -0.78793845 20.26127447 -0.68359375 17.578125 C-0.64169922 16.55332031 -0.59980469 15.52851562 -0.55664062 14.47265625 C-0.49766602 12.87744141 -0.49766602 12.87744141 -0.4375 11.25 C-0.39431641 10.17105469 -0.35113281 9.09210938 -0.30664062 7.98046875 C-0.20071011 5.32043572 -0.09863579 2.66031188 0 0 Z " fill="#111111" transform="translate(2038,67)"/>
<path d="M0 0 C-0.08746284 1.43861294 -0.19565348 2.87597508 -0.3125 4.3125 C-0.37050781 5.11300781 -0.42851563 5.91351563 -0.48828125 6.73828125 C-1.10007417 9.44231256 -1.78425997 10.36227911 -4 12 C-6.65150426 12.84463241 -9.22143116 13.08683028 -12 13 C-14 11.9375 -14 11.9375 -15 10 C-15.51410062 6.54818157 -15.38115483 4.68970874 -13.6875 1.625 C-9.38906162 -0.97405576 -4.89867185 -0.30405549 0 0 Z " fill="#F5F5F5" transform="translate(1659,223)"/>
<path d="M0 0 C1.65 0 3.3 0 5 0 C5 10.56 5 21.12 5 32 C3.68 32 2.36 32 1 32 C1 30.35 1 28.7 1 27 C0.34 27 -0.32 27 -1 27 C-0.67 18.09 -0.34 9.18 0 0 Z " fill="#080808" transform="translate(252,467)"/>
<path d="M0 0 C1.32 0 2.64 0 4 0 C4 1.65 4 3.3 4 5 C4.99 5.33 5.98 5.66 7 6 C6.67 6.66 6.34 7.32 6 8 C5.84693099 9.81171098 5.75053339 11.6283794 5.68359375 13.4453125 C5.64169922 14.52167969 5.59980469 15.59804687 5.55664062 16.70703125 C5.49766602 18.39892578 5.49766602 18.39892578 5.4375 20.125 C5.39431641 21.26066406 5.35113281 22.39632812 5.30664062 23.56640625 C5.2003396 26.37747768 5.09830595 29.18863945 5 32 C3.35 32 1.7 32 0 32 C0 21.44 0 10.88 0 0 Z " fill="#0B0B0B" transform="translate(1403,207)"/>
<path d="M0 0 C1.32 0 2.64 0 4 0 C4 1.65 4 3.3 4 5 C4.99 5.33 5.98 5.66 7 6 C6.67 6.66 6.34 7.32 6 8 C5.84693099 9.81171098 5.75053339 11.6283794 5.68359375 13.4453125 C5.64169922 14.52167969 5.59980469 15.59804687 5.55664062 16.70703125 C5.49766602 18.39892578 5.49766602 18.39892578 5.4375 20.125 C5.39431641 21.26066406 5.35113281 22.39632812 5.30664062 23.56640625 C5.2003396 26.37747768 5.09830595 29.18863945 5 32 C3.35 32 1.7 32 0 32 C0 21.44 0 10.88 0 0 Z " fill="#0B0B0B" transform="translate(1203,207)"/>
<path d="M0 0 C1.32 0 2.64 0 4 0 C4 1.65 4 3.3 4 5 C4.99 5.33 5.98 5.66 7 6 C6.67 6.66 6.34 7.32 6 8 C5.84693099 9.81171098 5.75053339 11.6283794 5.68359375 13.4453125 C5.64169922 14.52167969 5.59980469 15.59804687 5.55664062 16.70703125 C5.49766602 18.39892578 5.49766602 18.39892578 5.4375 20.125 C5.39431641 21.26066406 5.35113281 22.39632812 5.30664062 23.56640625 C5.2003396 26.37747768 5.09830595 29.18863945 5 32 C3.35 32 1.7 32 0 32 C0 21.44 0 10.88 0 0 Z " fill="#0B0B0B" transform="translate(983,207)"/>
<path d="M0 0 C1.32 0 2.64 0 4 0 C4 1.65 4 3.3 4 5 C4.99 5.33 5.98 5.66 7 6 C6.67 6.66 6.34 7.32 6 8 C5.84693099 9.81171098 5.75053339 11.6283794 5.68359375 13.4453125 C5.64169922 14.52167969 5.59980469 15.59804687 5.55664062 16.70703125 C5.49766602 18.39892578 5.49766602 18.39892578 5.4375 20.125 C5.39431641 21.26066406 5.35113281 22.39632812 5.30664062 23.56640625 C5.2003396 26.37747768 5.09830595 29.18863945 5 32 C3.35 32 1.7 32 0 32 C0 21.44 0 10.88 0 0 Z " fill="#0B0B0B" transform="translate(763,207)"/>
<path d="M0 0 C2.02734375 0.64453125 2.02734375 0.64453125 4.08984375 2.39453125 C5.02734375 4.64453125 5.02734375 4.64453125 5.02734375 9.64453125 C-0.58265625 9.64453125 -6.19265625 9.64453125 -11.97265625 9.64453125 C-11.97265625 4.64453125 -11.97265625 4.64453125 -10.03515625 1.76953125 C-6.26816713 -0.84429794 -4.39570377 -0.78259618 0 0 Z " fill="#F2F2F2" transform="translate(2066.97265625,70.35546875)"/>
<path d="M0 0 C2.16875149 1.54910821 2.86618358 2.74585347 3.75 5.25 C3.75 6.57 3.75 7.89 3.75 9.25 C-1.86 9.25 -7.47 9.25 -13.25 9.25 C-12.25 2.25 -12.25 2.25 -10.5625 0.3125 C-6.88623316 -1.37659557 -3.81006783 -1.27002261 0 0 Z " fill="#F3F3F3" transform="translate(283.25,470.75)"/>
<path d="M0 0 C2.875 1.625 2.875 1.625 5 4 C5 5.98 5 7.96 5 10 C-0.28 10 -5.56 10 -11 10 C-11 4 -11 4 -8.875 1.625 C-5.48113923 -0.29326913 -3.83687022 -0.63947837 0 0 Z " fill="#F6F6F6" transform="translate(348,470)"/>
<path d="M0 0 C2.875 1.625 2.875 1.625 5 4 C5 5.98 5 7.96 5 10 C-0.28 10 -5.56 10 -11 10 C-11 4 -11 4 -8.875 1.625 C-5.48113923 -0.29326913 -3.83687022 -0.63947837 0 0 Z " fill="#F7F7F7" transform="translate(181,470)"/>
<path d="M0 0 C2.875 1.625 2.875 1.625 5 4 C5 5.98 5 7.96 5 10 C-0.28 10 -5.56 10 -11 10 C-11 4 -11 4 -8.875 1.625 C-5.48113923 -0.29326913 -3.83687022 -0.63947837 0 0 Z " fill="#F7F7F7" transform="translate(1385,210)"/>
<path d="M0 0 C2.875 1.625 2.875 1.625 5 4 C5 5.98 5 7.96 5 10 C-0.28 10 -5.56 10 -11 10 C-11 4 -11 4 -8.875 1.625 C-5.48113923 -0.29326913 -3.83687022 -0.63947837 0 0 Z " fill="#F7F7F7" transform="translate(1185,210)"/>
<path d="M0 0 C2.875 1.625 2.875 1.625 5 4 C5 5.98 5 7.96 5 10 C-0.28 10 -5.56 10 -11 10 C-11 4 -11 4 -8.875 1.625 C-5.48113923 -0.29326913 -3.83687022 -0.63947837 0 0 Z " fill="#F7F7F7" transform="translate(965,210)"/>
<path d="M0 0 C2.875 1.625 2.875 1.625 5 4 C5 5.98 5 7.96 5 10 C-0.28 10 -5.56 10 -11 10 C-11 4 -11 4 -8.875 1.625 C-5.48113923 -0.29326913 -3.83687022 -0.63947837 0 0 Z " fill="#F7F7F7" transform="translate(745,210)"/>
<path d="M0 0 C2.875 1.625 2.875 1.625 5 4 C5 5.98 5 7.96 5 10 C-0.28 10 -5.56 10 -11 10 C-11 4 -11 4 -8.875 1.625 C-5.48113923 -0.29326913 -3.83687022 -0.63947837 0 0 Z " fill="#F7F7F7" transform="translate(2000,70)"/>
<path d="M0 0 C0.7425 0.0825 1.485 0.165 2.25 0.25 C2.25 1.9 2.25 3.55 2.25 5.25 C1.13625 5.559375 0.0225 5.86875 -1.125 6.1875 C-4.5445155 7.07326483 -4.5445155 7.07326483 -6.75 8.25 C-7.41 7.92 -8.07 7.59 -8.75 7.25 C-8.75 5.27 -8.75 3.29 -8.75 1.25 C-7.76 2.735 -7.76 2.735 -6.75 4.25 C-6.193125 3.59 -5.63625 2.93 -5.0625 2.25 C-2.75 0.25 -2.75 0.25 0 0 Z " fill="#1A1A1A" transform="translate(453.75,205.75)"/>
<path d="M0 0 C1.98 0 3.96 0 6 0 C6 1.65 6 3.3 6 5 C4.02 5 2.04 5 0 5 C0 3.35 0 1.7 0 0 Z " fill="#232323" transform="translate(1673,196)"/>
<path d="M0 0 C0.66 0.33 1.32 0.66 2 1 C-0.31 3.31 -2.62 5.62 -5 8 C-5 5 -5 5 -2.5 2.3125 C-1.675 1.549375 -0.85 0.78625 0 0 Z " fill="#2D2D2D" transform="translate(171,467)"/>
<path d="M0 0 C0.66 0.33 1.32 0.66 2 1 C-0.31 3.31 -2.62 5.62 -5 8 C-5 5 -5 5 -2.5 2.3125 C-1.675 1.549375 -0.85 0.78625 0 0 Z " fill="#2E2E2E" transform="translate(1375,207)"/>
<path d="M0 0 C0.66 0.33 1.32 0.66 2 1 C-0.31 3.31 -2.62 5.62 -5 8 C-5 5 -5 5 -2.5 2.3125 C-1.675 1.549375 -0.85 0.78625 0 0 Z " fill="#2E2E2E" transform="translate(1175,207)"/>
<path d="M0 0 C0.66 0.33 1.32 0.66 2 1 C-0.31 3.31 -2.62 5.62 -5 8 C-5 5 -5 5 -2.5 2.3125 C-1.675 1.549375 -0.85 0.78625 0 0 Z " fill="#2D2D2D" transform="translate(955,207)"/>
<path d="M0 0 C0.66 0.33 1.32 0.66 2 1 C-0.31 3.31 -2.62 5.62 -5 8 C-5 5 -5 5 -2.5 2.3125 C-1.675 1.549375 -0.85 0.78625 0 0 Z " fill="#2E2E2E" transform="translate(735,207)"/>
<path d="M0 0 C0.66 0.33 1.32 0.66 2 1 C-0.31 3.31 -2.62 5.62 -5 8 C-5 5 -5 5 -2.5 2.3125 C-1.675 1.549375 -0.85 0.78625 0 0 Z " fill="#2D2D2D" transform="translate(1990,67)"/>
</svg>
