<?xml version="1.0" standalone="no"?>
<!DOCTYPE svg PUBLIC "-//W3C//DTD SVG 20010904//EN"
 "http://www.w3.org/TR/2001/REC-SVG-20010904/DTD/svg10.dtd">
<svg version="1.0" xmlns="http://www.w3.org/2000/svg"
 width="1359.000000pt" height="897.000000pt" viewBox="0 0 1359.000000 897.000000"
 preserveAspectRatio="xMidYMid meet">

<g transform="translate(0.000000,897.000000) scale(0.100000,-0.100000)"
fill="#000000" stroke="none">
<path d="M8771 8729 c-193 -59 -209 -64 -199 -74 5 -5 398 -125 411 -125 4 0
7 27 7 60 l0 60 690 0 690 0 0 -3890 0 -3890 -690 0 -690 0 0 60 c0 33 -3 60
-7 60 -13 0 -406 -120 -411 -125 -3 -3 -3 -7 0 -10 5 -5 398 -125 411 -125 4
0 7 27 7 60 l0 60 690 0 690 0 0 -100 c0 -60 4 -100 10 -100 7 0 10 1343 10
4010 l0 4010 -700 0 -700 0 0 60 c0 42 -4 60 -12 59 -7 0 -100 -27 -207 -60z"/>
<path d="M6353 8696 c-148 -29 -296 -146 -366 -288 -84 -171 -70 -381 33 -535
17 -24 30 -47 30 -51 0 -4 -378 -176 -840 -381 -462 -205 -840 -378 -840 -383
0 -6 8 -8 18 -5 9 3 392 172 851 376 l834 371 55 -45 c214 -177 520 -162 720
34 213 209 215 543 3 759 -131 133 -306 186 -498 148z m208 -76 c182 -35 333
-192 362 -379 47 -307 -217 -571 -524 -524 -79 13 -182 58 -218 97 -21 22 -22
26 -7 32 27 10 18 26 -12 19 -36 -7 -71 27 -107 108 -82 178 -45 384 91 521
111 111 258 155 415 126z"/>
<path d="M6600 8283 c-55 -29 -81 -92 -82 -195 0 -47 5 -101 11 -120 37 -111
182 -132 241 -35 24 39 26 106 5 147 -30 58 -112 77 -172 40 l-33 -20 0 30 c0
39 25 99 48 116 28 22 70 17 96 -11 46 -49 83 -24 38 25 -35 41 -99 50 -152
23z m100 -193 c24 -13 43 -72 35 -110 -18 -82 -111 -95 -150 -20 -23 44 -19
87 10 115 26 26 72 33 105 15z"/>
<path d="M6197 8223 c-4 -38 -7 -87 -7 -110 0 -38 3 -43 23 -43 12 1 33 7 47
15 70 40 140 0 140 -80 0 -91 -88 -129 -152 -65 -49 50 -89 35 -52 -19 34 -48
126 -65 189 -35 90 43 98 181 13 234 -33 21 -97 23 -140 5 -15 -6 -18 -2 -18
21 0 16 3 46 6 67 l7 37 88 0 c82 0 89 2 89 20 0 19 -7 20 -114 20 l-113 0 -6
-67z"/>
<path d="M4400 8285 l0 -205 25 0 c25 0 25 1 25 80 l0 80 68 0 67 -1 53 -79
c47 -70 58 -80 83 -80 35 0 34 1 -35 99 l-45 64 32 16 c63 32 85 133 40 183
-33 38 -76 48 -198 48 l-115 0 0 -205z m243 144 c30 -16 37 -28 37 -66 0 -54
-36 -73 -141 -73 l-89 0 0 75 0 75 86 0 c47 0 95 -5 107 -11z"/>
<path d="M5506 8435 c-5 -26 -12 -35 -26 -35 -13 0 -20 -7 -20 -20 0 -13 7
-20 20 -20 19 0 20 -7 20 -128 0 -114 2 -131 19 -146 24 -22 84 -18 89 6 2 12
-5 17 -25 20 l-28 3 -3 123 -3 122 31 0 c23 0 30 4 30 20 0 16 -7 20 -30 20
-28 0 -30 3 -30 35 0 28 -4 35 -19 35 -14 0 -21 -10 -25 -35z"/>
<path d="M4882 8395 c-97 -42 -95 -270 2 -310 76 -32 153 -10 185 54 25 48 28
145 7 196 -28 66 -117 93 -194 60z m126 -50 c42 -53 39 -169 -4 -212 -50 -50
-125 -15 -139 65 -16 98 22 172 89 172 25 0 40 -7 54 -25z"/>
<path d="M5225 8400 c-76 -31 -106 -169 -58 -263 46 -91 196 -86 243 8 21 44
18 163 -5 203 -31 53 -118 78 -180 52z m116 -49 c19 -15 24 -30 27 -84 5 -79
-2 -111 -28 -137 -21 -21 -70 -26 -100 -10 -52 28 -54 198 -3 238 25 18 77 15
104 -7z"/>
<path d="M5310 7870 c0 -5 5 -10 11 -10 5 0 7 5 4 10 -3 6 -8 10 -11 10 -2 0
-4 -4 -4 -10z"/>
<path d="M5150 7860 c0 -5 5 -10 11 -10 5 0 7 5 4 10 -3 6 -8 10 -11 10 -2 0
-4 -4 -4 -10z"/>
<path d="M5190 7860 c0 -5 5 -10 10 -10 6 0 10 5 10 10 0 6 -4 10 -10 10 -5 0
-10 -4 -10 -10z"/>
<path d="M5230 7860 c0 -5 5 -10 10 -10 6 0 10 5 10 10 0 6 -4 10 -10 10 -5 0
-10 -4 -10 -10z"/>
<path d="M5270 7859 c0 -5 5 -7 10 -4 6 3 10 8 10 11 0 2 -4 4 -10 4 -5 0 -10
-5 -10 -11z"/>
<path d="M6970 7862 c0 -4 342 -178 760 -387 418 -209 760 -381 760 -382 0 -1
-14 -22 -30 -47 -142 -209 -113 -474 69 -649 101 -97 220 -147 351 -147 274 0
510 236 510 510 0 274 -236 510 -510 510 -117 0 -247 -49 -328 -124 l-44 -40
-764 382 c-420 210 -766 382 -769 382 -3 0 -5 -3 -5 -8z m2060 -636 c107 -33
220 -126 277 -228 60 -106 76 -266 39 -389 -33 -106 -126 -219 -228 -276 -54
-31 -176 -63 -238 -63 -62 0 -184 32 -238 63 -188 106 -282 316 -237 531 16
79 58 168 94 200 18 16 22 16 50 2 35 -18 41 -19 41 -7 0 5 -13 14 -30 21 -16
7 -30 15 -30 19 0 10 72 65 120 92 41 24 95 41 160 53 41 7 172 -3 220 -18z"/>
<path d="M8985 6887 c-35 -16 -50 -32 -64 -70 -10 -26 -9 -27 19 -27 20 0 30
5 30 15 0 24 42 55 76 55 36 0 72 -26 75 -55 8 -59 -25 -95 -87 -95 -17 0 -24
-5 -24 -20 0 -15 7 -20 30 -20 66 0 109 -47 94 -104 -8 -35 -40 -56 -84 -56
-44 0 -76 21 -84 55 -5 21 -11 25 -29 19 -32 -9 -32 -11 -15 -48 29 -60 130
-85 204 -50 80 38 85 152 10 191 l-30 15 26 14 c57 30 61 126 6 167 -33 25
-113 32 -153 14z"/>
<path d="M8580 6870 c0 -19 7 -20 111 -20 l111 0 -21 -32 c-66 -101 -121 -239
-121 -305 0 -28 4 -33 23 -33 20 0 24 7 33 69 12 71 53 171 105 252 16 25 29
55 29 67 0 21 -3 22 -135 22 -128 0 -135 -1 -135 -20z"/>
<path d="M5030 7850 c0 -5 5 -10 10 -10 6 0 10 5 10 10 0 6 -4 10 -10 10 -5 0
-10 -4 -10 -10z"/>
<path d="M5070 7850 c0 -5 5 -10 10 -10 6 0 10 5 10 10 0 6 -4 10 -10 10 -5 0
-10 -4 -10 -10z"/>
<path d="M5110 7849 c0 -5 5 -7 10 -4 6 3 10 8 10 11 0 2 -4 4 -10 4 -5 0 -10
-5 -10 -11z"/>
<path d="M4910 7840 c0 -5 5 -10 10 -10 6 0 10 5 10 10 0 6 -4 10 -10 10 -5 0
-10 -4 -10 -10z"/>
<path d="M4950 7840 c0 -5 5 -10 10 -10 6 0 10 5 10 10 0 6 -4 10 -10 10 -5 0
-10 -4 -10 -10z"/>
<path d="M4990 7839 c0 -5 5 -7 10 -4 6 3 10 8 10 11 0 2 -4 4 -10 4 -5 0 -10
-5 -10 -11z"/>
<path d="M4790 7830 c0 -5 5 -10 10 -10 6 0 10 5 10 10 0 6 -4 10 -10 10 -5 0
-10 -4 -10 -10z"/>
<path d="M4830 7830 c0 -5 5 -10 10 -10 6 0 10 5 10 10 0 6 -4 10 -10 10 -5 0
-10 -4 -10 -10z"/>
<path d="M4870 7829 c0 -5 5 -7 10 -4 6 3 10 8 10 11 0 2 -4 4 -10 4 -5 0 -10
-5 -10 -11z"/>
<path d="M4710 7820 c0 -5 5 -10 10 -10 6 0 10 5 10 10 0 6 -4 10 -10 10 -5 0
-10 -4 -10 -10z"/>
<path d="M4750 7820 c0 -5 5 -10 10 -10 6 0 10 5 10 10 0 6 -4 10 -10 10 -5 0
-10 -4 -10 -10z"/>
<path d="M4630 7810 c0 -5 5 -10 10 -10 6 0 10 5 10 10 0 6 -4 10 -10 10 -5 0
-10 -4 -10 -10z"/>
<path d="M4670 7810 c0 -5 5 -10 10 -10 6 0 10 5 10 10 0 6 -4 10 -10 10 -5 0
-10 -4 -10 -10z"/>
<path d="M4550 7800 c0 -5 5 -10 10 -10 6 0 10 5 10 10 0 6 -4 10 -10 10 -5 0
-10 -4 -10 -10z"/>
<path d="M4590 7800 c0 -5 5 -10 10 -10 6 0 10 5 10 10 0 6 -4 10 -10 10 -5 0
-10 -4 -10 -10z"/>
<path d="M4475 7791 c-3 -5 -1 -12 5 -16 5 -3 10 1 10 9 0 18 -6 21 -15 7z"/>
<path d="M4510 7790 c0 -5 5 -10 10 -10 6 0 10 5 10 10 0 6 -4 10 -10 10 -5 0
-10 -4 -10 -10z"/>
<path d="M4430 7780 c0 -5 5 -10 10 -10 6 0 10 5 10 10 0 6 -4 10 -10 10 -5 0
-10 -4 -10 -10z"/>
<path d="M4390 7770 c0 -5 5 -10 10 -10 6 0 10 5 10 10 0 6 -4 10 -10 10 -5 0
-10 -4 -10 -10z"/>
<path d="M4350 7760 c0 -5 5 -10 10 -10 6 0 10 5 10 10 0 6 -4 10 -10 10 -5 0
-10 -4 -10 -10z"/>
<path d="M4280 7744 c0 -8 5 -12 10 -9 6 4 8 11 5 16 -9 14 -15 11 -15 -7z"/>
<path d="M4315 7750 c3 -5 8 -10 11 -10 2 0 4 5 4 10 0 6 -5 10 -11 10 -5 0
-7 -4 -4 -10z"/>
<path d="M4240 7740 c0 -5 5 -10 11 -10 5 0 7 5 4 10 -3 6 -8 10 -11 10 -2 0
-4 -4 -4 -10z"/>
<path d="M4200 7724 c0 -8 5 -12 10 -9 6 4 8 11 5 16 -9 14 -15 11 -15 -7z"/>
<path d="M4160 7709 c0 -5 5 -7 10 -4 6 3 10 8 10 11 0 2 -4 4 -10 4 -5 0 -10
-5 -10 -11z"/>
<path d="M4120 7700 c0 -5 5 -10 10 -10 6 0 10 5 10 10 0 6 -4 10 -10 10 -5 0
-10 -4 -10 -10z"/>
<path d="M4080 7690 c0 -5 5 -10 10 -10 6 0 10 5 10 10 0 6 -4 10 -10 10 -5 0
-10 -4 -10 -10z"/>
<path d="M4045 7680 c3 -5 8 -10 11 -10 2 0 4 5 4 10 0 6 -5 10 -11 10 -5 0
-7 -4 -4 -10z"/>
<path d="M4010 7670 c0 -5 5 -10 11 -10 5 0 7 5 4 10 -3 6 -8 10 -11 10 -2 0
-4 -4 -4 -10z"/>
<path d="M3970 7650 c0 -5 5 -10 10 -10 6 0 10 5 10 10 0 6 -4 10 -10 10 -5 0
-10 -4 -10 -10z"/>
<path d="M3930 7640 c0 -5 5 -10 10 -10 6 0 10 5 10 10 0 6 -4 10 -10 10 -5 0
-10 -4 -10 -10z"/>
<path d="M3895 7620 c3 -5 8 -10 11 -10 2 0 4 5 4 10 0 6 -5 10 -11 10 -5 0
-7 -4 -4 -10z"/>
<path d="M3860 7610 c0 -5 5 -10 10 -10 6 0 10 5 10 10 0 6 -4 10 -10 10 -5 0
-10 -4 -10 -10z"/>
<path d="M3820 7590 c0 -5 5 -10 10 -10 6 0 10 5 10 10 0 6 -4 10 -10 10 -5 0
-10 -4 -10 -10z"/>
<path d="M3790 7570 c0 -5 5 -10 10 -10 6 0 10 5 10 10 0 6 -4 10 -10 10 -5 0
-10 -4 -10 -10z"/>
<path d="M3750 7550 c0 -5 5 -10 10 -10 6 0 10 5 10 10 0 6 -4 10 -10 10 -5 0
-10 -4 -10 -10z"/>
<path d="M3720 7529 c0 -5 5 -7 10 -4 6 3 10 8 10 11 0 2 -4 4 -10 4 -5 0 -10
-5 -10 -11z"/>
<path d="M3680 7510 c0 -5 5 -10 10 -10 6 0 10 5 10 10 0 6 -4 10 -10 10 -5 0
-10 -4 -10 -10z"/>
<path d="M3650 7490 c0 -5 5 -10 10 -10 6 0 10 5 10 10 0 6 -4 10 -10 10 -5 0
-10 -4 -10 -10z"/>
<path d="M3620 7470 c0 -5 5 -10 11 -10 5 0 7 5 4 10 -3 6 -8 10 -11 10 -2 0
-4 -4 -4 -10z"/>
<path d="M5370 7466 c0 -13 40 -364 46 -398 l6 -37 79 34 c43 19 98 42 120 52
l42 18 -137 165 c-123 149 -156 184 -156 166z"/>
<path d="M7222 7324 c-84 -80 -152 -149 -152 -153 0 -4 23 -20 50 -35 28 -15
50 -32 50 -38 0 -6 3 -8 7 -5 3 4 30 -7 60 -24 39 -23 54 -27 58 -17 5 16 95
404 95 412 0 18 -30 -8 -168 -140z"/>
<path d="M3585 7451 c-3 -5 -1 -12 5 -16 5 -3 10 1 10 9 0 18 -6 21 -15 7z"/>
<path d="M3550 7420 c0 -5 5 -10 10 -10 6 0 10 5 10 10 0 6 -4 10 -10 10 -5 0
-10 -4 -10 -10z"/>
<path d="M3520 7400 c0 -5 5 -10 10 -10 6 0 10 5 10 10 0 6 -4 10 -10 10 -5 0
-10 -4 -10 -10z"/>
<path d="M3490 7370 c0 -5 5 -10 10 -10 6 0 10 5 10 10 0 6 -4 10 -10 10 -5 0
-10 -4 -10 -10z"/>
<path d="M3460 7344 c0 -8 5 -12 10 -9 6 4 8 11 5 16 -9 14 -15 11 -15 -7z"/>
<path d="M3430 7320 c0 -5 5 -10 10 -10 6 0 10 5 10 10 0 6 -4 10 -10 10 -5 0
-10 -4 -10 -10z"/>
<path d="M3400 7290 c0 -5 5 -10 10 -10 6 0 10 5 10 10 0 6 -4 10 -10 10 -5 0
-10 -4 -10 -10z"/>
<path d="M3370 7260 c0 -5 5 -10 10 -10 6 0 10 5 10 10 0 6 -4 10 -10 10 -5 0
-10 -4 -10 -10z"/>
<path d="M3756 7255 c-223 -61 -386 -270 -386 -495 0 -274 236 -510 510 -510
228 0 435 164 495 391 69 259 -104 542 -375 614 -67 18 -178 18 -244 0z m274
-29 c108 -34 219 -124 277 -228 42 -73 67 -193 58 -279 -12 -126 -52 -213
-139 -302 -120 -122 -278 -168 -450 -132 -265 55 -428 309 -371 579 42 200
193 342 405 380 41 7 172 -3 220 -18z"/>
<path d="M3654 6890 c-25 -10 -74 -66 -74 -86 0 -25 49 -17 60 10 11 30 39 46
79 46 41 0 71 -31 71 -74 0 -43 -38 -76 -86 -76 -27 0 -34 -4 -34 -20 0 -17 7
-20 39 -20 56 0 91 -31 91 -80 0 -30 -6 -43 -26 -59 -50 -39 -108 -24 -149 41
-7 10 -18 13 -33 9 -22 -6 -22 -6 -5 -41 25 -49 74 -72 141 -67 65 5 102 30
121 83 18 50 3 87 -48 121 -19 13 -27 23 -19 23 8 0 24 10 36 23 24 26 30 93
11 129 -21 39 -119 61 -175 38z"/>
<path d="M3984 6886 c-70 -31 -85 -106 -33 -158 23 -24 27 -33 17 -39 -7 -5
-16 -9 -20 -9 -14 0 -38 -59 -38 -90 0 -70 59 -120 140 -120 82 0 140 50 140
122 0 39 -33 98 -55 98 -21 0 -19 4 15 38 91 92 -38 214 -166 158z m121 -40
c27 -20 27 -92 0 -112 -30 -22 -82 -17 -110 11 -30 30 -31 54 -4 89 23 30 81
36 114 12z m6 -185 c19 -15 24 -29 24 -66 0 -56 -28 -85 -82 -85 -48 0 -70 14
-83 56 -13 40 0 87 29 104 27 16 87 11 112 -9z"/>
<path d="M3345 7241 c-3 -5 -1 -12 5 -16 5 -3 10 1 10 9 0 18 -6 21 -15 7z"/>
<path d="M3316 7211 c-4 -5 -2 -12 3 -15 5 -4 12 -2 15 3 4 5 2 12 -3 15 -5 4
-12 2 -15 -3z"/>
<path d="M3290 7180 c0 -5 5 -10 11 -10 5 0 7 5 4 10 -3 6 -8 10 -11 10 -2 0
-4 -4 -4 -10z"/>
<path d="M3260 7150 c0 -5 5 -10 10 -10 6 0 10 5 10 10 0 6 -4 10 -10 10 -5 0
-10 -4 -10 -10z"/>
<path d="M3235 7120 c-3 -5 -1 -10 4 -10 6 0 11 5 11 10 0 6 -2 10 -4 10 -3 0
-8 -4 -11 -10z"/>
<path d="M3210 7090 c0 -5 5 -10 11 -10 5 0 7 5 4 10 -3 6 -8 10 -11 10 -2 0
-4 -4 -4 -10z"/>
<path d="M3185 7060 c-3 -5 -1 -10 4 -10 6 0 11 5 11 10 0 6 -2 10 -4 10 -3 0
-8 -4 -11 -10z"/>
<path d="M3156 7031 c-4 -5 -2 -12 3 -15 5 -4 12 -2 15 3 4 5 2 12 -3 15 -5 4
-12 2 -15 -3z"/>
<path d="M5560 7017 c0 -17 63 -140 67 -130 5 15 -42 126 -56 131 -6 2 -11 1
-11 -1z"/>
<path d="M3135 6990 c3 -5 8 -10 11 -10 2 0 4 5 4 10 0 6 -5 10 -11 10 -5 0
-7 -4 -4 -10z"/>
<path d="M3110 6959 c0 -5 5 -7 10 -4 6 3 10 8 10 11 0 2 -4 4 -10 4 -5 0 -10
-5 -10 -11z"/>
<path d="M7083 6958 c-41 -54 -83 -154 -49 -118 23 25 78 130 68 130 -5 0 -14
-6 -19 -12z"/>
<path d="M3080 6930 c0 -5 5 -10 10 -10 6 0 10 5 10 10 0 6 -4 10 -10 10 -5 0
-10 -4 -10 -10z"/>
<path d="M3060 6900 c0 -5 5 -10 10 -10 6 0 10 5 10 10 0 6 -4 10 -10 10 -5 0
-10 -4 -10 -10z"/>
<path d="M3035 6870 c-3 -5 -1 -10 4 -10 6 0 11 5 11 10 0 6 -2 10 -4 10 -3 0
-8 -4 -11 -10z"/>
<path d="M3010 6840 c0 -5 5 -10 11 -10 5 0 7 5 4 10 -3 6 -8 10 -11 10 -2 0
-4 -4 -4 -10z"/>
<path d="M2985 6800 c4 -6 11 -8 16 -5 14 9 11 15 -7 15 -8 0 -12 -5 -9 -10z"/>
<path d="M2960 6770 c0 -5 5 -10 10 -10 6 0 10 5 10 10 0 6 -4 10 -10 10 -5 0
-10 -4 -10 -10z"/>
<path d="M2940 6740 c0 -5 5 -10 10 -10 6 0 10 5 10 10 0 6 -4 10 -10 10 -5 0
-10 -4 -10 -10z"/>
<path d="M5680 6741 c0 -19 61 -144 67 -137 8 8 -47 146 -59 146 -4 0 -8 -4
-8 -9z"/>
<path d="M2916 6711 c-4 -5 -2 -12 3 -15 5 -4 12 -2 15 3 4 5 2 12 -3 15 -5 4
-12 2 -15 -3z"/>
<path d="M6905 6649 c-19 -33 -35 -64 -35 -70 0 -24 18 -3 53 61 47 86 32 94
-18 9z"/>
<path d="M2895 6670 c3 -5 8 -10 11 -10 2 0 4 5 4 10 0 6 -5 10 -11 10 -5 0
-7 -4 -4 -10z"/>
<path d="M2870 6640 c0 -5 5 -10 10 -10 6 0 10 5 10 10 0 6 -4 10 -10 10 -5 0
-10 -4 -10 -10z"/>
<path d="M2850 6610 c0 -5 5 -10 11 -10 5 0 7 5 4 10 -3 6 -8 10 -11 10 -2 0
-4 -4 -4 -10z"/>
<path d="M2826 6581 c-4 -5 -2 -12 3 -15 5 -4 12 -2 15 3 4 5 2 12 -3 15 -5 4
-12 2 -15 -3z"/>
<path d="M2800 6540 c0 -5 5 -10 10 -10 6 0 10 5 10 10 0 6 -4 10 -10 10 -5 0
-10 -4 -10 -10z"/>
<path d="M2780 6510 c0 -5 5 -10 10 -10 6 0 10 5 10 10 0 6 -4 10 -10 10 -5 0
-10 -4 -10 -10z"/>
<path d="M2760 6474 c0 -8 5 -12 10 -9 6 4 8 11 5 16 -9 14 -15 11 -15 -7z"/>
<path d="M5800 6463 c0 -17 54 -133 62 -133 4 0 8 2 8 5 0 15 -55 135 -62 135
-4 0 -8 -3 -8 -7z"/>
<path d="M2735 6440 c4 -6 11 -8 16 -5 14 9 11 15 -7 15 -8 0 -12 -5 -9 -10z"/>
<path d="M6754 6384 c-20 -36 -34 -68 -30 -71 8 -8 6 -10 50 65 39 69 41 72
26 72 -5 0 -26 -29 -46 -66z"/>
<path d="M2710 6410 c0 -5 5 -10 10 -10 6 0 10 5 10 10 0 6 -4 10 -10 10 -5 0
-10 -4 -10 -10z"/>
<path d="M2690 6380 c0 -5 5 -10 11 -10 5 0 7 5 4 10 -3 6 -8 10 -11 10 -2 0
-4 -4 -4 -10z"/>
<path d="M2670 6340 c0 -5 5 -10 10 -10 6 0 10 5 10 10 0 6 -4 10 -10 10 -5 0
-10 -4 -10 -10z"/>
<path d="M2625 6281 c-3 -5 -1 -12 5 -16 5 -3 10 1 10 9 0 18 -6 21 -15 7z"/>
<path d="M3110 5619 c-256 -359 -470 -659 -476 -667 -10 -14 -15 -13 -43 10
-40 34 -125 76 -192 93 -260 69 -542 -104 -614 -376 -82 -306 173 -629 495
-629 274 0 510 236 510 510 0 113 -48 245 -117 321 -22 24 -32 43 -27 51 4 7
218 308 476 669 257 361 468 659 468 663 0 3 -3 6 -8 6 -4 0 -216 -293 -472
-651z m-680 -593 c54 -16 115 -50 152 -84 l27 -25 -19 -28 c-22 -30 -24 -39
-11 -39 5 0 18 14 28 30 l19 30 30 -37 c79 -100 109 -186 109 -313 0 -142 -41
-244 -139 -343 -97 -98 -203 -142 -346 -142 -143 0 -249 44 -346 142 -98 99
-139 201 -139 343 0 143 44 249 142 346 79 77 158 117 273 138 41 7 172 -3
220 -18z"/>
<path d="M2055 4687 c-35 -16 -50 -32 -64 -70 -10 -26 -9 -27 19 -27 19 0 30
5 30 14 0 22 49 56 81 56 42 0 69 -32 69 -80 0 -42 -13 -59 -123 -158 -52 -47
-87 -97 -87 -124 0 -16 13 -18 135 -18 128 0 135 1 135 20 0 18 -8 20 -107 22
l-108 3 96 95 c53 52 102 110 109 128 17 43 0 105 -36 129 -33 21 -111 27
-149 10z"/>
<path d="M2330 4641 c0 -26 -3 -76 -6 -110 l-7 -61 29 0 c16 0 38 7 48 15 30
23 81 18 113 -9 23 -20 28 -32 28 -71 0 -39 -5 -51 -28 -71 -41 -35 -91 -33
-127 6 -15 17 -37 30 -49 30 -25 0 -25 -2 -5 -41 41 -79 194 -77 244 3 32 51
24 129 -19 171 -27 28 -38 32 -84 32 -28 0 -63 -4 -76 -9 -20 -7 -23 -6 -18 9
4 9 7 39 7 66 l0 49 95 0 c88 0 95 1 95 20 0 19 -7 20 -120 20 l-120 0 0 -49z"/>
<path d="M4170 6264 c0 -4 211 -302 468 -663 258 -361 472 -662 476 -669 5 -8
-5 -27 -27 -51 -69 -76 -117 -208 -117 -321 0 -228 164 -435 391 -495 260 -69
542 104 614 376 82 306 -173 629 -495 629 -106 0 -237 -45 -311 -107 -16 -14
-32 -24 -34 -21 -2 2 -216 301 -475 664 -259 362 -475 661 -481 662 -5 2 -9 0
-9 -4z m1460 -1238 c146 -45 279 -183 321 -331 18 -64 18 -206 0 -270 -43
-153 -183 -293 -336 -336 -27 -7 -88 -14 -135 -14 -143 0 -249 44 -346 142
-98 99 -139 201 -139 343 0 127 30 213 109 313 l30 37 19 -30 c10 -16 23 -30
28 -30 13 0 11 9 -11 39 l-19 28 27 25 c54 49 133 84 232 102 41 7 172 -3 220
-18z"/>
<path d="M5257 4548 c-54 -79 -97 -151 -97 -160 0 -16 11 -18 100 -18 l100 0
0 -45 c0 -41 2 -45 25 -45 23 0 25 4 25 45 0 43 1 45 30 45 23 0 30 4 30 20 0
16 -7 20 -30 20 l-30 0 0 140 0 140 -28 0 c-25 0 -39 -16 -125 -142z m103 -33
l0 -105 -70 0 c-38 0 -70 2 -70 5 0 7 132 205 137 205 1 0 3 -47 3 -105z"/>
<path d="M5510 4670 c0 -19 7 -20 110 -20 61 0 110 -2 110 -4 0 -3 -18 -33
-40 -68 -47 -76 -87 -177 -96 -247 -6 -50 -6 -51 19 -51 23 0 26 5 36 66 15
85 42 153 97 240 66 107 69 104 -96 104 -133 0 -140 -1 -140 -20z"/>
<path d="M8217 6125 c-86 -80 -157 -147 -157 -149 0 -2 21 -16 48 -32 26 -15
48 -28 50 -29 1 -1 -356 -599 -794 -1329 -666 -1111 -823 -1379 -780 -1335 2
2 360 598 796 1324 436 726 794 1322 796 1324 2 2 26 -10 54 -27 27 -17 52
-27 54 -23 5 7 106 405 106 416 0 16 -29 -8 -173 -140z"/>
<path d="M2600 6240 c0 -5 5 -10 10 -10 6 0 10 5 10 10 0 6 -4 10 -10 10 -5 0
-10 -4 -10 -10z"/>
<path d="M2580 6210 c0 -5 5 -10 10 -10 6 0 10 5 10 10 0 6 -4 10 -10 10 -5 0
-10 -4 -10 -10z"/>
<path d="M5920 6188 c0 -22 52 -138 62 -138 11 0 4 23 -28 96 -23 53 -34 66
-34 42z"/>
<path d="M2560 6180 c0 -5 5 -10 11 -10 5 0 7 5 4 10 -3 6 -8 10 -11 10 -2 0
-4 -4 -4 -10z"/>
<path d="M6606 6126 c-38 -67 -41 -76 -28 -76 7 0 82 123 82 135 0 3 -4 5 -9
5 -5 0 -25 -29 -45 -64z"/>
<path d="M2535 6140 c4 -6 11 -8 16 -5 14 9 11 15 -7 15 -8 0 -12 -5 -9 -10z"/>
<path d="M2510 6110 c0 -5 5 -10 10 -10 6 0 10 5 10 10 0 6 -4 10 -10 10 -5 0
-10 -4 -10 -10z"/>
<path d="M2490 6080 c0 -5 5 -10 10 -10 6 0 10 5 10 10 0 6 -4 10 -10 10 -5 0
-10 -4 -10 -10z"/>
<path d="M2470 6039 c0 -5 5 -7 10 -4 6 3 10 8 10 11 0 2 -4 4 -10 4 -5 0 -10
-5 -10 -11z"/>
<path d="M2425 5980 c-3 -5 -1 -10 4 -10 6 0 11 5 11 10 0 6 -2 10 -4 10 -3 0
-8 -4 -11 -10z"/>
<path d="M2405 5940 c3 -5 8 -10 11 -10 2 0 4 5 4 10 0 6 -5 10 -11 10 -5 0
-7 -4 -4 -10z"/>
<path d="M2380 5910 c0 -5 5 -10 10 -10 6 0 10 5 10 10 0 6 -4 10 -10 10 -5 0
-10 -4 -10 -10z"/>
<path d="M6070 5835 c0 -75 0 -75 -20 -55 -43 43 -127 36 -164 -13 -18 -24
-21 -43 -21 -127 0 -84 3 -103 21 -127 37 -49 121 -56 164 -13 20 20 20 20 20
0 0 -15 7 -20 25 -20 l25 0 0 215 0 215 -25 0 c-24 0 -25 -2 -25 -75z m-40
-75 c24 -13 40 -61 40 -120 0 -88 -27 -130 -83 -130 -44 0 -67 29 -74 92 -7
71 3 124 28 149 21 21 59 25 89 9z"/>
<path d="M1840 5700 c0 -183 1 -190 20 -190 18 0 20 7 20 88 0 80 2 91 23 110
30 29 71 28 91 0 12 -16 16 -47 16 -110 0 -81 2 -88 20 -88 19 0 20 7 20 104
0 95 -2 107 -23 131 -27 33 -87 37 -118 9 -19 -17 -19 -16 -19 37 0 73 -8 99
-31 99 -18 0 -19 -11 -19 -190z"/>
<path d="M2355 5880 c-3 -5 1 -10 10 -10 9 0 13 5 10 10 -3 6 -8 10 -10 10 -2
0 -7 -4 -10 -10z"/>
<path d="M5480 5685 l0 -205 160 0 160 0 0 25 0 25 -135 0 -135 0 0 70 0 70
120 0 120 0 0 25 0 25 -120 0 -120 0 0 60 0 60 130 0 130 0 0 25 0 25 -155 0
-155 0 0 -205z"/>
<path d="M1120 5685 c0 -168 1 -175 20 -175 18 0 20 7 20 64 l0 65 57 7 c78 9
113 43 113 109 0 38 -5 52 -29 76 -27 27 -35 29 -105 29 l-76 0 0 -175z m141
125 c24 -13 26 -81 3 -104 -18 -18 -54 -29 -81 -24 -15 3 -19 15 -21 71 l-3
67 41 0 c23 0 50 -5 61 -10z"/>
<path d="M2335 5851 c-3 -5 -1 -12 5 -16 5 -3 10 1 10 9 0 18 -6 21 -15 7z"/>
<path d="M1667 5834 c-4 -4 -7 -20 -7 -36 0 -21 -5 -28 -20 -28 -13 0 -20 -7
-20 -20 0 -13 7 -20 19 -20 17 0 19 -10 23 -96 3 -109 13 -124 80 -124 32 0
38 3 38 21 0 16 -5 20 -19 16 -41 -10 -51 9 -51 98 l0 85 35 0 c28 0 35 4 35
20 0 16 -7 20 -34 20 -32 0 -35 3 -38 32 -3 31 -25 48 -41 32z"/>
<path d="M2310 5810 c0 -5 5 -10 10 -10 6 0 10 5 10 10 0 6 -4 10 -10 10 -5 0
-10 -4 -10 -10z"/>
<path d="M6242 5785 c-19 -16 -36 -43 -43 -68 -15 -56 -6 -158 18 -199 31 -54
117 -64 163 -18 29 29 33 25 27 -22 -4 -27 -14 -49 -27 -60 -30 -24 -81 -23
-108 3 -14 13 -33 19 -49 17 l-27 -3 30 -34 c57 -64 183 -51 217 22 14 28 17
67 17 206 l0 171 -25 0 c-19 0 -25 -5 -25 -22 l0 -21 -24 22 c-15 14 -42 25
-68 28 -37 4 -49 1 -76 -22z m127 -34 c59 -59 42 -220 -24 -237 -74 -18 -102
30 -96 167 3 75 74 116 120 70z"/>
<path d="M6600 5793 c-52 -27 -73 -72 -72 -152 0 -107 36 -157 120 -168 52 -7
106 12 132 45 l21 26 -22 8 c-16 6 -27 2 -45 -17 -49 -53 -138 -19 -151 58
l-6 37 117 0 118 0 -6 30 c-3 17 -8 43 -11 59 -15 73 -119 113 -195 74z m105
-29 c18 -7 45 -54 45 -79 0 -12 -15 -15 -85 -15 -77 0 -85 2 -85 19 0 11 12
33 26 50 26 31 60 39 99 25z"/>
<path d="M6914 5796 c-18 -8 -36 -27 -44 -46 -11 -27 -11 -36 3 -65 9 -18 24
-36 34 -39 10 -4 47 -17 83 -29 52 -18 66 -26 68 -45 9 -62 -94 -87 -144 -37
-34 34 -69 27 -52 -10 22 -50 121 -71 193 -41 39 16 55 42 55 86 0 43 -36 75
-106 96 -89 25 -113 53 -76 87 25 23 84 21 115 -3 27 -22 57 -26 57 -9 0 57
-108 89 -186 55z"/>
<path d="M2290 5780 c0 -5 5 -10 10 -10 6 0 10 5 10 10 0 6 -4 10 -10 10 -5 0
-10 -4 -10 -10z"/>
<path d="M1400 5752 c-34 -28 -18 -44 25 -26 19 8 43 14 54 14 27 0 51 -26 51
-56 0 -21 -4 -24 -39 -24 -96 0 -146 -62 -103 -128 15 -22 66 -31 103 -18 25
9 40 9 52 2 33 -21 37 2 28 192 -1 12 -10 31 -21 42 -27 27 -118 28 -150 2z
m130 -151 c0 -20 -8 -35 -22 -45 -46 -33 -96 -10 -84 38 6 26 21 33 74 35 29
1 32 -2 32 -28z"/>
<path d="M2266 5751 c-4 -5 -2 -12 3 -15 5 -4 12 -2 15 3 4 5 2 12 -3 15 -5 4
-12 2 -15 -3z"/>
<path d="M2245 5710 c3 -5 8 -10 11 -10 2 0 4 5 4 10 0 6 -5 10 -11 10 -5 0
-7 -4 -4 -10z"/>
<path d="M2220 5680 c0 -5 5 -10 10 -10 6 0 10 5 10 10 0 6 -4 10 -10 10 -5 0
-10 -4 -10 -10z"/>
<path d="M2195 5650 c-3 -5 1 -10 10 -10 9 0 13 5 10 10 -3 6 -8 10 -10 10 -2
0 -7 -4 -10 -10z"/>
<path d="M2175 5621 c-3 -5 -1 -12 5 -16 5 -3 10 1 10 9 0 18 -6 21 -15 7z"/>
<path d="M2150 5580 c0 -5 5 -10 10 -10 6 0 10 5 10 10 0 6 -4 10 -10 10 -5 0
-10 -4 -10 -10z"/>
<path d="M2130 5550 c0 -5 5 -10 10 -10 6 0 10 5 10 10 0 6 -4 10 -10 10 -5 0
-10 -4 -10 -10z"/>
<path d="M2106 5521 c-4 -5 -2 -12 3 -15 5 -4 12 -2 15 3 4 5 2 12 -3 15 -5 4
-12 2 -15 -3z"/>
<path d="M2085 5480 c3 -5 8 -10 11 -10 2 0 4 5 4 10 0 6 -5 10 -11 10 -5 0
-7 -4 -4 -10z"/>
<path d="M2060 5450 c0 -5 5 -10 10 -10 6 0 10 5 10 10 0 6 -4 10 -10 10 -5 0
-10 -4 -10 -10z"/>
<path d="M2035 5420 c-3 -5 1 -10 10 -10 9 0 13 5 10 10 -3 6 -8 10 -10 10 -2
0 -7 -4 -10 -10z"/>
<path d="M2015 5391 c-3 -5 -1 -12 5 -16 5 -3 10 1 10 9 0 18 -6 21 -15 7z"/>
<path d="M1990 5350 c0 -5 5 -10 10 -10 6 0 10 5 10 10 0 6 -4 10 -10 10 -5 0
-10 -4 -10 -10z"/>
<path d="M1970 5320 c0 -5 5 -10 10 -10 6 0 10 5 10 10 0 6 -4 10 -10 10 -5 0
-10 -4 -10 -10z"/>
<path d="M1945 5290 c-3 -5 -1 -10 4 -10 6 0 11 5 11 10 0 6 -2 10 -4 10 -3 0
-8 -4 -11 -10z"/>
<path d="M1925 5250 c3 -5 8 -10 11 -10 2 0 4 5 4 10 0 6 -5 10 -11 10 -5 0
-7 -4 -4 -10z"/>
<path d="M1900 5219 c0 -5 5 -7 10 -4 6 3 10 8 10 11 0 2 -4 4 -10 4 -5 0 -10
-5 -10 -11z"/>
<path d="M1875 5190 c-3 -5 -1 -10 4 -10 6 0 11 5 11 10 0 6 -2 10 -4 10 -3 0
-8 -4 -11 -10z"/>
<path d="M1850 5160 c0 -5 5 -10 10 -10 6 0 10 5 10 10 0 6 -4 10 -10 10 -5 0
-10 -4 -10 -10z"/>
<path d="M1830 5124 c0 -8 5 -12 10 -9 6 4 8 11 5 16 -9 14 -15 11 -15 -7z"/>
<path d="M1805 5090 c4 -6 11 -8 16 -5 14 9 11 15 -7 15 -8 0 -12 -5 -9 -10z"/>
<path d="M1780 5060 c0 -5 5 -10 10 -10 6 0 10 5 10 10 0 6 -4 10 -10 10 -5 0
-10 -4 -10 -10z"/>
<path d="M1760 5030 c0 -5 5 -10 11 -10 5 0 7 5 4 10 -3 6 -8 10 -11 10 -2 0
-4 -4 -4 -10z"/>
<path d="M1736 5001 c-4 -5 -2 -12 3 -15 5 -4 12 -2 15 3 4 5 2 12 -3 15 -5 4
-12 2 -15 -3z"/>
<path d="M1710 4960 c0 -5 5 -10 10 -10 6 0 10 5 10 10 0 6 -4 10 -10 10 -5 0
-10 -4 -10 -10z"/>
<path d="M1690 4930 c0 -5 5 -10 10 -10 6 0 10 5 10 10 0 6 -4 10 -10 10 -5 0
-10 -4 -10 -10z"/>
<path d="M1665 4900 c-3 -5 1 -10 10 -10 9 0 13 5 10 10 -3 6 -8 10 -10 10 -2
0 -7 -4 -10 -10z"/>
<path d="M1645 4860 c3 -5 8 -10 11 -10 2 0 4 5 4 10 0 6 -5 10 -11 10 -5 0
-7 -4 -4 -10z"/>
<path d="M1620 4829 c0 -5 5 -7 10 -4 6 3 10 8 10 11 0 2 -4 4 -10 4 -5 0 -10
-5 -10 -11z"/>
<path d="M1595 4800 c-3 -5 -1 -10 4 -10 6 0 11 5 11 10 0 6 -2 10 -4 10 -3 0
-8 -4 -11 -10z"/>
<path d="M1570 4770 c0 -5 5 -10 10 -10 6 0 10 5 10 10 0 6 -4 10 -10 10 -5 0
-10 -4 -10 -10z"/>
<path d="M1550 4734 c0 -8 5 -12 10 -9 6 4 8 11 5 16 -9 14 -15 11 -15 -7z"/>
<path d="M1525 4700 c3 -5 8 -10 11 -10 2 0 4 5 4 10 0 6 -5 10 -11 10 -5 0
-7 -4 -4 -10z"/>
<path d="M1500 4670 c0 -5 5 -10 10 -10 6 0 10 5 10 10 0 6 -4 10 -10 10 -5 0
-10 -4 -10 -10z"/>
<path d="M1480 4640 c0 -5 5 -10 11 -10 5 0 7 5 4 10 -3 6 -8 10 -11 10 -2 0
-4 -4 -4 -10z"/>
<path d="M1455 4611 c-3 -5 -1 -12 5 -16 5 -3 10 1 10 9 0 18 -6 21 -15 7z"/>
<path d="M1430 4570 c0 -5 5 -10 10 -10 6 0 10 5 10 10 0 6 -4 10 -10 10 -5 0
-10 -4 -10 -10z"/>
<path d="M1410 4540 c0 -5 5 -10 10 -10 6 0 10 5 10 10 0 6 -4 10 -10 10 -5 0
-10 -4 -10 -10z"/>
<path d="M1385 4510 c-3 -5 -1 -10 4 -10 6 0 11 5 11 10 0 6 -2 10 -4 10 -3 0
-8 -4 -11 -10z"/>
<path d="M1360 4480 c0 -5 5 -10 11 -10 5 0 7 5 4 10 -3 6 -8 10 -11 10 -2 0
-4 -4 -4 -10z"/>
<path d="M1340 4439 c0 -5 5 -7 10 -4 6 3 10 8 10 11 0 2 -4 4 -10 4 -5 0 -10
-5 -10 -11z"/>
<path d="M1310 4410 c0 -5 5 -10 10 -10 6 0 10 5 10 10 0 6 -4 10 -10 10 -5 0
-10 -4 -10 -10z"/>
<path d="M1290 4380 c0 -5 5 -10 10 -10 6 0 10 5 10 10 0 6 -4 10 -10 10 -5 0
-10 -4 -10 -10z"/>
<path d="M1266 4351 c-4 -5 -2 -12 3 -15 5 -4 12 -2 15 3 4 5 2 12 -3 15 -5 4
-12 2 -15 -3z"/>
<path d="M1245 4310 c3 -5 8 -10 11 -10 2 0 4 5 4 10 0 6 -5 10 -11 10 -5 0
-7 -4 -4 -10z"/>
<path d="M1220 4280 c0 -5 5 -10 10 -10 6 0 10 5 10 10 0 6 -4 10 -10 10 -5 0
-10 -4 -10 -10z"/>
<path d="M1195 4250 c-3 -5 -1 -10 4 -10 6 0 11 5 11 10 0 6 -2 10 -4 10 -3 0
-8 -4 -11 -10z"/>
<path d="M1170 4220 c0 -5 5 -10 10 -10 6 0 10 5 10 10 0 6 -4 10 -10 10 -5 0
-10 -4 -10 -10z"/>
<path d="M1150 4184 c0 -8 5 -12 10 -9 6 4 8 11 5 16 -9 14 -15 11 -15 -7z"/>
<path d="M1125 4150 c4 -6 11 -8 16 -5 14 9 11 15 -7 15 -8 0 -12 -5 -9 -10z"/>
<path d="M1100 4120 c0 -5 5 -10 10 -10 6 0 10 5 10 10 0 6 -4 10 -10 10 -5 0
-10 -4 -10 -10z"/>
<path d="M1080 4090 c0 -5 5 -10 11 -10 5 0 7 5 4 10 -3 6 -8 10 -11 10 -2 0
-4 -4 -4 -10z"/>
<path d="M1055 4061 c-3 -5 -1 -12 5 -16 5 -3 10 1 10 9 0 18 -6 21 -15 7z"/>
<path d="M1596 3504 l-377 -565 -29 25 c-39 33 -125 74 -191 91 -260 69 -542
-104 -614 -376 -82 -306 173 -629 495 -629 274 0 510 236 510 510 0 113 -56
264 -121 326 -16 15 -29 31 -29 36 0 4 167 258 371 564 204 306 373 562 376
570 24 63 -64 -62 -391 -552z m-566 -478 c49 -15 110 -48 152 -82 l26 -21 -19
-29 c-21 -32 -24 -44 -10 -44 5 0 18 14 28 30 l19 30 30 -37 c105 -133 138
-305 90 -464 -45 -145 -182 -278 -331 -320 -27 -7 -88 -14 -135 -14 -142 0
-248 43 -345 140 -120 121 -166 278 -130 449 42 199 194 342 405 380 41 7 172
-3 220 -18z"/>
<path d="M658 2655 c-30 -22 -48 -43 -48 -55 0 -26 5 -25 44 5 18 14 36 25 39
25 4 0 7 -70 7 -155 l0 -155 -50 0 c-43 0 -50 -3 -50 -20 0 -19 7 -20 125 -20
118 0 125 1 125 20 0 17 -7 20 -50 20 l-50 0 0 185 0 185 -22 0 c-13 0 -44
-16 -70 -35z"/>
<path d="M930 2641 c0 -26 -3 -76 -6 -110 l-7 -61 29 0 c16 0 38 7 48 15 30
23 81 18 113 -9 23 -20 28 -32 28 -71 0 -39 -5 -51 -28 -71 -41 -35 -91 -33
-127 6 -27 29 -70 41 -70 20 0 -23 36 -63 67 -76 71 -30 158 -8 193 48 32 51
24 129 -19 171 -27 28 -38 32 -84 32 -28 0 -63 -4 -76 -9 -20 -7 -23 -6 -18 9
4 9 7 39 7 66 l0 49 95 0 c88 0 95 1 95 20 0 19 -7 20 -120 20 l-120 0 0 -49z"/>
<path d="M2570 4063 c0 -5 214 -264 475 -577 l474 -569 -33 -37 c-68 -75 -116
-208 -116 -320 0 -228 164 -435 391 -495 260 -69 542 104 614 376 82 306 -173
629 -495 629 -108 0 -242 -47 -314 -111 l-32 -28 -475 570 c-260 313 -477 569
-481 569 -5 0 -8 -3 -8 -7z m1460 -1037 c146 -45 279 -183 321 -331 18 -64 18
-206 0 -270 -43 -153 -183 -293 -336 -336 -27 -7 -88 -14 -135 -14 -143 0
-249 44 -346 142 -98 99 -139 201 -139 343 0 125 35 224 110 315 l25 30 24
-30 c13 -16 27 -27 31 -23 4 4 -2 19 -14 34 l-21 27 22 24 c43 46 139 89 238
107 41 7 172 -3 220 -18z"/>
<path d="M3654 2690 c-25 -10 -74 -66 -74 -86 0 -25 49 -17 60 10 11 30 39 46
79 46 41 0 71 -31 71 -74 0 -43 -38 -76 -86 -76 -27 0 -34 -4 -34 -20 0 -17 7
-20 39 -20 56 0 91 -31 91 -80 0 -30 -6 -43 -26 -59 -50 -39 -108 -24 -149 41
-7 10 -18 13 -33 9 -22 -6 -22 -6 -5 -41 31 -62 122 -88 196 -56 43 18 64 44
71 86 8 44 -9 77 -53 107 -19 13 -27 23 -19 23 8 0 24 10 36 23 24 26 30 93
11 129 -21 39 -119 61 -175 38z"/>
<path d="M3988 2653 c-28 -20 -48 -43 -48 -54 0 -25 7 -24 46 6 18 14 37 25
43 25 7 0 11 -52 11 -155 l0 -155 -55 0 c-48 0 -55 -2 -55 -20 0 -19 7 -20
130 -20 123 0 130 1 130 20 0 17 -7 20 -50 20 l-50 0 0 185 0 185 -27 -1 c-16
0 -49 -16 -75 -36z"/>
<path d="M5970 4060 c0 -20 30 -341 36 -387 l5 -42 45 20 c25 10 51 19 58 19
7 0 67 -138 136 -310 68 -170 127 -310 132 -310 4 0 8 2 8 5 0 3 -55 141 -121
307 -67 167 -123 308 -126 314 -2 6 21 19 52 29 33 12 54 24 51 31 -6 16 -258
328 -268 332 -4 2 -8 -2 -8 -8z"/>
<path d="M1030 4020 c0 -5 5 -10 10 -10 6 0 10 5 10 10 0 6 -4 10 -10 10 -5 0
-10 -4 -10 -10z"/>
<path d="M1010 3989 c0 -5 5 -7 10 -4 6 3 10 8 10 11 0 2 -4 4 -10 4 -5 0 -10
-5 -10 -11z"/>
<path d="M980 3960 c0 -5 5 -10 10 -10 6 0 10 5 10 10 0 6 -4 10 -10 10 -5 0
-10 -4 -10 -10z"/>
<path d="M960 3930 c0 -5 5 -10 11 -10 5 0 7 5 4 10 -3 6 -8 10 -11 10 -2 0
-4 -4 -4 -10z"/>
<path d="M936 3901 c-4 -5 -2 -12 3 -15 5 -4 12 -2 15 3 4 5 2 12 -3 15 -5 4
-12 2 -15 -3z"/>
<path d="M910 3860 c0 -5 5 -10 10 -10 6 0 10 5 10 10 0 6 -4 10 -10 10 -5 0
-10 -4 -10 -10z"/>
<path d="M890 3830 c0 -5 5 -10 10 -10 6 0 10 5 10 10 0 6 -4 10 -10 10 -5 0
-10 -4 -10 -10z"/>
<path d="M865 3800 c-3 -5 -1 -10 4 -10 6 0 11 5 11 10 0 6 -2 10 -4 10 -3 0
-8 -4 -11 -10z"/>
<path d="M845 3760 c3 -5 8 -10 11 -10 2 0 4 5 4 10 0 6 -5 10 -11 10 -5 0 -7
-4 -4 -10z"/>
<path d="M820 3729 c0 -5 5 -7 10 -4 6 3 10 8 10 11 0 2 -4 4 -10 4 -5 0 -10
-5 -10 -11z"/>
<path d="M790 3700 c0 -5 5 -10 10 -10 6 0 10 5 10 10 0 6 -4 10 -10 10 -5 0
-10 -4 -10 -10z"/>
<path d="M770 3670 c0 -5 5 -10 10 -10 6 0 10 5 10 10 0 6 -4 10 -10 10 -5 0
-10 -4 -10 -10z"/>
<path d="M746 3641 c-4 -5 -2 -12 3 -15 5 -4 12 -2 15 3 4 5 2 12 -3 15 -5 4
-12 2 -15 -3z"/>
<path d="M725 3600 c3 -5 8 -10 11 -10 2 0 4 5 4 10 0 6 -5 10 -11 10 -5 0 -7
-4 -4 -10z"/>
<path d="M700 3570 c0 -5 5 -10 10 -10 6 0 10 5 10 10 0 6 -4 10 -10 10 -5 0
-10 -4 -10 -10z"/>
<path d="M675 3540 c-3 -5 -1 -10 4 -10 6 0 11 5 11 10 0 6 -2 10 -4 10 -3 0
-8 -4 -11 -10z"/>
<path d="M650 3510 c0 -5 5 -10 10 -10 6 0 10 5 10 10 0 6 -4 10 -10 10 -5 0
-10 -4 -10 -10z"/>
<path d="M630 3474 c0 -8 5 -12 10 -9 6 4 8 11 5 16 -9 14 -15 11 -15 -7z"/>
<path d="M605 3440 c3 -5 8 -10 11 -10 2 0 4 5 4 10 0 6 -5 10 -11 10 -5 0 -7
-4 -4 -10z"/>
<path d="M580 3410 c0 -5 5 -10 10 -10 6 0 10 5 10 10 0 6 -4 10 -10 10 -5 0
-10 -4 -10 -10z"/>
<path d="M560 3380 c0 -5 5 -10 11 -10 5 0 7 5 4 10 -3 6 -8 10 -11 10 -2 0
-4 -4 -4 -10z"/>
<path d="M535 3351 c-3 -5 -1 -12 5 -16 5 -3 10 1 10 9 0 18 -6 21 -15 7z"/>
<path d="M510 3310 c0 -5 5 -10 10 -10 6 0 10 5 10 10 0 6 -4 10 -10 10 -5 0
-10 -4 -10 -10z"/>
<path d="M430 3273 c1 -57 25 -76 74 -57 28 11 17 24 -16 19 -18 -3 -27 -3
-20 1 17 8 15 27 -3 20 -10 -4 -15 1 -15 14 0 11 -4 20 -10 20 -5 0 -10 -8
-10 -17z"/>
<path d="M490 3279 c0 -5 5 -7 10 -4 6 3 10 8 10 11 0 2 -4 4 -10 4 -5 0 -10
-5 -10 -11z"/>
<path d="M5275 3199 c-258 -37 -475 -68 -481 -69 -6 0 -14 23 -17 50 -3 28 -9
54 -12 59 -6 11 -388 -163 -393 -179 -2 -5 -1 -10 2 -10 3 0 95 -13 203 -30
108 -16 203 -30 211 -30 12 0 13 11 8 60 -4 33 -3 60 2 60 4 0 228 32 497 70
269 39 490 70 492 70 2 0 3 5 3 10 0 14 0 14 -515 -61z"/>
<path d="M6620 3033 c-1 -63 -3 -75 -13 -62 -30 40 -104 52 -145 23 -72 -50
-80 -235 -12 -296 45 -42 121 -36 157 11 11 14 12 13 13 -6 0 -18 6 -23 25
-23 l25 0 0 215 0 215 -25 0 c-24 0 -25 -2 -25 -77z m-31 -82 c41 -41 40 -174
0 -218 -29 -30 -79 -31 -105 -2 -16 17 -19 37 -19 109 0 72 3 92 19 109 25 27
79 28 105 2z"/>
<path d="M5660 2885 l0 -205 25 0 25 0 0 172 0 171 108 -169 c99 -157 109
-169 140 -172 l32 -3 0 205 c0 199 -1 206 -20 206 -19 0 -20 -7 -20 -171 0
-93 -4 -168 -8 -165 -5 3 -56 80 -113 171 -100 158 -105 165 -136 165 l-33 0
0 -205z"/>
<path d="M12140 2865 l0 -195 25 0 25 0 0 110 c0 104 1 112 25 135 29 30 68
32 95 5 18 -18 20 -33 20 -135 0 -108 1 -115 20 -115 19 0 20 7 20 125 0 120
-1 127 -25 150 -31 32 -91 34 -128 5 -14 -11 -28 -20 -31 -20 -3 0 -6 29 -6
65 0 58 -2 65 -20 65 -19 0 -20 -7 -20 -195z"/>
<path d="M13147 2920 c-48 -71 -87 -136 -87 -145 0 -11 19 -15 93 -17 l92 -3
3 -37 c3 -30 7 -38 23 -38 16 0 19 7 19 40 0 36 3 40 25 40 16 0 25 6 25 15 0
9 -9 15 -25 15 l-25 0 0 130 0 130 -28 0 c-26 0 -38 -14 -115 -130z m93 -30
l0 -100 -66 0 c-36 0 -64 4 -62 8 5 13 122 192 125 192 2 0 3 -45 3 -100z"/>
<path d="M10960 2845 l0 -185 93 0 c104 0 159 19 195 65 48 61 53 164 10 232
-33 54 -84 73 -200 73 l-98 0 0 -185z m210 127 c65 -32 87 -118 51 -198 -24
-52 -68 -74 -150 -74 l-61 0 0 145 0 145 63 0 c39 0 75 -6 97 -18z"/>
<path d="M11995 2990 c-5 -21 -13 -30 -26 -30 -10 0 -19 -7 -19 -15 0 -8 6
-15 14 -15 19 0 22 -19 25 -140 2 -117 9 -130 68 -130 23 0 33 5 33 15 0 8 -8
15 -19 15 -35 0 -42 23 -39 131 l3 104 28 3 c38 5 36 32 -3 32 -27 0 -30 3
-30 30 0 19 -5 30 -14 30 -8 0 -17 -13 -21 -30z"/>
<path d="M6142 2995 c-97 -42 -95 -270 2 -310 76 -32 153 -10 185 54 27 52 28
151 3 201 -31 62 -116 87 -190 55z m126 -50 c42 -53 39 -169 -4 -212 -50 -50
-125 -15 -139 65 -16 98 22 172 89 172 25 0 40 -7 54 -25z"/>
<path d="M6810 2992 c-47 -23 -70 -71 -70 -150 0 -108 35 -158 118 -169 52 -7
106 12 132 45 l21 26 -20 8 c-15 5 -27 1 -45 -17 -45 -45 -117 -30 -142 30
-27 65 -26 65 102 65 l116 0 -7 48 c-4 26 -14 59 -23 74 -32 55 -116 73 -182
40z m119 -39 c11 -10 24 -33 27 -50 l7 -33 -88 0 -87 0 6 28 c15 61 90 92 135
55z"/>
<path d="M7124 2996 c-35 -15 -44 -32 -44 -80 0 -42 30 -70 97 -89 79 -23 93
-34 93 -67 0 -36 -23 -50 -80 -50 -31 0 -47 6 -67 26 -20 20 -30 24 -46 17
-19 -9 -19 -10 9 -42 70 -78 234 -41 234 52 0 50 -27 76 -105 102 -84 27 -107
53 -76 84 28 28 91 28 116 1 25 -28 57 -27 53 3 -7 47 -115 73 -184 43z"/>
<path d="M11755 2950 c-47 -24 -45 -24 -45 -5 0 8 -9 15 -20 15 -19 0 -20 -7
-20 -205 l0 -205 25 0 c24 0 25 2 25 75 l0 76 22 -21 c16 -14 35 -20 69 -20
40 0 51 4 73 30 57 69 42 231 -25 266 -37 19 -57 18 -104 -6z m91 -41 c15 -17
19 -36 19 -99 0 -63 -4 -82 -19 -99 -26 -29 -71 -27 -101 4 -22 21 -25 33 -25
93 0 55 4 75 21 96 26 33 77 36 105 5z"/>
<path d="M11403 2940 c-44 -26 -55 -53 -55 -125 0 -115 53 -173 149 -162 41 4
93 37 93 59 0 19 -30 18 -49 -1 -23 -23 -79 -28 -111 -11 -16 9 -40 64 -40 93
0 4 47 7 105 7 l105 0 0 33 c0 43 -29 99 -60 114 -37 19 -101 16 -137 -7z
m122 -35 c14 -13 25 -36 25 -50 0 -25 -1 -25 -73 -25 -41 0 -76 3 -79 6 -10
10 10 66 29 80 28 21 71 17 98 -11z"/>
<path d="M12590 2920 c0 -19 7 -20 98 -20 120 0 172 8 172 26 0 11 -27 14
-135 14 -128 0 -135 -1 -135 -20z"/>
<path d="M12590 2779 c0 -20 4 -21 53 -15 28 3 89 6 135 6 66 0 82 3 82 15 0
13 -22 15 -135 15 -131 0 -135 -1 -135 -21z"/>
<path d="M1172 2057 c2 -7 48 -94 102 -194 l100 -182 45 40 45 40 458 -458
c251 -251 461 -454 465 -450 4 4 -199 214 -452 467 l-459 459 42 42 c23 24 40
44 39 45 -10 9 -373 204 -380 204 -4 0 -7 -6 -5 -13z"/>
<path d="M3270 1984 c-143 -118 -220 -185 -220 -192 0 -4 20 -20 45 -35 25
-16 45 -31 45 -33 0 -2 -126 -194 -281 -425 -154 -231 -283 -427 -286 -435
-23 -60 53 44 301 417 l287 431 25 -16 c13 -9 35 -23 49 -32 14 -9 27 -15 29
-13 4 5 126 405 126 413 0 15 -21 0 -120 -80z"/>
<path d="M1940 685 c0 -21 5 -25 30 -25 25 0 30 4 30 25 0 21 -5 25 -30 25
-25 0 -30 -4 -30 -25z"/>
<path d="M1620 485 l0 -205 130 0 130 0 0 25 0 25 -105 0 -105 0 0 180 0 180
-25 0 -25 0 0 -205z"/>
<path d="M2440 593 c-52 -27 -73 -72 -72 -152 0 -107 36 -157 120 -168 52 -7
106 12 132 45 l21 26 -22 8 c-16 6 -27 2 -45 -17 -49 -53 -138 -19 -151 58
l-6 37 117 0 118 0 -6 30 c-3 17 -8 43 -11 59 -15 73 -119 113 -195 74z m105
-29 c18 -7 45 -54 45 -79 0 -12 -15 -15 -85 -15 -77 0 -85 2 -85 19 0 11 12
33 26 50 26 31 60 39 99 25z"/>
<path d="M2754 601 c-30 -13 -54 -50 -54 -84 0 -40 38 -73 106 -93 91 -26 114
-54 74 -94 -30 -30 -94 -27 -126 5 -17 17 -32 24 -45 20 -25 -8 -24 -21 5 -50
49 -49 163 -46 209 5 15 16 27 39 27 51 0 29 -27 77 -47 84 -10 3 -47 16 -83
28 -54 18 -66 26 -68 46 -5 32 21 51 70 51 25 0 45 -7 58 -20 11 -11 26 -20
34 -20 27 0 29 22 3 48 -21 21 -38 26 -84 29 -32 1 -68 -1 -79 -6z"/>
<path d="M1940 440 l0 -160 30 0 30 0 0 160 0 160 -30 0 -30 0 0 -160z"/>
<path d="M2043 588 c2 -7 28 -79 58 -160 54 -147 54 -148 85 -148 31 0 32 2
72 108 22 59 49 131 61 160 l21 52 -29 0 c-27 0 -30 -4 -71 -122 -23 -68 -45
-129 -49 -136 -4 -6 -27 49 -51 123 -43 132 -45 135 -73 135 -19 0 -28 -4 -24
-12z"/>
</g>
</svg>
