<?xml version="1.0" encoding="UTF-8"?>
<svg version="1.1" xmlns="http://www.w3.org/2000/svg" width="1275" height="940">
<path d="M0 0 C420.75 0 841.5 0 1275 0 C1275 310.2 1275 620.4 1275 940 C854.25 940 433.5 940 0 940 C0 629.8 0 319.6 0 0 Z " fill="#FEFEFE" transform="translate(0,0)"/>
<path d="M0 0 C132.66 0 265.32 0 402 0 C402 40.26 402 80.52 402 122 C347.055 122.495 347.055 122.495 291 123 C415.74 164.58 415.74 164.58 543 207 C544.485 201.555 544.485 201.555 546 196 C550.61612286 197.84644915 553.98995533 200.03248715 557.875 203 C559.73843014 204.41874795 561.60923436 205.81609636 563.51342773 207.17993164 C565.45038266 208.59770277 567.2996685 210.05596744 569.16040039 211.56811523 C579.41428184 219.54159762 587.95173638 220.51212613 600.6875 220.0625 C602.50243705 220.03196659 604.31737854 220.00169617 606.13232422 219.97167969 C620.48646214 219.60065887 633.57729124 217.19565663 647.28564453 212.85449219 C650.85056359 211.73223848 654.44213707 210.8021194 658.0625 209.875 C659.18269531 209.57207031 660.30289063 209.26914062 661.45703125 208.95703125 C665.71642476 207.80647843 669.9827051 206.68332517 674.25 205.5625 C675.04994385 205.35222168 675.8498877 205.14194336 676.67407227 204.92529297 C678.30287541 204.49715043 679.93170043 204.06909106 681.56054688 203.64111328 C683.96235884 203.00989248 686.36402481 202.37811981 688.765625 201.74609375 C689.54631348 201.54064941 690.32700195 201.33520508 691.13134766 201.12353516 C692.71961423 200.70543241 694.30782982 200.28713594 695.89599609 199.86865234 C699.72880234 198.85903127 703.56237198 197.85264 707.3984375 196.85546875 C715.70216766 194.69150515 723.98198098 192.45581573 732.24829102 190.15258789 C744.63148415 186.70338798 757.04311386 183.44226548 769.52416992 180.3659668 C776.17536382 178.72225098 782.75833626 176.96993357 789.328125 175.02734375 C795.58346392 173.27717978 801.89943364 171.7656944 808.20507812 170.20849609 C813.41657051 168.91540066 818.5998055 167.5853367 823.75 166.0625 C831.9927181 163.63936393 840.34305618 161.64036913 848.68017578 159.57104492 C858.50806124 157.13017084 868.30412004 154.6095461 878.05078125 151.859375 C887.79242669 149.11548187 897.57042247 146.5867912 907.39624023 144.16064453 C912.62716862 142.86304342 917.82818669 141.52000855 923 140 C929.44029766 138.11328734 935.93074342 136.45184442 942.4375 134.8125 C943.46939453 134.55017578 944.50128906 134.28785156 945.56445312 134.01757812 C950.70122279 132.73422341 955.7394133 131.61410506 961 131 C960.34 128.03 959.68 125.06 959 122 C906.53 122 854.06 122 800 122 C800 81.74 800 41.48 800 0 C932.66 0 1065.32 0 1202 0 C1202 40.26 1202 80.52 1202 122 C1187.74554687 121.92136719 1173.49109375 121.84273438 1158.8046875 121.76171875 C1149.74472562 121.74088581 1140.68495535 121.72336684 1131.625 121.72070312 C1117.26162546 121.71586931 1102.89916533 121.69796326 1088.53613281 121.59204102 C1078.07236012 121.51493688 1067.60961837 121.48434742 1057.14557087 121.50781661 C1051.61301895 121.51864832 1046.08264286 121.50741194 1040.55044174 121.44031334 C1008.65645245 120.37818133 1008.65645245 120.37818133 980.95730972 134.41550636 C977.89026014 136.89836357 974.52652692 138.82906731 971.125 140.8125 C969.41532882 141.87284593 967.70635827 142.93433097 966 144 C962.85041169 140.57653445 962.43820891 137.55737263 962 133 C937.38884227 138.99881815 937.38884227 138.99881815 912.9934082 145.80029297 C905.02612334 148.19681406 897.0229905 150.23946149 888.92138672 152.13134766 C877.70307587 154.75552582 866.58497693 157.71589712 855.48828125 160.8125 C841.84434875 164.61727603 828.18631279 168.24652896 814.43374634 171.63394165 C805.59858898 173.81273464 796.82978985 176.13443198 788.10107422 178.70703125 C778.68084618 181.44773058 769.15199793 183.76605164 759.62695312 186.109375 C751.89194146 188.01389438 744.18458435 189.99470397 736.49169922 192.0625 C731.58448574 193.38005697 726.66758428 194.65931662 721.75 195.9375 C719.76300146 196.45565489 717.77602259 196.9738852 715.7890625 197.4921875 C712.15972452 198.43829184 708.52949406 199.38082829 704.8984375 200.3203125 C697.35063491 202.28087978 689.84276012 204.31495508 682.375 206.5625 C676.04820482 208.46436584 669.6936871 210.07689101 663.25366211 211.54663086 C657.28268977 212.91259397 651.37460761 214.46158038 645.46484375 216.0703125 C641.65518467 217.09252091 637.82664496 218.04333876 634 219 C717.16 219.495 717.16 219.495 802 220 C802 405.46 802 590.92 802 782 C669.34 782 536.68 782 400 782 C400 596.54 400 411.08 400 220 C445.54 220 491.08 220 538 220 C539.485 215.05 539.485 215.05 541 210 C534.32790807 207.27337842 527.63935187 204.78566012 520.79736328 202.5234375 C519.82960464 202.20075394 518.86184601 201.87807037 517.86476135 201.54560852 C514.68421892 200.48588943 511.50228058 199.43042984 508.3203125 198.375 C506.06663325 197.62502129 503.81304408 196.87477183 501.55953979 196.12426758 C495.61981817 194.14689972 489.67890924 192.17312338 483.73773193 190.20013428 C477.8244602 188.2357704 471.91226273 186.26817947 466 184.30078125 C456.86933046 181.26277115 447.73809727 178.22646203 438.60644531 175.19140625 C423.55798481 170.18952511 408.51369751 165.1751531 393.4704895 160.15750122 C388.31389177 158.43763774 383.1569505 156.71880534 378 155 C376.07031154 154.35677373 374.14062392 153.71354489 372.2109375 153.0703125 C371.26049561 152.75352539 370.31005371 152.43673828 369.33081055 152.11035156 C367.28273175 151.42760224 365.23472211 150.74464542 363.18676758 150.06152344 C358.68457035 148.55999113 354.18241486 147.05848435 349.67578125 145.5703125 C337.52472943 141.55160912 325.4239317 137.38659444 313.32104492 133.22558594 C303.73617975 129.91010418 303.73617975 129.91010418 294.11174816 126.71250802 C292.74771752 126.25228138 291.39404998 125.75950519 290.05600363 125.22844952 C283.71041857 122.81470937 277.91374361 122.57087809 271.17393494 122.60127258 C269.42893222 122.59130234 269.42893222 122.59130234 267.64867693 122.58113068 C264.44226891 122.56577601 261.23617567 122.56365003 258.02974331 122.56726015 C254.56357386 122.56788646 251.09748086 122.55124096 247.63134766 122.53674316 C241.63355371 122.51399671 235.63581768 122.5020789 229.63798332 122.49761391 C220.96624595 122.49114256 212.29461312 122.46818791 203.62291796 122.44127061 C189.55209349 122.39803911 175.48127344 122.36805161 161.41040039 122.34643555 C147.7456648 122.32541495 134.08096528 122.29813042 120.41625977 122.26245117 C119.57330453 122.26025235 118.73034929 122.25805352 117.86184996 122.25578807 C113.63279323 122.24471814 109.40373683 122.23352539 105.17468059 122.22227156 C70.11647553 122.12913795 35.05828057 122.0599638 0 122 C0 81.74 0 41.48 0 0 Z " fill="#FEFEFE" transform="translate(35,120)"/>
<path d="M0 0 C131.34 0 262.68 0 398 0 C398 65.34 398 130.68 398 198 C266.66 198 135.32 198 0 198 C0 132.66 0 67.32 0 0 Z " fill="#FEFEFE" transform="translate(437,582)"/>
<path d="M0 0 C131.34 0 262.68 0 398 0 C398 38.94 398 77.88 398 118 C266.66 118 135.32 118 0 118 C0 79.06 0 40.12 0 0 Z " fill="#FEFEFE" transform="translate(437,782)"/>
<path d="M0 0 C131.34 0 262.68 0 398 0 C398 38.94 398 77.88 398 118 C266.66 118 135.32 118 0 118 C0 79.06 0 40.12 0 0 Z " fill="#FEFEFE" transform="translate(437,462)"/>
<path d="M0 0 C131.34 0 262.68 0 398 0 C398 38.94 398 77.88 398 118 C266.66 118 135.32 118 0 118 C0 79.06 0 40.12 0 0 Z " fill="#FEFEFE" transform="translate(437,342)"/>
<path d="M0 0 C131.34 0 262.68 0 398 0 C398 38.94 398 77.88 398 118 C266.66 118 135.32 118 0 118 C0 79.06 0 40.12 0 0 Z " fill="#FEFEFE" transform="translate(837,122)"/>
<path d="M0 0 C132.66 0 265.32 0 402 0 C402 40.26 402 80.52 402 122 C347.055 122.495 347.055 122.495 291 123 C415.74 164.58 415.74 164.58 543 207 C544.485 201.555 544.485 201.555 546 196 C550.61612286 197.84644915 553.98995533 200.03248715 557.875 203 C559.73843014 204.41874795 561.60923436 205.81609636 563.51342773 207.17993164 C565.45038266 208.59770277 567.2996685 210.05596744 569.16040039 211.56811523 C579.41428184 219.54159762 587.95173638 220.51212613 600.6875 220.0625 C602.50243705 220.03196659 604.31737854 220.00169617 606.13232422 219.97167969 C620.48646214 219.60065887 633.57729124 217.19565663 647.28564453 212.85449219 C650.85056359 211.73223848 654.44213707 210.8021194 658.0625 209.875 C659.18269531 209.57207031 660.30289063 209.26914062 661.45703125 208.95703125 C665.71642476 207.80647843 669.9827051 206.68332517 674.25 205.5625 C675.04994385 205.35222168 675.8498877 205.14194336 676.67407227 204.92529297 C678.30287541 204.49715043 679.93170043 204.06909106 681.56054688 203.64111328 C683.96235884 203.00989248 686.36402481 202.37811981 688.765625 201.74609375 C689.54631348 201.54064941 690.32700195 201.33520508 691.13134766 201.12353516 C692.71961423 200.70543241 694.30782982 200.28713594 695.89599609 199.86865234 C699.72880234 198.85903127 703.56237198 197.85264 707.3984375 196.85546875 C715.70216766 194.69150515 723.98198098 192.45581573 732.24829102 190.15258789 C744.63148415 186.70338798 757.04311386 183.44226548 769.52416992 180.3659668 C776.17536382 178.72225098 782.75833626 176.96993357 789.328125 175.02734375 C795.58346392 173.27717978 801.89943364 171.7656944 808.20507812 170.20849609 C813.41657051 168.91540066 818.5998055 167.5853367 823.75 166.0625 C831.9927181 163.63936393 840.34305618 161.64036913 848.68017578 159.57104492 C858.50806124 157.13017084 868.30412004 154.6095461 878.05078125 151.859375 C887.79242669 149.11548187 897.57042247 146.5867912 907.39624023 144.16064453 C912.62716862 142.86304342 917.82818669 141.52000855 923 140 C929.44029766 138.11328734 935.93074342 136.45184442 942.4375 134.8125 C943.46939453 134.55017578 944.50128906 134.28785156 945.56445312 134.01757812 C950.70122279 132.73422341 955.7394133 131.61410506 961 131 C960.34 128.03 959.68 125.06 959 122 C906.53 122 854.06 122 800 122 C800 81.74 800 41.48 800 0 C932.66 0 1065.32 0 1202 0 C1202 40.26 1202 80.52 1202 122 C1187.74554687 121.92136719 1173.49109375 121.84273438 1158.8046875 121.76171875 C1149.74472562 121.74088581 1140.68495535 121.72336684 1131.625 121.72070312 C1117.26162546 121.71586931 1102.89916533 121.69796326 1088.53613281 121.59204102 C1078.07236012 121.51493688 1067.60961837 121.48434742 1057.14557087 121.50781661 C1051.61301895 121.51864832 1046.08264286 121.50741194 1040.55044174 121.44031334 C1008.65645245 120.37818133 1008.65645245 120.37818133 980.95730972 134.41550636 C977.89026014 136.89836357 974.52652692 138.82906731 971.125 140.8125 C969.41532882 141.87284593 967.70635827 142.93433097 966 144 C962.85041169 140.57653445 962.43820891 137.55737263 962 133 C937.38884227 138.99881815 937.38884227 138.99881815 912.9934082 145.80029297 C905.02612334 148.19681406 897.0229905 150.23946149 888.92138672 152.13134766 C877.70307587 154.75552582 866.58497693 157.71589712 855.48828125 160.8125 C841.84434875 164.61727603 828.18631279 168.24652896 814.43374634 171.63394165 C805.59858898 173.81273464 796.82978985 176.13443198 788.10107422 178.70703125 C778.68084618 181.44773058 769.15199793 183.76605164 759.62695312 186.109375 C751.89194146 188.01389438 744.18458435 189.99470397 736.49169922 192.0625 C731.58448574 193.38005697 726.66758428 194.65931662 721.75 195.9375 C719.76300146 196.45565489 717.77602259 196.9738852 715.7890625 197.4921875 C712.15972452 198.43829184 708.52949406 199.38082829 704.8984375 200.3203125 C697.35063491 202.28087978 689.84276012 204.31495508 682.375 206.5625 C676.04820482 208.46436584 669.6936871 210.07689101 663.25366211 211.54663086 C657.28268977 212.91259397 651.37460761 214.46158038 645.46484375 216.0703125 C641.65518467 217.09252091 637.82664496 218.04333876 634 219 C717.16 219.495 717.16 219.495 802 220 C802 405.46 802 590.92 802 782 C669.34 782 536.68 782 400 782 C400 596.54 400 411.08 400 220 C445.54 220 491.08 220 538 220 C539.485 215.05 539.485 215.05 541 210 C534.32790807 207.27337842 527.63935187 204.78566012 520.79736328 202.5234375 C519.82960464 202.20075394 518.86184601 201.87807037 517.86476135 201.54560852 C514.68421892 200.48588943 511.50228058 199.43042984 508.3203125 198.375 C506.06663325 197.62502129 503.81304408 196.87477183 501.55953979 196.12426758 C495.61981817 194.14689972 489.67890924 192.17312338 483.73773193 190.20013428 C477.8244602 188.2357704 471.91226273 186.26817947 466 184.30078125 C456.86933046 181.26277115 447.73809727 178.22646203 438.60644531 175.19140625 C423.55798481 170.18952511 408.51369751 165.1751531 393.4704895 160.15750122 C388.31389177 158.43763774 383.1569505 156.71880534 378 155 C376.07031154 154.35677373 374.14062392 153.71354489 372.2109375 153.0703125 C371.26049561 152.75352539 370.31005371 152.43673828 369.33081055 152.11035156 C367.28273175 151.42760224 365.23472211 150.74464542 363.18676758 150.06152344 C358.68457035 148.55999113 354.18241486 147.05848435 349.67578125 145.5703125 C337.52472943 141.55160912 325.4239317 137.38659444 313.32104492 133.22558594 C303.73617975 129.91010418 303.73617975 129.91010418 294.11174816 126.71250802 C292.74771752 126.25228138 291.39404998 125.75950519 290.05600363 125.22844952 C283.71041857 122.81470937 277.91374361 122.57087809 271.17393494 122.60127258 C269.42893222 122.59130234 269.42893222 122.59130234 267.64867693 122.58113068 C264.44226891 122.56577601 261.23617567 122.56365003 258.02974331 122.56726015 C254.56357386 122.56788646 251.09748086 122.55124096 247.63134766 122.53674316 C241.63355371 122.51399671 235.63581768 122.5020789 229.63798332 122.49761391 C220.96624595 122.49114256 212.29461312 122.46818791 203.62291796 122.44127061 C189.55209349 122.39803911 175.48127344 122.36805161 161.41040039 122.34643555 C147.7456648 122.32541495 134.08096528 122.29813042 120.41625977 122.26245117 C119.57330453 122.26025235 118.73034929 122.25805352 117.86184996 122.25578807 C113.63279323 122.24471814 109.40373683 122.23352539 105.17468059 122.22227156 C70.11647553 122.12913795 35.05828057 122.0599638 0 122 C0 81.74 0 41.48 0 0 Z M2 2 C2 40.94 2 79.88 2 120 C91.43 120 180.86 120 273 120 C270.17626693 117.17626693 266.81449131 116.65499783 263.0625 115.625 C257.29317508 113.98648531 251.64675576 112.22385557 246.03125 110.109375 C241.90105949 108.59781043 237.73444111 107.20397554 233.5625 105.8125 C232.78011963 105.55025635 231.99773926 105.2880127 231.19165039 105.01782227 C230.07777954 104.64741821 230.07777954 104.64741821 228.94140625 104.26953125 C227.94669312 103.93852417 227.94669312 103.93852417 226.93188477 103.60083008 C224.97512991 102.95827628 224.97512991 102.95827628 222.81616211 102.5456543 C222.21682861 102.36558838 221.61749512 102.18552246 221 102 C220.67 101.34 220.34 100.68 220 100 C221.14774902 100.39268066 222.29549805 100.78536133 223.47802734 101.18994141 C227.82788381 102.67795196 232.17805904 104.16502884 236.52832031 105.65185547 C238.39396426 106.28963049 240.25952713 106.92764272 242.125 107.56591797 C244.84092078 108.49512578 247.55715412 109.42341526 250.2734375 110.3515625 C251.07735931 110.6268277 251.88128113 110.9020929 252.70956421 111.18569946 C254.43903319 111.77627318 256.17282286 112.35428061 257.90975952 112.92251587 C260.19627933 113.71976412 262.4515877 114.60780434 264.68521118 115.5430603 C278.66228425 121.16585598 292.34973725 120.77003154 307.2265625 120.5859375 C309.91371616 120.57472276 312.60077319 120.56589759 315.28793335 120.56021118 C321.58814166 120.54173142 327.88770817 120.4927299 334.18763673 120.43211424 C342.08069613 120.35785584 349.97386478 120.32549223 357.8671875 120.29296875 C371.91195536 120.23491807 385.95532746 120.11466772 400 120 C400 81.06 400 42.12 400 2 C268.66 2 137.32 2 2 2 Z M802 2 C802 40.94 802 79.88 802 120 C933.34 120 1064.68 120 1200 120 C1200 81.06 1200 42.12 1200 2 C1068.66 2 937.32 2 802 2 Z M402 222 C402 260.94 402 299.88 402 340 C533.34 340 664.68 340 800 340 C800 301.06 800 262.12 800 222 C668.66 222 537.32 222 402 222 Z M402 342 C402 380.94 402 419.88 402 460 C533.34 460 664.68 460 800 460 C800 421.06 800 382.12 800 342 C668.66 342 537.32 342 402 342 Z M402 462 C402 527.34 402 592.68 402 660 C533.34 660 664.68 660 800 660 C800 594.66 800 529.32 800 462 C668.66 462 537.32 462 402 462 Z M402 662 C402 700.94 402 739.88 402 780 C533.34 780 664.68 780 800 780 C800 741.06 800 702.12 800 662 C668.66 662 537.32 662 402 662 Z " fill="#000000" transform="translate(35,120)"/>
<path d="M0 0 C132.66 0 265.32 0 402 0 C402 40.26 402 80.52 402 122 C387.74554687 121.92136719 373.49109375 121.84273438 358.8046875 121.76171875 C349.74472562 121.74088581 340.68495535 121.72336684 331.625 121.72070312 C317.26162546 121.71586931 302.89916533 121.69796326 288.53613281 121.59204102 C278.07236012 121.51493688 267.60961837 121.48434742 257.14557087 121.50781661 C251.61301895 121.51864832 246.08264286 121.50741194 240.55044174 121.44031334 C208.65645245 120.37818133 208.65645245 120.37818133 180.95730972 134.41550636 C177.89026014 136.89836357 174.52652692 138.82906731 171.125 140.8125 C169.41532882 141.87284593 167.70635827 142.93433097 166 144 C162.85041169 140.57653445 162.43820891 137.55737263 162 133 C137.38884227 138.99881815 137.38884227 138.99881815 112.9934082 145.80029297 C105.02612334 148.19681406 97.0229905 150.23946149 88.92138672 152.13134766 C77.70307587 154.75552582 66.58497693 157.71589712 55.48828125 160.8125 C41.84434875 164.61727603 28.18631279 168.24652896 14.43374634 171.63394165 C5.59858898 173.81273464 -3.17021015 176.13443198 -11.89892578 178.70703125 C-21.31915382 181.44773058 -30.84800207 183.76605164 -40.37304688 186.109375 C-48.10805854 188.01389438 -55.81541565 189.99470397 -63.50830078 192.0625 C-68.41551426 193.38005697 -73.33241572 194.65931662 -78.25 195.9375 C-80.23699854 196.45565489 -82.22397741 196.9738852 -84.2109375 197.4921875 C-87.84027548 198.43829184 -91.47050594 199.38082829 -95.1015625 200.3203125 C-102.64936509 202.28087978 -110.15723988 204.31495508 -117.625 206.5625 C-123.95017382 208.46387845 -130.30268985 210.07850274 -136.74194336 211.54443359 C-142.7854874 212.92432809 -148.75642084 214.51473168 -154.73046875 216.16796875 C-157.84260905 216.95994711 -160.80121457 217.69686192 -164 218 C-164.99 217.34 -165.98 216.68 -167 216 C-165.94683594 215.75765625 -164.89367187 215.5153125 -163.80859375 215.265625 C-154.83017594 213.18520872 -145.9104451 210.95631083 -137.01464844 208.54296875 C-133.26433163 207.53221929 -129.50679095 206.5488581 -125.75 205.5625 C-124.13020582 205.13672833 -122.51041417 204.71094701 -120.890625 204.28515625 C-120.08173828 204.07262207 -119.27285156 203.86008789 -118.43945312 203.64111328 C-116.03764116 203.00989248 -113.63597519 202.37811981 -111.234375 201.74609375 C-110.45368652 201.54064941 -109.67299805 201.33520508 -108.86865234 201.12353516 C-107.28038577 200.70543241 -105.69217018 200.28713594 -104.10400391 199.86865234 C-100.27119766 198.85903127 -96.43762802 197.85264 -92.6015625 196.85546875 C-84.29783234 194.69150515 -76.01801902 192.45581573 -67.75170898 190.15258789 C-55.36851585 186.70338798 -42.95688614 183.44226548 -30.47583008 180.3659668 C-23.82463618 178.72225098 -17.24166374 176.96993357 -10.671875 175.02734375 C-4.41653608 173.27717978 1.89943364 171.7656944 8.20507812 170.20849609 C13.41657051 168.91540066 18.5998055 167.5853367 23.75 166.0625 C31.9927181 163.63936393 40.34305618 161.64036913 48.68017578 159.57104492 C58.50806124 157.13017084 68.30412004 154.6095461 78.05078125 151.859375 C87.79242669 149.11548187 97.57042247 146.5867912 107.39624023 144.16064453 C112.62716862 142.86304342 117.82818669 141.52000855 123 140 C129.44029766 138.11328734 135.93074342 136.45184442 142.4375 134.8125 C143.46939453 134.55017578 144.50128906 134.28785156 145.56445312 134.01757812 C150.70122279 132.73422341 155.7394133 131.61410506 161 131 C160.34 128.03 159.68 125.06 159 122 C106.53 122 54.06 122 0 122 C0 81.74 0 41.48 0 0 Z M2 2 C2 40.94 2 79.88 2 120 C133.34 120 264.68 120 400 120 C400 81.06 400 42.12 400 2 C268.66 2 137.32 2 2 2 Z " fill="#010101" transform="translate(835,120)"/>
<path d="M0 0 C132.66 0 265.32 0 402 0 C402 40.26 402 80.52 402 122 C347.055 122.495 347.055 122.495 291 123 C373.17 150.39 455.34 177.78 540 206 C540 206.66 540 207.32 540 208 C533.46197232 206.65349946 527.23226409 204.88306618 520.91088867 202.75048828 C519.94327606 202.42809677 518.97566345 202.10570526 517.97872925 201.77354431 C514.7903674 200.7100629 511.60418143 199.64021384 508.41796875 198.5703125 C506.1630814 197.81681238 503.90805861 197.06371745 501.65290833 196.31100464 C495.70273539 194.32380038 489.75437644 192.33122034 483.80639648 190.33746338 C477.88825033 188.35466683 471.96849273 186.37669509 466.04882812 184.3984375 C456.90595991 181.34249162 447.76394782 178.28399979 438.62255859 175.22363281 C423.57623017 170.1868149 408.52369598 165.16867929 393.46948242 160.15548706 C388.31263987 158.43803641 383.15631346 156.71903834 378 155 C375.1102841 154.0367421 372.22055672 153.07351864 369.33081055 152.11035156 C367.28273175 151.42760224 365.23472211 150.74464542 363.18676758 150.06152344 C358.68457035 148.55999113 354.18241486 147.05848435 349.67578125 145.5703125 C337.52472943 141.55160912 325.4239317 137.38659444 313.32104492 133.22558594 C303.73617975 129.91010418 303.73617975 129.91010418 294.11174816 126.71250802 C292.74771752 126.25228138 291.39404998 125.75950519 290.05600363 125.22844952 C283.71041857 122.81470937 277.91374361 122.57087809 271.17393494 122.60127258 C269.42893222 122.59130234 269.42893222 122.59130234 267.64867693 122.58113068 C264.44226891 122.56577601 261.23617567 122.56365003 258.02974331 122.56726015 C254.56357386 122.56788646 251.09748086 122.55124096 247.63134766 122.53674316 C241.63355371 122.51399671 235.63581768 122.5020789 229.63798332 122.49761391 C220.96624595 122.49114256 212.29461312 122.46818791 203.62291796 122.44127061 C189.55209349 122.39803911 175.48127344 122.36805161 161.41040039 122.34643555 C147.7456648 122.32541495 134.08096528 122.29813042 120.41625977 122.26245117 C119.57330453 122.26025235 118.73034929 122.25805352 117.86184996 122.25578807 C113.63279323 122.24471814 109.40373683 122.23352539 105.17468059 122.22227156 C70.11647553 122.12913795 35.05828057 122.0599638 0 122 C0 81.74 0 41.48 0 0 Z M2 2 C2 40.94 2 79.88 2 120 C91.43 120 180.86 120 273 120 C270.17626693 117.17626693 266.81449131 116.65499783 263.0625 115.625 C257.29317508 113.98648531 251.64675576 112.22385557 246.03125 110.109375 C241.90105949 108.59781043 237.73444111 107.20397554 233.5625 105.8125 C232.78011963 105.55025635 231.99773926 105.2880127 231.19165039 105.01782227 C230.07777954 104.64741821 230.07777954 104.64741821 228.94140625 104.26953125 C227.94669312 103.93852417 227.94669312 103.93852417 226.93188477 103.60083008 C224.97512991 102.95827628 224.97512991 102.95827628 222.81616211 102.5456543 C222.21682861 102.36558838 221.61749512 102.18552246 221 102 C220.67 101.34 220.34 100.68 220 100 C221.14774902 100.39268066 222.29549805 100.78536133 223.47802734 101.18994141 C227.82788381 102.67795196 232.17805904 104.16502884 236.52832031 105.65185547 C238.39396426 106.28963049 240.25952713 106.92764272 242.125 107.56591797 C244.84092078 108.49512578 247.55715412 109.42341526 250.2734375 110.3515625 C251.07735931 110.6268277 251.88128113 110.9020929 252.70956421 111.18569946 C254.43903319 111.77627318 256.17282286 112.35428061 257.90975952 112.92251587 C260.19627933 113.71976412 262.4515877 114.60780434 264.68521118 115.5430603 C278.66228425 121.16585598 292.34973725 120.77003154 307.2265625 120.5859375 C309.91371616 120.57472276 312.60077319 120.56589759 315.28793335 120.56021118 C321.58814166 120.54173142 327.88770817 120.4927299 334.18763673 120.43211424 C342.08069613 120.35785584 349.97386478 120.32549223 357.8671875 120.29296875 C371.91195536 120.23491807 385.95532746 120.11466772 400 120 C400 81.06 400 42.12 400 2 C268.66 2 137.32 2 2 2 Z " fill="#000000" transform="translate(35,120)"/>
<path d="M0 0 C4.15258823 1.75331503 6.4732156 4.3000657 9 8 C11.16557896 15.02340281 11.3792053 24.75537678 9.09375 31.7890625 C6.60654512 36.04600931 3.77595484 38.50166123 -1 40 C-3.82499652 40.49819578 -6.22424997 40.77557721 -9 40 C-10.98 38.35 -12.96 36.7 -15 35 C-15.33 41.27 -15.66 47.54 -16 54 C-17.98 54 -19.96 54 -22 54 C-22 36.51 -22 19.02 -22 1 C-20.02 1 -18.04 1 -16 1 C-15.67 2.32 -15.34 3.64 -15 5 C-14.38125 4.360625 -13.7625 3.72125 -13.125 3.0625 C-9.16323875 -0.78273886 -5.29180948 -0.50529431 0 0 Z " fill="#0F0F0F" transform="translate(1096,63)"/>
<path d="M0 0 C4.33125 -0.061875 8.6625 -0.12375 13.125 -0.1875 C14.47996582 -0.21481201 15.83493164 -0.24212402 17.23095703 -0.27026367 C18.85300049 -0.28150269 18.85300049 -0.28150269 20.5078125 -0.29296875 C21.60754395 -0.3086792 22.70727539 -0.32438965 23.84033203 -0.34057617 C28.86593715 0.20112674 32.10723296 2.22368083 35.875 5.5 C38.70329471 9.16122292 38.64766249 12.89064735 38.41015625 17.37890625 C37.8090038 21.22055668 36.71651471 23.21557242 34 26 C28.14014348 29.98292567 22.93325966 30.52470489 16 30.25 C13.03 30.1675 10.06 30.085 7 30 C7 36.6 7 43.2 7 50 C4.69 50 2.38 50 0 50 C0 33.5 0 17 0 0 Z " fill="#0F0F0F" transform="translate(169,52)"/>
<path d="M0 0 C6.2184375 -0.0928125 6.2184375 -0.0928125 12.5625 -0.1875 C13.85615479 -0.21481201 15.14980957 -0.24212402 16.48266602 -0.27026367 C24.53668815 -0.32838613 29.65629831 0.15429643 35.9375 5.5 C38.70073471 9.15991353 38.6456514 12.92865181 38.41015625 17.37890625 C37.8090038 21.22055668 36.71651471 23.21557242 34 26 C28.14014348 29.98292567 22.93325966 30.52470489 16 30.25 C13.03 30.1675 10.06 30.085 7 30 C7 36.6 7 43.2 7 50 C4.69 50 2.38 50 0 50 C0 33.5 0 17 0 0 Z " fill="#0F0F0F" transform="translate(987,52)"/>
<path d="M0 0 C4.23692745 1.9530818 6.72363108 3.86258784 8.6015625 8.28125 C10.65422266 14.71980991 10.97013238 23.55873992 8.625 29.9375 C6.19754207 33.92865783 3.39693788 37.4396316 -1.21484375 38.828125 C-6.63007818 39.9518588 -11.67353494 40.09488328 -16.7109375 37.71875 C-24.33716119 30.80194247 -24.33716119 30.80194247 -24.8125 24.2578125 C-24.86015204 22.74527096 -24.88844261 21.23200898 -24.8984375 19.71875 C-24.90786377 18.6201062 -24.90786377 18.6201062 -24.91748047 17.49926758 C-24.79049085 12.04672789 -23.70855717 7.75595835 -19.86328125 3.63671875 C-13.59925186 -1.15342137 -7.78049737 -2.33161485 0 0 Z " fill="#131313" transform="translate(1056.3984375,63.71875)"/>
<path d="M0 0 C-2.98530836 1.62472252 -5.81416087 2.56774501 -9.11328125 3.3671875 C-10.10642334 3.61090088 -11.09956543 3.85461426 -12.12280273 4.10571289 C-13.17540283 4.35957764 -14.22800293 4.61344238 -15.3125 4.875 C-17.49759127 5.41196574 -19.68248786 5.94972435 -21.8671875 6.48828125 C-23.45418457 6.87814209 -23.45418457 6.87814209 -25.07324219 7.27587891 C-33.10784736 9.26375336 -41.09060783 11.41372786 -49.01538086 13.80249023 C-56.97929185 16.19968182 -64.98001965 18.24016442 -73.07861328 20.13134766 C-84.29692413 22.75552582 -95.41502307 25.71589712 -106.51171875 28.8125 C-120.15565125 32.61727603 -133.81368721 36.24652896 -147.56625366 39.63394165 C-156.40141102 41.81273464 -165.17021015 44.13443198 -173.89892578 46.70703125 C-183.31915382 49.44773058 -192.84800207 51.76605164 -202.37304688 54.109375 C-210.10805854 56.01389438 -217.81541565 57.99470397 -225.50830078 60.0625 C-230.41551426 61.38005697 -235.33241572 62.65931662 -240.25 63.9375 C-242.23699854 64.45565489 -244.22397741 64.9738852 -246.2109375 65.4921875 C-249.84027548 66.43829184 -253.47050594 67.38082829 -257.1015625 68.3203125 C-264.64936509 70.28087978 -272.15723988 72.31495508 -279.625 74.5625 C-285.95017382 76.46387845 -292.30268985 78.07850274 -298.74194336 79.54443359 C-304.7854874 80.92432809 -310.75642084 82.51473168 -316.73046875 84.16796875 C-319.84260905 84.95994711 -322.80121457 85.69686192 -326 86 C-326.99 85.34 -327.98 84.68 -329 84 C-327.94683594 83.75765625 -326.89367187 83.5153125 -325.80859375 83.265625 C-316.83017594 81.18520872 -307.9104451 78.95631083 -299.01464844 76.54296875 C-295.26433163 75.53221929 -291.50679095 74.5488581 -287.75 73.5625 C-286.13020582 73.13672833 -284.51041417 72.71094701 -282.890625 72.28515625 C-282.08173828 72.07262207 -281.27285156 71.86008789 -280.43945312 71.64111328 C-278.03764116 71.00989248 -275.63597519 70.37811981 -273.234375 69.74609375 C-272.45368652 69.54064941 -271.67299805 69.33520508 -270.86865234 69.12353516 C-269.28038577 68.70543241 -267.69217018 68.28713594 -266.10400391 67.86865234 C-262.27119766 66.85903127 -258.43762802 65.85264 -254.6015625 64.85546875 C-246.29783234 62.69150515 -238.01801902 60.45581573 -229.75170898 58.15258789 C-217.36851585 54.70338798 -204.95688614 51.44226548 -192.47583008 48.3659668 C-185.82463618 46.72225098 -179.24166374 44.96993357 -172.671875 43.02734375 C-166.41653608 41.27717978 -160.10056636 39.7656944 -153.79492188 38.20849609 C-148.58342949 36.91540066 -143.4001945 35.5853367 -138.25 34.0625 C-130.0072819 31.63936393 -121.65694382 29.64036913 -113.31982422 27.57104492 C-103.49193876 25.13017084 -93.69587996 22.6095461 -83.94921875 19.859375 C-74.20757331 17.11548187 -64.42957753 14.5867912 -54.60375977 12.16064453 C-48.31089048 10.5996149 -42.0788438 8.90756963 -35.859375 7.07421875 C-29.29111266 5.1967843 -22.63116568 3.63851106 -15.99609375 2.01757812 C-14.99191406 1.77072266 -13.98773437 1.52386719 -12.953125 1.26953125 C-11.59429199 0.93852417 -11.59429199 0.93852417 -10.20800781 0.60083008 C-6.12900528 -0.50912406 -4.35859475 -0.85276854 0 0 Z " fill="#2E2E2E" transform="translate(997,252)"/>
<path d="M0 0 C1.98 0 3.96 0 6 0 C6.33 5.94 6.66 11.88 7 18 C8.32 16.68 9.64 15.36 11 14 C16.12789443 12.29070186 20.41244889 12.38261901 25.375 14.3125 C28 16 28 16 30 19 C30.1712914 21.54229597 30.23242934 23.97189481 30.1953125 26.51171875 C30.1924826 27.23994339 30.18965271 27.96816803 30.18673706 28.71846008 C30.17555257 31.04164137 30.15045166 33.36443547 30.125 35.6875 C30.11496794 37.2636663 30.10584248 38.83983865 30.09765625 40.41601562 C30.07561896 44.27749267 30.04110141 48.13868071 30 52 C28.02 52 26.04 52 24 52 C23.98541748 51.0713916 23.97083496 50.1427832 23.95581055 49.18603516 C23.89480828 45.74533504 23.8206695 42.30544348 23.73754883 38.86523438 C23.70426537 37.37543428 23.67624403 35.88550705 23.65356445 34.39550781 C23.62007929 32.25530748 23.56777211 30.11627581 23.51171875 27.9765625 C23.48553467 26.68830566 23.45935059 25.40004883 23.43237305 24.07275391 C23.28968994 23.05874512 23.14700684 22.04473633 23 21 C19.33218328 18.55478885 16.26546767 18.27762241 12 19 C9.56880377 20.87015094 8.35930827 22.28138345 7 25 C6.84588894 27.0307477 6.75017547 29.06606421 6.68359375 31.1015625 C6.64169922 32.31328125 6.59980469 33.525 6.55664062 34.7734375 C6.51732422 36.04445312 6.47800781 37.31546875 6.4375 38.625 C6.37272461 40.543125 6.37272461 40.543125 6.30664062 42.5 C6.20030114 45.66655348 6.09827167 48.83318753 6 52 C4.02 52 2.04 52 0 52 C0 34.84 0 17.68 0 0 Z " fill="#0B0B0B" transform="translate(292,50)"/>
<path d="M0 0 C3.00933151 0.63098887 4.80643684 2.27518684 6.9375 4.40625 C7.618125 3.74625 8.29875 3.08625 9 2.40625 C12.64692609 -0.07676351 14.60315556 -0.06658757 18.9375 0.40625 C22.31781589 1.59392855 22.86966817 2.30450225 24.9375 5.40625 C25.16455078 8.31713867 25.16455078 8.31713867 25.1328125 11.82421875 C25.12636719 13.07783203 25.11992187 14.33144531 25.11328125 15.62304688 C25.09652344 16.93337891 25.07976562 18.24371094 25.0625 19.59375 C25.05246639 20.92902987 25.0433412 22.26431689 25.03515625 23.59960938 C25.01155292 26.86867015 24.97862594 30.13737028 24.9375 33.40625 C23.2875 33.40625 21.6375 33.40625 19.9375 33.40625 C19.907771 32.24053467 19.907771 32.24053467 19.87744141 31.05126953 C19.78242991 27.54424309 19.67265441 24.03783206 19.5625 20.53125 C19.5315625 19.30792969 19.500625 18.08460938 19.46875 16.82421875 C19.41074219 15.07431641 19.41074219 15.07431641 19.3515625 13.2890625 C19.3201416 12.21027832 19.2887207 11.13149414 19.25634766 10.02001953 C19.19073678 7.24863346 19.19073678 7.24863346 16.9375 5.40625 C12.87410275 4.93293895 12.87410275 4.93293895 9.27807617 6.56567383 C7.4123023 9.12733276 7.50573178 11.017918 7.42578125 14.16796875 C7.39033203 15.28623047 7.35488281 16.40449219 7.31835938 17.55664062 C7.29580078 18.72388672 7.27324219 19.89113281 7.25 21.09375 C7.21583984 22.27259766 7.18167969 23.45144531 7.14648438 24.66601562 C7.06392075 27.57933225 6.99479678 30.49234466 6.9375 33.40625 C4.9575 33.40625 2.9775 33.40625 0.9375 33.40625 C0.6075 24.49625 0.2775 15.58625 -0.0625 6.40625 C-6.5536133 4.68891214 -6.5536133 4.68891214 -9.46191406 6.99121094 C-11.38512902 9.89304778 -11.59818896 11.58363094 -11.671875 15.046875 C-11.70410156 16.11679688 -11.73632812 17.18671875 -11.76953125 18.2890625 C-11.78371094 19.40023437 -11.79789063 20.51140625 -11.8125 21.65625 C-11.84214844 22.78289062 -11.87179688 23.90953125 -11.90234375 25.0703125 C-11.97298912 27.84903021 -12.02571277 30.62691148 -12.0625 33.40625 C-13.7125 33.40625 -15.3625 33.40625 -17.0625 33.40625 C-17.0625 22.84625 -17.0625 12.28625 -17.0625 1.40625 C-15.4125 1.40625 -13.7625 1.40625 -12.0625 1.40625 C-11.7325 2.39625 -11.4025 3.38625 -11.0625 4.40625 C-10.4025 3.74625 -9.7425 3.08625 -9.0625 2.40625 C-5.68643925 0.15554283 -3.94829901 -0.17946814 0 0 Z " fill="#1C1C1C" transform="translate(265.0625,165.59375)"/>
<path d="M0 0 C3.4375 2 3.4375 2 6 4 C6.680625 3.34 7.36125 2.68 8.0625 2 C11.70942609 -0.48301351 13.66565556 -0.47283757 18 0 C21.38031589 1.18767855 21.93216817 1.89825225 24 5 C24.22705078 7.91088867 24.22705078 7.91088867 24.1953125 11.41796875 C24.18886719 12.67158203 24.18242188 13.92519531 24.17578125 15.21679688 C24.15902344 16.52712891 24.14226563 17.83746094 24.125 19.1875 C24.11496639 20.52277987 24.1058412 21.85806689 24.09765625 23.19335938 C24.07405292 26.46242015 24.04112594 29.73112028 24 33 C22.35 33 20.7 33 19 33 C18.970271 31.83428467 18.970271 31.83428467 18.93994141 30.64501953 C18.84492991 27.13799309 18.73515441 23.63158206 18.625 20.125 C18.5940625 18.90167969 18.563125 17.67835938 18.53125 16.41796875 C18.47324219 14.66806641 18.47324219 14.66806641 18.4140625 12.8828125 C18.3826416 11.80402832 18.3512207 10.72524414 18.31884766 9.61376953 C18.25323678 6.84238346 18.25323678 6.84238346 16 5 C12.60402937 4.78323592 10.24221555 4.91926148 7 6 C6.67 14.91 6.34 23.82 6 33 C4.02 33 2.04 33 0 33 C-0.33 24.09 -0.66 15.18 -1 6 C-7.4911133 4.28266214 -7.4911133 4.28266214 -10.39941406 6.58496094 C-12.32262902 9.48679778 -12.53568896 11.17738094 -12.609375 14.640625 C-12.64160156 15.71054687 -12.67382812 16.78046875 -12.70703125 17.8828125 C-12.72121094 18.99398437 -12.73539063 20.10515625 -12.75 21.25 C-12.77964844 22.37664063 -12.80929687 23.50328125 -12.83984375 24.6640625 C-12.91048912 27.44278021 -12.96321277 30.22066148 -13 33 C-14.65 33 -16.3 33 -18 33 C-18 22.44 -18 11.88 -18 1 C-16.35 1 -14.7 1 -13 1 C-12.67 1.99 -12.34 2.98 -12 4 C-11.319375 3.34 -10.63875 2.68 -9.9375 2 C-6.23305758 -0.52217356 -4.40834824 -0.61871554 0 0 Z " fill="#1B1B1B" transform="translate(666,826)"/>
<path d="M0 0 C3.4375 2 3.4375 2 6 4 C6.680625 3.34 7.36125 2.68 8.0625 2 C11.70942609 -0.48301351 13.66565556 -0.47283757 18 0 C21.38031589 1.18767855 21.93216817 1.89825225 24 5 C24.22705078 7.91088867 24.22705078 7.91088867 24.1953125 11.41796875 C24.18886719 12.67158203 24.18242188 13.92519531 24.17578125 15.21679688 C24.15902344 16.52712891 24.14226563 17.83746094 24.125 19.1875 C24.11496639 20.52277987 24.1058412 21.85806689 24.09765625 23.19335938 C24.07405292 26.46242015 24.04112594 29.73112028 24 33 C22.35 33 20.7 33 19 33 C18.970271 31.83428467 18.970271 31.83428467 18.93994141 30.64501953 C18.84492991 27.13799309 18.73515441 23.63158206 18.625 20.125 C18.5940625 18.90167969 18.563125 17.67835938 18.53125 16.41796875 C18.47324219 14.66806641 18.47324219 14.66806641 18.4140625 12.8828125 C18.3826416 11.80402832 18.3512207 10.72524414 18.31884766 9.61376953 C18.25323678 6.84238346 18.25323678 6.84238346 16 5 C12.60402937 4.78323592 10.24221555 4.91926148 7 6 C6.67 14.91 6.34 23.82 6 33 C4.02 33 2.04 33 0 33 C-0.33 24.09 -0.66 15.18 -1 6 C-7.4911133 4.28266214 -7.4911133 4.28266214 -10.39941406 6.58496094 C-12.32262902 9.48679778 -12.53568896 11.17738094 -12.609375 14.640625 C-12.64160156 15.71054687 -12.67382812 16.78046875 -12.70703125 17.8828125 C-12.72121094 18.99398437 -12.73539063 20.10515625 -12.75 21.25 C-12.77964844 22.37664063 -12.80929687 23.50328125 -12.83984375 24.6640625 C-12.91048912 27.44278021 -12.96321277 30.22066148 -13 33 C-14.65 33 -16.3 33 -18 33 C-18 22.44 -18 11.88 -18 1 C-16.35 1 -14.7 1 -13 1 C-12.67 1.99 -12.34 2.98 -12 4 C-11.319375 3.34 -10.63875 2.68 -9.9375 2 C-6.23305758 -0.52217356 -4.40834824 -0.61871554 0 0 Z " fill="#1B1B1B" transform="translate(666,666)"/>
<path d="M0 0 C3.4375 2 3.4375 2 6 4 C6.680625 3.34 7.36125 2.68 8.0625 2 C11.70942609 -0.48301351 13.66565556 -0.47283757 18 0 C21.38031589 1.18767855 21.93216817 1.89825225 24 5 C24.22705078 7.91088867 24.22705078 7.91088867 24.1953125 11.41796875 C24.18886719 12.67158203 24.18242188 13.92519531 24.17578125 15.21679688 C24.15902344 16.52712891 24.14226563 17.83746094 24.125 19.1875 C24.11496639 20.52277987 24.1058412 21.85806689 24.09765625 23.19335938 C24.07405292 26.46242015 24.04112594 29.73112028 24 33 C22.35 33 20.7 33 19 33 C18.970271 31.83428467 18.970271 31.83428467 18.93994141 30.64501953 C18.84492991 27.13799309 18.73515441 23.63158206 18.625 20.125 C18.5940625 18.90167969 18.563125 17.67835938 18.53125 16.41796875 C18.47324219 14.66806641 18.47324219 14.66806641 18.4140625 12.8828125 C18.3826416 11.80402832 18.3512207 10.72524414 18.31884766 9.61376953 C18.25323678 6.84238346 18.25323678 6.84238346 16 5 C12.60402937 4.78323592 10.24221555 4.91926148 7 6 C6.67 14.91 6.34 23.82 6 33 C4.02 33 2.04 33 0 33 C-0.33 24.09 -0.66 15.18 -1 6 C-7.4911133 4.28266214 -7.4911133 4.28266214 -10.39941406 6.58496094 C-12.32262902 9.48679778 -12.53568896 11.17738094 -12.609375 14.640625 C-12.64160156 15.71054687 -12.67382812 16.78046875 -12.70703125 17.8828125 C-12.72121094 18.99398437 -12.73539063 20.10515625 -12.75 21.25 C-12.77964844 22.37664063 -12.80929687 23.50328125 -12.83984375 24.6640625 C-12.91048912 27.44278021 -12.96321277 30.22066148 -13 33 C-14.65 33 -16.3 33 -18 33 C-18 22.44 -18 11.88 -18 1 C-16.35 1 -14.7 1 -13 1 C-12.67 1.99 -12.34 2.98 -12 4 C-11.319375 3.34 -10.63875 2.68 -9.9375 2 C-6.23305758 -0.52217356 -4.40834824 -0.61871554 0 0 Z " fill="#1B1B1B" transform="translate(666,506)"/>
<path d="M0 0 C3.4375 2 3.4375 2 6 4 C6.680625 3.34 7.36125 2.68 8.0625 2 C11.70942609 -0.48301351 13.66565556 -0.47283757 18 0 C21.38031589 1.18767855 21.93216817 1.89825225 24 5 C24.22705078 7.91088867 24.22705078 7.91088867 24.1953125 11.41796875 C24.18886719 12.67158203 24.18242188 13.92519531 24.17578125 15.21679688 C24.15902344 16.52712891 24.14226563 17.83746094 24.125 19.1875 C24.11496639 20.52277987 24.1058412 21.85806689 24.09765625 23.19335938 C24.07405292 26.46242015 24.04112594 29.73112028 24 33 C22.35 33 20.7 33 19 33 C18.970271 31.83428467 18.970271 31.83428467 18.93994141 30.64501953 C18.84492991 27.13799309 18.73515441 23.63158206 18.625 20.125 C18.5940625 18.90167969 18.563125 17.67835938 18.53125 16.41796875 C18.47324219 14.66806641 18.47324219 14.66806641 18.4140625 12.8828125 C18.3826416 11.80402832 18.3512207 10.72524414 18.31884766 9.61376953 C18.25323678 6.84238346 18.25323678 6.84238346 16 5 C12.60402937 4.78323592 10.24221555 4.91926148 7 6 C6.67 14.91 6.34 23.82 6 33 C4.02 33 2.04 33 0 33 C-0.33 24.09 -0.66 15.18 -1 6 C-7.4911133 4.28266214 -7.4911133 4.28266214 -10.39941406 6.58496094 C-12.32262902 9.48679778 -12.53568896 11.17738094 -12.609375 14.640625 C-12.64160156 15.71054687 -12.67382812 16.78046875 -12.70703125 17.8828125 C-12.72121094 18.99398438 -12.73539063 20.10515625 -12.75 21.25 C-12.77964844 22.37664062 -12.80929687 23.50328125 -12.83984375 24.6640625 C-12.91048912 27.44278021 -12.96321277 30.22066148 -13 33 C-14.65 33 -16.3 33 -18 33 C-18 22.44 -18 11.88 -18 1 C-16.35 1 -14.7 1 -13 1 C-12.67 1.99 -12.34 2.98 -12 4 C-11.319375 3.34 -10.63875 2.68 -9.9375 2 C-6.23305758 -0.52217356 -4.40834824 -0.61871554 0 0 Z " fill="#1B1B1B" transform="translate(666,386)"/>
<path d="M0 0 C4.40617281 2.16303029 7.1644597 4.41114924 9 9 C9 11.97 9 14.94 9 18 C1.74 18 -5.52 18 -13 18 C-11.60764647 25.19433044 -11.60764647 25.19433044 -9.8125 28 C-6.78028818 29.67294445 -4.37657644 29.41466728 -1 29 C0.35308313 27.68671343 1.68870078 26.35500919 3 25 C5.75 25.25 5.75 25.25 8 26 C7.0967987 29.3418448 6.33647374 30.75605654 3.5 32.8125 C-1.16789351 34.39624958 -5.13736156 35.06066768 -10 34 C-13.62695506 31.82738862 -17.13562469 29.24349098 -18.6953125 25.1953125 C-20.70492946 10.71576466 -20.70492946 10.71576466 -17.3125 5.3125 C-11.98335775 -0.01664225 -7.42073348 -1.0702981 0 0 Z " fill="#131313" transform="translate(232,166)"/>
<path d="M0 0 C3.36417982 2.3471022 4.90113013 4.16484719 6.6875 7.875 C6.6875 10.845 6.6875 13.815 6.6875 16.875 C-0.5725 16.875 -7.8325 16.875 -15.3125 16.875 C-13.92014647 24.06933044 -13.92014647 24.06933044 -12.125 26.875 C-9.09278818 28.54794445 -6.68907644 28.28966728 -3.3125 27.875 C-1.95941687 26.56171343 -0.62379922 25.23000919 0.6875 23.875 C3.4375 24.125 3.4375 24.125 5.6875 24.875 C4.7842987 28.2168448 4.02397374 29.63105654 1.1875 31.6875 C-3.45727463 33.26340568 -7.46655498 33.82428465 -12.3125 32.875 C-17.06233319 30.26041292 -19.72358416 27.05753858 -21.3125 21.875 C-22.61019645 8.97348297 -22.61019645 8.97348297 -19.625 4.1875 C-13.6886794 -1.7488206 -7.90990871 -2.68638409 0 0 Z " fill="#121212" transform="translate(634.3125,827.125)"/>
<path d="M0 0 C3.36417982 2.3471022 4.90113013 4.16484719 6.6875 7.875 C6.6875 10.845 6.6875 13.815 6.6875 16.875 C-0.5725 16.875 -7.8325 16.875 -15.3125 16.875 C-13.92014647 24.06933044 -13.92014647 24.06933044 -12.125 26.875 C-9.09278818 28.54794445 -6.68907644 28.28966728 -3.3125 27.875 C-1.95941687 26.56171343 -0.62379922 25.23000919 0.6875 23.875 C3.4375 24.125 3.4375 24.125 5.6875 24.875 C4.7842987 28.2168448 4.02397374 29.63105654 1.1875 31.6875 C-3.45727463 33.26340568 -7.46655498 33.82428465 -12.3125 32.875 C-17.06233319 30.26041292 -19.72358416 27.05753858 -21.3125 21.875 C-22.61019645 8.97348297 -22.61019645 8.97348297 -19.625 4.1875 C-13.6886794 -1.7488206 -7.90990871 -2.68638409 0 0 Z " fill="#121212" transform="translate(634.3125,667.125)"/>
<path d="M0 0 C3.36417982 2.3471022 4.90113013 4.16484719 6.6875 7.875 C6.6875 10.845 6.6875 13.815 6.6875 16.875 C-0.5725 16.875 -7.8325 16.875 -15.3125 16.875 C-13.92014647 24.06933044 -13.92014647 24.06933044 -12.125 26.875 C-9.09278818 28.54794445 -6.68907644 28.28966728 -3.3125 27.875 C-1.95941687 26.56171343 -0.62379922 25.23000919 0.6875 23.875 C3.4375 24.125 3.4375 24.125 5.6875 24.875 C4.7842987 28.2168448 4.02397374 29.63105654 1.1875 31.6875 C-3.45727463 33.26340568 -7.46655498 33.82428465 -12.3125 32.875 C-17.06233319 30.26041292 -19.72358416 27.05753858 -21.3125 21.875 C-22.61019645 8.97348297 -22.61019645 8.97348297 -19.625 4.1875 C-13.6886794 -1.7488206 -7.90990871 -2.68638409 0 0 Z " fill="#121212" transform="translate(634.3125,507.125)"/>
<path d="M0 0 C3.36417982 2.3471022 4.90113013 4.16484719 6.6875 7.875 C6.6875 10.845 6.6875 13.815 6.6875 16.875 C-0.5725 16.875 -7.8325 16.875 -15.3125 16.875 C-13.92014647 24.06933044 -13.92014647 24.06933044 -12.125 26.875 C-9.09278818 28.54794445 -6.68907644 28.28966728 -3.3125 27.875 C-1.95941687 26.56171343 -0.62379922 25.23000919 0.6875 23.875 C3.4375 24.125 3.4375 24.125 5.6875 24.875 C4.7842987 28.2168448 4.02397374 29.63105654 1.1875 31.6875 C-3.45727463 33.26340568 -7.46655498 33.82428465 -12.3125 32.875 C-17.06233319 30.26041292 -19.72358416 27.05753858 -21.3125 21.875 C-22.61019645 8.97348297 -22.61019645 8.97348297 -19.625 4.1875 C-13.6886794 -1.7488206 -7.90990871 -2.68638409 0 0 Z " fill="#121212" transform="translate(634.3125,387.125)"/>
<path d="M0 0 C2.75796127 1.57034937 3.25040898 1.96987471 4.375 5.0625 C4.375 5.805 4.375 6.5475 4.375 7.3125 C2.725 7.6425 1.075 7.9725 -0.625 8.3125 C-1.285 7.3225 -1.945 6.3325 -2.625 5.3125 C-5.45216095 4.37011302 -7.25676123 4.17784353 -10.1875 4.1875 C-11.36505859 4.18363281 -11.36505859 4.18363281 -12.56640625 4.1796875 C-14.68938977 4.18273634 -14.68938977 4.18273634 -16.625 5.3125 C-16.625 7.2925 -16.625 9.2725 -16.625 11.3125 C-12.6087554 13.14600297 -8.77378941 14.56786954 -4.5 15.6875 C-0.01141203 17.03544486 2.76250179 18.21958614 5.375 22.3125 C6.11874059 25.81211658 6.20006637 28.82315683 5.375 32.3125 C3.03497848 35.53734215 0.13997927 37.05750691 -3.625 38.3125 C-15.98050525 39.3187561 -15.98050525 39.3187561 -20.25 36.5625 C-22.35656643 34.56680548 -24.1328762 32.79937301 -25.625 30.3125 C-25.625 29.6525 -25.625 28.9925 -25.625 28.3125 C-22.9375 27.5 -22.9375 27.5 -19.625 27.3125 C-18.861875 28.116875 -18.09875 28.92125 -17.3125 29.75 C-14.37481331 32.5510501 -13.89278298 32.69993094 -10.0625 32.75 C-6.74301512 32.65219889 -4.51521973 31.94439277 -1.625 30.3125 C-1.625 28.3325 -1.625 26.3525 -1.625 24.3125 C-8.40986534 21.48840498 -8.40986534 21.48840498 -15.4375 19.375 C-19.45749945 18.03500018 -21.18372735 16.78946408 -23.625 13.3125 C-24.32837942 10.16158894 -24.34930716 7.46066968 -23.625 4.3125 C-17.9154653 -3.09446394 -8.30310142 -3.72363319 0 0 Z " fill="#101010" transform="translate(278.625,64.6875)"/>
<path d="M0 0 C1.98 0 3.96 0 6 0 C6.01458252 0.89307861 6.02916504 1.78615723 6.04418945 2.70629883 C6.10527077 6.02217278 6.17942478 9.33721899 6.26245117 12.65258789 C6.29569001 14.08704628 6.32372535 15.52163513 6.34643555 16.95629883 C6.38000271 19.01960807 6.43231413 21.08172303 6.48828125 23.14453125 C6.51446533 24.38565674 6.54064941 25.62678223 6.56762695 26.90551758 C6.75574412 29.95423821 6.75574412 29.95423821 8.32104492 31.8972168 C11.2648916 33.83081509 13.59959823 33.46902093 17 33 C19.63016161 30.8272578 21.47336894 29.05326212 23 26 C23.15378852 24.04225931 23.24971463 22.07982648 23.31640625 20.1171875 C23.35830078 18.95058594 23.40019531 17.78398438 23.44335938 16.58203125 C23.48267578 15.35871094 23.52199219 14.13539062 23.5625 12.875 C23.60568359 11.64394531 23.64886719 10.41289063 23.69335938 9.14453125 C23.79968704 6.09647147 23.90171781 3.0483281 24 0 C25.98 0 27.96 0 30 0 C30 12.54 30 25.08 30 38 C28.02 38 26.04 38 24 38 C23.67 36.68 23.34 35.36 23 34 C21.824375 34.9590625 21.824375 34.9590625 20.625 35.9375 C17.31650808 38.53702937 15.74528812 39.15327834 11.625 39.1875 C10.85414063 39.20167969 10.08328125 39.21585938 9.2890625 39.23046875 C6.64257727 38.96401375 5.19782537 38.50591738 3 37 C-0.1585915 32.8290209 -0.35464845 29.67225404 -0.29296875 24.51171875 C-0.28872391 23.80852005 -0.28447906 23.10532135 -0.28010559 22.3808136 C-0.2634006 20.14930869 -0.22576614 17.91872887 -0.1875 15.6875 C-0.17244248 14.1686329 -0.15875594 12.64975154 -0.14648438 11.13085938 C-0.11352473 7.42027566 -0.06180016 3.71022822 0 0 Z " fill="#0C0C0C" transform="translate(216,64)"/>
<path d="M0 0 C3.44312714 2.1244827 4.71617547 3.14852641 6 7 C6.17431213 9.62039714 6.27684435 12.19062084 6.3125 14.8125 C6.34150391 15.51181641 6.37050781 16.21113281 6.40039062 16.93164062 C6.46261805 22.04865 5.42014651 24.97593572 2 29 C-1.63782632 30.21260877 -4.17735999 30.39544552 -8 30 C-10.63016161 27.8272578 -12.47336894 26.05326212 -14 23 C-14.17759374 20.21381629 -14.2775623 17.47552812 -14.3125 14.6875 C-14.34150391 13.92759766 -14.37050781 13.16769531 -14.40039062 12.38476562 C-14.44542803 8.39722281 -14.3002138 6.47229512 -12.10546875 3.01953125 C-8.46761505 -0.46983863 -4.88263948 -0.69217495 0 0 Z " fill="#F9F9F9" transform="translate(1053,68)"/>
<path d="M0 0 C4.6 2.2 4.6 2.2 6 5 C6.15144814 7.95032632 6.23142405 10.86124618 6.25 13.8125 C6.270625 14.62009766 6.29125 15.42769531 6.3125 16.25976562 C6.34376365 21.03138049 6.05691805 24.1046554 3 28 C1 30 1 30 -2.8125 30.4375 C-6.36354382 30.36002268 -6.95810345 30.03298239 -9.9375 27.6875 C-14.47158845 21.77944535 -13.77986679 14.10128703 -13 7 C-10.39631432 0.9464308 -6.5866598 -1.19757451 0 0 Z " fill="#F6F6F6" transform="translate(1093,68)"/>
<path d="M0 0 C27.57558537 8.8753126 55.07256875 17.97836845 82.55089784 27.14983463 C88.25318161 29.05272066 93.9560555 30.95383659 99.65885925 32.85516357 C110.39261156 36.43410526 121.12585449 40.0145719 131.85890168 43.59562755 C144.1057956 47.68168863 156.3532771 51.76598717 168.60080111 55.85015917 C193.73450816 64.23151893 218.86749976 72.61502224 244 81 C244 81.66 244 82.32 244 83 C237.46197232 81.65349946 231.23226409 79.88306618 224.91088867 77.75048828 C223.94327606 77.42809677 222.97566345 77.10570526 221.97872925 76.77354431 C218.7903674 75.7100629 215.60418143 74.64021384 212.41796875 73.5703125 C210.1630814 72.81681238 207.90805861 72.06371745 205.65290833 71.31100464 C199.70273539 69.32380038 193.75437644 67.33122034 187.80639648 65.33746338 C181.88825033 63.35466683 175.96849273 61.37669509 170.04882812 59.3984375 C160.90595991 56.34249162 151.76394782 53.28399979 142.62255859 50.22363281 C127.57623017 45.1868149 112.52369598 40.16867929 97.46948242 35.15548706 C92.31263987 33.43803641 87.15631346 31.71903834 82 30 C79.1102841 29.0367421 76.22055672 28.07351864 73.33081055 27.11035156 C71.28273175 26.42760224 69.23472211 25.74464542 67.18676758 25.06152344 C62.68457035 23.55999113 58.18241486 22.05848435 53.67578125 20.5703125 C46.21825205 18.1035843 38.77946895 15.58572763 31.3515625 13.03125 C30.57381973 12.76391052 29.79607697 12.49657104 28.99476624 12.22113037 C25.04398563 10.86271056 21.09403632 9.50194097 17.14526367 8.13769531 C15.66587092 7.62820277 14.18646082 7.11876061 12.70703125 6.609375 C12.03471466 6.3762561 11.36239807 6.14313721 10.66970825 5.9029541 C6.47708661 4.46173015 2.27019982 3.18403664 -2 2 C-1.34 1.34 -0.68 0.68 0 0 Z " fill="#1C1C1C" transform="translate(331,245)"/>
<path d="M0 0 C4.021875 -0.0928125 4.021875 -0.0928125 8.125 -0.1875 C8.95789551 -0.21481201 9.79079102 -0.24212402 10.64892578 -0.27026367 C15.52315284 -0.32434422 18.74507709 0.3688405 23 3 C24.72584734 4.72584734 24.2533507 6.96209367 24.3125 9.3125 C24.27129699 14.60708712 24.27129699 14.60708712 22.1875 17.625 C19.06958624 19.58483151 16.59459364 20.12477138 12.98828125 20.09765625 C11.96408081 20.09390991 11.96408081 20.09390991 10.91918945 20.09008789 C10.05898193 20.08098389 9.19877441 20.07187988 8.3125 20.0625 C4.1978125 20.0315625 4.1978125 20.0315625 0 20 C0 13.4 0 6.8 0 0 Z " fill="#FCFCFC" transform="translate(994,57)"/>
<path d="M0 0 C4.021875 -0.0928125 4.021875 -0.0928125 8.125 -0.1875 C8.95789551 -0.21481201 9.79079102 -0.24212402 10.64892578 -0.27026367 C15.52315284 -0.32434422 18.74507709 0.3688405 23 3 C24.72584734 4.72584734 24.2533507 6.96209367 24.3125 9.3125 C24.27129699 14.60708712 24.27129699 14.60708712 22.1875 17.625 C19.06958624 19.58483151 16.59459364 20.12477138 12.98828125 20.09765625 C11.96408081 20.09390991 11.96408081 20.09390991 10.91918945 20.09008789 C10.05898193 20.08098389 9.19877441 20.07187988 8.3125 20.0625 C4.1978125 20.0315625 4.1978125 20.0315625 0 20 C0 13.4 0 6.8 0 0 Z " fill="#FCFCFC" transform="translate(176,57)"/>
<path d="M0 0 C1.32 0 2.64 0 4 0 C4 2.31 4 4.62 4 7 C5.65 7 7.3 7 9 7 C9 8.32 9 9.64 9 11 C7.35 11 5.7 11 4 11 C4.33 18.92 4.66 26.84 5 35 C6.65 35.33 8.3 35.66 10 36 C10 37.32 10 38.64 10 40 C2.62540717 40.49163952 2.62540717 40.49163952 -0.109375 38.34179688 C-2.49405462 35.38804599 -2.46727553 33.89650099 -2.390625 30.140625 C-2.37773438 29.02558594 -2.36484375 27.91054688 -2.3515625 26.76171875 C-2.30128906 25.02341797 -2.30128906 25.02341797 -2.25 23.25 C-2.23195313 22.07566406 -2.21390625 20.90132812 -2.1953125 19.69140625 C-2.1481912 16.7934466 -2.08241305 13.89713582 -2 11 C-2.99 11 -3.98 11 -5 11 C-5 9.68 -5 8.36 -5 7 C-3.68 7 -2.36 7 -1 7 C-0.67 4.69 -0.34 2.38 0 0 Z " fill="#191919" transform="translate(600,820)"/>
<path d="M0 0 C1.32 0 2.64 0 4 0 C4 2.31 4 4.62 4 7 C5.65 7 7.3 7 9 7 C9 8.32 9 9.64 9 11 C7.35 11 5.7 11 4 11 C4.33 18.92 4.66 26.84 5 35 C6.65 35.33 8.3 35.66 10 36 C10 37.32 10 38.64 10 40 C2.62540717 40.49163952 2.62540717 40.49163952 -0.109375 38.34179688 C-2.49405462 35.38804599 -2.46727553 33.89650099 -2.390625 30.140625 C-2.37773438 29.02558594 -2.36484375 27.91054688 -2.3515625 26.76171875 C-2.30128906 25.02341797 -2.30128906 25.02341797 -2.25 23.25 C-2.23195313 22.07566406 -2.21390625 20.90132812 -2.1953125 19.69140625 C-2.1481912 16.7934466 -2.08241305 13.89713582 -2 11 C-2.99 11 -3.98 11 -5 11 C-5 9.68 -5 8.36 -5 7 C-3.68 7 -2.36 7 -1 7 C-0.67 4.69 -0.34 2.38 0 0 Z " fill="#191919" transform="translate(600,660)"/>
<path d="M0 0 C1.32 0 2.64 0 4 0 C4 2.31 4 4.62 4 7 C5.65 7 7.3 7 9 7 C9 8.32 9 9.64 9 11 C7.35 11 5.7 11 4 11 C4.33 18.92 4.66 26.84 5 35 C6.65 35.33 8.3 35.66 10 36 C10 37.32 10 38.64 10 40 C2.62540717 40.49163952 2.62540717 40.49163952 -0.109375 38.34179688 C-2.49405462 35.38804599 -2.46727553 33.89650099 -2.390625 30.140625 C-2.37773438 29.02558594 -2.36484375 27.91054688 -2.3515625 26.76171875 C-2.30128906 25.02341797 -2.30128906 25.02341797 -2.25 23.25 C-2.23195313 22.07566406 -2.21390625 20.90132812 -2.1953125 19.69140625 C-2.1481912 16.7934466 -2.08241305 13.89713582 -2 11 C-2.99 11 -3.98 11 -5 11 C-5 9.68 -5 8.36 -5 7 C-3.68 7 -2.36 7 -1 7 C-0.67 4.69 -0.34 2.38 0 0 Z " fill="#191919" transform="translate(600,500)"/>
<path d="M0 0 C1.32 0 2.64 0 4 0 C4 2.31 4 4.62 4 7 C5.65 7 7.3 7 9 7 C9 8.32 9 9.64 9 11 C7.35 11 5.7 11 4 11 C4.33 18.92 4.66 26.84 5 35 C6.65 35.33 8.3 35.66 10 36 C10 37.32 10 38.64 10 40 C2.62540717 40.49163952 2.62540717 40.49163952 -0.109375 38.34179688 C-2.49405462 35.38804599 -2.46727553 33.89650099 -2.390625 30.140625 C-2.37773438 29.02558594 -2.36484375 27.91054688 -2.3515625 26.76171875 C-2.30128906 25.02341797 -2.30128906 25.02341797 -2.25 23.25 C-2.23195313 22.07566406 -2.21390625 20.90132813 -2.1953125 19.69140625 C-2.1481912 16.7934466 -2.08241305 13.89713582 -2 11 C-2.99 11 -3.98 11 -5 11 C-5 9.68 -5 8.36 -5 7 C-3.68 7 -2.36 7 -1 7 C-0.67 4.69 -0.34 2.38 0 0 Z " fill="#191919" transform="translate(600,380)"/>
<path d="M0 0 C1.32 0 2.64 0 4 0 C4 2.31 4 4.62 4 7 C5.65 7 7.3 7 9 7 C9 8.32 9 9.64 9 11 C7.35 11 5.7 11 4 11 C4.33 18.92 4.66 26.84 5 35 C6.65 35.33 8.3 35.66 10 36 C10 37.32 10 38.64 10 40 C2.62540717 40.49163952 2.62540717 40.49163952 -0.109375 38.34179688 C-2.49405462 35.38804599 -2.46727553 33.89650099 -2.390625 30.140625 C-2.37773437 29.02558594 -2.36484375 27.91054687 -2.3515625 26.76171875 C-2.30128906 25.02341797 -2.30128906 25.02341797 -2.25 23.25 C-2.23195312 22.07566406 -2.21390625 20.90132812 -2.1953125 19.69140625 C-2.1481912 16.7934466 -2.08241305 13.89713582 -2 11 C-2.99 11 -3.98 11 -5 11 C-5 9.68 -5 8.36 -5 7 C-3.68 7 -2.36 7 -1 7 C-0.67 4.69 -0.34 2.38 0 0 Z " fill="#191919" transform="translate(200,160)"/>
<path d="M0 0 C-4.67967184 2.1171548 -9.14605335 3.68352991 -14.15625 4.90234375 C-14.8210437 5.06618057 -15.4858374 5.2300174 -16.17077637 5.39881897 C-18.27918167 5.91736496 -20.38943789 6.42781138 -22.5 6.9375 C-25.26100011 7.61090676 -28.02122056 8.2874706 -30.78125 8.96484375 C-31.46295258 9.13184784 -32.14465515 9.29885193 -32.84701538 9.47091675 C-42.75582683 11.90934281 -52.61383757 14.521336 -62.375 17.5 C-68.78259512 19.42257443 -75.21901616 21.05949941 -81.7409668 22.54418945 C-87.78482638 23.92421695 -93.75609461 25.5146414 -99.73046875 27.16796875 C-102.84260905 27.95994711 -105.80121457 28.69686192 -109 29 C-109.99 28.34 -110.98 27.68 -112 27 C-110.94683594 26.75765625 -109.89367187 26.5153125 -108.80859375 26.265625 C-99.83017594 24.18520872 -90.9104451 21.95631083 -82.01464844 19.54296875 C-78.26433163 18.53221929 -74.50679095 17.5488581 -70.75 16.5625 C-69.13020582 16.13672833 -67.51041417 15.71094701 -65.890625 15.28515625 C-65.08173828 15.07262207 -64.27285156 14.86008789 -63.43945312 14.64111328 C-59.45936444 13.59510519 -55.47970044 12.54748409 -51.5 11.5 C-49.91666878 11.08332532 -48.33333544 10.66665866 -46.75 10.25 C-45.96625 10.04375 -45.1825 9.8375 -44.375 9.625 C-42 9 -39.625 8.375 -37.25 7.75 C-36.07256226 7.4398999 -36.07256226 7.4398999 -34.87133789 7.12353516 C-33.30054026 6.71049931 -31.72941719 6.298699 -30.15795898 5.88818359 C-26.00420809 4.80129336 -21.85957228 3.68850109 -17.72265625 2.5390625 C-16.85898437 2.30251953 -15.9953125 2.06597656 -15.10546875 1.82226562 C-13.44834376 1.36789264 -11.79325317 0.9060128 -10.140625 0.43554688 C-6.35182546 -0.59508513 -3.75322214 -1.17721567 0 0 Z " fill="#2B2B2B" transform="translate(780,309)"/>
<path d="M0 0 C1.65 0 3.3 0 5 0 C5 13.53 5 27.06 5 41 C3.35 41 1.7 41 0 41 C0 27.47 0 13.94 0 0 Z " fill="#070707" transform="translate(583,818)"/>
<path d="M0 0 C1.65 0 3.3 0 5 0 C5 13.53 5 27.06 5 41 C3.35 41 1.7 41 0 41 C0 27.47 0 13.94 0 0 Z " fill="#070707" transform="translate(583,658)"/>
<path d="M0 0 C1.65 0 3.3 0 5 0 C5 13.53 5 27.06 5 41 C3.35 41 1.7 41 0 41 C0 27.47 0 13.94 0 0 Z " fill="#070707" transform="translate(583,498)"/>
<path d="M0 0 C1.65 0 3.3 0 5 0 C5 13.53 5 27.06 5 41 C3.35 41 1.7 41 0 41 C0 27.47 0 13.94 0 0 Z " fill="#070707" transform="translate(583,378)"/>
<path d="M0 0 C1.65 0 3.3 0 5 0 C5 13.53 5 27.06 5 41 C3.35 41 1.7 41 0 41 C0 27.47 0 13.94 0 0 Z " fill="#070707" transform="translate(183,158)"/>
<path d="M0 0 C7.73512476 -0.2975048 7.73512476 -0.2975048 11 2 C13.39112209 5.58668313 13.23381027 7.16396569 13.1953125 11.41796875 C13.18564453 13.29838867 13.18564453 13.29838867 13.17578125 15.21679688 C13.15902344 16.52712891 13.14226563 17.83746094 13.125 19.1875 C13.11496639 20.52277987 13.1058412 21.85806689 13.09765625 23.19335938 C13.07405292 26.46242015 13.04112594 29.73112028 13 33 C11.35 33 9.7 33 8 33 C7.98018066 32.22285645 7.96036133 31.44571289 7.93994141 30.64501953 C7.84492991 27.13799309 7.73515441 23.63158206 7.625 20.125 C7.5940625 18.90167969 7.563125 17.67835938 7.53125 16.41796875 C7.49257813 15.25136719 7.45390625 14.08476563 7.4140625 12.8828125 C7.36693115 11.26463623 7.36693115 11.26463623 7.31884766 9.61376953 C7.25323678 6.84238346 7.25323678 6.84238346 5 5 C2.67724823 4.59952556 0.34260643 4.2602896 -2 4 C-1.34 2.68 -0.68 1.36 0 0 Z " fill="#0E0E0E" transform="translate(677,826)"/>
<path d="M0 0 C7.73512476 -0.2975048 7.73512476 -0.2975048 11 2 C13.39112209 5.58668313 13.23381027 7.16396569 13.1953125 11.41796875 C13.18564453 13.29838867 13.18564453 13.29838867 13.17578125 15.21679688 C13.15902344 16.52712891 13.14226563 17.83746094 13.125 19.1875 C13.11496639 20.52277987 13.1058412 21.85806689 13.09765625 23.19335938 C13.07405292 26.46242015 13.04112594 29.73112028 13 33 C11.35 33 9.7 33 8 33 C7.98018066 32.22285645 7.96036133 31.44571289 7.93994141 30.64501953 C7.84492991 27.13799309 7.73515441 23.63158206 7.625 20.125 C7.5940625 18.90167969 7.563125 17.67835938 7.53125 16.41796875 C7.49257813 15.25136719 7.45390625 14.08476563 7.4140625 12.8828125 C7.36693115 11.26463623 7.36693115 11.26463623 7.31884766 9.61376953 C7.25323678 6.84238346 7.25323678 6.84238346 5 5 C2.67724823 4.59952556 0.34260643 4.2602896 -2 4 C-1.34 2.68 -0.68 1.36 0 0 Z " fill="#0E0E0E" transform="translate(677,666)"/>
<path d="M0 0 C7.73512476 -0.2975048 7.73512476 -0.2975048 11 2 C13.39112209 5.58668313 13.23381027 7.16396569 13.1953125 11.41796875 C13.18564453 13.29838867 13.18564453 13.29838867 13.17578125 15.21679688 C13.15902344 16.52712891 13.14226563 17.83746094 13.125 19.1875 C13.11496639 20.52277987 13.1058412 21.85806689 13.09765625 23.19335938 C13.07405292 26.46242015 13.04112594 29.73112028 13 33 C11.35 33 9.7 33 8 33 C7.98018066 32.22285645 7.96036133 31.44571289 7.93994141 30.64501953 C7.84492991 27.13799309 7.73515441 23.63158206 7.625 20.125 C7.5940625 18.90167969 7.563125 17.67835938 7.53125 16.41796875 C7.49257813 15.25136719 7.45390625 14.08476563 7.4140625 12.8828125 C7.36693115 11.26463623 7.36693115 11.26463623 7.31884766 9.61376953 C7.25323678 6.84238346 7.25323678 6.84238346 5 5 C2.67724823 4.59952556 0.34260643 4.2602896 -2 4 C-1.34 2.68 -0.68 1.36 0 0 Z " fill="#0E0E0E" transform="translate(677,506)"/>
<path d="M0 0 C7.73512476 -0.2975048 7.73512476 -0.2975048 11 2 C13.39112209 5.58668313 13.23381027 7.16396569 13.1953125 11.41796875 C13.18564453 13.29838867 13.18564453 13.29838867 13.17578125 15.21679688 C13.15902344 16.52712891 13.14226563 17.83746094 13.125 19.1875 C13.11496639 20.52277987 13.1058412 21.85806689 13.09765625 23.19335938 C13.07405292 26.46242015 13.04112594 29.73112028 13 33 C11.35 33 9.7 33 8 33 C7.98018066 32.22285645 7.96036133 31.44571289 7.93994141 30.64501953 C7.84492991 27.13799309 7.73515441 23.63158206 7.625 20.125 C7.5940625 18.90167969 7.563125 17.67835938 7.53125 16.41796875 C7.49257813 15.25136719 7.45390625 14.08476562 7.4140625 12.8828125 C7.36693115 11.26463623 7.36693115 11.26463623 7.31884766 9.61376953 C7.25323678 6.84238346 7.25323678 6.84238346 5 5 C2.67724823 4.59952556 0.34260643 4.2602896 -2 4 C-1.34 2.68 -0.68 1.36 0 0 Z " fill="#0E0E0E" transform="translate(677,386)"/>
<path d="M0 0 C7.73512476 -0.2975048 7.73512476 -0.2975048 11 2 C13.39112209 5.58668313 13.23381027 7.16396569 13.1953125 11.41796875 C13.18564453 13.29838867 13.18564453 13.29838867 13.17578125 15.21679688 C13.15902344 16.52712891 13.14226562 17.83746094 13.125 19.1875 C13.11496639 20.52277987 13.1058412 21.85806689 13.09765625 23.19335938 C13.07405292 26.46242015 13.04112594 29.73112028 13 33 C11.35 33 9.7 33 8 33 C7.98018066 32.22285645 7.96036133 31.44571289 7.93994141 30.64501953 C7.84492991 27.13799309 7.73515441 23.63158206 7.625 20.125 C7.5940625 18.90167969 7.563125 17.67835938 7.53125 16.41796875 C7.49257813 15.25136719 7.45390625 14.08476562 7.4140625 12.8828125 C7.36693115 11.26463623 7.36693115 11.26463623 7.31884766 9.61376953 C7.25323678 6.84238346 7.25323678 6.84238346 5 5 C2.67724823 4.59952556 0.34260643 4.2602896 -2 4 C-1.34 2.68 -0.68 1.36 0 0 Z " fill="#0D0D0D" transform="translate(277,166)"/>
<path d="M0 0 C1.65 0 3.3 0 5 0 C5 1.32 5 2.64 5 4 C5.66 4 6.32 4 7 4 C6.84152588 4.54366211 6.68305176 5.08732422 6.51977539 5.64746094 C5.92399019 8.34402563 5.78635695 10.88069895 5.68359375 13.640625 C5.64169922 14.71054688 5.59980469 15.78046875 5.55664062 16.8828125 C5.51732422 17.99398437 5.47800781 19.10515625 5.4375 20.25 C5.39431641 21.37664062 5.35113281 22.50328125 5.30664062 23.6640625 C5.20067985 26.44258954 5.09860858 29.22120391 5 32 C3.35 32 1.7 32 0 32 C0 21.44 0 10.88 0 0 Z " fill="#0C0C0C" transform="translate(248,167)"/>
<path d="M0 0 C1.32 0 2.64 0 4 0 C4 1.65 4 3.3 4 5 C4.99 5.33 5.98 5.66 7 6 C6.67 6.66 6.34 7.32 6 8 C5.84693099 9.81171098 5.75053339 11.6283794 5.68359375 13.4453125 C5.64169922 14.52167969 5.59980469 15.59804688 5.55664062 16.70703125 C5.49766602 18.39892578 5.49766602 18.39892578 5.4375 20.125 C5.39431641 21.26066406 5.35113281 22.39632812 5.30664062 23.56640625 C5.2003396 26.37747768 5.09830595 29.18863945 5 32 C3.35 32 1.7 32 0 32 C0 21.44 0 10.88 0 0 Z " fill="#0B0B0B" transform="translate(648,827)"/>
<path d="M0 0 C1.32 0 2.64 0 4 0 C4 1.65 4 3.3 4 5 C4.99 5.33 5.98 5.66 7 6 C6.67 6.66 6.34 7.32 6 8 C5.84693099 9.81171098 5.75053339 11.6283794 5.68359375 13.4453125 C5.64169922 14.52167969 5.59980469 15.59804688 5.55664062 16.70703125 C5.49766602 18.39892578 5.49766602 18.39892578 5.4375 20.125 C5.39431641 21.26066406 5.35113281 22.39632812 5.30664062 23.56640625 C5.2003396 26.37747768 5.09830595 29.18863945 5 32 C3.35 32 1.7 32 0 32 C0 21.44 0 10.88 0 0 Z " fill="#0B0B0B" transform="translate(648,667)"/>
<path d="M0 0 C1.32 0 2.64 0 4 0 C4 1.65 4 3.3 4 5 C4.99 5.33 5.98 5.66 7 6 C6.67 6.66 6.34 7.32 6 8 C5.84693099 9.81171098 5.75053339 11.6283794 5.68359375 13.4453125 C5.64169922 14.52167969 5.59980469 15.59804688 5.55664062 16.70703125 C5.49766602 18.39892578 5.49766602 18.39892578 5.4375 20.125 C5.39431641 21.26066406 5.35113281 22.39632812 5.30664062 23.56640625 C5.2003396 26.37747768 5.09830595 29.18863945 5 32 C3.35 32 1.7 32 0 32 C0 21.44 0 10.88 0 0 Z " fill="#0B0B0B" transform="translate(648,507)"/>
<path d="M0 0 C1.32 0 2.64 0 4 0 C4 1.65 4 3.3 4 5 C4.99 5.33 5.98 5.66 7 6 C6.67 6.66 6.34 7.32 6 8 C5.84693099 9.81171098 5.75053339 11.6283794 5.68359375 13.4453125 C5.64169922 14.52167969 5.59980469 15.59804688 5.55664062 16.70703125 C5.49766602 18.39892578 5.49766602 18.39892578 5.4375 20.125 C5.39431641 21.26066406 5.35113281 22.39632813 5.30664062 23.56640625 C5.2003396 26.37747768 5.09830595 29.18863945 5 32 C3.35 32 1.7 32 0 32 C0 21.44 0 10.88 0 0 Z " fill="#0B0B0B" transform="translate(648,387)"/>
<path d="M0 0 C2.9375 1.625 2.9375 1.625 5 4 C5 5.98 5 7.96 5 10 C-0.28 10 -5.56 10 -11 10 C-11 4 -11 4 -9.4375 1.625 C-6.05010319 -0.63326454 -3.9982841 -0.56116268 0 0 Z " fill="#F5F5F5" transform="translate(230,170)"/>
<path d="M0 0 C2.875 1.625 2.875 1.625 5 4 C5 5.98 5 7.96 5 10 C-0.28 10 -5.56 10 -11 10 C-11 4 -11 4 -8.875 1.625 C-5.48113923 -0.29326913 -3.83687022 -0.63947837 0 0 Z " fill="#F6F6F6" transform="translate(630,830)"/>
<path d="M0 0 C2.875 1.625 2.875 1.625 5 4 C5 5.98 5 7.96 5 10 C-0.28 10 -5.56 10 -11 10 C-11 4 -11 4 -8.875 1.625 C-5.48113923 -0.29326913 -3.83687022 -0.63947837 0 0 Z " fill="#F6F6F6" transform="translate(630,670)"/>
<path d="M0 0 C2.875 1.625 2.875 1.625 5 4 C5 5.98 5 7.96 5 10 C-0.28 10 -5.56 10 -11 10 C-11 4 -11 4 -8.875 1.625 C-5.48113923 -0.29326913 -3.83687022 -0.63947837 0 0 Z " fill="#F6F6F6" transform="translate(630,510)"/>
<path d="M0 0 C2.875 1.625 2.875 1.625 5 4 C5 5.98 5 7.96 5 10 C-0.28 10 -5.56 10 -11 10 C-11 4 -11 4 -8.875 1.625 C-5.48113923 -0.29326913 -3.83687022 -0.63947837 0 0 Z " fill="#F6F6F6" transform="translate(630,390)"/>
<path d="M0 0 C-4.95632411 2.2781021 -9.67891935 3.78609359 -15 4.9375 C-16.49650191 5.27554189 -17.99258884 5.61542547 -19.48828125 5.95703125 C-20.61290771 6.21347412 -20.61290771 6.21347412 -21.76025391 6.47509766 C-25.25341031 7.29374669 -28.72157094 8.19862466 -32.1875 9.125 C-33.94126953 9.59292969 -33.94126953 9.59292969 -35.73046875 10.0703125 C-37.90032392 10.68730836 -40.05335402 11.36705833 -42.18359375 12.109375 C-45.55482671 13.17545144 -48.48594261 13.1405623 -52 13 C-51.67 12.34 -51.34 11.68 -51 11 C-48.53833008 10.19384766 -48.53833008 10.19384766 -45.26953125 9.4140625 C-44.07980713 9.1248291 -42.89008301 8.8355957 -41.66430664 8.53759766 C-40.39321045 8.23644043 -39.12211426 7.9352832 -37.8125 7.625 C-35.24435844 7.00178254 -32.67664408 6.37680185 -30.109375 5.75 C-28.87638672 5.44964844 -27.64339844 5.14929688 -26.37304688 4.83984375 C-21.39540191 3.60047645 -16.47990536 2.19997162 -11.56640625 0.7265625 C-4.13333333 -1.37777778 -4.13333333 -1.37777778 0 0 Z " fill="#232323" transform="translate(936,268)"/>
<path d="M0 0 C7.39943448 1.94129013 14.66967921 4.13123373 21.91796875 6.57421875 C22.90122635 6.90291458 23.88448395 7.23161041 24.89753723 7.57026672 C27.99515408 8.60649605 31.09134269 9.64691887 34.1875 10.6875 C36.30524495 11.39676388 38.4230827 12.10575075 40.54101562 12.81445312 C45.69508607 14.53977219 50.84799507 16.26852345 56 18 C55.67 18.66 55.34 19.32 55 20 C53.4153813 19.58824869 51.83240298 19.1701861 50.25 18.75 C49.36828125 18.51796875 48.4865625 18.2859375 47.578125 18.046875 C42.33551452 16.5130108 37.17670137 14.74152349 32 13 C29.69956732 12.23592889 27.39877878 11.47292849 25.09765625 10.7109375 C22.75260113 9.93230081 20.40754907 9.15365492 18.0625 8.375 C16.87076172 7.98054687 15.67902344 7.58609375 14.45117188 7.1796875 C13.30326172 6.798125 12.15535156 6.4165625 10.97265625 6.0234375 C9.42976929 5.51176025 9.42976929 5.51176025 7.85571289 4.98974609 C5.2004183 4.06946189 2.59909041 3.06756348 0 2 C0 1.34 0 0.68 0 0 Z " fill="#1A1A1A" transform="translate(255,220)"/>
<path d="M0 0 C-2.7169215 1.45345934 -5.24532291 2.42852323 -8.23828125 3.1484375 C-9.05151855 3.34727539 -9.86475586 3.54611328 -10.70263672 3.75097656 C-11.5638916 3.9569043 -12.42514648 4.16283203 -13.3125 4.375 C-15.11353758 4.81405403 -16.91431687 5.25416884 -18.71484375 5.6953125 C-20.05264893 6.02257324 -20.05264893 6.02257324 -21.41748047 6.35644531 C-26.24504459 7.55945713 -31.03954568 8.88222251 -35.8359375 10.203125 C-38.9114606 10.97770119 -41.840738 11.69742279 -45 12 C-45.99 11.34 -46.98 10.68 -48 10 C-46.94683594 9.75765625 -45.89367187 9.5153125 -44.80859375 9.265625 C-33.25915464 6.58958477 -21.70894556 3.88857168 -10.4375 0.1875 C-6.64456081 -0.99027411 -3.89669234 -1.12798989 0 0 Z " fill="#232323" transform="translate(716,326)"/>
<path d="M0 0 C5.2144876 1.69051734 10.42892319 3.38119496 15.64331055 5.07202148 C17.41738477 5.64726095 19.19147323 6.22245654 20.96557617 6.79760742 C23.51484861 7.62407085 26.06406992 8.45069183 28.61328125 9.27734375 C29.40712723 9.53466782 30.20097321 9.79199188 31.01887512 10.05711365 C34.01570087 11.02904887 37.01116288 12.00372096 40 13 C40 13.66 40 14.32 40 15 C32.64429527 13.32286286 25.57730117 10.92250164 18.4375 8.5 C8.28457632 5.03727621 8.28457632 5.03727621 -2 2 C-1.34 1.34 -0.68 0.68 0 0 Z " fill="#0E0E0E" transform="translate(331,245)"/>
<path d="M0 0 C-4.99588569 2.72850521 -10.44804534 3.76644935 -15.9375 5.125 C-17.02224609 5.40214844 -18.10699219 5.67929687 -19.22460938 5.96484375 C-20.27326172 6.22652344 -21.32191406 6.48820312 -22.40234375 6.7578125 C-23.35616943 6.9964502 -24.30999512 7.23508789 -25.29272461 7.48095703 C-27.93594002 7.98771832 -30.31660735 8.09689098 -33 8 C-32 6 -32 6 -29.71508789 5.23803711 C-28.72758545 5.0035083 -27.74008301 4.76897949 -26.72265625 4.52734375 C-25.65208984 4.26759766 -24.58152344 4.00785156 -23.47851562 3.74023438 C-22.35123047 3.47533203 -21.22394531 3.21042969 -20.0625 2.9375 C-17.84458873 2.40688095 -15.62711692 1.87442056 -13.41015625 1.33984375 C-12.42152588 1.10644287 -11.43289551 0.87304199 -10.41430664 0.63256836 C-6.23800661 -0.46165688 -4.4438161 -0.86944228 0 0 Z " fill="#262626" transform="translate(997,252)"/>
<path d="M0 0 C-5.20057806 2.410864 -10.22007403 3.91241848 -15.8125 5.125 C-21.0441484 6.14826005 -21.0441484 6.14826005 -26 8 C-28.3329866 8.04022391 -30.66706666 8.04320247 -33 8 C-30.61933325 5.61933325 -29.15203457 5.34597643 -25.9140625 4.52734375 C-24.39425781 4.13772461 -24.39425781 4.13772461 -22.84375 3.74023438 C-21.7815625 3.47533203 -20.719375 3.21042969 -19.625 2.9375 C-18.04332031 2.5343457 -18.04332031 2.5343457 -16.4296875 2.12304688 C-13.62145253 1.40851501 -10.81141318 0.70190514 -8 0 C-6.91404541 -0.30248657 -6.91404541 -0.30248657 -5.80615234 -0.61108398 C-3.59537795 -1.08712665 -2.12990095 -0.68461102 0 0 Z " fill="#242424" transform="translate(746,318)"/>
<path d="M0 0 C-3.45207476 1.96529009 -6.88476226 2.7746477 -10.75 3.625 C-11.92046875 3.88539063 -13.0909375 4.14578125 -14.296875 4.4140625 C-15.18890625 4.60742188 -16.0809375 4.80078125 -17 5 C-17.33 4.01 -17.66 3.02 -18 2 C-16.12922332 1.46419503 -14.2531083 0.94701113 -12.375 0.4375 C-11.33085938 0.14746094 -10.28671875 -0.14257812 -9.2109375 -0.44140625 C-5.80977098 -1.03309337 -3.34551658 -0.75851802 0 0 Z " fill="#3B3B3B" transform="translate(796,305)"/>
<path d="M0 0 C0 0.66 0 1.32 0 2 C-5.52760359 4.10575375 -10.06997733 5.37851209 -16 5 C-11.45755844 0.83609524 -5.97762888 0 0 0 Z " fill="#292929" transform="translate(809,300)"/>
<path d="M0 0 C-2.40118527 2.40118527 -4.05496042 2.75220861 -7.3125 3.625 C-8.72982422 4.01558594 -8.72982422 4.01558594 -10.17578125 4.4140625 C-12.87851902 4.97479648 -15.25031848 5.1101876 -18 5 C-18 4.34 -18 3.68 -18 3 C-15.93918639 2.49309416 -13.87626474 1.99475381 -11.8125 1.5 C-10.66394531 1.2215625 -9.51539063 0.943125 -8.33203125 0.65625 C-5.43181171 0.08504615 -2.93903615 -0.13283779 0 0 Z " fill="#1F1F1F" transform="translate(842,292)"/>
<path d="M0 0 C5.28 1.65 10.56 3.3 16 5 C15.34 5.66 14.68 6.32 14 7 C8.72 5.35 3.44 3.7 -2 2 C-1.34 1.34 -0.68 0.68 0 0 Z " fill="#1B1B1B" transform="translate(331,245)"/>
<path d="M0 0 C-2.88628401 1.57554035 -5.53342384 2.46276373 -8.75 3.125 C-9.54921875 3.29257812 -10.3484375 3.46015625 -11.171875 3.6328125 C-11.77515625 3.75398438 -12.3784375 3.87515625 -13 4 C-13.33 3.01 -13.66 2.02 -14 1 C-8.83955235 -0.512545 -5.34001821 -1.33500455 0 0 Z " fill="#414141" transform="translate(948,265)"/>
<path d="M0 0 C-3.43772727 3.43772727 -7.10960984 3.97127774 -11.875 4.125 C-12.90625 4.08375 -13.9375 4.0425 -15 4 C-14 2 -14 2 -12.109375 1.3671875 C-8.02124399 0.51436547 -4.20385856 -0.27121668 0 0 Z " fill="#1F1F1F" transform="translate(899,277)"/>
<path d="M0 0 C0.33 0.66 0.66 1.32 1 2 C-0.76756294 2.39012425 -2.53924783 2.7616098 -4.3125 3.125 C-5.29863281 3.33382813 -6.28476562 3.54265625 -7.30078125 3.7578125 C-10 4 -10 4 -13 2 C-4.57142857 -0.28571429 -4.57142857 -0.28571429 0 0 Z " fill="#373737" transform="translate(909,274)"/>
<path d="M0 0 C0 0.33 0 0.66 0 1 C-4.29 1.99 -8.58 2.98 -13 4 C-13.33 3.01 -13.66 2.02 -14 1 C-8.83955235 -0.512545 -5.34001821 -1.33500455 0 0 Z " fill="#3A3A3A" transform="translate(887,281)"/>
<path d="M0 0 C-4.96993194 2.43425238 -8.34605369 3.34615998 -14 3 C-11.87033995 0.87033995 -10.95931796 0.52375338 -8.125 -0.1875 C-7.44695313 -0.36667969 -6.76890625 -0.54585938 -6.0703125 -0.73046875 C-3.77181444 -1.02970718 -2.19449036 -0.69377386 0 0 Z " fill="#191919" transform="translate(727,323)"/>
<path d="M0 0 C0 0.33 0 0.66 0 1 C-1.76756294 1.39012425 -3.53924783 1.7616098 -5.3125 2.125 C-6.29863281 2.33382813 -7.28476562 2.54265625 -8.30078125 2.7578125 C-11 3 -11 3 -14 1 C-4.58997722 -1.48063781 -4.58997722 -1.48063781 0 0 Z " fill="#323232" transform="translate(682,335)"/>
<path d="M0 0 C-2.96687001 1.64826111 -5.65626525 2.44271087 -9 3 C-9.33 2.01 -9.66 1.02 -10 0 C-6.42355152 -1.2380014 -3.66305234 -0.74926071 0 0 Z " fill="#464646" transform="translate(716,326)"/>
<path d="M0 0 C0 0.33 0 0.66 0 1 C-2.97 1.66 -5.94 2.32 -9 3 C-9.33 2.01 -9.66 1.02 -10 0 C-6.42355152 -1.2380014 -3.66305234 -0.74926071 0 0 Z " fill="#3F3F3F" transform="translate(864,287)"/>
<path d="M0 0 C0.99 1.485 0.99 1.485 2 3 C2.99 2.01 3.98 1.02 5 0 C5.66 0.33 6.32 0.66 7 1 C6.67 1.99 6.34 2.98 6 4 C4.02 4.33 2.04 4.66 0 5 C0 3.35 0 1.7 0 0 Z " fill="#222222" transform="translate(652,827)"/>
<path d="M0 0 C0.99 1.485 0.99 1.485 2 3 C2.99 2.01 3.98 1.02 5 0 C5.66 0.33 6.32 0.66 7 1 C6.67 1.99 6.34 2.98 6 4 C4.02 4.33 2.04 4.66 0 5 C0 3.35 0 1.7 0 0 Z " fill="#222222" transform="translate(652,667)"/>
<path d="M0 0 C0.99 1.485 0.99 1.485 2 3 C2.99 2.01 3.98 1.02 5 0 C5.66 0.33 6.32 0.66 7 1 C6.67 1.99 6.34 2.98 6 4 C4.02 4.33 2.04 4.66 0 5 C0 3.35 0 1.7 0 0 Z " fill="#222222" transform="translate(652,507)"/>
<path d="M0 0 C0.99 1.485 0.99 1.485 2 3 C2.99 2.01 3.98 1.02 5 0 C5.66 0.33 6.32 0.66 7 1 C6.67 1.99 6.34 2.98 6 4 C4.02 4.33 2.04 4.66 0 5 C0 3.35 0 1.7 0 0 Z " fill="#222222" transform="translate(652,387)"/>
<path d="M0 0 C0.66 0.33 1.32 0.66 2 1 C-0.31 3.31 -2.62 5.62 -5 8 C-5 5 -5 5 -2.5 2.3125 C-1.675 1.549375 -0.85 0.78625 0 0 Z " fill="#2E2E2E" transform="translate(620,827)"/>
<path d="M0 0 C0.66 0.33 1.32 0.66 2 1 C-0.31 3.31 -2.62 5.62 -5 8 C-5 5 -5 5 -2.5 2.3125 C-1.675 1.549375 -0.85 0.78625 0 0 Z " fill="#2E2E2E" transform="translate(620,667)"/>
<path d="M0 0 C0.66 0.33 1.32 0.66 2 1 C-0.31 3.31 -2.62 5.62 -5 8 C-5 5 -5 5 -2.5 2.3125 C-1.675 1.549375 -0.85 0.78625 0 0 Z " fill="#2E2E2E" transform="translate(620,507)"/>
<path d="M0 0 C0.66 0.33 1.32 0.66 2 1 C-0.31 3.31 -2.62 5.62 -5 8 C-5 5 -5 5 -2.5 2.3125 C-1.675 1.549375 -0.85 0.78625 0 0 Z " fill="#2E2E2E" transform="translate(620,387)"/>
<path d="M0 0 C-3.4352048 2.29013653 -4.985331 2.17842973 -9 2 C-8 0 -8 0 -6.1875 -0.6875 C-3.81180233 -1.02688538 -2.26664171 -0.72856341 0 0 Z " fill="#1D1D1D" transform="translate(780,309)"/>
<path d="M0 0 C2.64 0.66 5.28 1.32 8 2 C8 2.66 8 3.32 8 4 C5.69 3.67 3.38 3.34 1 3 C0.67 2.01 0.34 1.02 0 0 Z " fill="#272727" transform="translate(255,220)"/>
</svg>
