<?xml version="1.0" encoding="UTF-8" standalone="no"?>
<svg
   version="1.0"
   width="1359.000000pt"
   height="897.000000pt"
   viewBox="0 0 1359.000000 897.000000"
   preserveAspectRatio="xMidYMid meet"
   id="svg244"
   sodipodi:docname="Fig1_6_Tree.svg"
   inkscape:version="1.4.4 (dcaf3e7d9e, 2026-05-05)"
   xmlns:inkscape="http://www.inkscape.org/namespaces/inkscape"
   xmlns:sodipodi="http://sodipodi.sourceforge.net/DTD/sodipodi-0.dtd"
   xmlns="http://www.w3.org/2000/svg"
   xmlns:svg="http://www.w3.org/2000/svg">
  <sodipodi:namedview
     id="namedview244"
     pagecolor="#505050"
     bordercolor="#eeeeee"
     borderopacity="1"
     inkscape:showpageshadow="0"
     inkscape:pageopacity="0"
     inkscape:pagecheckerboard="0"
     inkscape:deskcolor="#505050"
     inkscape:document-units="pt"
     inkscape:zoom="0.77257525"
     inkscape:cx="905.41342"
     inkscape:cy="598"
     inkscape:window-width="1920"
     inkscape:window-height="1152"
     inkscape:window-x="0"
     inkscape:window-y="25"
     inkscape:window-maximized="1"
     inkscape:current-layer="svg244" />
  <defs
     id="defs244" />
  <g
     transform="matrix(0.1,0,0,-0.1,0.97077922,897)"
     fill="#000000"
     stroke="none"
     id="g244"
     style="fill:#000000">
    <path
       d="m 8771,8729 c -193,-59 -209,-64 -199,-74 5,-5 398,-125 411,-125 4,0 7,27 7,60 v 60 h 690 690 V 4760 870 h -690 -690 v 60 c 0,33 -3,60 -7,60 -13,0 -406,-120 -411,-125 -3,-3 -3,-7 0,-10 5,-5 398,-125 411,-125 4,0 7,27 7,60 v 60 h 690 690 V 750 c 0,-60 4,-100 10,-100 7,0 10,1343 10,4010 v 4010 h -700 -700 v 60 c 0,42 -4,60 -12,59 -7,0 -100,-27 -207,-60 z"
       id="path1"
       style="fill:#ffffff" />
    <path
       d="m 6353,8696 c -148,-29 -296,-146 -366,-288 -84,-171 -70,-381 33,-535 17,-24 30,-47 30,-51 0,-4 -378,-176 -840,-381 -462,-205 -840,-378 -840,-383 0,-6 8,-8 18,-5 9,3 392,172 851,376 l 834,371 55,-45 c 214,-177 520,-162 720,34 213,209 215,543 3,759 -131,133 -306,186 -498,148 z m 208,-76 c 182,-35 333,-192 362,-379 47,-307 -217,-571 -524,-524 -79,13 -182,58 -218,97 -21,22 -22,26 -7,32 27,10 18,26 -12,19 -36,-7 -71,27 -107,108 -82,178 -45,384 91,521 111,111 258,155 415,126 z"
       id="path2"
       style="fill:#ffffff" />
    <path
       d="m 6600,8283 c -55,-29 -81,-92 -82,-195 0,-47 5,-101 11,-120 37,-111 182,-132 241,-35 24,39 26,106 5,147 -30,58 -112,77 -172,40 l -33,-20 v 30 c 0,39 25,99 48,116 28,22 70,17 96,-11 46,-49 83,-24 38,25 -35,41 -99,50 -152,23 z m 100,-193 c 24,-13 43,-72 35,-110 -18,-82 -111,-95 -150,-20 -23,44 -19,87 10,115 26,26 72,33 105,15 z"
       id="path3"
       style="fill:#ffffff" />
    <path
       d="m 6197,8223 c -4,-38 -7,-87 -7,-110 0,-38 3,-43 23,-43 12,1 33,7 47,15 70,40 140,0 140,-80 0,-91 -88,-129 -152,-65 -49,50 -89,35 -52,-19 34,-48 126,-65 189,-35 90,43 98,181 13,234 -33,21 -97,23 -140,5 -15,-6 -18,-2 -18,21 0,16 3,46 6,67 l 7,37 h 88 c 82,0 89,2 89,20 0,19 -7,20 -114,20 h -113 z"
       id="path4"
       style="fill:#ffffff" />
    <path
       d="m 4400,8285 v -205 h 25 c 25,0 25,1 25,80 v 80 h 68 l 67,-1 53,-79 c 47,-70 58,-80 83,-80 35,0 34,1 -35,99 l -45,64 32,16 c 63,32 85,133 40,183 -33,38 -76,48 -198,48 h -115 z m 243,144 c 30,-16 37,-28 37,-66 0,-54 -36,-73 -141,-73 h -89 v 75 75 h 86 c 47,0 95,-5 107,-11 z"
       id="path5"
       style="fill:#ffffff" />
    <path
       d="m 5506,8435 c -5,-26 -12,-35 -26,-35 -13,0 -20,-7 -20,-20 0,-13 7,-20 20,-20 19,0 20,-7 20,-128 0,-114 2,-131 19,-146 24,-22 84,-18 89,6 2,12 -5,17 -25,20 l -28,3 -3,123 -3,122 h 31 c 23,0 30,4 30,20 0,16 -7,20 -30,20 -28,0 -30,3 -30,35 0,28 -4,35 -19,35 -14,0 -21,-10 -25,-35 z"
       id="path6"
       style="fill:#ffffff" />
    <path
       d="m 4882,8395 c -97,-42 -95,-270 2,-310 76,-32 153,-10 185,54 25,48 28,145 7,196 -28,66 -117,93 -194,60 z m 126,-50 c 42,-53 39,-169 -4,-212 -50,-50 -125,-15 -139,65 -16,98 22,172 89,172 25,0 40,-7 54,-25 z"
       id="path7"
       style="fill:#ffffff" />
    <path
       d="m 5225,8400 c -76,-31 -106,-169 -58,-263 46,-91 196,-86 243,8 21,44 18,163 -5,203 -31,53 -118,78 -180,52 z m 116,-49 c 19,-15 24,-30 27,-84 5,-79 -2,-111 -28,-137 -21,-21 -70,-26 -100,-10 -52,28 -54,198 -3,238 25,18 77,15 104,-7 z"
       id="path8"
       style="fill:#ffffff" />
    <path
       d="m 5310,7870 c 0,-5 5,-10 11,-10 5,0 7,5 4,10 -3,6 -8,10 -11,10 -2,0 -4,-4 -4,-10 z"
       id="path9"
       style="fill:#ffffff" />
    <path
       d="m 5150,7860 c 0,-5 5,-10 11,-10 5,0 7,5 4,10 -3,6 -8,10 -11,10 -2,0 -4,-4 -4,-10 z"
       id="path10"
       style="fill:#ffffff" />
    <path
       d="m 5190,7860 c 0,-5 5,-10 10,-10 6,0 10,5 10,10 0,6 -4,10 -10,10 -5,0 -10,-4 -10,-10 z"
       id="path11"
       style="fill:#ffffff" />
    <path
       d="m 5230,7860 c 0,-5 5,-10 10,-10 6,0 10,5 10,10 0,6 -4,10 -10,10 -5,0 -10,-4 -10,-10 z"
       id="path12"
       style="fill:#ffffff" />
    <path
       d="m 5270,7859 c 0,-5 5,-7 10,-4 6,3 10,8 10,11 0,2 -4,4 -10,4 -5,0 -10,-5 -10,-11 z"
       id="path13"
       style="fill:#ffffff" />
    <path
       d="m 6970,7862 c 0,-4 342,-178 760,-387 418,-209 760,-381 760,-382 0,-1 -14,-22 -30,-47 -142,-209 -113,-474 69,-649 101,-97 220,-147 351,-147 274,0 510,236 510,510 0,274 -236,510 -510,510 -117,0 -247,-49 -328,-124 l -44,-40 -764,382 c -420,210 -766,382 -769,382 -3,0 -5,-3 -5,-8 z m 2060,-636 c 107,-33 220,-126 277,-228 60,-106 76,-266 39,-389 -33,-106 -126,-219 -228,-276 -54,-31 -176,-63 -238,-63 -62,0 -184,32 -238,63 -188,106 -282,316 -237,531 16,79 58,168 94,200 18,16 22,16 50,2 35,-18 41,-19 41,-7 0,5 -13,14 -30,21 -16,7 -30,15 -30,19 0,10 72,65 120,92 41,24 95,41 160,53 41,7 172,-3 220,-18 z"
       id="path14"
       style="fill:#ffffff" />
    <path
       d="m 8985,6887 c -35,-16 -50,-32 -64,-70 -10,-26 -9,-27 19,-27 20,0 30,5 30,15 0,24 42,55 76,55 36,0 72,-26 75,-55 8,-59 -25,-95 -87,-95 -17,0 -24,-5 -24,-20 0,-15 7,-20 30,-20 66,0 109,-47 94,-104 -8,-35 -40,-56 -84,-56 -44,0 -76,21 -84,55 -5,21 -11,25 -29,19 -32,-9 -32,-11 -15,-48 29,-60 130,-85 204,-50 80,38 85,152 10,191 l -30,15 26,14 c 57,30 61,126 6,167 -33,25 -113,32 -153,14 z"
       id="path15"
       style="fill:#ffffff" />
    <path
       d="m 8580,6870 c 0,-19 7,-20 111,-20 h 111 l -21,-32 c -66,-101 -121,-239 -121,-305 0,-28 4,-33 23,-33 20,0 24,7 33,69 12,71 53,171 105,252 16,25 29,55 29,67 0,21 -3,22 -135,22 -128,0 -135,-1 -135,-20 z"
       id="path16"
       style="fill:#ffffff" />
    <path
       d="m 5030,7850 c 0,-5 5,-10 10,-10 6,0 10,5 10,10 0,6 -4,10 -10,10 -5,0 -10,-4 -10,-10 z"
       id="path17"
       style="fill:#ffffff" />
    <path
       d="m 5070,7850 c 0,-5 5,-10 10,-10 6,0 10,5 10,10 0,6 -4,10 -10,10 -5,0 -10,-4 -10,-10 z"
       id="path18"
       style="fill:#ffffff" />
    <path
       d="m 5110,7849 c 0,-5 5,-7 10,-4 6,3 10,8 10,11 0,2 -4,4 -10,4 -5,0 -10,-5 -10,-11 z"
       id="path19"
       style="fill:#ffffff" />
    <path
       d="m 4910,7840 c 0,-5 5,-10 10,-10 6,0 10,5 10,10 0,6 -4,10 -10,10 -5,0 -10,-4 -10,-10 z"
       id="path20"
       style="fill:#ffffff" />
    <path
       d="m 4950,7840 c 0,-5 5,-10 10,-10 6,0 10,5 10,10 0,6 -4,10 -10,10 -5,0 -10,-4 -10,-10 z"
       id="path21"
       style="fill:#ffffff" />
    <path
       d="m 4990,7839 c 0,-5 5,-7 10,-4 6,3 10,8 10,11 0,2 -4,4 -10,4 -5,0 -10,-5 -10,-11 z"
       id="path22"
       style="fill:#ffffff" />
    <path
       d="m 4790,7830 c 0,-5 5,-10 10,-10 6,0 10,5 10,10 0,6 -4,10 -10,10 -5,0 -10,-4 -10,-10 z"
       id="path23"
       style="fill:#ffffff" />
    <path
       d="m 4830,7830 c 0,-5 5,-10 10,-10 6,0 10,5 10,10 0,6 -4,10 -10,10 -5,0 -10,-4 -10,-10 z"
       id="path24"
       style="fill:#ffffff" />
    <path
       d="m 4870,7829 c 0,-5 5,-7 10,-4 6,3 10,8 10,11 0,2 -4,4 -10,4 -5,0 -10,-5 -10,-11 z"
       id="path25"
       style="fill:#ffffff" />
    <path
       d="m 4710,7820 c 0,-5 5,-10 10,-10 6,0 10,5 10,10 0,6 -4,10 -10,10 -5,0 -10,-4 -10,-10 z"
       id="path26"
       style="fill:#ffffff" />
    <path
       d="m 4750,7820 c 0,-5 5,-10 10,-10 6,0 10,5 10,10 0,6 -4,10 -10,10 -5,0 -10,-4 -10,-10 z"
       id="path27"
       style="fill:#ffffff" />
    <path
       d="m 4630,7810 c 0,-5 5,-10 10,-10 6,0 10,5 10,10 0,6 -4,10 -10,10 -5,0 -10,-4 -10,-10 z"
       id="path28"
       style="fill:#ffffff" />
    <path
       d="m 4670,7810 c 0,-5 5,-10 10,-10 6,0 10,5 10,10 0,6 -4,10 -10,10 -5,0 -10,-4 -10,-10 z"
       id="path29"
       style="fill:#ffffff" />
    <path
       d="m 4550,7800 c 0,-5 5,-10 10,-10 6,0 10,5 10,10 0,6 -4,10 -10,10 -5,0 -10,-4 -10,-10 z"
       id="path30"
       style="fill:#ffffff" />
    <path
       d="m 4590,7800 c 0,-5 5,-10 10,-10 6,0 10,5 10,10 0,6 -4,10 -10,10 -5,0 -10,-4 -10,-10 z"
       id="path31"
       style="fill:#ffffff" />
    <path
       d="m 4475,7791 c -3,-5 -1,-12 5,-16 5,-3 10,1 10,9 0,18 -6,21 -15,7 z"
       id="path32"
       style="fill:#ffffff" />
    <path
       d="m 4510,7790 c 0,-5 5,-10 10,-10 6,0 10,5 10,10 0,6 -4,10 -10,10 -5,0 -10,-4 -10,-10 z"
       id="path33"
       style="fill:#ffffff" />
    <path
       d="m 4430,7780 c 0,-5 5,-10 10,-10 6,0 10,5 10,10 0,6 -4,10 -10,10 -5,0 -10,-4 -10,-10 z"
       id="path34"
       style="fill:#ffffff" />
    <path
       d="m 4390,7770 c 0,-5 5,-10 10,-10 6,0 10,5 10,10 0,6 -4,10 -10,10 -5,0 -10,-4 -10,-10 z"
       id="path35"
       style="fill:#ffffff" />
    <path
       d="m 4350,7760 c 0,-5 5,-10 10,-10 6,0 10,5 10,10 0,6 -4,10 -10,10 -5,0 -10,-4 -10,-10 z"
       id="path36"
       style="fill:#ffffff" />
    <path
       d="m 4280,7744 c 0,-8 5,-12 10,-9 6,4 8,11 5,16 -9,14 -15,11 -15,-7 z"
       id="path37"
       style="fill:#ffffff" />
    <path
       d="m 4315,7750 c 3,-5 8,-10 11,-10 2,0 4,5 4,10 0,6 -5,10 -11,10 -5,0 -7,-4 -4,-10 z"
       id="path38"
       style="fill:#ffffff" />
    <path
       d="m 4240,7740 c 0,-5 5,-10 11,-10 5,0 7,5 4,10 -3,6 -8,10 -11,10 -2,0 -4,-4 -4,-10 z"
       id="path39"
       style="fill:#ffffff" />
    <path
       d="m 4200,7724 c 0,-8 5,-12 10,-9 6,4 8,11 5,16 -9,14 -15,11 -15,-7 z"
       id="path40"
       style="fill:#ffffff" />
    <path
       d="m 4160,7709 c 0,-5 5,-7 10,-4 6,3 10,8 10,11 0,2 -4,4 -10,4 -5,0 -10,-5 -10,-11 z"
       id="path41"
       style="fill:#ffffff" />
    <path
       d="m 4120,7700 c 0,-5 5,-10 10,-10 6,0 10,5 10,10 0,6 -4,10 -10,10 -5,0 -10,-4 -10,-10 z"
       id="path42"
       style="fill:#ffffff" />
    <path
       d="m 4080,7690 c 0,-5 5,-10 10,-10 6,0 10,5 10,10 0,6 -4,10 -10,10 -5,0 -10,-4 -10,-10 z"
       id="path43"
       style="fill:#ffffff" />
    <path
       d="m 4045,7680 c 3,-5 8,-10 11,-10 2,0 4,5 4,10 0,6 -5,10 -11,10 -5,0 -7,-4 -4,-10 z"
       id="path44"
       style="fill:#ffffff" />
    <path
       d="m 4010,7670 c 0,-5 5,-10 11,-10 5,0 7,5 4,10 -3,6 -8,10 -11,10 -2,0 -4,-4 -4,-10 z"
       id="path45"
       style="fill:#ffffff" />
    <path
       d="m 3970,7650 c 0,-5 5,-10 10,-10 6,0 10,5 10,10 0,6 -4,10 -10,10 -5,0 -10,-4 -10,-10 z"
       id="path46"
       style="fill:#ffffff" />
    <path
       d="m 3930,7640 c 0,-5 5,-10 10,-10 6,0 10,5 10,10 0,6 -4,10 -10,10 -5,0 -10,-4 -10,-10 z"
       id="path47"
       style="fill:#ffffff" />
    <path
       d="m 3895,7620 c 3,-5 8,-10 11,-10 2,0 4,5 4,10 0,6 -5,10 -11,10 -5,0 -7,-4 -4,-10 z"
       id="path48"
       style="fill:#ffffff" />
    <path
       d="m 3860,7610 c 0,-5 5,-10 10,-10 6,0 10,5 10,10 0,6 -4,10 -10,10 -5,0 -10,-4 -10,-10 z"
       id="path49"
       style="fill:#ffffff" />
    <path
       d="m 3820,7590 c 0,-5 5,-10 10,-10 6,0 10,5 10,10 0,6 -4,10 -10,10 -5,0 -10,-4 -10,-10 z"
       id="path50"
       style="fill:#ffffff" />
    <path
       d="m 3790,7570 c 0,-5 5,-10 10,-10 6,0 10,5 10,10 0,6 -4,10 -10,10 -5,0 -10,-4 -10,-10 z"
       id="path51"
       style="fill:#ffffff" />
    <path
       d="m 3750,7550 c 0,-5 5,-10 10,-10 6,0 10,5 10,10 0,6 -4,10 -10,10 -5,0 -10,-4 -10,-10 z"
       id="path52"
       style="fill:#ffffff" />
    <path
       d="m 3720,7529 c 0,-5 5,-7 10,-4 6,3 10,8 10,11 0,2 -4,4 -10,4 -5,0 -10,-5 -10,-11 z"
       id="path53"
       style="fill:#ffffff" />
    <path
       d="m 3680,7510 c 0,-5 5,-10 10,-10 6,0 10,5 10,10 0,6 -4,10 -10,10 -5,0 -10,-4 -10,-10 z"
       id="path54"
       style="fill:#ffffff" />
    <path
       d="m 3650,7490 c 0,-5 5,-10 10,-10 6,0 10,5 10,10 0,6 -4,10 -10,10 -5,0 -10,-4 -10,-10 z"
       id="path55"
       style="fill:#ffffff" />
    <path
       d="m 3620,7470 c 0,-5 5,-10 11,-10 5,0 7,5 4,10 -3,6 -8,10 -11,10 -2,0 -4,-4 -4,-10 z"
       id="path56"
       style="fill:#ffffff" />
    <path
       d="m 5370,7466 c 0,-13 40,-364 46,-398 l 6,-37 79,34 c 43,19 98,42 120,52 l 42,18 -137,165 c -123,149 -156,184 -156,166 z"
       id="path57"
       style="fill:#ffffff" />
    <path
       d="m 7222,7324 c -84,-80 -152,-149 -152,-153 0,-4 23,-20 50,-35 28,-15 50,-32 50,-38 0,-6 3,-8 7,-5 3,4 30,-7 60,-24 39,-23 54,-27 58,-17 5,16 95,404 95,412 0,18 -30,-8 -168,-140 z"
       id="path58"
       style="fill:#ffffff" />
    <path
       d="m 3585,7451 c -3,-5 -1,-12 5,-16 5,-3 10,1 10,9 0,18 -6,21 -15,7 z"
       id="path59"
       style="fill:#ffffff" />
    <path
       d="m 3550,7420 c 0,-5 5,-10 10,-10 6,0 10,5 10,10 0,6 -4,10 -10,10 -5,0 -10,-4 -10,-10 z"
       id="path60"
       style="fill:#ffffff" />
    <path
       d="m 3520,7400 c 0,-5 5,-10 10,-10 6,0 10,5 10,10 0,6 -4,10 -10,10 -5,0 -10,-4 -10,-10 z"
       id="path61"
       style="fill:#ffffff" />
    <path
       d="m 3490,7370 c 0,-5 5,-10 10,-10 6,0 10,5 10,10 0,6 -4,10 -10,10 -5,0 -10,-4 -10,-10 z"
       id="path62"
       style="fill:#ffffff" />
    <path
       d="m 3460,7344 c 0,-8 5,-12 10,-9 6,4 8,11 5,16 -9,14 -15,11 -15,-7 z"
       id="path63"
       style="fill:#ffffff" />
    <path
       d="m 3430,7320 c 0,-5 5,-10 10,-10 6,0 10,5 10,10 0,6 -4,10 -10,10 -5,0 -10,-4 -10,-10 z"
       id="path64"
       style="fill:#ffffff" />
    <path
       d="m 3400,7290 c 0,-5 5,-10 10,-10 6,0 10,5 10,10 0,6 -4,10 -10,10 -5,0 -10,-4 -10,-10 z"
       id="path65"
       style="fill:#ffffff" />
    <path
       d="m 3370,7260 c 0,-5 5,-10 10,-10 6,0 10,5 10,10 0,6 -4,10 -10,10 -5,0 -10,-4 -10,-10 z"
       id="path66"
       style="fill:#ffffff" />
    <path
       d="m 3756,7255 c -223,-61 -386,-270 -386,-495 0,-274 236,-510 510,-510 228,0 435,164 495,391 69,259 -104,542 -375,614 -67,18 -178,18 -244,0 z m 274,-29 c 108,-34 219,-124 277,-228 42,-73 67,-193 58,-279 -12,-126 -52,-213 -139,-302 -120,-122 -278,-168 -450,-132 -265,55 -428,309 -371,579 42,200 193,342 405,380 41,7 172,-3 220,-18 z"
       id="path67"
       style="fill:#ffffff" />
    <path
       d="m 3654,6890 c -25,-10 -74,-66 -74,-86 0,-25 49,-17 60,10 11,30 39,46 79,46 41,0 71,-31 71,-74 0,-43 -38,-76 -86,-76 -27,0 -34,-4 -34,-20 0,-17 7,-20 39,-20 56,0 91,-31 91,-80 0,-30 -6,-43 -26,-59 -50,-39 -108,-24 -149,41 -7,10 -18,13 -33,9 -22,-6 -22,-6 -5,-41 25,-49 74,-72 141,-67 65,5 102,30 121,83 18,50 3,87 -48,121 -19,13 -27,23 -19,23 8,0 24,10 36,23 24,26 30,93 11,129 -21,39 -119,61 -175,38 z"
       id="path68"
       style="fill:#ffffff" />
    <path
       d="m 3984,6886 c -70,-31 -85,-106 -33,-158 23,-24 27,-33 17,-39 -7,-5 -16,-9 -20,-9 -14,0 -38,-59 -38,-90 0,-70 59,-120 140,-120 82,0 140,50 140,122 0,39 -33,98 -55,98 -21,0 -19,4 15,38 91,92 -38,214 -166,158 z m 121,-40 c 27,-20 27,-92 0,-112 -30,-22 -82,-17 -110,11 -30,30 -31,54 -4,89 23,30 81,36 114,12 z m 6,-185 c 19,-15 24,-29 24,-66 0,-56 -28,-85 -82,-85 -48,0 -70,14 -83,56 -13,40 0,87 29,104 27,16 87,11 112,-9 z"
       id="path69"
       style="fill:#ffffff" />
    <path
       d="m 3345,7241 c -3,-5 -1,-12 5,-16 5,-3 10,1 10,9 0,18 -6,21 -15,7 z"
       id="path70"
       style="fill:#ffffff" />
    <path
       d="m 3316,7211 c -4,-5 -2,-12 3,-15 5,-4 12,-2 15,3 4,5 2,12 -3,15 -5,4 -12,2 -15,-3 z"
       id="path71"
       style="fill:#ffffff" />
    <path
       d="m 3290,7180 c 0,-5 5,-10 11,-10 5,0 7,5 4,10 -3,6 -8,10 -11,10 -2,0 -4,-4 -4,-10 z"
       id="path72"
       style="fill:#ffffff" />
    <path
       d="m 3260,7150 c 0,-5 5,-10 10,-10 6,0 10,5 10,10 0,6 -4,10 -10,10 -5,0 -10,-4 -10,-10 z"
       id="path73"
       style="fill:#ffffff" />
    <path
       d="m 3235,7120 c -3,-5 -1,-10 4,-10 6,0 11,5 11,10 0,6 -2,10 -4,10 -3,0 -8,-4 -11,-10 z"
       id="path74"
       style="fill:#ffffff" />
    <path
       d="m 3210,7090 c 0,-5 5,-10 11,-10 5,0 7,5 4,10 -3,6 -8,10 -11,10 -2,0 -4,-4 -4,-10 z"
       id="path75"
       style="fill:#ffffff" />
    <path
       d="m 3185,7060 c -3,-5 -1,-10 4,-10 6,0 11,5 11,10 0,6 -2,10 -4,10 -3,0 -8,-4 -11,-10 z"
       id="path76"
       style="fill:#ffffff" />
    <path
       d="m 3156,7031 c -4,-5 -2,-12 3,-15 5,-4 12,-2 15,3 4,5 2,12 -3,15 -5,4 -12,2 -15,-3 z"
       id="path77"
       style="fill:#ffffff" />
    <path
       d="m 5560,7017 c 0,-17 63,-140 67,-130 5,15 -42,126 -56,131 -6,2 -11,1 -11,-1 z"
       id="path78"
       style="fill:#ffffff" />
    <path
       d="m 3135,6990 c 3,-5 8,-10 11,-10 2,0 4,5 4,10 0,6 -5,10 -11,10 -5,0 -7,-4 -4,-10 z"
       id="path79"
       style="fill:#ffffff" />
    <path
       d="m 3110,6959 c 0,-5 5,-7 10,-4 6,3 10,8 10,11 0,2 -4,4 -10,4 -5,0 -10,-5 -10,-11 z"
       id="path80"
       style="fill:#ffffff" />
    <path
       d="m 7083,6958 c -41,-54 -83,-154 -49,-118 23,25 78,130 68,130 -5,0 -14,-6 -19,-12 z"
       id="path81"
       style="fill:#ffffff" />
    <path
       d="m 3080,6930 c 0,-5 5,-10 10,-10 6,0 10,5 10,10 0,6 -4,10 -10,10 -5,0 -10,-4 -10,-10 z"
       id="path82"
       style="fill:#ffffff" />
    <path
       d="m 3060,6900 c 0,-5 5,-10 10,-10 6,0 10,5 10,10 0,6 -4,10 -10,10 -5,0 -10,-4 -10,-10 z"
       id="path83"
       style="fill:#ffffff" />
    <path
       d="m 3035,6870 c -3,-5 -1,-10 4,-10 6,0 11,5 11,10 0,6 -2,10 -4,10 -3,0 -8,-4 -11,-10 z"
       id="path84"
       style="fill:#ffffff" />
    <path
       d="m 3010,6840 c 0,-5 5,-10 11,-10 5,0 7,5 4,10 -3,6 -8,10 -11,10 -2,0 -4,-4 -4,-10 z"
       id="path85"
       style="fill:#ffffff" />
    <path
       d="m 2985,6800 c 4,-6 11,-8 16,-5 14,9 11,15 -7,15 -8,0 -12,-5 -9,-10 z"
       id="path86"
       style="fill:#ffffff" />
    <path
       d="m 2960,6770 c 0,-5 5,-10 10,-10 6,0 10,5 10,10 0,6 -4,10 -10,10 -5,0 -10,-4 -10,-10 z"
       id="path87"
       style="fill:#ffffff" />
    <path
       d="m 2940,6740 c 0,-5 5,-10 10,-10 6,0 10,5 10,10 0,6 -4,10 -10,10 -5,0 -10,-4 -10,-10 z"
       id="path88"
       style="fill:#ffffff" />
    <path
       d="m 5680,6741 c 0,-19 61,-144 67,-137 8,8 -47,146 -59,146 -4,0 -8,-4 -8,-9 z"
       id="path89"
       style="fill:#ffffff" />
    <path
       d="m 2916,6711 c -4,-5 -2,-12 3,-15 5,-4 12,-2 15,3 4,5 2,12 -3,15 -5,4 -12,2 -15,-3 z"
       id="path90"
       style="fill:#ffffff" />
    <path
       d="m 6905,6649 c -19,-33 -35,-64 -35,-70 0,-24 18,-3 53,61 47,86 32,94 -18,9 z"
       id="path91"
       style="fill:#ffffff" />
    <path
       d="m 2895,6670 c 3,-5 8,-10 11,-10 2,0 4,5 4,10 0,6 -5,10 -11,10 -5,0 -7,-4 -4,-10 z"
       id="path92"
       style="fill:#ffffff" />
    <path
       d="m 2870,6640 c 0,-5 5,-10 10,-10 6,0 10,5 10,10 0,6 -4,10 -10,10 -5,0 -10,-4 -10,-10 z"
       id="path93"
       style="fill:#ffffff" />
    <path
       d="m 2850,6610 c 0,-5 5,-10 11,-10 5,0 7,5 4,10 -3,6 -8,10 -11,10 -2,0 -4,-4 -4,-10 z"
       id="path94"
       style="fill:#ffffff" />
    <path
       d="m 2826,6581 c -4,-5 -2,-12 3,-15 5,-4 12,-2 15,3 4,5 2,12 -3,15 -5,4 -12,2 -15,-3 z"
       id="path95"
       style="fill:#ffffff" />
    <path
       d="m 2800,6540 c 0,-5 5,-10 10,-10 6,0 10,5 10,10 0,6 -4,10 -10,10 -5,0 -10,-4 -10,-10 z"
       id="path96"
       style="fill:#ffffff" />
    <path
       d="m 2780,6510 c 0,-5 5,-10 10,-10 6,0 10,5 10,10 0,6 -4,10 -10,10 -5,0 -10,-4 -10,-10 z"
       id="path97"
       style="fill:#ffffff" />
    <path
       d="m 2760,6474 c 0,-8 5,-12 10,-9 6,4 8,11 5,16 -9,14 -15,11 -15,-7 z"
       id="path98"
       style="fill:#ffffff" />
    <path
       d="m 5800,6463 c 0,-17 54,-133 62,-133 4,0 8,2 8,5 0,15 -55,135 -62,135 -4,0 -8,-3 -8,-7 z"
       id="path99"
       style="fill:#ffffff" />
    <path
       d="m 2735,6440 c 4,-6 11,-8 16,-5 14,9 11,15 -7,15 -8,0 -12,-5 -9,-10 z"
       id="path100"
       style="fill:#ffffff" />
    <path
       d="m 6754,6384 c -20,-36 -34,-68 -30,-71 8,-8 6,-10 50,65 39,69 41,72 26,72 -5,0 -26,-29 -46,-66 z"
       id="path101"
       style="fill:#ffffff" />
    <path
       d="m 2710,6410 c 0,-5 5,-10 10,-10 6,0 10,5 10,10 0,6 -4,10 -10,10 -5,0 -10,-4 -10,-10 z"
       id="path102"
       style="fill:#ffffff" />
    <path
       d="m 2690,6380 c 0,-5 5,-10 11,-10 5,0 7,5 4,10 -3,6 -8,10 -11,10 -2,0 -4,-4 -4,-10 z"
       id="path103"
       style="fill:#ffffff" />
    <path
       d="m 2670,6340 c 0,-5 5,-10 10,-10 6,0 10,5 10,10 0,6 -4,10 -10,10 -5,0 -10,-4 -10,-10 z"
       id="path104"
       style="fill:#ffffff" />
    <path
       d="m 2625,6281 c -3,-5 -1,-12 5,-16 5,-3 10,1 10,9 0,18 -6,21 -15,7 z"
       id="path105"
       style="fill:#ffffff" />
    <path
       d="m 3110,5619 c -256,-359 -470,-659 -476,-667 -10,-14 -15,-13 -43,10 -40,34 -125,76 -192,93 -260,69 -542,-104 -614,-376 -82,-306 173,-629 495,-629 274,0 510,236 510,510 0,113 -48,245 -117,321 -22,24 -32,43 -27,51 4,7 218,308 476,669 257,361 468,659 468,663 0,3 -3,6 -8,6 -4,0 -216,-293 -472,-651 z m -680,-593 c 54,-16 115,-50 152,-84 l 27,-25 -19,-28 c -22,-30 -24,-39 -11,-39 5,0 18,14 28,30 l 19,30 30,-37 c 79,-100 109,-186 109,-313 0,-142 -41,-244 -139,-343 -97,-98 -203,-142 -346,-142 -143,0 -249,44 -346,142 -98,99 -139,201 -139,343 0,143 44,249 142,346 79,77 158,117 273,138 41,7 172,-3 220,-18 z"
       id="path106"
       style="fill:#ffffff" />
    <path
       d="m 2055,4687 c -35,-16 -50,-32 -64,-70 -10,-26 -9,-27 19,-27 19,0 30,5 30,14 0,22 49,56 81,56 42,0 69,-32 69,-80 0,-42 -13,-59 -123,-158 -52,-47 -87,-97 -87,-124 0,-16 13,-18 135,-18 128,0 135,1 135,20 0,18 -8,20 -107,22 l -108,3 96,95 c 53,52 102,110 109,128 17,43 0,105 -36,129 -33,21 -111,27 -149,10 z"
       id="path107"
       style="fill:#ffffff" />
    <path
       d="m 2330,4641 c 0,-26 -3,-76 -6,-110 l -7,-61 h 29 c 16,0 38,7 48,15 30,23 81,18 113,-9 23,-20 28,-32 28,-71 0,-39 -5,-51 -28,-71 -41,-35 -91,-33 -127,6 -15,17 -37,30 -49,30 -25,0 -25,-2 -5,-41 41,-79 194,-77 244,3 32,51 24,129 -19,171 -27,28 -38,32 -84,32 -28,0 -63,-4 -76,-9 -20,-7 -23,-6 -18,9 4,9 7,39 7,66 v 49 h 95 c 88,0 95,1 95,20 0,19 -7,20 -120,20 h -120 z"
       id="path108"
       style="fill:#ffffff" />
    <path
       d="m 4140.8766,6312.5389 c 0,-4 211,-302 468,-663 258,-361 472,-662 476,-669 5,-8 -5,-27 -27,-51 -69,-76 -117,-208 -117,-321 0,-228 164,-435 391,-495 260,-69 542,104 614,376 82,306 -173,629 -495,629 -106,0 -237,-45 -311,-107 -16,-14 -32,-24 -34,-21 -2,2 -216,301 -475,664 -259,362 -475,661 -481,662 -5,2 -9,0 -9,-4 z m 1460,-1238 c 146,-45 279,-183 321,-331 18,-64 18,-206 0,-270 -43,-153 -183,-293 -336,-336 -27,-7 -88,-14 -135,-14 -143,0 -249,44 -346,142 -98,99 -139,201 -139,343 0,127 30,213 109,313 l 30,37 19,-30 c 10,-16 23,-30 28,-30 13,0 11,9 -11,39 l -19,28 27,25 c 54,49 133,84 232,102 41,7 172,-3 220,-18 z"
       id="path109"
       style="fill:#ffffff" />
    <path
       d="m 5257,4548 c -54,-79 -97,-151 -97,-160 0,-16 11,-18 100,-18 h 100 v -45 c 0,-41 2,-45 25,-45 23,0 25,4 25,45 0,43 1,45 30,45 23,0 30,4 30,20 0,16 -7,20 -30,20 h -30 v 140 140 h -28 c -25,0 -39,-16 -125,-142 z m 103,-33 v -105 h -70 c -38,0 -70,2 -70,5 0,7 132,205 137,205 1,0 3,-47 3,-105 z"
       id="path110"
       style="fill:#ffffff" />
    <path
       d="m 5510,4670 c 0,-19 7,-20 110,-20 61,0 110,-2 110,-4 0,-3 -18,-33 -40,-68 -47,-76 -87,-177 -96,-247 -6,-50 -6,-51 19,-51 23,0 26,5 36,66 15,85 42,153 97,240 66,107 69,104 -96,104 -133,0 -140,-1 -140,-20 z"
       id="path111"
       style="fill:#ffffff" />
    <path
       d="m 8217,6125 c -86,-80 -157,-147 -157,-149 0,-2 21,-16 48,-32 26,-15 48,-28 50,-29 1,-1 -356,-599 -794,-1329 -666,-1111 -823,-1379 -780,-1335 2,2 360,598 796,1324 436,726 794,1322 796,1324 2,2 26,-10 54,-27 27,-17 52,-27 54,-23 5,7 106,405 106,416 0,16 -29,-8 -173,-140 z"
       id="path112"
       style="fill:#ffffff" />
    <path
       d="m 2600,6240 c 0,-5 5,-10 10,-10 6,0 10,5 10,10 0,6 -4,10 -10,10 -5,0 -10,-4 -10,-10 z"
       id="path113"
       style="fill:#ffffff" />
    <path
       d="m 2580,6210 c 0,-5 5,-10 10,-10 6,0 10,5 10,10 0,6 -4,10 -10,10 -5,0 -10,-4 -10,-10 z"
       id="path114"
       style="fill:#ffffff" />
    <path
       d="m 5920,6188 c 0,-22 52,-138 62,-138 11,0 4,23 -28,96 -23,53 -34,66 -34,42 z"
       id="path115"
       style="fill:#ffffff" />
    <path
       d="m 2560,6180 c 0,-5 5,-10 11,-10 5,0 7,5 4,10 -3,6 -8,10 -11,10 -2,0 -4,-4 -4,-10 z"
       id="path116"
       style="fill:#ffffff" />
    <path
       d="m 6606,6126 c -38,-67 -41,-76 -28,-76 7,0 82,123 82,135 0,3 -4,5 -9,5 -5,0 -25,-29 -45,-64 z"
       id="path117"
       style="fill:#ffffff" />
    <path
       d="m 2535,6140 c 4,-6 11,-8 16,-5 14,9 11,15 -7,15 -8,0 -12,-5 -9,-10 z"
       id="path118"
       style="fill:#ffffff" />
    <path
       d="m 2510,6110 c 0,-5 5,-10 10,-10 6,0 10,5 10,10 0,6 -4,10 -10,10 -5,0 -10,-4 -10,-10 z"
       id="path119"
       style="fill:#ffffff" />
    <path
       d="m 2490,6080 c 0,-5 5,-10 10,-10 6,0 10,5 10,10 0,6 -4,10 -10,10 -5,0 -10,-4 -10,-10 z"
       id="path120"
       style="fill:#ffffff" />
    <path
       d="m 2470,6039 c 0,-5 5,-7 10,-4 6,3 10,8 10,11 0,2 -4,4 -10,4 -5,0 -10,-5 -10,-11 z"
       id="path121"
       style="fill:#ffffff" />
    <path
       d="m 2425,5980 c -3,-5 -1,-10 4,-10 6,0 11,5 11,10 0,6 -2,10 -4,10 -3,0 -8,-4 -11,-10 z"
       id="path122"
       style="fill:#ffffff" />
    <path
       d="m 2405,5940 c 3,-5 8,-10 11,-10 2,0 4,5 4,10 0,6 -5,10 -11,10 -5,0 -7,-4 -4,-10 z"
       id="path123"
       style="fill:#ffffff" />
    <path
       d="m 2380,5910 c 0,-5 5,-10 10,-10 6,0 10,5 10,10 0,6 -4,10 -10,10 -5,0 -10,-4 -10,-10 z"
       id="path124"
       style="fill:#ffffff" />
    <path
       d="m 6070,5835 c 0,-75 0,-75 -20,-55 -43,43 -127,36 -164,-13 -18,-24 -21,-43 -21,-127 0,-84 3,-103 21,-127 37,-49 121,-56 164,-13 20,20 20,20 20,0 0,-15 7,-20 25,-20 h 25 v 215 215 h -25 c -24,0 -25,-2 -25,-75 z m -40,-75 c 24,-13 40,-61 40,-120 0,-88 -27,-130 -83,-130 -44,0 -67,29 -74,92 -7,71 3,124 28,149 21,21 59,25 89,9 z"
       id="path125"
       style="fill:#ffffff" />
    <path
       d="m 1840,5700 c 0,-183 1,-190 20,-190 18,0 20,7 20,88 0,80 2,91 23,110 30,29 71,28 91,0 12,-16 16,-47 16,-110 0,-81 2,-88 20,-88 19,0 20,7 20,104 0,95 -2,107 -23,131 -27,33 -87,37 -118,9 -19,-17 -19,-16 -19,37 0,73 -8,99 -31,99 -18,0 -19,-11 -19,-190 z"
       id="path126"
       style="fill:#ffffff" />
    <path
       d="m 2355,5880 c -3,-5 1,-10 10,-10 9,0 13,5 10,10 -3,6 -8,10 -10,10 -2,0 -7,-4 -10,-10 z"
       id="path127"
       style="fill:#ffffff" />
    <path
       d="m 5480,5685 v -205 h 160 160 v 25 25 h -135 -135 v 70 70 h 120 120 v 25 25 h -120 -120 v 60 60 h 130 130 v 25 25 h -155 -155 z"
       id="path128"
       style="fill:#ffffff" />
    <path
       d="m 1120,5685 c 0,-168 1,-175 20,-175 18,0 20,7 20,64 v 65 l 57,7 c 78,9 113,43 113,109 0,38 -5,52 -29,76 -27,27 -35,29 -105,29 h -76 z m 141,125 c 24,-13 26,-81 3,-104 -18,-18 -54,-29 -81,-24 -15,3 -19,15 -21,71 l -3,67 h 41 c 23,0 50,-5 61,-10 z"
       id="path129"
       style="fill:#ffffff" />
    <path
       d="m 2335,5851 c -3,-5 -1,-12 5,-16 5,-3 10,1 10,9 0,18 -6,21 -15,7 z"
       id="path130"
       style="fill:#ffffff" />
    <path
       d="m 1667,5834 c -4,-4 -7,-20 -7,-36 0,-21 -5,-28 -20,-28 -13,0 -20,-7 -20,-20 0,-13 7,-20 19,-20 17,0 19,-10 23,-96 3,-109 13,-124 80,-124 32,0 38,3 38,21 0,16 -5,20 -19,16 -41,-10 -51,9 -51,98 v 85 h 35 c 28,0 35,4 35,20 0,16 -7,20 -34,20 -32,0 -35,3 -38,32 -3,31 -25,48 -41,32 z"
       id="path131"
       style="fill:#ffffff" />
    <path
       d="m 2310,5810 c 0,-5 5,-10 10,-10 6,0 10,5 10,10 0,6 -4,10 -10,10 -5,0 -10,-4 -10,-10 z"
       id="path132"
       style="fill:#ffffff" />
    <path
       d="m 6242,5785 c -19,-16 -36,-43 -43,-68 -15,-56 -6,-158 18,-199 31,-54 117,-64 163,-18 29,29 33,25 27,-22 -4,-27 -14,-49 -27,-60 -30,-24 -81,-23 -108,3 -14,13 -33,19 -49,17 l -27,-3 30,-34 c 57,-64 183,-51 217,22 14,28 17,67 17,206 v 171 h -25 c -19,0 -25,-5 -25,-22 v -21 l -24,22 c -15,14 -42,25 -68,28 -37,4 -49,1 -76,-22 z m 127,-34 c 59,-59 42,-220 -24,-237 -74,-18 -102,30 -96,167 3,75 74,116 120,70 z"
       id="path133"
       style="fill:#ffffff" />
    <path
       d="m 6600,5793 c -52,-27 -73,-72 -72,-152 0,-107 36,-157 120,-168 52,-7 106,12 132,45 l 21,26 -22,8 c -16,6 -27,2 -45,-17 -49,-53 -138,-19 -151,58 l -6,37 h 117 118 l -6,30 c -3,17 -8,43 -11,59 -15,73 -119,113 -195,74 z m 105,-29 c 18,-7 45,-54 45,-79 0,-12 -15,-15 -85,-15 -77,0 -85,2 -85,19 0,11 12,33 26,50 26,31 60,39 99,25 z"
       id="path134"
       style="fill:#ffffff" />
    <path
       d="m 6914,5796 c -18,-8 -36,-27 -44,-46 -11,-27 -11,-36 3,-65 9,-18 24,-36 34,-39 10,-4 47,-17 83,-29 52,-18 66,-26 68,-45 9,-62 -94,-87 -144,-37 -34,34 -69,27 -52,-10 22,-50 121,-71 193,-41 39,16 55,42 55,86 0,43 -36,75 -106,96 -89,25 -113,53 -76,87 25,23 84,21 115,-3 27,-22 57,-26 57,-9 0,57 -108,89 -186,55 z"
       id="path135"
       style="fill:#ffffff" />
    <path
       d="m 2290,5780 c 0,-5 5,-10 10,-10 6,0 10,5 10,10 0,6 -4,10 -10,10 -5,0 -10,-4 -10,-10 z"
       id="path136"
       style="fill:#ffffff" />
    <path
       d="m 1400,5752 c -34,-28 -18,-44 25,-26 19,8 43,14 54,14 27,0 51,-26 51,-56 0,-21 -4,-24 -39,-24 -96,0 -146,-62 -103,-128 15,-22 66,-31 103,-18 25,9 40,9 52,2 33,-21 37,2 28,192 -1,12 -10,31 -21,42 -27,27 -118,28 -150,2 z m 130,-151 c 0,-20 -8,-35 -22,-45 -46,-33 -96,-10 -84,38 6,26 21,33 74,35 29,1 32,-2 32,-28 z"
       id="path137"
       style="fill:#ffffff" />
    <path
       d="m 2266,5751 c -4,-5 -2,-12 3,-15 5,-4 12,-2 15,3 4,5 2,12 -3,15 -5,4 -12,2 -15,-3 z"
       id="path138"
       style="fill:#ffffff" />
    <path
       d="m 2245,5710 c 3,-5 8,-10 11,-10 2,0 4,5 4,10 0,6 -5,10 -11,10 -5,0 -7,-4 -4,-10 z"
       id="path139"
       style="fill:#ffffff" />
    <path
       d="m 2220,5680 c 0,-5 5,-10 10,-10 6,0 10,5 10,10 0,6 -4,10 -10,10 -5,0 -10,-4 -10,-10 z"
       id="path140"
       style="fill:#ffffff" />
    <path
       d="m 2195,5650 c -3,-5 1,-10 10,-10 9,0 13,5 10,10 -3,6 -8,10 -10,10 -2,0 -7,-4 -10,-10 z"
       id="path141"
       style="fill:#ffffff" />
    <path
       d="m 2175,5621 c -3,-5 -1,-12 5,-16 5,-3 10,1 10,9 0,18 -6,21 -15,7 z"
       id="path142"
       style="fill:#ffffff" />
    <path
       d="m 2150,5580 c 0,-5 5,-10 10,-10 6,0 10,5 10,10 0,6 -4,10 -10,10 -5,0 -10,-4 -10,-10 z"
       id="path143"
       style="fill:#ffffff" />
    <path
       d="m 2130,5550 c 0,-5 5,-10 10,-10 6,0 10,5 10,10 0,6 -4,10 -10,10 -5,0 -10,-4 -10,-10 z"
       id="path144"
       style="fill:#ffffff" />
    <path
       d="m 2106,5521 c -4,-5 -2,-12 3,-15 5,-4 12,-2 15,3 4,5 2,12 -3,15 -5,4 -12,2 -15,-3 z"
       id="path145"
       style="fill:#ffffff" />
    <path
       d="m 2085,5480 c 3,-5 8,-10 11,-10 2,0 4,5 4,10 0,6 -5,10 -11,10 -5,0 -7,-4 -4,-10 z"
       id="path146"
       style="fill:#ffffff" />
    <path
       d="m 2060,5450 c 0,-5 5,-10 10,-10 6,0 10,5 10,10 0,6 -4,10 -10,10 -5,0 -10,-4 -10,-10 z"
       id="path147"
       style="fill:#ffffff" />
    <path
       d="m 2035,5420 c -3,-5 1,-10 10,-10 9,0 13,5 10,10 -3,6 -8,10 -10,10 -2,0 -7,-4 -10,-10 z"
       id="path148"
       style="fill:#ffffff" />
    <path
       d="m 2015,5391 c -3,-5 -1,-12 5,-16 5,-3 10,1 10,9 0,18 -6,21 -15,7 z"
       id="path149"
       style="fill:#ffffff" />
    <path
       d="m 1990,5350 c 0,-5 5,-10 10,-10 6,0 10,5 10,10 0,6 -4,10 -10,10 -5,0 -10,-4 -10,-10 z"
       id="path150"
       style="fill:#ffffff" />
    <path
       d="m 1970,5320 c 0,-5 5,-10 10,-10 6,0 10,5 10,10 0,6 -4,10 -10,10 -5,0 -10,-4 -10,-10 z"
       id="path151"
       style="fill:#ffffff" />
    <path
       d="m 1945,5290 c -3,-5 -1,-10 4,-10 6,0 11,5 11,10 0,6 -2,10 -4,10 -3,0 -8,-4 -11,-10 z"
       id="path152"
       style="fill:#ffffff" />
    <path
       d="m 1925,5250 c 3,-5 8,-10 11,-10 2,0 4,5 4,10 0,6 -5,10 -11,10 -5,0 -7,-4 -4,-10 z"
       id="path153"
       style="fill:#ffffff" />
    <path
       d="m 1900,5219 c 0,-5 5,-7 10,-4 6,3 10,8 10,11 0,2 -4,4 -10,4 -5,0 -10,-5 -10,-11 z"
       id="path154"
       style="fill:#ffffff" />
    <path
       d="m 1875,5190 c -3,-5 -1,-10 4,-10 6,0 11,5 11,10 0,6 -2,10 -4,10 -3,0 -8,-4 -11,-10 z"
       id="path155"
       style="fill:#ffffff" />
    <path
       d="m 1850,5160 c 0,-5 5,-10 10,-10 6,0 10,5 10,10 0,6 -4,10 -10,10 -5,0 -10,-4 -10,-10 z"
       id="path156"
       style="fill:#ffffff" />
    <path
       d="m 1830,5124 c 0,-8 5,-12 10,-9 6,4 8,11 5,16 -9,14 -15,11 -15,-7 z"
       id="path157"
       style="fill:#ffffff" />
    <path
       d="m 1805,5090 c 4,-6 11,-8 16,-5 14,9 11,15 -7,15 -8,0 -12,-5 -9,-10 z"
       id="path158"
       style="fill:#ffffff" />
    <path
       d="m 1780,5060 c 0,-5 5,-10 10,-10 6,0 10,5 10,10 0,6 -4,10 -10,10 -5,0 -10,-4 -10,-10 z"
       id="path159"
       style="fill:#ffffff" />
    <path
       d="m 1760,5030 c 0,-5 5,-10 11,-10 5,0 7,5 4,10 -3,6 -8,10 -11,10 -2,0 -4,-4 -4,-10 z"
       id="path160"
       style="fill:#ffffff" />
    <path
       d="m 1736,5001 c -4,-5 -2,-12 3,-15 5,-4 12,-2 15,3 4,5 2,12 -3,15 -5,4 -12,2 -15,-3 z"
       id="path161"
       style="fill:#ffffff" />
    <path
       d="m 1710,4960 c 0,-5 5,-10 10,-10 6,0 10,5 10,10 0,6 -4,10 -10,10 -5,0 -10,-4 -10,-10 z"
       id="path162"
       style="fill:#ffffff" />
    <path
       d="m 1690,4930 c 0,-5 5,-10 10,-10 6,0 10,5 10,10 0,6 -4,10 -10,10 -5,0 -10,-4 -10,-10 z"
       id="path163"
       style="fill:#ffffff" />
    <path
       d="m 1665,4900 c -3,-5 1,-10 10,-10 9,0 13,5 10,10 -3,6 -8,10 -10,10 -2,0 -7,-4 -10,-10 z"
       id="path164"
       style="fill:#ffffff" />
    <path
       d="m 1645,4860 c 3,-5 8,-10 11,-10 2,0 4,5 4,10 0,6 -5,10 -11,10 -5,0 -7,-4 -4,-10 z"
       id="path165"
       style="fill:#ffffff" />
    <path
       d="m 1620,4829 c 0,-5 5,-7 10,-4 6,3 10,8 10,11 0,2 -4,4 -10,4 -5,0 -10,-5 -10,-11 z"
       id="path166"
       style="fill:#ffffff" />
    <path
       d="m 1595,4800 c -3,-5 -1,-10 4,-10 6,0 11,5 11,10 0,6 -2,10 -4,10 -3,0 -8,-4 -11,-10 z"
       id="path167"
       style="fill:#ffffff" />
    <path
       d="m 1570,4770 c 0,-5 5,-10 10,-10 6,0 10,5 10,10 0,6 -4,10 -10,10 -5,0 -10,-4 -10,-10 z"
       id="path168"
       style="fill:#ffffff" />
    <path
       d="m 1550,4734 c 0,-8 5,-12 10,-9 6,4 8,11 5,16 -9,14 -15,11 -15,-7 z"
       id="path169"
       style="fill:#ffffff" />
    <path
       d="m 1525,4700 c 3,-5 8,-10 11,-10 2,0 4,5 4,10 0,6 -5,10 -11,10 -5,0 -7,-4 -4,-10 z"
       id="path170"
       style="fill:#ffffff" />
    <path
       d="m 1500,4670 c 0,-5 5,-10 10,-10 6,0 10,5 10,10 0,6 -4,10 -10,10 -5,0 -10,-4 -10,-10 z"
       id="path171"
       style="fill:#ffffff" />
    <path
       d="m 1480,4640 c 0,-5 5,-10 11,-10 5,0 7,5 4,10 -3,6 -8,10 -11,10 -2,0 -4,-4 -4,-10 z"
       id="path172"
       style="fill:#ffffff" />
    <path
       d="m 1455,4611 c -3,-5 -1,-12 5,-16 5,-3 10,1 10,9 0,18 -6,21 -15,7 z"
       id="path173"
       style="fill:#ffffff" />
    <path
       d="m 1430,4570 c 0,-5 5,-10 10,-10 6,0 10,5 10,10 0,6 -4,10 -10,10 -5,0 -10,-4 -10,-10 z"
       id="path174"
       style="fill:#ffffff" />
    <path
       d="m 1410,4540 c 0,-5 5,-10 10,-10 6,0 10,5 10,10 0,6 -4,10 -10,10 -5,0 -10,-4 -10,-10 z"
       id="path175"
       style="fill:#ffffff" />
    <path
       d="m 1385,4510 c -3,-5 -1,-10 4,-10 6,0 11,5 11,10 0,6 -2,10 -4,10 -3,0 -8,-4 -11,-10 z"
       id="path176"
       style="fill:#ffffff" />
    <path
       d="m 1360,4480 c 0,-5 5,-10 11,-10 5,0 7,5 4,10 -3,6 -8,10 -11,10 -2,0 -4,-4 -4,-10 z"
       id="path177"
       style="fill:#ffffff" />
    <path
       d="m 1340,4439 c 0,-5 5,-7 10,-4 6,3 10,8 10,11 0,2 -4,4 -10,4 -5,0 -10,-5 -10,-11 z"
       id="path178"
       style="fill:#ffffff" />
    <path
       d="m 1310,4410 c 0,-5 5,-10 10,-10 6,0 10,5 10,10 0,6 -4,10 -10,10 -5,0 -10,-4 -10,-10 z"
       id="path179"
       style="fill:#ffffff" />
    <path
       d="m 1290,4380 c 0,-5 5,-10 10,-10 6,0 10,5 10,10 0,6 -4,10 -10,10 -5,0 -10,-4 -10,-10 z"
       id="path180"
       style="fill:#ffffff" />
    <path
       d="m 1266,4351 c -4,-5 -2,-12 3,-15 5,-4 12,-2 15,3 4,5 2,12 -3,15 -5,4 -12,2 -15,-3 z"
       id="path181"
       style="fill:#ffffff" />
    <path
       d="m 1245,4310 c 3,-5 8,-10 11,-10 2,0 4,5 4,10 0,6 -5,10 -11,10 -5,0 -7,-4 -4,-10 z"
       id="path182"
       style="fill:#ffffff" />
    <path
       d="m 1220,4280 c 0,-5 5,-10 10,-10 6,0 10,5 10,10 0,6 -4,10 -10,10 -5,0 -10,-4 -10,-10 z"
       id="path183"
       style="fill:#ffffff" />
    <path
       d="m 1195,4250 c -3,-5 -1,-10 4,-10 6,0 11,5 11,10 0,6 -2,10 -4,10 -3,0 -8,-4 -11,-10 z"
       id="path184"
       style="fill:#ffffff" />
    <path
       d="m 1170,4220 c 0,-5 5,-10 10,-10 6,0 10,5 10,10 0,6 -4,10 -10,10 -5,0 -10,-4 -10,-10 z"
       id="path185"
       style="fill:#ffffff" />
    <path
       d="m 1150,4184 c 0,-8 5,-12 10,-9 6,4 8,11 5,16 -9,14 -15,11 -15,-7 z"
       id="path186"
       style="fill:#ffffff" />
    <path
       d="m 1125,4150 c 4,-6 11,-8 16,-5 14,9 11,15 -7,15 -8,0 -12,-5 -9,-10 z"
       id="path187"
       style="fill:#ffffff" />
    <path
       d="m 1100,4120 c 0,-5 5,-10 10,-10 6,0 10,5 10,10 0,6 -4,10 -10,10 -5,0 -10,-4 -10,-10 z"
       id="path188"
       style="fill:#ffffff" />
    <path
       d="m 1080,4090 c 0,-5 5,-10 11,-10 5,0 7,5 4,10 -3,6 -8,10 -11,10 -2,0 -4,-4 -4,-10 z"
       id="path189"
       style="fill:#ffffff" />
    <path
       d="m 1055,4061 c -3,-5 -1,-12 5,-16 5,-3 10,1 10,9 0,18 -6,21 -15,7 z"
       id="path190"
       style="fill:#ffffff" />
    <path
       d="m 1663.9545,3610.7857 -377,-565 -29,25 c -39,33 -125,74 -191,91 -259.99995,69 -541.99995,-104 -613.99995,-376 -82,-306 173,-629 495,-629 273.99995,0 509.99995,236 509.99995,510 0,113 -56,264 -121,326 -16,15 -29,31 -29,36 0,4 167,258 371,564 204,306 373,562 376,570 24,63 -64,-62 -391,-552 z m -566,-478 c 49,-15 110,-48 152,-82 l 26,-21 -19,-29 c -21,-32 -24,-44 -10,-44 5,0 18,14 28,30 l 19,30 30,-37 c 105,-133 138,-305 90,-464 -45,-145 -182,-278 -331,-320 -27,-7 -87.99995,-14 -134.99995,-14 -142,0 -248,43 -345,140 -120,121 -166,278 -130,449 42,199 194,342 405,380 41,7 171.99995,-3 219.99995,-18 z"
       id="path191"
       style="fill:#ffffff" />
    <path
       d="m 658,2655 c -30,-22 -48,-43 -48,-55 0,-26 5,-25 44,5 18,14 36,25 39,25 4,0 7,-70 7,-155 v -155 h -50 c -43,0 -50,-3 -50,-20 0,-19 7,-20 125,-20 118,0 125,1 125,20 0,17 -7,20 -50,20 h -50 v 185 185 h -22 c -13,0 -44,-16 -70,-35 z"
       id="path192"
       style="fill:#ffffff" />
    <path
       d="m 930,2641 c 0,-26 -3,-76 -6,-110 l -7,-61 h 29 c 16,0 38,7 48,15 30,23 81,18 113,-9 23,-20 28,-32 28,-71 0,-39 -5,-51 -28,-71 -41,-35 -91,-33 -127,6 -27,29 -70,41 -70,20 0,-23 36,-63 67,-76 71,-30 158,-8 193,48 32,51 24,129 -19,171 -27,28 -38,32 -84,32 -28,0 -63,-4 -76,-9 -20,-7 -23,-6 -18,9 4,9 7,39 7,66 v 49 h 95 c 88,0 95,1 95,20 0,19 -7,20 -120,20 H 930 Z"
       id="path193"
       style="fill:#ffffff" />
    <path
       d="m 2570,4063 c 0,-5 214,-264 475,-577 l 474,-569 -33,-37 c -68,-75 -116,-208 -116,-320 0,-228 164,-435 391,-495 260,-69 542,104 614,376 82,306 -173,629 -495,629 -108,0 -242,-47 -314,-111 l -32,-28 -475,570 c -260,313 -477,569 -481,569 -5,0 -8,-3 -8,-7 z M 4030,3026 c 146,-45 279,-183 321,-331 18,-64 18,-206 0,-270 -43,-153 -183,-293 -336,-336 -27,-7 -88,-14 -135,-14 -143,0 -249,44 -346,142 -98,99 -139,201 -139,343 0,125 35,224 110,315 l 25,30 24,-30 c 13,-16 27,-27 31,-23 4,4 -2,19 -14,34 l -21,27 22,24 c 43,46 139,89 238,107 41,7 172,-3 220,-18 z"
       id="path194"
       style="fill:#ffffff" />
    <path
       d="m 3654,2690 c -25,-10 -74,-66 -74,-86 0,-25 49,-17 60,10 11,30 39,46 79,46 41,0 71,-31 71,-74 0,-43 -38,-76 -86,-76 -27,0 -34,-4 -34,-20 0,-17 7,-20 39,-20 56,0 91,-31 91,-80 0,-30 -6,-43 -26,-59 -50,-39 -108,-24 -149,41 -7,10 -18,13 -33,9 -22,-6 -22,-6 -5,-41 31,-62 122,-88 196,-56 43,18 64,44 71,86 8,44 -9,77 -53,107 -19,13 -27,23 -19,23 8,0 24,10 36,23 24,26 30,93 11,129 -21,39 -119,61 -175,38 z"
       id="path195"
       style="fill:#ffffff" />
    <path
       d="m 3988,2653 c -28,-20 -48,-43 -48,-54 0,-25 7,-24 46,6 18,14 37,25 43,25 7,0 11,-52 11,-155 v -155 h -55 c -48,0 -55,-2 -55,-20 0,-19 7,-20 130,-20 123,0 130,1 130,20 0,17 -7,20 -50,20 h -50 v 185 185 l -27,-1 c -16,0 -49,-16 -75,-36 z"
       id="path196"
       style="fill:#ffffff" />
    <path
       d="m 5970,4060 c 0,-20 30,-341 36,-387 l 5,-42 45,20 c 25,10 51,19 58,19 7,0 67,-138 136,-310 68,-170 127,-310 132,-310 4,0 8,2 8,5 0,3 -55,141 -121,307 -67,167 -123,308 -126,314 -2,6 21,19 52,29 33,12 54,24 51,31 -6,16 -258,328 -268,332 -4,2 -8,-2 -8,-8 z"
       id="path197"
       style="fill:#ffffff" />
    <path
       d="m 1030,4020 c 0,-5 5,-10 10,-10 6,0 10,5 10,10 0,6 -4,10 -10,10 -5,0 -10,-4 -10,-10 z"
       id="path198"
       style="fill:#ffffff" />
    <path
       d="m 1010,3989 c 0,-5 5,-7 10,-4 6,3 10,8 10,11 0,2 -4,4 -10,4 -5,0 -10,-5 -10,-11 z"
       id="path199"
       style="fill:#ffffff" />
    <path
       d="m 980,3960 c 0,-5 5,-10 10,-10 6,0 10,5 10,10 0,6 -4,10 -10,10 -5,0 -10,-4 -10,-10 z"
       id="path200"
       style="fill:#ffffff" />
    <path
       d="m 960,3930 c 0,-5 5,-10 11,-10 5,0 7,5 4,10 -3,6 -8,10 -11,10 -2,0 -4,-4 -4,-10 z"
       id="path201"
       style="fill:#ffffff" />
    <path
       d="m 936,3901 c -4,-5 -2,-12 3,-15 5,-4 12,-2 15,3 4,5 2,12 -3,15 -5,4 -12,2 -15,-3 z"
       id="path202"
       style="fill:#ffffff" />
    <path
       d="m 910,3860 c 0,-5 5,-10 10,-10 6,0 10,5 10,10 0,6 -4,10 -10,10 -5,0 -10,-4 -10,-10 z"
       id="path203"
       style="fill:#ffffff" />
    <path
       d="m 890,3830 c 0,-5 5,-10 10,-10 6,0 10,5 10,10 0,6 -4,10 -10,10 -5,0 -10,-4 -10,-10 z"
       id="path204"
       style="fill:#ffffff" />
    <path
       d="m 865,3800 c -3,-5 -1,-10 4,-10 6,0 11,5 11,10 0,6 -2,10 -4,10 -3,0 -8,-4 -11,-10 z"
       id="path205"
       style="fill:#ffffff" />
    <path
       d="m 845,3760 c 3,-5 8,-10 11,-10 2,0 4,5 4,10 0,6 -5,10 -11,10 -5,0 -7,-4 -4,-10 z"
       id="path206"
       style="fill:#ffffff" />
    <path
       d="m 820,3729 c 0,-5 5,-7 10,-4 6,3 10,8 10,11 0,2 -4,4 -10,4 -5,0 -10,-5 -10,-11 z"
       id="path207"
       style="fill:#ffffff" />
    <path
       d="m 790,3700 c 0,-5 5,-10 10,-10 6,0 10,5 10,10 0,6 -4,10 -10,10 -5,0 -10,-4 -10,-10 z"
       id="path208"
       style="fill:#ffffff" />
    <path
       d="m 770,3670 c 0,-5 5,-10 10,-10 6,0 10,5 10,10 0,6 -4,10 -10,10 -5,0 -10,-4 -10,-10 z"
       id="path209"
       style="fill:#ffffff" />
    <path
       d="m 746,3641 c -4,-5 -2,-12 3,-15 5,-4 12,-2 15,3 4,5 2,12 -3,15 -5,4 -12,2 -15,-3 z"
       id="path210"
       style="fill:#ffffff" />
    <path
       d="m 725,3600 c 3,-5 8,-10 11,-10 2,0 4,5 4,10 0,6 -5,10 -11,10 -5,0 -7,-4 -4,-10 z"
       id="path211"
       style="fill:#ffffff" />
    <path
       d="m 700,3570 c 0,-5 5,-10 10,-10 6,0 10,5 10,10 0,6 -4,10 -10,10 -5,0 -10,-4 -10,-10 z"
       id="path212"
       style="fill:#ffffff" />
    <path
       d="m 675,3540 c -3,-5 -1,-10 4,-10 6,0 11,5 11,10 0,6 -2,10 -4,10 -3,0 -8,-4 -11,-10 z"
       id="path213"
       style="fill:#ffffff" />
    <path
       d="m 650,3510 c 0,-5 5,-10 10,-10 6,0 10,5 10,10 0,6 -4,10 -10,10 -5,0 -10,-4 -10,-10 z"
       id="path214"
       style="fill:#ffffff" />
    <path
       d="m 630,3474 c 0,-8 5,-12 10,-9 6,4 8,11 5,16 -9,14 -15,11 -15,-7 z"
       id="path215"
       style="fill:#ffffff" />
    <path
       d="m 605,3440 c 3,-5 8,-10 11,-10 2,0 4,5 4,10 0,6 -5,10 -11,10 -5,0 -7,-4 -4,-10 z"
       id="path216"
       style="fill:#ffffff" />
    <path
       d="m 580,3410 c 0,-5 5,-10 10,-10 6,0 10,5 10,10 0,6 -4,10 -10,10 -5,0 -10,-4 -10,-10 z"
       id="path217"
       style="fill:#ffffff" />
    <path
       d="m 560,3380 c 0,-5 5,-10 11,-10 5,0 7,5 4,10 -3,6 -8,10 -11,10 -2,0 -4,-4 -4,-10 z"
       id="path218"
       style="fill:#ffffff" />
    <path
       d="m 535,3351 c -3,-5 -1,-12 5,-16 5,-3 10,1 10,9 0,18 -6,21 -15,7 z"
       id="path219"
       style="fill:#ffffff" />
    <path
       d="m 510,3310 c 0,-5 5,-10 10,-10 6,0 10,5 10,10 0,6 -4,10 -10,10 -5,0 -10,-4 -10,-10 z"
       id="path220"
       style="fill:#ffffff" />
    <path
       d="m 430,3273 c 1,-57 25,-76 74,-57 28,11 17,24 -16,19 -18,-3 -27,-3 -20,1 17,8 15,27 -3,20 -10,-4 -15,1 -15,14 0,11 -4,20 -10,20 -5,0 -10,-8 -10,-17 z"
       id="path221"
       style="fill:#ffffff" />
    <path
       d="m 490,3279 c 0,-5 5,-7 10,-4 6,3 10,8 10,11 0,2 -4,4 -10,4 -5,0 -10,-5 -10,-11 z"
       id="path222"
       style="fill:#ffffff" />
    <path
       d="m 5275,3199 c -258,-37 -475,-68 -481,-69 -6,0 -14,23 -17,50 -3,28 -9,54 -12,59 -6,11 -388,-163 -393,-179 -2,-5 -1,-10 2,-10 3,0 95,-13 203,-30 108,-16 203,-30 211,-30 12,0 13,11 8,60 -4,33 -3,60 2,60 4,0 228,32 497,70 269,39 490,70 492,70 2,0 3,5 3,10 0,14 0,14 -515,-61 z"
       id="path223"
       style="fill:#ffffff" />
    <path
       d="m 6620,3033 c -1,-63 -3,-75 -13,-62 -30,40 -104,52 -145,23 -72,-50 -80,-235 -12,-296 45,-42 121,-36 157,11 11,14 12,13 13,-6 0,-18 6,-23 25,-23 h 25 v 215 215 h -25 c -24,0 -25,-2 -25,-77 z m -31,-82 c 41,-41 40,-174 0,-218 -29,-30 -79,-31 -105,-2 -16,17 -19,37 -19,109 0,72 3,92 19,109 25,27 79,28 105,2 z"
       id="path224"
       style="fill:#ffffff" />
    <path
       d="m 5660,2885 v -205 h 25 25 v 172 171 l 108,-169 c 99,-157 109,-169 140,-172 l 32,-3 v 205 c 0,199 -1,206 -20,206 -19,0 -20,-7 -20,-171 0,-93 -4,-168 -8,-165 -5,3 -56,80 -113,171 -100,158 -105,165 -136,165 h -33 z"
       id="path225"
       style="fill:#ffffff" />
    <path
       d="m 12140,2865 v -195 h 25 25 v 110 c 0,104 1,112 25,135 29,30 68,32 95,5 18,-18 20,-33 20,-135 0,-108 1,-115 20,-115 19,0 20,7 20,125 0,120 -1,127 -25,150 -31,32 -91,34 -128,5 -14,-11 -28,-20 -31,-20 -3,0 -6,29 -6,65 0,58 -2,65 -20,65 -19,0 -20,-7 -20,-195 z"
       id="path226"
       style="fill:#ffffff" />
    <path
       d="m 13147,2920 c -48,-71 -87,-136 -87,-145 0,-11 19,-15 93,-17 l 92,-3 3,-37 c 3,-30 7,-38 23,-38 16,0 19,7 19,40 0,36 3,40 25,40 16,0 25,6 25,15 0,9 -9,15 -25,15 h -25 v 130 130 h -28 c -26,0 -38,-14 -115,-130 z m 93,-30 v -100 h -66 c -36,0 -64,4 -62,8 5,13 122,192 125,192 2,0 3,-45 3,-100 z"
       id="path227"
       style="fill:#ffffff" />
    <path
       d="m 10960,2845 v -185 h 93 c 104,0 159,19 195,65 48,61 53,164 10,232 -33,54 -84,73 -200,73 h -98 z m 210,127 c 65,-32 87,-118 51,-198 -24,-52 -68,-74 -150,-74 h -61 v 145 145 h 63 c 39,0 75,-6 97,-18 z"
       id="path228"
       style="fill:#ffffff" />
    <path
       d="m 11995,2990 c -5,-21 -13,-30 -26,-30 -10,0 -19,-7 -19,-15 0,-8 6,-15 14,-15 19,0 22,-19 25,-140 2,-117 9,-130 68,-130 23,0 33,5 33,15 0,8 -8,15 -19,15 -35,0 -42,23 -39,131 l 3,104 28,3 c 38,5 36,32 -3,32 -27,0 -30,3 -30,30 0,19 -5,30 -14,30 -8,0 -17,-13 -21,-30 z"
       id="path229"
       style="fill:#ffffff" />
    <path
       d="m 6142,2995 c -97,-42 -95,-270 2,-310 76,-32 153,-10 185,54 27,52 28,151 3,201 -31,62 -116,87 -190,55 z m 126,-50 c 42,-53 39,-169 -4,-212 -50,-50 -125,-15 -139,65 -16,98 22,172 89,172 25,0 40,-7 54,-25 z"
       id="path230"
       style="fill:#ffffff" />
    <path
       d="m 6810,2992 c -47,-23 -70,-71 -70,-150 0,-108 35,-158 118,-169 52,-7 106,12 132,45 l 21,26 -20,8 c -15,5 -27,1 -45,-17 -45,-45 -117,-30 -142,30 -27,65 -26,65 102,65 h 116 l -7,48 c -4,26 -14,59 -23,74 -32,55 -116,73 -182,40 z m 119,-39 c 11,-10 24,-33 27,-50 l 7,-33 h -88 -87 l 6,28 c 15,61 90,92 135,55 z"
       id="path231"
       style="fill:#ffffff" />
    <path
       d="m 7124,2996 c -35,-15 -44,-32 -44,-80 0,-42 30,-70 97,-89 79,-23 93,-34 93,-67 0,-36 -23,-50 -80,-50 -31,0 -47,6 -67,26 -20,20 -30,24 -46,17 -19,-9 -19,-10 9,-42 70,-78 234,-41 234,52 0,50 -27,76 -105,102 -84,27 -107,53 -76,84 28,28 91,28 116,1 25,-28 57,-27 53,3 -7,47 -115,73 -184,43 z"
       id="path232"
       style="fill:#ffffff" />
    <path
       d="m 11755,2950 c -47,-24 -45,-24 -45,-5 0,8 -9,15 -20,15 -19,0 -20,-7 -20,-205 v -205 h 25 c 24,0 25,2 25,75 v 76 l 22,-21 c 16,-14 35,-20 69,-20 40,0 51,4 73,30 57,69 42,231 -25,266 -37,19 -57,18 -104,-6 z m 91,-41 c 15,-17 19,-36 19,-99 0,-63 -4,-82 -19,-99 -26,-29 -71,-27 -101,4 -22,21 -25,33 -25,93 0,55 4,75 21,96 26,33 77,36 105,5 z"
       id="path233"
       style="fill:#ffffff" />
    <path
       d="m 11403,2940 c -44,-26 -55,-53 -55,-125 0,-115 53,-173 149,-162 41,4 93,37 93,59 0,19 -30,18 -49,-1 -23,-23 -79,-28 -111,-11 -16,9 -40,64 -40,93 0,4 47,7 105,7 h 105 v 33 c 0,43 -29,99 -60,114 -37,19 -101,16 -137,-7 z m 122,-35 c 14,-13 25,-36 25,-50 0,-25 -1,-25 -73,-25 -41,0 -76,3 -79,6 -10,10 10,66 29,80 28,21 71,17 98,-11 z"
       id="path234"
       style="fill:#ffffff" />
    <path
       d="m 12590,2920 c 0,-19 7,-20 98,-20 120,0 172,8 172,26 0,11 -27,14 -135,14 -128,0 -135,-1 -135,-20 z"
       id="path235"
       style="fill:#ffffff" />
    <path
       d="m 12590,2779 c 0,-20 4,-21 53,-15 28,3 89,6 135,6 66,0 82,3 82,15 0,13 -22,15 -135,15 -131,0 -135,-1 -135,-21 z"
       id="path236"
       style="fill:#ffffff" />
    <path
       d="m 1172,2057 c 2,-7 48,-94 102,-194 l 100,-182 45,40 45,40 458,-458 c 251,-251 461,-454 465,-450 4,4 -199,214 -452,467 l -459,459 42,42 c 23,24 40,44 39,45 -10,9 -373,204 -380,204 -4,0 -7,-6 -5,-13 z"
       id="path237"
       style="fill:#ffffff" />
    <path
       d="m 3270,1984 c -143,-118 -220,-185 -220,-192 0,-4 20,-20 45,-35 25,-16 45,-31 45,-33 0,-2 -126,-194 -281,-425 -154,-231 -283,-427 -286,-435 -23,-60 53,44 301,417 l 287,431 25,-16 c 13,-9 35,-23 49,-32 14,-9 27,-15 29,-13 4,5 126,405 126,413 0,15 -21,0 -120,-80 z"
       id="path238"
       style="fill:#ffffff" />
    <path
       d="m 1940,685 c 0,-21 5,-25 30,-25 25,0 30,4 30,25 0,21 -5,25 -30,25 -25,0 -30,-4 -30,-25 z"
       id="path239"
       style="fill:#ffffff" />
    <path
       d="M 1620,485 V 280 h 130 130 v 25 25 h -105 -105 v 180 180 h -25 -25 z"
       id="path240"
       style="fill:#ffffff" />
    <path
       d="m 2440,593 c -52,-27 -73,-72 -72,-152 0,-107 36,-157 120,-168 52,-7 106,12 132,45 l 21,26 -22,8 c -16,6 -27,2 -45,-17 -49,-53 -138,-19 -151,58 l -6,37 h 117 118 l -6,30 c -3,17 -8,43 -11,59 -15,73 -119,113 -195,74 z m 105,-29 c 18,-7 45,-54 45,-79 0,-12 -15,-15 -85,-15 -77,0 -85,2 -85,19 0,11 12,33 26,50 26,31 60,39 99,25 z"
       id="path241"
       style="fill:#ffffff" />
    <path
       d="m 2754,601 c -30,-13 -54,-50 -54,-84 0,-40 38,-73 106,-93 91,-26 114,-54 74,-94 -30,-30 -94,-27 -126,5 -17,17 -32,24 -45,20 -25,-8 -24,-21 5,-50 49,-49 163,-46 209,5 15,16 27,39 27,51 0,29 -27,77 -47,84 -10,3 -47,16 -83,28 -54,18 -66,26 -68,46 -5,32 21,51 70,51 25,0 45,-7 58,-20 11,-11 26,-20 34,-20 27,0 29,22 3,48 -21,21 -38,26 -84,29 -32,1 -68,-1 -79,-6 z"
       id="path242"
       style="fill:#ffffff" />
    <path
       d="M 1940,440 V 280 h 30 30 v 160 160 h -30 -30 z"
       id="path243"
       style="fill:#ffffff" />
    <path
       d="m 2043,588 c 2,-7 28,-79 58,-160 54,-147 54,-148 85,-148 31,0 32,2 72,108 22,59 49,131 61,160 l 21,52 h -29 c -27,0 -30,-4 -71,-122 -23,-68 -45,-129 -49,-136 -4,-6 -27,49 -51,123 -43,132 -45,135 -73,135 -19,0 -28,-4 -24,-12 z"
       id="path244"
       style="fill:#ffffff" />
  </g>
</svg>
