<?xml version="1.0" standalone="no"?>
<!DOCTYPE svg PUBLIC "-//W3C//DTD SVG 20010904//EN"
 "http://www.w3.org/TR/2001/REC-SVG-20010904/DTD/svg10.dtd">
<svg version="1.0" xmlns="http://www.w3.org/2000/svg"
 width="790.000000pt" height="457.000000pt" viewBox="0 0 790.000000 457.000000"
 preserveAspectRatio="xMidYMid meet">

<g transform="translate(0.000000,457.000000) scale(0.100000,-0.100000)"
fill="#000000" stroke="none">
<path d="M140 3970 l0 -300 250 0 250 0 0 -45 c0 -43 -1 -45 -30 -45 -37 0
-37 -4 -5 -110 14 -46 25 -85 25 -87 0 -2 -110 -3 -245 -3 l-245 0 0 -155 0
-155 250 0 250 0 0 -40 c0 -37 -2 -40 -28 -40 -16 0 -31 -2 -34 -5 -3 -3 7
-47 23 -97 16 -51 29 -93 29 -95 0 -2 -110 -3 -245 -3 l-245 0 0 -305 0 -305
250 0 250 0 0 -40 c0 -33 -3 -40 -19 -40 -49 0 -50 -6 -20 -103 16 -51 29 -93
29 -94 0 -2 -110 -3 -245 -3 l-245 0 0 -600 0 -600 250 0 c243 0 250 -1 250
-20 0 -16 -7 -20 -30 -20 -37 0 -37 -4 -5 -110 14 -46 25 -85 25 -87 0 -2
-110 -3 -245 -3 l-245 0 0 -155 0 -155 500 0 500 0 0 155 0 155 -245 0 c-135
0 -245 1 -245 3 0 2 11 41 25 87 31 104 31 110 0 110 -18 0 -25 5 -25 20 0 19
7 20 245 20 l245 0 0 600 0 600 -245 0 c-135 0 -245 1 -245 3 0 1 13 43 29 94
16 51 26 94 23 97 -3 4 -16 6 -29 6 -20 0 -23 5 -23 40 l0 40 245 0 245 0 0
305 0 305 -245 0 c-135 0 -245 1 -245 3 0 2 13 44 29 95 16 50 26 94 23 97 -3
3 -16 5 -29 5 -20 0 -23 5 -23 40 l0 40 245 0 244 0 3 98 3 97 90 0 90 0 3
-28 c2 -17 8 -27 15 -24 7 2 48 14 92 27 44 12 86 24 94 26 8 3 10 8 5 13 -8
7 -182 61 -197 61 -4 0 -7 -13 -7 -30 l0 -30 -95 0 -95 0 0 50 0 50 -245 0
c-135 0 -245 1 -245 3 0 2 11 41 25 87 31 104 31 110 0 110 -23 0 -25 4 -25
45 l0 45 245 0 245 0 0 300 0 300 -500 0 -500 0 0 -300z m990 150 l0 -140
-490 0 -490 0 0 140 0 140 490 0 490 0 0 -140z m0 -300 l0 -140 -490 0 -490 0
0 140 0 140 490 0 490 0 0 -140z m0 -595 l0 -145 -490 0 -490 0 0 145 0 145
490 0 490 0 0 -145z m0 -590 l0 -145 -490 0 -490 0 0 145 0 145 490 0 490 0 0
-145z m0 -300 l0 -145 -490 0 -490 0 0 145 0 145 490 0 490 0 0 -145z m0 -590
l0 -145 -490 0 -490 0 0 145 0 145 490 0 490 0 0 -145z m0 -275 l0 -120 -490
0 -490 0 0 120 0 120 490 0 490 0 0 -120z m0 -295 l0 -165 -490 0 -490 0 0
165 0 165 490 0 490 0 0 -165z m0 -325 l0 -140 -240 0 -240 0 -1 23 -2 22 -4
-22 -4 -23 -245 0 -244 0 0 140 0 140 490 0 490 0 0 -140z m0 -545 l0 -145
-490 0 -490 0 0 145 0 145 490 0 490 0 0 -145z"/>
<path d="M276 4162 c-3 -5 5 -8 17 -8 19 1 22 -4 22 -39 0 -35 -3 -40 -23 -39
-16 0 -20 -2 -12 -10 30 -30 67 56 39 90 -13 15 -35 19 -43 6z"/>
<path d="M350 4164 c0 -6 7 -17 15 -24 9 -7 14 -19 11 -27 -3 -7 -1 -13 5 -13
6 0 20 -10 31 -22 19 -22 19 -21 -1 8 -18 28 -19 33 -6 50 8 10 15 23 15 29 0
5 -7 -1 -16 -14 l-17 -24 -18 24 c-10 13 -19 19 -19 13z"/>
<path d="M457 4163 c-4 -3 -7 -11 -7 -17 0 -6 4 -5 9 3 16 25 41 4 41 -34 0
-38 -25 -59 -41 -34 -6 10 -9 11 -9 1 0 -19 28 -26 45 -12 18 15 20 71 3 88
-13 13 -31 16 -41 5z"/>
<path d="M542 4158 c-17 -17 -15 -73 3 -88 19 -16 45 -6 44 17 -1 17 -2 17 -6
0 -3 -10 -12 -17 -21 -15 -24 5 -24 81 0 86 9 2 19 -5 22 -15 4 -15 5 -15 3 2
-3 23 -27 31 -45 13z"/>
<path d="M622 4158 c-17 -17 -15 -73 3 -88 17 -14 45 -7 45 12 0 10 -3 9 -9
-1 -16 -25 -41 -4 -41 34 0 39 25 59 42 34 8 -12 9 -11 5 1 -5 19 -29 24 -45
8z"/>
<path d="M721 4165 c-2 -5 -2 -27 -1 -49 1 -23 -4 -42 -12 -47 -8 -6 -1 -8 22
-8 19 1 27 3 18 6 -13 3 -18 18 -21 56 -2 29 -5 48 -6 42z"/>
<path d="M262 4115 c0 -16 2 -22 5 -12 2 9 2 23 0 30 -3 6 -5 -1 -5 -18z"/>
<path d="M441 4114 c0 -11 3 -14 6 -6 3 7 2 16 -1 19 -3 4 -6 -2 -5 -13z"/>
<path d="M350 4075 c-7 -9 -8 -15 -2 -15 5 0 12 7 16 15 3 8 4 15 2 15 -2 0
-9 -7 -16 -15z"/>
<path d="M276 3862 c-3 -5 5 -8 17 -8 19 1 22 -4 22 -39 0 -35 -3 -40 -23 -39
-16 0 -20 -2 -12 -10 30 -30 67 56 39 90 -13 15 -35 19 -43 6z"/>
<path d="M350 3864 c0 -6 7 -17 15 -24 9 -7 14 -19 11 -27 -3 -7 -1 -13 5 -13
6 0 20 -10 31 -22 19 -22 19 -21 -1 8 -18 28 -19 33 -6 50 8 10 15 23 15 29 0
5 -7 -1 -16 -14 l-17 -24 -18 24 c-10 13 -19 19 -19 13z"/>
<path d="M457 3863 c-4 -3 -7 -11 -7 -17 0 -6 4 -5 9 3 16 25 41 4 41 -34 0
-38 -25 -59 -41 -34 -6 10 -9 11 -9 1 0 -19 28 -26 45 -12 18 15 20 71 3 88
-13 13 -31 16 -41 5z"/>
<path d="M542 3858 c-17 -17 -15 -73 3 -88 19 -16 45 -6 44 17 -1 17 -2 17 -6
0 -3 -10 -12 -17 -21 -15 -24 5 -24 81 0 86 9 2 19 -5 22 -15 4 -15 5 -15 3 2
-3 23 -27 31 -45 13z"/>
<path d="M622 3858 c-17 -17 -15 -73 3 -88 17 -14 45 -7 45 12 0 10 -3 9 -9
-1 -16 -25 -41 -4 -41 34 0 39 25 59 42 34 8 -12 9 -11 5 1 -5 19 -29 24 -45
8z"/>
<path d="M707 3863 c-3 -5 5 -8 18 -8 13 0 21 3 18 8 -2 4 -10 7 -18 7 -8 0
-16 -3 -18 -7z"/>
<path d="M262 3815 c0 -16 2 -22 5 -12 2 9 2 23 0 30 -3 6 -5 -1 -5 -18z"/>
<path d="M441 3814 c0 -11 3 -14 6 -6 3 7 2 16 -1 19 -3 4 -6 -2 -5 -13z"/>
<path d="M717 3802 c-15 -15 -27 -31 -27 -35 0 -4 19 -6 43 -5 36 1 38 2 10 5
-34 4 -44 20 -19 29 8 3 17 12 20 20 8 20 3 18 -27 -14z"/>
<path d="M350 3775 c-7 -9 -8 -15 -2 -15 5 0 12 7 16 15 3 8 4 15 2 15 -2 0
-9 -7 -16 -15z"/>
<path d="M276 3272 c-3 -5 5 -8 17 -8 19 1 22 -4 22 -39 0 -35 -3 -40 -23 -39
-16 0 -20 -2 -12 -10 30 -30 67 56 39 90 -13 15 -35 19 -43 6z"/>
<path d="M350 3274 c0 -6 7 -17 15 -24 9 -7 14 -19 11 -27 -3 -7 -1 -13 5 -13
6 0 20 -10 31 -22 19 -22 19 -21 -1 8 -18 28 -19 33 -6 50 8 10 15 23 15 29 0
5 -7 -1 -16 -14 l-17 -24 -18 24 c-10 13 -19 19 -19 13z"/>
<path d="M457 3273 c-4 -3 -7 -11 -7 -17 0 -6 4 -5 9 3 16 25 41 4 41 -34 0
-38 -25 -59 -41 -34 -6 10 -9 11 -9 1 0 -19 28 -26 45 -12 18 15 20 71 3 88
-13 13 -31 16 -41 5z"/>
<path d="M542 3268 c-17 -17 -15 -73 3 -88 19 -16 45 -6 44 17 -1 17 -2 17 -6
0 -3 -10 -12 -17 -21 -15 -24 5 -24 81 0 86 9 2 19 -5 22 -15 4 -15 5 -15 3 2
-3 23 -27 31 -45 13z"/>
<path d="M622 3268 c-17 -17 -15 -73 3 -88 17 -14 45 -7 45 12 0 10 -3 9 -9
-1 -16 -25 -41 -4 -41 34 0 39 25 59 42 34 8 -12 9 -11 5 1 -5 19 -29 24 -45
8z"/>
<path d="M707 3273 c-3 -5 5 -8 18 -8 13 0 21 3 18 8 -2 4 -10 7 -18 7 -8 0
-16 -3 -18 -7z"/>
<path d="M262 3225 c0 -16 2 -22 5 -12 2 9 2 23 0 30 -3 6 -5 -1 -5 -18z"/>
<path d="M441 3224 c0 -11 3 -14 6 -6 3 7 2 16 -1 19 -3 4 -6 -2 -5 -13z"/>
<path d="M732 3233 c-10 -4 -8 -8 5 -18 15 -11 16 -16 5 -27 -10 -10 -17 -10
-35 1 -20 13 -21 13 -8 -2 7 -10 22 -17 33 -17 23 0 34 25 19 44 -6 7 -8 16
-4 19 7 8 4 8 -15 0z"/>
<path d="M350 3185 c-7 -9 -8 -15 -2 -15 5 0 12 7 16 15 3 8 4 15 2 15 -2 0
-9 -7 -16 -15z"/>
<path d="M276 2672 c-3 -5 5 -8 17 -8 19 1 22 -4 22 -39 0 -35 -3 -40 -23 -39
-16 0 -20 -2 -12 -10 30 -30 67 56 39 90 -13 15 -35 19 -43 6z"/>
<path d="M350 2674 c0 -6 7 -17 15 -24 9 -7 14 -19 11 -27 -3 -7 -1 -13 5 -13
6 0 20 -10 31 -22 19 -22 19 -21 -1 8 -18 28 -19 33 -6 50 8 10 15 23 15 29 0
5 -7 -1 -16 -14 l-17 -24 -18 24 c-10 13 -19 19 -19 13z"/>
<path d="M457 2673 c-4 -3 -7 -11 -7 -17 0 -6 4 -5 9 3 16 25 41 4 41 -34 0
-38 -25 -59 -41 -34 -6 10 -9 11 -9 1 0 -19 28 -26 45 -12 18 15 20 71 3 88
-13 13 -31 16 -41 5z"/>
<path d="M542 2668 c-17 -17 -15 -73 3 -88 19 -16 45 -6 44 17 -1 17 -2 17 -6
0 -3 -10 -12 -17 -21 -15 -24 5 -24 81 0 86 9 2 19 -5 22 -15 4 -15 5 -15 3 2
-3 23 -27 31 -45 13z"/>
<path d="M622 2668 c-17 -17 -15 -73 3 -88 17 -14 45 -7 45 12 0 10 -3 9 -9
-1 -16 -25 -41 -4 -41 34 0 39 25 59 42 34 8 -12 9 -11 5 1 -5 19 -29 24 -45
8z"/>
<path d="M721 2658 c-13 -21 -13 -22 2 -9 15 12 17 11 17 -13 0 -20 -5 -26
-21 -26 -13 0 -18 4 -13 12 4 7 3 8 -4 4 -20 -12 -13 -26 13 -26 17 0 25 -6
26 -17 0 -17 1 -17 7 0 9 20 3 97 -7 97 -3 0 -12 -10 -20 -22z"/>
<path d="M262 2625 c0 -16 2 -22 5 -12 2 9 2 23 0 30 -3 6 -5 -1 -5 -18z"/>
<path d="M441 2624 c0 -11 3 -14 6 -6 3 7 2 16 -1 19 -3 4 -6 -2 -5 -13z"/>
<path d="M350 2585 c-7 -9 -8 -15 -2 -15 5 0 12 7 16 15 3 8 4 15 2 15 -2 0
-9 -7 -16 -15z"/>
<path d="M276 2372 c-3 -5 5 -8 17 -8 19 1 22 -4 22 -39 0 -35 -3 -40 -23 -39
-16 0 -20 -2 -12 -10 30 -30 67 56 39 90 -13 15 -35 19 -43 6z"/>
<path d="M350 2374 c0 -6 7 -17 15 -24 9 -7 14 -19 11 -27 -3 -7 -1 -13 5 -13
6 0 20 -10 31 -22 19 -22 19 -21 -1 8 -18 28 -19 33 -6 50 8 10 15 23 15 29 0
5 -7 -1 -16 -14 l-17 -24 -18 24 c-10 13 -19 19 -19 13z"/>
<path d="M457 2373 c-4 -3 -7 -11 -7 -17 0 -6 4 -5 9 3 16 25 41 4 41 -34 0
-38 -25 -59 -41 -34 -6 10 -9 11 -9 1 0 -19 28 -26 45 -12 18 15 20 71 3 88
-13 13 -31 16 -41 5z"/>
<path d="M542 2368 c-17 -17 -15 -73 3 -88 19 -16 45 -6 44 17 -1 17 -2 17 -6
0 -3 -10 -12 -17 -21 -15 -24 5 -24 81 0 86 9 2 19 -5 22 -15 4 -15 5 -15 3 2
-3 23 -27 31 -45 13z"/>
<path d="M622 2368 c-17 -17 -15 -73 3 -88 17 -14 45 -7 45 12 0 10 -3 9 -9
-1 -16 -25 -41 -4 -41 34 0 39 25 59 42 34 8 -12 9 -11 5 1 -5 19 -29 24 -45
8z"/>
<path d="M700 2371 c0 -4 11 -6 25 -3 14 2 25 6 25 8 0 2 -11 4 -25 4 -14 0
-25 -4 -25 -9z"/>
<path d="M262 2325 c0 -16 2 -22 5 -12 2 9 2 23 0 30 -3 6 -5 -1 -5 -18z"/>
<path d="M441 2324 c0 -11 3 -14 6 -6 3 7 2 16 -1 19 -3 4 -6 -2 -5 -13z"/>
<path d="M700 2332 c0 -5 10 -8 23 -8 16 1 22 -5 22 -19 0 -14 -6 -20 -22 -19
-12 0 -20 -3 -17 -8 8 -13 30 -9 44 7 18 22 3 55 -26 55 -13 0 -24 -4 -24 -8z"/>
<path d="M350 2285 c-7 -9 -8 -15 -2 -15 5 0 12 7 16 15 3 8 4 15 2 15 -2 0
-9 -7 -16 -15z"/>
<path d="M1570 4199 c0 -67 -1 -70 -21 -64 -48 15 -154 45 -161 45 -5 0 -8
-13 -8 -30 l0 -30 -102 -2 -103 -2 100 -5 c98 -6 100 -6 105 -32 l5 -27 93 28
92 28 0 -138 0 -138 -95 28 -95 28 0 -34 0 -33 -102 -4 -103 -3 103 -2 c102
-2 102 -2 102 -27 0 -31 5 -31 105 0 44 14 81 25 83 25 1 0 2 -31 2 -70 l0
-70 348 0 c1855 -1 2485 0 2488 2 3 4 6 239 5 451 l-1 147 -1420 0 -1420 0 0
-71z m700 -79 l0 -140 -344 0 -345 0 0 140 0 140 345 0 344 0 0 -140z m2130 0
l0 -140 -1060 0 -1060 0 0 140 0 140 1060 0 1060 0 0 -140z m-2130 -300 l0
-140 -345 0 -344 0 0 140 0 140 344 0 345 0 0 -140z m2130 0 l0 -140 -1060 0
-1060 0 0 140 0 140 1060 0 1060 0 0 -140z"/>
<path d="M1712 4158 c-17 -17 -15 -73 3 -88 17 -14 45 -7 45 12 0 10 -3 9 -9
-1 -11 -17 -41 -7 -41 14 0 21 30 31 42 14 8 -12 9 -11 5 1 -2 8 -14 15 -26
14 -15 0 -21 4 -19 15 2 9 13 16 25 15 12 0 20 3 17 8 -7 12 -28 10 -42 -4z"/>
<path d="M1820 4154 c0 -8 5 -12 10 -9 6 4 8 11 5 16 -9 14 -15 11 -15 -7z"/>
<path d="M1877 4163 c-3 -5 5 -8 18 -8 13 0 21 3 18 8 -2 4 -10 7 -18 7 -8 0
-16 -3 -18 -7z"/>
<path d="M1957 4163 c-4 -3 -7 -11 -7 -17 0 -6 4 -5 9 3 16 25 41 4 41 -34 0
-38 -25 -59 -41 -34 -6 10 -9 11 -9 1 0 -19 28 -26 45 -12 18 15 20 71 3 88
-13 13 -31 16 -41 5z"/>
<path d="M2040 4155 c-10 -12 -10 -19 -2 -27 8 -8 9 -15 1 -25 -9 -9 -8 -17 1
-28 14 -16 36 -20 44 -7 3 5 -5 8 -17 8 -13 -1 -22 5 -22 14 0 9 9 15 21 14
11 0 21 5 21 11 0 6 -10 11 -21 11 -12 -1 -21 5 -21 14 0 9 9 15 22 14 12 0
20 3 17 8 -8 13 -30 9 -44 -7z"/>
<path d="M2127 4163 c-3 -5 5 -8 18 -8 13 0 21 3 18 8 -2 4 -10 7 -18 7 -8 0
-16 -3 -18 -7z"/>
<path d="M1888 4101 c-16 -14 -28 -30 -28 -34 0 -4 19 -6 43 -5 38 1 39 2 8 5
l-33 4 23 25 c31 33 20 38 -13 5z"/>
<path d="M2152 4123 c-10 -4 -9 -8 4 -17 21 -16 9 -40 -17 -33 -11 3 -17 1
-13 -4 9 -15 44 -10 50 6 4 8 1 21 -5 29 -6 7 -8 16 -4 19 7 8 4 8 -15 0z"/>
<path d="M1780 4098 c0 -4 16 -8 35 -8 19 0 35 2 35 4 0 2 -16 6 -35 8 -19 2
-35 0 -35 -4z"/>
<path d="M2400 4116 c0 -55 0 -56 29 -56 17 0 32 4 35 8 3 5 -8 6 -25 4 -25
-4 -29 -1 -29 18 0 19 4 22 28 18 25 -4 28 -1 27 27 0 27 -4 30 -32 33 l-33 3
0 -55z m55 24 c0 -8 -10 -16 -22 -18 -18 -3 -23 2 -23 18 0 16 5 21 23 18 12
-2 22 -10 22 -18z"/>
<path d="M2941 4113 c1 -32 4 -48 6 -35 3 15 11 22 28 22 13 0 26 4 29 8 3 5
-8 6 -25 4 -26 -4 -29 -2 -29 23 0 25 3 27 29 23 17 -2 28 -1 25 4 -3 4 -18 8
-35 8 -29 0 -29 0 -28 -57z"/>
<path d="M2491 4095 c2 -33 3 -35 6 -10 2 17 11 35 20 42 13 10 13 12 -6 10
-18 -1 -21 -7 -20 -42z"/>
<path d="M2543 4100 c0 -25 2 -35 4 -22 2 12 2 32 0 45 -2 12 -4 2 -4 -23z"/>
<path d="M2578 4100 c2 -22 7 -40 11 -40 4 0 5 16 3 35 -3 27 -1 35 11 35 10
0 17 -11 19 -32 2 -17 10 -33 18 -35 12 -4 13 -3 1 5 -8 6 -12 21 -9 41 4 29
3 31 -26 31 -31 0 -31 -1 -28 -40z"/>
<path d="M2667 4133 c-3 -5 6 -8 19 -8 13 0 24 3 24 8 0 4 -9 7 -19 7 -11 0
-22 -3 -24 -7z"/>
<path d="M2740 4101 c0 -23 2 -41 4 -41 8 0 12 71 4 76 -4 3 -8 -13 -8 -35z"/>
<path d="M2777 4133 c6 -4 13 -24 16 -43 4 -34 4 -33 3 4 -1 26 -6 41 -16 43
-10 3 -11 2 -3 -4z"/>
<path d="M3190 4125 c-15 -18 -10 -45 12 -59 12 -7 21 -7 28 0 8 8 4 10 -11
10 -12 -1 -24 5 -26 12 -3 8 7 12 29 13 l33 2 -35 7 c-27 5 -31 8 -18 14 9 4
22 4 29 0 8 -4 9 -3 5 4 -10 16 -31 15 -46 -3z"/>
<path d="M3305 4131 c-3 -5 -1 -12 5 -16 5 -3 10 1 10 9 0 18 -6 21 -15 7z"/>
<path d="M3420 4136 c0 -2 9 -6 20 -9 11 -3 18 -1 14 4 -5 9 -34 13 -34 5z"/>
<path d="M3760 4136 c0 -2 7 -6 15 -10 8 -3 15 -1 15 4 0 6 -7 10 -15 10 -8 0
-15 -2 -15 -4z"/>
<path d="M3730 4119 c0 -5 5 -7 10 -4 6 3 10 8 10 11 0 2 -4 4 -10 4 -5 0 -10
-5 -10 -11z"/>
<path d="M2666 4102 c-3 -5 8 -6 25 -4 16 2 29 6 29 8 0 8 -49 4 -54 -4z"/>
<path d="M3430 4100 c8 -5 20 -10 25 -10 6 0 3 5 -5 10 -8 5 -19 10 -25 10 -5
0 -3 -5 5 -10z"/>
<path d="M2706 4082 c-3 -6 -1 -14 5 -17 14 -9 20 -2 10 14 -6 8 -11 9 -15 3z"/>
<path d="M2660 4070 c0 -6 7 -10 15 -10 8 0 15 2 15 4 0 2 -7 6 -15 10 -8 3
-15 1 -15 -4z"/>
<path d="M2843 4065 c0 -8 4 -12 9 -9 4 3 8 9 8 15 0 5 -4 9 -8 9 -5 0 -9 -7
-9 -15z"/>
<path d="M3827 4069 c7 -7 15 -10 18 -7 3 3 -2 9 -12 12 -14 6 -15 5 -6 -5z"/>
<path d="M3123 4063 c9 -2 25 -2 35 0 9 3 1 5 -18 5 -19 0 -27 -2 -17 -5z"/>
<path d="M3428 4063 c7 -3 16 -2 19 1 4 3 -2 6 -13 5 -11 0 -14 -3 -6 -6z"/>
<path d="M1700 3866 c0 -2 14 -6 30 -8 17 -3 30 -1 30 4 0 4 -13 8 -30 8 -16
0 -30 -2 -30 -4z"/>
<path d="M1803 3863 c9 -2 23 -2 30 0 6 3 -1 5 -18 5 -16 0 -22 -2 -12 -5z"/>
<path d="M1877 3863 c-3 -5 5 -8 18 -8 13 0 21 3 18 8 -2 4 -10 7 -18 7 -8 0
-16 -3 -18 -7z"/>
<path d="M1965 3860 c-3 -5 -1 -10 4 -10 6 0 11 5 11 10 0 6 -2 10 -4 10 -3 0
-8 -4 -11 -10z"/>
<path d="M2040 3855 c-15 -19 -4 -46 21 -52 8 -3 7 0 -3 7 -10 6 -18 18 -18
26 0 20 30 30 42 13 8 -12 9 -11 5 1 -5 21 -31 24 -47 5z"/>
<path d="M2127 3863 c-3 -5 5 -8 18 -8 13 0 21 3 18 8 -2 4 -10 7 -18 7 -8 0
-16 -3 -18 -7z"/>
<path d="M1781 3829 c-1 -12 7 -16 28 -15 16 1 27 5 24 9 -3 5 -14 7 -24 4
-10 -3 -20 0 -23 7 -2 6 -5 4 -5 -5z"/>
<path d="M1902 3823 c-10 -4 -9 -8 4 -17 21 -16 9 -40 -17 -33 -11 3 -17 1
-13 -4 9 -15 44 -10 50 6 4 8 1 21 -5 29 -6 7 -8 16 -4 19 7 8 4 8 -15 0z"/>
<path d="M2152 3823 c-10 -4 -9 -8 4 -17 21 -16 9 -40 -17 -33 -11 3 -17 1
-13 -4 9 -15 44 -10 50 6 4 8 1 21 -5 29 -6 7 -8 16 -4 19 7 8 4 8 -15 0z"/>
<path d="M1722 3780 c0 -14 2 -19 5 -12 2 6 2 18 0 25 -3 6 -5 1 -5 -13z"/>
<path d="M1798 3767 c14 -6 26 -7 32 -1 5 5 -4 9 -23 10 -30 1 -30 1 -9 -9z"/>
<path d="M1963 3763 c9 -2 25 -2 35 0 9 3 1 5 -18 5 -19 0 -27 -2 -17 -5z"/>
<path d="M2058 3763 c7 -3 16 -2 19 1 4 3 -2 6 -13 5 -11 0 -14 -3 -6 -6z"/>
<path d="M2400 3815 c0 -54 1 -55 28 -55 36 0 52 17 52 55 0 38 -16 55 -52 55
-27 0 -28 -1 -28 -55z m65 0 c0 -36 -3 -40 -27 -43 -27 -3 -28 -2 -28 43 0 45
1 46 28 43 24 -3 27 -7 27 -43z"/>
<path d="M2872 3858 c-7 -7 -12 -16 -12 -22 0 -5 6 -2 13 8 8 11 23 17 38 14
21 -3 24 -8 24 -45 0 -22 3 -39 8 -36 12 7 8 68 -5 81 -7 7 -21 12 -33 12 -12
0 -26 -5 -33 -12z"/>
<path d="M3063 3815 c0 -33 2 -48 4 -32 4 22 9 27 33 27 24 0 29 -5 33 -27 2
-16 4 -1 4 32 0 33 -2 48 -4 33 -4 -23 -9 -28 -33 -28 -24 0 -29 5 -33 28 -2
15 -4 0 -4 -33z"/>
<path d="M2506 3832 c-3 -5 6 -7 19 -4 14 2 25 0 25 -6 0 -6 -10 -12 -22 -14
-15 -2 -23 -10 -23 -23 0 -16 7 -20 31 -20 29 -1 30 1 24 35 -4 26 -11 36 -27
38 -11 2 -24 -1 -27 -6z m42 -44 c-7 -19 -38 -22 -38 -4 0 10 9 16 21 16 12 0
19 -5 17 -12z"/>
<path d="M2580 3801 c0 -23 2 -41 4 -41 8 0 12 71 4 76 -4 3 -8 -13 -8 -35z"/>
<path d="M2617 3832 c6 -4 13 -23 16 -42 4 -33 4 -33 5 8 2 34 -1 42 -15 42
-12 0 -14 -3 -6 -8z"/>
<path d="M2673 3800 c0 -25 2 -35 4 -22 2 12 2 32 0 45 -2 12 -4 2 -4 -23z"/>
<path d="M2712 3831 c-8 -4 -12 -19 -10 -31 4 -29 33 -49 48 -34 8 8 4 10 -11
10 -12 -1 -24 5 -26 12 -3 8 7 12 29 13 l33 2 -35 7 c-27 5 -31 8 -18 14 9 4
22 4 29 0 8 -4 9 -3 5 4 -8 14 -26 15 -44 3z"/>
<path d="M3176 3831 c-3 -5 3 -7 14 -4 11 3 20 1 20 -5 0 -5 -12 -13 -26 -16
-27 -7 -31 -40 -4 -42 10 -1 11 1 2 3 -17 6 -10 27 10 31 9 2 18 -6 21 -18 3
-11 11 -20 19 -20 9 0 10 2 1 8 -6 4 -13 21 -15 37 -3 30 -30 46 -42 26z"/>
<path d="M3250 3823 c0 -10 4 -14 8 -8 4 6 11 13 16 18 5 4 2 7 -7 7 -10 0
-17 -8 -17 -17z"/>
<path d="M3297 3824 c3 -9 9 -12 12 -7 3 4 10 11 15 16 5 4 0 7 -12 7 -15 0
-20 -4 -15 -16z"/>
<path d="M3390 3836 c0 -2 9 -6 20 -9 11 -3 18 -1 14 4 -5 9 -34 13 -34 5z"/>
<path d="M3760 3836 c0 -2 7 -6 15 -10 8 -3 15 -1 15 4 0 6 -7 10 -15 10 -8 0
-15 -2 -15 -4z"/>
<path d="M3730 3819 c0 -5 5 -7 10 -4 6 3 10 8 10 11 0 2 -4 4 -10 4 -5 0 -10
-5 -10 -11z"/>
<path d="M3395 3800 c27 -12 43 -12 25 0 -8 5 -22 9 -30 9 -10 0 -8 -3 5 -9z"/>
<path d="M2860 3794 c0 -18 27 -36 47 -31 14 4 14 5 -4 6 -12 0 -27 9 -32 19
-6 9 -11 12 -11 6z"/>
<path d="M3405 3770 c-16 -7 -17 -9 -3 -9 9 -1 20 4 23 9 7 11 7 11 -20 0z"/>
<path d="M3827 3769 c7 -7 15 -10 18 -7 3 3 -2 9 -12 12 -14 6 -15 5 -6 -5z"/>
<path d="M1570 3275 l0 -155 1445 0 1445 0 0 155 0 155 -1445 0 -1445 0 0
-155z m700 0 l0 -145 -345 0 -345 0 0 145 0 145 345 0 345 0 0 -145z m1388 3
l-3 -143 -687 -3 -688 -2 0 145 0 145 690 0 691 0 -3 -142z m792 -3 l0 -145
-390 0 -390 0 0 145 0 145 390 0 390 0 0 -145z"/>
<path d="M1700 3291 c0 -25 4 -28 29 -27 16 1 27 5 24 9 -3 5 -14 7 -24 4 -14
-4 -19 0 -19 13 0 13 9 20 28 23 25 4 25 4 -5 6 -30 1 -33 -2 -33 -28z"/>
<path d="M1803 3313 c9 -2 23 -2 30 0 6 3 -1 5 -18 5 -16 0 -22 -2 -12 -5z"/>
<path d="M1890 3316 c0 -2 7 -6 15 -10 8 -3 15 -1 15 4 0 6 -7 10 -15 10 -8 0
-15 -2 -15 -4z"/>
<path d="M1959 3303 c-12 -16 -12 -17 1 -7 8 6 22 14 30 17 13 5 12 6 -1 6 -9
1 -23 -7 -30 -16z"/>
<path d="M2048 3313 c12 -2 30 -2 40 0 9 3 -1 5 -23 4 -22 0 -30 -2 -17 -4z"/>
<path d="M2133 3313 c9 -2 25 -2 35 0 9 3 1 5 -18 5 -19 0 -27 -2 -17 -5z"/>
<path d="M1781 3279 c-1 -12 7 -16 28 -15 16 1 27 5 24 9 -3 5 -14 7 -24 4
-10 -3 -20 0 -23 7 -2 6 -5 4 -5 -5z"/>
<path d="M1905 3266 c24 -17 13 -50 -15 -43 -11 3 -18 1 -14 -4 8 -14 30 -11
44 6 15 18 4 55 -18 55 -13 0 -13 -2 3 -14z"/>
<path d="M1983 3274 c20 -6 24 -50 5 -57 -8 -2 -7 -3 2 -3 10 1 15 12 15 31 0
22 -5 30 -20 32 -16 1 -16 1 -2 -3z"/>
<path d="M1750 3231 c0 -9 -9 -12 -25 -9 -13 3 -22 1 -19 -3 7 -13 42 -11 49
2 4 6 4 13 1 16 -3 4 -6 1 -6 -6z"/>
<path d="M2051 3224 c0 -11 3 -14 6 -6 3 7 2 16 -1 19 -3 4 -6 -2 -5 -13z"/>
<path d="M1798 3217 c14 -6 26 -7 32 -1 5 5 -4 9 -23 10 -30 1 -30 1 -9 -9z"/>
<path d="M2402 3263 c1 -44 2 -49 5 -20 2 20 8 35 12 33 5 -3 6 6 3 19 -8 47
-22 25 -20 -32z"/>
<path d="M2480 3300 c0 -11 5 -20 10 -20 6 0 10 9 10 20 0 11 -4 20 -10 20 -5
0 -10 -9 -10 -20z"/>
<path d="M2760 3315 c0 -5 5 -17 10 -25 5 -8 10 -10 10 -5 0 6 -5 17 -10 25
-5 8 -10 11 -10 5z"/>
<path d="M2836 3305 c-9 -26 -7 -32 5 -12 6 10 9 21 6 23 -2 3 -7 -2 -11 -11z"/>
<path d="M2940 3264 l0 -55 33 3 c25 2 32 8 33 26 1 18 1 19 -3 2 -6 -28 -53
-28 -53 0 0 13 7 20 19 20 11 0 22 4 25 9 3 4 -6 6 -19 3 -20 -3 -25 0 -25 17
0 24 27 29 50 9 12 -11 12 -10 1 5 -7 9 -24 17 -37 17 -22 0 -24 -4 -24 -56z"/>
<path d="M2527 3283 c-3 -5 6 -8 19 -8 13 0 24 3 24 8 0 4 -9 7 -19 7 -11 0
-22 -3 -24 -7z"/>
<path d="M2602 3246 c1 -38 2 -38 5 -8 5 36 29 53 45 31 8 -12 9 -11 5 1 -2 8
-16 15 -30 16 -25 1 -27 -2 -25 -40z"/>
<path d="M3040 3280 c0 -5 7 -7 15 -4 8 4 15 8 15 10 0 2 -7 4 -15 4 -8 0 -15
-4 -15 -10z"/>
<path d="M3090 3275 c-15 -18 -10 -45 12 -59 12 -7 21 -7 28 0 8 8 4 10 -12
10 -18 -1 -23 4 -23 24 0 19 5 25 22 24 12 0 20 3 17 8 -8 13 -30 9 -44 -7z"/>
<path d="M3205 3281 c-3 -5 -1 -12 5 -16 5 -3 10 1 10 9 0 18 -6 21 -15 7z"/>
<path d="M3300 3286 c0 -2 7 -6 15 -10 8 -3 15 -1 15 4 0 6 -7 10 -15 10 -8 0
-15 -2 -15 -4z"/>
<path d="M2526 3252 c-3 -5 8 -6 25 -4 16 2 29 6 29 8 0 8 -49 4 -54 -4z"/>
<path d="M2447 3233 c-4 -3 -7 -11 -7 -17 0 -6 5 -5 12 2 6 6 9 14 7 17 -3 3
-9 2 -12 -2z"/>
<path d="M2566 3232 c-3 -6 -1 -14 5 -17 14 -9 20 -2 10 14 -6 8 -11 9 -15 3z"/>
<path d="M2677 3233 c-4 -3 -7 -13 -7 -22 1 -13 3 -13 11 2 11 19 8 33 -4 20z"/>
<path d="M2797 3223 c3 -7 9 -10 14 -7 14 8 11 21 -5 21 -8 0 -12 -6 -9 -14z"/>
<path d="M2520 3220 c0 -6 7 -10 15 -10 8 0 15 2 15 4 0 2 -7 6 -15 10 -8 3
-15 1 -15 -4z"/>
<path d="M3810 3286 c0 -2 7 -6 15 -10 8 -3 15 -1 15 4 0 6 -7 10 -15 10 -8 0
-15 -2 -15 -4z"/>
<path d="M3780 3269 c0 -5 5 -7 10 -4 6 3 10 8 10 11 0 2 -4 4 -10 4 -5 0 -10
-5 -10 -11z"/>
<path d="M3877 3219 c7 -7 15 -10 18 -7 3 3 -2 9 -12 12 -14 6 -15 5 -6 -5z"/>
<path d="M1620 2535 l0 -305 1445 0 1445 0 1 153 c0 83 0 171 -1 195 l-2 42
91 0 c90 0 91 0 91 -25 0 -31 6 -31 105 0 44 14 88 25 98 25 9 0 17 4 17 8 0
11 -201 73 -212 66 -4 -3 -8 -19 -8 -35 l0 -30 -87 3 -88 3 -3 103 -3 102
-1444 0 -1445 0 0 -305z m698 148 l3 -143 -346 0 -345 0 0 145 0 145 343 -2
342 -3 3 -142z m1390 0 l3 -143 -691 0 -690 0 0 145 0 145 688 -2 687 -3 3
-142z m792 2 l0 -145 -390 0 -390 0 0 145 0 145 390 0 390 0 0 -145z m-2180
-300 l0 -145 -345 0 -345 0 0 145 0 145 345 0 345 0 0 -145z m1385 0 l0 -140
-687 -3 -688 -2 0 145 0 145 688 -2 687 -3 0 -140z m795 0 l0 -145 -390 0
-390 0 0 145 0 145 390 0 390 0 0 -145z"/>
<path d="M1762 2718 c-6 -6 -12 -17 -12 -22 0 -6 5 -3 11 7 5 9 17 17 24 17
21 0 19 -38 -2 -42 -15 -3 -15 -5 3 -10 18 -5 21 -1 20 26 -1 33 -23 45 -44
24z"/>
<path d="M1840 2715 c-10 -12 -10 -18 -1 -29 8 -10 9 -16 1 -21 -17 -11 -11
-33 11 -40 12 -4 25 -3 30 2 6 6 1 9 -13 9 -14 -1 -23 5 -23 14 0 9 9 15 21
14 11 0 21 5 21 11 0 6 -10 11 -21 11 -12 -1 -21 5 -21 14 0 9 9 15 22 14 12
0 20 3 17 8 -8 13 -30 9 -44 -7z"/>
<path d="M1927 2723 c-3 -5 5 -8 18 -8 13 0 21 3 18 8 -2 4 -10 7 -18 7 -8 0
-16 -3 -18 -7z"/>
<path d="M2006 2722 c-3 -5 5 -8 17 -8 16 1 22 -5 22 -19 0 -14 -6 -20 -22
-19 -12 0 -19 -4 -16 -9 3 -5 14 -7 24 -4 10 3 20 0 23 -7 2 -6 5 3 5 20 1 31
-14 54 -35 54 -7 0 -15 -4 -18 -8z"/>
<path d="M2092 2718 c-17 -17 -15 -73 3 -88 17 -14 45 -7 45 12 0 10 -3 9 -9
-1 -16 -25 -41 -4 -41 34 0 39 25 59 42 34 8 -12 9 -11 5 1 -5 19 -29 24 -45
8z"/>
<path d="M2172 2718 c-7 -7 -11 -26 -11 -42 2 -31 2 -31 8 4 5 28 11 35 28 34
12 0 20 3 17 8 -7 12 -28 10 -42 -4z"/>
<path d="M1966 2684 c-4 -10 -14 -14 -26 -11 -11 3 -18 1 -15 -4 11 -16 55 -6
55 13 0 22 -6 23 -14 2z"/>
<path d="M1754 2645 c1 -22 32 -33 48 -17 6 6 1 8 -15 5 -19 -4 -26 0 -30 13
-3 17 -4 16 -3 -1z"/>
<path d="M1927 2628 c2 -5 10 -8 18 -8 8 0 16 3 18 8 3 4 -5 7 -18 7 -13 0
-21 -3 -18 -7z"/>
<path d="M2007 2628 c2 -5 10 -8 18 -8 8 0 16 3 18 8 3 4 -5 7 -18 7 -13 0
-21 -3 -18 -7z"/>
<path d="M2177 2628 c2 -5 10 -8 18 -8 8 0 16 3 18 8 3 4 -5 7 -18 7 -13 0
-21 -3 -18 -7z"/>
<path d="M2468 2723 c7 -3 12 -23 12 -50 0 -41 -2 -45 -21 -40 -16 4 -19 3
-11 -5 23 -23 42 0 42 52 0 41 -3 50 -17 49 -11 0 -13 -3 -5 -6z"/>
<path d="M3008 2723 c12 -2 30 -2 40 0 9 3 -1 5 -23 4 -22 0 -30 -2 -17 -4z"/>
<path d="M3166 2714 c-4 -9 -4 -19 -1 -22 3 -3 5 0 5 7 0 7 5 9 10 6 6 -3 10
1 10 9 0 21 -16 20 -24 0z"/>
<path d="M3370 2707 c0 -8 -10 -13 -21 -13 -12 1 -24 -6 -26 -14 -4 -12 -3
-13 5 -1 14 19 42 6 42 -19 0 -25 -28 -38 -42 -19 -8 12 -9 11 -5 -1 2 -8 16
-15 30 -16 26 -1 27 1 27 47 0 27 -2 49 -5 49 -3 0 -5 -6 -5 -13z"/>
<path d="M2526 2691 c-3 -4 6 -6 19 -3 14 2 25 6 25 8 0 8 -39 4 -44 -5z"/>
<path d="M2605 2690 c-8 -13 3 -30 18 -29 9 0 9 2 0 6 -20 8 -15 21 10 26 22
4 22 4 0 6 -12 0 -25 -3 -28 -9z"/>
<path d="M2690 2696 c0 -2 9 -6 20 -9 11 -3 18 -1 14 4 -5 9 -34 13 -34 5z"/>
<path d="M2753 2660 c0 -25 2 -35 4 -22 2 12 2 32 0 45 -2 12 -4 2 -4 -23z"/>
<path d="M2790 2685 c-15 -18 -10 -45 12 -59 12 -7 21 -7 28 0 8 8 4 10 -12
10 -18 -1 -23 4 -23 24 0 19 5 25 22 24 12 0 20 3 17 8 -8 13 -30 9 -44 -7z"/>
<path d="M2867 2693 c-3 -5 6 -8 19 -8 13 0 24 3 24 8 0 4 -9 7 -19 7 -11 0
-22 -3 -24 -7z"/>
<path d="M3241 2684 c0 -11 3 -14 6 -6 3 7 2 16 -1 19 -3 4 -6 -2 -5 -13z"/>
<path d="M3260 2696 c0 -2 9 -6 20 -9 11 -3 18 -1 14 4 -5 9 -34 13 -34 5z"/>
<path d="M3412 2688 c-21 -21 -13 -28 26 -27 l37 2 -35 7 c-27 5 -31 8 -18 14
9 4 22 4 29 0 8 -4 9 -3 5 4 -9 15 -29 15 -44 0z"/>
<path d="M3490 2683 c0 -10 4 -14 8 -8 4 6 11 13 16 18 5 4 2 7 -7 7 -10 0
-17 -8 -17 -17z"/>
<path d="M3548 2693 c6 -2 18 -2 25 0 6 3 1 5 -13 5 -14 0 -19 -2 -12 -5z"/>
<path d="M2545 2670 l-30 -8 33 -1 c17 0 32 4 32 9 0 6 -1 9 -2 9 -2 -1 -16
-5 -33 -9z"/>
<path d="M3003 2673 c9 -2 25 -2 35 0 9 3 1 5 -18 5 -19 0 -27 -2 -17 -5z"/>
<path d="M3146 2665 c-3 -9 -6 -18 -6 -19 0 -1 16 0 35 2 28 3 35 1 35 -14 0
-9 3 -15 6 -11 3 3 3 14 0 25 -5 14 -13 18 -27 15 -12 -3 -24 0 -29 6 -5 9 -9
8 -14 -4z"/>
<path d="M2698 2660 c12 -5 22 -14 22 -19 0 -5 -10 -12 -22 -14 l-23 -4 23 -2
c12 0 25 6 29 15 6 17 -12 34 -37 33 -8 0 -5 -4 8 -9z"/>
<path d="M2866 2662 c-3 -5 8 -6 25 -4 16 2 29 6 29 8 0 8 -49 4 -54 -4z"/>
<path d="M3560 2657 c14 -8 27 -12 30 -10 7 6 -23 23 -40 23 -8 0 -4 -6 10
-13z"/>
<path d="M2523 2640 c5 -18 35 -26 50 -11 7 7 3 8 -13 4 -13 -4 -26 0 -32 8
-8 12 -9 11 -5 -1z"/>
<path d="M2900 2642 c0 -12 19 -26 26 -19 2 2 -2 10 -11 17 -9 8 -15 8 -15 2z"/>
<path d="M3409 2638 c15 -20 36 -23 46 -8 3 6 -1 7 -10 4 -8 -4 -23 0 -33 7
-15 13 -16 12 -3 -3z"/>
<path d="M2608 2628 c6 -6 18 -8 28 -6 14 3 12 5 -9 10 -19 3 -25 2 -19 -4z"/>
<path d="M2860 2630 c0 -6 7 -10 15 -10 8 0 15 2 15 4 0 2 -7 6 -15 10 -8 3
-15 1 -15 -4z"/>
<path d="M3538 2628 c6 -6 18 -8 28 -6 14 3 12 5 -9 10 -19 3 -25 2 -19 -4z"/>
<path d="M3847 2723 c-3 -5 5 -8 18 -8 13 0 21 3 18 8 -2 4 -10 7 -18 7 -8 0
-16 -3 -18 -7z"/>
<path d="M3920 2721 c0 -6 4 -13 10 -16 6 -3 7 1 4 9 -7 18 -14 21 -14 7z"/>
<path d="M4030 2720 c-13 -8 -12 -10 3 -10 9 0 17 5 17 10 0 12 -1 12 -20 0z"/>
<path d="M4107 2723 c-3 -5 5 -8 18 -8 13 0 21 3 18 8 -2 4 -10 7 -18 7 -8 0
-16 -3 -18 -7z"/>
<path d="M4196 2721 c-4 -5 3 -7 14 -4 23 6 26 13 6 13 -8 0 -17 -4 -20 -9z"/>
<path d="M4283 2723 c9 -2 23 -2 30 0 6 3 -1 5 -18 5 -16 0 -22 -2 -12 -5z"/>
<path d="M4357 2723 c-3 -5 5 -8 18 -8 13 0 21 3 18 8 -2 4 -10 7 -18 7 -8 0
-16 -3 -18 -7z"/>
<path d="M3956 2695 c-11 -8 -16 -15 -12 -15 5 0 3 -6 -3 -14 -10 -12 -8 -13
9 -9 11 3 19 8 16 11 -3 2 -1 13 5 23 12 23 10 23 -15 4z"/>
<path d="M4116 2661 c-19 -20 -41 -31 -65 -34 -20 -2 0 -4 44 -4 44 0 65 2 48
4 -34 4 -44 20 -19 29 12 5 31 34 23 34 -2 0 -16 -13 -31 -29z"/>
<path d="M4210 2683 c8 -3 19 -11 23 -17 6 -7 7 -6 4 4 -2 8 -12 16 -23 17
-13 2 -15 1 -4 -4z"/>
<path d="M4266 2681 c-3 -4 8 -8 23 -7 16 1 27 4 24 9 -6 10 -41 9 -47 -2z"/>
<path d="M4370 2676 c0 -2 7 -7 16 -10 8 -3 12 -2 9 4 -6 10 -25 14 -25 6z"/>
<path d="M3976 2637 c3 -10 9 -15 12 -12 3 3 0 11 -7 18 -10 9 -11 8 -5 -6z"/>
<path d="M4230 2642 c0 -6 -8 -13 -17 -15 -16 -4 -16 -5 -1 -6 18 -1 34 16 24
26 -3 4 -6 1 -6 -5z"/>
<path d="M3847 2628 c2 -5 10 -8 18 -8 8 0 16 3 18 8 3 4 -5 7 -18 7 -13 0
-21 -3 -18 -7z"/>
<path d="M4277 2628 c2 -5 10 -8 18 -8 8 0 16 3 18 8 3 4 -5 7 -18 7 -13 0
-21 -3 -18 -7z"/>
<path d="M4360 2626 c6 -6 18 -5 32 1 21 10 21 10 -9 9 -19 -1 -28 -5 -23 -10z"/>
<path d="M4947 2783 c-4 -3 -7 -73 -7 -155 l0 -148 1370 0 1370 0 0 155 0 155
-1363 0 c-750 0 -1367 -3 -1370 -7z m691 -150 l3 -143 -341 0 -340 0 0 145 0
145 338 -2 337 -3 3 -142z m1340 0 l3 -143 -666 0 -665 0 0 145 0 145 663 -2
662 -3 3 -142z m692 2 l0 -145 -340 0 -340 0 0 145 0 145 340 0 340 0 0 -145z"/>
<path d="M5090 2670 c-13 -8 -12 -10 3 -10 9 0 17 5 17 10 0 12 -1 12 -20 0z"/>
<path d="M5160 2670 c-13 -8 -12 -10 3 -10 9 0 17 5 17 10 0 12 -1 12 -20 0z"/>
<path d="M5237 2673 c-3 -5 5 -8 18 -8 13 0 21 3 18 8 -2 4 -10 7 -18 7 -8 0
-16 -3 -18 -7z"/>
<path d="M5315 2670 c-4 -6 1 -7 11 -3 11 4 22 -1 30 -12 8 -10 14 -14 14 -9
0 26 -42 44 -55 24z"/>
<path d="M5400 2676 c0 -2 11 -6 25 -8 13 -3 22 -1 19 3 -5 9 -44 13 -44 5z"/>
<path d="M5487 2673 c-3 -5 5 -8 18 -8 13 0 21 3 18 8 -2 4 -10 7 -18 7 -8 0
-16 -3 -18 -7z"/>
<path d="M5245 2610 c-25 -26 -35 -30 -104 -33 -42 -1 -4 -3 84 -3 88 -1 145
1 126 3 l-33 4 23 26 c22 23 22 25 3 15 -11 -6 -26 -18 -34 -26 -12 -16 -70
-23 -70 -9 0 4 10 17 22 30 12 13 19 23 17 23 -3 0 -18 -13 -34 -30z"/>
<path d="M5410 2626 c0 -2 9 -6 20 -9 11 -3 18 -1 14 4 -5 9 -34 13 -34 5z"/>
<path d="M5515 2617 c23 -17 10 -41 -18 -33 -14 3 -17 2 -9 -6 13 -13 52 -1
52 16 0 14 -20 36 -34 36 -5 0 -2 -6 9 -13z"/>
<path d="M5397 2578 c2 -5 13 -8 23 -8 10 0 21 3 23 8 3 4 -8 7 -23 7 -15 0
-26 -3 -23 -7z"/>
<path d="M5771 2623 c1 -32 4 -48 6 -35 3 15 11 22 28 22 13 0 26 4 29 8 3 5
-8 6 -25 4 -26 -4 -29 -2 -29 23 0 25 3 27 29 23 17 -2 28 -1 25 4 -3 4 -18 8
-35 8 -29 0 -29 0 -28 -57z"/>
<path d="M6358 2671 c8 -5 12 -23 10 -47 -2 -30 -7 -39 -20 -38 -10 1 -18 -2
-18 -7 0 -13 24 -11 38 3 7 7 12 31 12 55 0 34 -4 43 -17 43 -14 0 -15 -2 -5
-9z"/>
<path d="M5876 2641 c-4 -5 3 -7 14 -4 23 6 26 13 6 13 -8 0 -17 -4 -20 -9z"/>
<path d="M5948 2610 c2 -22 7 -40 11 -40 3 0 6 18 6 40 0 22 -5 40 -10 40 -6
0 -9 -17 -7 -40z"/>
<path d="M5990 2630 c-10 -18 -8 -20 27 -19 30 2 32 3 11 6 -31 5 -37 19 -10
26 16 4 16 5 0 6 -10 0 -22 -8 -28 -19z"/>
<path d="M6070 2634 c0 -14 3 -15 18 -3 9 7 19 15 21 16 2 2 -5 3 -17 3 -14 0
-22 -6 -22 -16z"/>
<path d="M6410 2635 c-15 -18 -10 -45 12 -59 12 -7 21 -7 28 0 8 8 4 10 -12
10 -18 -1 -23 4 -23 24 0 19 5 25 22 24 12 0 20 3 17 8 -8 13 -30 9 -44 -7z"/>
<path d="M6510 2646 c0 -2 7 -7 16 -10 8 -3 12 -2 9 4 -6 10 -25 14 -25 6z"/>
<path d="M6576 2641 c-4 -5 3 -7 14 -4 23 6 26 13 6 13 -8 0 -17 -4 -20 -9z"/>
<path d="M6653 2635 c-7 -19 -5 -21 27 -29 25 -6 25 -6 3 5 -27 14 -29 26 -5
32 16 4 16 5 -1 6 -10 0 -20 -6 -24 -14z"/>
<path d="M6590 2620 l-35 -7 38 -2 c20 0 37 4 37 9 0 6 -1 9 -2 9 -2 -1 -19
-5 -38 -9z"/>
<path d="M5878 2613 c12 -2 30 -2 40 0 9 3 -1 5 -23 4 -22 0 -30 -2 -17 -4z"/>
<path d="M5993 2590 c5 -18 35 -26 50 -11 7 7 3 8 -13 4 -13 -4 -26 0 -32 8
-8 12 -9 11 -5 -1z"/>
<path d="M6573 2590 c5 -18 35 -26 50 -11 7 7 3 8 -13 4 -13 -4 -26 0 -32 8
-8 12 -9 11 -5 -1z"/>
<path d="M5878 2578 c5 -5 16 -8 23 -6 8 3 3 7 -10 11 -17 4 -21 3 -13 -5z"/>
<path d="M6658 2578 c5 -5 16 -8 23 -6 8 3 3 7 -10 11 -17 4 -21 3 -13 -5z"/>
<path d="M6178 2573 c12 -2 30 -2 40 0 9 3 -1 5 -23 4 -22 0 -30 -2 -17 -4z"/>
<path d="M7273 2620 c0 -30 2 -43 4 -27 2 15 2 39 0 55 -2 15 -4 2 -4 -28z"/>
<path d="M7111 2634 c0 -11 3 -14 6 -6 3 7 2 16 -1 19 -3 4 -6 -2 -5 -13z"/>
<path d="M7130 2646 c0 -2 7 -6 15 -10 8 -3 15 -1 15 4 0 6 -7 10 -15 10 -8 0
-15 -2 -15 -4z"/>
<path d="M7194 2610 c1 -31 4 -35 29 -36 25 -1 27 1 26 40 l-2 41 -6 -35 c-8
-48 -38 -54 -44 -8 l-4 33 1 -35z"/>
<path d="M1378 2668 l-3 -33 -100 -6 -100 -5 103 -2 c102 -2 102 -2 102 -27 0
-14 3 -25 8 -25 4 0 43 11 87 25 44 14 88 25 98 25 9 0 17 4 17 9 0 5 -8 12
-17 15 -94 26 -168 48 -179 53 -8 3 -14 -6 -16 -29z"/>
<path d="M1380 2370 l0 -30 -101 0 c-64 0 -98 -4 -94 -10 3 -6 48 -10 101 -10
94 0 94 0 94 -25 0 -14 1 -25 3 -25 1 0 38 11 82 25 44 14 91 25 103 25 49 0
13 24 -78 51 -52 16 -98 29 -102 29 -5 0 -8 -13 -8 -30z"/>
<path d="M1620 1350 l0 -600 373 0 c1780 -1 2510 0 2513 3 4 3 5 493 4 1045
l0 152 -1445 0 -1445 0 0 -600z m748 443 l3 -143 -371 0 -370 0 0 138 c0 76 3
142 7 145 4 4 169 6 367 5 l361 -3 3 -142z m2132 2 l0 -145 -1060 0 -1060 0 0
138 c0 76 3 142 7 145 3 4 480 7 1060 7 l1053 0 0 -145z m-2132 -297 l-3 -143
-365 0 -365 0 -3 143 -3 142 371 0 371 0 -3 -142z m2132 -3 l0 -145 -1060 0
-1060 0 0 145 0 145 1060 0 1060 0 0 -145z m-2130 -295 l0 -140 -370 0 -370 0
0 140 0 140 370 0 370 0 0 -140z m2130 0 l0 -140 -1060 0 -1060 0 0 140 0 140
1060 0 1060 0 0 -140z m-2130 -300 l0 -140 -370 0 -370 0 0 140 0 140 370 0
370 0 0 -140z m2130 0 l0 -140 -1060 0 -1060 0 0 140 0 140 1060 0 1060 0 0
-140z"/>
<path d="M1782 1834 c9 -3 19 -13 22 -22 3 -12 4 -12 3 3 -1 12 -10 21 -22 22
-15 1 -15 0 -3 -3z"/>
<path d="M1846 1831 c-3 -5 3 -7 14 -4 15 4 20 0 20 -15 0 -11 -5 -22 -12 -24
-8 -3 -7 -6 4 -10 12 -5 15 1 14 25 -1 31 -27 50 -40 28z"/>
<path d="M1951 1827 c-9 -11 -10 -17 -2 -17 6 0 11 -9 11 -19 0 -14 -8 -21
-27 -24 l-28 -4 27 -2 c16 0 28 -8 30 -18 7 -34 14 19 8 61 -4 35 -6 37 -19
23z"/>
<path d="M2030 1825 c-9 -11 -10 -16 -2 -11 8 5 12 0 12 -18 0 -19 -6 -26 -27
-29 l-28 -4 27 -2 c16 0 28 -8 30 -18 7 -34 14 19 8 61 -5 37 -6 38 -20 21z"/>
<path d="M2080 1832 c0 -5 14 -7 30 -4 17 2 30 6 30 8 0 2 -13 4 -30 4 -16 0
-30 -4 -30 -8z"/>
<path d="M2183 1833 c9 -2 23 -2 30 0 6 3 -1 5 -18 5 -16 0 -22 -2 -12 -5z"/>
<path d="M2081 1799 c-1 -12 7 -16 28 -15 16 1 27 5 24 9 -3 5 -14 7 -24 4
-10 -3 -20 0 -23 7 -2 6 -5 4 -5 -5z"/>
<path d="M2161 1799 c-1 -12 7 -16 28 -15 16 1 27 5 24 9 -3 5 -14 7 -24 4
-10 -3 -20 0 -23 7 -2 6 -5 4 -5 -5z"/>
<path d="M1770 1786 c0 -2 9 -6 20 -9 11 -3 18 -1 14 4 -5 9 -34 13 -34 5z"/>
<path d="M1753 1750 c5 -18 35 -26 50 -11 7 7 3 8 -13 4 -13 -4 -26 0 -32 8
-8 12 -9 11 -5 -1z"/>
<path d="M1830 1752 c0 -16 40 -26 54 -12 8 8 7 10 -7 4 -9 -3 -24 -1 -32 6
-9 8 -15 8 -15 2z"/>
<path d="M2087 1738 c2 -5 13 -8 23 -8 10 0 21 3 23 8 3 4 -8 7 -23 7 -15 0
-26 -3 -23 -7z"/>
<path d="M2178 1737 c14 -6 26 -7 32 -1 5 5 -4 9 -23 10 -30 1 -30 1 -9 -9z"/>
<path d="M2500 1785 c0 -52 2 -55 24 -55 31 0 56 25 56 55 0 30 -25 55 -56 55
-22 0 -24 -3 -24 -55z m58 33 c27 -27 7 -78 -30 -78 -15 0 -18 8 -18 45 0 37
3 45 18 45 10 0 23 -5 30 -12z"/>
<path d="M2947 1827 c-3 -8 1 -14 9 -14 8 0 14 6 14 14 0 7 -4 13 -9 13 -5 0
-11 -6 -14 -13z"/>
<path d="M3100 1785 c0 -54 1 -55 28 -55 29 0 52 16 52 35 0 5 -5 2 -11 -7 -5
-10 -21 -18 -34 -18 -23 0 -25 4 -25 45 0 41 2 45 25 45 13 0 29 -8 34 -17 6
-10 11 -13 11 -7 0 18 -23 34 -52 34 -27 0 -28 -1 -28 -55z"/>
<path d="M2843 1780 c0 -30 2 -43 4 -27 2 15 2 39 0 55 -2 15 -4 2 -4 -28z"/>
<path d="M2606 1802 c-3 -5 6 -7 19 -4 14 2 25 0 25 -6 0 -6 -10 -12 -22 -14
-15 -2 -23 -10 -23 -23 0 -16 7 -20 31 -20 29 -1 30 1 24 35 -4 26 -11 36 -27
38 -11 2 -24 -1 -27 -6z m42 -44 c-7 -19 -38 -22 -38 -4 0 10 9 16 21 16 12 0
19 -5 17 -12z"/>
<path d="M2763 1770 c0 -25 2 -35 4 -22 2 12 2 32 0 45 -2 12 -4 2 -4 -23z"/>
<path d="M2794 1796 c-9 -24 0 -61 16 -62 9 0 10 1 3 3 -20 7 -16 61 5 66 16
4 16 5 -1 6 -10 0 -20 -5 -23 -13z"/>
<path d="M3216 1801 c-3 -5 3 -7 14 -4 11 3 20 1 20 -5 0 -5 -12 -13 -26 -16
-27 -7 -31 -40 -4 -42 10 -1 11 1 2 3 -17 6 -10 27 10 31 9 2 18 -6 21 -18 3
-11 11 -20 19 -20 9 0 10 2 1 8 -6 4 -13 21 -15 37 -3 30 -30 46 -42 26z"/>
<path d="M3408 1803 c6 -2 18 -2 25 0 6 3 1 5 -13 5 -14 0 -19 -2 -12 -5z"/>
<path d="M3860 1806 c0 -2 7 -6 15 -10 8 -3 15 -1 15 4 0 6 -7 10 -15 10 -8 0
-15 -2 -15 -4z"/>
<path d="M2928 1785 c-3 -11 -9 -29 -13 -40 -6 -18 -5 -18 5 -2 6 9 22 17 35
17 13 0 29 -8 35 -17 9 -15 10 -14 4 7 -3 14 -11 32 -16 40 -8 12 -9 12 -4 -2
4 -13 0 -18 -14 -18 -10 0 -20 8 -22 18 -3 15 -5 15 -10 -3z"/>
<path d="M3830 1789 c0 -5 5 -7 10 -4 6 3 10 8 10 11 0 2 -4 4 -10 4 -5 0 -10
-5 -10 -11z"/>
<path d="M3418 1770 c30 -13 29 -34 -3 -28 -13 3 -22 1 -19 -3 9 -15 44 -10
51 7 6 17 -12 34 -37 33 -8 0 -5 -4 8 -9z"/>
<path d="M2700 1740 c0 -5 5 -10 10 -10 6 0 10 5 10 10 0 6 -4 10 -10 10 -5 0
-10 -4 -10 -10z"/>
<path d="M3927 1739 c7 -7 15 -10 18 -7 3 3 -2 9 -12 12 -14 6 -15 5 -6 -5z"/>
<path d="M1763 1533 c-7 -2 -13 -10 -13 -16 0 -8 4 -7 12 1 18 18 38 14 38 -7
0 -11 -13 -29 -30 -41 -41 -29 -38 -40 13 -38 38 1 39 2 8 5 l-33 4 27 29 c39
40 24 83 -22 63z"/>
<path d="M1870 1524 c0 -8 5 -12 10 -9 6 3 10 10 10 16 0 5 -4 9 -10 9 -5 0
-10 -7 -10 -16z"/>
<path d="M1940 1536 c0 -2 7 -6 15 -10 8 -3 15 -1 15 4 0 6 -7 10 -15 10 -8 0
-15 -2 -15 -4z"/>
<path d="M2006 1532 c-3 -6 -5 -21 -4 -34 2 -20 7 -24 25 -20 18 3 23 0 23
-18 0 -19 -4 -22 -26 -17 -16 3 -22 1 -16 -5 18 -18 47 -4 47 22 0 18 -6 26
-22 28 -15 2 -23 10 -23 23 0 24 37 26 44 2 4 -14 4 -14 3 2 -2 21 -41 34 -51
17z"/>
<path d="M2113 1534 c12 -4 17 -16 17 -45 0 -32 -5 -42 -22 -49 -19 -8 -20
-10 -3 -7 44 5 52 100 9 104 -16 2 -16 1 -1 -3z"/>
<path d="M2084 1495 c1 -12 9 -21 21 -22 14 -1 15 0 3 3 -9 3 -19 13 -21 22
-3 12 -4 11 -3 -3z"/>
<path d="M1955 1486 c24 -17 13 -50 -15 -43 -11 3 -18 1 -14 -4 8 -14 30 -11
44 6 15 18 4 55 -18 55 -13 0 -13 -2 3 -14z"/>
<path d="M1830 1468 c0 -4 16 -8 35 -8 19 0 35 2 35 4 0 2 -16 6 -35 8 -19 2
-35 0 -35 -4z"/>
<path d="M2527 1534 c-3 -5 1 -15 9 -22 16 -14 18 -5 5 17 -5 7 -11 9 -14 5z"/>
<path d="M2996 1524 c-32 -31 -10 -94 33 -94 10 0 25 7 32 17 13 15 12 15 -9
2 -16 -10 -26 -11 -40 -3 -39 25 -20 90 25 81 12 -2 20 0 17 4 -8 14 -41 10
-58 -7z"/>
<path d="M3182 1533 c13 -3 18 -18 21 -56 l3 -52 2 52 c2 45 5 52 25 56 12 2
2 4 -23 4 -25 1 -37 -1 -28 -4z"/>
<path d="M2753 1480 c0 -30 2 -43 4 -27 2 15 2 39 0 55 -2 15 -4 2 -4 -28z"/>
<path d="M3260 1480 c0 -29 2 -51 5 -48 8 7 9 87 2 95 -4 3 -7 -18 -7 -47z"/>
<path d="M2501 1474 c-7 -19 -10 -38 -7 -41 3 -4 6 1 6 10 0 23 49 22 66 0 12
-15 12 -13 2 17 -6 19 -13 29 -16 22 -2 -6 -12 -12 -22 -12 -13 0 -17 5 -13
20 9 33 -2 22 -16 -16z"/>
<path d="M2595 1500 c-8 -13 3 -30 18 -29 9 0 9 2 0 6 -20 8 -15 21 10 26 22
4 22 4 0 6 -12 0 -25 -3 -28 -9z"/>
<path d="M2698 1503 c7 -3 16 -2 19 1 4 3 -2 6 -13 5 -11 0 -14 -3 -6 -6z"/>
<path d="M2790 1495 c-15 -18 -10 -45 12 -59 12 -7 21 -7 28 0 8 8 4 10 -11
10 -12 -1 -24 5 -26 12 -3 8 7 12 29 13 l33 2 -35 7 c-27 5 -31 8 -18 14 9 4
22 4 29 0 8 -4 9 -3 5 4 -10 16 -31 15 -46 -3z"/>
<path d="M3290 1506 c0 -2 7 -6 15 -10 8 -3 15 -1 15 4 0 6 -7 10 -15 10 -8 0
-15 -2 -15 -4z"/>
<path d="M3350 1495 c-15 -18 -10 -45 12 -59 12 -7 21 -7 28 0 8 8 4 10 -12
10 -18 -1 -23 4 -23 24 0 19 5 25 22 24 12 0 20 3 17 8 -8 13 -30 9 -44 -7z"/>
<path d="M3431 1494 c0 -11 3 -14 6 -6 3 7 2 16 -1 19 -3 4 -6 -2 -5 -13z"/>
<path d="M3460 1500 c20 -13 33 -13 25 0 -3 6 -14 10 -23 10 -15 0 -15 -2 -2
-10z"/>
<path d="M3500 1506 c0 -2 7 -7 16 -10 8 -3 12 -2 9 4 -6 10 -25 14 -25 6z"/>
<path d="M3566 1501 c-3 -5 3 -7 14 -4 11 3 20 0 20 -6 0 -6 -9 -11 -19 -11
-11 0 -23 -5 -26 -10 -4 -7 2 -9 19 -4 20 5 26 2 26 -9 0 -9 4 -18 8 -21 5 -3
6 11 3 32 -6 36 -32 55 -45 33z"/>
<path d="M3648 1503 c6 -2 18 -2 25 0 6 3 1 5 -13 5 -14 0 -19 -2 -12 -5z"/>
<path d="M3860 1506 c0 -2 7 -6 15 -10 8 -3 15 -1 15 4 0 6 -7 10 -15 10 -8 0
-15 -2 -15 -4z"/>
<path d="M3830 1489 c0 -5 5 -7 10 -4 6 3 10 8 10 11 0 2 -4 4 -10 4 -5 0 -10
-5 -10 -11z"/>
<path d="M3660 1467 c14 -8 27 -12 30 -10 7 6 -23 23 -40 23 -8 0 -4 -6 10
-13z"/>
<path d="M2637 1454 c5 -14 1 -16 -21 -12 -18 4 -24 2 -18 -4 15 -15 46 -5 50
15 2 9 -1 17 -7 17 -6 0 -8 -7 -4 -16z"/>
<path d="M3558 1438 c5 -5 16 -8 23 -6 8 3 3 7 -10 11 -17 4 -21 3 -13 -5z"/>
<path d="M3638 1438 c6 -6 18 -8 28 -6 14 3 12 5 -9 10 -19 3 -25 2 -19 -4z"/>
<path d="M3927 1439 c7 -7 15 -10 18 -7 3 3 -2 9 -12 12 -14 6 -15 5 -6 -5z"/>
<path d="M2870 1410 c-9 -6 -10 -10 -3 -10 6 0 15 5 18 10 8 12 4 12 -15 0z"/>
<path d="M1750 946 c0 -2 14 -6 30 -8 17 -3 30 -1 30 4 0 4 -13 8 -30 8 -16 0
-30 -2 -30 -4z"/>
<path d="M1848 943 c12 -2 30 -2 40 0 9 3 -1 5 -23 4 -22 0 -30 -2 -17 -4z"/>
<path d="M1926 942 c-3 -5 5 -8 17 -8 13 1 22 -5 22 -14 0 -9 -9 -15 -22 -14
-13 0 -21 -2 -18 -4 3 -3 0 -11 -6 -19 -16 -18 7 -45 35 -41 37 5 28 108 -10
108 -7 0 -15 -4 -18 -8z m44 -72 c0 -13 -7 -20 -19 -20 -22 0 -35 15 -26 30
12 19 45 11 45 -10z"/>
<path d="M2006 942 c-3 -6 -5 -21 -4 -34 2 -20 7 -24 25 -20 18 3 23 0 23 -18
0 -19 -4 -22 -26 -17 -16 3 -22 1 -16 -5 18 -18 47 -4 47 22 0 18 -6 26 -22
28 -15 2 -23 10 -23 23 0 24 37 26 44 2 4 -14 4 -14 3 2 -2 21 -41 34 -51 17z"/>
<path d="M2113 944 c12 -4 17 -16 17 -45 0 -32 -5 -42 -22 -49 -19 -8 -20 -10
-3 -7 44 5 52 100 9 104 -16 2 -16 1 -1 -3z"/>
<path d="M2170 935 c-15 -19 -4 -46 21 -52 8 -3 7 0 -3 7 -10 6 -18 18 -18 26
0 20 30 30 42 13 8 -12 9 -11 5 1 -5 21 -31 24 -47 5z"/>
<path d="M2084 905 c1 -12 9 -21 21 -22 14 -1 15 0 3 3 -9 3 -19 13 -21 22 -3
12 -4 11 -3 -3z"/>
<path d="M2215 900 c-3 -5 -1 -10 4 -10 6 0 11 5 11 10 0 6 -2 10 -4 10 -3 0
-8 -4 -11 -10z"/>
<path d="M1772 860 c0 -14 2 -19 5 -12 2 6 2 18 0 25 -3 6 -5 1 -5 -13z"/>
<path d="M1851 854 c0 -11 3 -14 6 -6 3 7 2 16 -1 19 -3 4 -6 -2 -5 -13z"/>
<path d="M2188 843 c7 -3 16 -2 19 1 4 3 -2 6 -13 5 -11 0 -14 -3 -6 -6z"/>
<path d="M2507 943 c-3 -5 10 -8 28 -9 19 0 32 3 29 8 -6 10 -51 11 -57 1z"/>
<path d="M2972 938 c-7 -7 -12 -16 -12 -22 0 -5 6 -2 13 9 10 12 22 16 40 13
15 -3 24 -1 21 3 -8 13 -48 11 -62 -3z"/>
<path d="M3151 934 c0 -11 3 -14 6 -6 3 7 2 16 -1 19 -3 4 -6 -2 -5 -13z"/>
<path d="M3211 934 c0 -11 3 -14 6 -6 3 7 2 16 -1 19 -3 4 -6 -2 -5 -13z"/>
<path d="M3850 940 c-13 -8 -12 -10 3 -10 9 0 17 5 17 10 0 12 -1 12 -20 0z"/>
<path d="M3920 940 c-13 -8 -12 -10 3 -10 9 0 17 5 17 10 0 12 -1 12 -20 0z"/>
<path d="M3997 943 c-3 -5 5 -8 18 -8 13 0 21 3 18 8 -2 4 -10 7 -18 7 -8 0
-16 -3 -18 -7z"/>
<path d="M4077 943 c-3 -5 8 -8 24 -9 15 -1 26 3 23 7 -6 11 -41 12 -47 2z"/>
<path d="M4157 943 c-3 -5 8 -8 23 -8 15 0 26 3 23 8 -2 4 -13 7 -23 7 -10 0
-21 -3 -23 -7z"/>
<path d="M4270 934 c0 -8 5 -12 10 -9 6 3 10 10 10 16 0 5 -4 9 -10 9 -5 0
-10 -7 -10 -16z"/>
<path d="M3333 890 c0 -30 2 -43 4 -27 2 15 2 39 0 55 -2 15 -4 2 -4 -28z"/>
<path d="M2591 898 c-2 -37 8 -58 27 -58 14 0 14 1 0 13 -9 6 -19 26 -21 42
-4 28 -4 29 -6 3z"/>
<path d="M2643 885 c0 -22 2 -30 4 -17 2 12 2 30 0 40 -3 9 -5 -1 -4 -23z"/>
<path d="M2690 916 c0 -2 9 -6 20 -9 11 -3 18 -1 14 4 -5 9 -34 13 -34 5z"/>
<path d="M2756 912 c-3 -5 6 -7 19 -4 14 2 25 0 25 -6 0 -6 -10 -12 -22 -14
-15 -2 -23 -10 -23 -23 0 -16 7 -20 31 -20 29 -1 30 1 24 35 -4 26 -11 36 -27
38 -11 2 -24 -1 -27 -6z m42 -44 c-7 -19 -38 -22 -38 -4 0 10 9 16 21 16 12 0
19 -5 17 -12z"/>
<path d="M2860 916 c0 -2 7 -6 15 -10 8 -3 15 -1 15 4 0 6 -7 10 -15 10 -8 0
-15 -2 -15 -4z"/>
<path d="M3365 910 c-8 -13 3 -30 18 -29 9 0 9 2 0 6 -20 8 -15 21 10 26 22 4
22 4 0 6 -12 0 -25 -3 -28 -9z"/>
<path d="M3440 905 c-15 -18 -10 -45 12 -59 12 -7 21 -7 28 0 8 8 4 10 -12 10
-18 -1 -23 4 -23 24 0 19 5 25 22 24 12 0 20 3 17 8 -8 13 -30 9 -44 -7z"/>
<path d="M3521 904 c0 -11 3 -14 6 -6 3 7 2 16 -1 19 -3 4 -6 -2 -5 -13z"/>
<path d="M3540 916 c0 -2 9 -6 20 -9 11 -3 18 -1 14 4 -5 9 -34 13 -34 5z"/>
<path d="M2506 901 c5 -5 18 -11 29 -13 11 -2 21 -12 23 -22 3 -16 -1 -18 -27
-14 -19 3 -28 1 -22 -5 16 -16 56 -3 59 19 2 17 -5 24 -29 33 -39 13 -46 14
-33 2z"/>
<path d="M3161 894 c0 -11 3 -14 6 -6 3 7 2 16 -1 19 -3 4 -6 -2 -5 -13z"/>
<path d="M4005 880 c-25 -26 -36 -30 -99 -33 -39 -1 -1 -3 84 -3 85 -1 140 1
121 3 l-33 4 23 26 c22 23 22 25 3 15 -11 -6 -26 -18 -34 -26 -7 -9 -25 -16
-41 -16 -30 0 -39 17 -15 26 12 5 31 34 23 34 -2 0 -16 -13 -32 -30z"/>
<path d="M3023 893 c26 -7 17 -36 -13 -44 -14 -4 -18 -7 -8 -8 30 -2 48 11 48
35 0 19 -5 24 -22 23 -18 -1 -19 -2 -5 -6z"/>
<path d="M4170 896 c0 -2 9 -6 20 -9 11 -3 18 -1 14 4 -5 9 -34 13 -34 5z"/>
<path d="M2698 880 c12 -5 22 -14 22 -19 0 -5 -10 -12 -22 -14 l-23 -4 23 -2
c12 0 25 6 29 15 6 17 -12 34 -37 33 -8 0 -5 -4 8 -9z"/>
<path d="M2960 876 c0 -8 4 -17 9 -20 5 -4 7 3 4 14 -6 23 -13 26 -13 6z"/>
<path d="M3247 874 c-4 -4 -7 -14 -7 -23 0 -11 3 -12 11 -4 6 6 10 16 7 23 -2
6 -7 8 -11 4z"/>
<path d="M4248 873 c12 -2 30 -2 40 0 9 3 -1 5 -23 4 -22 0 -30 -2 -17 -4z"/>
<path d="M3170 861 c0 -6 5 -13 10 -16 6 -3 10 1 10 9 0 9 -4 16 -10 16 -5 0
-10 -4 -10 -9z"/>
<path d="M3368 848 c6 -6 18 -8 28 -6 14 3 12 5 -9 10 -19 3 -25 2 -19 -4z"/>
<path d="M4157 848 c2 -5 13 -8 23 -8 10 0 21 3 23 8 3 4 -8 7 -23 7 -15 0
-26 -3 -23 -7z"/>
<path d="M1378 1778 l-3 -33 -100 -6 -100 -5 103 -2 102 -2 0 -26 c0 -22 4
-25 22 -21 109 29 188 53 188 58 0 3 -40 17 -88 32 -49 14 -96 29 -104 32 -13
5 -17 -1 -20 -27z"/>
<path d="M1380 1531 l0 -31 -100 0 c-60 0 -100 -4 -100 -10 0 -6 40 -10 100
-10 l100 0 0 -25 c0 -14 3 -25 8 -25 4 0 43 11 87 25 44 14 88 25 98 25 9 0
17 4 17 9 0 8 -58 28 -192 67 -14 4 -18 -1 -18 -25z"/>
<path d="M1380 1230 l0 -30 -102 -2 -103 -2 100 -5 100 -6 3 -28 c3 -21 8 -27
19 -23 8 3 53 17 100 31 93 27 103 32 82 40 -28 10 -183 55 -191 55 -4 0 -8
-13 -8 -30z"/>
<path d="M4997 1103 c-4 -3 -7 -73 -7 -155 l0 -148 343 0 c188 0 659 0 1047 0
388 -1 850 -1 1028 0 l323 0 -3 153 -3 152 -1361 3 c-748 1 -1364 -1 -1367 -5z
m693 -153 l0 -140 -340 0 -340 0 0 140 0 140 340 0 340 0 0 -140z m1340 0 l0
-140 -665 0 -665 0 0 140 0 140 665 0 665 0 0 -140z m690 0 l0 -140 -340 0
-340 0 0 140 0 140 340 0 340 0 0 -140z"/>
<path d="M5129 983 c-13 -16 -12 -17 3 -4 10 7 25 11 33 7 9 -3 13 -2 10 4
-10 15 -31 12 -46 -7z"/>
<path d="M5215 990 c-3 -6 1 -7 10 -4 8 4 23 0 33 -7 15 -13 16 -12 3 4 -15
19 -36 22 -46 7z"/>
<path d="M5303 993 c9 -2 25 -2 35 0 9 3 1 5 -18 5 -19 0 -27 -2 -17 -5z"/>
<path d="M5387 993 c-3 -5 5 -8 18 -8 13 0 21 3 18 8 -2 4 -10 7 -18 7 -8 0
-16 -3 -18 -7z"/>
<path d="M5463 993 c9 -2 25 -2 35 0 9 3 1 5 -18 5 -19 0 -27 -2 -17 -5z"/>
<path d="M5576 966 c5 -32 4 -35 -23 -39 l-28 -4 28 -2 c18 -1 27 -7 28 -18 0
-17 1 -17 7 0 10 24 2 97 -10 97 -5 0 -6 -15 -2 -34z"/>
<path d="M5126 946 c3 -9 13 -16 22 -16 8 0 13 1 11 3 -2 1 -12 9 -22 16 -15
12 -17 12 -11 -3z"/>
<path d="M5213 946 c0 -6 10 -11 23 -11 25 0 23 10 -4 17 -10 3 -19 0 -19 -6z"/>
<path d="M5371 944 c0 -11 3 -14 6 -6 3 7 2 16 -1 19 -3 4 -6 -2 -5 -13z"/>
<path d="M5390 956 c0 -2 9 -6 20 -9 11 -3 18 -1 14 4 -5 9 -34 13 -34 5z"/>
<path d="M5456 951 c-3 -4 8 -8 23 -7 16 1 27 4 24 9 -6 10 -41 9 -47 -2z"/>
<path d="M5220 896 c6 -6 18 -5 32 1 21 10 21 10 -9 9 -19 -1 -28 -5 -23 -10z"/>
<path d="M5387 898 c2 -5 10 -8 18 -8 8 0 16 3 18 8 3 4 -5 7 -18 7 -13 0 -21
-3 -18 -7z"/>
<path d="M5456 899 c6 -11 41 -12 47 -1 3 4 -8 7 -24 8 -15 1 -26 -3 -23 -7z"/>
<path d="M5138 893 c7 -3 16 -2 19 1 4 3 -2 6 -13 5 -11 0 -14 -3 -6 -6z"/>
<path d="M5848 993 c7 -3 16 -2 19 1 4 3 -2 6 -13 5 -11 0 -14 -3 -6 -6z"/>
<path d="M6183 945 c0 -33 2 -48 4 -32 2 15 9 27 14 27 6 0 21 -12 35 -27 l25
-28 -23 37 c-13 21 -28 35 -35 33 -7 -2 -14 8 -16 23 -2 15 -4 0 -4 -33z"/>
<path d="M6229 983 c-13 -16 -12 -17 4 -4 16 13 21 21 13 21 -2 0 -10 -8 -17
-17z"/>
<path d="M6377 993 c-3 -5 8 -8 23 -8 15 0 26 3 23 8 -2 4 -13 7 -23 7 -10 0
-21 -3 -23 -7z"/>
<path d="M6663 940 c0 -30 2 -43 4 -27 2 15 2 39 0 55 -2 15 -4 2 -4 -28z"/>
<path d="M5896 961 c-4 -5 3 -7 14 -4 23 6 26 13 6 13 -8 0 -17 -4 -20 -9z"/>
<path d="M5983 963 c-7 -2 -13 -9 -13 -15 0 -6 6 -6 15 2 8 7 22 10 30 6 9 -3
13 -2 10 4 -7 11 -22 12 -42 3z"/>
<path d="M6066 961 c-4 -5 3 -7 14 -4 23 6 26 13 6 13 -8 0 -17 -4 -20 -9z"/>
<path d="M6463 930 c0 -25 2 -35 4 -22 2 12 2 32 0 45 -2 12 -4 2 -4 -23z"/>
<path d="M6492 958 c9 -7 19 -26 21 -43 3 -21 4 -18 3 10 -1 31 -5 41 -21 43
-18 4 -19 3 -3 -10z"/>
<path d="M6537 963 c6 -4 13 -24 16 -43 4 -34 4 -33 3 4 -1 26 -6 41 -16 43
-10 3 -11 2 -3 -4z"/>
<path d="M6618 930 c2 -22 7 -40 11 -40 3 0 6 18 6 40 0 22 -5 40 -10 40 -6 0
-9 -17 -7 -40z"/>
<path d="M6692 964 c11 -3 18 -19 21 -42 l4 -37 -1 40 c-1 32 -5 40 -21 42
-15 1 -15 0 -3 -3z"/>
<path d="M6370 954 c0 -3 13 -10 29 -15 17 -6 32 -18 34 -27 3 -12 5 -10 6 6
0 12 0 22 -2 22 -1 0 -17 4 -35 9 -17 5 -32 7 -32 5z"/>
<path d="M5925 942 c-11 -2 -24 -7 -28 -12 -5 -4 4 -5 19 -2 22 4 26 2 21 -11
-3 -9 -2 -19 4 -23 14 -8 16 -3 10 26 -5 19 -11 25 -26 22z"/>
<path d="M6068 933 c12 -2 30 -2 40 0 9 3 -1 5 -23 4 -22 0 -30 -2 -17 -4z"/>
<path d="M5854 909 c-3 -6 -15 -9 -25 -6 -11 3 -17 1 -13 -4 8 -14 30 -11 44
6 7 8 10 15 7 15 -3 0 -9 -5 -13 -11z"/>
<path d="M6063 910 c2 -8 12 -16 23 -17 13 -2 15 -1 4 4 -8 3 -19 11 -23 17
-6 7 -7 6 -4 -4z"/>
<path d="M5890 900 c0 -6 7 -10 15 -10 8 0 15 2 15 4 0 2 -7 6 -15 10 -8 3
-15 1 -15 -4z"/>
<path d="M6370 900 c8 -5 24 -10 34 -10 26 0 18 6 -19 14 -22 5 -26 4 -15 -4z"/>
<path d="M7323 940 c0 -30 2 -43 4 -27 2 15 2 39 0 55 -2 15 -4 2 -4 -28z"/>
<path d="M7180 966 c0 -2 7 -7 16 -10 8 -3 12 -2 9 4 -6 10 -25 14 -25 6z"/>
<path d="M7150 949 c0 -5 5 -7 10 -4 6 3 10 8 10 11 0 2 -4 4 -10 4 -5 0 -10
-5 -10 -11z"/>
<path d="M7240 900 c0 -6 7 -10 15 -10 8 0 15 2 15 4 0 2 -7 6 -15 10 -8 3
-15 1 -15 -4z"/>
<path d="M1380 930 l0 -29 -102 -4 -103 -3 103 -2 c102 -2 102 -2 102 -27 0
-14 6 -25 13 -25 30 0 199 58 189 64 -16 9 -172 56 -189 56 -8 0 -13 -12 -13
-30z"/>
<path d="M4740 930 l0 -29 -97 -4 -98 -3 98 -2 c96 -2 97 -2 97 -27 0 -14 6
-25 13 -25 19 -1 207 54 207 61 0 7 -179 59 -203 59 -12 0 -17 -8 -17 -30z"/>
</g>
</svg>
