<svg version="1.1" xmlns="http://www.w3.org/2000/svg" xmlns:xlink="http://www.w3.org/1999/xlink" width="382" height="360"><defs/><g><rect fill="#202020" stroke="none" x="0" y="0" width="382" height="360"/><g transform="scale(1,1) translate(120,40)"><rect fill="#dddd90" stroke="none" x="-1" y="0" width="2" height="40"/><path fill="none" stroke="#dddd90" paint-order="fill stroke markers" d=" M 1.5 40.5 L 220.5 40.5" stroke-linecap="round" stroke-miterlimit="10"/><g transform="translate(1.5,40.5) rotate(180,0,0)"><path fill="#dddd90" stroke="#dddd90" paint-order="fill stroke markers" d=" M -20 -6 L 0 0 L -20 6 Z" stroke-linecap="round" stroke-linejoin="round" stroke-miterlimit="10"/></g><g transform="translate(220.5,40.5) rotate(0,0,0)"/><rect fill="#dddd90" stroke="none" x="-1" y="40" width="2" height="40"/><rect fill="#dddd90" stroke="none" x="-1" y="220" width="2" height="60"/><path fill="none" stroke="#dddd90" paint-order="fill stroke markers" d=" M 0.5 80.5 L 120.5 80.5" stroke-linecap="round" stroke-miterlimit="10"/><rect fill="#dddd90" stroke="none" x="120" y="80" width="1" height="60"/><rect fill="#dddd90" stroke="none" x="220" y="40" width="1" height="140"/><rect fill="#dddd90" stroke="none" x="120" y="140" width="1" height="40"/><path fill="none" stroke="#dddd90" paint-order="fill stroke markers" d=" M 120.5 180.5 L 220.5 180.5" stroke-linecap="round" stroke-miterlimit="10"/><path fill="none" stroke="#dddd90" paint-order="fill stroke markers" d=" M 0.5 0.5 L 130.5 0.5" stroke-linecap="round" stroke-miterlimit="10"/><rect fill="#dddd90" stroke="none" x="-1" y="80" width="2" height="140"/><path fill="#000000" stroke="none" paint-order="stroke fill markers" d=" M -30 300 A 20 20 0 0 1 -30.000000000000004 260 L 30 260 L 29.999999999999996 260 A 20 20 0 0 1 30 300 Z"/><path fill="none" stroke="#98984D" paint-order="fill stroke markers" d=" M -29.5 300.5 A 20 20 0 0 1 -29.500000000000004 260.5 L 30.5 260.5 L 30.499999999999996 260.5 A 20 20 0 0 1 30.5 300.5 Z" stroke-linecap="round" stroke-miterlimit="10"/><text fill="#ffffcc" stroke="none" font-family="Consolas, Monaco, Cousine" font-size="14px" font-style="normal" font-weight="normal" text-decoration="normal" x="-13" y="284" text-anchor="start" dominant-baseline="alphabetic">End</text><rect fill="#000000" stroke="none" x="-100" y="200" width="200" height="40"/><rect fill="none" stroke="#98984D" x="-99.5" y="200.5" width="200" height="40" stroke-linecap="round" stroke-miterlimit="10"/><text fill="#80ff80" stroke="none" font-family="Consolas, Monaco, Cousine" font-size="14px" font-style="normal" font-weight="normal" text-decoration="normal" x="-90" y="224" text-anchor="start" dominant-baseline="alphabetic">return</text><text fill="#ffffcc" stroke="none" font-family="Consolas, Monaco, Cousine" font-size="14px" font-style="normal" font-weight="normal" text-decoration="normal" x="-32" y="224" text-anchor="start" dominant-baseline="alphabetic">node</text><path fill="#000000" stroke="none" paint-order="stroke fill markers" d=" M -102 80 L -82 60 L 82 60 L 102 80 L 82 100 L -82 100 Z"/><path fill="none" stroke="#98984D" paint-order="fill stroke markers" d=" M -101.5 80.5 L -81.5 60.5 L 82.5 60.5 L 102.5 80.5 L 82.5 100.5 L -81.5 100.5 Z" stroke-linecap="round" stroke-miterlimit="10"/><text fill="#ffffcc" stroke="none" font-family="Consolas, Monaco, Cousine" font-size="14px" font-style="normal" font-weight="normal" text-decoration="normal" x="-80" y="84" text-anchor="start" dominant-baseline="alphabetic">node</text><text fill="#95DCFC" stroke="none" font-family="Consolas, Monaco, Cousine" font-size="14px" font-style="normal" font-weight="normal" text-decoration="normal" x="-46" y="84" text-anchor="start" dominant-baseline="alphabetic">.</text><text fill="#ffffcc" stroke="none" font-family="Consolas, Monaco, Cousine" font-size="14px" font-style="normal" font-weight="normal" text-decoration="normal" x="-38" y="84" text-anchor="start" dominant-baseline="alphabetic">left</text><text fill="#95DCFC" stroke="none" font-family="Consolas, Monaco, Cousine" font-size="14px" font-style="normal" font-weight="normal" text-decoration="normal" x="4" y="84" text-anchor="start" dominant-baseline="alphabetic">!==</text><text fill="#80ff80" stroke="none" font-family="Consolas, Monaco, Cousine" font-size="14px" font-style="normal" font-weight="normal" text-decoration="normal" x="37" y="84" text-anchor="start" dominant-baseline="alphabetic">null</text><text fill="#ffffcc" stroke="none" font-family="Consolas, Monaco, Cousine" font-size="14px" font-style="normal" font-weight="normal" text-decoration="normal" x="-20" y="113" text-anchor="start" dominant-baseline="alphabetic">No</text><text fill="#ffffcc" stroke="none" font-family="Consolas, Monaco, Cousine" font-size="14px" font-style="normal" font-weight="normal" text-decoration="normal" x="108" y="73" text-anchor="start" dominant-baseline="alphabetic">Yes</text><rect fill="#000000" stroke="none" x="40" y="120" width="160" height="40"/><rect fill="none" stroke="#98984D" x="40.5" y="120.5" width="160" height="40" stroke-linecap="round" stroke-miterlimit="10"/><text fill="#ffffcc" stroke="none" font-family="Consolas, Monaco, Cousine" font-size="14px" font-style="normal" font-weight="normal" text-decoration="normal" x="50" y="144" text-anchor="start" dominant-baseline="alphabetic">node</text><text fill="#95DCFC" stroke="none" font-family="Consolas, Monaco, Cousine" font-size="14px" font-style="normal" font-weight="normal" text-decoration="normal" x="92" y="144" text-anchor="start" dominant-baseline="alphabetic">=</text><text fill="#ffffcc" stroke="none" font-family="Consolas, Monaco, Cousine" font-size="14px" font-style="normal" font-weight="normal" text-decoration="normal" x="108" y="144" text-anchor="start" dominant-baseline="alphabetic">node</text><text fill="#95DCFC" stroke="none" font-family="Consolas, Monaco, Cousine" font-size="14px" font-style="normal" font-weight="normal" text-decoration="normal" x="142" y="144" text-anchor="start" dominant-baseline="alphabetic">.</text><text fill="#ffffcc" stroke="none" font-family="Consolas, Monaco, Cousine" font-size="14px" font-style="normal" font-weight="normal" text-decoration="normal" x="150" y="144" text-anchor="start" dominant-baseline="alphabetic">left</text><path fill="#000000" stroke="none" paint-order="stroke fill markers" d=" M -40 20 A 20 20 0 0 1 -40.00000000000001 -20 L 40 -20 L 39.99999999999999 -20 A 20 20 0 0 1 40 20 Z"/><path fill="none" stroke="#98984D" paint-order="fill stroke markers" d=" M -39.5 20.5 A 20 20 0 0 1 -39.50000000000001 -19.5 L 40.5 -19.5 L 40.49999999999999 -19.5 A 20 20 0 0 1 40.5 20.5 Z" stroke-linecap="round" stroke-miterlimit="10"/><text fill="#ffffcc" stroke="none" font-family="Consolas, Monaco, Cousine" font-size="18px" font-style="normal" font-weight="normal" text-decoration="normal" x="-38" y="6" text-anchor="start" dominant-baseline="alphabetic">findMin</text><rect fill="#000000" stroke="none" x="80" y="-20" width="100" height="40"/><rect fill="none" stroke="#98984D" x="80.5" y="-19.5" width="100" height="40" stroke-linecap="round" stroke-miterlimit="10"/><text fill="#ffffcc" stroke="none" font-family="Consolas, Monaco, Cousine" font-size="14px" font-style="normal" font-weight="normal" text-decoration="normal" x="90" y="4" text-anchor="start" dominant-baseline="alphabetic">node</text></g></g></svg>