<svg version="1.1" xmlns="http://www.w3.org/2000/svg" xmlns:xlink="http://www.w3.org/1999/xlink" width="1112" height="722"><defs/><g><rect fill="#97D3E1" stroke="none" x="0" y="0" width="1112" height="722"/><g transform="scale(1,1) translate(42,40)"><rect fill="#000000" stroke="none" x="0" y="40" width="1" height="600"/><rect fill="#000000" stroke="none" x="139" y="90" width="2" height="170"/><rect fill="#000000" stroke="none" x="139" y="260" width="2" height="60"/><rect fill="#000000" stroke="none" x="139" y="320" width="2" height="60"/><rect fill="#000000" stroke="none" x="139" y="380" width="2" height="60"/><rect fill="#000000" stroke="none" x="139" y="520" width="2" height="70"/><path fill="none" stroke="#000000" paint-order="fill stroke markers" d=" M 140.5 320.5 L 280.5 320.5" stroke-linecap="round" stroke-miterlimit="10"/><rect fill="#000000" stroke="none" x="280" y="320" width="1" height="160"/><rect fill="#000000" stroke="none" x="139" y="440" width="2" height="40"/><rect fill="#000000" stroke="none" x="139" y="480" width="2" height="40"/><path fill="none" stroke="#000000" paint-order="fill stroke markers" d=" M 140.5 480.5 L 280.5 480.5" stroke-linecap="round" stroke-miterlimit="10"/><path fill="none" stroke="#000000" paint-order="fill stroke markers" d=" M 0.5 40.5 L 139.5 40.5" stroke-linecap="round" stroke-miterlimit="10"/><g transform="translate(0.5,40.5) rotate(180,0,0)"/><g transform="translate(139.5,40.5) rotate(0,0,0)"><path fill="#000000" stroke="#000000" paint-order="fill stroke markers" d=" M -20 -6 L 0 0 L -20 6 Z" stroke-linecap="round" stroke-linejoin="round" stroke-miterlimit="10"/></g><rect fill="#000000" stroke="none" x="139" y="40" width="2" height="50"/><path fill="none" stroke="#000000" paint-order="fill stroke markers" d=" M 0.5 640.5 L 140.5 640.5" stroke-linecap="round" stroke-miterlimit="10"/><rect fill="#000000" stroke="none" x="139" y="590" width="2" height="50"/><rect fill="#000000" stroke="none" x="369" y="90" width="2" height="50"/><path fill="none" stroke="#000000" paint-order="fill stroke markers" d=" M 371.5 140.5 L 910.5 140.5" stroke-linecap="round" stroke-miterlimit="10"/><g transform="translate(371.5,140.5) rotate(180,0,0)"><path fill="#000000" stroke="#000000" paint-order="fill stroke markers" d=" M -20 -6 L 0 0 L -20 6 Z" stroke-linecap="round" stroke-linejoin="round" stroke-miterlimit="10"/></g><g transform="translate(910.5,140.5) rotate(0,0,0)"/><rect fill="#000000" stroke="none" x="369" y="140" width="2" height="40"/><path fill="none" stroke="#000000" paint-order="fill stroke markers" d=" M 370.5 180.5 L 500.5 180.5" stroke-linecap="round" stroke-miterlimit="10"/><rect fill="#000000" stroke="none" x="500" y="180" width="1" height="60"/><rect fill="#000000" stroke="none" x="500" y="240" width="1" height="60"/><rect fill="#000000" stroke="none" x="500" y="300" width="1" height="60"/><rect fill="#000000" stroke="none" x="500" y="360" width="1" height="60"/><rect fill="#000000" stroke="none" x="910" y="140" width="1" height="400"/><rect fill="#000000" stroke="none" x="500" y="500" width="1" height="40"/><path fill="none" stroke="#000000" paint-order="fill stroke markers" d=" M 500.5 300.5 L 630.5 300.5" stroke-linecap="round" stroke-miterlimit="10"/><rect fill="#000000" stroke="none" x="630" y="300" width="1" height="160"/><rect fill="#000000" stroke="none" x="500" y="420" width="1" height="40"/><rect fill="#000000" stroke="none" x="500" y="460" width="1" height="40"/><path fill="none" stroke="#000000" paint-order="fill stroke markers" d=" M 500.5 460.5 L 630.5 460.5" stroke-linecap="round" stroke-miterlimit="10"/><path fill="none" stroke="#000000" paint-order="fill stroke markers" d=" M 500.5 240.5 L 760.5 240.5" stroke-linecap="round" stroke-miterlimit="10"/><rect fill="#000000" stroke="none" x="760" y="240" width="1" height="60"/><rect fill="#000000" stroke="none" x="760" y="300" width="1" height="60"/><rect fill="#000000" stroke="none" x="760" y="360" width="1" height="60"/><path fill="none" stroke="#000000" paint-order="fill stroke markers" d=" M 500.5 540.5 L 760.5 540.5" stroke-linecap="round" stroke-miterlimit="10"/><path fill="none" stroke="#000000" paint-order="fill stroke markers" d=" M 760.5 540.5 L 910.5 540.5" stroke-linecap="round" stroke-miterlimit="10"/><rect fill="#000000" stroke="none" x="760" y="500" width="1" height="40"/><path fill="none" stroke="#000000" paint-order="fill stroke markers" d=" M 760.5 300.5 L 890.5 300.5" stroke-linecap="round" stroke-miterlimit="10"/><rect fill="#000000" stroke="none" x="890" y="300" width="1" height="160"/><rect fill="#000000" stroke="none" x="760" y="420" width="1" height="40"/><rect fill="#000000" stroke="none" x="760" y="460" width="1" height="40"/><path fill="none" stroke="#000000" paint-order="fill stroke markers" d=" M 760.5 460.5 L 890.5 460.5" stroke-linecap="round" stroke-miterlimit="10"/><path fill="none" stroke="#000000" paint-order="fill stroke markers" d=" M 140.5 40.5 L 370.5 40.5" stroke-linecap="round" stroke-miterlimit="10"/><rect fill="#000000" stroke="none" x="369" y="40" width="2" height="50"/><path fill="none" stroke="#000000" paint-order="fill stroke markers" d=" M 140.5 640.5 L 370.5 640.5" stroke-linecap="round" stroke-miterlimit="10"/><rect fill="#000000" stroke="none" x="369" y="590" width="2" height="50"/><rect fill="#000000" stroke="none" x="999" y="90" width="2" height="70"/><path fill="none" stroke="#000000" paint-order="fill stroke markers" d=" M 370.5 40.5 L 1000.5 40.5" stroke-linecap="round" stroke-miterlimit="10"/><rect fill="#000000" stroke="none" x="999" y="40" width="2" height="50"/><rect fill="#000000" stroke="none" x="139" y="0" width="2" height="40"/><path fill="none" stroke="#000000" paint-order="fill stroke markers" d=" M 140.5 0.5 L 260.5 0.5" stroke-linecap="round" stroke-miterlimit="10"/><rect fill="#000000" stroke="none" x="369" y="180" width="2" height="410"/><path fill="rgb(0,0,0)" stroke="none" paint-order="stroke fill markers" d=" M 975 187 A 20 20 0 0 1 975 147 L 1035 147 L 1035 147 A 20 20 0 0 1 1035 187 Z" fill-opacity="0.3"/><path fill="#ffffff" stroke="none" paint-order="stroke fill markers" d=" M 970 180 A 20 20 0 0 1 970 140 L 1030 140 L 1030 140 A 20 20 0 0 1 1030 180 Z"/><text fill="#000000" stroke="none" font-family="Consolas, Monaco, Cousine" font-size="14px" font-style="normal" font-weight="normal" text-decoration="normal" x="988" y="164" text-anchor="start" dominant-baseline="alphabetic">End</text><path fill="rgb(0,0,0)" stroke="none" paint-order="stroke fill markers" d=" M 25 67 L 265 67 L 265 107 L 145 127 L 25 107 Z" fill-opacity="0.3"/><path fill="#ffffff" stroke="none" paint-order="stroke fill markers" d=" M 20 60 L 260 60 L 260 100 L 140 120 L 20 100 Z"/><text fill="#000000" stroke="none" font-family="Consolas, Monaco, Cousine" font-size="14px" font-style="normal" font-weight="normal" text-decoration="normal" x="30" y="84" text-anchor="start" dominant-baseline="alphabetic">Branch1</text><path fill="rgb(0,0,0)" stroke="none" paint-order="stroke fill markers" d=" M 955 67 L 1055 67 L 1055 107 L 1005 127 L 955 107 Z" fill-opacity="0.3"/><path fill="#ffffff" stroke="none" paint-order="stroke fill markers" d=" M 950 60 L 1050 60 L 1050 100 L 1000 120 L 950 100 Z"/><text fill="#000000" stroke="none" font-family="Consolas, Monaco, Cousine" font-size="14px" font-style="normal" font-weight="normal" text-decoration="normal" x="960" y="84" text-anchor="start" dominant-baseline="alphabetic">Exit</text><path fill="rgb(0,0,0)" stroke="none" paint-order="stroke fill markers" d=" M 325 67 L 425 67 L 425 107 L 375 127 L 325 107 Z" fill-opacity="0.3"/><path fill="#ffffff" stroke="none" paint-order="stroke fill markers" d=" M 320 60 L 420 60 L 420 100 L 370 120 L 320 100 Z"/><text fill="#000000" stroke="none" font-family="Consolas, Monaco, Cousine" font-size="14px" font-style="normal" font-weight="normal" text-decoration="normal" x="330" y="84" text-anchor="start" dominant-baseline="alphabetic">Branch2</text><rect fill="rgb(0,0,0)" stroke="none" x="25" y="247" width="240" height="40" fill-opacity="0.3"/><rect fill="#ffffff" stroke="none" x="20" y="240" width="240" height="40"/><text fill="#000000" stroke="none" font-family="Consolas, Monaco, Cousine" font-size="14px" font-style="normal" font-weight="normal" text-decoration="normal" x="30" y="264" text-anchor="start" dominant-baseline="alphabetic">newNode</text><text fill="#cc3399" stroke="none" font-family="Consolas, Monaco, Cousine" font-size="14px" font-style="normal" font-weight="normal" text-decoration="normal" x="92" y="264" text-anchor="start" dominant-baseline="alphabetic">=</text><text fill="#000000" stroke="none" font-family="Consolas, Monaco, Cousine" font-size="14px" font-style="normal" font-weight="normal" text-decoration="normal" x="108" y="264" text-anchor="start" dominant-baseline="alphabetic">createNode</text><text fill="#cc3399" stroke="none" font-family="Consolas, Monaco, Cousine" font-size="14px" font-style="normal" font-weight="normal" text-decoration="normal" x="185" y="264" text-anchor="start" dominant-baseline="alphabetic">(</text><text fill="#000000" stroke="none" font-family="Consolas, Monaco, Cousine" font-size="14px" font-style="normal" font-weight="normal" text-decoration="normal" x="193" y="264" text-anchor="start" dominant-baseline="alphabetic">value</text><text fill="#cc3399" stroke="none" font-family="Consolas, Monaco, Cousine" font-size="14px" font-style="normal" font-weight="normal" text-decoration="normal" x="231" y="264" text-anchor="start" dominant-baseline="alphabetic">)</text><path fill="rgb(0,0,0)" stroke="none" paint-order="stroke fill markers" d=" M 23 327 L 43 307 L 247 307 L 267 327 L 247 347 L 43 347 Z" fill-opacity="0.3"/><path fill="#ffffff" stroke="none" paint-order="stroke fill markers" d=" M 18 320 L 38 300 L 242 300 L 262 320 L 242 340 L 38 340 Z"/><text fill="#000000" stroke="none" font-family="Consolas, Monaco, Cousine" font-size="14px" font-style="normal" font-weight="normal" text-decoration="normal" x="40" y="324" text-anchor="start" dominant-baseline="alphabetic">tree</text><text fill="#cc3399" stroke="none" font-family="Consolas, Monaco, Cousine" font-size="14px" font-style="normal" font-weight="normal" text-decoration="normal" x="71" y="324" text-anchor="start" dominant-baseline="alphabetic">.</text><text fill="#000000" stroke="none" font-family="Consolas, Monaco, Cousine" font-size="14px" font-style="normal" font-weight="normal" text-decoration="normal" x="79" y="324" text-anchor="start" dominant-baseline="alphabetic">root</text><text fill="#cc3399" stroke="none" font-family="Consolas, Monaco, Cousine" font-size="14px" font-style="normal" font-weight="normal" text-decoration="normal" x="118" y="324" text-anchor="start" dominant-baseline="alphabetic">===</text><text fill="#003399" stroke="none" font-family="Consolas, Monaco, Cousine" font-size="14px" font-style="normal" font-weight="normal" text-decoration="normal" x="149" y="324" text-anchor="start" dominant-baseline="alphabetic">null</text><text fill="#000000" stroke="none" font-family="Consolas, Monaco, Cousine" font-size="14px" font-style="normal" font-weight="normal" text-decoration="normal" x="109.4" y="353" text-anchor="start" dominant-baseline="alphabetic">Yes</text><text fill="#000000" stroke="none" font-family="Consolas, Monaco, Cousine" font-size="14px" font-style="normal" font-weight="normal" text-decoration="normal" x="268" y="313" text-anchor="start" dominant-baseline="alphabetic">No</text><rect fill="rgb(0,0,0)" stroke="none" x="25" y="367" width="240" height="40" fill-opacity="0.3"/><rect fill="#ffffff" stroke="none" x="20" y="360" width="240" height="40"/><text fill="#000000" stroke="none" font-family="Consolas, Monaco, Cousine" font-size="14px" font-style="normal" font-weight="normal" text-decoration="normal" x="30" y="384" text-anchor="start" dominant-baseline="alphabetic">tree</text><text fill="#cc3399" stroke="none" font-family="Consolas, Monaco, Cousine" font-size="14px" font-style="normal" font-weight="normal" text-decoration="normal" x="61" y="384" text-anchor="start" dominant-baseline="alphabetic">.</text><text fill="#000000" stroke="none" font-family="Consolas, Monaco, Cousine" font-size="14px" font-style="normal" font-weight="normal" text-decoration="normal" x="69" y="384" text-anchor="start" dominant-baseline="alphabetic">root</text><text fill="#cc3399" stroke="none" font-family="Consolas, Monaco, Cousine" font-size="14px" font-style="normal" font-weight="normal" text-decoration="normal" x="108" y="384" text-anchor="start" dominant-baseline="alphabetic">=</text><text fill="#000000" stroke="none" font-family="Consolas, Monaco, Cousine" font-size="14px" font-style="normal" font-weight="normal" text-decoration="normal" x="124" y="384" text-anchor="start" dominant-baseline="alphabetic">newNode</text><rect fill="rgb(0,0,0)" stroke="none" x="25" y="427" width="240" height="40" fill-opacity="0.3"/><rect fill="#ffffff" stroke="none" x="20" y="420" width="240" height="40"/><text fill="#003399" stroke="none" font-family="Consolas, Monaco, Cousine" font-size="14px" font-style="normal" font-weight="normal" text-decoration="normal" x="30" y="444" text-anchor="start" dominant-baseline="alphabetic">return</text><rect fill="rgb(0,0,0)" stroke="none" x="25" y="507" width="240" height="40" fill-opacity="0.3"/><rect fill="#ffffff" stroke="none" x="20" y="500" width="240" height="40"/><text fill="#000000" stroke="none" font-family="Consolas, Monaco, Cousine" font-size="14px" font-style="normal" font-weight="normal" text-decoration="normal" x="30" y="524" text-anchor="start" dominant-baseline="alphabetic">current</text><text fill="#cc3399" stroke="none" font-family="Consolas, Monaco, Cousine" font-size="14px" font-style="normal" font-weight="normal" text-decoration="normal" x="92" y="524" text-anchor="start" dominant-baseline="alphabetic">=</text><text fill="#000000" stroke="none" font-family="Consolas, Monaco, Cousine" font-size="14px" font-style="normal" font-weight="normal" text-decoration="normal" x="108" y="524" text-anchor="start" dominant-baseline="alphabetic">tree</text><text fill="#cc3399" stroke="none" font-family="Consolas, Monaco, Cousine" font-size="14px" font-style="normal" font-weight="normal" text-decoration="normal" x="139" y="524" text-anchor="start" dominant-baseline="alphabetic">.</text><text fill="#000000" stroke="none" font-family="Consolas, Monaco, Cousine" font-size="14px" font-style="normal" font-weight="normal" text-decoration="normal" x="147" y="524" text-anchor="start" dominant-baseline="alphabetic">root</text><path fill="rgb(0,0,0)" stroke="none" paint-order="stroke fill markers" d=" M 323 187 L 343 167 L 407 167 L 427 187 L 407 207 L 343 207 Z" fill-opacity="0.3"/><path fill="#ffffff" stroke="none" paint-order="stroke fill markers" d=" M 318 180 L 338 160 L 402 160 L 422 180 L 402 200 L 338 200 Z"/><text fill="#003399" stroke="none" font-family="Consolas, Monaco, Cousine" font-size="14px" font-style="normal" font-weight="normal" text-decoration="normal" x="340" y="184" text-anchor="start" dominant-baseline="alphabetic">true</text><text fill="#000000" stroke="none" font-family="Consolas, Monaco, Cousine" font-size="14px" font-style="normal" font-weight="normal" text-decoration="normal" x="352" y="213" text-anchor="start" dominant-baseline="alphabetic">No</text><text fill="#000000" stroke="none" font-family="Consolas, Monaco, Cousine" font-size="14px" font-style="normal" font-weight="normal" text-decoration="normal" x="428" y="173" text-anchor="start" dominant-baseline="alphabetic">Yes</text><path fill="rgb(0,0,0)" stroke="none" paint-order="stroke fill markers" d=" M 393 247 L 413 227 L 597 227 L 617 247 L 597 267 L 413 267 Z" fill-opacity="0.3"/><path fill="#ffffff" stroke="none" paint-order="stroke fill markers" d=" M 388 240 L 408 220 L 592 220 L 612 240 L 592 260 L 408 260 Z"/><text fill="#000000" stroke="none" font-family="Consolas, Monaco, Cousine" font-size="14px" font-style="normal" font-weight="normal" text-decoration="normal" x="410" y="244" text-anchor="start" dominant-baseline="alphabetic">value</text><text fill="#cc3399" stroke="none" font-family="Consolas, Monaco, Cousine" font-size="14px" font-style="normal" font-weight="normal" text-decoration="normal" x="456" y="244" text-anchor="start" dominant-baseline="alphabetic">&lt;</text><text fill="#000000" stroke="none" font-family="Consolas, Monaco, Cousine" font-size="14px" font-style="normal" font-weight="normal" text-decoration="normal" x="472" y="244" text-anchor="start" dominant-baseline="alphabetic">current</text><text fill="#cc3399" stroke="none" font-family="Consolas, Monaco, Cousine" font-size="14px" font-style="normal" font-weight="normal" text-decoration="normal" x="526" y="244" text-anchor="start" dominant-baseline="alphabetic">.</text><text fill="#000000" stroke="none" font-family="Consolas, Monaco, Cousine" font-size="14px" font-style="normal" font-weight="normal" text-decoration="normal" x="534" y="244" text-anchor="start" dominant-baseline="alphabetic">value</text><text fill="#000000" stroke="none" font-family="Consolas, Monaco, Cousine" font-size="14px" font-style="normal" font-weight="normal" text-decoration="normal" x="469.4" y="273" text-anchor="start" dominant-baseline="alphabetic">Yes</text><text fill="#000000" stroke="none" font-family="Consolas, Monaco, Cousine" font-size="14px" font-style="normal" font-weight="normal" text-decoration="normal" x="618" y="233" text-anchor="start" dominant-baseline="alphabetic">No</text><rect fill="rgb(0,0,0)" stroke="none" x="395" y="487" width="220" height="40" fill-opacity="0.3"/><rect fill="#ffffff" stroke="none" x="390" y="480" width="220" height="40"/><text fill="#000000" stroke="none" font-family="Consolas, Monaco, Cousine" font-size="14px" font-style="normal" font-weight="normal" text-decoration="normal" x="400" y="504" text-anchor="start" dominant-baseline="alphabetic">current</text><text fill="#cc3399" stroke="none" font-family="Consolas, Monaco, Cousine" font-size="14px" font-style="normal" font-weight="normal" text-decoration="normal" x="462" y="504" text-anchor="start" dominant-baseline="alphabetic">=</text><text fill="#000000" stroke="none" font-family="Consolas, Monaco, Cousine" font-size="14px" font-style="normal" font-weight="normal" text-decoration="normal" x="478" y="504" text-anchor="start" dominant-baseline="alphabetic">current</text><text fill="#cc3399" stroke="none" font-family="Consolas, Monaco, Cousine" font-size="14px" font-style="normal" font-weight="normal" text-decoration="normal" x="532" y="504" text-anchor="start" dominant-baseline="alphabetic">.</text><text fill="#000000" stroke="none" font-family="Consolas, Monaco, Cousine" font-size="14px" font-style="normal" font-weight="normal" text-decoration="normal" x="540" y="504" text-anchor="start" dominant-baseline="alphabetic">left</text><rect fill="rgb(0,0,0)" stroke="none" x="655" y="487" width="220" height="40" fill-opacity="0.3"/><rect fill="#ffffff" stroke="none" x="650" y="480" width="220" height="40"/><text fill="#000000" stroke="none" font-family="Consolas, Monaco, Cousine" font-size="14px" font-style="normal" font-weight="normal" text-decoration="normal" x="660" y="504" text-anchor="start" dominant-baseline="alphabetic">current</text><text fill="#cc3399" stroke="none" font-family="Consolas, Monaco, Cousine" font-size="14px" font-style="normal" font-weight="normal" text-decoration="normal" x="722" y="504" text-anchor="start" dominant-baseline="alphabetic">=</text><text fill="#000000" stroke="none" font-family="Consolas, Monaco, Cousine" font-size="14px" font-style="normal" font-weight="normal" text-decoration="normal" x="738" y="504" text-anchor="start" dominant-baseline="alphabetic">current</text><text fill="#cc3399" stroke="none" font-family="Consolas, Monaco, Cousine" font-size="14px" font-style="normal" font-weight="normal" text-decoration="normal" x="792" y="504" text-anchor="start" dominant-baseline="alphabetic">.</text><text fill="#000000" stroke="none" font-family="Consolas, Monaco, Cousine" font-size="14px" font-style="normal" font-weight="normal" text-decoration="normal" x="800" y="504" text-anchor="start" dominant-baseline="alphabetic">right</text><path fill="rgb(0,0,0)" stroke="none" paint-order="stroke fill markers" d=" M 393 307 L 413 287 L 597 287 L 617 307 L 597 327 L 413 327 Z" fill-opacity="0.3"/><path fill="#ffffff" stroke="none" paint-order="stroke fill markers" d=" M 388 300 L 408 280 L 592 280 L 612 300 L 592 320 L 408 320 Z"/><text fill="#000000" stroke="none" font-family="Consolas, Monaco, Cousine" font-size="14px" font-style="normal" font-weight="normal" text-decoration="normal" x="410" y="304" text-anchor="start" dominant-baseline="alphabetic">current</text><text fill="#cc3399" stroke="none" font-family="Consolas, Monaco, Cousine" font-size="14px" font-style="normal" font-weight="normal" text-decoration="normal" x="464" y="304" text-anchor="start" dominant-baseline="alphabetic">.</text><text fill="#000000" stroke="none" font-family="Consolas, Monaco, Cousine" font-size="14px" font-style="normal" font-weight="normal" text-decoration="normal" x="472" y="304" text-anchor="start" dominant-baseline="alphabetic">left</text><text fill="#cc3399" stroke="none" font-family="Consolas, Monaco, Cousine" font-size="14px" font-style="normal" font-weight="normal" text-decoration="normal" x="511" y="304" text-anchor="start" dominant-baseline="alphabetic">===</text><text fill="#003399" stroke="none" font-family="Consolas, Monaco, Cousine" font-size="14px" font-style="normal" font-weight="normal" text-decoration="normal" x="542" y="304" text-anchor="start" dominant-baseline="alphabetic">null</text><text fill="#000000" stroke="none" font-family="Consolas, Monaco, Cousine" font-size="14px" font-style="normal" font-weight="normal" text-decoration="normal" x="469.4" y="333" text-anchor="start" dominant-baseline="alphabetic">Yes</text><text fill="#000000" stroke="none" font-family="Consolas, Monaco, Cousine" font-size="14px" font-style="normal" font-weight="normal" text-decoration="normal" x="618" y="293" text-anchor="start" dominant-baseline="alphabetic">No</text><rect fill="rgb(0,0,0)" stroke="none" x="395" y="347" width="220" height="40" fill-opacity="0.3"/><rect fill="#ffffff" stroke="none" x="390" y="340" width="220" height="40"/><text fill="#000000" stroke="none" font-family="Consolas, Monaco, Cousine" font-size="14px" font-style="normal" font-weight="normal" text-decoration="normal" x="400" y="364" text-anchor="start" dominant-baseline="alphabetic">current</text><text fill="#cc3399" stroke="none" font-family="Consolas, Monaco, Cousine" font-size="14px" font-style="normal" font-weight="normal" text-decoration="normal" x="454" y="364" text-anchor="start" dominant-baseline="alphabetic">.</text><text fill="#000000" stroke="none" font-family="Consolas, Monaco, Cousine" font-size="14px" font-style="normal" font-weight="normal" text-decoration="normal" x="462" y="364" text-anchor="start" dominant-baseline="alphabetic">left</text><text fill="#cc3399" stroke="none" font-family="Consolas, Monaco, Cousine" font-size="14px" font-style="normal" font-weight="normal" text-decoration="normal" x="501" y="364" text-anchor="start" dominant-baseline="alphabetic">=</text><text fill="#000000" stroke="none" font-family="Consolas, Monaco, Cousine" font-size="14px" font-style="normal" font-weight="normal" text-decoration="normal" x="517" y="364" text-anchor="start" dominant-baseline="alphabetic">newNode</text><rect fill="rgb(0,0,0)" stroke="none" x="395" y="407" width="220" height="40" fill-opacity="0.3"/><rect fill="#ffffff" stroke="none" x="390" y="400" width="220" height="40"/><text fill="#003399" stroke="none" font-family="Consolas, Monaco, Cousine" font-size="14px" font-style="normal" font-weight="normal" text-decoration="normal" x="400" y="424" text-anchor="start" dominant-baseline="alphabetic">return</text><path fill="rgb(0,0,0)" stroke="none" paint-order="stroke fill markers" d=" M 653 307 L 673 287 L 857 287 L 877 307 L 857 327 L 673 327 Z" fill-opacity="0.3"/><path fill="#ffffff" stroke="none" paint-order="stroke fill markers" d=" M 648 300 L 668 280 L 852 280 L 872 300 L 852 320 L 668 320 Z"/><text fill="#000000" stroke="none" font-family="Consolas, Monaco, Cousine" font-size="14px" font-style="normal" font-weight="normal" text-decoration="normal" x="670" y="304" text-anchor="start" dominant-baseline="alphabetic">current</text><text fill="#cc3399" stroke="none" font-family="Consolas, Monaco, Cousine" font-size="14px" font-style="normal" font-weight="normal" text-decoration="normal" x="724" y="304" text-anchor="start" dominant-baseline="alphabetic">.</text><text fill="#000000" stroke="none" font-family="Consolas, Monaco, Cousine" font-size="14px" font-style="normal" font-weight="normal" text-decoration="normal" x="732" y="304" text-anchor="start" dominant-baseline="alphabetic">right</text><text fill="#cc3399" stroke="none" font-family="Consolas, Monaco, Cousine" font-size="14px" font-style="normal" font-weight="normal" text-decoration="normal" x="778" y="304" text-anchor="start" dominant-baseline="alphabetic">===</text><text fill="#003399" stroke="none" font-family="Consolas, Monaco, Cousine" font-size="14px" font-style="normal" font-weight="normal" text-decoration="normal" x="809" y="304" text-anchor="start" dominant-baseline="alphabetic">null</text><text fill="#000000" stroke="none" font-family="Consolas, Monaco, Cousine" font-size="14px" font-style="normal" font-weight="normal" text-decoration="normal" x="729.4" y="333" text-anchor="start" dominant-baseline="alphabetic">Yes</text><text fill="#000000" stroke="none" font-family="Consolas, Monaco, Cousine" font-size="14px" font-style="normal" font-weight="normal" text-decoration="normal" x="878" y="293" text-anchor="start" dominant-baseline="alphabetic">No</text><rect fill="rgb(0,0,0)" stroke="none" x="655" y="347" width="220" height="40" fill-opacity="0.3"/><rect fill="#ffffff" stroke="none" x="650" y="340" width="220" height="40"/><text fill="#000000" stroke="none" font-family="Consolas, Monaco, Cousine" font-size="14px" font-style="normal" font-weight="normal" text-decoration="normal" x="660" y="364" text-anchor="start" dominant-baseline="alphabetic">current</text><text fill="#cc3399" stroke="none" font-family="Consolas, Monaco, Cousine" font-size="14px" font-style="normal" font-weight="normal" text-decoration="normal" x="714" y="364" text-anchor="start" dominant-baseline="alphabetic">.</text><text fill="#000000" stroke="none" font-family="Consolas, Monaco, Cousine" font-size="14px" font-style="normal" font-weight="normal" text-decoration="normal" x="722" y="364" text-anchor="start" dominant-baseline="alphabetic">right</text><text fill="#cc3399" stroke="none" font-family="Consolas, Monaco, Cousine" font-size="14px" font-style="normal" font-weight="normal" text-decoration="normal" x="768" y="364" text-anchor="start" dominant-baseline="alphabetic">=</text><text fill="#000000" stroke="none" font-family="Consolas, Monaco, Cousine" font-size="14px" font-style="normal" font-weight="normal" text-decoration="normal" x="784" y="364" text-anchor="start" dominant-baseline="alphabetic">newNode</text><rect fill="rgb(0,0,0)" stroke="none" x="655" y="407" width="220" height="40" fill-opacity="0.3"/><rect fill="#ffffff" stroke="none" x="650" y="400" width="220" height="40"/><text fill="#003399" stroke="none" font-family="Consolas, Monaco, Cousine" font-size="14px" font-style="normal" font-weight="normal" text-decoration="normal" x="660" y="424" text-anchor="start" dominant-baseline="alphabetic">return</text><path fill="rgb(0,0,0)" stroke="none" paint-order="stroke fill markers" d=" M 115 27 A 20 20 0 0 1 115 -13 L 175 -13 L 175 -13 A 20 20 0 0 1 175 27 Z" fill-opacity="0.3"/><path fill="#ffffff" stroke="none" paint-order="stroke fill markers" d=" M 110 20 A 20 20 0 0 1 110 -20 L 170 -20 L 170 -20 A 20 20 0 0 1 170 20 Z"/><text fill="#000000" stroke="none" font-family="Consolas, Monaco, Cousine" font-size="18px" font-style="normal" font-weight="normal" text-decoration="normal" x="110" y="6" text-anchor="start" dominant-baseline="alphabetic">insert</text><rect fill="rgb(0,0,0)" stroke="none" x="215" y="-13" width="100" height="40" fill-opacity="0.3"/><rect fill="#ffffff" stroke="none" x="210" y="-20" width="100" height="40"/><text fill="#000000" stroke="none" font-family="Consolas, Monaco, Cousine" font-size="14px" font-style="normal" font-weight="normal" text-decoration="normal" x="220" y="4" text-anchor="start" dominant-baseline="alphabetic">tree,value</text><path fill="rgb(0,0,0)" stroke="none" paint-order="stroke fill markers" d=" M 25 587 L 145 567 L 265 587 L 265 627 L 25 627 Z" fill-opacity="0.3"/><path fill="#ffffff" stroke="none" paint-order="stroke fill markers" d=" M 20 580 L 140 560 L 260 580 L 260 620 L 20 620 Z"/><text fill="#000000" stroke="none" font-family="Consolas, Monaco, Cousine" font-size="14px" font-style="normal" font-weight="normal" text-decoration="normal" x="30" y="604" text-anchor="start" dominant-baseline="alphabetic">Branch2</text><path fill="rgb(0,0,0)" stroke="none" paint-order="stroke fill markers" d=" M 325 587 L 375 567 L 425 587 L 425 627 L 325 627 Z" fill-opacity="0.3"/><path fill="#ffffff" stroke="none" paint-order="stroke fill markers" d=" M 320 580 L 370 560 L 420 580 L 420 620 L 320 620 Z"/><text fill="#000000" stroke="none" font-family="Consolas, Monaco, Cousine" font-size="14px" font-style="normal" font-weight="normal" text-decoration="normal" x="330" y="604" text-anchor="start" dominant-baseline="alphabetic">Exit</text></g></g></svg>