<svg version="1.1" xmlns="http://www.w3.org/2000/svg" xmlns:xlink="http://www.w3.org/1999/xlink" width="1142" height="582"><defs/><g><rect fill="#202020" stroke="none" x="0" y="0" width="1142" height="582"/><g transform="scale(1,1) translate(42,40)"><rect fill="#dddd90" stroke="none" x="0" y="40" width="1" height="460"/><rect fill="#dddd90" stroke="none" x="129" y="90" width="2" height="70"/><rect fill="#dddd90" stroke="none" x="129" y="160" width="2" height="60"/><rect fill="#dddd90" stroke="none" x="129" y="300" width="2" height="60"/><path fill="none" stroke="#dddd90" paint-order="fill stroke markers" d=" M 130.5 300.5 L 260.5 300.5" stroke-linecap="round" stroke-miterlimit="10"/><rect fill="#dddd90" stroke="none" x="260" y="300" width="1" height="100"/><rect fill="#dddd90" stroke="none" x="129" y="360" width="2" height="40"/><rect fill="#dddd90" stroke="none" x="129" y="400" width="2" height="50"/><path fill="none" stroke="#dddd90" paint-order="fill stroke markers" d=" M 130.5 400.5 L 260.5 400.5" stroke-linecap="round" stroke-miterlimit="10"/><path fill="none" stroke="#dddd90" paint-order="fill stroke markers" d=" M 130.5 160.5 L 260.5 160.5" stroke-linecap="round" stroke-miterlimit="10"/><rect fill="#dddd90" stroke="none" x="260" y="160" width="1" height="100"/><rect fill="#dddd90" stroke="none" x="129" y="220" width="2" height="40"/><rect fill="#dddd90" stroke="none" x="129" y="260" width="2" height="40"/><path fill="none" stroke="#dddd90" paint-order="fill stroke markers" d=" M 130.5 260.5 L 260.5 260.5" stroke-linecap="round" stroke-miterlimit="10"/><path fill="none" stroke="#dddd90" paint-order="fill stroke markers" d=" M 0.5 40.5 L 129.5 40.5" stroke-linecap="round" stroke-miterlimit="10"/><g transform="translate(0.5,40.5) rotate(180,0,0)"/><g transform="translate(129.5,40.5) rotate(0,0,0)"><path fill="#dddd90" stroke="#dddd90" paint-order="fill stroke markers" d=" M -20 -6 L 0 0 L -20 6 Z" stroke-linecap="round" stroke-linejoin="round" stroke-miterlimit="10"/></g><rect fill="#dddd90" stroke="none" x="129" y="40" width="2" height="50"/><path fill="none" stroke="#dddd90" paint-order="fill stroke markers" d=" M 0.5 500.5 L 130.5 500.5" stroke-linecap="round" stroke-miterlimit="10"/><rect fill="#dddd90" stroke="none" x="129" y="450" width="2" height="50"/><rect fill="#dddd90" stroke="none" x="449" y="90" width="2" height="210"/><rect fill="#dddd90" stroke="none" x="449" y="300" width="2" height="60"/><path fill="none" stroke="#dddd90" paint-order="fill stroke markers" d=" M 450.5 300.5 L 780.5 300.5" stroke-linecap="round" stroke-miterlimit="10"/><rect fill="#dddd90" stroke="none" x="780" y="300" width="1" height="60"/><rect fill="#dddd90" stroke="none" x="780" y="360" width="1" height="40"/><rect fill="#dddd90" stroke="none" x="449" y="360" width="2" height="40"/><rect fill="#dddd90" stroke="none" x="449" y="400" width="2" height="50"/><path fill="none" stroke="#dddd90" paint-order="fill stroke markers" d=" M 450.5 400.5 L 780.5 400.5" stroke-linecap="round" stroke-miterlimit="10"/><path fill="none" stroke="#dddd90" paint-order="fill stroke markers" d=" M 130.5 40.5 L 450.5 40.5" stroke-linecap="round" stroke-miterlimit="10"/><rect fill="#dddd90" stroke="none" x="449" y="40" width="2" height="50"/><path fill="none" stroke="#dddd90" paint-order="fill stroke markers" d=" M 130.5 500.5 L 450.5 500.5" stroke-linecap="round" stroke-miterlimit="10"/><rect fill="#dddd90" stroke="none" x="449" y="450" width="2" height="50"/><rect fill="#dddd90" stroke="none" x="1029" y="90" width="2" height="70"/><path fill="none" stroke="#dddd90" paint-order="fill stroke markers" d=" M 450.5 40.5 L 1030.5 40.5" stroke-linecap="round" stroke-miterlimit="10"/><rect fill="#dddd90" stroke="none" x="1029" y="40" width="2" height="50"/><rect fill="#dddd90" stroke="none" x="129" y="0" width="2" height="40"/><path fill="none" stroke="#dddd90" paint-order="fill stroke markers" d=" M 130.5 0.5 L 280.5 0.5" stroke-linecap="round" stroke-miterlimit="10"/><path fill="#000000" stroke="none" paint-order="stroke fill markers" d=" M 1000 180 A 20 20 0 0 1 1000 140 L 1060 140 L 1060 140 A 20 20 0 0 1 1060 180 Z"/><path fill="none" stroke="#98984D" paint-order="fill stroke markers" d=" M 1000.5 180.5 A 20 20 0 0 1 1000.5 140.5 L 1060.5 140.5 L 1060.5 140.5 A 20 20 0 0 1 1060.5 180.5 Z" stroke-linecap="round" stroke-miterlimit="10"/><text fill="#ffffcc" stroke="none" font-family="Consolas, Monaco, Cousine" font-size="14px" font-style="normal" font-weight="normal" text-decoration="normal" x="1017" y="164" text-anchor="start" dominant-baseline="alphabetic">End</text><path fill="#000000" stroke="none" paint-order="stroke fill markers" d=" M 20 60 L 240 60 L 240 100 L 130 120 L 20 100 Z"/><path fill="none" stroke="#98984D" paint-order="fill stroke markers" d=" M 20.5 60.5 L 240.5 60.5 L 240.5 100.5 L 130.5 120.5 L 20.5 100.5 Z" stroke-linecap="round" stroke-miterlimit="10"/><text fill="#ffffcc" stroke="none" font-family="Consolas, Monaco, Cousine" font-size="14px" font-style="normal" font-weight="normal" text-decoration="normal" x="30" y="84" text-anchor="start" dominant-baseline="alphabetic">Absence</text><text fill="#ffffcc" stroke="none" font-family="Consolas, Monaco, Cousine" font-size="14px" font-style="normal" font-weight="normal" text-decoration="normal" x="97" y="84" text-anchor="start" dominant-baseline="alphabetic">or</text><text fill="#ffffcc" stroke="none" font-family="Consolas, Monaco, Cousine" font-size="14px" font-style="normal" font-weight="normal" text-decoration="normal" x="122" y="84" text-anchor="start" dominant-baseline="alphabetic">equality</text><path fill="#000000" stroke="none" paint-order="stroke fill markers" d=" M 18 160 L 38 140 L 222 140 L 242 160 L 222 180 L 38 180 Z"/><path fill="none" stroke="#98984D" paint-order="fill stroke markers" d=" M 18.5 160.5 L 38.5 140.5 L 222.5 140.5 L 242.5 160.5 L 222.5 180.5 L 38.5 180.5 Z" stroke-linecap="round" stroke-miterlimit="10"/><text fill="#ffffcc" stroke="none" font-family="Consolas, Monaco, Cousine" font-size="14px" font-style="normal" font-weight="normal" text-decoration="normal" x="40" y="164" text-anchor="start" dominant-baseline="alphabetic">node</text><text fill="#95DCFC" stroke="none" font-family="Consolas, Monaco, Cousine" font-size="14px" font-style="normal" font-weight="normal" text-decoration="normal" x="82" y="164" text-anchor="start" dominant-baseline="alphabetic">===</text><text fill="#80ff80" stroke="none" font-family="Consolas, Monaco, Cousine" font-size="14px" font-style="normal" font-weight="normal" text-decoration="normal" x="115" y="164" text-anchor="start" dominant-baseline="alphabetic">null</text><text fill="#ffffcc" stroke="none" font-family="Consolas, Monaco, Cousine" font-size="14px" font-style="normal" font-weight="normal" text-decoration="normal" x="97" y="193" text-anchor="start" dominant-baseline="alphabetic">Yes</text><text fill="#ffffcc" stroke="none" font-family="Consolas, Monaco, Cousine" font-size="14px" font-style="normal" font-weight="normal" text-decoration="normal" x="248" y="153" text-anchor="start" dominant-baseline="alphabetic">No</text><rect fill="#000000" stroke="none" x="20" y="200" width="220" height="40"/><rect fill="none" stroke="#98984D" x="20.5" y="200.5" width="220" height="40" stroke-linecap="round" stroke-miterlimit="10"/><text fill="#80ff80" stroke="none" font-family="Consolas, Monaco, Cousine" font-size="14px" font-style="normal" font-weight="normal" text-decoration="normal" x="30" y="224" text-anchor="start" dominant-baseline="alphabetic">return</text><text fill="#80ff80" stroke="none" font-family="Consolas, Monaco, Cousine" font-size="14px" font-style="normal" font-weight="normal" text-decoration="normal" x="88" y="224" text-anchor="start" dominant-baseline="alphabetic">null</text><path fill="#000000" stroke="none" paint-order="stroke fill markers" d=" M 18 300 L 38 280 L 222 280 L 242 300 L 222 320 L 38 320 Z"/><path fill="none" stroke="#98984D" paint-order="fill stroke markers" d=" M 18.5 300.5 L 38.5 280.5 L 222.5 280.5 L 242.5 300.5 L 222.5 320.5 L 38.5 320.5 Z" stroke-linecap="round" stroke-miterlimit="10"/><text fill="#ffffcc" stroke="none" font-family="Consolas, Monaco, Cousine" font-size="14px" font-style="normal" font-weight="normal" text-decoration="normal" x="40" y="304" text-anchor="start" dominant-baseline="alphabetic">value</text><text fill="#95DCFC" stroke="none" font-family="Consolas, Monaco, Cousine" font-size="14px" font-style="normal" font-weight="normal" text-decoration="normal" x="90" y="304" text-anchor="start" dominant-baseline="alphabetic">===</text><text fill="#ffffcc" stroke="none" font-family="Consolas, Monaco, Cousine" font-size="14px" font-style="normal" font-weight="normal" text-decoration="normal" x="123" y="304" text-anchor="start" dominant-baseline="alphabetic">node</text><text fill="#95DCFC" stroke="none" font-family="Consolas, Monaco, Cousine" font-size="14px" font-style="normal" font-weight="normal" text-decoration="normal" x="157" y="304" text-anchor="start" dominant-baseline="alphabetic">.</text><text fill="#ffffcc" stroke="none" font-family="Consolas, Monaco, Cousine" font-size="14px" font-style="normal" font-weight="normal" text-decoration="normal" x="165" y="304" text-anchor="start" dominant-baseline="alphabetic">value</text><text fill="#ffffcc" stroke="none" font-family="Consolas, Monaco, Cousine" font-size="14px" font-style="normal" font-weight="normal" text-decoration="normal" x="97" y="333" text-anchor="start" dominant-baseline="alphabetic">Yes</text><text fill="#ffffcc" stroke="none" font-family="Consolas, Monaco, Cousine" font-size="14px" font-style="normal" font-weight="normal" text-decoration="normal" x="248" y="293" text-anchor="start" dominant-baseline="alphabetic">No</text><rect fill="#000000" stroke="none" x="20" y="340" width="220" height="40"/><rect fill="none" stroke="#98984D" x="20.5" y="340.5" width="220" height="40" stroke-linecap="round" stroke-miterlimit="10"/><text fill="#80ff80" stroke="none" font-family="Consolas, Monaco, Cousine" font-size="14px" font-style="normal" font-weight="normal" text-decoration="normal" x="30" y="364" text-anchor="start" dominant-baseline="alphabetic">return</text><text fill="#ffffcc" stroke="none" font-family="Consolas, Monaco, Cousine" font-size="14px" font-style="normal" font-weight="normal" text-decoration="normal" x="88" y="364" text-anchor="start" dominant-baseline="alphabetic">node</text><path fill="#000000" stroke="none" paint-order="stroke fill markers" d=" M 980 60 L 1080 60 L 1080 100 L 1030 120 L 980 100 Z"/><path fill="none" stroke="#98984D" paint-order="fill stroke markers" d=" M 980.5 60.5 L 1080.5 60.5 L 1080.5 100.5 L 1030.5 120.5 L 980.5 100.5 Z" stroke-linecap="round" stroke-miterlimit="10"/><text fill="#ffffcc" stroke="none" font-family="Consolas, Monaco, Cousine" font-size="14px" font-style="normal" font-weight="normal" text-decoration="normal" x="990" y="84" text-anchor="start" dominant-baseline="alphabetic">Exit</text><path fill="#000000" stroke="none" paint-order="stroke fill markers" d=" M 300 60 L 600 60 L 600 100 L 450 120 L 300 100 Z"/><path fill="none" stroke="#98984D" paint-order="fill stroke markers" d=" M 300.5 60.5 L 600.5 60.5 L 600.5 100.5 L 450.5 120.5 L 300.5 100.5 Z" stroke-linecap="round" stroke-miterlimit="10"/><text fill="#ffffcc" stroke="none" font-family="Consolas, Monaco, Cousine" font-size="14px" font-style="normal" font-weight="normal" text-decoration="normal" x="310" y="84" text-anchor="start" dominant-baseline="alphabetic">Left</text><text fill="#ffffcc" stroke="none" font-family="Consolas, Monaco, Cousine" font-size="14px" font-style="normal" font-weight="normal" text-decoration="normal" x="352" y="84" text-anchor="start" dominant-baseline="alphabetic">or</text><text fill="#ffffcc" stroke="none" font-family="Consolas, Monaco, Cousine" font-size="14px" font-style="normal" font-weight="normal" text-decoration="normal" x="377" y="84" text-anchor="start" dominant-baseline="alphabetic">Right</text><path fill="#000000" stroke="none" paint-order="stroke fill markers" d=" M 298 300 L 318 280 L 582 280 L 602 300 L 582 320 L 318 320 Z"/><path fill="none" stroke="#98984D" paint-order="fill stroke markers" d=" M 298.5 300.5 L 318.5 280.5 L 582.5 280.5 L 602.5 300.5 L 582.5 320.5 L 318.5 320.5 Z" stroke-linecap="round" stroke-miterlimit="10"/><text fill="#ffffcc" stroke="none" font-family="Consolas, Monaco, Cousine" font-size="14px" font-style="normal" font-weight="normal" text-decoration="normal" x="320" y="304" text-anchor="start" dominant-baseline="alphabetic">value</text><text fill="#95DCFC" stroke="none" font-family="Consolas, Monaco, Cousine" font-size="14px" font-style="normal" font-weight="normal" text-decoration="normal" x="370" y="304" text-anchor="start" dominant-baseline="alphabetic">&lt;</text><text fill="#ffffcc" stroke="none" font-family="Consolas, Monaco, Cousine" font-size="14px" font-style="normal" font-weight="normal" text-decoration="normal" x="386" y="304" text-anchor="start" dominant-baseline="alphabetic">node</text><text fill="#95DCFC" stroke="none" font-family="Consolas, Monaco, Cousine" font-size="14px" font-style="normal" font-weight="normal" text-decoration="normal" x="420" y="304" text-anchor="start" dominant-baseline="alphabetic">.</text><text fill="#ffffcc" stroke="none" font-family="Consolas, Monaco, Cousine" font-size="14px" font-style="normal" font-weight="normal" text-decoration="normal" x="428" y="304" text-anchor="start" dominant-baseline="alphabetic">value</text><text fill="#ffffcc" stroke="none" font-family="Consolas, Monaco, Cousine" font-size="14px" font-style="normal" font-weight="normal" text-decoration="normal" x="417" y="333" text-anchor="start" dominant-baseline="alphabetic">Yes</text><text fill="#ffffcc" stroke="none" font-family="Consolas, Monaco, Cousine" font-size="14px" font-style="normal" font-weight="normal" text-decoration="normal" x="608" y="293" text-anchor="start" dominant-baseline="alphabetic">No</text><rect fill="#000000" stroke="none" x="300" y="340" width="300" height="40"/><rect fill="none" stroke="#98984D" x="300.5" y="340.5" width="300" height="40" stroke-linecap="round" stroke-miterlimit="10"/><text fill="#80ff80" stroke="none" font-family="Consolas, Monaco, Cousine" font-size="14px" font-style="normal" font-weight="normal" text-decoration="normal" x="310" y="364" text-anchor="start" dominant-baseline="alphabetic">return</text><text fill="#ffffcc" stroke="none" font-family="Consolas, Monaco, Cousine" font-size="14px" font-style="normal" font-weight="normal" text-decoration="normal" x="368" y="364" text-anchor="start" dominant-baseline="alphabetic">findNode</text><text fill="#95DCFC" stroke="none" font-family="Consolas, Monaco, Cousine" font-size="14px" font-style="normal" font-weight="normal" text-decoration="normal" x="435" y="364" text-anchor="start" dominant-baseline="alphabetic">(</text><text fill="#ffffcc" stroke="none" font-family="Consolas, Monaco, Cousine" font-size="14px" font-style="normal" font-weight="normal" text-decoration="normal" x="443" y="364" text-anchor="start" dominant-baseline="alphabetic">node</text><text fill="#95DCFC" stroke="none" font-family="Consolas, Monaco, Cousine" font-size="14px" font-style="normal" font-weight="normal" text-decoration="normal" x="477" y="364" text-anchor="start" dominant-baseline="alphabetic">.</text><text fill="#ffffcc" stroke="none" font-family="Consolas, Monaco, Cousine" font-size="14px" font-style="normal" font-weight="normal" text-decoration="normal" x="485" y="364" text-anchor="start" dominant-baseline="alphabetic">left</text><text fill="#95DCFC" stroke="none" font-family="Consolas, Monaco, Cousine" font-size="14px" font-style="normal" font-weight="normal" text-decoration="normal" x="519" y="364" text-anchor="start" dominant-baseline="alphabetic">,</text><text fill="#ffffcc" stroke="none" font-family="Consolas, Monaco, Cousine" font-size="14px" font-style="normal" font-weight="normal" text-decoration="normal" x="535" y="364" text-anchor="start" dominant-baseline="alphabetic">value</text><text fill="#95DCFC" stroke="none" font-family="Consolas, Monaco, Cousine" font-size="14px" font-style="normal" font-weight="normal" text-decoration="normal" x="577" y="364" text-anchor="start" dominant-baseline="alphabetic">)</text><rect fill="#000000" stroke="none" x="620" y="340" width="320" height="40"/><rect fill="none" stroke="#98984D" x="620.5" y="340.5" width="320" height="40" stroke-linecap="round" stroke-miterlimit="10"/><text fill="#80ff80" stroke="none" font-family="Consolas, Monaco, Cousine" font-size="14px" font-style="normal" font-weight="normal" text-decoration="normal" x="630" y="364" text-anchor="start" dominant-baseline="alphabetic">return</text><text fill="#ffffcc" stroke="none" font-family="Consolas, Monaco, Cousine" font-size="14px" font-style="normal" font-weight="normal" text-decoration="normal" x="688" y="364" text-anchor="start" dominant-baseline="alphabetic">findNode</text><text fill="#95DCFC" stroke="none" font-family="Consolas, Monaco, Cousine" font-size="14px" font-style="normal" font-weight="normal" text-decoration="normal" x="755" y="364" text-anchor="start" dominant-baseline="alphabetic">(</text><text fill="#ffffcc" stroke="none" font-family="Consolas, Monaco, Cousine" font-size="14px" font-style="normal" font-weight="normal" text-decoration="normal" x="763" y="364" text-anchor="start" dominant-baseline="alphabetic">node</text><text fill="#95DCFC" stroke="none" font-family="Consolas, Monaco, Cousine" font-size="14px" font-style="normal" font-weight="normal" text-decoration="normal" x="797" y="364" text-anchor="start" dominant-baseline="alphabetic">.</text><text fill="#ffffcc" stroke="none" font-family="Consolas, Monaco, Cousine" font-size="14px" font-style="normal" font-weight="normal" text-decoration="normal" x="805" y="364" text-anchor="start" dominant-baseline="alphabetic">right</text><text fill="#95DCFC" stroke="none" font-family="Consolas, Monaco, Cousine" font-size="14px" font-style="normal" font-weight="normal" text-decoration="normal" x="847" y="364" text-anchor="start" dominant-baseline="alphabetic">,</text><text fill="#ffffcc" stroke="none" font-family="Consolas, Monaco, Cousine" font-size="14px" font-style="normal" font-weight="normal" text-decoration="normal" x="863" y="364" text-anchor="start" dominant-baseline="alphabetic">value</text><text fill="#95DCFC" stroke="none" font-family="Consolas, Monaco, Cousine" font-size="14px" font-style="normal" font-weight="normal" text-decoration="normal" x="905" y="364" text-anchor="start" dominant-baseline="alphabetic">)</text><path fill="#000000" stroke="none" paint-order="stroke fill markers" d=" M 80 20 A 20 20 0 0 1 80 -20 L 180 -20 L 180 -20 A 20 20 0 0 1 180 20 Z"/><path fill="none" stroke="#98984D" paint-order="fill stroke markers" d=" M 80.5 20.5 A 20 20 0 0 1 80.5 -19.5 L 180.5 -19.5 L 180.5 -19.5 A 20 20 0 0 1 180.5 20.5 Z" stroke-linecap="round" stroke-miterlimit="10"/><text fill="#ffffcc" stroke="none" font-family="Consolas, Monaco, Cousine" font-size="18px" font-style="normal" font-weight="normal" text-decoration="normal" x="87" y="6" text-anchor="start" dominant-baseline="alphabetic">findNode</text><rect fill="#000000" stroke="none" x="220" y="-20" width="120" height="40"/><rect fill="none" stroke="#98984D" x="220.5" y="-19.5" width="120" height="40" stroke-linecap="round" stroke-miterlimit="10"/><text fill="#ffffcc" stroke="none" font-family="Consolas, Monaco, Cousine" font-size="14px" font-style="normal" font-weight="normal" text-decoration="normal" x="230" y="4" text-anchor="start" dominant-baseline="alphabetic">node,</text><text fill="#ffffcc" stroke="none" font-family="Consolas, Monaco, Cousine" font-size="14px" font-style="normal" font-weight="normal" text-decoration="normal" x="280" y="4" text-anchor="start" dominant-baseline="alphabetic">value</text><path fill="#000000" stroke="none" paint-order="stroke fill markers" d=" M 20 440 L 130 420 L 240 440 L 240 480 L 20 480 Z"/><path fill="none" stroke="#98984D" paint-order="fill stroke markers" d=" M 20.5 440.5 L 130.5 420.5 L 240.5 440.5 L 240.5 480.5 L 20.5 480.5 Z" stroke-linecap="round" stroke-miterlimit="10"/><text fill="#ffffcc" stroke="none" font-family="Consolas, Monaco, Cousine" font-size="14px" font-style="normal" font-weight="normal" text-decoration="normal" x="30" y="464" text-anchor="start" dominant-baseline="alphabetic">Left</text><text fill="#ffffcc" stroke="none" font-family="Consolas, Monaco, Cousine" font-size="14px" font-style="normal" font-weight="normal" text-decoration="normal" x="72" y="464" text-anchor="start" dominant-baseline="alphabetic">or</text><text fill="#ffffcc" stroke="none" font-family="Consolas, Monaco, Cousine" font-size="14px" font-style="normal" font-weight="normal" text-decoration="normal" x="97" y="464" text-anchor="start" dominant-baseline="alphabetic">Right</text><path fill="#000000" stroke="none" paint-order="stroke fill markers" d=" M 300 440 L 450 420 L 600 440 L 600 480 L 300 480 Z"/><path fill="none" stroke="#98984D" paint-order="fill stroke markers" d=" M 300.5 440.5 L 450.5 420.5 L 600.5 440.5 L 600.5 480.5 L 300.5 480.5 Z" stroke-linecap="round" stroke-miterlimit="10"/><text fill="#ffffcc" stroke="none" font-family="Consolas, Monaco, Cousine" font-size="14px" font-style="normal" font-weight="normal" text-decoration="normal" x="310" y="464" text-anchor="start" dominant-baseline="alphabetic">Exit</text></g></g></svg>