<?xml version="1.0" standalone="no"?>
<!DOCTYPE svg PUBLIC "-//W3C//DTD SVG 20010904//EN"
 "http://www.w3.org/TR/2001/REC-SVG-20010904/DTD/svg10.dtd">
<svg version="1.0" xmlns="http://www.w3.org/2000/svg"
 width="2800.000000pt" height="1060.000000pt" viewBox="0 0 2800.000000 1060.000000"
 preserveAspectRatio="xMidYMid meet">

<g transform="translate(0.000000,1060.000000) scale(0.100000,-0.100000)"
fill="#000000" stroke="none">
<path d="M8905 10186 c-37 -17 -80 -62 -94 -99 -7 -19 -11 -190 -11 -497 0
-307 4 -478 11 -497 14 -38 57 -83 96 -99 27 -12 255 -14 1363 -14 l1330 0 0
-290 0 -290 -3100 0 -3100 0 0 -290 0 -290 -2035 0 c-1809 0 -2040 -2 -2072
-15 -50 -21 -72 -42 -94 -90 -17 -37 -19 -75 -19 -515 0 -440 2 -478 19 -515
22 -48 44 -69 94 -90 32 -13 466 -15 4109 -15 3931 0 4074 1 4113 19 48 22 69
44 90 94 13 31 15 106 15 509 0 438 -2 476 -19 513 -22 48 -44 69 -94 90 -32
13 -262 15 -2062 15 l-2025 0 0 280 0 280 5690 0 5690 0 0 -280 0 -280 -1237
0 c-1180 0 -1240 -1 -1278 -19 -48 -22 -69 -44 -90 -94 -23 -55 -23 -959 0
-1014 21 -50 42 -72 90 -94 39 -18 145 -19 2878 -19 l2837 0 0 -190 0 -190
-1200 0 -1200 0 0 -200 0 -200 -730 0 c-598 0 -736 -2 -763 -14 -39 -16 -82
-61 -96 -99 -7 -19 -11 -190 -11 -498 0 -377 3 -476 14 -502 16 -39 61 -82 99
-96 19 -8 267 -11 758 -11 l729 0 0 -190 0 -190 -2000 0 -2000 0 0 -200 0
-200 -629 0 c-421 0 -639 -4 -658 -11 -38 -14 -83 -57 -99 -96 -11 -26 -14
-126 -14 -503 0 -377 3 -477 14 -503 16 -39 61 -82 99 -96 19 -8 267 -11 758
-11 l729 0 0 -190 0 -190 -700 0 -700 0 0 -300 0 -300 -222 0 c-261 0 -324
-10 -446 -70 -158 -79 -280 -237 -317 -415 -56 -268 76 -546 317 -665 137 -67
163 -70 684 -70 426 0 467 1 538 20 224 57 389 222 446 446 69 269 -65 562
-312 684 -122 60 -185 70 -445 70 l-223 0 0 290 0 290 1190 0 1190 0 0 -290 0
-290 -222 0 c-261 0 -324 -10 -446 -70 -158 -79 -280 -237 -317 -415 -56 -268
76 -546 317 -665 137 -67 163 -70 684 -70 426 0 467 1 538 20 224 57 389 222
446 446 69 269 -65 562 -312 684 -122 60 -185 70 -445 70 l-223 0 0 300 0 300
-500 0 -500 0 0 190 0 190 729 0 c491 0 739 3 758 11 38 14 83 57 99 96 20 47
20 959 0 1006 -16 39 -61 82 -99 96 -19 8 -296 11 -858 11 l-829 0 0 190 0
190 3290 0 3290 0 0 -190 0 -190 -730 0 c-598 0 -736 -2 -763 -14 -39 -16 -82
-61 -96 -99 -7 -19 -11 -190 -11 -498 0 -377 3 -476 14 -502 16 -39 61 -82 99
-96 19 -8 267 -11 758 -11 l729 0 0 -190 0 -190 -1200 0 -1200 0 0 -300 0
-300 -522 0 c-590 0 -607 -2 -746 -70 -158 -79 -280 -237 -317 -415 -56 -268
76 -546 317 -665 144 -71 132 -70 978 -70 846 0 834 -1 978 70 158 79 280 237
317 415 56 268 -76 546 -317 665 -122 60 -185 70 -445 70 l-223 0 0 290 0 290
1190 0 1190 0 0 -290 0 -290 -222 0 c-261 0 -324 -10 -446 -70 -158 -79 -280
-237 -317 -415 -56 -268 76 -546 317 -665 137 -67 163 -70 678 -70 515 0 541
3 678 70 158 79 280 237 317 415 56 268 -76 546 -317 665 -122 60 -185 70
-445 70 l-223 0 0 290 0 290 1190 0 1190 0 0 -290 0 -290 -222 0 c-261 0 -324
-10 -446 -70 -158 -79 -280 -237 -317 -415 -56 -268 76 -546 317 -665 137 -67
163 -70 678 -70 515 0 541 3 678 70 158 79 280 237 317 415 56 268 -76 546
-317 665 -122 60 -185 70 -445 70 l-223 0 0 300 0 300 -1200 0 -1200 0 0 190
0 190 729 0 c491 0 739 3 758 11 38 14 83 57 99 96 20 47 20 959 0 1006 -16
39 -61 82 -99 96 -19 8 -267 11 -758 11 l-729 0 0 200 0 200 -1300 0 -1300 0
0 190 0 190 729 0 c491 0 739 3 758 11 38 14 83 57 99 96 20 47 20 959 0 1006
-16 39 -61 82 -99 96 -19 8 -267 11 -758 11 l-729 0 0 190 0 190 3990 0 3990
0 0 -190 0 -190 -929 0 c-633 0 -939 -3 -958 -11 -38 -14 -83 -57 -99 -96 -20
-47 -20 -959 0 -1006 16 -39 61 -82 99 -96 19 -8 325 -11 958 -11 l929 0 0
-190 0 -190 -700 0 -700 0 0 -200 0 -200 -270 0 c-156 0 -291 -5 -322 -11
-231 -48 -408 -264 -408 -499 0 -235 177 -451 408 -499 73 -15 1131 -15 1204
0 231 48 408 264 408 499 0 235 -177 451 -408 499 -31 6 -166 11 -322 11
l-270 0 0 190 0 190 1190 0 1190 0 0 -190 0 -190 -270 0 c-156 0 -291 -5 -322
-11 -231 -48 -408 -264 -408 -499 0 -235 177 -451 408 -499 73 -15 1131 -15
1204 0 231 48 408 264 408 499 0 235 -177 451 -408 499 -31 6 -166 11 -322 11
l-270 0 0 200 0 200 -500 0 -500 0 0 190 0 190 929 0 c633 0 939 3 958 11 38
14 83 57 99 96 20 47 20 959 0 1006 -16 39 -61 82 -99 96 -19 8 -325 11 -958
11 l-929 0 0 200 0 200 -2800 0 -2800 0 0 190 0 190 2728 0 c2625 0 2728 1
2767 19 48 22 69 44 90 94 23 55 23 959 0 1014 -21 50 -42 72 -90 94 -39 18
-190 19 -4367 19 l-4328 0 0 290 0 290 -2600 0 -2600 0 0 290 0 290 1129 0
c774 0 1139 3 1158 11 38 14 83 57 99 96 20 47 20 959 0 1006 -16 39 -61 82
-99 96 -20 8 -777 11 -2500 11 -2043 -1 -2477 -3 -2502 -14z m5015 -25 c19
-10 45 -36 57 -57 23 -39 23 -41 23 -514 0 -473 0 -475 -23 -514 -12 -21 -38
-47 -57 -57 -34 -18 -119 -19 -2510 -19 l-2475 0 -39 23 c-78 44 -76 32 -76
565 0 454 1 474 20 512 12 24 35 47 58 59 37 20 68 20 2512 21 2392 0 2476 -1
2510 -19z m-8520 -2481 c0 -60 4 -100 10 -100 6 0 10 40 10 100 l0 100 2028 0
c2005 0 2027 0 2060 -20 18 -11 41 -34 52 -52 19 -32 20 -52 20 -508 0 -456
-1 -476 -20 -508 -11 -18 -34 -41 -52 -52 -33 -20 -59 -20 -4108 -20 -4049 0
-4075 0 -4108 20 -18 11 -41 34 -52 52 -19 32 -20 52 -20 508 0 456 1 476 20
508 11 18 34 41 52 52 33 20 55 20 2071 20 l2037 0 0 -100z m20108 80 c18 -11
41 -34 52 -52 19 -32 20 -52 20 -508 0 -456 -1 -476 -20 -508 -11 -18 -34 -41
-52 -52 -33 -20 -63 -20 -5608 -20 -5545 0 -5575 0 -5608 20 -18 11 -41 34
-52 52 -19 32 -20 52 -20 508 0 456 1 476 20 508 11 18 34 41 52 52 33 20 63
20 5608 20 5545 0 5575 0 5608 -20z m-6388 -1999 c19 -10 45 -36 57 -57 23
-39 23 -41 23 -514 0 -473 0 -475 -23 -514 -12 -21 -38 -47 -57 -57 -33 -18
-92 -19 -1510 -19 l-1475 0 -39 23 c-78 44 -76 32 -76 565 0 454 1 474 20 512
12 24 35 47 58 59 36 20 63 20 1512 21 1418 0 1477 -1 1510 -19z m8400 0 c19
-10 45 -36 57 -57 23 -39 23 -41 23 -514 0 -473 0 -475 -23 -514 -12 -21 -38
-47 -57 -57 -33 -18 -103 -19 -1910 -19 l-1875 0 -39 23 c-78 44 -76 32 -76
565 0 454 1 474 20 512 12 24 35 47 58 59 36 20 65 20 1912 21 1807 0 1877 -1
1910 -19z m-12204 -1997 c19 -9 44 -31 57 -48 22 -31 22 -33 25 -513 2 -469 2
-484 -18 -523 -13 -26 -34 -47 -60 -60 -39 -20 -56 -20 -1510 -20 -1454 0
-1471 0 -1510 20 -26 13 -47 34 -60 60 -19 38 -20 58 -20 512 0 533 -2 521 76
565 l39 23 1473 0 c1339 0 1477 -1 1508 -16z m6400 0 c19 -9 44 -31 57 -48 22
-31 22 -33 25 -513 2 -469 2 -484 -18 -523 -13 -26 -34 -47 -60 -60 -39 -20
-56 -20 -1510 -20 -1454 0 -1471 0 -1510 20 -26 13 -47 34 -60 60 -19 38 -20
58 -20 512 0 533 -2 521 76 565 l39 23 1473 0 c1339 0 1477 -1 1508 -16z
m3107 1 c182 -47 315 -179 362 -361 66 -256 -96 -520 -361 -589 -86 -22 -1142
-22 -1228 0 -183 48 -313 178 -361 361 -66 252 96 518 358 589 79 21 1148 21
1230 0z m2400 0 c182 -47 315 -179 362 -361 66 -256 -96 -520 -361 -589 -86
-22 -1142 -22 -1228 0 -183 48 -313 178 -361 361 -66 252 96 518 358 589 79
21 1148 21 1230 0z m-14288 -2200 c265 -55 465 -303 465 -575 0 -272 -200
-520 -465 -575 -102 -21 -948 -21 -1050 0 -265 55 -465 303 -465 575 0 270
200 519 460 574 97 21 956 22 1055 1z m2400 0 c265 -55 465 -303 465 -575 0
-272 -200 -520 -465 -575 -102 -21 -948 -21 -1050 0 -265 55 -465 303 -465
575 0 270 200 519 460 574 97 21 956 22 1055 1z m3000 0 c265 -55 465 -303
465 -575 0 -272 -200 -520 -465 -575 -104 -22 -1546 -22 -1650 0 -265 55 -465
303 -465 575 0 270 200 519 460 574 98 22 1554 22 1655 1z m2400 0 c265 -55
465 -303 465 -575 0 -272 -200 -520 -465 -575 -102 -21 -948 -21 -1050 0 -265
55 -465 303 -465 575 0 270 200 519 460 574 97 21 956 22 1055 1z m2400 0
c265 -55 465 -303 465 -575 0 -272 -200 -520 -465 -575 -102 -21 -948 -21
-1050 0 -265 55 -465 303 -465 575 0 270 200 519 460 574 97 21 956 22 1055 1z"/>
<path d="M10925 9823 c-64 -17 -96 -77 -71 -136 16 -40 47 -59 126 -77 99 -23
126 -46 114 -96 -8 -32 -52 -54 -106 -54 -48 0 -108 31 -108 56 0 11 -6 14
-22 8 -32 -9 -33 -11 -17 -41 39 -73 216 -85 278 -19 12 13 25 42 28 63 8 63
-27 96 -132 124 -94 24 -110 33 -120 66 -4 17 1 30 20 49 24 24 32 26 82 22
45 -4 61 -10 77 -30 15 -18 27 -23 43 -19 20 5 21 8 10 31 -24 48 -121 73
-202 53z"/>
<path d="M9510 9624 l0 -196 103 4 c85 3 108 7 140 27 54 33 81 90 81 171 0
136 -66 189 -236 190 l-88 0 0 -196z m199 138 c54 -27 74 -62 74 -129 0 -111
-51 -163 -160 -163 l-63 0 0 155 0 155 58 0 c34 0 70 -7 91 -18z"/>
<path d="M10226 9765 c-5 -26 -12 -35 -26 -35 -13 0 -20 -7 -20 -20 0 -13 7
-20 20 -20 19 0 20 -7 20 -118 0 -136 10 -156 71 -150 44 4 53 35 12 40 l-28
3 -3 113 -3 112 26 0 c18 0 25 5 25 20 0 15 -7 20 -25 20 -22 0 -25 4 -25 35
0 28 -4 35 -19 35 -14 0 -21 -10 -25 -35z"/>
<path d="M11226 9765 c-5 -26 -12 -35 -26 -35 -13 0 -20 -7 -20 -20 0 -13 7
-20 20 -20 19 0 20 -7 20 -119 0 -135 7 -151 66 -151 27 0 34 4 34 20 0 13 -7
20 -20 20 -31 0 -40 31 -40 134 l0 96 30 0 c23 0 30 4 30 20 0 16 -7 20 -30
20 -28 0 -30 3 -30 35 0 23 -5 35 -14 35 -8 0 -17 -15 -20 -35z"/>
<path d="M12167 9793 c-4 -3 -7 -17 -7 -31 0 -15 -7 -26 -20 -29 -23 -6 -27
-43 -5 -43 12 0 15 -19 15 -113 0 -136 11 -160 68 -155 47 4 58 35 15 40 l-28
3 -3 113 -3 112 26 0 c18 0 25 5 25 20 0 15 -7 20 -25 20 -22 0 -25 4 -25 35
0 33 -16 46 -33 28z"/>
<path d="M9954 9731 c-25 -11 -56 -50 -48 -63 9 -15 39 -8 57 12 21 24 79 27
101 4 9 -8 16 -29 16 -45 0 -27 -2 -29 -42 -29 -101 0 -148 -33 -148 -103 0
-85 95 -118 165 -56 30 27 35 28 35 12 0 -27 19 -43 52 -43 21 0 28 5 28 20 0
11 -6 20 -14 20 -21 0 -26 23 -26 125 0 84 -2 97 -23 121 -19 22 -34 28 -78
30 -30 2 -64 0 -75 -5z m126 -188 c-1 -46 -42 -83 -93 -83 -32 0 -49 22 -45
57 4 34 37 53 96 53 39 0 42 -2 42 -27z"/>
<path d="M10424 9731 c-21 -9 -54 -48 -54 -63 0 -16 46 -7 63 12 22 26 78 27
100 2 10 -10 17 -31 17 -45 0 -25 -3 -27 -42 -27 -61 0 -115 -17 -133 -43 -24
-35 -19 -94 11 -124 22 -22 32 -25 72 -20 33 4 53 12 69 31 l22 26 13 -28 c17
-35 78 -46 78 -14 0 11 -9 22 -19 25 -17 4 -20 16 -23 116 -3 98 -6 113 -25
132 -24 25 -111 36 -149 20z m126 -187 c0 -35 -50 -84 -87 -84 -36 0 -53 16
-53 51 0 38 33 59 92 59 45 0 48 -2 48 -26z"/>
<path d="M11446 9724 c-9 -8 -16 -20 -16 -25 0 -5 -4 -9 -10 -9 -5 0 -10 9
-10 20 0 13 -7 20 -20 20 -19 0 -20 -7 -20 -150 l0 -150 24 0 c24 0 24 1 28
116 3 101 6 117 22 130 11 8 30 14 43 14 18 0 23 6 23 25 0 20 -5 25 -24 25
-14 0 -32 -7 -40 -16z"/>
<path d="M11914 9721 c-40 -24 -59 -72 -58 -146 0 -71 22 -118 64 -140 58 -30
136 -10 159 42 16 35 14 43 -14 43 -14 0 -25 -6 -25 -13 0 -22 -34 -47 -63
-47 -14 0 -35 9 -46 21 -40 44 -35 186 9 209 32 17 67 11 88 -15 11 -14 29
-25 41 -25 25 0 25 1 9 35 -24 53 -106 71 -164 36z"/>
<path d="M12681 9714 c-20 -25 -21 -26 -21 -5 0 16 -6 21 -25 21 l-25 0 0
-150 0 -150 24 0 c23 0 24 2 28 109 4 119 17 151 65 151 18 0 23 5 23 25 0 35
-41 34 -69 -1z"/>
<path d="M12854 9724 c-47 -23 -67 -66 -67 -144 0 -47 6 -76 19 -98 42 -71
153 -83 208 -21 28 32 29 33 8 40 -17 6 -28 2 -46 -16 -49 -48 -119 -23 -135
48 l-9 37 110 0 110 0 -7 43 c-4 23 -14 54 -21 69 -28 53 -107 73 -170 42z
m109 -36 c9 -7 21 -28 26 -45 l10 -33 -80 0 c-77 0 -79 1 -79 24 0 49 81 84
123 54z"/>
<path d="M13154 9731 c-12 -5 -29 -20 -38 -33 -39 -55 -6 -107 83 -132 58 -16
91 -37 91 -57 0 -5 -9 -18 -20 -29 -27 -27 -89 -27 -123 1 -19 14 -31 17 -43
11 -14 -8 -13 -12 9 -38 23 -27 30 -29 95 -29 61 0 74 3 96 24 19 18 26 35 26
61 0 47 -28 73 -99 94 -62 18 -81 31 -81 57 0 40 85 54 120 19 41 -41 74 -17
37 26 -19 22 -34 28 -78 30 -30 2 -64 0 -75 -5z"/>
<path d="M11550 9616 c0 -62 5 -127 10 -143 20 -56 98 -70 149 -27 30 25 31
25 31 5 0 -16 6 -21 25 -21 l25 0 0 150 0 150 -24 0 c-24 0 -24 -1 -28 -116
-3 -108 -5 -117 -27 -135 -28 -23 -74 -25 -95 -3 -13 12 -16 40 -16 135 l0
119 -25 0 -25 0 0 -114z"/>
<path d="M12300 9610 c0 -87 4 -129 15 -149 24 -48 96 -55 144 -15 30 25 31
25 31 5 0 -16 6 -21 25 -21 l25 0 0 150 0 150 -25 0 c-25 0 -25 0 -25 -94 0
-136 -19 -176 -84 -176 -48 0 -56 21 -56 151 l0 119 -25 0 -25 0 0 -120z"/>
<path d="M3580 7415 c0 -20 5 -25 25 -25 20 0 25 5 25 25 0 20 -5 25 -25 25
-20 0 -25 -5 -25 -25z"/>
<path d="M4170 7415 c0 -20 5 -25 25 -25 20 0 25 5 25 25 0 20 -5 25 -25 25
-20 0 -25 -5 -25 -25z"/>
<path d="M4450 7415 c0 -20 5 -25 25 -25 20 0 25 5 25 25 0 20 -5 25 -25 25
-20 0 -25 -5 -25 -25z"/>
<path d="M5405 7423 c-64 -17 -96 -77 -71 -136 16 -40 47 -59 126 -77 99 -23
126 -46 114 -96 -8 -32 -52 -54 -106 -54 -48 0 -108 31 -108 56 0 11 -6 14
-22 8 -32 -9 -33 -11 -17 -41 39 -73 216 -85 278 -19 12 13 25 42 28 63 8 63
-27 96 -132 124 -94 24 -110 33 -120 66 -4 17 1 30 20 49 24 24 32 26 82 22
45 -4 61 -10 77 -30 15 -18 27 -23 43 -19 20 5 21 8 10 31 -24 48 -121 73
-202 53z"/>
<path d="M3030 7225 l0 -195 25 0 c24 0 25 2 25 75 l0 75 70 0 c120 0 170 35
170 120 0 90 -48 120 -195 120 l-95 0 0 -195z m203 144 c30 -16 37 -28 37 -69
0 -62 -29 -80 -124 -80 l-66 0 0 80 0 80 66 0 c36 0 75 -5 87 -11z"/>
<path d="M4306 7365 c-5 -26 -12 -35 -26 -35 -13 0 -20 -7 -20 -20 0 -13 7
-20 20 -20 19 0 20 -7 20 -118 0 -136 10 -156 71 -150 44 4 53 35 12 40 l-28
3 -3 113 -3 112 26 0 c18 0 25 5 25 20 0 15 -7 20 -25 20 -22 0 -25 4 -25 35
0 28 -4 35 -19 35 -14 0 -21 -10 -25 -35z"/>
<path d="M5706 7365 c-5 -26 -12 -35 -26 -35 -13 0 -20 -7 -20 -20 0 -13 7
-20 20 -20 19 0 20 -7 20 -119 0 -135 7 -151 66 -151 27 0 34 4 34 20 0 13 -7
20 -20 20 -31 0 -40 31 -40 134 l0 96 30 0 c23 0 30 4 30 20 0 16 -7 20 -30
20 -28 0 -30 3 -30 35 0 23 -5 35 -14 35 -8 0 -17 -15 -20 -35z"/>
<path d="M6647 7393 c-4 -3 -7 -17 -7 -31 0 -15 -7 -26 -20 -29 -23 -6 -27
-43 -5 -43 12 0 15 -19 15 -113 0 -136 11 -160 68 -155 47 4 58 35 15 40 l-28
3 -3 113 -3 112 26 0 c18 0 25 5 25 20 0 15 -7 20 -25 20 -22 0 -25 4 -25 35
0 33 -16 46 -33 28z"/>
<path d="M3461 7314 c-20 -25 -21 -26 -21 -5 0 16 -6 21 -25 21 l-25 0 0 -150
0 -150 24 0 c24 0 24 1 28 109 3 119 17 151 65 151 18 0 23 5 23 25 0 35 -41
34 -69 -1z"/>
<path d="M3795 7328 c-11 -6 -25 -19 -32 -27 -11 -14 -12 -13 -13 7 0 17 -6
22 -25 22 l-25 0 0 -150 0 -150 24 0 c24 0 24 1 28 114 3 127 16 156 68 156
46 0 55 -22 59 -152 3 -108 5 -118 22 -118 17 0 19 8 19 95 0 112 16 161 54
171 61 15 76 -17 76 -162 0 -97 1 -104 20 -104 19 0 20 7 20 134 0 133 0 135
-26 155 -15 12 -38 21 -51 21 -29 0 -80 -25 -85 -41 -2 -7 -14 -2 -31 14 -28
29 -68 35 -102 15z"/>
<path d="M4902 7320 c-41 -25 -62 -73 -62 -140 0 -67 21 -115 62 -140 57 -35
152 -19 178 29 13 26 13 28 -6 35 -10 4 -25 -3 -40 -19 -41 -45 -113 -31 -133
26 -20 59 -20 59 94 59 l105 0 0 30 c0 39 -22 90 -49 114 -32 29 -108 32 -149
6z m116 -37 c12 -10 24 -30 28 -45 l6 -28 -82 0 -82 0 6 28 c9 35 41 62 76 62
15 0 37 -8 48 -17z"/>
<path d="M5926 7324 c-9 -8 -16 -20 -16 -25 0 -5 -4 -9 -10 -9 -5 0 -10 9 -10
20 0 13 -7 20 -20 20 -19 0 -20 -7 -20 -150 l0 -150 24 0 c24 0 24 1 28 116 3
101 6 117 22 130 11 8 30 14 43 14 18 0 23 6 23 25 0 20 -5 25 -24 25 -14 0
-32 -7 -40 -16z"/>
<path d="M6394 7321 c-40 -24 -59 -72 -58 -146 0 -71 22 -118 64 -140 58 -30
136 -10 159 42 16 35 14 43 -14 43 -14 0 -25 -6 -25 -13 0 -22 -34 -47 -63
-47 -14 0 -35 9 -46 21 -40 44 -35 186 9 209 32 17 67 11 88 -15 11 -14 29
-25 41 -25 25 0 25 1 9 35 -24 53 -106 71 -164 36z"/>
<path d="M7161 7314 c-20 -25 -21 -26 -21 -5 0 16 -6 21 -25 21 l-25 0 0 -150
0 -150 24 0 c23 0 24 2 28 109 4 119 17 151 65 151 18 0 23 5 23 25 0 35 -41
34 -69 -1z"/>
<path d="M7334 7324 c-47 -23 -67 -66 -67 -144 0 -47 6 -76 19 -98 42 -71 153
-83 208 -21 28 32 29 33 8 40 -17 6 -28 2 -46 -16 -49 -48 -119 -23 -135 48
l-9 37 110 0 110 0 -7 43 c-4 23 -14 54 -21 69 -28 53 -107 73 -170 42z m109
-36 c9 -7 21 -28 26 -45 l10 -33 -80 0 c-77 0 -79 1 -79 24 0 49 81 84 123 54z"/>
<path d="M7634 7331 c-12 -5 -29 -20 -38 -33 -39 -55 -6 -107 83 -132 58 -16
91 -37 91 -57 0 -5 -9 -18 -20 -29 -27 -27 -89 -27 -123 1 -19 14 -31 17 -43
11 -14 -8 -13 -12 9 -38 23 -27 30 -29 95 -29 61 0 74 3 96 24 19 18 26 35 26
61 0 47 -28 73 -99 94 -62 18 -81 31 -81 57 0 40 85 54 120 19 41 -41 74 -17
37 26 -19 22 -34 28 -78 30 -30 2 -64 0 -75 -5z"/>
<path d="M3580 7180 l0 -150 25 0 25 0 0 150 0 150 -25 0 -25 0 0 -150z"/>
<path d="M4170 7180 l0 -150 25 0 25 0 0 150 0 150 -25 0 -25 0 0 -150z"/>
<path d="M4450 7180 l0 -150 25 0 25 0 0 150 0 150 -25 0 -25 0 0 -150z"/>
<path d="M4540 7323 c0 -3 24 -71 53 -150 52 -143 52 -144 82 -141 28 3 32 9
82 143 29 77 53 143 53 148 0 4 -10 7 -23 7 -20 0 -27 -11 -52 -82 -16 -46
-36 -103 -45 -127 l-17 -43 -43 126 c-39 113 -45 126 -66 126 -13 0 -24 -3
-24 -7z"/>
<path d="M6030 7216 c0 -62 5 -127 10 -143 20 -56 98 -70 149 -27 30 25 31 25
31 5 0 -16 6 -21 25 -21 l25 0 0 150 0 150 -24 0 c-24 0 -24 -1 -28 -116 -3
-108 -5 -117 -27 -135 -28 -23 -74 -25 -95 -3 -13 12 -16 40 -16 135 l0 119
-25 0 -25 0 0 -114z"/>
<path d="M6780 7210 c0 -87 4 -129 15 -149 24 -48 96 -55 144 -15 30 25 31 25
31 5 0 -16 6 -21 25 -21 l25 0 0 150 0 150 -25 0 c-25 0 -25 0 -25 -94 0 -136
-19 -176 -84 -176 -48 0 -56 21 -56 151 l0 119 -25 0 -25 0 0 -120z"/>
<path d="M17970 7415 c0 -20 5 -25 25 -25 20 0 25 5 25 25 0 20 -5 25 -25 25
-20 0 -25 -5 -25 -25z"/>
<path d="M18560 7415 c0 -20 5 -25 25 -25 20 0 25 5 25 25 0 20 -5 25 -25 25
-20 0 -25 -5 -25 -25z"/>
<path d="M18840 7415 c0 -20 5 -25 25 -25 20 0 25 5 25 25 0 20 -5 25 -25 25
-20 0 -25 -5 -25 -25z"/>
<path d="M21145 7423 c-64 -17 -96 -77 -71 -136 16 -40 47 -59 126 -77 99 -23
126 -46 114 -96 -8 -32 -52 -54 -106 -54 -48 0 -108 31 -108 56 0 11 -6 14
-22 8 -32 -9 -33 -11 -17 -41 39 -74 216 -85 280 -17 18 19 24 37 24 69 0 64
-28 89 -131 116 -93 24 -109 33 -119 66 -4 17 1 30 20 49 24 24 32 26 82 22
45 -4 61 -10 77 -30 15 -18 27 -23 43 -19 20 5 21 8 10 31 -24 48 -121 73
-202 53z"/>
<path d="M16270 7225 c0 -188 1 -195 20 -195 19 0 20 7 20 163 1 189 -11 191
118 -20 83 -137 88 -143 120 -143 l32 0 0 195 0 195 -25 0 -25 0 -2 -160 -3
-159 -99 159 c-90 146 -102 160 -128 160 l-28 0 0 -195z"/>
<path d="M19730 7224 l0 -196 103 4 c85 3 108 7 140 27 54 33 81 90 81 171 0
136 -66 189 -236 190 l-88 0 0 -196z m199 138 c54 -27 74 -62 74 -129 0 -111
-51 -163 -160 -163 l-63 0 0 155 0 155 58 0 c34 0 70 -7 91 -18z"/>
<path d="M18707 7393 c-4 -3 -7 -17 -7 -31 0 -15 -7 -26 -20 -29 -23 -6 -27
-43 -5 -43 12 0 15 -19 15 -113 0 -136 11 -160 68 -155 47 4 58 35 15 40 l-28
3 -3 113 -3 112 26 0 c18 0 25 5 25 20 0 15 -7 20 -25 20 -22 0 -25 4 -25 35
0 33 -16 46 -33 28z"/>
<path d="M20446 7365 c-5 -26 -12 -35 -26 -35 -13 0 -20 -7 -20 -20 0 -13 7
-20 20 -20 19 0 20 -7 20 -118 0 -136 10 -156 71 -150 44 4 53 35 12 40 l-28
3 -3 113 -3 112 26 0 c18 0 25 5 25 20 0 15 -7 20 -25 20 -22 0 -25 4 -25 35
0 28 -4 35 -19 35 -14 0 -21 -10 -25 -35z"/>
<path d="M21446 7365 c-5 -26 -12 -35 -26 -35 -13 0 -20 -7 -20 -20 0 -13 7
-20 20 -20 19 0 20 -7 20 -119 0 -135 7 -151 66 -151 27 0 34 4 34 20 0 13 -7
20 -20 20 -31 0 -40 31 -40 134 l0 96 30 0 c23 0 30 4 30 20 0 16 -7 20 -30
20 -28 0 -30 3 -30 35 0 23 -5 35 -14 35 -8 0 -17 -15 -20 -35z"/>
<path d="M22387 7393 c-4 -3 -7 -17 -7 -31 0 -15 -7 -26 -20 -29 -23 -6 -27
-43 -5 -43 12 0 15 -19 15 -113 0 -136 11 -160 68 -155 47 4 58 35 15 40 l-28
3 -3 113 -3 112 26 0 c18 0 25 5 25 20 0 15 -7 20 -25 20 -22 0 -25 4 -25 35
0 33 -16 46 -33 28z"/>
<path d="M16721 7327 c-42 -21 -64 -62 -69 -126 -8 -110 31 -171 115 -178 92
-7 143 48 143 154 0 82 -22 131 -66 149 -41 17 -91 18 -123 1z m114 -52 c21
-20 25 -33 25 -87 0 -74 -15 -109 -51 -122 -42 -15 -78 0 -95 39 -27 65 -11
173 28 188 32 13 70 6 93 -18z"/>
<path d="M17051 7314 c-30 -25 -31 -25 -31 -5 0 16 -6 21 -25 21 l-25 0 0
-150 0 -150 25 0 25 0 0 100 c0 134 18 170 85 170 47 0 55 -21 55 -151 l0
-119 25 0 25 0 0 120 c0 87 -4 129 -15 149 -24 48 -96 55 -144 15z"/>
<path d="M17565 7328 c-11 -6 -25 -19 -32 -27 -11 -14 -12 -13 -13 7 0 17 -6
22 -25 22 l-25 0 0 -210 0 -210 25 0 c25 0 25 1 26 83 0 45 3 76 6 69 7 -18
58 -42 90 -42 66 0 103 60 103 165 0 71 -16 114 -52 139 -26 19 -74 20 -103 4z
m71 -36 c23 -15 34 -53 34 -115 0 -50 -5 -70 -21 -91 -41 -52 -111 -24 -125
49 -9 50 4 123 27 146 19 19 64 25 85 11z"/>
<path d="M17851 7314 c-20 -25 -21 -26 -21 -5 0 16 -6 21 -25 21 l-25 0 0
-150 0 -150 24 0 c23 0 24 2 28 109 4 119 17 151 65 151 18 0 23 5 23 25 0 35
-41 34 -69 -1z"/>
<path d="M18185 7328 c-11 -6 -25 -19 -32 -27 -11 -14 -12 -13 -13 7 0 17 -6
22 -25 22 l-25 0 0 -150 0 -150 24 0 c24 0 24 1 28 116 3 108 5 117 27 135 13
10 33 19 46 19 41 0 50 -25 54 -152 3 -108 5 -118 22 -118 17 0 19 8 19 95 0
112 16 161 54 171 61 15 76 -17 76 -162 0 -97 1 -104 20 -104 19 0 20 7 20
134 0 133 0 135 -26 155 -15 12 -38 21 -51 21 -29 0 -80 -25 -85 -41 -2 -7
-14 -2 -31 14 -28 29 -68 35 -102 15z"/>
<path d="M19303 7325 c-17 -7 -40 -28 -50 -47 -24 -45 -24 -151 1 -196 37 -71
155 -83 210 -21 28 32 29 33 8 40 -17 6 -28 2 -46 -16 -48 -48 -127 -19 -141
53 l-7 32 109 0 109 0 -6 48 c-3 26 -12 57 -18 69 -27 49 -105 66 -169 38z
m116 -51 c12 -15 21 -35 21 -45 0 -17 -9 -19 -79 -19 -77 0 -79 1 -74 23 16
66 93 90 132 41z"/>
<path d="M20180 7333 c-27 -10 -50 -36 -50 -55 0 -24 31 -23 53 2 21 24 79 27
101 4 9 -8 16 -29 16 -45 0 -27 -2 -29 -42 -29 -61 0 -115 -17 -133 -43 -24
-35 -19 -94 11 -124 22 -22 32 -25 71 -20 31 3 54 13 74 33 26 25 29 26 29 8
0 -28 19 -44 52 -44 21 0 28 5 28 20 0 11 -6 20 -14 20 -21 0 -26 23 -26 125
0 84 -2 97 -23 121 -19 22 -33 28 -78 30 -30 2 -61 1 -69 -3z m120 -190 c-1
-46 -42 -83 -92 -83 -32 0 -48 18 -48 51 0 38 33 59 92 59 46 0 48 -1 48 -27z"/>
<path d="M20644 7331 c-21 -9 -54 -48 -54 -63 0 -16 46 -7 63 12 22 26 78 27
100 2 10 -10 17 -31 17 -45 0 -25 -3 -27 -42 -27 -61 0 -115 -17 -133 -43 -24
-35 -19 -94 11 -124 22 -22 32 -25 72 -20 33 4 53 12 69 31 l22 26 13 -28 c17
-35 78 -46 78 -14 0 11 -9 22 -19 25 -17 4 -20 16 -23 116 -3 98 -6 113 -25
132 -24 25 -111 36 -149 20z m126 -187 c0 -35 -50 -84 -87 -84 -36 0 -53 16
-53 51 0 38 33 59 92 59 45 0 48 -2 48 -26z"/>
<path d="M21666 7324 c-9 -8 -16 -20 -16 -25 0 -5 -4 -9 -10 -9 -5 0 -10 9
-10 20 0 13 -7 20 -20 20 -19 0 -20 -7 -20 -150 l0 -150 24 0 c24 0 24 1 28
116 3 101 6 117 22 130 11 8 30 14 43 14 18 0 23 6 23 25 0 20 -5 25 -24 25
-14 0 -32 -7 -40 -16z"/>
<path d="M22134 7321 c-40 -24 -59 -72 -58 -146 0 -71 22 -118 64 -140 58 -30
136 -10 159 42 16 35 14 43 -14 43 -14 0 -25 -6 -25 -13 0 -42 -76 -61 -109
-28 -40 40 -34 188 9 211 32 17 67 11 88 -15 21 -26 62 -34 62 -12 -1 17 -31
53 -57 66 -33 17 -84 13 -119 -8z"/>
<path d="M22901 7314 c-20 -25 -21 -26 -21 -5 0 16 -6 21 -25 21 l-25 0 0
-150 0 -150 24 0 c23 0 24 2 28 109 4 119 17 151 65 151 18 0 23 5 23 25 0 35
-41 34 -69 -1z"/>
<path d="M23074 7324 c-47 -23 -67 -66 -67 -144 0 -47 6 -76 19 -98 42 -71
153 -83 208 -21 28 32 29 33 8 40 -17 6 -28 2 -46 -16 -49 -48 -119 -23 -135
48 l-9 37 110 0 110 0 -7 43 c-4 23 -14 54 -21 69 -28 53 -107 73 -170 42z
m109 -36 c9 -7 21 -28 26 -45 l10 -33 -80 0 c-77 0 -79 1 -79 24 0 49 81 84
123 54z"/>
<path d="M23374 7331 c-12 -5 -29 -20 -38 -33 -39 -55 -6 -107 83 -132 58 -16
91 -37 91 -57 0 -5 -9 -18 -20 -29 -27 -27 -89 -27 -123 1 -19 14 -31 17 -43
11 -14 -8 -13 -12 9 -38 23 -27 30 -29 95 -29 61 0 74 3 96 24 19 18 26 35 26
61 0 47 -28 73 -99 94 -62 18 -81 31 -81 57 0 40 85 54 120 19 41 -41 74 -17
37 26 -19 22 -34 28 -78 30 -30 2 -64 0 -75 -5z"/>
<path d="M17970 7180 l0 -150 25 0 25 0 0 150 0 150 -25 0 -25 0 0 -150z"/>
<path d="M18560 7180 l0 -150 25 0 25 0 0 150 0 150 -25 0 -25 0 0 -150z"/>
<path d="M18840 7180 l0 -150 25 0 25 0 0 150 0 150 -25 0 -25 0 0 -150z"/>
<path d="M18934 7313 c4 -10 28 -76 55 -148 45 -123 49 -130 77 -133 28 -3 30
0 66 95 20 54 45 122 57 151 l21 53 -27 -3 c-24 -3 -30 -13 -65 -113 -22 -60
-42 -117 -45 -125 -3 -9 -13 7 -24 40 -65 189 -70 200 -96 200 -19 0 -23 -4
-19 -17z"/>
<path d="M21770 7216 c0 -62 5 -127 10 -143 22 -63 123 -71 167 -14 11 14 12
13 13 -6 0 -18 6 -23 25 -23 l25 0 0 150 0 150 -25 0 -25 0 0 -100 c0 -134
-18 -170 -85 -170 -47 0 -55 21 -55 151 l0 119 -25 0 -25 0 0 -114z"/>
<path d="M22520 7210 c0 -87 4 -129 15 -149 24 -48 96 -55 144 -15 30 25 31
25 31 5 0 -16 6 -21 25 -21 l25 0 0 150 0 150 -25 0 c-25 0 -25 0 -25 -94 0
-136 -19 -176 -84 -176 -48 0 -56 21 -56 151 l0 119 -25 0 -25 0 0 -120z"/>
<path d="M17270 7180 c0 -18 7 -20 70 -20 63 0 70 2 70 20 0 18 -7 20 -70 20
-63 0 -70 -2 -70 -20z"/>
<path d="M17170 5415 c0 -20 5 -25 25 -25 20 0 25 5 25 25 0 20 -5 25 -25 25
-20 0 -25 -5 -25 -25z"/>
<path d="M16870 5225 l0 -195 120 0 c113 0 120 1 120 20 0 19 -7 20 -95 20
l-95 0 0 175 0 175 -25 0 -25 0 0 -195z"/>
<path d="M17371 5314 c-30 -25 -31 -25 -31 -5 0 16 -6 21 -25 21 l-25 0 0
-150 0 -150 25 0 25 0 0 100 c0 134 18 170 85 170 47 0 55 -21 55 -151 l0
-119 25 0 25 0 0 120 c0 87 -4 129 -15 149 -24 48 -96 55 -144 15z"/>
<path d="M17663 5325 c-17 -7 -40 -28 -50 -47 -24 -45 -24 -151 1 -196 37 -71
155 -83 210 -21 28 32 29 33 8 40 -17 6 -28 2 -46 -16 -48 -48 -127 -19 -141
53 l-7 32 109 0 109 0 -6 48 c-3 26 -12 57 -18 69 -27 49 -105 66 -169 38z
m114 -47 c13 -12 23 -32 23 -45 0 -22 -3 -23 -79 -23 -77 0 -79 1 -74 23 16
63 85 87 130 45z"/>
<path d="M17964 5326 c-28 -13 -44 -33 -44 -57 0 -17 45 -9 58 11 18 29 85 28
106 -2 9 -12 16 -33 16 -45 0 -21 -5 -23 -50 -23 -55 0 -107 -18 -129 -44 -7
-9 -14 -35 -14 -58 0 -92 113 -121 175 -44 15 17 18 18 18 4 0 -26 28 -48 61
-48 22 0 29 5 29 19 0 10 -9 21 -20 24 -18 5 -20 14 -20 95 0 107 -12 148 -51
167 -35 18 -94 19 -135 1z m132 -188 c-14 -76 -131 -111 -137 -43 -6 57 16 73
95 74 l49 1 -7 -32z"/>
<path d="M18306 5324 c-9 -8 -16 -20 -16 -25 0 -5 -4 -9 -10 -9 -5 0 -10 9
-10 20 0 13 -7 20 -20 20 -19 0 -20 -7 -20 -150 l0 -150 24 0 c24 0 24 1 28
116 3 101 6 117 22 130 11 8 30 14 43 14 18 0 23 6 23 25 0 20 -5 25 -24 25
-14 0 -32 -7 -40 -16z"/>
<path d="M17170 5180 l0 -150 25 0 25 0 0 150 0 150 -25 0 -25 0 0 -150z"/>
<path d="M25570 5235 l0 -205 25 0 25 0 0 205 0 205 -25 0 -25 0 0 -205z"/>
<path d="M25700 5415 c0 -18 5 -25 20 -25 15 0 20 7 20 25 0 18 -5 25 -20 25
-15 0 -20 -7 -20 -25z"/>
<path d="M24370 5225 c0 -188 1 -195 20 -195 18 0 20 8 22 163 l3 162 100
-162 c96 -156 101 -162 133 -163 l32 0 0 195 0 195 -25 0 -25 0 -2 -160 -3
-159 -99 159 c-90 146 -102 160 -128 160 l-28 0 0 -195z"/>
<path d="M24821 5327 c-42 -21 -64 -62 -69 -126 -8 -110 31 -171 115 -178 92
-7 143 48 143 154 0 82 -22 131 -66 149 -41 17 -91 18 -123 1z m115 -48 c23
-26 31 -142 12 -179 -29 -55 -110 -52 -134 5 -27 65 -11 173 28 188 31 13 76
6 94 -14z"/>
<path d="M25151 5314 c-30 -25 -31 -25 -31 -5 0 16 -6 21 -25 21 l-25 0 0
-150 0 -150 25 0 c25 0 25 0 25 94 0 136 19 176 84 176 48 0 56 -21 56 -151
l0 -119 25 0 25 0 0 120 c0 87 -4 129 -15 149 -24 48 -96 55 -144 15z"/>
<path d="M25915 5328 c-11 -6 -25 -19 -32 -27 -11 -14 -12 -13 -13 7 0 17 -6
22 -25 22 l-25 0 0 -150 0 -150 24 0 c24 0 24 1 28 116 3 108 5 117 27 135 32
26 76 25 95 -3 12 -17 16 -49 16 -135 l0 -113 25 0 25 0 0 114 c0 62 -5 127
-10 143 -17 47 -87 68 -135 41z"/>
<path d="M26182 5320 c-41 -25 -62 -73 -62 -140 0 -67 21 -115 62 -140 57 -35
152 -19 178 29 13 26 13 28 -6 35 -10 4 -25 -3 -40 -19 -41 -45 -113 -31 -133
26 -20 59 -20 59 94 59 l105 0 0 30 c0 39 -22 90 -49 114 -32 29 -108 32 -149
6z m116 -37 c12 -10 24 -30 28 -45 l6 -28 -82 0 -82 0 6 28 c9 35 41 62 76 62
15 0 37 -8 48 -17z"/>
<path d="M26500 5333 c-27 -10 -50 -36 -50 -55 0 -24 31 -23 53 2 21 24 79 27
101 4 9 -8 16 -29 16 -45 0 -27 -2 -29 -42 -29 -61 0 -115 -17 -133 -43 -24
-35 -19 -94 11 -124 22 -22 32 -25 71 -20 31 3 54 13 74 33 26 25 29 26 29 8
0 -28 19 -44 52 -44 21 0 28 5 28 20 0 11 -6 20 -14 20 -21 0 -26 23 -26 125
0 84 -2 97 -23 121 -19 22 -33 28 -78 30 -30 2 -61 1 -69 -3z m120 -190 c-1
-46 -42 -83 -92 -83 -32 0 -48 18 -48 51 0 38 33 59 92 59 46 0 48 -1 48 -27z"/>
<path d="M26825 5314 c-24 -26 -25 -26 -25 -5 0 14 -6 21 -20 21 -19 0 -20 -7
-20 -150 l0 -150 25 0 25 0 0 108 c0 123 11 152 61 152 24 0 29 4 29 25 0 35
-43 34 -75 -1z"/>
<path d="M25700 5180 c0 -143 1 -150 20 -150 19 0 20 7 20 150 0 143 -1 150
-20 150 -19 0 -20 -7 -20 -150z"/>
<path d="M25370 5180 c0 -18 7 -20 70 -20 63 0 70 2 70 20 0 18 -7 20 -70 20
-63 0 -70 -2 -70 -20z"/>
<path d="M14130 3415 c0 -20 5 -25 25 -25 20 0 25 5 25 25 0 20 -5 25 -25 25
-20 0 -25 -5 -25 -25z"/>
<path d="M13225 3423 c-64 -17 -96 -77 -71 -136 16 -40 47 -59 126 -77 99 -23
126 -46 114 -96 -8 -32 -52 -54 -106 -54 -48 0 -108 31 -108 56 0 11 -6 14
-22 8 -32 -9 -33 -11 -17 -41 39 -74 216 -85 280 -17 18 19 24 37 24 69 0 64
-28 89 -131 116 -93 24 -109 33 -119 66 -4 17 1 30 20 49 24 24 32 26 82 22
45 -4 61 -10 77 -30 15 -18 27 -23 43 -19 20 5 21 8 10 31 -24 48 -121 73
-202 53z"/>
<path d="M13526 3365 c-5 -26 -12 -35 -26 -35 -13 0 -20 -7 -20 -20 0 -13 7
-20 20 -20 19 0 20 -7 20 -119 0 -135 7 -151 66 -151 27 0 34 4 34 20 0 13 -7
20 -20 20 -31 0 -40 31 -40 134 l0 96 30 0 c23 0 30 4 30 20 0 16 -7 20 -30
20 -28 0 -30 3 -30 35 0 23 -5 35 -14 35 -8 0 -17 -15 -20 -35z"/>
<path d="M13996 3384 c-3 -9 -6 -24 -6 -35 0 -12 -7 -19 -20 -19 -13 0 -20 -7
-20 -20 0 -11 6 -20 14 -20 11 0 15 -25 18 -121 3 -107 5 -122 23 -135 26 -19
79 -14 83 8 2 12 -5 17 -25 20 l-28 3 -3 113 -3 112 31 0 c23 0 30 4 30 20 0
16 -7 20 -30 20 -28 0 -30 3 -30 35 0 37 -22 49 -34 19z"/>
<path d="M13714 3326 c-28 -13 -44 -33 -44 -57 0 -17 45 -9 58 11 18 29 85 28
106 -2 9 -12 16 -33 16 -45 0 -21 -5 -23 -50 -23 -55 0 -107 -18 -129 -44 -7
-9 -14 -35 -14 -58 0 -92 113 -121 175 -44 15 17 18 18 18 4 0 -26 28 -48 61
-48 22 0 29 5 29 19 0 10 -9 21 -20 24 -18 5 -20 14 -20 95 0 107 -12 148 -51
167 -35 18 -94 19 -135 1z m132 -188 c-3 -18 -17 -43 -32 -55 -49 -44 -123
-19 -109 36 4 14 7 26 8 27 29 18 51 23 91 24 l49 0 -7 -32z"/>
<path d="M14308 3324 c-41 -22 -61 -69 -61 -144 0 -104 43 -160 123 -160 53 0
109 42 110 83 0 27 -39 21 -52 -8 -20 -45 -78 -47 -111 -4 -15 21 -19 42 -19
92 0 36 5 75 12 86 21 39 103 40 115 1 7 -21 55 -29 55 -9 0 61 -105 100 -172
63z"/>
<path d="M14130 3180 l0 -150 25 0 25 0 0 150 0 150 -25 0 -25 0 0 -150z"/>
<path d="M20930 3415 c0 -20 5 -25 25 -25 20 0 25 5 25 25 0 20 -5 25 -25 25
-20 0 -25 -5 -25 -25z"/>
<path d="M19170 3224 l0 -196 103 4 c85 3 108 7 140 27 54 33 81 90 81 171 0
136 -66 189 -236 190 l-88 0 0 -196z m199 138 c54 -27 74 -62 74 -129 0 -111
-51 -163 -160 -163 l-63 0 0 155 0 155 58 0 c34 0 70 -7 91 -18z"/>
<path d="M19921 3314 c-30 -25 -31 -25 -31 -5 0 16 -6 21 -25 21 l-25 0 0
-150 0 -150 25 0 25 0 0 100 c0 134 18 170 85 170 47 0 55 -21 55 -151 l0
-119 25 0 25 0 0 120 c0 87 -4 129 -15 149 -24 48 -96 55 -144 15z"/>
<path d="M20204 3331 c-25 -11 -56 -50 -48 -63 9 -15 39 -8 57 12 21 24 79 27
101 4 9 -8 16 -29 16 -45 0 -27 -2 -29 -42 -29 -61 0 -115 -17 -133 -43 -24
-35 -19 -94 11 -124 22 -22 32 -25 71 -20 31 3 54 13 74 33 26 25 29 26 29 8
0 -28 19 -44 52 -44 21 0 28 5 28 20 0 11 -6 20 -14 20 -21 0 -26 23 -26 125
0 84 -2 97 -23 121 -19 22 -34 28 -78 30 -30 2 -64 0 -75 -5z m126 -188 c-1
-46 -42 -83 -93 -83 -32 0 -49 22 -45 57 4 34 37 53 96 53 39 0 42 -2 42 -27z"/>
<path d="M20541 3314 c-30 -25 -31 -25 -31 -5 0 14 -6 21 -20 21 -19 0 -20 -7
-20 -150 l0 -150 25 0 25 0 0 115 c0 102 2 117 20 135 21 21 55 26 80 10 12
-7 16 -37 18 -135 4 -125 4 -125 28 -125 24 0 24 0 24 115 0 102 2 117 20 135
24 24 63 26 84 4 13 -12 16 -40 16 -135 l0 -119 25 0 25 0 0 114 c0 120 -11
170 -40 186 -32 17 -78 11 -107 -14 l-28 -24 -22 24 c-30 33 -82 32 -122 -2z"/>
<path d="M21104 3321 c-40 -24 -59 -72 -58 -146 0 -71 22 -118 64 -140 58 -30
136 -10 159 42 16 35 14 43 -14 43 -14 0 -25 -6 -25 -13 0 -22 -34 -47 -63
-47 -14 0 -35 9 -46 21 -40 44 -35 186 9 209 32 17 67 11 88 -15 11 -14 29
-25 41 -25 25 0 25 1 9 35 -24 53 -106 71 -164 36z"/>
<path d="M19530 3322 c0 -5 25 -69 55 -143 30 -74 55 -141 55 -151 0 -27 -49
-78 -76 -78 -17 0 -24 -6 -24 -20 0 -16 7 -20 34 -20 59 0 84 37 159 232 37
96 67 178 67 181 0 4 -10 7 -22 7 -20 0 -28 -13 -57 -98 -18 -53 -38 -108 -43
-122 -9 -22 -15 -12 -55 98 -41 109 -48 122 -69 122 -13 0 -24 -4 -24 -8z"/>
<path d="M20930 3180 l0 -150 25 0 25 0 0 150 0 150 -25 0 -25 0 0 -150z"/>
<path d="M23730 3460 c0 -18 7 -20 60 -20 l60 0 0 -145 c0 -138 1 -145 20
-145 19 0 20 7 20 145 l0 145 55 0 c48 0 55 2 55 20 0 19 -7 20 -135 20 -128
0 -135 -1 -135 -20z"/>
<path d="M24030 3280 c0 -123 1 -130 20 -130 18 0 20 7 20 83 0 96 14 131 53
135 19 2 27 9 27 23 0 27 -44 25 -64 -3 l-16 -22 0 22 c0 15 -6 22 -20 22 -19
0 -20 -7 -20 -130z"/>
<path d="M24231 3396 c-35 -19 -50 -54 -51 -114 0 -95 46 -141 132 -129 48 6
92 42 69 57 -10 6 -23 2 -39 -11 -35 -27 -76 -25 -101 7 -12 15 -21 35 -21 45
0 17 9 19 91 19 l92 0 -6 43 c-11 79 -96 122 -166 83z m101 -33 c9 -10 19 -28
22 -40 7 -22 5 -23 -63 -23 -79 0 -86 8 -50 54 24 31 68 35 91 9z"/>
<path d="M24499 3395 c-42 -23 -62 -90 -47 -160 11 -54 51 -85 106 -85 38 0
87 23 95 44 9 23 -22 27 -43 6 -41 -41 -120 -12 -120 45 0 25 1 25 91 25 l92
0 -6 36 c-15 89 -93 130 -168 89z m103 -32 c8 -10 18 -28 21 -40 5 -22 3 -23
-64 -23 -62 0 -69 2 -69 20 0 50 80 80 112 43z"/>
<path d="M27040 3325 c0 -165 1 -175 19 -175 17 0 19 9 23 94 3 105 19 136 68
136 44 0 50 -16 50 -127 0 -96 1 -103 20 -103 19 0 20 7 20 110 0 97 -2 112
-20 130 -26 26 -80 26 -114 -1 l-26 -20 0 65 c0 59 -2 66 -20 66 -19 0 -20 -7
-20 -175z"/>
<path d="M26055 3466 c-59 -27 -79 -60 -83 -139 -3 -80 13 -120 65 -154 40
-26 145 -25 198 3 39 21 40 22 43 82 l3 62 -71 0 c-63 0 -70 -2 -70 -20 0 -17
7 -20 50 -20 49 0 50 -1 50 -31 0 -25 -6 -32 -35 -45 -110 -46 -203 16 -192
129 7 73 39 102 116 102 48 0 64 -4 84 -23 15 -14 30 -20 40 -16 23 8 21 16
-5 42 -46 42 -132 55 -193 28z"/>
<path d="M26350 3280 c0 -123 1 -130 20 -130 18 0 20 7 20 88 0 95 14 132 51
132 12 0 19 7 19 20 0 27 -34 26 -53 0 l-14 -21 -6 21 c-3 11 -12 20 -21 20
-14 0 -16 -18 -16 -130z"/>
<path d="M26536 3389 c-14 -11 -26 -27 -26 -35 0 -21 33 -17 48 6 8 13 23 20
45 20 38 0 57 -15 57 -46 0 -19 -6 -22 -60 -26 -75 -5 -102 -28 -102 -84 0
-52 31 -78 85 -71 21 3 47 13 57 22 17 16 19 15 30 -4 13 -25 70 -30 70 -6 0
8 -6 15 -14 15 -20 0 -26 23 -26 106 0 66 -3 78 -25 99 -32 33 -100 35 -139 4z
m124 -134 c0 -31 -41 -75 -69 -75 -38 0 -51 11 -51 46 0 40 19 53 78 54 38 0
42 -2 42 -25z"/>
<path d="M26770 3230 c0 -173 1 -180 20 -180 18 0 20 7 20 66 0 36 3 64 8 62
4 -2 19 -10 34 -17 36 -18 92 -7 111 22 36 55 28 176 -14 210 -26 21 -78 22
-105 2 -25 -19 -34 -19 -34 0 0 8 -9 15 -20 15 -19 0 -20 -7 -20 -180z m154
128 c10 -14 16 -44 16 -78 0 -67 -19 -100 -59 -100 -42 0 -64 31 -65 93 -1 69
22 107 64 107 19 0 34 -8 44 -22z"/>
<path d="M11908 1015 c-64 -160 -66 -165 -43 -165 18 0 27 9 41 45 l17 45 77
0 77 0 17 -45 c14 -35 23 -45 41 -45 22 0 21 5 -43 165 -61 154 -68 165 -91
165 -24 0 -31 -13 -93 -165z m122 53 c13 -35 25 -69 27 -75 4 -10 -11 -13 -57
-13 -34 0 -60 3 -58 8 2 4 14 38 28 75 14 37 28 67 31 67 4 0 17 -28 29 -62z"/>
<path d="M12190 980 c0 -120 1 -130 19 -130 16 0 19 11 24 88 6 107 12 121 48
129 20 4 29 12 29 24 0 28 -35 24 -59 -7 l-21 -27 0 27 c0 19 -5 26 -20 26
-19 0 -20 -7 -20 -130z"/>
<path d="M12350 980 c0 -120 1 -130 19 -130 16 0 19 11 24 88 6 107 12 121 48
129 20 4 29 12 29 24 0 28 -35 24 -59 -7 l-21 -27 0 27 c0 19 -5 26 -20 26
-19 0 -20 -7 -20 -130z"/>
<path d="M12555 1099 c-27 -15 -46 -40 -39 -50 9 -16 39 -9 52 11 24 39 102
17 102 -30 0 -15 -10 -18 -62 -22 -51 -4 -65 -9 -85 -32 -12 -15 -23 -38 -23
-52 0 -33 42 -74 75 -74 32 0 85 26 85 43 0 6 6 1 13 -13 9 -18 21 -25 41 -25
34 0 46 20 16 28 -18 5 -20 13 -20 90 0 107 -13 128 -86 134 -27 2 -58 -2 -69
-8z m115 -134 c0 -25 -27 -72 -45 -79 -32 -12 -64 -6 -75 13 -14 28 -13 38 10
61 26 26 110 29 110 5z"/>
<path d="M12752 1098 c3 -7 27 -65 53 -130 45 -114 46 -117 30 -147 -10 -21
-26 -34 -45 -38 -37 -7 -40 -33 -4 -33 58 0 75 24 145 206 22 60 45 119 50
132 7 19 5 22 -14 22 -20 0 -27 -12 -56 -100 -18 -55 -35 -100 -39 -100 -4 0
-23 44 -43 98 -29 81 -39 98 -59 100 -16 3 -21 0 -18 -10z"/>
<path d="M14630 1025 c0 -168 1 -175 20 -175 19 0 20 7 20 175 0 168 -1 175
-20 175 -19 0 -20 -7 -20 -175z"/>
<path d="M14740 1180 c0 -13 7 -20 20 -20 13 0 20 7 20 20 0 13 -7 20 -20 20
-13 0 -20 -7 -20 -20z"/>
<path d="M14380 1173 c-33 -12 -60 -47 -60 -78 0 -44 33 -71 110 -91 88 -22
100 -30 100 -63 0 -22 -7 -31 -30 -41 -43 -18 -120 -7 -141 19 -32 39 -70 22
-42 -18 49 -71 211 -65 252 10 32 58 -12 106 -119 129 -65 14 -95 38 -86 68
12 37 113 45 146 12 18 -18 60 -28 60 -14 0 17 -24 46 -50 59 -28 15 -109 19
-140 8z"/>
<path d="M14740 980 c0 -123 1 -130 20 -130 19 0 20 7 20 130 0 123 -1 130
-20 130 -19 0 -20 -7 -20 -130z"/>
<path d="M14893 1100 c-37 -15 -55 -54 -55 -120 0 -91 34 -130 113 -130 30 0
89 46 89 69 0 21 -38 11 -54 -14 -20 -31 -58 -33 -86 -5 -25 25 -28 124 -4
158 22 31 69 30 90 -3 16 -25 54 -35 54 -14 0 6 -13 24 -29 40 -31 30 -73 37
-118 19z"/>
<path d="M15123 1091 c-39 -24 -56 -87 -41 -157 11 -53 51 -84 106 -84 38 0
87 23 95 44 9 23 -22 27 -43 6 -41 -41 -120 -12 -120 45 0 25 1 25 90 25 101
0 105 4 76 74 -27 65 -99 85 -163 47z m109 -28 c8 -10 18 -28 21 -40 5 -22 3
-23 -64 -23 -62 0 -69 2 -69 20 0 50 80 80 112 43z"/>
<path d="M16720 1180 c0 -13 7 -20 20 -20 13 0 20 7 20 20 0 13 -7 20 -20 20
-13 0 -20 -7 -20 -20z"/>
<path d="M17116 1178 c-9 -12 -16 -33 -16 -45 0 -14 -6 -23 -15 -23 -8 0 -15
-7 -15 -15 0 -8 7 -15 15 -15 12 0 15 -19 15 -115 0 -108 1 -115 20 -115 19 0
20 7 20 115 l0 115 25 0 c16 0 25 6 25 15 0 9 -9 15 -25 15 -14 0 -25 5 -25
11 0 20 21 49 35 49 8 0 15 7 15 15 0 24 -56 19 -74 -7z"/>
<path d="M17650 1139 l0 -60 -22 15 c-48 34 -111 15 -134 -39 -28 -67 -10
-171 34 -194 29 -16 74 -14 100 5 20 14 23 14 28 0 3 -9 14 -16 23 -16 14 0
16 18 13 175 -3 166 -4 175 -22 175 -18 0 -20 -7 -20 -61z m-20 -79 c16 -16
20 -33 20 -80 0 -82 -35 -117 -94 -94 -37 14 -44 145 -9 179 20 21 59 19 83
-5z"/>
<path d="M18160 1180 c0 -13 7 -20 20 -20 13 0 20 7 20 20 0 13 -7 20 -20 20
-13 0 -20 -7 -20 -20z"/>
<path d="M16460 1015 l0 -165 105 0 c98 0 105 1 105 20 0 18 -7 20 -85 20
l-85 0 0 145 c0 138 -1 145 -20 145 -19 0 -20 -7 -20 -165z"/>
<path d="M17900 1015 l0 -165 105 0 c98 0 105 1 105 20 0 18 -7 20 -85 20
l-85 0 0 145 c0 138 -1 145 -20 145 -19 0 -20 -7 -20 -165z"/>
<path d="M18520 1144 c0 -17 -6 -28 -20 -31 -23 -6 -27 -33 -5 -33 12 0 15
-18 15 -99 0 -111 9 -131 61 -131 35 0 41 27 7 32 -22 3 -23 8 -26 101 l-3 97
26 0 c16 0 25 6 25 15 0 9 -9 15 -25 15 -21 0 -25 5 -25 30 0 20 -5 30 -15 30
-9 0 -15 -10 -15 -26z"/>
<path d="M16720 980 c0 -123 1 -130 20 -130 19 0 20 7 20 130 0 123 -1 130
-20 130 -19 0 -20 -7 -20 -130z"/>
<path d="M16830 980 c0 -123 1 -130 20 -130 19 0 20 7 20 95 0 82 3 98 20 115
11 11 30 20 43 20 46 0 52 -13 55 -125 4 -95 6 -105 23 -105 17 0 19 8 19 105
0 99 -2 107 -25 130 -30 31 -86 34 -114 6 -19 -19 -19 -19 -24 0 -3 10 -12 19
-21 19 -14 0 -16 -18 -16 -130z"/>
<path d="M17271 1096 c-35 -19 -50 -54 -51 -114 0 -95 46 -141 132 -129 48 6
92 42 69 57 -10 6 -23 2 -39 -11 -35 -27 -76 -25 -101 7 -12 15 -21 35 -21 45
0 17 9 19 91 19 l92 0 -6 43 c-11 79 -96 122 -166 83z m101 -33 c9 -10 19 -28
22 -40 7 -22 5 -23 -63 -23 -79 0 -86 8 -50 54 24 31 68 35 91 9z"/>
<path d="M18160 980 c0 -123 1 -130 20 -130 19 0 20 7 20 130 0 123 -1 130
-20 130 -19 0 -20 -7 -20 -130z"/>
<path d="M18295 1098 c-27 -15 -35 -28 -35 -59 0 -34 24 -54 89 -73 70 -21 85
-40 55 -70 -22 -23 -80 -20 -105 5 -11 11 -27 18 -35 15 -39 -15 11 -57 74
-64 139 -13 166 109 32 148 -29 8 -58 23 -63 32 -27 42 62 68 98 28 10 -11 24
-20 32 -20 22 0 15 27 -13 49 -30 23 -96 28 -129 9z"/>
<path d="M20590 1025 c0 -168 1 -175 20 -175 17 0 20 7 20 43 0 30 6 49 18 60
18 16 21 14 62 -43 33 -45 50 -60 68 -60 l24 0 -26 35 c-14 19 -37 50 -51 68
-14 19 -25 38 -25 43 0 6 20 30 45 54 49 49 54 60 26 60 -10 0 -44 -27 -74
-60 -31 -33 -58 -60 -61 -60 -4 0 -6 47 -6 105 0 98 -1 105 -20 105 -19 0 -20
-7 -20 -175z"/>
<path d="M19700 1173 c-33 -12 -60 -47 -60 -78 0 -44 33 -71 110 -91 88 -22
100 -30 100 -63 0 -22 -7 -31 -30 -41 -43 -18 -120 -7 -141 19 -18 21 -44 28
-53 13 -9 -15 25 -54 60 -68 103 -43 227 14 209 96 -9 39 -47 63 -125 80 -65
14 -95 38 -86 68 12 37 113 45 146 12 18 -18 60 -28 60 -14 0 19 -26 48 -55
60 -34 14 -106 18 -135 7z"/>
<path d="M19965 1140 c-4 -16 -13 -30 -21 -30 -8 0 -14 -7 -14 -15 0 -8 7 -15
15 -15 12 0 15 -18 15 -103 0 -114 6 -127 57 -127 38 0 47 27 11 32 -22 3 -23
8 -26 101 l-3 97 26 0 c16 0 25 6 25 15 0 9 -9 15 -25 15 -21 0 -25 5 -25 30
0 19 -5 30 -14 30 -8 0 -17 -13 -21 -30z"/>
<path d="M20116 1089 c-14 -11 -26 -27 -26 -35 0 -21 33 -17 48 6 8 13 23 20
45 20 38 0 57 -15 57 -46 0 -19 -6 -22 -60 -26 -76 -5 -104 -29 -103 -85 2
-51 33 -77 86 -70 21 3 47 13 57 22 17 16 19 15 30 -4 13 -25 70 -30 70 -6 0
8 -6 15 -14 15 -20 0 -26 23 -26 106 0 66 -3 78 -25 99 -32 33 -100 35 -139 4z
m124 -134 c0 -31 -41 -75 -69 -75 -38 0 -51 11 -51 46 0 40 19 53 78 54 38 0
42 -2 42 -25z"/>
<path d="M20380 1082 c-52 -53 -52 -152 1 -205 27 -26 35 -29 75 -24 47 5 79
26 87 58 4 15 0 19 -19 19 -14 0 -24 -6 -24 -15 0 -35 -67 -46 -95 -15 -26 29
-26 132 0 160 25 28 76 24 90 -7 5 -13 18 -23 27 -23 33 0 18 44 -23 65 -45
24 -87 19 -119 -13z"/>
<path d="M21995 1166 c-72 -32 -105 -111 -85 -198 14 -54 59 -102 109 -113 20
-4 37 -17 46 -36 20 -38 57 -61 92 -57 40 4 45 38 5 38 -25 0 -62 25 -62 43 0
3 20 15 45 26 36 16 50 29 65 63 41 90 13 194 -62 228 -50 23 -110 25 -153 6z
m133 -40 c15 -8 34 -26 42 -41 19 -35 16 -116 -4 -148 -37 -55 -136 -62 -185
-13 -23 23 -26 35 -26 90 0 67 16 99 60 117 32 12 83 10 113 -5z"/>
<path d="M22290 1000 c0 -97 2 -112 20 -130 26 -26 80 -26 114 1 l26 20 0 -20
c0 -14 6 -21 20 -21 19 0 20 7 20 130 0 121 -1 130 -19 130 -17 0 -19 -10 -23
-94 -4 -106 -20 -136 -68 -136 -44 0 -50 16 -50 127 0 96 -1 103 -20 103 -19
0 -20 -7 -20 -110z"/>
<path d="M22600 1097 c-31 -15 -60 -71 -60 -117 0 -109 111 -170 190 -103 28
23 30 27 15 36 -12 6 -23 3 -39 -12 -42 -40 -107 -18 -120 42 l-6 27 90 0 90
0 0 29 c0 47 -17 79 -49 96 -36 18 -77 19 -111 2z m100 -37 c11 -11 20 -29 20
-40 0 -18 -7 -20 -65 -20 -58 0 -65 2 -65 20 0 28 35 60 65 60 14 0 34 -9 45
-20z"/>
<path d="M22820 1005 c0 -99 2 -107 25 -130 34 -35 101 -30 127 9 5 6 8 1 8
-11 0 -16 6 -23 20 -23 19 0 20 7 20 130 0 123 -1 130 -20 130 -19 0 -20 -7
-20 -95 0 -107 -14 -135 -70 -135 -41 0 -50 23 -50 134 0 89 -1 96 -20 96 -19
0 -20 -7 -20 -105z"/>
<path d="M23131 1096 c-35 -19 -50 -54 -51 -114 0 -95 46 -141 132 -129 48 6
92 42 69 57 -10 6 -23 2 -39 -11 -35 -27 -76 -25 -101 7 -12 15 -21 35 -21 45
0 17 9 19 91 19 l92 0 -6 43 c-11 79 -96 122 -166 83z m101 -33 c9 -10 19 -28
22 -40 7 -22 5 -23 -63 -23 -79 0 -86 8 -50 54 24 31 68 35 91 9z"/>
<path d="M1000 6390 c0 -7 343 -10 1010 -10 667 0 1010 3 1010 10 0 7 -343 10
-1010 10 -667 0 -1010 -3 -1010 -10z"/>
<path d="M5400 6100 l0 -300 -1900 0 -1900 0 0 -300 0 -300 -322 0 c-370 0
-416 -6 -546 -70 -241 -119 -373 -397 -317 -665 49 -233 237 -421 470 -470
103 -22 1347 -22 1450 0 176 37 335 158 414 315 22 44 43 96 47 115 3 19 10
35 14 35 4 0 11 -16 14 -35 4 -19 25 -71 47 -115 79 -157 238 -278 414 -315
103 -22 1347 -22 1450 0 176 37 335 158 414 315 22 44 43 96 47 115 8 45 20
45 28 0 4 -19 25 -71 47 -115 79 -157 238 -278 414 -315 103 -22 1347 -22
1450 0 176 37 335 158 414 315 22 44 43 96 47 115 3 19 10 35 14 35 4 0 11
-16 14 -35 4 -19 25 -71 47 -115 79 -157 238 -278 414 -315 103 -22 1347 -22
1450 0 327 68 539 393 470 720 -37 178 -159 336 -317 415 -130 64 -176 70
-545 70 l-323 0 0 300 0 300 -1700 0 -1700 0 0 300 c0 193 -4 300 -10 300 -6
0 -10 -107 -10 -300z m-1400 -610 l0 -290 -322 0 c-370 0 -416 -6 -546 -70
-112 -56 -205 -148 -261 -260 -22 -44 -43 -96 -47 -115 -8 -45 -20 -45 -28 0
-4 19 -25 71 -47 115 -56 112 -149 204 -261 260 -130 64 -176 70 -545 70
l-323 0 0 290 0 290 1190 0 1190 0 0 -290z m2600 0 l0 -290 -422 0 c-479 0
-510 -4 -646 -70 -112 -56 -205 -148 -261 -260 -22 -44 -43 -96 -47 -115 -8
-45 -20 -45 -28 0 -4 19 -25 71 -47 115 -56 112 -149 204 -261 260 -130 64
-176 70 -545 70 l-323 0 0 290 0 290 1290 0 1290 0 0 -290z m2200 0 l0 -290
-322 0 c-370 0 -416 -6 -546 -70 -112 -56 -205 -148 -261 -260 -22 -44 -43
-96 -47 -115 -8 -45 -20 -45 -28 0 -4 19 -25 71 -47 115 -56 112 -149 204
-261 260 -122 60 -185 70 -445 70 l-223 0 0 290 0 290 1090 0 1090 0 0 -290z
m-6465 -325 c265 -55 465 -303 465 -575 0 -272 -200 -520 -465 -575 -103 -22
-1347 -22 -1450 0 -265 55 -465 303 -465 575 0 270 200 519 460 574 98 21
1355 22 1455 1z m2400 0 c265 -55 465 -303 465 -575 0 -272 -200 -520 -465
-575 -103 -22 -1347 -22 -1450 0 -265 55 -465 303 -465 575 0 270 200 519 460
574 98 21 1355 22 1455 1z m2400 0 c265 -55 465 -303 465 -575 0 -272 -200
-520 -465 -575 -103 -22 -1347 -22 -1450 0 -265 55 -465 303 -465 575 0 270
200 519 460 574 98 21 1355 22 1455 1z m2400 0 c265 -55 465 -303 465 -575 0
-272 -200 -520 -465 -575 -103 -22 -1347 -22 -1450 0 -265 55 -465 303 -465
575 0 270 200 519 460 574 98 21 1355 22 1455 1z"/>
<path d="M790 4625 l0 -195 25 0 25 0 0 195 0 195 -25 0 -25 0 0 -195z"/>
<path d="M1267 4793 c-4 -3 -7 -17 -7 -31 0 -15 -7 -26 -20 -29 -23 -6 -27
-43 -5 -43 12 0 15 -19 15 -113 0 -136 11 -160 68 -155 47 4 58 35 15 40 l-28
3 -3 113 -3 112 26 0 c18 0 25 5 25 20 0 15 -7 20 -25 20 -22 0 -25 4 -25 35
0 33 -16 46 -33 28z"/>
<path d="M1011 4714 c-30 -25 -31 -25 -31 -5 0 16 -6 21 -25 21 l-25 0 0 -150
0 -150 25 0 c25 0 25 0 25 94 0 136 19 176 84 176 48 0 56 -21 56 -151 l0
-119 25 0 25 0 0 120 c0 87 -4 129 -15 149 -24 48 -96 55 -144 15z"/>
<path d="M1460 4728 c-44 -24 -70 -75 -70 -139 0 -126 59 -185 166 -164 35 6
84 44 84 63 0 21 -38 18 -59 -4 -48 -49 -126 -21 -138 49 l-6 37 107 0 c103 0
106 1 106 23 0 42 -20 93 -45 117 -29 28 -108 37 -145 18z m95 -34 c16 -6 45
-54 45 -74 0 -6 -31 -10 -80 -10 -74 0 -80 2 -80 20 0 46 66 83 115 64z"/>
<path d="M1751 4724 c-33 -24 -51 -74 -51 -144 0 -33 6 -76 14 -94 28 -68 100
-87 155 -40 l31 26 0 -32 c0 -33 -15 -70 -34 -82 -22 -15 -70 -8 -92 13 -29
27 -70 18 -54 -12 24 -43 116 -63 170 -36 50 25 60 66 60 245 l0 162 -25 0
c-19 0 -25 -5 -25 -22 -1 -20 -2 -21 -13 -7 -31 40 -96 51 -136 23z m120 -50
c21 -22 24 -35 24 -94 0 -59 -3 -72 -24 -94 -30 -32 -71 -34 -97 -5 -15 17
-19 36 -19 99 0 63 4 82 19 99 26 29 67 27 97 -5z"/>
<path d="M2072 4720 c-41 -25 -62 -73 -62 -140 0 -96 51 -160 128 -160 44 0
98 24 111 48 14 27 14 29 -5 36 -10 4 -25 -3 -40 -19 -41 -45 -113 -31 -133
26 -20 59 -20 59 94 59 l105 0 0 30 c0 39 -22 90 -49 114 -32 29 -108 32 -149
6z m116 -37 c12 -10 24 -30 28 -45 l6 -28 -81 0 c-50 0 -81 4 -81 10 0 18 29
68 42 73 27 11 67 6 86 -10z"/>
<path d="M2405 4714 c-24 -26 -25 -26 -25 -5 0 14 -6 21 -20 21 -19 0 -20 -7
-20 -150 l0 -150 25 0 25 0 0 108 c0 123 11 152 61 152 24 0 29 4 29 25 0 35
-43 34 -75 -1z"/>
<path d="M4490 4635 l0 -205 25 0 25 0 0 205 0 205 -25 0 -25 0 0 -205z"/>
<path d="M3470 4625 l0 -195 25 0 c25 0 25 1 25 80 l0 80 59 0 59 0 51 -80
c41 -65 55 -80 76 -80 14 0 25 3 25 8 -1 4 -23 41 -50 82 l-49 74 28 12 c40
17 61 52 61 99 0 87 -50 115 -205 115 l-105 0 0 -195z m223 144 c30 -16 37
-28 37 -66 0 -53 -37 -73 -131 -73 l-79 0 0 75 0 75 76 0 c41 0 85 -5 97 -11z"/>
<path d="M3912 4720 c-41 -25 -62 -73 -62 -140 0 -96 51 -160 128 -160 44 0
98 24 111 48 14 27 14 29 -5 36 -10 4 -25 -3 -40 -19 -41 -45 -113 -31 -133
26 -20 59 -20 59 94 59 l105 0 0 30 c0 39 -22 90 -49 114 -32 29 -108 32 -149
6z m116 -37 c12 -10 24 -30 28 -45 l6 -28 -81 0 c-50 0 -81 4 -81 10 0 18 29
68 42 73 27 11 67 6 86 -10z"/>
<path d="M4230 4733 c-27 -10 -50 -36 -50 -55 0 -24 31 -23 53 2 21 24 79 27
101 4 9 -8 16 -29 16 -45 0 -27 -2 -29 -42 -29 -61 0 -115 -17 -133 -43 -24
-35 -19 -94 11 -124 22 -22 32 -25 71 -20 31 3 54 13 74 33 26 25 29 26 29 8
0 -28 19 -44 52 -44 21 0 28 5 28 20 0 11 -6 20 -14 20 -21 0 -26 23 -26 125
0 84 -2 97 -23 121 -19 22 -33 28 -78 30 -30 2 -61 1 -69 -3z m120 -190 c-1
-46 -42 -83 -93 -83 -32 0 -49 22 -45 57 4 34 37 53 96 53 39 0 42 -2 42 -27z"/>
<path d="M6430 4815 c0 -20 5 -25 25 -25 20 0 25 5 25 25 0 20 -5 25 -25 25
-20 0 -25 -5 -25 -25z"/>
<path d="M5805 4823 c-64 -17 -96 -77 -71 -136 16 -40 47 -59 126 -77 99 -23
126 -46 114 -96 -8 -32 -52 -54 -106 -54 -48 0 -108 31 -108 56 0 11 -6 14
-22 8 -32 -9 -33 -11 -17 -41 39 -73 216 -85 278 -19 12 13 25 42 28 63 8 63
-27 96 -132 124 -94 24 -110 33 -120 66 -4 17 1 30 20 49 24 24 32 26 82 22
45 -4 61 -10 77 -30 15 -18 27 -23 43 -19 20 5 21 8 10 31 -24 48 -121 73
-202 53z"/>
<path d="M6106 4765 c-5 -26 -12 -35 -26 -35 -13 0 -20 -7 -20 -20 0 -13 7
-20 20 -20 19 0 20 -7 20 -119 0 -135 7 -151 66 -151 27 0 34 4 34 20 0 13 -7
20 -20 20 -31 0 -40 31 -40 134 l0 96 30 0 c23 0 30 4 30 20 0 16 -7 20 -30
20 -28 0 -30 3 -30 35 0 23 -5 35 -14 35 -8 0 -17 -15 -20 -35z"/>
<path d="M6326 4724 c-9 -8 -16 -20 -16 -25 0 -5 -4 -9 -10 -9 -5 0 -10 9 -10
20 0 13 -7 20 -20 20 -19 0 -20 -7 -20 -150 l0 -150 24 0 c24 0 24 1 28 116 3
101 6 117 22 130 11 8 30 14 43 14 18 0 23 6 23 25 0 20 -5 25 -24 25 -14 0
-32 -7 -40 -16z"/>
<path d="M6660 4733 c-8 -3 -25 -15 -37 -26 l-23 -20 0 21 c0 15 -6 22 -20 22
-19 0 -20 -7 -20 -150 l0 -150 25 0 25 0 0 110 c0 105 1 112 25 136 19 19 34
24 57 22 47 -4 58 -33 58 -160 0 -101 1 -108 20 -108 19 0 20 7 20 130 0 126
-1 132 -25 155 -23 24 -67 32 -105 18z"/>
<path d="M6911 4724 c-13 -9 -29 -32 -37 -50 -19 -45 -18 -158 1 -199 29 -59
102 -73 154 -29 l31 26 0 -35 c0 -75 -82 -117 -129 -65 -16 17 -25 19 -42 12
l-22 -10 25 -29 c33 -38 117 -46 165 -16 44 28 53 68 53 249 l0 152 -25 0
c-19 0 -25 -5 -25 -21 0 -20 -1 -20 -31 5 -35 30 -83 34 -118 10z m123 -57
c30 -40 29 -134 0 -174 -35 -47 -93 -44 -114 7 -18 44 -9 153 15 180 26 29 72
23 99 -13z"/>
<path d="M6430 4580 l0 -150 25 0 25 0 0 150 0 150 -25 0 -25 0 0 -150z"/>
<path d="M8640 4815 c0 -20 5 -25 25 -25 20 0 25 5 25 25 0 20 -5 25 -25 25
-20 0 -25 -5 -25 -25z"/>
<path d="M7970 4625 l0 -195 25 0 c24 0 25 2 25 75 l0 75 70 0 c120 0 170 35
170 120 0 90 -48 120 -195 120 l-95 0 0 -195z m203 144 c30 -16 37 -28 37 -69
0 -62 -29 -80 -124 -80 l-66 0 0 80 0 80 66 0 c36 0 75 -5 87 -11z"/>
<path d="M9096 4784 c-3 -9 -6 -24 -6 -35 0 -12 -7 -19 -20 -19 -13 0 -20 -7
-20 -20 0 -11 6 -20 14 -20 11 0 15 -25 18 -121 3 -107 5 -122 23 -135 26 -19
79 -14 83 8 2 12 -5 17 -25 20 l-28 3 -3 113 -3 112 31 0 c23 0 30 4 30 20 0
16 -7 20 -30 20 -28 0 -30 3 -30 35 0 37 -22 49 -34 19z"/>
<path d="M8390 4727 c-44 -22 -70 -73 -70 -139 0 -66 16 -113 50 -143 17 -15
36 -20 80 -20 44 0 63 5 80 20 74 66 64 242 -15 279 -40 19 -91 20 -125 3z
m111 -46 c19 -15 24 -30 27 -83 7 -105 -36 -157 -107 -132 -39 14 -52 49 -49
128 3 57 8 71 27 87 30 24 72 24 102 0z"/>
<path d="M8870 4733 c-8 -3 -25 -15 -37 -26 l-23 -20 0 21 c0 15 -6 22 -20 22
-19 0 -20 -7 -20 -150 l0 -150 25 0 25 0 0 110 c0 105 1 112 25 136 19 19 34
24 57 22 47 -4 58 -33 58 -160 0 -101 1 -108 20 -108 19 0 20 7 20 130 0 126
-1 132 -25 155 -23 24 -67 32 -105 18z"/>
<path d="M9293 4725 c-17 -7 -40 -28 -50 -47 -24 -45 -24 -151 1 -196 37 -71
155 -83 210 -21 28 32 29 33 8 40 -17 6 -28 2 -46 -16 -27 -27 -64 -32 -98
-14 -18 10 -48 65 -48 89 0 6 40 10 108 10 l108 0 -6 48 c-3 26 -12 57 -18 69
-27 49 -105 66 -169 38z m114 -47 c13 -12 23 -32 23 -45 0 -22 -3 -23 -81 -23
-79 0 -80 0 -74 23 20 64 87 87 132 45z"/>
<path d="M9615 4714 c-24 -26 -25 -26 -25 -5 0 14 -6 21 -20 21 -19 0 -20 -7
-20 -150 l0 -150 25 0 25 0 0 108 c0 123 11 152 61 152 24 0 29 4 29 25 0 35
-43 34 -75 -1z"/>
<path d="M8640 4580 l0 -150 25 0 25 0 0 150 0 150 -25 0 -25 0 0 -150z"/>
</g>
</svg>
