<?xml version="1.0" standalone="no"?>
<!DOCTYPE svg PUBLIC "-//W3C//DTD SVG 20010904//EN"
 "http://www.w3.org/TR/2001/REC-SVG-20010904/DTD/svg10.dtd">
<svg version="1.0" xmlns="http://www.w3.org/2000/svg"
 width="669.000000pt" height="204.000000pt" viewBox="0 0 669.000000 204.000000"
 preserveAspectRatio="xMidYMid meet">

<g transform="translate(0.000000,204.000000) scale(0.100000,-0.100000)"
fill="#000000" stroke="none">
<path d="M1777 1803 c-2 -5 -1 -19 4 -33 7 -23 7 -23 8 8 1 31 -3 40 -12 25z"/>
<path d="M1814 1796 c-9 -24 4 -48 23 -44 24 4 24 52 0 56 -9 2 -20 -4 -23
-12z m36 -16 c0 -21 -15 -27 -25 -10 -7 12 2 30 16 30 5 0 9 -9 9 -20z"/>
<path d="M1647 1701 c-43 -28 -45 -34 -4 -15 20 10 37 21 37 26 0 10 1 10 -33
-11z"/>
<path d="M1940 1716 c0 -3 9 -10 20 -16 11 -6 20 -8 20 -6 0 3 -9 10 -20 16
-11 6 -20 8 -20 6z"/>
<path d="M2010 1675 c0 -2 32 -21 70 -40 39 -19 70 -33 70 -30 0 2 -31 21 -70
40 -38 19 -70 33 -70 30z"/>
<path d="M1558 1649 c-21 -11 -38 -22 -38 -24 0 -3 18 4 40 15 22 11 40 23 40
25 0 7 0 7 -42 -16z"/>
<path d="M5140 1655 c-17 -21 -10 -26 39 -28 37 -2 41 0 41 20 0 27 -7 29 -32
6 -17 -15 -18 -15 -18 0 0 21 -14 22 -30 2z m20 -5 c0 -5 -5 -10 -11 -10 -5 0
-7 5 -4 10 3 6 8 10 11 10 2 0 4 -4 4 -10z"/>
<path d="M1468 1599 c-21 -11 -38 -22 -38 -24 0 -3 18 4 40 15 22 11 40 23 40
25 0 7 0 7 -42 -16z"/>
<path d="M2180 1585 c0 -2 32 -21 70 -40 39 -19 70 -33 70 -30 0 2 -31 21 -70
40 -38 19 -70 33 -70 30z"/>
<path d="M5008 1564 c-38 -20 -36 -28 2 -9 17 9 30 18 30 20 0 7 -1 6 -32 -11z"/>
<path d="M1338 1527 c-43 -24 -81 -47 -85 -52 -10 -10 148 74 162 86 17 16 1
9 -77 -34z"/>
<path d="M5340 1565 c0 -2 32 -21 70 -40 39 -19 70 -33 70 -30 0 2 -31 21 -70
40 -38 19 -70 33 -70 30z"/>
<path d="M4928 1519 c-21 -11 -38 -22 -38 -24 0 -3 18 4 40 15 22 11 40 23 40
25 0 7 0 7 -42 -16z"/>
<path d="M2350 1495 c0 -2 23 -16 50 -30 28 -14 50 -23 50 -20 0 2 -22 16 -50
30 -27 14 -50 23 -50 20z"/>
<path d="M4818 1459 c-21 -11 -38 -22 -38 -24 0 -3 18 4 40 15 22 11 40 23 40
25 0 7 0 7 -42 -16z"/>
<path d="M1214 1454 c-18 -14 -18 -15 4 -4 12 6 22 13 22 15 0 8 -5 6 -26 -11z"/>
<path d="M5550 1455 c0 -2 23 -16 50 -30 28 -14 50 -23 50 -20 0 2 -22 16 -50
30 -27 14 -50 23 -50 20z"/>
<path d="M4718 1404 c-38 -20 -36 -28 2 -9 17 9 30 18 30 20 0 7 -1 6 -32 -11z"/>
<path d="M1030 1390 c-9 -6 -10 -10 -3 -10 6 0 14 -10 16 -22 3 -17 5 -14 6
10 1 36 2 35 -19 22z"/>
<path d="M1081 1382 c-7 -14 -5 -21 9 -30 23 -14 31 -4 23 26 -7 27 -19 28
-32 4z"/>
<path d="M2548 1395 c-7 -7 2 -55 11 -55 3 0 6 14 6 30 0 29 -5 36 -17 25z"/>
<path d="M2590 1385 c0 -9 8 -19 17 -22 15 -6 15 -7 -3 -15 -18 -8 -18 -8 1
-5 14 1 21 11 23 30 3 22 -1 27 -17 27 -12 0 -21 -7 -21 -15z m30 -5 c0 -5 -4
-10 -10 -10 -5 0 -10 5 -10 10 0 6 5 10 10 10 6 0 10 -4 10 -10z"/>
<path d="M4640 1360 c-9 -6 -10 -10 -3 -10 6 0 15 5 18 10 8 12 4 12 -15 0z"/>
<path d="M5720 1366 c0 -3 9 -10 20 -16 11 -6 20 -8 20 -6 0 3 -9 10 -20 16
-11 6 -20 8 -20 6z"/>
<path d="M4484 1294 c3 -8 2 -12 -3 -9 -5 3 -12 1 -16 -5 -3 -5 0 -10 9 -10 8
0 17 -6 19 -12 3 -7 6 2 6 20 1 17 -4 32 -10 32 -6 0 -8 -7 -5 -16z"/>
<path d="M4514 1298 c-5 -8 -2 -9 9 -5 18 7 24 -8 7 -18 -16 -10 -12 -25 8
-25 13 0 14 2 4 9 -10 6 -10 10 2 21 9 7 13 16 10 21 -8 13 -32 11 -40 -3z"/>
<path d="M5830 1300 c0 -5 6 -7 13 -4 8 3 13 -4 14 -17 2 -16 -2 -19 -15 -14
-13 5 -14 3 -5 -6 16 -16 33 -2 33 27 0 17 -5 24 -20 24 -11 0 -20 -4 -20 -10z"/>
<path d="M5880 1295 c0 -8 7 -15 15 -15 8 0 15 -5 15 -11 0 -6 -7 -8 -17 -4
-14 5 -15 3 -6 -6 6 -6 16 -8 22 -5 17 11 13 36 -6 37 -15 0 -15 2 2 9 19 8
19 9 -2 9 -14 1 -23 -5 -23 -14z"/>
<path d="M845 1184 c-60 -52 -121 -107 -135 -121 -27 -28 122 96 205 171 91
82 42 47 -70 -50z"/>
<path d="M1225 1235 c53 -51 225 -198 225 -192 0 4 -207 187 -246 216 -11 9
-2 -2 21 -24z"/>
<path d="M2359 1179 c-62 -56 -123 -111 -134 -122 l-20 -21 20 15 c11 7 67 56
125 108 134 120 135 121 129 121 -3 0 -57 -45 -120 -101z"/>
<path d="M2820 1168 c111 -95 195 -160 155 -121 -32 32 -274 233 -280 233 -4
0 53 -51 125 -112z"/>
<path d="M4330 1134 c-41 -36 -86 -77 -100 -91 -14 -14 21 13 78 61 88 76 111
98 100 96 -2 -1 -37 -30 -78 -66z"/>
<path d="M4610 1197 c0 -2 26 -26 58 -53 31 -26 48 -38 37 -25 -22 25 -95 85
-95 78z"/>
<path d="M5667 1104 c-59 -52 -107 -98 -107 -101 0 -3 37 28 81 68 45 41 96
86 113 101 17 15 28 27 25 28 -3 0 -54 -43 -112 -96z"/>
<path d="M5971 1198 c2 -2 18 -14 34 -28 l30 -25 -24 28 c-14 15 -29 27 -34
27 -6 0 -8 -1 -6 -2z"/>
<path d="M6040 1147 c0 -3 42 -40 93 -82 50 -42 72 -58 47 -35 -62 58 -140
123 -140 117z"/>
<path d="M4733 1094 c9 -15 127 -118 127 -111 0 2 -30 31 -67 63 -37 33 -64
54 -60 48z"/>
<path d="M4174 998 l-19 -23 23 19 c21 18 27 26 19 26 -2 0 -12 -10 -23 -22z"/>
<path d="M524 959 c-4 -8 1 -9 17 -4 l24 7 -24 -26 -24 -26 29 1 c16 0 23 3
16 6 -10 4 -10 8 -2 19 7 7 9 18 5 24 -8 13 -32 13 -41 -1z"/>
<path d="M582 943 c3 -31 32 -43 42 -18 4 12 0 19 -14 22 -11 3 -17 9 -14 14
3 5 0 9 -6 9 -6 0 -10 -12 -8 -27z m28 -13 c0 -5 -4 -10 -10 -10 -5 0 -10 5
-10 10 0 6 5 10 10 10 6 0 10 -4 10 -10z"/>
<path d="M1520 960 c0 -5 6 -7 13 -4 8 3 13 -4 14 -16 2 -17 -2 -20 -19 -14
-14 4 -18 2 -14 -5 4 -6 16 -11 27 -11 14 0 19 7 19 30 0 23 -4 30 -20 30 -11
0 -20 -4 -20 -10z"/>
<path d="M1587 963 c-2 -5 -1 -19 4 -33 7 -23 7 -23 8 8 1 31 -3 40 -12 25z"/>
<path d="M2075 948 c4 -16 3 -19 -3 -9 -5 7 -12 9 -15 4 -3 -5 3 -14 13 -21
11 -6 21 -8 24 -4 7 12 -5 52 -16 52 -5 0 -6 -10 -3 -22z"/>
<path d="M2110 960 c0 -5 7 -7 15 -4 8 4 15 2 15 -4 0 -5 -7 -12 -15 -16 -23
-8 -18 -26 8 -26 16 0 18 3 8 9 -9 6 -10 11 -2 15 18 12 12 36 -9 36 -11 0
-20 -4 -20 -10z"/>
<path d="M3045 960 c-3 -6 1 -7 9 -4 21 8 20 -5 -1 -28 -15 -17 -15 -18 13
-17 18 1 22 3 11 6 -17 4 -17 5 -1 17 9 7 14 18 10 24 -9 15 -33 16 -41 2z"/>
<path d="M3107 963 c8 -3 11 -15 7 -31 l-6 -27 16 29 c20 36 20 36 -6 35 -13
0 -17 -3 -11 -6z"/>
<path d="M4025 921 c-3 -7 0 -8 9 -5 11 4 14 0 13 -15 -1 -13 -6 -20 -14 -17
-7 3 -13 1 -13 -4 0 -6 9 -10 21 -10 16 0 20 5 17 27 -3 28 -22 41 -33 24z"/>
<path d="M4075 920 c-3 -6 -1 -9 6 -8 18 4 18 -26 -1 -34 -11 -5 -9 -7 8 -7
20 -1 23 3 20 26 -3 28 -22 41 -33 23z"/>
<path d="M4914 919 c-5 -9 -2 -10 9 -6 11 4 15 0 14 -14 -1 -11 -7 -17 -14
-15 -7 3 -13 1 -13 -4 0 -6 9 -10 21 -10 16 0 20 5 17 27 -3 29 -22 41 -34 22z"/>
<path d="M5452 917 c-9 -10 -7 -17 9 -30 18 -16 20 -16 26 -1 3 8 -1 22 -9 30
-12 13 -17 13 -26 1z m23 -7 c3 -5 1 -10 -4 -10 -6 0 -11 5 -11 10 0 6 2 10 4
10 3 0 8 -4 11 -10z"/>
<path d="M6295 920 c-3 -5 2 -10 12 -10 17 -1 17 -1 1 -14 -24 -18 -23 -26 5
-25 12 0 16 3 9 6 -10 4 -10 8 -2 19 12 13 6 34 -10 34 -5 0 -12 -4 -15 -10z"/>
<path d="M6340 920 c0 -5 4 -10 9 -10 5 0 7 -10 4 -22 -4 -21 -4 -21 9 2 10
17 11 27 4 32 -15 11 -26 10 -26 -2z"/>
<path d="M4971 913 c0 -5 4 -17 9 -28 8 -18 9 -17 9 8 1 15 -3 27 -9 27 -5 0
-10 -3 -9 -7z"/>
<path d="M5411 913 c0 -5 4 -17 9 -28 8 -18 9 -17 9 8 1 15 -3 27 -9 27 -5 0
-10 -3 -9 -7z"/>
<path d="M485 788 l-16 -33 20 25 c20 24 26 40 16 40 -2 0 -12 -15 -20 -32z"/>
<path d="M640 818 c0 -6 62 -112 80 -138 6 -8 -5 17 -25 55 -34 65 -55 97 -55
83z"/>
<path d="M1475 788 l-16 -33 20 25 c20 24 26 40 16 40 -2 0 -12 -15 -20 -32z"/>
<path d="M4876 764 c-5 -14 -4 -15 9 -4 17 14 19 20 6 20 -5 0 -12 -7 -15 -16z"/>
<path d="M4155 730 c9 -16 18 -30 21 -30 2 0 -2 14 -11 30 -9 17 -18 30 -21
30 -2 0 2 -13 11 -30z"/>
<path d="M440 710 c-11 -22 -18 -40 -15 -40 2 0 14 18 25 40 11 22 18 40 15
40 -2 0 -14 -18 -25 -40z"/>
<path d="M1435 720 c-9 -16 -13 -30 -11 -30 3 0 12 14 21 30 9 17 13 30 11 30
-3 0 -12 -13 -21 -30z"/>
<path d="M3960 720 c-6 -11 -8 -20 -6 -20 3 0 10 9 16 20 6 11 8 20 6 20 -3 0
-10 -9 -16 -20z"/>
<path d="M4835 690 c-9 -16 -13 -30 -11 -30 3 0 12 14 21 30 9 17 13 30 11 30
-3 0 -12 -13 -21 -30z"/>
<path d="M1385 630 c-14 -27 -23 -50 -20 -50 2 0 16 23 30 50 14 28 23 50 20
50 -2 0 -16 -22 -30 -50z"/>
<path d="M3910 630 c-11 -22 -18 -40 -15 -40 2 0 14 18 25 40 11 22 18 40 15
40 -2 0 -14 -18 -25 -40z"/>
<path d="M4205 640 c9 -16 18 -30 21 -30 2 0 -2 14 -11 30 -9 17 -18 30 -21
30 -2 0 2 -13 11 -30z"/>
<path d="M390 620 c-11 -22 -18 -40 -15 -40 2 0 14 18 25 40 11 22 18 40 15
40 -2 0 -14 -18 -25 -40z"/>
<path d="M756 610 c15 -28 29 -49 31 -47 4 5 -47 97 -53 97 -3 0 7 -23 22 -50z"/>
<path d="M4790 610 c-6 -11 -8 -20 -6 -20 3 0 10 9 16 20 6 11 8 20 6 20 -3 0
-10 -9 -16 -20z"/>
<path d="M4245 570 c9 -16 18 -30 21 -30 2 0 -2 14 -11 30 -9 17 -18 30 -21
30 -2 0 2 -13 11 -30z"/>
<path d="M3870 560 c-6 -11 -8 -20 -6 -20 3 0 10 9 16 20 6 11 8 20 6 20 -3 0
-10 -9 -16 -20z"/>
<path d="M355 559 c-4 -6 -5 -12 -2 -15 2 -3 7 2 10 11 7 17 1 20 -8 4z"/>
<path d="M1345 559 c-4 -6 -5 -12 -2 -15 2 -3 7 2 10 11 7 17 1 20 -8 4z"/>
<path d="M833 443 c-7 -3 -13 -9 -13 -14 0 -4 6 -6 13 -3 8 3 13 -4 14 -17 1
-14 -3 -19 -13 -15 -8 3 -14 1 -14 -4 0 -5 21 -8 47 -7 37 2 49 6 51 20 2 11
-3 17 -15 17 -15 0 -16 2 -3 10 13 8 12 10 -2 10 -10 0 -18 -7 -18 -15 0 -8 7
-15 15 -15 8 0 15 -5 15 -11 0 -6 -7 -8 -16 -5 -9 3 -20 6 -25 6 -5 0 -9 9 -9
19 0 22 -9 30 -27 24z"/>
<path d="M1285 440 c-4 -6 -2 -10 3 -10 5 0 12 -9 15 -21 4 -15 2 -19 -10 -15
-8 3 -19 6 -24 6 -5 0 -9 9 -9 20 0 13 -7 20 -20 20 -11 0 -20 -4 -20 -10 0
-5 6 -7 13 -4 8 3 13 -4 14 -17 1 -14 -3 -19 -13 -15 -8 3 -14 1 -14 -4 0 -5
21 -8 47 -7 44 2 48 4 50 29 2 26 -21 46 -32 28z"/>
<path d="M3767 443 c-2 -5 -1 -19 4 -33 7 -23 7 -23 8 8 1 31 -3 40 -12 25z"/>
<path d="M3804 435 c-8 -21 3 -48 19 -43 19 7 22 58 2 58 -8 0 -18 -7 -21 -15z
m26 -16 c0 -11 -4 -17 -10 -14 -5 3 -10 13 -10 21 0 8 5 14 10 14 6 0 10 -9
10 -21z"/>
<path d="M4290 439 c0 -5 8 -6 18 -2 16 6 16 5 0 -14 -25 -28 -23 -33 17 -31
41 1 67 24 40 34 -12 5 -13 9 -5 14 6 4 -7 7 -29 7 -23 0 -41 -3 -41 -8z m40
-29 c0 -5 -4 -10 -10 -10 -5 0 -10 5 -10 10 0 6 5 10 10 10 6 0 10 -4 10 -10z
m30 0 c0 -5 -2 -10 -4 -10 -3 0 -8 5 -11 10 -3 6 -1 10 4 10 6 0 11 -4 11 -10z"/>
<path d="M4657 443 c-3 -5 -1 -17 4 -28 7 -17 8 -17 8 8 1 27 -4 34 -12 20z"/>
<path d="M4719 443 c-1 -5 -1 -12 0 -16 1 -5 -3 -6 -8 -3 -5 4 -12 2 -16 -4
-3 -5 0 -10 9 -10 8 0 17 -6 19 -12 3 -7 6 2 6 20 1 28 -7 46 -10 25z"/>
<path d="M242 428 c-17 -17 -15 -26 8 -38 18 -10 20 -8 20 20 0 32 -8 38 -28
18z"/>
<path d="M297 423 c-15 -18 -15 -19 3 -31 23 -14 33 -2 22 28 -8 20 -8 21 -25
3z"/>
<path d="M1977 343 c10 -35 10 -98 1 -143 -7 -31 -6 -33 6 -17 23 29 29 94 16
143 -7 24 -17 44 -21 44 -5 0 -6 -12 -2 -27z"/>
<path d="M5390 293 l0 -78 32 -2 c41 -3 58 12 58 52 0 38 -21 60 -50 52 -17
-4 -20 0 -20 24 0 16 -4 29 -10 29 -6 0 -10 -32 -10 -77z m68 -27 c4 -32 -15
-51 -35 -34 -14 11 -18 50 -6 62 15 15 38 -1 41 -28z"/>
<path d="M5515 353 c14 -35 17 -99 6 -138 -6 -21 -8 -41 -6 -43 8 -8 35 66 35
95 0 41 -19 103 -32 103 -6 0 -7 -7 -3 -17z"/>
<path d="M1864 308 c-5 -7 0 -9 14 -6 12 4 26 0 33 -8 12 -15 6 -19 -36 -26
-14 -2 -20 -11 -20 -28 0 -22 4 -25 43 -26 40 -2 42 0 42 26 0 50 -17 80 -44
80 -14 0 -28 -5 -32 -12z m56 -57 c0 -5 -7 -14 -15 -21 -18 -15 -42 1 -31 19
8 13 46 15 46 2z"/>
</g>
</svg>
