<?xml version="1.0" standalone="no"?>
<!DOCTYPE svg PUBLIC "-//W3C//DTD SVG 20010904//EN"
 "http://www.w3.org/TR/2001/REC-SVG-20010904/DTD/svg10.dtd">
<svg version="1.0" xmlns="http://www.w3.org/2000/svg"
 width="602.000000pt" height="419.000000pt" viewBox="0 0 602.000000 419.000000"
 preserveAspectRatio="xMidYMid meet">

<g transform="translate(0.000000,419.000000) scale(0.100000,-0.100000)"
fill="#000000" stroke="none">
<path d="M2883 4003 c4 -3 -1 -16 -10 -27 -18 -21 -18 -21 5 -2 24 21 29 36
10 36 -6 0 -8 -3 -5 -7z"/>
<path d="M2950 3984 c0 -14 4 -23 9 -20 5 3 7 15 4 26 -7 28 -13 25 -13 -6z"/>
<path d="M1065 3991 c3 -5 -5 -17 -17 -25 -13 -9 -17 -16 -9 -16 14 0 40 28
41 43 0 4 -5 7 -11 7 -5 0 -8 -4 -4 -9z"/>
<path d="M1128 3988 c-7 -16 7 -45 14 -32 3 5 2 18 -2 28 -5 16 -8 17 -12 4z"/>
<path d="M4720 3990 c12 -7 12 -12 2 -22 -6 -6 -12 -16 -12 -21 0 -5 9 1 19
14 21 26 19 39 -7 39 -15 0 -15 -2 -2 -10z"/>
<path d="M4790 3993 c5 -2 8 -8 6 -12 -3 -4 0 -13 5 -21 8 -12 9 -9 7 9 -2 14
-9 26 -16 27 -7 1 -8 0 -2 -3z"/>
<path d="M1200 3961 c0 -8 261 -163 267 -158 2 2 -57 40 -132 85 -74 44 -135
77 -135 73z"/>
<path d="M3149 3890 c73 -45 135 -79 138 -77 4 5 -252 157 -264 157 -5 0 52
-36 126 -80z"/>
<path d="M4870 3953 c1 -9 250 -156 256 -151 2 2 -36 27 -84 56 -48 28 -106
63 -129 77 -24 15 -43 23 -43 18z"/>
<path d="M2637 3863 c-70 -41 -126 -77 -124 -80 4 -3 253 140 266 153 18 18
-34 -9 -142 -73z"/>
<path d="M817 3853 c-70 -41 -126 -77 -124 -80 4 -3 253 140 266 153 19 18
-34 -9 -142 -73z"/>
<path d="M4480 3845 c-69 -41 -120 -75 -114 -75 9 0 239 132 253 146 20 19
-34 -9 -139 -71z"/>
<path d="M3335 3750 c2 -31 15 -37 15 -7 0 15 -4 27 -8 27 -5 0 -8 -9 -7 -20z"/>
<path d="M3385 3745 c0 -14 6 -25 13 -25 6 0 12 11 12 25 0 14 -6 25 -12 25
-7 0 -13 -11 -13 -25z"/>
<path d="M1506 3732 l-19 -27 24 22 c12 12 21 24 18 27 -2 2 -13 -8 -23 -22z"/>
<path d="M1550 3740 c0 -11 2 -20 4 -20 2 0 6 9 9 20 3 11 1 20 -4 20 -5 0 -9
-9 -9 -20z"/>
<path d="M1592 3740 c0 -14 2 -19 5 -12 2 6 2 18 0 25 -3 6 -5 1 -5 -13z"/>
<path d="M5165 3740 c-10 -12 -13 -20 -7 -20 7 0 12 5 12 10 0 6 5 10 11 10 5
0 8 -4 4 -9 -3 -5 -1 -12 5 -16 5 -3 10 3 10 14 0 29 -15 33 -35 11z"/>
<path d="M5238 3735 c2 -14 8 -25 12 -25 4 0 5 11 2 25 -2 14 -8 25 -12 25 -4
0 -5 -11 -2 -25z"/>
<path d="M590 3739 c0 -5 5 -7 10 -4 6 3 10 8 10 11 0 2 -4 4 -10 4 -5 0 -10
-5 -10 -11z"/>
<path d="M4215 3740 c-3 -5 -1 -10 4 -10 6 0 11 5 11 10 0 6 -2 10 -4 10 -3 0
-8 -4 -11 -10z"/>
<path d="M4306 3738 c4 -6 -1 -17 -11 -25 -11 -7 -14 -13 -9 -13 14 0 34 22
34 37 0 7 -5 13 -11 13 -5 0 -7 -5 -3 -12z"/>
<path d="M2443 3725 c0 -8 4 -12 9 -9 4 3 8 9 8 15 0 5 -4 9 -8 9 -5 0 -9 -7
-9 -15z"/>
<path d="M623 3715 c0 -8 4 -12 9 -9 4 3 8 9 8 15 0 5 -4 9 -8 9 -5 0 -9 -7
-9 -15z"/>
<path d="M4246 3715 c4 -8 8 -15 10 -15 2 0 4 7 4 15 0 8 -4 15 -10 15 -5 0
-7 -7 -4 -15z"/>
<path d="M3440 3695 c0 -12 50 -104 60 -110 15 -9 13 -1 -17 60 -23 47 -43 70
-43 50z"/>
<path d="M1620 3685 c0 -2 10 -26 23 -52 21 -45 37 -66 45 -59 5 6 -52 116
-60 116 -4 0 -8 -2 -8 -5z"/>
<path d="M3213 3637 c-28 -23 -52 -45 -52 -49 -2 -20 29 -2 74 42 61 60 49 64
-22 7z"/>
<path d="M5292 3672 c2 -4 12 -29 23 -55 11 -26 26 -47 33 -47 8 0 12 3 10 8
-28 59 -54 102 -61 102 -5 0 -7 -4 -5 -8z"/>
<path d="M1393 3627 c-28 -23 -52 -45 -52 -49 -2 -19 23 -4 71 42 64 60 53 64
-19 7z"/>
<path d="M2335 3660 c-4 -6 -29 -29 -57 -50 -27 -22 -43 -40 -34 -40 9 0 39
22 68 50 29 27 48 50 41 50 -6 0 -15 -5 -18 -10z"/>
<path d="M2510 3666 c0 -17 54 -115 60 -111 10 6 -39 115 -52 115 -4 0 -8 -2
-8 -4z"/>
<path d="M5061 3619 c-29 -28 -51 -52 -48 -55 5 -5 113 87 110 94 -4 11 -12 6
-62 -39z"/>
<path d="M470 3610 c-30 -27 -48 -49 -40 -49 8 0 38 22 65 49 65 64 46 64 -25
0z"/>
<path d="M690 3655 c0 -11 46 -101 55 -107 15 -11 26 2 12 16 -7 7 -21 32 -31
55 -11 22 -23 41 -28 41 -4 0 -8 -2 -8 -5z"/>
<path d="M4360 3650 c0 -20 50 -110 61 -110 12 0 13 -2 -24 68 -27 51 -37 62
-37 42z"/>
<path d="M4159 3624 c-13 -15 -37 -35 -53 -45 -22 -13 -26 -20 -15 -24 9 -3
35 14 68 45 29 27 47 50 39 50 -8 0 -25 -12 -39 -26z"/>
<path d="M2618 3545 c-8 -8 3 -55 12 -55 5 0 7 11 6 25 -3 27 -10 38 -18 30z"/>
<path d="M800 3516 c0 -14 5 -26 10 -26 6 0 10 9 10 19 0 11 -4 23 -10 26 -6
4 -10 -5 -10 -19z"/>
<path d="M1717 3533 c-3 -5 -1 -17 4 -28 7 -17 8 -17 8 8 1 27 -4 34 -12 20z"/>
<path d="M1774 3518 c-15 -19 -16 -20 -1 -9 15 12 17 11 17 -3 0 -9 4 -16 9
-16 4 0 6 11 3 25 -5 30 -4 30 -28 3z"/>
<path d="M2685 3515 c0 -14 5 -25 11 -25 7 0 9 10 6 25 -2 14 -7 25 -11 25 -3
0 -6 -11 -6 -25z"/>
<path d="M3083 3533 c4 -3 0 -15 -10 -25 -19 -21 -8 -25 13 -4 17 18 18 36 2
36 -6 0 -8 -3 -5 -7z"/>
<path d="M3123 3524 c-3 -8 -2 -19 3 -24 5 -5 9 1 9 16 0 28 -3 30 -12 8z"/>
<path d="M3155 3515 c0 -13 3 -21 8 -18 4 2 7 10 7 18 0 8 -3 16 -7 18 -5 3
-8 -5 -8 -18z"/>
<path d="M3535 3515 c0 -14 3 -25 8 -25 4 0 7 11 7 25 0 14 -3 25 -7 25 -5 0
-8 -11 -8 -25z"/>
<path d="M3590 3525 c-8 -9 -8 -15 -2 -15 6 0 13 6 15 13 3 7 6 5 6 -5 1 -10
6 -18 11 -18 12 0 12 3 4 24 -8 20 -18 20 -34 1z"/>
<path d="M330 3515 c0 -8 7 -15 15 -15 21 0 19 -18 -2 -23 -15 -4 -15 -5 -2
-6 9 0 22 6 29 15 11 13 10 16 -8 21 -12 3 -19 9 -16 14 3 5 0 9 -5 9 -6 0
-11 -7 -11 -15z"/>
<path d="M410 3520 c12 -7 12 -12 2 -22 -21 -21 -13 -30 9 -9 23 21 18 41 -9
41 -15 0 -15 -2 -2 -10z"/>
<path d="M867 3510 c3 -11 7 -20 9 -20 2 0 4 9 4 20 0 11 -4 20 -9 20 -5 0 -7
-9 -4 -20z"/>
<path d="M1245 3510 c-10 -12 -13 -20 -7 -20 7 0 12 5 12 10 0 6 4 10 10 10 5
0 7 -7 4 -15 -4 -8 -1 -15 5 -15 13 0 15 36 2 44 -4 3 -16 -3 -26 -14z"/>
<path d="M1319 3528 c-6 -20 -2 -58 6 -58 7 0 10 12 7 30 -4 25 -9 38 -13 28z"/>
<path d="M2240 3515 c0 -8 -5 -15 -12 -15 -6 0 -8 -3 -5 -6 8 -8 37 14 37 27
0 5 -4 9 -10 9 -5 0 -10 -7 -10 -15z"/>
<path d="M4469 3528 c-6 -20 -2 -58 6 -58 7 0 10 12 7 30 -4 25 -9 38 -13 28z"/>
<path d="M4534 3500 c1 -17 4 -30 9 -30 10 0 9 48 -2 54 -4 3 -8 -8 -7 -24z"/>
<path d="M5384 3500 c1 -16 6 -30 12 -30 6 0 9 13 6 30 -6 39 -19 39 -18 0z"/>
<path d="M5451 3523 c0 -5 4 -17 9 -28 8 -18 9 -17 9 8 1 15 -3 27 -9 27 -5 0
-10 -3 -9 -7z"/>
<path d="M4933 3513 c4 -3 -1 -16 -10 -27 -18 -21 -18 -21 4 -2 20 16 23 36 6
36 -4 0 -3 -3 0 -7z"/>
<path d="M4963 3504 c-3 -8 -1 -20 6 -27 8 -8 11 -4 11 16 0 30 -7 35 -17 11z"/>
<path d="M5005 3495 c0 -13 3 -21 8 -18 4 2 7 10 7 18 0 8 -3 16 -7 18 -5 3
-8 -5 -8 -18z"/>
<path d="M2180 3500 c0 -5 5 -10 10 -10 6 0 10 5 10 10 0 6 -4 10 -10 10 -5 0
-10 -4 -10 -10z"/>
<path d="M4056 3487 c3 -10 9 -15 12 -12 3 3 0 11 -7 18 -10 9 -11 8 -5 -6z"/>
<path d="M2828 3345 c2 -14 8 -25 12 -25 4 0 5 11 2 25 -2 14 -8 25 -12 25 -4
0 -5 -11 -2 -25z"/>
<path d="M2895 3360 c-3 -5 -2 -10 4 -10 6 0 8 -7 5 -15 -4 -8 -1 -15 5 -15
13 0 15 36 2 45 -5 3 -12 1 -16 -5z"/>
<path d="M4745 3350 c-10 -11 -13 -20 -7 -20 7 0 12 5 12 10 0 6 5 10 11 10 5
0 8 -4 4 -9 -3 -5 -1 -12 5 -16 6 -4 10 5 10 19 0 31 -11 33 -35 6z"/>
<path d="M4818 3345 c2 -14 8 -25 12 -25 4 0 5 11 2 25 -2 14 -8 25 -12 25 -4
0 -5 -11 -2 -25z"/>
<path d="M1120 3346 c0 -8 -8 -20 -17 -25 -14 -8 -15 -10 -3 -11 19 0 43 37
30 45 -6 3 -10 -1 -10 -9z"/>
<path d="M1060 3324 c0 -8 5 -12 10 -9 6 4 8 11 5 16 -9 14 -15 11 -15 -7z"/>
<path d="M1200 3322 c0 -9 261 -164 267 -159 2 2 -57 40 -132 85 -74 44 -135
77 -135 74z"/>
<path d="M3020 3302 c0 -9 249 -156 254 -151 2 2 -54 39 -125 81 -71 42 -129
74 -129 70z"/>
<path d="M4952 3295 c13 -13 254 -152 257 -149 6 5 14 0 -127 82 -109 64 -147
83 -130 67z"/>
<path d="M817 3213 c-70 -41 -126 -77 -124 -79 3 -4 253 139 266 152 20 19
-35 -9 -142 -73z"/>
<path d="M2630 3199 c-63 -38 -119 -75 -125 -81 -5 -6 1 -5 15 3 14 9 73 44
133 78 59 35 107 65 107 67 0 10 -22 -1 -130 -67z"/>
<path d="M4560 3199 c-63 -38 -119 -70 -125 -72 -5 -3 -8 -7 -5 -10 4 -4 240
130 257 147 20 19 -25 -3 -127 -65z"/>
<path d="M1514 3100 c0 -11 4 -20 8 -20 4 0 8 9 8 20 0 11 -4 20 -8 20 -4 0
-8 -9 -8 -20z"/>
<path d="M1568 3095 c2 -14 8 -25 13 -25 5 0 9 11 9 25 0 14 -6 25 -14 25 -9
0 -12 -8 -8 -25z"/>
<path d="M5240 3095 c0 -14 4 -25 9 -25 4 0 6 11 3 25 -2 14 -6 25 -8 25 -2 0
-4 -11 -4 -25z"/>
<path d="M5295 3100 c-10 -12 -13 -20 -7 -20 7 0 12 5 12 10 0 6 4 10 10 10 5
0 7 -7 4 -15 -4 -8 -1 -15 5 -15 13 0 15 36 2 44 -4 3 -16 -3 -26 -14z"/>
<path d="M567 3084 c-10 -13 -14 -24 -10 -24 9 0 36 40 31 45 -2 2 -11 -8 -21
-21z"/>
<path d="M642 3086 c1 -14 5 -23 9 -20 7 4 0 44 -7 44 -2 0 -3 -11 -2 -24z"/>
<path d="M3310 3095 c-7 -9 -10 -18 -6 -22 3 -3 6 -1 6 5 0 19 18 14 23 -5 3
-11 5 -7 6 10 1 30 -10 35 -29 12z"/>
<path d="M3384 3085 c1 -33 16 -33 16 0 0 14 -4 25 -9 25 -5 0 -8 -11 -7 -25z"/>
<path d="M2386 3088 c4 -6 -1 -17 -11 -25 -11 -7 -14 -13 -9 -13 14 0 34 22
34 37 0 7 -5 13 -11 13 -5 0 -7 -5 -3 -12z"/>
<path d="M2455 3080 c6 -30 16 -40 12 -12 -2 12 -6 24 -10 28 -3 4 -4 -4 -2
-16z"/>
<path d="M4315 3091 c5 -9 1 -19 -10 -28 -11 -7 -14 -13 -8 -13 6 0 16 7 23
15 11 13 11 18 0 28 -10 10 -11 9 -5 -2z"/>
<path d="M4383 3078 c1 -16 5 -28 9 -28 10 0 9 9 -2 35 -8 17 -8 16 -7 -7z"/>
<path d="M1620 3045 c0 -11 46 -101 55 -107 15 -11 26 2 12 16 -7 7 -21 32
-31 55 -11 22 -23 41 -28 41 -4 0 -8 -2 -8 -5z"/>
<path d="M1393 2987 c-28 -23 -52 -45 -52 -49 -2 -19 23 -4 71 42 64 60 53 65
-19 7z"/>
<path d="M3457 2975 c15 -30 33 -55 39 -55 7 0 0 22 -18 55 -16 30 -34 55 -39
55 -5 0 3 -25 18 -55z"/>
<path d="M5360 3026 c0 -13 54 -106 61 -106 13 0 11 6 -16 60 -14 28 -30 50
-35 50 -6 0 -10 -2 -10 -4z"/>
<path d="M470 2970 c-30 -27 -48 -49 -40 -49 8 0 38 22 65 49 65 64 46 64 -25
0z"/>
<path d="M690 3015 c0 -11 46 -101 55 -107 15 -11 26 2 12 16 -7 7 -21 32 -31
55 -11 22 -23 41 -28 41 -4 0 -8 -2 -8 -5z"/>
<path d="M3208 2972 c-53 -44 -68 -63 -50 -62 12 1 117 98 111 104 -2 3 -30
-16 -61 -42z"/>
<path d="M2500 3005 c0 -12 55 -115 61 -115 5 0 11 5 14 10 3 6 2 10 -3 10 -5
0 -19 23 -32 50 -13 28 -27 50 -32 50 -4 0 -8 -2 -8 -5z"/>
<path d="M4430 3001 c0 -19 50 -111 60 -111 5 0 12 5 15 10 3 6 2 10 -3 10 -5
0 -17 18 -27 40 -19 43 -45 72 -45 51z"/>
<path d="M5128 2965 c-26 -25 -41 -45 -35 -45 18 1 114 90 97 90 -8 0 -36 -21
-62 -45z"/>
<path d="M2281 2955 c-28 -24 -47 -46 -42 -49 4 -3 32 17 62 44 67 62 48 67
-20 5z"/>
<path d="M4217 2961 c-23 -21 -49 -41 -57 -43 -13 -5 -13 -6 0 -12 10 -4 34
11 70 44 30 27 49 50 42 50 -7 0 -31 -17 -55 -39z"/>
<path d="M367 2883 c-10 -9 -9 -23 1 -23 5 0 9 7 9 15 0 17 -1 18 -10 8z"/>
<path d="M798 2865 c5 -28 22 -24 22 6 0 10 -6 19 -14 19 -9 0 -12 -8 -8 -25z"/>
<path d="M868 2865 c2 -14 6 -25 8 -25 2 0 4 11 4 25 0 14 -4 25 -9 25 -4 0
-6 -11 -3 -25z"/>
<path d="M1718 2865 c2 -14 6 -25 8 -25 2 0 4 11 4 25 0 14 -4 25 -9 25 -4 0
-6 -11 -3 -25z"/>
<path d="M1769 2873 c-13 -16 -12 -17 4 -4 15 12 17 11 17 -3 0 -9 4 -16 9
-16 5 0 7 9 4 20 -7 25 -16 25 -34 3z"/>
<path d="M1255 2860 c-10 -11 -15 -20 -11 -20 11 0 39 30 34 36 -3 2 -13 -5
-23 -16z"/>
<path d="M1300 2860 c0 -11 4 -20 9 -20 5 0 7 9 4 20 -3 11 -7 20 -9 20 -2 0
-4 -9 -4 -20z"/>
<path d="M1337 2861 c-4 -17 -3 -21 5 -13 5 5 8 16 6 23 -3 8 -7 3 -11 -10z"/>
<path d="M2614 2855 c1 -33 16 -33 16 0 0 14 -4 25 -9 25 -5 0 -8 -11 -7 -25z"/>
<path d="M2678 2855 c2 -14 6 -25 8 -25 2 0 4 11 4 25 0 14 -4 25 -9 25 -4 0
-6 -11 -3 -25z"/>
<path d="M3510 2869 c0 -5 5 -7 10 -4 6 3 10 8 10 11 0 2 -4 4 -10 4 -5 0 -10
-5 -10 -11z"/>
<path d="M3593 2873 c18 -5 18 -5 0 -26 l-18 -22 22 19 c24 20 22 37 -5 35
-15 -1 -14 -2 1 -6z"/>
<path d="M4540 2856 c0 -14 5 -26 10 -26 6 0 10 9 10 19 0 11 -4 23 -10 26 -6
4 -10 -5 -10 -19z"/>
<path d="M4608 2855 c2 -14 6 -25 8 -25 2 0 4 11 4 25 0 14 -4 25 -9 25 -4 0
-6 -11 -3 -25z"/>
<path d="M5440 2869 c0 -5 5 -7 10 -4 6 3 10 8 10 11 0 2 -4 4 -10 4 -5 0 -10
-5 -10 -11z"/>
<path d="M5528 2873 c10 -4 9 -10 -5 -27 l-18 -21 22 19 c23 19 22 37 0 35 -8
0 -8 -2 1 -6z"/>
<path d="M2170 2859 c0 -5 5 -7 10 -4 6 3 10 8 10 11 0 2 -4 4 -10 4 -5 0 -10
-5 -10 -11z"/>
<path d="M3067 2844 c-10 -13 -14 -24 -10 -24 9 0 36 40 31 45 -2 2 -11 -8
-21 -21z"/>
<path d="M3112 2850 c0 -14 2 -19 5 -12 2 6 2 18 0 25 -3 6 -5 1 -5 -13z"/>
<path d="M3148 2845 c-6 -30 -2 -32 12 -6 6 11 6 22 1 25 -5 3 -11 -5 -13 -19z"/>
<path d="M4101 2854 c0 -11 3 -14 6 -6 3 7 2 16 -1 19 -3 4 -6 -2 -5 -13z"/>
<path d="M4997 2848 c-10 -11 -16 -22 -13 -26 6 -6 35 27 36 41 0 10 -2 8 -23
-15z"/>
<path d="M5040 2851 c0 -11 4 -22 9 -25 4 -3 6 6 3 19 -5 30 -12 33 -12 6z"/>
<path d="M5082 2850 c0 -14 2 -19 5 -12 2 6 2 18 0 25 -3 6 -5 1 -5 -13z"/>
<path d="M390 2850 c0 -5 -7 -10 -17 -10 -9 0 -14 -3 -10 -6 8 -8 47 5 47 17
0 5 -4 9 -10 9 -5 0 -10 -4 -10 -10z"/>
<path d="M3543 2845 c0 -8 4 -12 9 -9 5 3 6 10 3 15 -9 13 -12 11 -12 -6z"/>
<path d="M5470 2844 c0 -8 5 -12 10 -9 6 4 8 11 5 16 -9 14 -15 11 -15 -7z"/>
<path d="M2203 2835 c0 -8 4 -12 9 -9 5 3 6 10 3 15 -9 13 -12 11 -12 -6z"/>
<path d="M4130 2829 c0 -5 5 -7 10 -4 6 3 10 8 10 11 0 2 -4 4 -10 4 -5 0 -10
-5 -10 -11z"/>
<path d="M2905 2700 c-3 -5 -1 -10 4 -10 6 0 11 5 11 10 0 6 -2 10 -4 10 -3 0
-8 -4 -11 -10z"/>
<path d="M2966 2701 c-4 -6 -2 -11 4 -11 6 0 8 -4 5 -10 -3 -5 -1 -10 4 -10
13 0 14 10 2 29 -6 9 -11 10 -15 2z"/>
<path d="M4794 2685 c1 -33 16 -33 16 0 0 14 -4 25 -9 25 -5 0 -8 -11 -7 -25z"/>
<path d="M4858 2685 c2 -14 6 -25 8 -25 2 0 4 11 4 25 0 14 -4 25 -9 25 -4 0
-6 -11 -3 -25z"/>
<path d="M1097 2682 c1 -3 -4 -14 -14 -24 -20 -22 -8 -24 14 -2 10 9 12 18 6
23 -5 5 -8 6 -6 3z"/>
<path d="M1130 2660 c0 -11 4 -20 9 -20 5 0 7 9 4 20 -3 11 -7 20 -9 20 -2 0
-4 -9 -4 -20z"/>
<path d="M1167 2661 c-4 -17 -3 -21 5 -13 5 5 8 16 6 23 -3 8 -7 3 -11 -10z"/>
<path d="M3086 2651 c15 -16 246 -153 251 -148 2 2 -52 37 -119 77 -143 85
-146 87 -132 71z"/>
<path d="M4983 2643 c8 -13 248 -155 253 -150 2 1 -36 26 -84 55 -48 28 -107
64 -131 78 -24 15 -41 22 -38 17z"/>
<path d="M1275 2622 c16 -16 247 -152 259 -152 6 0 -43 32 -109 71 -140 83
-164 96 -150 81z"/>
<path d="M2695 2549 c-71 -44 -125 -79 -119 -79 6 0 64 32 130 71 131 79 129
78 123 82 -2 2 -62 -31 -134 -74z"/>
<path d="M4593 2538 c-67 -40 -120 -74 -118 -76 2 -2 61 30 132 72 70 42 124
76 118 76 -5 0 -65 -33 -132 -72z"/>
<path d="M888 2522 c-70 -42 -126 -78 -124 -80 3 -2 60 29 128 69 138 81 133
78 127 82 -2 2 -61 -30 -131 -71z"/>
<path d="M3385 2435 c0 -14 5 -25 11 -25 7 0 9 10 6 25 -2 14 -7 25 -11 25 -3
0 -6 -11 -6 -25z"/>
<path d="M3442 2448 c-7 -7 -12 -16 -12 -22 0 -5 7 -1 15 10 14 18 14 18 15
-4 0 -13 4 -21 9 -18 10 7 3 46 -8 46 -4 0 -12 -5 -19 -12z"/>
<path d="M2453 2444 c4 -7 0 -17 -8 -24 -8 -7 -15 -17 -15 -23 0 -6 10 -1 22
11 19 18 20 24 9 34 -8 8 -11 8 -8 2z"/>
<path d="M5284 2425 c0 -14 4 -25 9 -25 10 0 9 38 -2 44 -5 3 -8 -5 -7 -19z"/>
<path d="M5340 2435 c-7 -9 -10 -18 -6 -22 3 -3 6 -1 6 5 0 7 5 12 11 12 5 0
8 -4 4 -9 -3 -5 -1 -12 5 -16 6 -4 10 5 10 19 0 29 -12 33 -30 11z"/>
<path d="M2484 2429 c-3 -6 -1 -16 5 -22 8 -8 11 -5 11 11 0 24 -5 28 -16 11z"/>
<path d="M2527 2420 c-3 -11 -1 -20 4 -20 5 0 9 9 9 20 0 11 -2 20 -4 20 -2 0
-6 -9 -9 -20z"/>
<path d="M4343 2433 c18 -5 18 -5 0 -26 l-18 -22 22 19 c24 20 22 37 -5 35
-15 -1 -14 -2 1 -6z"/>
<path d="M4390 2425 c-11 -13 -11 -18 0 -28 10 -10 11 -9 5 2 -5 9 -1 19 10
28 11 7 14 13 8 13 -6 0 -16 -7 -23 -15z"/>
<path d="M1575 2405 c0 -14 5 -25 11 -25 7 0 9 10 6 25 -2 14 -7 25 -11 25 -3
0 -6 -11 -6 -25z"/>
<path d="M1629 2413 c-13 -16 -12 -17 4 -4 15 12 17 11 17 -8 0 -12 4 -20 9
-17 10 7 3 46 -9 46 -4 0 -14 -8 -21 -17z"/>
<path d="M4427 2411 c-4 -17 -3 -21 5 -13 5 5 8 16 6 23 -3 8 -7 3 -11 -10z"/>
<path d="M706 2405 c-3 -8 -1 -15 4 -15 6 0 10 7 10 15 0 8 -2 15 -4 15 -2 0
-6 -7 -10 -15z"/>
<path d="M635 2390 c-10 -11 -15 -20 -11 -20 11 0 39 30 34 36 -3 2 -13 -5
-23 -16z"/>
<path d="M3500 2375 c0 -16 52 -105 61 -105 6 0 9 3 7 8 -27 57 -54 102 -60
102 -4 0 -8 -2 -8 -5z"/>
<path d="M3271 2320 c-30 -28 -52 -52 -49 -56 6 -5 110 82 116 98 8 19 -17 4
-67 -42z"/>
<path d="M5402 2362 c2 -4 12 -29 23 -55 11 -26 26 -47 33 -47 8 0 12 3 10 8
-28 59 -54 102 -61 102 -5 0 -7 -4 -5 -8z"/>
<path d="M2570 2350 c0 -20 50 -110 61 -110 12 0 13 -2 -24 68 -27 51 -37 62
-37 42z"/>
<path d="M5170 2309 c-30 -26 -52 -51 -48 -54 3 -4 31 16 62 44 30 28 52 52
48 55 -4 2 -32 -18 -62 -45z"/>
<path d="M1690 2345 c0 -15 52 -105 60 -105 14 0 13 2 -16 59 -14 28 -29 51
-35 51 -5 0 -9 -2 -9 -5z"/>
<path d="M2379 2333 c-8 -9 -31 -29 -53 -44 -27 -21 -34 -30 -24 -34 9 -4 34
14 65 45 27 27 45 50 38 50 -7 0 -19 -8 -26 -17z"/>
<path d="M4468 2345 c-4 -5 14 -47 49 -114 1 -1 6 0 11 3 6 3 -3 29 -20 61
-31 58 -31 58 -40 50z"/>
<path d="M1460 2291 c-30 -27 -52 -52 -49 -56 4 -3 29 14 55 39 27 25 52 46
57 46 4 0 7 5 7 10 0 18 -14 10 -70 -39z"/>
<path d="M4243 2295 c-30 -25 -47 -45 -39 -48 6 -3 35 17 63 44 64 60 47 63
-24 4z"/>
<path d="M585 2320 c-4 -6 -29 -28 -56 -50 -36 -28 -45 -40 -33 -44 22 -8 24
-8 25 7 0 6 20 29 45 49 24 20 40 39 35 43 -5 3 -13 1 -16 -5z"/>
<path d="M760 2320 c0 -18 50 -110 60 -110 5 0 12 5 15 10 3 6 2 10 -3 10 -5
0 -21 23 -36 50 -27 50 -36 60 -36 40z"/>
<path d="M2680 2205 c0 -14 4 -25 9 -25 4 0 6 11 3 25 -2 14 -6 25 -8 25 -2 0
-4 -11 -4 -25z"/>
<path d="M2744 2205 c1 -33 16 -33 16 0 0 14 -4 25 -9 25 -5 0 -8 -11 -7 -25z"/>
<path d="M3581 2214 c0 -11 3 -14 6 -6 3 7 2 16 -1 19 -3 4 -6 -2 -5 -13z"/>
<path d="M3666 2218 c4 -6 -1 -17 -11 -25 -11 -7 -14 -13 -8 -13 14 0 44 35
36 43 -11 12 -25 8 -17 -5z"/>
<path d="M3119 2203 c-13 -16 -12 -17 4 -4 15 12 17 11 17 -3 0 -9 5 -16 10
-16 12 0 12 3 4 24 -8 21 -18 20 -35 -1z"/>
<path d="M3198 2195 c2 -14 6 -25 8 -25 2 0 4 11 4 25 0 14 -4 25 -9 25 -4 0
-6 -11 -3 -25z"/>
<path d="M4591 2208 c-1 -9 -9 -22 -18 -27 -10 -6 -13 -11 -7 -11 17 0 37 27
31 42 -4 8 -6 7 -6 -4z"/>
<path d="M5025 2198 c-15 -17 -16 -19 -2 -9 15 12 17 11 17 -3 0 -9 5 -16 10
-16 11 0 12 7 1 33 -6 17 -8 17 -26 -5z"/>
<path d="M5475 2210 c-3 -5 -1 -10 4 -10 6 0 11 5 11 10 0 6 -2 10 -4 10 -3 0
-8 -4 -11 -10z"/>
<path d="M5571 2208 c-1 -9 -9 -22 -18 -27 -10 -6 -13 -11 -7 -11 17 0 37 27
31 42 -4 8 -6 7 -6 -4z"/>
<path d="M3606 2195 c4 -8 8 -15 10 -15 2 0 4 7 4 15 0 8 -4 15 -10 15 -5 0
-7 -7 -4 -15z"/>
<path d="M4650 2203 c0 -5 5 -15 10 -23 7 -12 9 -10 7 8 -1 19 -17 33 -17 15z"/>
<path d="M5095 2185 c0 -14 5 -25 11 -25 7 0 9 10 6 25 -2 14 -7 25 -11 25 -3
0 -6 -11 -6 -25z"/>
<path d="M868 2175 c2 -14 8 -25 12 -25 4 0 5 11 2 25 -2 14 -8 25 -12 25 -4
0 -5 -11 -2 -25z"/>
<path d="M934 2175 c1 -33 16 -33 16 0 0 14 -4 25 -9 25 -5 0 -8 -11 -7 -25z"/>
<path d="M1314 2177 c-16 -18 -16 -19 -1 -8 15 12 17 11 17 -3 0 -9 5 -16 10
-16 12 0 13 37 1 44 -4 3 -17 -4 -27 -17z"/>
<path d="M1860 2186 c0 -8 -8 -20 -17 -25 -10 -6 -13 -11 -7 -11 18 0 47 37
35 45 -6 3 -11 -1 -11 -9z"/>
<path d="M2266 2185 c4 -8 10 -12 15 -9 11 6 2 24 -11 24 -5 0 -7 -7 -4 -15z"/>
<path d="M5506 2185 c4 -8 8 -15 10 -15 2 0 4 7 4 15 0 8 -4 15 -10 15 -5 0
-7 -7 -4 -15z"/>
<path d="M1387 2170 c3 -11 7 -20 9 -20 2 0 4 9 4 20 0 11 -4 20 -9 20 -5 0
-7 -9 -4 -20z"/>
<path d="M4171 2174 c0 -11 3 -14 6 -6 3 7 2 16 -1 19 -3 4 -6 -2 -5 -13z"/>
<path d="M1796 2165 c4 -8 8 -15 10 -15 2 0 4 7 4 15 0 8 -4 15 -10 15 -5 0
-7 -7 -4 -15z"/>
<path d="M460 2154 c0 -8 5 -12 10 -9 6 4 8 11 5 16 -9 14 -15 11 -15 -7z"/>
<path d="M4955 1889 c-11 -16 -1 -19 13 -3 7 8 8 14 3 14 -5 0 -13 -5 -16 -11z"/>
<path d="M2960 1880 c13 -8 13 -13 2 -32 -13 -23 -13 -23 7 1 23 25 20 41 -7
41 -15 0 -15 -2 -2 -10z"/>
<path d="M3013 1883 c-14 -5 -18 -39 -5 -47 5 -3 8 4 8 16 -1 32 22 33 27 1
l5 -28 -2 29 c-1 30 -11 38 -33 29z"/>
<path d="M4980 1856 c0 -8 -8 -17 -17 -19 -15 -4 -15 -5 -2 -6 21 -1 44 25 29
34 -5 3 -10 -1 -10 -9z"/>
<path d="M1178 1820 c2 -16 6 -30 8 -30 2 0 4 14 4 30 0 17 -4 30 -8 30 -5 0
-7 -13 -4 -30z"/>
<path d="M1238 1820 c2 -16 6 -30 8 -30 2 0 4 14 4 30 0 17 -4 30 -8 30 -5 0
-7 -13 -4 -30z"/>
<path d="M5100 1816 c0 -7 232 -178 236 -173 4 4 -221 177 -231 177 -3 0 -5
-2 -5 -4z"/>
<path d="M3126 1801 c20 -18 201 -149 229 -166 l30 -17 -25 21 c-48 40 -228
171 -236 171 -4 0 -4 -4 2 -9z"/>
<path d="M1341 1792 c6 -15 231 -184 237 -177 3 3 3 6 1 8 -2 1 -57 42 -123
91 -65 48 -117 83 -115 78z"/>
<path d="M4726 1698 c-69 -51 -122 -94 -117 -96 7 -2 214 148 246 179 28 28
-17 -1 -129 -83z"/>
<path d="M2760 1684 c-63 -47 -117 -90 -119 -95 -2 -6 50 28 115 76 134 98
142 105 129 105 -6 0 -62 -39 -125 -86z"/>
<path d="M980 1679 c-58 -45 -112 -84 -120 -89 -8 -5 -12 -11 -9 -14 3 -3 57
33 120 80 124 93 138 104 124 103 -6 0 -57 -36 -115 -80z"/>
<path d="M5381 1600 c-2 -3 -3 -20 -4 -38 -2 -26 2 -32 18 -32 12 0 16 3 8 8
-6 4 -13 21 -16 37 -2 17 -5 28 -6 25z"/>
<path d="M5439 1583 c-9 -11 -10 -14 -1 -9 8 5 12 0 12 -13 0 -12 5 -21 10
-21 6 0 8 11 4 28 -9 35 -9 35 -25 15z"/>
<path d="M3408 1574 c-7 -6 3 -54 11 -54 10 0 12 48 2 54 -4 3 -10 3 -13 0z"/>
<path d="M3465 1560 c-20 -22 -19 -26 9 -32 10 -1 21 3 24 11 3 10 -2 11 -19
7 -23 -7 -23 -6 -5 8 11 9 17 18 14 21 -2 3 -13 -4 -23 -15z"/>
<path d="M4488 1550 c2 -16 6 -30 8 -30 2 0 4 14 4 30 0 17 -4 30 -8 30 -5 0
-7 -13 -4 -30z"/>
<path d="M4548 1550 c2 -16 7 -30 11 -30 4 0 6 14 3 30 -2 17 -7 30 -11 30 -4
0 -6 -13 -3 -30z"/>
<path d="M2519 1569 c-6 -33 -2 -69 8 -69 9 0 11 10 6 33 -5 29 -12 46 -14 36z"/>
<path d="M2581 1570 c-2 -3 -3 -20 -4 -38 -2 -25 2 -32 17 -32 14 0 16 3 8 13
-5 6 -12 23 -15 37 -2 14 -5 23 -6 20z"/>
<path d="M1620 1531 c0 -17 5 -31 10 -31 6 0 10 11 10 24 0 14 -4 28 -10 31
-6 4 -10 -7 -10 -24z"/>
<path d="M1675 1540 c-10 -11 -15 -20 -11 -20 11 0 39 30 34 36 -3 2 -13 -5
-23 -16z"/>
<path d="M741 1538 c0 -9 -8 -24 -17 -32 -8 -9 -11 -16 -6 -16 16 0 34 28 29
47 -4 16 -5 16 -6 1z"/>
<path d="M777 1543 c-9 -9 -9 -41 1 -46 4 -3 7 8 7 24 0 16 0 29 -1 29 0 0 -4
-3 -7 -7z"/>
<path d="M805 1520 c0 -15 3 -26 8 -23 4 2 7 13 7 23 0 10 -3 21 -7 23 -5 3
-8 -8 -8 -23z"/>
<path d="M1690 1520 c0 -5 5 -10 10 -10 6 0 10 5 10 10 0 6 -4 10 -10 10 -5 0
-10 -4 -10 -10z"/>
<path d="M5493 1488 c2 -7 13 -37 23 -65 10 -29 24 -53 30 -53 14 0 -36 130
-50 130 -4 0 -6 -6 -3 -12z"/>
<path d="M3520 1483 c0 -20 50 -128 61 -132 6 -2 10 0 8 5 -2 5 -15 37 -29 72
-22 54 -40 79 -40 55z"/>
<path d="M5272 1425 c-28 -30 -47 -57 -43 -59 7 -5 28 15 90 87 45 51 4 27
-47 -28z"/>
<path d="M1736 1448 c3 -13 13 -35 20 -50 8 -15 14 -34 14 -43 0 -8 7 -15 16
-15 9 0 14 4 12 8 -1 4 -14 33 -27 65 -24 55 -50 81 -35 35z"/>
<path d="M3306 1414 c-27 -30 -46 -57 -43 -61 6 -5 98 89 105 108 9 23 -18 3
-62 -47z"/>
<path d="M4402 1414 c-55 -60 -58 -64 -42 -64 17 0 107 107 98 116 -3 2 -28
-21 -56 -52z"/>
<path d="M4627 1406 c15 -36 32 -66 40 -66 15 0 18 17 4 22 -5 2 -18 25 -29
53 -11 27 -24 51 -30 53 -6 2 1 -26 15 -62z"/>
<path d="M2640 1448 c0 -13 38 -115 47 -127 2 -3 9 1 16 8 9 9 9 14 0 19 -6 4
-19 27 -29 52 -19 51 -34 72 -34 48z"/>
<path d="M1515 1399 c-26 -27 -45 -52 -42 -56 9 -8 22 3 67 57 54 65 37 65
-25 -1z"/>
<path d="M2431 1396 c-35 -36 -49 -56 -41 -61 7 -4 18 3 28 16 9 13 32 41 50
62 52 57 23 44 -37 -17z"/>
<path d="M642 1384 c-55 -60 -58 -64 -42 -64 17 0 107 107 98 116 -3 2 -28
-21 -56 -52z"/>
<path d="M850 1433 c0 -19 46 -123 53 -120 12 4 11 5 -17 70 -23 51 -36 69
-36 50z"/>
<path d="M4320 1310 c12 -7 12 -12 -4 -29 -22 -24 -12 -29 11 -6 17 17 11 45
-9 45 -9 0 -9 -3 2 -10z"/>
<path d="M4364 1306 c-3 -8 -4 -23 -1 -33 3 -12 5 -8 6 10 1 18 6 27 17 27 12
0 15 -7 11 -26 -3 -16 -1 -22 5 -16 15 15 5 46 -15 50 -9 2 -20 -3 -23 -12z"/>
<path d="M4713 1309 c18 -10 18 -12 1 -32 l-18 -22 23 21 c25 23 21 44 -7 44
-15 -1 -15 -2 1 -11z"/>
<path d="M4780 1313 c7 -3 7 -9 1 -16 -6 -8 -4 -16 4 -24 11 -10 13 -7 11 14
-2 15 -8 28 -15 29 -7 2 -7 0 -1 -3z"/>
<path d="M5567 1313 c-12 -12 -7 -21 14 -26 13 -4 18 -10 13 -18 -4 -8 -3 -10
4 -5 19 11 14 24 -10 32 -22 7 -22 7 -3 15 14 5 16 8 4 8 -9 1 -19 -2 -22 -6z"/>
<path d="M5638 1313 c18 -7 15 -30 -5 -42 -10 -6 -13 -11 -7 -11 16 0 34 22
34 42 0 11 -7 18 -17 17 -11 0 -13 -3 -5 -6z"/>
<path d="M2755 1302 c4 -8 0 -21 -11 -33 -9 -10 -13 -19 -8 -19 5 0 15 10 22
21 11 17 11 24 1 33 -9 8 -10 8 -4 -2z"/>
<path d="M3595 1301 c-3 -5 -1 -12 5 -16 5 -3 10 1 10 9 0 18 -6 21 -15 7z"/>
<path d="M5144 1294 c3 -9 6 -20 6 -25 0 -6 4 -8 9 -5 12 8 2 46 -11 46 -6 0
-7 -7 -4 -16z"/>
<path d="M5199 1296 c6 -7 9 -21 5 -30 -3 -9 -1 -16 5 -16 6 0 11 14 11 30 0
21 -5 30 -16 30 -13 0 -14 -3 -5 -14z"/>
<path d="M2817 1287 c-3 -8 -2 -20 3 -26 5 -9 8 -4 8 13 0 29 -3 32 -11 13z"/>
<path d="M3165 1278 c-16 -17 -16 -20 -2 -9 15 12 17 11 17 -10 0 -16 3 -20
10 -13 6 6 7 20 2 33 l-8 22 -19 -23z"/>
<path d="M3234 1270 c1 -16 6 -30 12 -30 6 0 9 13 6 30 -6 39 -19 39 -18 0z"/>
<path d="M3673 1274 c-12 -26 -12 -26 7 -9 20 18 26 35 13 35 -5 0 -13 -12
-20 -26z"/>
<path d="M960 1280 c12 -7 11 -12 -5 -32 l-19 -23 23 21 c23 21 22 44 -2 44
-7 0 -6 -4 3 -10z"/>
<path d="M1020 1283 c5 -2 8 -9 5 -14 -4 -5 -2 -17 4 -26 8 -15 10 -13 8 11
-1 16 -8 31 -15 32 -7 1 -8 0 -2 -3z"/>
<path d="M1805 1281 c-3 -6 4 -15 15 -21 12 -6 18 -16 14 -23 -5 -9 -4 -9 6 0
15 13 5 33 -16 33 -8 0 -12 5 -9 10 3 6 4 10 1 10 -3 0 -7 -4 -11 -9z"/>
<path d="M1883 1283 c17 -4 17 -6 1 -31 l-16 -27 22 21 c24 23 20 45 -8 43
-15 -1 -15 -2 1 -6z"/>
<path d="M2325 1279 c-4 -6 3 -13 15 -16 14 -4 19 -11 15 -22 -5 -13 -4 -13 6
-4 10 10 9 17 -9 33 -13 13 -23 16 -27 9z"/>
<path d="M535 1271 c-3 -5 -1 -12 5 -16 5 -3 10 1 10 9 0 18 -6 21 -15 7z"/>
<path d="M1385 1270 c3 -5 8 -10 11 -10 2 0 4 5 4 10 0 6 -5 10 -11 10 -5 0
-7 -4 -4 -10z"/>
<path d="M1439 1271 c8 -5 12 -18 8 -30 -3 -12 -1 -21 4 -21 5 0 9 14 9 30 0
22 -5 30 -17 30 -14 0 -15 -2 -4 -9z"/>
<path d="M3623 1265 c0 -8 4 -12 9 -9 4 3 8 9 8 15 0 5 -4 9 -8 9 -5 0 -9 -7
-9 -15z"/>
<path d="M566 1233 c-6 -14 -5 -15 5 -6 7 7 10 15 7 18 -3 3 -9 -2 -12 -12z"/>
<path d="M1375 1240 c27 -12 35 -12 35 0 0 6 -12 10 -27 9 -25 0 -26 -1 -8 -9z"/>
<path d="M3020 975 c0 -8 7 -15 16 -15 11 0 14 -5 9 -17 -5 -14 -4 -16 6 -6
10 10 9 17 -9 33 -18 17 -22 18 -22 5z"/>
<path d="M1175 970 c-3 -5 -2 -10 4 -10 5 0 8 -9 6 -20 -2 -11 0 -20 6 -20 12
0 12 47 0 55 -5 3 -12 1 -16 -5z"/>
<path d="M1235 970 c-3 -5 -1 -10 6 -10 6 0 9 -8 6 -20 -3 -11 -1 -20 4 -20 5
0 9 14 9 30 0 29 -13 40 -25 20z"/>
<path d="M3160 916 c0 -7 230 -176 240 -176 6 0 -43 41 -109 90 -113 84 -131
96 -131 86z"/>
<path d="M1340 893 c1 -9 240 -186 246 -180 3 3 -29 27 -208 160 -21 16 -38
25 -38 20z"/>
<path d="M2800 799 c-102 -78 -155 -123 -120 -103 26 15 240 175 240 180 0 11
-24 -4 -120 -77z"/>
<path d="M980 774 c-63 -48 -117 -91 -119 -98 -3 -8 0 -8 10 0 8 6 61 46 119
89 122 90 127 95 115 95 -6 -1 -62 -39 -125 -86z"/>
<path d="M3448 655 c2 -14 6 -25 8 -25 2 0 4 11 4 25 0 14 -4 25 -9 25 -4 0
-6 -11 -3 -25z"/>
<path d="M3500 665 c-14 -17 -12 -21 10 -26 16 -4 20 1 20 26 0 19 -14 19 -30
0z m20 -5 c0 -5 -5 -10 -11 -10 -5 0 -7 5 -4 10 3 6 8 10 11 10 2 0 4 -4 4
-10z"/>
<path d="M2557 649 c4 -12 0 -25 -8 -30 -11 -7 -9 -9 7 -9 17 0 20 5 16 30 -2
17 -8 30 -12 30 -5 0 -6 -9 -3 -21z"/>
<path d="M2617 649 c4 -12 0 -25 -8 -30 -11 -7 -9 -9 7 -9 17 0 20 5 16 30 -2
17 -8 30 -12 30 -5 0 -6 -9 -3 -21z"/>
<path d="M1628 630 c2 -16 6 -30 8 -30 2 0 4 14 4 30 0 17 -4 30 -8 30 -5 0
-7 -13 -4 -30z"/>
<path d="M1684 648 c-5 -7 -3 -8 6 -3 9 6 12 4 8 -7 -4 -8 -2 -21 3 -29 6 -10
9 -4 9 19 0 32 -13 42 -26 20z"/>
<path d="M790 618 c0 -9 -8 -19 -17 -21 -14 -4 -13 -5 4 -6 26 -1 40 16 24 32
-8 8 -11 7 -11 -5z"/>
<path d="M3571 549 c28 -71 39 -90 48 -84 5 3 1 21 -9 41 -10 19 -23 48 -29
65 -5 16 -15 29 -20 29 -6 0 -2 -22 10 -51z"/>
<path d="M3342 524 c-56 -61 -58 -64 -39 -64 14 1 102 108 95 115 -3 3 -28
-20 -56 -51z"/>
<path d="M1759 505 c14 -36 30 -65 34 -65 9 0 2 26 -24 88 -30 69 -39 48 -10
-23z"/>
<path d="M2673 558 c3 -7 13 -39 23 -70 11 -32 25 -58 32 -58 17 0 15 9 -13
68 -14 29 -25 56 -25 62 0 5 -5 10 -11 10 -6 0 -9 -6 -6 -12z"/>
<path d="M2463 505 c-58 -65 -55 -84 3 -22 53 55 69 77 57 77 -5 0 -32 -25
-60 -55z"/>
<path d="M1516 494 c-27 -30 -43 -54 -35 -54 8 0 36 25 62 55 62 71 38 70 -27
-1z"/>
<path d="M648 486 c-50 -55 -56 -66 -35 -65 11 0 97 101 97 113 0 14 -19 0
-62 -48z"/>
<path d="M853 528 c38 -91 51 -118 59 -118 6 0 8 6 5 13 -38 90 -51 117 -59
117 -6 0 -8 -6 -5 -12z"/>
<path d="M2387 383 c-11 -13 -17 -27 -14 -30 3 -2 13 7 23 21 22 34 15 42 -9
9z"/>
<path d="M2423 394 c-3 -8 -2 -19 3 -24 5 -5 10 1 10 16 2 27 -4 31 -13 8z"/>
<path d="M2464 386 c0 -13 4 -22 9 -19 10 6 9 31 -2 37 -5 3 -8 -5 -7 -18z"/>
<path d="M2790 400 c0 -7 -7 -22 -17 -32 -9 -10 -12 -18 -6 -18 13 0 38 48 30
57 -4 3 -7 0 -7 -7z"/>
<path d="M2848 399 c-3 -8 1 -20 8 -27 15 -14 17 -7 5 22 -6 15 -9 16 -13 5z"/>
<path d="M3214 383 c2 -16 6 -27 10 -25 3 1 6 4 6 7 0 3 0 14 0 25 0 11 -4 20
-9 20 -5 0 -8 -12 -7 -27z"/>
<path d="M3264 380 c1 -16 6 -30 12 -30 6 0 9 13 6 30 -6 39 -19 39 -18 0z"/>
<path d="M3720 396 c0 -9 -7 -19 -15 -22 -16 -6 -21 -24 -7 -24 12 0 37 49 29
57 -4 3 -7 -1 -7 -11z"/>
<path d="M575 382 c4 -8 0 -21 -11 -33 -9 -10 -13 -19 -8 -19 5 0 15 10 22 21
11 17 11 24 1 33 -9 8 -10 8 -4 -2z"/>
<path d="M970 380 c0 -7 -7 -22 -17 -32 -9 -10 -12 -18 -6 -18 13 0 38 48 30
57 -4 3 -7 0 -7 -7z"/>
<path d="M1031 374 c0 -11 3 -14 6 -6 3 7 2 16 -1 19 -3 4 -6 -2 -5 -13z"/>
<path d="M1387 373 c-22 -25 -21 -29 3 -36 24 -6 29 1 21 31 -6 23 -6 24 -24
5z m13 -13 c0 -5 -5 -10 -11 -10 -5 0 -7 5 -4 10 3 6 8 10 11 10 2 0 4 -4 4
-10z"/>
<path d="M1448 385 c-7 -7 3 -55 11 -55 4 0 6 14 3 30 -4 32 -5 33 -14 25z"/>
<path d="M1811 378 c-1 -10 5 -18 13 -18 8 0 17 -6 19 -12 3 -8 6 -6 6 5 1 9
-5 17 -13 17 -8 0 -17 6 -19 13 -3 7 -6 5 -6 -5z"/>
<path d="M1895 379 c4 -5 -1 -19 -11 -30 -9 -10 -14 -19 -9 -19 11 0 34 32 35
48 0 6 -5 12 -11 12 -5 0 -7 -5 -4 -11z"/>
<path d="M3656 375 c4 -8 8 -15 10 -15 2 0 4 7 4 15 0 8 -4 15 -10 15 -5 0 -7
-7 -4 -15z"/>
<path d="M605 370 c-3 -5 -1 -18 4 -27 9 -16 10 -14 11 10 0 28 -5 34 -15 17z"/>
<path d="M645 355 c0 -13 3 -21 8 -18 4 2 7 10 7 18 0 8 -3 16 -7 18 -5 3 -8
-5 -8 -18z"/>
</g>
</svg>
