<svg version="1.1" xmlns="http://www.w3.org/2000/svg" xmlns:xlink="http://www.w3.org/1999/xlink" width="280" height="200"><defs/><g><rect fill="#97D3E1" stroke="none" x="0" y="0" width="280" height="200"/><g transform="scale(1,1) translate(80,40)"><rect fill="#000000" stroke="none" x="-1" y="0" width="2" height="60"/><rect fill="#000000" stroke="none" x="-1" y="60" width="2" height="60"/><path fill="none" stroke="#000000" paint-order="fill stroke markers" d=" M 0.5 0.5 L 130.5 0.5" stroke-linecap="round" stroke-miterlimit="10"/><path fill="rgb(0,0,0)" stroke="none" paint-order="stroke fill markers" d=" M -25 147 A 20 20 0 0 1 -25.000000000000004 107 L 35 107 L 34.99999999999999 107 A 20 20 0 0 1 35 147 Z" fill-opacity="0.3"/><path fill="#ffffff" stroke="none" paint-order="stroke fill markers" d=" M -30 140 A 20 20 0 0 1 -30.000000000000004 100 L 30 100 L 29.999999999999996 100 A 20 20 0 0 1 30 140 Z"/><text fill="#000000" stroke="none" font-family="Consolas, Monaco, Cousine" font-size="14px" font-style="normal" font-weight="normal" text-decoration="normal" x="-12" y="124" text-anchor="start" dominant-baseline="alphabetic">End</text><rect fill="rgb(0,0,0)" stroke="none" x="-55" y="47" width="120" height="40" fill-opacity="0.3"/><rect fill="#ffffff" stroke="none" x="-60" y="40" width="120" height="40"/><text fill="#003399" stroke="none" font-family="Consolas, Monaco, Cousine" font-size="14px" font-style="normal" font-weight="normal" text-decoration="normal" x="-50" y="64" text-anchor="start" dominant-baseline="alphabetic">return</text><text fill="#000000" stroke="none" font-family="Consolas, Monaco, Cousine" font-size="14px" font-style="normal" font-weight="normal" text-decoration="normal" x="4" y="64" text-anchor="start" dominant-baseline="alphabetic">tree</text><path fill="rgb(0,0,0)" stroke="none" paint-order="stroke fill markers" d=" M -35 27 A 20 20 0 0 1 -35.00000000000001 -13 L 45 -13 L 44.99999999999999 -13 A 20 20 0 0 1 45 27 Z" fill-opacity="0.3"/><path fill="#ffffff" stroke="none" paint-order="stroke fill markers" d=" M -40 20 A 20 20 0 0 1 -40.00000000000001 -20 L 40 -20 L 39.99999999999999 -20 A 20 20 0 0 1 40 20 Z"/><text fill="#000000" stroke="none" font-family="Consolas, Monaco, Cousine" font-size="18px" font-style="normal" font-weight="normal" text-decoration="normal" x="-40" y="6" text-anchor="start" dominant-baseline="alphabetic">fixCase1</text><rect fill="rgb(0,0,0)" stroke="none" x="85" y="-13" width="100" height="40" fill-opacity="0.3"/><rect fill="#ffffff" stroke="none" x="80" y="-20" width="100" height="40"/><text fill="#000000" stroke="none" font-family="Consolas, Monaco, Cousine" font-size="14px" font-style="normal" font-weight="normal" text-decoration="normal" x="90" y="4" text-anchor="start" dominant-baseline="alphabetic">tree,</text><text fill="#000000" stroke="none" font-family="Consolas, Monaco, Cousine" font-size="14px" font-style="normal" font-weight="normal" text-decoration="normal" x="136" y="4" text-anchor="start" dominant-baseline="alphabetic">node</text></g></g></svg>