<svg version="1.1" xmlns="http://www.w3.org/2000/svg" xmlns:xlink="http://www.w3.org/1999/xlink" width="220" height="240"><defs/><g><rect fill="#202020" stroke="none" x="0" y="0" width="220" height="240"/><g transform="scale(1,1) translate(110,40)"><rect fill="#dddd90" stroke="none" x="-1" y="0" width="2" height="80"/><rect fill="#dddd90" stroke="none" x="-1" y="80" width="2" height="80"/><path fill="#000000" stroke="none" paint-order="stroke fill markers" d=" M -30 180 A 20 20 0 0 1 -30.000000000000004 140 L 30 140 L 29.999999999999996 140 A 20 20 0 0 1 30 180 Z"/><path fill="none" stroke="#98984D" paint-order="fill stroke markers" d=" M -29.5 180.5 A 20 20 0 0 1 -29.500000000000004 140.5 L 30.5 140.5 L 30.499999999999996 140.5 A 20 20 0 0 1 30.5 180.5 Z" stroke-linecap="round" stroke-miterlimit="10"/><text fill="#ffffcc" stroke="none" font-family="Consolas, Monaco, Cousine" font-size="14px" font-style="normal" font-weight="normal" text-decoration="normal" x="-13" y="163" text-anchor="start" dominant-baseline="alphabetic">End</text><rect fill="#000000" stroke="none" x="-90" y="40" width="180" height="80"/><rect fill="none" stroke="#98984D" x="-89.5" y="40.5" width="180" height="80" stroke-linecap="round" stroke-miterlimit="10"/><text fill="#80ff80" stroke="none" font-family="Consolas, Monaco, Cousine" font-size="14px" font-style="normal" font-weight="normal" text-decoration="normal" x="-80" y="67" text-anchor="start" dominant-baseline="alphabetic">return</text><text fill="#95DCFC" stroke="none" font-family="Consolas, Monaco, Cousine" font-size="14px" font-style="normal" font-weight="normal" text-decoration="normal" x="-22" y="67" text-anchor="start" dominant-baseline="alphabetic">{</text><text fill="#ffffcc" stroke="none" font-family="Consolas, Monaco, Cousine" font-size="14px" font-style="normal" font-weight="normal" text-decoration="normal" x="-48" y="83" text-anchor="start" dominant-baseline="alphabetic">root</text><text fill="#95DCFC" stroke="none" font-family="Consolas, Monaco, Cousine" font-size="14px" font-style="normal" font-weight="normal" text-decoration="normal" x="-14" y="83" text-anchor="start" dominant-baseline="alphabetic">:</text><text fill="#80ff80" stroke="none" font-family="Consolas, Monaco, Cousine" font-size="14px" font-style="normal" font-weight="normal" text-decoration="normal" x="2" y="83" text-anchor="start" dominant-baseline="alphabetic">null</text><text fill="#95DCFC" stroke="none" font-family="Consolas, Monaco, Cousine" font-size="14px" font-style="normal" font-weight="normal" text-decoration="normal" x="-80" y="99" text-anchor="start" dominant-baseline="alphabetic">}</text><path fill="#000000" stroke="none" paint-order="stroke fill markers" d=" M -70 20 A 20 20 0 0 1 -70 -20 L 70 -20 L 70 -20 A 20 20 0 0 1 70 20 Z"/><path fill="none" stroke="#98984D" paint-order="fill stroke markers" d=" M -69.5 20.5 A 20 20 0 0 1 -69.5 -19.5 L 70.5 -19.5 L 70.5 -19.5 A 20 20 0 0 1 70.5 20.5 Z" stroke-linecap="round" stroke-miterlimit="10"/><text fill="#ffffcc" stroke="none" font-family="Consolas, Monaco, Cousine" font-size="18px" font-style="normal" font-weight="normal" text-decoration="normal" x="-70" y="5" text-anchor="start" dominant-baseline="alphabetic">createBstTree</text></g></g></svg>