<?xml version="1.0" standalone="no"?>
<!DOCTYPE svg PUBLIC "-//W3C//DTD SVG 20010904//EN"
 "http://www.w3.org/TR/2001/REC-SVG-20010904/DTD/svg10.dtd">
<svg version="1.0" xmlns="http://www.w3.org/2000/svg"
 width="965.000000pt" height="325.000000pt" viewBox="0 0 965.000000 325.000000"
 preserveAspectRatio="xMidYMid meet">

<g transform="translate(0.000000,325.000000) scale(0.100000,-0.100000)"
fill="#000000" stroke="none">
<path d="M5440 2830 c0 -73 3 -90 15 -90 12 0 15 17 15 90 0 73 -3 90 -15 90
-12 0 -15 -17 -15 -90z"/>
<path d="M4616 2901 c-3 -4 -17 -41 -31 -80 -27 -74 -25 -105 2 -63 21 30 79
31 88 2 3 -11 13 -20 20 -20 11 0 8 19 -15 81 -17 44 -30 82 -30 85 0 8 -29 4
-34 -5z m43 -93 c1 -5 -12 -8 -29 -8 -19 0 -28 4 -25 13 2 6 10 26 16 42 l11
30 13 -35 c8 -19 14 -38 14 -42z"/>
<path d="M5310 2825 l0 -85 45 0 c25 0 45 5 45 10 0 6 -13 10 -30 10 -27 0
-30 3 -30 30 0 27 3 30 31 30 17 0 28 4 24 10 -3 6 -17 10 -31 10 -19 0 -24 5
-24 25 0 21 5 25 30 25 17 0 30 5 30 10 0 6 -20 10 -45 10 l-45 0 0 -85z"/>
<path d="M6233 2885 c-6 -14 -7 -25 -2 -25 5 0 9 -22 9 -48 0 -26 5 -53 12
-60 15 -15 48 -16 48 -2 0 6 -7 10 -15 10 -10 0 -15 10 -15 29 0 16 -3 37 -6
46 -5 11 0 18 15 22 23 6 29 23 7 23 -8 0 -16 7 -20 15 -8 22 -19 18 -33 -10z"/>
<path d="M4737 2873 c-4 -3 -7 -35 -7 -70 0 -49 3 -63 15 -63 11 0 15 12 15
51 0 42 3 52 20 56 11 3 20 12 20 20 0 11 -4 11 -20 3 -14 -7 -20 -7 -20 0 0
11 -13 13 -23 3z"/>
<path d="M4837 2873 c-4 -3 -7 -35 -7 -70 0 -49 3 -63 15 -63 11 0 15 12 15
51 0 42 3 52 20 56 11 3 20 12 20 20 0 11 -4 11 -20 3 -14 -7 -20 -7 -20 0 0
11 -13 13 -23 3z"/>
<path d="M4943 2854 c-20 -20 -24 -31 -19 -57 10 -50 63 -76 94 -45 9 9 12 9
12 0 0 -7 7 -12 15 -12 12 0 15 14 15 63 0 68 -6 83 -26 66 -8 -7 -14 -7 -19
1 -11 18 -45 11 -72 -16z m71 -7 c39 -29 -1 -106 -41 -81 -25 16 -29 65 -7 81
10 7 21 13 24 13 3 0 14 -6 24 -13z"/>
<path d="M5090 2872 c0 -5 11 -36 25 -70 24 -58 24 -64 10 -92 -13 -25 -13
-30 -1 -30 7 0 23 21 34 48 45 105 61 152 52 152 -6 0 -21 -24 -34 -52 l-24
-53 -14 35 c-8 19 -18 43 -21 53 -6 17 -27 24 -27 9z"/>
<path d="M5522 2864 c-16 -11 -22 -25 -22 -54 0 -60 58 -91 106 -56 27 20 10
32 -22 16 -18 -10 -30 -11 -42 -4 -35 23 -24 34 32 34 64 0 72 14 31 55 -28
29 -51 31 -83 9z m68 -19 c18 -21 9 -27 -36 -23 -36 3 -37 4 -20 21 21 21 40
22 56 2z"/>
<path d="M5664 2871 c-2 -2 -4 -33 -4 -68 0 -49 3 -63 15 -63 11 0 15 13 15
54 0 46 3 56 20 61 33 11 50 -12 50 -66 0 -27 5 -49 10 -49 6 0 10 20 10 44 0
27 6 51 16 60 31 32 55 11 62 -53 6 -67 22 -66 22 2 0 77 -37 107 -87 72 -16
-11 -22 -12 -26 -2 -3 11 -92 19 -103 8z"/>
<path d="M5933 2854 c-44 -44 -15 -114 47 -114 15 0 35 9 45 20 20 22 6 27
-25 8 -15 -9 -25 -10 -37 -2 -35 22 -26 34 26 34 47 0 51 2 51 24 0 27 -33 56
-63 56 -10 0 -29 -12 -44 -26z m68 -4 c31 -17 22 -30 -21 -30 -41 0 -49 7 -28
28 15 15 24 15 49 2z"/>
<path d="M6075 2863 c-3 -8 -5 -39 -5 -69 0 -41 4 -54 15 -54 11 0 15 12 15
49 0 54 17 77 50 66 17 -5 20 -15 20 -61 0 -41 4 -54 15 -54 20 0 21 88 1 115
-17 24 -102 30 -111 8z"/>
<path d="M6348 2869 c-30 -17 -22 -48 16 -64 19 -8 37 -19 41 -25 10 -16 -25
-25 -46 -12 -30 19 -44 14 -24 -8 33 -37 102 -18 93 26 -2 10 -18 22 -37 29
-19 6 -37 17 -39 23 -5 17 27 27 41 13 6 -6 18 -11 26 -11 11 0 10 4 -4 20
-20 22 -41 25 -67 9z"/>
<path d="M2505 2210 c6 -279 5 -310 -9 -310 -14 0 -14 -4 1 -35 9 -19 20 -35
23 -35 3 0 14 16 23 35 14 30 15 35 2 35 -12 0 -15 15 -15 73 0 41 -3 176 -7
300 l-6 227 726 0 727 0 0 -88 c0 -49 3 -184 7 -300 6 -193 5 -212 -10 -212
-15 0 -15 -3 0 -35 9 -19 20 -35 23 -35 3 0 14 16 23 35 13 27 14 35 3 35 -10
0 -14 46 -19 212 -4 116 -7 251 -7 300 l0 88 770 0 770 0 0 -300 c0 -259 -2
-300 -15 -300 -13 0 -12 -5 2 -35 9 -19 20 -35 23 -35 3 0 14 16 23 35 14 30
15 35 2 35 -13 0 -15 41 -15 300 l0 300 760 0 760 0 0 -300 c0 -259 -2 -300
-15 -300 -13 0 -12 -5 2 -35 9 -19 20 -35 23 -35 3 0 14 16 23 35 14 30 15 35
2 35 -13 0 -15 41 -15 300 l0 300 790 0 790 0 0 -300 c0 -259 -2 -300 -15
-300 -13 0 -12 -5 2 -35 9 -19 20 -35 23 -35 3 0 14 16 23 35 14 30 15 35 2
35 -13 0 -15 43 -15 310 l0 310 -3096 0 -3097 0 8 -310z"/>
<path d="M2468 1773 c17 -2 47 -2 65 0 17 2 3 4 -33 4 -36 0 -50 -2 -32 -4z"/>
<path d="M4008 1773 c17 -2 47 -2 65 0 17 2 3 4 -33 4 -36 0 -50 -2 -32 -4z"/>
<path d="M5568 1773 c17 -2 47 -2 65 0 17 2 3 4 -33 4 -36 0 -50 -2 -32 -4z"/>
<path d="M7118 1773 c17 -2 47 -2 65 0 17 2 3 4 -33 4 -36 0 -50 -2 -32 -4z"/>
<path d="M8668 1773 c17 -2 47 -2 65 0 17 2 3 4 -33 4 -36 0 -50 -2 -32 -4z"/>
<path d="M2588 1763 c7 -3 16 -2 19 1 4 3 -2 6 -13 5 -11 0 -14 -3 -6 -6z"/>
<path d="M3938 1763 c7 -3 16 -2 19 1 4 3 -2 6 -13 5 -11 0 -14 -3 -6 -6z"/>
<path d="M5498 1763 c7 -3 16 -2 19 1 4 3 -2 6 -13 5 -11 0 -14 -3 -6 -6z"/>
<path d="M7048 1763 c7 -3 16 -2 19 1 4 3 -2 6 -13 5 -11 0 -14 -3 -6 -6z"/>
<path d="M7238 1763 c7 -3 16 -2 19 1 4 3 -2 6 -13 5 -11 0 -14 -3 -6 -6z"/>
<path d="M8598 1763 c7 -3 16 -2 19 1 4 3 -2 6 -13 5 -11 0 -14 -3 -6 -6z"/>
<path d="M8788 1763 c7 -3 16 -2 19 1 4 3 -2 6 -13 5 -11 0 -14 -3 -6 -6z"/>
<path d="M2310 1740 c-8 -5 -10 -10 -5 -10 6 0 17 5 25 10 8 5 11 10 5 10 -5
0 -17 -5 -25 -10z"/>
<path d="M2670 1740 c8 -5 20 -10 25 -10 6 0 3 5 -5 10 -8 5 -19 10 -25 10 -5
0 -3 -5 5 -10z"/>
<path d="M3850 1740 c-8 -5 -10 -10 -5 -10 6 0 17 5 25 10 8 5 11 10 5 10 -5
0 -17 -5 -25 -10z"/>
<path d="M4210 1740 c8 -5 20 -10 25 -10 6 0 3 5 -5 10 -8 5 -19 10 -25 10 -5
0 -3 -5 5 -10z"/>
<path d="M5410 1740 c-8 -5 -10 -10 -5 -10 6 0 17 5 25 10 8 5 11 10 5 10 -5
0 -17 -5 -25 -10z"/>
<path d="M6960 1740 c-8 -5 -10 -10 -5 -10 6 0 17 5 25 10 8 5 11 10 5 10 -5
0 -17 -5 -25 -10z"/>
<path d="M7320 1740 c8 -5 20 -10 25 -10 6 0 3 5 -5 10 -8 5 -19 10 -25 10 -5
0 -3 -5 5 -10z"/>
<path d="M8510 1740 c-8 -5 -10 -10 -5 -10 6 0 17 5 25 10 8 5 11 10 5 10 -5
0 -17 -5 -25 -10z"/>
<path d="M8870 1740 c8 -5 20 -10 25 -10 6 0 3 5 -5 10 -8 5 -19 10 -25 10 -5
0 -3 -5 5 -10z"/>
<path d="M3804 1714 c-18 -14 -18 -15 4 -4 12 6 22 13 22 15 0 8 -5 6 -26 -11z"/>
<path d="M4250 1726 c0 -3 9 -10 20 -16 11 -6 20 -8 20 -6 0 3 -9 10 -20 16
-11 6 -20 8 -20 6z"/>
<path d="M5364 1714 c-18 -14 -18 -15 4 -4 12 6 22 13 22 15 0 8 -5 6 -26 -11z"/>
<path d="M6914 1714 c-18 -14 -18 -15 4 -4 12 6 22 13 22 15 0 8 -5 6 -26 -11z"/>
<path d="M7360 1726 c0 -3 9 -10 20 -16 11 -6 20 -8 20 -6 0 3 -9 10 -20 16
-11 6 -20 8 -20 6z"/>
<path d="M2755 1698 c17 -12 51 -41 76 -63 36 -32 35 -29 -8 12 -29 29 -63 57
-76 63 -14 7 -11 3 8 -12z"/>
<path d="M2158 1632 c-25 -27 -51 -59 -57 -73 l-12 -24 18 25 c10 14 38 46 62
73 24 26 41 47 39 47 -3 0 -26 -22 -50 -48z"/>
<path d="M3698 1632 c-25 -27 -51 -59 -57 -73 l-12 -24 18 25 c10 14 38 46 62
73 24 26 41 47 39 47 -3 0 -26 -22 -50 -48z"/>
<path d="M4370 1635 c25 -27 53 -61 63 -75 17 -24 17 -24 0 8 -9 18 -38 51
-62 75 l-45 42 44 -50z"/>
<path d="M5258 1632 c-25 -27 -51 -59 -57 -73 l-12 -24 18 25 c10 14 38 46 62
73 24 26 41 47 39 47 -3 0 -26 -22 -50 -48z"/>
<path d="M5930 1635 c25 -27 53 -61 63 -75 17 -24 17 -24 0 8 -9 18 -38 51
-62 75 l-45 42 44 -50z"/>
<path d="M6808 1632 c-25 -27 -51 -59 -57 -73 l-12 -24 18 25 c10 14 38 46 62
73 24 26 41 47 39 47 -3 0 -26 -22 -50 -48z"/>
<path d="M7480 1635 c25 -27 53 -61 63 -75 17 -24 17 -24 0 8 -9 18 -38 51
-62 75 l-45 42 44 -50z"/>
<path d="M8358 1632 c-25 -27 -51 -59 -57 -73 l-12 -24 18 25 c10 14 38 46 62
73 24 26 41 47 39 47 -3 0 -26 -22 -50 -48z"/>
<path d="M9030 1635 c25 -27 53 -61 63 -75 17 -24 17 -24 0 8 -9 18 -38 51
-62 75 l-45 42 44 -50z"/>
<path d="M2890 1560 c6 -11 13 -20 16 -20 2 0 0 9 -6 20 -6 11 -13 20 -16 20
-2 0 0 -9 6 -20z"/>
<path d="M2353 1438 c-18 -11 -33 -24 -33 -29 0 -12 27 -11 35 1 17 27 25 2
25 -74 l0 -83 -30 -6 c-55 -12 -32 -27 40 -27 66 0 98 15 48 22 -22 3 -23 8
-26 111 -3 117 -4 119 -59 85z"/>
<path d="M2536 1382 c-60 -103 -60 -112 4 -112 47 0 50 -2 50 -25 0 -16 6 -25
15 -25 9 0 15 9 15 24 0 15 7 26 20 29 11 3 20 10 20 16 0 6 -9 11 -20 11 -18
0 -20 7 -20 80 0 72 -2 80 -19 80 -13 0 -33 -24 -65 -78z m51 -79 c-3 -2 -19
-3 -36 -1 l-30 3 32 55 32 55 3 -54 c2 -29 1 -55 -1 -58z"/>
<path d="M3913 1438 c-18 -11 -33 -24 -33 -29 0 -12 27 -11 35 1 17 27 25 2
25 -74 l0 -83 -30 -6 c-55 -12 -32 -27 40 -27 66 0 98 15 48 22 -22 3 -23 8
-26 111 -3 117 -4 119 -59 85z"/>
<path d="M4060 1445 c0 -12 13 -15 55 -15 30 0 55 -4 55 -9 0 -5 -15 -42 -34
-82 -47 -105 -52 -122 -31 -117 16 3 105 193 105 224 0 11 -17 14 -75 14 -60
0 -75 -3 -75 -15z"/>
<path d="M5458 1449 c-26 -15 -24 -43 1 -29 29 15 59 12 69 -6 16 -28 1 -64
-49 -118 -27 -30 -49 -59 -49 -65 0 -7 27 -11 76 -11 56 0 75 3 72 13 -3 7
-25 13 -52 15 l-47 3 34 42 c65 80 72 114 31 146 -29 23 -59 26 -86 10z"/>
<path d="M5663 1438 c-18 -11 -33 -26 -33 -34 0 -13 3 -13 22 0 12 9 26 16 30
16 5 0 8 -38 8 -84 l0 -83 -30 -6 c-55 -12 -32 -27 40 -27 66 0 98 15 48 22
-22 3 -23 8 -26 111 -3 117 -4 119 -59 85z"/>
<path d="M7033 1438 c-18 -11 -33 -24 -33 -29 0 -12 27 -11 35 1 17 27 25 2
25 -74 l0 -83 -30 -6 c-55 -12 -32 -27 40 -27 66 0 98 15 48 22 -22 3 -23 8
-26 111 -3 117 -4 119 -59 85z"/>
<path d="M7223 1439 c-18 -12 -33 -28 -33 -36 0 -13 3 -13 25 1 13 9 27 16 30
16 3 0 5 -38 5 -84 l0 -83 -30 -6 c-55 -12 -32 -27 40 -27 66 0 98 15 48 22
-22 3 -23 8 -26 111 -3 117 -5 121 -59 86z"/>
<path d="M8586 1380 c-60 -103 -59 -110 4 -110 47 0 50 -2 50 -25 0 -16 6 -25
15 -25 8 0 15 9 15 20 0 10 9 24 20 30 24 13 26 30 5 30 -11 0 -15 12 -15 49
0 136 -28 146 -94 31z m51 -77 c-3 -2 -18 -3 -35 -1 l-30 3 32 55 31 55 3 -54
c2 -29 1 -55 -1 -58z"/>
<path d="M8757 1453 c-4 -3 -7 -30 -7 -60 0 -53 0 -53 31 -53 47 0 69 -16 69
-51 0 -39 -37 -58 -81 -42 -26 10 -30 10 -27 -5 4 -23 81 -29 113 -8 28 19 39
59 24 89 -16 30 -28 37 -66 37 -31 0 -33 2 -33 35 0 35 0 35 45 35 33 0 45 4
45 15 0 11 -13 15 -53 15 -30 0 -57 -3 -60 -7z"/>
<path d="M2041 1414 c0 -11 3 -14 6 -6 3 7 2 16 -1 19 -3 4 -6 -2 -5 -13z"/>
<path d="M2951 1414 c0 -11 3 -14 6 -6 3 7 2 16 -1 19 -3 4 -6 -2 -5 -13z"/>
<path d="M3581 1414 c0 -11 3 -14 6 -6 3 7 2 16 -1 19 -3 4 -6 -2 -5 -13z"/>
<path d="M4491 1414 c0 -11 3 -14 6 -6 3 7 2 16 -1 19 -3 4 -6 -2 -5 -13z"/>
<path d="M5141 1414 c0 -11 3 -14 6 -6 3 7 2 16 -1 19 -3 4 -6 -2 -5 -13z"/>
<path d="M6051 1414 c0 -11 3 -14 6 -6 3 7 2 16 -1 19 -3 4 -6 -2 -5 -13z"/>
<path d="M6691 1414 c0 -11 3 -14 6 -6 3 7 2 16 -1 19 -3 4 -6 -2 -5 -13z"/>
<path d="M7601 1414 c0 -11 3 -14 6 -6 3 7 2 16 -1 19 -3 4 -6 -2 -5 -13z"/>
<path d="M8241 1414 c0 -11 3 -14 6 -6 3 7 2 16 -1 19 -3 4 -6 -2 -5 -13z"/>
<path d="M9151 1414 c0 -11 3 -14 6 -6 3 7 2 16 -1 19 -3 4 -6 -2 -5 -13z"/>
<path d="M2033 1320 c0 -36 2 -50 4 -32 2 17 2 47 0 65 -2 17 -4 3 -4 -33z"/>
<path d="M2963 1320 c0 -36 2 -50 4 -32 2 17 2 47 0 65 -2 17 -4 3 -4 -33z"/>
<path d="M5133 1320 c0 -36 2 -50 4 -32 2 17 2 47 0 65 -2 17 -4 3 -4 -33z"/>
<path d="M6063 1320 c0 -36 2 -50 4 -32 2 17 2 47 0 65 -2 17 -4 3 -4 -33z"/>
<path d="M6683 1320 c0 -36 2 -50 4 -32 2 17 2 47 0 65 -2 17 -4 3 -4 -33z"/>
<path d="M7613 1320 c0 -36 2 -50 4 -32 2 17 2 47 0 65 -2 17 -4 3 -4 -33z"/>
<path d="M9163 1320 c0 -36 2 -50 4 -32 2 17 2 47 0 65 -2 17 -4 3 -4 -33z"/>
<path d="M3573 1315 c0 -33 2 -45 4 -27 2 18 2 45 0 60 -2 15 -4 0 -4 -33z"/>
<path d="M4503 1315 c0 -33 2 -45 4 -27 2 18 2 45 0 60 -2 15 -4 0 -4 -33z"/>
<path d="M8233 1315 c0 -33 2 -45 4 -27 2 18 2 45 0 60 -2 15 -4 0 -4 -33z"/>
<path d="M2041 1224 c0 -11 3 -14 6 -6 3 7 2 16 -1 19 -3 4 -6 -2 -5 -13z"/>
<path d="M2951 1224 c0 -11 3 -14 6 -6 3 7 2 16 -1 19 -3 4 -6 -2 -5 -13z"/>
<path d="M3581 1224 c0 -11 3 -14 6 -6 3 7 2 16 -1 19 -3 4 -6 -2 -5 -13z"/>
<path d="M4491 1224 c0 -11 3 -14 6 -6 3 7 2 16 -1 19 -3 4 -6 -2 -5 -13z"/>
<path d="M5141 1224 c0 -11 3 -14 6 -6 3 7 2 16 -1 19 -3 4 -6 -2 -5 -13z"/>
<path d="M6051 1224 c0 -11 3 -14 6 -6 3 7 2 16 -1 19 -3 4 -6 -2 -5 -13z"/>
<path d="M6691 1224 c0 -11 3 -14 6 -6 3 7 2 16 -1 19 -3 4 -6 -2 -5 -13z"/>
<path d="M7601 1224 c0 -11 3 -14 6 -6 3 7 2 16 -1 19 -3 4 -6 -2 -5 -13z"/>
<path d="M8241 1224 c0 -11 3 -14 6 -6 3 7 2 16 -1 19 -3 4 -6 -2 -5 -13z"/>
<path d="M9151 1224 c0 -11 3 -14 6 -6 3 7 2 16 -1 19 -3 4 -6 -2 -5 -13z"/>
<path d="M4481 1193 c-1 -6 -4 -20 -7 -30 -5 -17 -5 -17 6 0 6 10 9 23 6 30
-3 9 -5 9 -5 0z"/>
<path d="M6701 1190 c0 -8 4 -22 9 -30 12 -18 12 -2 0 25 -6 13 -9 15 -9 5z"/>
<path d="M2880 1065 c-12 -19 -45 -56 -73 -81 -29 -26 -38 -37 -21 -26 35 24
97 90 114 121 18 34 3 24 -20 -14z"/>
<path d="M3641 1082 c14 -32 75 -98 113 -125 17 -11 4 6 -30 38 -33 33 -68 71
-77 85 -16 23 -17 23 -6 2z"/>
<path d="M4425 1074 c-9 -15 -12 -23 -6 -20 11 7 35 46 28 46 -3 0 -12 -12
-22 -26z"/>
<path d="M5207 1072 c9 -18 38 -51 62 -75 l45 -42 -44 50 c-25 28 -53 61 -63
75 -17 24 -17 24 0 -8z"/>
<path d="M5985 1074 c-9 -15 -12 -23 -6 -20 11 7 35 46 28 46 -3 0 -12 -12
-22 -26z"/>
<path d="M6750 1081 c5 -11 15 -23 21 -27 6 -3 3 5 -6 20 -20 30 -30 35 -15 7z"/>
<path d="M7539 1078 c-6 -12 -32 -45 -57 -72 l-46 -51 45 42 c41 39 88 103 75
103 -3 0 -11 -10 -17 -22z"/>
<path d="M9081 1066 c-26 -41 -98 -109 -140 -130 -17 -9 -31 -19 -31 -22 0 -2
14 3 32 12 41 21 128 103 151 143 25 42 14 39 -12 -3z"/>
<path d="M2118 1055 c11 -16 37 -46 58 -65 31 -28 29 -24 -10 20 -66 74 -73
80 -48 45z"/>
<path d="M8318 1055 c11 -16 37 -46 58 -65 31 -28 29 -24 -10 20 -66 74 -73
80 -48 45z"/>
<path d="M4365 998 l-40 -43 43 40 c23 21 42 40 42 42 0 8 -9 0 -45 -39z"/>
<path d="M5925 998 l-40 -43 43 40 c39 36 47 45 39 45 -2 0 -21 -19 -42 -42z"/>
<path d="M6815 1000 c21 -22 41 -40 44 -40 3 0 -13 18 -34 40 -21 22 -41 40
-44 40 -3 0 13 -18 34 -40z"/>
<path d="M2250 936 c0 -3 9 -10 20 -16 11 -6 20 -8 20 -6 0 3 -9 10 -20 16
-11 6 -20 8 -20 6z"/>
<path d="M3790 936 c0 -3 9 -10 20 -16 11 -6 20 -8 20 -6 0 3 -9 10 -20 16
-11 6 -20 8 -20 6z"/>
<path d="M4264 924 c-18 -14 -18 -15 4 -4 12 6 22 13 22 15 0 8 -5 6 -26 -11z"/>
<path d="M5350 935 c0 -7 61 -37 66 -33 2 3 -12 12 -31 21 -19 9 -35 15 -35
12z"/>
<path d="M5824 924 c-18 -14 -18 -15 4 -4 12 6 22 13 22 15 0 8 -5 6 -26 -11z"/>
<path d="M6900 936 c0 -3 9 -10 20 -16 11 -6 20 -8 20 -6 0 3 -9 10 -20 16
-11 6 -20 8 -20 6z"/>
<path d="M8450 936 c0 -3 9 -10 20 -16 11 -6 20 -8 20 -6 0 3 -9 10 -20 16
-11 6 -20 8 -20 6z"/>
<path d="M2310 900 c8 -5 20 -10 25 -10 6 0 3 5 -5 10 -8 5 -19 10 -25 10 -5
0 -3 -5 5 -10z"/>
<path d="M2670 900 c-8 -5 -10 -10 -5 -10 6 0 17 5 25 10 8 5 11 10 5 10 -5 0
-17 -5 -25 -10z"/>
<path d="M6960 900 c8 -5 20 -10 25 -10 6 0 3 5 -5 10 -8 5 -19 10 -25 10 -5
0 -3 -5 5 -10z"/>
<path d="M7320 900 c-8 -5 -10 -10 -5 -10 6 0 17 5 25 10 8 5 11 10 5 10 -5 0
-17 -5 -25 -10z"/>
<path d="M8510 900 c8 -5 20 -10 25 -10 6 0 3 5 -5 10 -8 5 -19 10 -25 10 -5
0 -3 -5 5 -10z"/>
<path d="M8870 900 c-8 -5 -10 -10 -5 -10 6 0 17 5 25 10 8 5 11 10 5 10 -5 0
-17 -5 -25 -10z"/>
<path d="M2388 873 c6 -2 18 -2 25 0 6 3 1 5 -13 5 -14 0 -19 -2 -12 -5z"/>
<path d="M2588 873 c7 -3 16 -2 19 1 4 3 -2 6 -13 5 -11 0 -14 -3 -6 -6z"/>
<path d="M3938 873 c7 -3 16 -2 19 1 4 3 -2 6 -13 5 -11 0 -14 -3 -6 -6z"/>
<path d="M4128 873 c7 -3 16 -2 19 1 4 3 -2 6 -13 5 -11 0 -14 -3 -6 -6z"/>
<path d="M5498 873 c7 -3 16 -2 19 1 4 3 -2 6 -13 5 -11 0 -14 -3 -6 -6z"/>
<path d="M5688 873 c7 -3 16 -2 19 1 4 3 -2 6 -13 5 -11 0 -14 -3 -6 -6z"/>
<path d="M7048 873 c7 -3 16 -2 19 1 4 3 -2 6 -13 5 -11 0 -14 -3 -6 -6z"/>
<path d="M7238 873 c7 -3 16 -2 19 1 4 3 -2 6 -13 5 -11 0 -14 -3 -6 -6z"/>
<path d="M8598 873 c7 -3 16 -2 19 1 4 3 -2 6 -13 5 -11 0 -14 -3 -6 -6z"/>
<path d="M8788 873 c7 -3 16 -2 19 1 4 3 -2 6 -13 5 -11 0 -14 -3 -6 -6z"/>
<path d="M2468 863 c17 -2 47 -2 65 0 17 2 3 4 -33 4 -36 0 -50 -2 -32 -4z"/>
<path d="M4008 863 c17 -2 47 -2 65 0 17 2 3 4 -33 4 -36 0 -50 -2 -32 -4z"/>
<path d="M5568 863 c17 -2 47 -2 65 0 17 2 3 4 -33 4 -36 0 -50 -2 -32 -4z"/>
<path d="M7118 863 c17 -2 47 -2 65 0 17 2 3 4 -33 4 -36 0 -50 -2 -32 -4z"/>
<path d="M8668 863 c17 -2 47 -2 65 0 17 2 3 4 -33 4 -36 0 -50 -2 -32 -4z"/>
<path d="M1360 631 c0 -28 -1 -29 -29 -18 -45 16 -81 -11 -81 -62 0 -59 42
-87 91 -61 13 7 19 7 19 0 0 -5 5 -10 10 -10 6 0 10 37 10 90 0 53 -4 90 -10
90 -5 0 -10 -13 -10 -29z m-15 -51 c20 -23 14 -64 -11 -74 -47 -18 -82 37 -49
74 10 11 23 20 30 20 7 0 20 -9 30 -20z"/>
<path d="M307 569 c-28 -82 -28 -114 0 -71 21 30 79 31 88 2 3 -11 13 -20 20
-20 11 0 8 19 -15 81 -17 44 -30 82 -30 85 0 2 -8 4 -17 4 -13 0 -25 -21 -46
-81z m72 -21 c1 -5 -12 -8 -29 -8 -19 0 -28 4 -25 13 2 6 10 26 16 42 l11 30
13 -35 c8 -19 14 -38 14 -42z"/>
<path d="M1030 564 c0 -64 3 -85 13 -82 8 3 13 32 15 86 2 68 0 82 -13 82 -12
0 -15 -15 -15 -86z"/>
<path d="M2449 623 c-8 -9 -14 -38 -13 -70 0 -69 28 -103 71 -87 15 5 33 21
41 34 14 28 9 105 -9 126 -16 19 -74 17 -90 -3z m81 -43 c10 -59 -1 -85 -35
-85 -29 0 -30 2 -33 48 -4 54 11 79 42 75 15 -2 22 -13 26 -38z"/>
<path d="M4020 631 c0 -5 7 -11 15 -15 11 -4 15 -23 15 -81 0 -43 4 -75 10
-75 6 0 10 37 10 90 0 89 0 90 -25 90 -14 0 -25 -4 -25 -9z"/>
<path d="M5550 619 c-16 -30 -3 -36 21 -11 16 18 24 20 39 12 32 -17 23 -47
-25 -96 -25 -25 -43 -49 -40 -55 7 -11 115 -8 115 4 0 4 -19 7 -41 7 l-41 0
36 40 c57 63 47 120 -21 120 -23 0 -36 -6 -43 -21z"/>
<path d="M7100 620 c-9 -16 -8 -20 5 -20 8 0 15 5 15 11 0 6 12 9 28 7 35 -4
39 -41 5 -46 -31 -4 -29 -18 3 -26 20 -5 25 -12 22 -34 -4 -33 -32 -41 -59
-16 -25 23 -37 10 -14 -16 23 -26 59 -26 85 0 24 24 24 29 5 57 -10 14 -12 24
-5 28 16 10 12 62 -6 69 -33 13 -73 6 -84 -14z"/>
<path d="M8672 580 c-23 -32 -42 -64 -42 -70 0 -5 20 -10 45 -10 38 0 45 -3
45 -20 0 -11 5 -20 10 -20 6 0 10 9 10 20 0 12 7 20 18 20 16 1 16 1 0 14 -14
10 -18 28 -18 70 0 73 -14 73 -68 -4z m45 -57 c-3 -2 -17 -3 -31 -1 l-25 3 27
42 27 43 3 -41 c2 -23 1 -43 -1 -46z"/>
<path d="M457 603 c-3 -10 -6 -42 -6 -70 -1 -41 2 -53 14 -53 11 0 15 12 15
51 0 42 3 52 20 56 11 3 20 12 20 19 0 17 -12 18 -28 2 -9 -9 -12 -9 -12 0 0
18 -18 14 -23 -5z"/>
<path d="M557 613 c-2 -5 -5 -36 -6 -70 -2 -52 0 -63 13 -63 13 0 16 11 16 51
0 42 3 52 20 56 11 3 20 12 20 20 0 11 -4 11 -20 3 -14 -7 -20 -7 -20 0 0 12
-17 14 -23 3z"/>
<path d="M663 596 c-25 -22 -26 -27 -18 -62 12 -45 52 -67 85 -46 12 7 20 8
20 2 0 -5 7 -10 15 -10 12 0 15 14 15 70 0 64 -9 86 -25 60 -4 -7 -12 -7 -25
0 -27 14 -36 13 -67 -14z m71 -9 c39 -29 -1 -106 -41 -81 -25 16 -29 65 -7 81
10 7 21 13 24 13 3 0 14 -6 24 -13z"/>
<path d="M810 612 c0 -5 11 -36 25 -70 24 -58 24 -64 10 -92 -13 -24 -13 -30
-2 -30 17 0 99 188 86 196 -5 3 -20 -19 -33 -48 l-24 -53 -14 35 c-8 19 -18
43 -21 53 -6 17 -27 24 -27 9z"/>
<path d="M1094 609 c-3 -5 -4 -36 -3 -69 3 -78 27 -84 31 -9 6 95 68 93 68 -2
0 -37 4 -49 15 -49 11 0 15 12 15 48 0 66 -17 86 -74 88 -26 1 -49 -2 -52 -7z"/>
<path d="M1442 604 c-31 -21 -31 -87 0 -108 28 -20 58 -20 84 -2 27 20 10 32
-22 16 -18 -10 -30 -11 -42 -4 -35 23 -24 34 32 34 49 0 56 3 56 19 0 22 -44
61 -69 61 -9 0 -27 -7 -39 -16z m68 -19 c18 -21 9 -27 -36 -23 -36 3 -37 4
-20 21 21 21 40 22 56 2z"/>
<path d="M1570 615 c0 -2 9 -19 19 -36 20 -32 20 -33 -1 -61 -25 -36 -13 -52
14 -18 l20 25 15 -22 c27 -41 44 -27 20 16 -21 37 -21 40 -4 58 9 11 17 26 17
34 -1 9 -10 4 -24 -13 l-24 -27 -16 24 c-14 22 -36 34 -36 20z"/>
<path d="M2140 595 l0 -25 -190 0 c-120 0 -190 -4 -190 -10 0 -6 70 -10 190
-10 l190 0 0 -26 0 -26 48 27 c26 15 50 31 54 34 5 4 -17 19 -47 34 l-55 27 0
-25z"/>
</g>
</svg>
