<svg version="1.1" xmlns="http://www.w3.org/2000/svg" xmlns:xlink="http://www.w3.org/1999/xlink" width="1082" height="582"><defs/><g><rect fill="#97D3E1" stroke="none" x="0" y="0" width="1082" height="582"/><g transform="scale(1,1) translate(42,40)"><rect fill="#000000" stroke="none" x="0" y="40" width="1" height="460"/><rect fill="#000000" stroke="none" x="119" y="90" width="2" height="70"/><rect fill="#000000" stroke="none" x="119" y="160" width="2" height="60"/><rect fill="#000000" stroke="none" x="119" y="300" width="2" height="60"/><path fill="none" stroke="#000000" paint-order="fill stroke markers" d=" M 120.5 300.5 L 240.5 300.5" stroke-linecap="round" stroke-miterlimit="10"/><rect fill="#000000" stroke="none" x="240" y="300" width="1" height="100"/><rect fill="#000000" stroke="none" x="119" y="360" width="2" height="40"/><rect fill="#000000" stroke="none" x="119" y="400" width="2" height="50"/><path fill="none" stroke="#000000" paint-order="fill stroke markers" d=" M 120.5 400.5 L 240.5 400.5" stroke-linecap="round" stroke-miterlimit="10"/><path fill="none" stroke="#000000" paint-order="fill stroke markers" d=" M 120.5 160.5 L 240.5 160.5" stroke-linecap="round" stroke-miterlimit="10"/><rect fill="#000000" stroke="none" x="240" y="160" width="1" height="100"/><rect fill="#000000" stroke="none" x="119" y="220" width="2" height="40"/><rect fill="#000000" stroke="none" x="119" y="260" width="2" height="40"/><path fill="none" stroke="#000000" paint-order="fill stroke markers" d=" M 120.5 260.5 L 240.5 260.5" stroke-linecap="round" stroke-miterlimit="10"/><path fill="none" stroke="#000000" paint-order="fill stroke markers" d=" M 0.5 40.5 L 119.5 40.5" stroke-linecap="round" stroke-miterlimit="10"/><g transform="translate(0.5,40.5) rotate(180,0,0)"/><g transform="translate(119.5,40.5) rotate(0,0,0)"><path fill="#000000" stroke="#000000" paint-order="fill stroke markers" d=" M -20 -6 L 0 0 L -20 6 Z" stroke-linecap="round" stroke-linejoin="round" stroke-miterlimit="10"/></g><rect fill="#000000" stroke="none" x="119" y="40" width="2" height="50"/><path fill="none" stroke="#000000" paint-order="fill stroke markers" d=" M 0.5 500.5 L 120.5 500.5" stroke-linecap="round" stroke-miterlimit="10"/><rect fill="#000000" stroke="none" x="119" y="450" width="2" height="50"/><rect fill="#000000" stroke="none" x="419" y="90" width="2" height="210"/><rect fill="#000000" stroke="none" x="419" y="300" width="2" height="60"/><path fill="none" stroke="#000000" paint-order="fill stroke markers" d=" M 420.5 300.5 L 730.5 300.5" stroke-linecap="round" stroke-miterlimit="10"/><rect fill="#000000" stroke="none" x="730" y="300" width="1" height="60"/><rect fill="#000000" stroke="none" x="730" y="360" width="1" height="40"/><rect fill="#000000" stroke="none" x="419" y="360" width="2" height="40"/><rect fill="#000000" stroke="none" x="419" y="400" width="2" height="50"/><path fill="none" stroke="#000000" paint-order="fill stroke markers" d=" M 420.5 400.5 L 730.5 400.5" stroke-linecap="round" stroke-miterlimit="10"/><path fill="none" stroke="#000000" paint-order="fill stroke markers" d=" M 120.5 40.5 L 420.5 40.5" stroke-linecap="round" stroke-miterlimit="10"/><rect fill="#000000" stroke="none" x="419" y="40" width="2" height="50"/><path fill="none" stroke="#000000" paint-order="fill stroke markers" d=" M 120.5 500.5 L 420.5 500.5" stroke-linecap="round" stroke-miterlimit="10"/><rect fill="#000000" stroke="none" x="419" y="450" width="2" height="50"/><rect fill="#000000" stroke="none" x="969" y="90" width="2" height="70"/><path fill="none" stroke="#000000" paint-order="fill stroke markers" d=" M 420.5 40.5 L 970.5 40.5" stroke-linecap="round" stroke-miterlimit="10"/><rect fill="#000000" stroke="none" x="969" y="40" width="2" height="50"/><rect fill="#000000" stroke="none" x="119" y="0" width="2" height="40"/><path fill="none" stroke="#000000" paint-order="fill stroke markers" d=" M 120.5 0.5 L 260.5 0.5" stroke-linecap="round" stroke-miterlimit="10"/><path fill="rgb(0,0,0)" stroke="none" paint-order="stroke fill markers" d=" M 944 185.6 A 20 20 0 0 1 944 145.6 L 1004 145.6 L 1004 145.6 A 20 20 0 0 1 1004 185.6 Z" fill-opacity="0.3"/><path fill="#ffffff" stroke="none" paint-order="stroke fill markers" d=" M 940 180 A 20 20 0 0 1 940 140 L 1000 140 L 1000 140 A 20 20 0 0 1 1000 180 Z"/><text fill="#000000" stroke="none" font-family="Consolas, Monaco, Cousine" font-size="14px" font-style="normal" font-weight="normal" text-decoration="normal" x="958" y="164" text-anchor="start" dominant-baseline="alphabetic">End</text><path fill="rgb(0,0,0)" stroke="none" paint-order="stroke fill markers" d=" M 24 65.6 L 224 65.6 L 224 105.6 L 124 125.6 L 24 105.6 Z" fill-opacity="0.3"/><path fill="#ffffff" stroke="none" paint-order="stroke fill markers" d=" M 20 60 L 220 60 L 220 100 L 120 120 L 20 100 Z"/><text fill="#000000" stroke="none" font-family="Consolas, Monaco, Cousine" font-size="14px" font-style="normal" font-weight="normal" text-decoration="normal" x="30" y="84" text-anchor="start" dominant-baseline="alphabetic">Absence</text><text fill="#000000" stroke="none" font-family="Consolas, Monaco, Cousine" font-size="14px" font-style="normal" font-weight="normal" text-decoration="normal" x="92" y="84" text-anchor="start" dominant-baseline="alphabetic">or</text><text fill="#000000" stroke="none" font-family="Consolas, Monaco, Cousine" font-size="14px" font-style="normal" font-weight="normal" text-decoration="normal" x="115" y="84" text-anchor="start" dominant-baseline="alphabetic">equality</text><path fill="rgb(0,0,0)" stroke="none" paint-order="stroke fill markers" d=" M 22 165.6 L 42 145.6 L 206 145.6 L 226 165.6 L 206 185.6 L 42 185.6 Z" fill-opacity="0.3"/><path fill="#ffffff" stroke="none" paint-order="stroke fill markers" d=" M 18 160 L 38 140 L 202 140 L 222 160 L 202 180 L 38 180 Z"/><text fill="#000000" stroke="none" font-family="Consolas, Monaco, Cousine" font-size="14px" font-style="normal" font-weight="normal" text-decoration="normal" x="40" y="164" text-anchor="start" dominant-baseline="alphabetic">node</text><text fill="#cc3399" stroke="none" font-family="Consolas, Monaco, Cousine" font-size="14px" font-style="normal" font-weight="normal" text-decoration="normal" x="79" y="164" text-anchor="start" dominant-baseline="alphabetic">===</text><text fill="#003399" stroke="none" font-family="Consolas, Monaco, Cousine" font-size="14px" font-style="normal" font-weight="normal" text-decoration="normal" x="110" y="164" text-anchor="start" dominant-baseline="alphabetic">null</text><text fill="#000000" stroke="none" font-family="Consolas, Monaco, Cousine" font-size="14px" font-style="normal" font-weight="normal" text-decoration="normal" x="89.4" y="193" text-anchor="start" dominant-baseline="alphabetic">Yes</text><text fill="#000000" stroke="none" font-family="Consolas, Monaco, Cousine" font-size="14px" font-style="normal" font-weight="normal" text-decoration="normal" x="228" y="153" text-anchor="start" dominant-baseline="alphabetic">No</text><rect fill="rgb(0,0,0)" stroke="none" x="25" y="207" width="200" height="40" fill-opacity="0.3"/><rect fill="#ffffff" stroke="none" x="20" y="200" width="200" height="40"/><text fill="#003399" stroke="none" font-family="Consolas, Monaco, Cousine" font-size="14px" font-style="normal" font-weight="normal" text-decoration="normal" x="30" y="224" text-anchor="start" dominant-baseline="alphabetic">return</text><text fill="#003399" stroke="none" font-family="Consolas, Monaco, Cousine" font-size="14px" font-style="normal" font-weight="normal" text-decoration="normal" x="84" y="224" text-anchor="start" dominant-baseline="alphabetic">null</text><path fill="rgb(0,0,0)" stroke="none" paint-order="stroke fill markers" d=" M 22 305.6 L 42 285.6 L 206 285.6 L 226 305.6 L 206 325.6 L 42 325.6 Z" fill-opacity="0.3"/><path fill="#ffffff" stroke="none" paint-order="stroke fill markers" d=" M 18 300 L 38 280 L 202 280 L 222 300 L 202 320 L 38 320 Z"/><text fill="#000000" stroke="none" font-family="Consolas, Monaco, Cousine" font-size="14px" font-style="normal" font-weight="normal" text-decoration="normal" x="40" y="304" text-anchor="start" dominant-baseline="alphabetic">value</text><text fill="#cc3399" stroke="none" font-family="Consolas, Monaco, Cousine" font-size="14px" font-style="normal" font-weight="normal" text-decoration="normal" x="86" y="304" text-anchor="start" dominant-baseline="alphabetic">===</text><text fill="#000000" stroke="none" font-family="Consolas, Monaco, Cousine" font-size="14px" font-style="normal" font-weight="normal" text-decoration="normal" x="117" y="304" text-anchor="start" dominant-baseline="alphabetic">node</text><text fill="#cc3399" stroke="none" font-family="Consolas, Monaco, Cousine" font-size="14px" font-style="normal" font-weight="normal" text-decoration="normal" x="148" y="304" text-anchor="start" dominant-baseline="alphabetic">.</text><text fill="#000000" stroke="none" font-family="Consolas, Monaco, Cousine" font-size="14px" font-style="normal" font-weight="normal" text-decoration="normal" x="156" y="304" text-anchor="start" dominant-baseline="alphabetic">value</text><text fill="#000000" stroke="none" font-family="Consolas, Monaco, Cousine" font-size="14px" font-style="normal" font-weight="normal" text-decoration="normal" x="89.4" y="333" text-anchor="start" dominant-baseline="alphabetic">Yes</text><text fill="#000000" stroke="none" font-family="Consolas, Monaco, Cousine" font-size="14px" font-style="normal" font-weight="normal" text-decoration="normal" x="228" y="293" text-anchor="start" dominant-baseline="alphabetic">No</text><rect fill="rgb(0,0,0)" stroke="none" x="25" y="347" width="200" height="40" fill-opacity="0.3"/><rect fill="#ffffff" stroke="none" x="20" y="340" width="200" height="40"/><text fill="#003399" stroke="none" font-family="Consolas, Monaco, Cousine" font-size="14px" font-style="normal" font-weight="normal" text-decoration="normal" x="30" y="364" text-anchor="start" dominant-baseline="alphabetic">return</text><text fill="#000000" stroke="none" font-family="Consolas, Monaco, Cousine" font-size="14px" font-style="normal" font-weight="normal" text-decoration="normal" x="84" y="364" text-anchor="start" dominant-baseline="alphabetic">node</text><path fill="rgb(0,0,0)" stroke="none" paint-order="stroke fill markers" d=" M 924 65.6 L 1024 65.6 L 1024 105.6 L 974 125.6 L 924 105.6 Z" fill-opacity="0.3"/><path fill="#ffffff" stroke="none" paint-order="stroke fill markers" d=" M 920 60 L 1020 60 L 1020 100 L 970 120 L 920 100 Z"/><text fill="#000000" stroke="none" font-family="Consolas, Monaco, Cousine" font-size="14px" font-style="normal" font-weight="normal" text-decoration="normal" x="930" y="84" text-anchor="start" dominant-baseline="alphabetic">Exit</text><path fill="rgb(0,0,0)" stroke="none" paint-order="stroke fill markers" d=" M 284 65.6 L 564 65.6 L 564 105.6 L 424 125.6 L 284 105.6 Z" fill-opacity="0.3"/><path fill="#ffffff" stroke="none" paint-order="stroke fill markers" d=" M 280 60 L 560 60 L 560 100 L 420 120 L 280 100 Z"/><text fill="#000000" stroke="none" font-family="Consolas, Monaco, Cousine" font-size="14px" font-style="normal" font-weight="normal" text-decoration="normal" x="290" y="84" text-anchor="start" dominant-baseline="alphabetic">Left</text><text fill="#000000" stroke="none" font-family="Consolas, Monaco, Cousine" font-size="14px" font-style="normal" font-weight="normal" text-decoration="normal" x="329" y="84" text-anchor="start" dominant-baseline="alphabetic">or</text><text fill="#000000" stroke="none" font-family="Consolas, Monaco, Cousine" font-size="14px" font-style="normal" font-weight="normal" text-decoration="normal" x="352" y="84" text-anchor="start" dominant-baseline="alphabetic">Right</text><path fill="rgb(0,0,0)" stroke="none" paint-order="stroke fill markers" d=" M 282 305.6 L 302 285.6 L 546 285.6 L 566 305.6 L 546 325.6 L 302 325.6 Z" fill-opacity="0.3"/><path fill="#ffffff" stroke="none" paint-order="stroke fill markers" d=" M 278 300 L 298 280 L 542 280 L 562 300 L 542 320 L 298 320 Z"/><text fill="#000000" stroke="none" font-family="Consolas, Monaco, Cousine" font-size="14px" font-style="normal" font-weight="normal" text-decoration="normal" x="300" y="304" text-anchor="start" dominant-baseline="alphabetic">value</text><text fill="#cc3399" stroke="none" font-family="Consolas, Monaco, Cousine" font-size="14px" font-style="normal" font-weight="normal" text-decoration="normal" x="346" y="304" text-anchor="start" dominant-baseline="alphabetic">&lt;</text><text fill="#000000" stroke="none" font-family="Consolas, Monaco, Cousine" font-size="14px" font-style="normal" font-weight="normal" text-decoration="normal" x="362" y="304" text-anchor="start" dominant-baseline="alphabetic">node</text><text fill="#cc3399" stroke="none" font-family="Consolas, Monaco, Cousine" font-size="14px" font-style="normal" font-weight="normal" text-decoration="normal" x="393" y="304" text-anchor="start" dominant-baseline="alphabetic">.</text><text fill="#000000" stroke="none" font-family="Consolas, Monaco, Cousine" font-size="14px" font-style="normal" font-weight="normal" text-decoration="normal" x="401" y="304" text-anchor="start" dominant-baseline="alphabetic">value</text><text fill="#000000" stroke="none" font-family="Consolas, Monaco, Cousine" font-size="14px" font-style="normal" font-weight="normal" text-decoration="normal" x="389.4" y="333" text-anchor="start" dominant-baseline="alphabetic">Yes</text><text fill="#000000" stroke="none" font-family="Consolas, Monaco, Cousine" font-size="14px" font-style="normal" font-weight="normal" text-decoration="normal" x="568" y="293" text-anchor="start" dominant-baseline="alphabetic">No</text><rect fill="rgb(0,0,0)" stroke="none" x="285" y="347" width="280" height="40" fill-opacity="0.3"/><rect fill="#ffffff" stroke="none" x="280" y="340" width="280" height="40"/><text fill="#003399" stroke="none" font-family="Consolas, Monaco, Cousine" font-size="14px" font-style="normal" font-weight="normal" text-decoration="normal" x="290" y="364" text-anchor="start" dominant-baseline="alphabetic">return</text><text fill="#000000" stroke="none" font-family="Consolas, Monaco, Cousine" font-size="14px" font-style="normal" font-weight="normal" text-decoration="normal" x="344" y="364" text-anchor="start" dominant-baseline="alphabetic">findNode</text><text fill="#cc3399" stroke="none" font-family="Consolas, Monaco, Cousine" font-size="14px" font-style="normal" font-weight="normal" text-decoration="normal" x="406" y="364" text-anchor="start" dominant-baseline="alphabetic">(</text><text fill="#000000" stroke="none" font-family="Consolas, Monaco, Cousine" font-size="14px" font-style="normal" font-weight="normal" text-decoration="normal" x="414" y="364" text-anchor="start" dominant-baseline="alphabetic">node</text><text fill="#cc3399" stroke="none" font-family="Consolas, Monaco, Cousine" font-size="14px" font-style="normal" font-weight="normal" text-decoration="normal" x="445" y="364" text-anchor="start" dominant-baseline="alphabetic">.</text><text fill="#000000" stroke="none" font-family="Consolas, Monaco, Cousine" font-size="14px" font-style="normal" font-weight="normal" text-decoration="normal" x="453" y="364" text-anchor="start" dominant-baseline="alphabetic">left</text><text fill="#cc3399" stroke="none" font-family="Consolas, Monaco, Cousine" font-size="14px" font-style="normal" font-weight="normal" text-decoration="normal" x="484" y="364" text-anchor="start" dominant-baseline="alphabetic">,</text><text fill="#000000" stroke="none" font-family="Consolas, Monaco, Cousine" font-size="14px" font-style="normal" font-weight="normal" text-decoration="normal" x="500" y="364" text-anchor="start" dominant-baseline="alphabetic">value</text><text fill="#cc3399" stroke="none" font-family="Consolas, Monaco, Cousine" font-size="14px" font-style="normal" font-weight="normal" text-decoration="normal" x="538" y="364" text-anchor="start" dominant-baseline="alphabetic">)</text><rect fill="rgb(0,0,0)" stroke="none" x="585" y="347" width="300" height="40" fill-opacity="0.3"/><rect fill="#ffffff" stroke="none" x="580" y="340" width="300" height="40"/><text fill="#003399" stroke="none" font-family="Consolas, Monaco, Cousine" font-size="14px" font-style="normal" font-weight="normal" text-decoration="normal" x="590" y="364" text-anchor="start" dominant-baseline="alphabetic">return</text><text fill="#000000" stroke="none" font-family="Consolas, Monaco, Cousine" font-size="14px" font-style="normal" font-weight="normal" text-decoration="normal" x="644" y="364" text-anchor="start" dominant-baseline="alphabetic">findNode</text><text fill="#cc3399" stroke="none" font-family="Consolas, Monaco, Cousine" font-size="14px" font-style="normal" font-weight="normal" text-decoration="normal" x="706" y="364" text-anchor="start" dominant-baseline="alphabetic">(</text><text fill="#000000" stroke="none" font-family="Consolas, Monaco, Cousine" font-size="14px" font-style="normal" font-weight="normal" text-decoration="normal" x="714" y="364" text-anchor="start" dominant-baseline="alphabetic">node</text><text fill="#cc3399" stroke="none" font-family="Consolas, Monaco, Cousine" font-size="14px" font-style="normal" font-weight="normal" text-decoration="normal" x="745" y="364" text-anchor="start" dominant-baseline="alphabetic">.</text><text fill="#000000" stroke="none" font-family="Consolas, Monaco, Cousine" font-size="14px" font-style="normal" font-weight="normal" text-decoration="normal" x="753" y="364" text-anchor="start" dominant-baseline="alphabetic">right</text><text fill="#cc3399" stroke="none" font-family="Consolas, Monaco, Cousine" font-size="14px" font-style="normal" font-weight="normal" text-decoration="normal" x="791" y="364" text-anchor="start" dominant-baseline="alphabetic">,</text><text fill="#000000" stroke="none" font-family="Consolas, Monaco, Cousine" font-size="14px" font-style="normal" font-weight="normal" text-decoration="normal" x="807" y="364" text-anchor="start" dominant-baseline="alphabetic">value</text><text fill="#cc3399" stroke="none" font-family="Consolas, Monaco, Cousine" font-size="14px" font-style="normal" font-weight="normal" text-decoration="normal" x="845" y="364" text-anchor="start" dominant-baseline="alphabetic">)</text><path fill="rgb(0,0,0)" stroke="none" paint-order="stroke fill markers" d=" M 84 25.6 A 20 20 0 0 1 84 -14.399999999999999 L 164 -14.399999999999999 L 164 -14.399999999999999 A 20 20 0 0 1 164 25.6 Z" fill-opacity="0.3"/><path fill="#ffffff" stroke="none" paint-order="stroke fill markers" d=" M 80 20 A 20 20 0 0 1 80 -20 L 160 -20 L 160 -20 A 20 20 0 0 1 160 20 Z"/><text fill="#000000" stroke="none" font-family="Consolas, Monaco, Cousine" font-size="18px" font-style="normal" font-weight="normal" text-decoration="normal" x="80" y="6" text-anchor="start" dominant-baseline="alphabetic">findNode</text><rect fill="rgb(0,0,0)" stroke="none" x="205" y="-13" width="120" height="40" fill-opacity="0.3"/><rect fill="#ffffff" stroke="none" x="200" y="-20" width="120" height="40"/><text fill="#000000" stroke="none" font-family="Consolas, Monaco, Cousine" font-size="14px" font-style="normal" font-weight="normal" text-decoration="normal" x="210" y="4" text-anchor="start" dominant-baseline="alphabetic">node,</text><text fill="#000000" stroke="none" font-family="Consolas, Monaco, Cousine" font-size="14px" font-style="normal" font-weight="normal" text-decoration="normal" x="256" y="4" text-anchor="start" dominant-baseline="alphabetic">value</text><path fill="rgb(0,0,0)" stroke="none" paint-order="stroke fill markers" d=" M 24 445.6 L 124 425.6 L 224 445.6 L 224 485.6 L 24 485.6 Z" fill-opacity="0.3"/><path fill="#ffffff" stroke="none" paint-order="stroke fill markers" d=" M 20 440 L 120 420 L 220 440 L 220 480 L 20 480 Z"/><text fill="#000000" stroke="none" font-family="Consolas, Monaco, Cousine" font-size="14px" font-style="normal" font-weight="normal" text-decoration="normal" x="30" y="464" text-anchor="start" dominant-baseline="alphabetic">Left</text><text fill="#000000" stroke="none" font-family="Consolas, Monaco, Cousine" font-size="14px" font-style="normal" font-weight="normal" text-decoration="normal" x="69" y="464" text-anchor="start" dominant-baseline="alphabetic">or</text><text fill="#000000" stroke="none" font-family="Consolas, Monaco, Cousine" font-size="14px" font-style="normal" font-weight="normal" text-decoration="normal" x="92" y="464" text-anchor="start" dominant-baseline="alphabetic">Right</text><path fill="rgb(0,0,0)" stroke="none" paint-order="stroke fill markers" d=" M 284 445.6 L 424 425.6 L 564 445.6 L 564 485.6 L 284 485.6 Z" fill-opacity="0.3"/><path fill="#ffffff" stroke="none" paint-order="stroke fill markers" d=" M 280 440 L 420 420 L 560 440 L 560 480 L 280 480 Z"/><text fill="#000000" stroke="none" font-family="Consolas, Monaco, Cousine" font-size="14px" font-style="normal" font-weight="normal" text-decoration="normal" x="290" y="464" text-anchor="start" dominant-baseline="alphabetic">Exit</text></g></g></svg>