<?xml version="1.0" standalone="no"?>
<!DOCTYPE svg PUBLIC "-//W3C//DTD SVG 20010904//EN"
 "http://www.w3.org/TR/2001/REC-SVG-20010904/DTD/svg10.dtd">
<svg version="1.0" xmlns="http://www.w3.org/2000/svg"
 width="1170.000000pt" height="720.000000pt" viewBox="0 0 1170.000000 720.000000"
 preserveAspectRatio="xMidYMid meet">

<g transform="translate(0.000000,720.000000) scale(0.100000,-0.100000)"
fill="#000000" stroke="none">
<path d="M405 6982 c-265 -92 -273 -473 -12 -571 56 -20 73 -21 477 -21 l420
0 0 -95 c0 -71 -3 -93 -12 -90 -7 2 -44 13 -83 25 -38 11 -78 23 -87 26 -15 4
-18 -1 -18 -25 l0 -31 -375 0 c-362 0 -376 -1 -395 -20 -20 -20 -20 -33 -20
-2985 0 -2952 0 -2965 20 -2985 19 -19 33 -20 493 -20 259 0 930 -1 1490 -3
l1017 -2 0 103 0 102 395 0 395 0 0 205 0 205 -27 7 c-16 3 -192 48 -393 98
l-365 91 -3 84 c-2 71 0 87 14 97 14 10 544 13 2676 13 2645 0 2658 0 2678 20
17 17 20 33 20 100 l0 80 400 0 400 0 0 305 0 305 -400 0 -400 0 0 95 0 94 38
10 c20 6 183 46 362 91 179 45 342 85 362 91 l38 10 0 204 0 205 -400 0 -400
0 0 100 0 100 -2695 0 -2695 0 0 95 0 95 345 0 344 0 6 33 c7 40 95 751 95
766 0 8 -116 11 -395 11 l-395 0 2 697 3 697 365 91 c201 50 377 95 393 98
l27 7 0 205 0 205 -395 0 -395 0 0 95 0 95 3685 0 3685 0 0 -95 0 -95 -395 0
-395 0 0 -205 0 -205 28 -7 c15 -3 191 -48 392 -98 l365 -91 3 -97 3 -96 -58
-4 c-32 -2 10 -4 92 -5 135 -2 154 -5 190 -25 45 -25 85 -92 85 -142 0 -54
-40 -117 -90 -142 -40 -21 -58 -23 -205 -23 -147 0 -165 2 -205 23 -82 41
-112 135 -70 217 22 43 50 65 108 86 20 7 29 13 19 14 -50 1 -125 -57 -146
-113 -33 -86 11 -187 96 -223 45 -20 351 -20 396 0 141 60 141 262 0 322 -18
8 -66 14 -108 14 l-76 0 3 97 3 97 365 91 c201 50 377 95 393 98 l27 7 0 205
0 205 -395 0 -395 0 0 103 0 102 -4700 -2 -4700 -3 0 95 0 95 420 0 c404 0
421 1 477 21 113 43 193 160 193 284 0 124 -80 241 -193 284 -58 21 -61 21
-885 19 l-827 -3 840 -5 840 -5 50 -27 c60 -31 104 -77 136 -138 19 -36 24
-61 24 -125 0 -64 -5 -89 -24 -125 -32 -61 -76 -107 -136 -138 l-50 -27 -880
0 -880 0 -45 24 c-61 32 -107 76 -138 136 -37 69 -38 188 -3 255 46 88 114
141 216 166 29 7 40 13 25 13 -14 0 -48 -7 -75 -17z m685 -817 c0 -14 1 -25 3
-25 1 0 38 11 82 25 121 37 115 41 115 -70 l0 -95 -395 0 -395 0 0 -205 0
-205 28 -7 c15 -3 191 -48 392 -98 l365 -91 3 -97 3 -97 -396 0 -395 0 0 -205
0 -205 395 0 395 0 0 -95 0 -95 -395 0 -395 0 0 -205 0 -205 395 0 395 0 0
-95 0 -95 -395 0 -395 0 0 -205 0 -205 395 0 395 0 0 -95 0 -95 -395 0 -395 0
0 -305 0 -305 395 0 395 0 0 -85 c0 -69 3 -85 15 -85 12 0 15 16 15 85 l0 85
395 0 395 0 0 305 0 305 -395 0 -395 0 0 95 0 95 395 0 395 0 0 205 0 205
-395 0 -395 0 0 95 0 95 395 0 395 0 0 205 0 205 -395 0 -395 0 0 95 0 95 395
0 395 0 0 205 0 205 -395 0 -396 0 3 97 3 97 365 91 c201 50 377 95 392 98
l28 7 0 205 0 205 -395 0 -395 0 0 95 0 95 985 0 985 0 0 -95 0 -95 -395 0
-395 0 0 -205 0 -205 28 -7 c15 -3 191 -48 392 -98 l365 -91 3 -697 2 -697
-344 0 -344 0 -6 -37 c-6 -40 -96 -757 -96 -767 0 -3 178 -6 395 -6 l395 0 0
-195 0 -195 -395 0 -395 0 0 -205 0 -205 28 -7 c15 -3 191 -48 392 -98 l365
-91 3 -97 3 -97 -396 0 -395 0 0 -305 0 -305 395 0 395 0 -2 -197 -3 -197
-365 -91 c-201 -50 -377 -95 -393 -98 l-27 -7 0 -205 0 -205 395 0 395 0 0
-95 0 -95 -985 0 -985 0 0 95 0 95 395 0 395 0 0 205 0 205 -27 7 c-16 3 -192
48 -393 98 l-365 91 -3 97 -3 97 396 0 395 0 0 205 0 205 -395 0 -395 0 0 85
c0 69 -3 85 -15 85 -12 0 -15 -16 -15 -85 l0 -85 -395 0 -395 0 0 -205 0 -205
395 0 396 0 -3 -97 -3 -97 -365 -91 c-201 -50 -377 -95 -392 -98 l-28 -7 0
-205 0 -205 395 0 395 0 0 -95 0 -95 -470 0 c-457 0 -471 1 -490 20 -20 20
-20 33 -20 2975 0 2942 0 2955 20 2975 19 19 33 20 390 20 l370 0 0 -25z
m1010 -370 l0 -194 -37 -10 c-21 -6 -200 -51 -399 -100 l-360 -90 -360 90
c-197 50 -376 94 -396 100 l-38 10 0 194 0 195 795 0 795 0 0 -195z m2000 0
l0 -194 -37 -10 c-21 -6 -200 -51 -399 -100 l-360 -90 -360 90 c-197 50 -376
94 -396 100 l-38 10 0 194 0 195 795 0 795 0 0 -195z m7400 0 l0 -194 -37 -10
c-21 -6 -200 -51 -399 -100 l-360 -90 -360 90 c-197 50 -376 94 -396 100 l-38
10 0 194 0 195 795 0 795 0 0 -195z m-9400 -800 l0 -195 -795 0 -795 0 0 195
0 195 795 0 795 0 0 -195z m0 -600 l0 -195 -795 0 -795 0 0 195 0 195 795 0
795 0 0 -195z m0 -600 l0 -195 -795 0 -795 0 0 195 0 195 795 0 795 0 0 -195z
m1995 163 c-3 -18 -23 -179 -45 -358 -22 -179 -43 -342 -46 -362 l-6 -38 -744
0 -745 0 6 33 c3 17 23 178 45 357 22 179 43 342 46 363 l6 37 744 0 745 0 -6
-32z m-1995 -863 l0 -295 -795 0 -795 0 0 295 0 295 795 0 795 0 0 -295z
m3000 -200 l0 -95 -400 0 -400 0 0 -205 0 -204 38 -10 c20 -6 183 -46 362 -91
179 -45 342 -85 363 -91 l37 -10 0 -94 0 -95 -400 0 -400 0 0 -305 0 -305 400
0 400 0 0 -75 c0 -128 100 -115 -894 -115 -470 0 -861 -3 -870 -6 -14 -5 -16
7 -16 95 l0 101 395 0 395 0 0 305 0 305 -395 0 -396 0 3 97 3 97 365 91 c201
50 377 95 393 98 l27 7 0 205 0 205 -395 0 -395 0 0 95 0 95 890 0 890 0 0
-95z m1800 0 l0 -95 -400 0 -400 0 0 -205 0 -204 38 -10 c20 -6 183 -46 362
-91 179 -45 342 -85 363 -91 l37 -10 0 -94 0 -95 -400 0 -400 0 0 -305 0 -305
400 0 400 0 0 -75 c0 -128 104 -115 -925 -115 -873 0 -886 0 -875 19 5 11 10
54 10 95 l0 76 400 0 400 0 0 305 0 305 -400 0 -400 0 0 95 0 94 38 10 c20 6
183 46 362 91 179 45 342 85 363 91 l37 10 0 204 0 205 -400 0 -400 0 0 95 0
95 895 0 895 0 0 -95z m1800 0 l0 -95 -400 0 -400 0 0 -205 0 -204 38 -10 c20
-6 183 -46 362 -91 179 -45 342 -85 363 -91 l37 -10 0 -94 0 -95 -400 0 -400
0 0 -305 0 -305 400 0 400 0 0 -75 c0 -128 104 -115 -925 -115 -873 0 -886 0
-875 19 5 11 10 54 10 95 l0 76 400 0 400 0 0 305 0 305 -400 0 -400 0 0 95 0
94 38 10 c20 6 183 46 362 91 179 45 342 85 363 91 l37 10 0 204 0 205 -400 0
-400 0 0 95 0 95 895 0 895 0 0 -95z m-4600 -300 l0 -195 -795 0 -795 0 0 195
0 195 795 0 795 0 0 -195z m1800 0 l0 -195 -795 0 -795 0 0 195 0 195 795 0
795 0 0 -195z m1800 0 l0 -195 -795 0 -795 0 0 195 0 195 795 0 795 0 0 -195z
m1800 0 l0 -195 -795 0 -795 0 0 195 0 195 795 0 795 0 0 -195z m-5826 -300
l-370 -94 -370 94 -369 93 740 0 740 0 -371 -93z m1801 0 l-370 -94 -370 94
-370 93 740 0 740 0 -370 -93z m1800 0 l-370 -94 -370 94 -370 93 740 0 740 0
-370 -93z m1800 0 l-370 -94 -370 94 -370 93 740 0 740 0 -370 -93z m-4975
-600 l0 -295 -795 0 -795 0 0 295 0 295 795 0 795 0 0 -295z m1800 0 l0 -295
-795 0 -795 0 0 295 0 295 795 0 795 0 0 -295z m1800 0 l0 -295 -795 0 -795 0
0 295 0 295 795 0 795 0 0 -295z m1800 0 l0 -295 -795 0 -795 0 0 295 0 295
795 0 795 0 0 -295z m-7400 -300 l0 -195 -795 0 -795 0 0 195 0 195 795 0 795
0 0 -195z m-437 -495 c199 -50 379 -95 400 -101 l37 -10 0 -194 0 -195 -795 0
-795 0 0 195 0 195 28 7 c15 3 191 48 392 99 201 51 366 93 368 93 1 1 165
-40 365 -89z m2000 0 c199 -50 379 -95 400 -101 l37 -10 0 -194 0 -195 -795 0
-795 0 0 195 0 195 28 7 c15 3 191 48 392 99 201 51 366 93 368 93 1 1 165
-40 365 -89z"/>
<path d="M500 2195 l0 -405 805 0 805 0 0 405 0 405 -805 0 -805 0 0 -405z
m1600 0 l0 -395 -795 0 -795 0 0 395 0 395 795 0 795 0 0 -395z"/>
<path d="M1190 2314 c0 -8 5 -12 10 -9 6 4 8 11 5 16 -9 14 -15 11 -15 -7z"/>
<path d="M1742 2260 c0 -14 2 -19 5 -12 2 6 2 18 0 25 -3 6 -5 1 -5 -13z"/>
<path d="M1800 2253 c0 -7 6 -13 13 -13 8 0 14 6 14 13 0 8 -6 14 -14 14 -7 0
-13 -6 -13 -14z"/>
<path d="M620 2251 c0 -10 26 -9 36 2 4 4 -2 7 -14 7 -12 0 -22 -4 -22 -9z"/>
<path d="M901 2248 c-1 -21 15 -32 25 -17 4 7 3 9 -4 5 -6 -3 -13 2 -15 11 -4
16 -5 16 -6 1z"/>
<path d="M1611 2244 c0 -11 3 -14 6 -6 3 7 2 16 -1 19 -3 4 -6 -2 -5 -13z"/>
<path d="M1637 2253 c-4 -3 -7 -11 -7 -17 0 -6 5 -5 12 2 6 6 9 14 7 17 -3 3
-9 2 -12 -2z"/>
<path d="M1760 2252 c0 -5 7 -9 15 -9 8 0 15 4 15 9 0 4 -7 8 -15 8 -8 0 -15
-4 -15 -8z"/>
<path d="M720 2070 c0 -5 5 -10 11 -10 5 0 7 -5 3 -12 -4 -7 -3 -8 5 -4 9 6 9
11 0 22 -14 17 -19 18 -19 4z"/>
<path d="M1074 2071 c4 -5 0 -12 -6 -14 -8 -3 -6 -6 5 -6 9 -1 17 6 17 14 0 8
-5 15 -11 15 -5 0 -8 -4 -5 -9z"/>
<path d="M1476 2053 c-6 -14 -5 -15 5 -6 7 7 10 15 7 18 -3 3 -9 -2 -12 -12z"/>
<path d="M1806 2053 c-6 -14 -5 -15 5 -6 7 7 10 15 7 18 -3 3 -9 -2 -12 -12z"/>
<path d="M1836 2053 c-6 -14 -5 -15 5 -6 7 7 10 15 7 18 -3 3 -9 -2 -12 -12z"/>
<path d="M1001 2004 c0 -11 3 -14 6 -6 3 7 2 16 -1 19 -3 4 -6 -2 -5 -13z"/>
<path d="M1541 2004 c0 -11 3 -14 6 -6 3 7 2 16 -1 19 -3 4 -6 -2 -5 -13z"/>
<path d="M1560 2000 c0 -5 5 -10 10 -10 6 0 10 5 10 10 0 6 -4 10 -10 10 -5 0
-10 -4 -10 -10z"/>
<path d="M1602 1998 c5 -15 28 -23 28 -10 0 5 -7 13 -16 16 -10 4 -14 1 -12
-6z"/>
<path d="M870 1990 c0 -5 5 -10 11 -10 5 0 7 5 4 10 -3 6 -8 10 -11 10 -2 0
-4 -4 -4 -10z"/>
<path d="M811 1884 c0 -11 3 -14 6 -6 3 7 2 16 -1 19 -3 4 -6 -2 -5 -13z"/>
<path d="M1165 1890 c-7 -11 10 -19 38 -17 21 1 22 13 1 21 -8 3 -12 2 -9 -4
3 -6 -1 -10 -10 -10 -9 0 -13 5 -10 10 3 6 4 10 1 10 -3 0 -8 -5 -11 -10z"/>
<path d="M1563 1885 c0 -8 4 -12 9 -9 5 3 6 10 3 15 -9 13 -12 11 -12 -6z"/>
<path d="M1930 1884 c0 -8 5 -12 10 -9 6 4 8 11 5 16 -9 14 -15 11 -15 -7z"/>
<path d="M780 5790 c0 -33 4 -60 10 -60 6 0 10 27 10 60 0 33 -4 60 -10 60 -6
0 -10 -27 -10 -60z"/>
<path d="M1267 5843 c-4 -3 -7 -13 -7 -21 0 -9 -8 -24 -17 -34 -27 -30 -6 -53
51 -54 25 -1 46 2 46 7 0 5 -5 9 -10 9 -6 0 -8 12 -5 28 6 24 5 25 -8 10 -10
-13 -17 -14 -25 -6 -8 8 -7 14 5 23 10 7 14 19 10 29 -6 16 -28 22 -40 9z m28
-23 c-3 -5 -10 -10 -16 -10 -5 0 -9 5 -9 10 0 6 7 10 16 10 8 0 12 -4 9 -10z
m-11 -56 c4 -11 1 -14 -11 -12 -9 2 -18 9 -21 16 -6 18 25 15 32 -4z"/>
<path d="M1410 5790 c0 -33 4 -60 10 -60 6 0 10 27 10 60 0 33 -4 60 -10 60
-6 0 -10 -27 -10 -60z"/>
<path d="M1133 5825 c-7 -8 -11 -20 -9 -27 3 -7 7 -25 10 -40 4 -16 12 -28 19
-28 11 0 15 50 8 103 -2 11 -15 8 -28 -8z"/>
<path d="M1818 5829 c-2 -5 -18 -11 -36 -11 -31 -1 -32 -2 -32 -45 0 -50 17
-59 22 -11 3 37 38 55 38 20 0 -29 10 -52 24 -52 10 0 13 52 7 103 -1 11 -19
8 -23 -4z"/>
<path d="M820 5774 c0 -24 5 -44 10 -44 6 0 10 9 10 19 0 30 11 51 26 51 9 0
14 -12 14 -35 0 -19 5 -35 11 -35 6 0 9 17 7 43 -3 41 -4 42 -40 43 l-38 1 0
-43z"/>
<path d="M930 5754 c0 -36 4 -64 10 -64 6 0 10 11 10 25 0 18 4 23 15 19 21
-8 45 14 45 41 0 29 -18 43 -52 43 -28 0 -28 -1 -28 -64z m55 21 c0 -11 -8
-21 -17 -23 -14 -3 -18 3 -18 23 0 20 4 26 18 23 9 -2 17 -12 17 -23z"/>
<path d="M1032 5778 c3 -42 4 -43 41 -45 l37 -1 0 44 c0 51 -17 60 -22 12 -2
-21 -8 -33 -18 -33 -10 0 -16 12 -18 33 -5 48 -24 39 -20 -10z"/>
<path d="M1460 5773 c0 -23 5 -43 10 -43 6 0 10 16 10 35 0 24 5 35 15 35 10
0 15 -11 15 -35 0 -24 5 -35 15 -35 9 0 15 10 15 26 0 42 -17 63 -50 62 -29
-1 -30 -3 -30 -45z"/>
<path d="M1567 5813 c-14 -14 -6 -34 18 -43 35 -13 31 -24 -6 -16 -28 5 -30 4
-19 -10 17 -19 64 -14 68 8 2 10 -8 23 -25 33 l-28 16 28 -6 c29 -6 38 9 11
19 -20 8 -39 8 -47 -1z"/>
<path d="M1662 5808 c-7 -7 -12 -21 -12 -33 0 -42 45 -60 71 -29 12 15 10 16
-19 10 -21 -5 -32 -4 -32 3 0 6 14 11 30 11 33 0 35 3 20 31 -12 21 -40 25
-58 7z m35 -14 c-3 -3 -12 -4 -19 -1 -8 3 -5 6 6 6 11 1 17 -2 13 -5z"/>
<path d="M2840 5790 c0 -33 4 -60 10 -60 6 0 10 11 10 25 0 15 6 25 14 25 7 0
21 -11 30 -25 23 -35 40 -31 21 5 -9 17 -11 30 -6 30 15 0 22 32 10 46 -6 8
-29 14 -50 14 l-39 0 0 -60z m70 25 c0 -9 -9 -15 -25 -15 -16 0 -25 6 -25 15
0 9 9 15 25 15 16 0 25 -6 25 -15z"/>
<path d="M3410 5790 c0 -33 4 -60 10 -60 6 0 10 27 10 60 0 33 -4 60 -10 60
-6 0 -10 -27 -10 -60z"/>
<path d="M3063 5825 c-7 -8 -11 -20 -9 -27 3 -7 7 -25 10 -40 4 -16 12 -28 19
-28 11 0 15 50 8 103 -2 11 -15 8 -28 -8z"/>
<path d="M3218 5828 c-3 -7 -3 -32 0 -55 3 -34 8 -43 23 -43 10 0 19 5 19 10
0 6 -4 10 -10 10 -14 0 -12 48 2 52 9 3 8 9 -4 21 -20 20 -24 21 -30 5z"/>
<path d="M3753 5825 c-7 -8 -11 -20 -9 -27 3 -7 7 -25 10 -40 4 -16 12 -28 19
-28 11 0 15 50 8 103 -2 11 -15 8 -28 -8z"/>
<path d="M2972 5808 c-17 -17 -15 -53 3 -68 8 -7 25 -10 40 -6 20 5 25 12 25
40 0 43 -39 63 -68 34z m48 -33 c0 -18 -5 -25 -20 -25 -15 0 -20 7 -20 25 0
18 5 25 20 25 15 0 20 -7 20 -25z"/>
<path d="M3125 5810 c-4 -6 6 -11 22 -11 22 -1 24 -3 6 -6 -58 -11 -52 -63 7
-60 37 1 38 2 33 32 -2 16 -6 36 -9 43 -4 14 -50 16 -59 2z m40 -50 c-3 -5
-10 -10 -16 -10 -5 0 -9 5 -9 10 0 6 7 10 16 10 8 0 12 -4 9 -10z"/>
<path d="M3283 5813 c-7 -2 -13 -20 -13 -39 0 -27 5 -35 24 -40 26 -6 46 1 46
17 0 5 -11 7 -25 3 -15 -4 -25 -2 -25 5 0 6 14 11 30 11 33 0 35 3 20 31 -10
18 -31 23 -57 12z m34 -19 c-3 -3 -12 -4 -19 -1 -8 3 -5 6 6 6 11 1 17 -2 13
-5z"/>
<path d="M3460 5774 c0 -51 17 -60 22 -11 2 20 8 32 18 32 10 0 16 -12 18 -32
5 -49 24 -40 20 10 -3 41 -4 42 -40 43 l-38 1 0 -43z"/>
<path d="M3567 5814 c-15 -16 -5 -35 26 -49 l32 -15 -33 5 c-24 3 -32 1 -30
-8 6 -17 46 -21 64 -7 21 19 17 28 -18 45 -32 15 -32 15 -5 10 21 -4 28 -2 25
7 -5 14 -50 23 -61 12z"/>
<path d="M3659 5799 c-8 -16 -8 -28 0 -45 11 -24 26 -29 55 -18 25 10 19 25
-8 18 -13 -3 -27 -1 -30 5 -5 7 4 11 23 11 32 0 41 16 19 38 -19 19 -46 14
-59 -9z m48 -5 c-3 -3 -12 -4 -19 -1 -8 3 -5 6 6 6 11 1 17 -2 13 -5z"/>
<path d="M10570 5790 l0 -60 45 0 c25 0 45 5 45 10 0 6 -16 10 -35 10 -24 0
-35 5 -35 15 0 10 10 15 30 15 17 0 30 5 30 10 0 6 -13 10 -30 10 -20 0 -30 5
-30 15 0 10 11 15 35 15 19 0 35 5 35 10 0 6 -20 10 -45 10 l-45 0 0 -60z"/>
<path d="M10780 5840 c0 -5 5 -10 10 -10 6 0 10 5 10 10 0 6 -4 10 -10 10 -5
0 -10 -4 -10 -10z"/>
<path d="M10823 5825 c-7 -8 -11 -20 -9 -27 3 -7 7 -25 10 -40 4 -16 12 -28
19 -28 11 0 15 50 8 103 -2 11 -15 8 -28 -8z"/>
<path d="M10685 5800 c17 -18 17 -21 1 -45 -18 -27 -7 -35 14 -10 12 14 15 14
30 0 25 -23 32 -18 14 10 -16 24 -16 27 1 45 15 17 16 20 3 20 -9 0 -19 -8
-23 -17 -6 -17 -7 -17 -19 0 -7 9 -19 17 -26 17 -9 0 -8 -6 5 -20z"/>
<path d="M10780 5775 c0 -25 5 -45 10 -45 6 0 10 20 10 45 0 25 -4 45 -10 45
-5 0 -10 -20 -10 -45z"/>
<path d="M780 4995 c0 -30 5 -55 10 -55 6 0 10 25 10 55 0 30 -4 55 -10 55 -5
0 -10 -25 -10 -55z"/>
<path d="M1162 4993 l1 -58 6 45 6 45 24 -42 c14 -24 28 -43 33 -43 4 0 7 26
6 58 l-1 57 -6 -45 -6 -45 -25 42 c-14 24 -28 43 -32 43 -5 0 -7 -26 -6 -57z"/>
<path d="M1502 4993 l1 -58 6 45 6 45 28 -42 c15 -24 29 -43 32 -43 3 0 4 26
3 58 -1 56 -1 57 -7 13 l-6 -44 -23 42 c-13 22 -27 41 -33 41 -5 0 -8 -26 -7
-57z"/>
<path d="M1740 5027 c0 -8 -10 -13 -22 -13 -20 1 -23 -4 -23 -34 0 -31 3 -35
28 -36 26 -1 27 1 27 47 0 27 -2 49 -5 49 -3 0 -5 -6 -5 -13z m-5 -47 c0 -27
-22 -39 -31 -16 -8 22 3 49 19 43 6 -2 12 -14 12 -27z"/>
<path d="M1079 5026 c-7 -7 2 -86 10 -86 3 0 6 18 5 40 -1 40 -6 55 -15 46z"/>
<path d="M820 4980 c0 -22 5 -40 10 -40 6 0 10 18 10 40 0 22 -4 40 -10 40 -5
0 -10 -18 -10 -40z"/>
<path d="M858 5014 c6 -3 12 -21 12 -40 0 -19 5 -34 11 -34 6 0 9 16 7 37 -2
29 -8 38 -23 40 -11 2 -14 0 -7 -3z"/>
<path d="M913 4965 c0 -33 2 -45 4 -27 2 18 2 45 0 60 -2 15 -4 0 -4 -33z"/>
<path d="M943 5010 c9 -6 17 -20 17 -30 0 -10 -8 -24 -17 -30 -16 -10 -16 -10
2 -8 16 3 20 11 20 38 0 27 -4 35 -20 38 -18 2 -18 2 -2 -8z"/>
<path d="M994 4980 c1 -31 4 -35 29 -36 25 -1 27 1 26 40 l-2 41 -6 -35 c-8
-48 -38 -54 -44 -8 l-4 33 1 -35z"/>
<path d="M1273 5013 c-16 -6 -17 -45 -1 -61 15 -15 45 -16 53 -2 4 7 -2 9 -18
5 -17 -5 -26 -2 -30 9 -5 12 0 16 23 16 32 0 37 9 18 28 -13 13 -24 14 -45 5z
m42 -13 c4 -6 -5 -10 -20 -10 -15 0 -24 4 -20 10 3 6 12 10 20 10 8 0 17 -4
20 -10z"/>
<path d="M1344 5005 c15 -73 29 -84 41 -32 l7 32 9 -32 c13 -44 23 -41 36 7 5
22 7 40 3 40 -4 0 -11 -15 -15 -32 l-7 -33 -9 33 c-10 34 -29 44 -29 14 0 -32
-13 -34 -27 -5 -7 16 -11 19 -9 8z"/>
<path d="M1612 5008 c-27 -27 -3 -73 35 -66 27 5 25 72 -2 76 -11 1 -26 -3
-33 -10z m43 -28 c0 -28 -29 -40 -38 -15 -9 22 3 46 22 43 10 -2 16 -13 16
-28z"/>
<path d="M1783 5013 c-16 -6 -17 -45 -1 -61 15 -15 45 -16 53 -2 4 7 -2 9 -18
5 -17 -5 -26 -2 -30 9 -5 12 0 16 23 16 32 0 37 9 18 28 -13 13 -24 14 -45 5z
m42 -13 c4 -6 -5 -10 -20 -10 -15 0 -24 4 -20 10 3 6 12 10 20 10 8 0 17 -4
20 -10z"/>
<path d="M1182 4393 l1 -58 6 45 6 45 28 -42 c15 -24 29 -43 32 -43 3 0 4 26
3 58 -1 56 -1 57 -7 13 l-6 -44 -23 42 c-13 22 -27 41 -33 41 -5 0 -8 -26 -7
-57z"/>
<path d="M1522 4393 c1 -50 2 -52 5 -15 5 48 15 53 32 16 6 -15 14 -24 17 -22
7 7 -36 78 -47 78 -5 0 -8 -26 -7 -57z"/>
<path d="M1589 4410 c-1 -22 -2 -45 -3 -52 -1 -6 5 -13 12 -15 9 -4 12 11 12
51 0 63 -19 78 -21 16z"/>
<path d="M1760 4431 c0 -5 -10 -11 -22 -13 -19 -2 -23 -9 -23 -38 0 -32 3 -35
33 -38 l32 -3 0 50 c0 28 -4 51 -10 51 -5 0 -10 -4 -10 -9z m0 -51 c0 -32 -26
-43 -36 -15 -9 21 3 45 21 45 10 0 15 -10 15 -30z"/>
<path d="M1078 4422 c-26 -3 -28 -7 -26 -45 l1 -42 4 38 c3 29 9 37 24 37 15
0 19 -7 19 -35 0 -19 3 -35 8 -35 7 0 8 78 1 83 -2 1 -16 1 -31 -1z"/>
<path d="M773 4380 c0 -25 2 -35 4 -22 2 12 2 32 0 45 -2 12 -4 2 -4 -23z"/>
<path d="M800 4380 c0 -22 5 -40 10 -40 6 0 10 18 10 40 0 22 -4 40 -10 40 -5
0 -10 -18 -10 -40z"/>
<path d="M838 4414 c6 -3 12 -21 12 -40 0 -19 5 -34 11 -34 6 0 9 16 7 37 -2
29 -8 38 -23 40 -11 2 -14 0 -7 -3z"/>
<path d="M897 4413 c-13 -13 -7 -31 13 -36 11 -3 20 -11 20 -17 0 -8 -9 -10
-27 -5 -21 5 -25 4 -17 -5 14 -14 56 -9 62 7 2 7 -8 18 -22 24 -34 16 -34 33
0 25 17 -5 23 -3 19 4 -7 11 -38 14 -48 3z"/>
<path d="M973 4413 c-16 -6 -17 -45 -1 -61 15 -15 45 -16 53 -2 4 7 -2 9 -18
5 -17 -5 -26 -2 -30 9 -5 12 0 16 23 16 32 0 37 9 18 28 -13 13 -24 14 -45 5z
m42 -13 c4 -6 -5 -10 -20 -10 -15 0 -24 4 -20 10 3 6 12 10 20 10 8 0 17 -4
20 -10z"/>
<path d="M1294 4406 c-16 -41 20 -86 47 -59 6 6 1 9 -12 9 -12 -1 -24 5 -26
12 -3 7 5 12 22 12 20 0 26 4 23 18 -4 22 -46 29 -54 8z m46 -6 c0 -5 -9 -10
-21 -10 -11 0 -17 5 -14 10 3 6 13 10 21 10 8 0 14 -4 14 -10z"/>
<path d="M1363 4406 c4 -10 10 -29 13 -42 9 -33 21 -30 30 9 l7 32 9 -32 c12
-44 23 -41 36 7 11 46 7 53 -9 13 l-11 -28 -10 28 c-11 30 -28 28 -28 -4 0
-10 -4 -19 -10 -19 -5 0 -10 9 -10 19 0 11 -5 23 -12 27 -8 5 -9 2 -5 -10z"/>
<path d="M1634 4406 c-3 -8 -4 -25 -2 -38 2 -17 9 -23 28 -23 22 0 25 4 25 35
0 29 -4 36 -23 38 -13 2 -24 -3 -28 -12z m41 -26 c0 -27 -22 -39 -31 -16 -8
22 3 49 19 43 6 -2 12 -14 12 -27z"/>
<path d="M1802 4408 c-25 -25 -7 -68 29 -68 10 0 21 5 24 10 4 7 -2 9 -18 5
-17 -5 -26 -2 -30 9 -5 12 0 16 24 16 24 0 30 4 27 18 -4 21 -39 27 -56 10z
m43 -8 c3 -5 -3 -10 -14 -10 -12 0 -21 5 -21 10 0 6 6 10 14 10 8 0 18 -4 21
-10z"/>
<path d="M690 3795 c0 -30 5 -55 10 -55 6 0 10 11 10 25 0 16 6 25 15 25 9 0
21 -11 27 -25 6 -14 15 -25 19 -25 5 0 4 11 -3 25 -8 19 -8 28 2 40 19 22 -5
45 -46 45 l-34 0 0 -55z m70 25 c0 -15 -7 -20 -25 -20 -18 0 -25 5 -25 20 0
15 7 20 25 20 18 0 25 -5 25 -20z"/>
<path d="M1183 3795 c0 -33 2 -45 4 -27 2 18 2 45 0 60 -2 15 -4 0 -4 -33z"/>
<path d="M1592 3793 c1 -50 2 -52 5 -15 5 48 15 53 32 16 6 -15 14 -24 17 -22
7 7 -36 78 -47 78 -5 0 -8 -26 -7 -57z"/>
<path d="M1659 3810 c-1 -22 -2 -45 -3 -52 -1 -6 5 -13 12 -15 9 -4 12 11 12
51 0 63 -19 78 -21 16z"/>
<path d="M1830 3831 c0 -5 -10 -11 -22 -13 -19 -2 -23 -9 -23 -38 0 -32 3 -35
33 -38 l32 -3 0 50 c0 28 -4 51 -10 51 -5 0 -10 -4 -10 -9z m0 -51 c0 -20 -5
-30 -15 -30 -18 0 -30 24 -21 45 10 28 36 17 36 -15z"/>
<path d="M889 3826 c-7 -7 2 -86 10 -86 3 0 6 18 5 40 -1 40 -6 55 -15 46z"/>
<path d="M1008 3825 c-2 -2 -2 -22 0 -44 3 -30 8 -41 21 -40 10 0 11 2 4 6
-16 6 -17 60 -1 65 8 3 6 6 -4 10 -9 4 -18 5 -20 3z"/>
<path d="M1495 3820 c-11 -4 -23 -6 -27 -3 -5 2 -7 -15 -7 -39 2 -43 2 -43 8
-8 9 50 41 55 41 6 0 -28 4 -36 18 -35 10 0 12 3 5 6 -16 6 -17 60 -1 65 8 3
7 6 -3 10 -7 3 -23 2 -34 -2z"/>
<path d="M804 3806 c-3 -8 -4 -25 -2 -38 2 -17 9 -23 28 -23 22 0 25 4 25 35
0 29 -4 36 -23 38 -13 2 -24 -3 -28 -12z m41 -26 c0 -13 -6 -25 -12 -27 -16
-6 -27 21 -19 43 9 23 31 11 31 -16z"/>
<path d="M925 3810 c-4 -7 2 -9 19 -4 16 4 26 2 26 -4 0 -6 -10 -12 -22 -14
-15 -2 -23 -10 -23 -23 0 -16 7 -20 38 -21 26 -1 34 2 28 10 -5 6 -11 22 -13
36 -3 27 -40 41 -53 20z m45 -39 c0 -14 -18 -23 -30 -16 -6 4 -8 11 -5 16 8
12 35 12 35 0z"/>
<path d="M1054 3806 c-16 -41 20 -86 47 -59 6 6 1 9 -12 9 -12 -1 -24 5 -26
12 -3 7 5 12 22 12 20 0 26 4 23 18 -4 22 -46 29 -54 8z m46 -6 c0 -5 -9 -10
-21 -10 -11 0 -17 5 -14 10 3 6 13 10 21 10 8 0 14 -4 14 -10z"/>
<path d="M1223 3780 c0 -25 2 -35 4 -22 2 12 2 32 0 45 -2 12 -4 2 -4 -23z"/>
<path d="M1252 3808 c9 -7 19 -26 21 -43 3 -21 4 -18 3 10 -1 31 -5 41 -21 43
-18 4 -19 3 -3 -10z"/>
<path d="M1307 3813 c-13 -13 -7 -31 13 -36 11 -3 20 -11 20 -17 0 -8 -9 -10
-27 -5 -21 5 -25 4 -17 -5 14 -14 56 -9 62 7 2 7 -8 18 -22 24 -34 16 -34 33
0 25 17 -5 23 -3 19 4 -7 11 -38 14 -48 3z"/>
<path d="M1383 3813 c-16 -6 -17 -45 -1 -61 15 -15 45 -16 53 -2 4 7 -2 9 -18
5 -17 -5 -26 -2 -30 9 -5 12 0 16 23 16 32 0 37 9 18 28 -13 13 -24 14 -45 5z
m42 -13 c4 -6 -5 -10 -20 -10 -15 0 -24 4 -20 10 3 6 12 10 20 10 8 0 17 -4
20 -10z"/>
<path d="M1704 3806 c-12 -31 0 -61 25 -61 31 0 50 28 35 53 -14 22 -52 28
-60 8z m46 -26 c0 -20 -5 -30 -15 -30 -18 0 -30 24 -21 45 10 28 36 17 36 -15z"/>
<path d="M1872 3808 c-25 -25 -7 -68 29 -68 10 0 21 5 24 10 4 7 -2 9 -18 5
-17 -5 -26 -2 -30 9 -5 12 0 16 24 16 24 0 30 4 27 18 -4 21 -39 27 -56 10z
m43 -8 c3 -5 -3 -10 -14 -10 -12 0 -21 5 -21 10 0 6 6 10 14 10 8 0 18 -4 21
-10z"/>
<path d="M2882 3793 c1 -50 2 -52 5 -15 5 48 15 53 32 16 6 -15 14 -24 17 -22
7 7 -36 78 -47 78 -5 0 -8 -26 -7 -57z"/>
<path d="M2949 3810 c-1 -22 -2 -45 -3 -52 -1 -6 5 -13 12 -15 9 -4 12 11 12
51 0 63 -19 78 -21 16z"/>
<path d="M3120 3831 c0 -5 -10 -11 -22 -13 -19 -2 -23 -9 -23 -38 0 -32 3 -35
33 -38 l32 -3 0 50 c0 28 -4 51 -10 51 -5 0 -10 -4 -10 -9z m0 -51 c0 -20 -5
-30 -15 -30 -18 0 -30 24 -21 45 10 28 36 17 36 -15z"/>
<path d="M2994 3806 c-3 -8 -4 -25 -2 -38 2 -17 9 -23 28 -23 22 0 25 4 25 35
0 29 -4 36 -23 38 -13 2 -24 -3 -28 -12z m41 -26 c0 -13 -6 -25 -12 -27 -16
-6 -27 21 -19 43 9 23 31 11 31 -16z"/>
<path d="M3162 3808 c-25 -25 -7 -68 29 -68 10 0 21 5 24 10 4 7 -2 9 -18 5
-17 -5 -26 -2 -30 9 -5 12 0 16 24 16 24 0 30 4 27 18 -4 21 -39 27 -56 10z
m43 -8 c3 -5 -3 -10 -14 -10 -12 0 -21 5 -21 10 0 6 6 10 14 10 8 0 18 -4 21
-10z"/>
<path d="M3284 3806 c-16 -43 21 -85 49 -57 9 9 5 11 -13 9 -21 -3 -25 1 -25
22 0 20 4 25 23 23 13 -2 21 1 17 7 -9 15 -45 12 -51 -4z"/>
<path d="M3366 3811 c-4 -5 3 -7 14 -4 11 3 20 1 20 -5 0 -6 -10 -12 -22 -14
-15 -2 -23 -10 -23 -23 0 -18 7 -20 69 -20 75 0 97 16 52 36 -35 16 -33 33 2
24 20 -5 24 -4 16 5 -7 7 -20 10 -30 8 -26 -5 -29 -34 -4 -41 31 -8 24 -26
-10 -24 -20 1 -30 7 -30 19 0 29 -12 48 -30 48 -11 0 -21 -4 -24 -9z m34 -40
c0 -14 -18 -23 -30 -16 -6 4 -8 11 -5 16 8 12 35 12 35 0z"/>
<path d="M3523 3813 c-16 -6 -17 -45 -1 -61 15 -15 45 -16 53 -2 4 7 -2 9 -18
5 -17 -5 -26 -2 -30 9 -5 12 0 16 23 16 32 0 37 9 18 28 -13 13 -24 14 -45 5z
m42 -13 c4 -6 -5 -10 -20 -10 -15 0 -24 4 -20 10 3 6 12 10 20 10 8 0 17 -4
20 -10z"/>
<path d="M3607 3813 c-13 -13 -7 -31 13 -36 11 -3 20 -11 20 -17 0 -8 -9 -10
-27 -5 -21 5 -25 4 -17 -5 14 -14 56 -9 62 7 2 7 -8 18 -22 24 -34 16 -34 33
0 25 17 -5 23 -3 19 4 -7 11 -38 14 -48 3z"/>
<path d="M2892 3630 c-17 -27 -14 -81 5 -105 l16 -20 -8 20 c-15 38 -17 73 -5
95 15 28 8 36 -8 10z"/>
<path d="M2933 3595 c0 -33 1 -52 4 -42 2 9 7 17 10 17 4 0 16 -8 27 -17 20
-18 20 -18 4 8 -15 24 -15 27 0 43 9 9 11 16 5 16 -6 0 -13 -7 -17 -15 -9 -26
-25 -17 -29 18 -2 17 -4 5 -4 -28z"/>
<path d="M3230 3595 l0 -56 33 3 c31 3 32 4 32 53 0 49 -1 50 -32 53 l-33 3 0
-56z m55 25 c0 -8 -10 -16 -22 -18 -18 -3 -23 2 -23 18 0 16 5 21 23 18 12 -2
22 -10 22 -18z m0 -50 c0 -8 -10 -16 -22 -18 -18 -3 -23 2 -23 18 0 16 5 21
23 18 12 -2 22 -10 22 -18z"/>
<path d="M3413 3595 c0 -33 2 -45 4 -27 2 18 2 45 0 60 -2 15 -4 0 -4 -33z"/>
<path d="M3013 3590 c0 -30 2 -43 4 -27 2 15 2 39 0 55 -2 15 -4 2 -4 -28z"/>
<path d="M3043 3610 c9 -6 17 -20 17 -30 0 -10 -8 -24 -17 -30 -16 -10 -16
-10 2 -8 16 3 20 11 20 38 0 27 -4 35 -20 38 -18 2 -18 2 -2 -8z"/>
<path d="M3325 3610 c-4 -7 2 -9 19 -4 16 4 26 2 26 -4 0 -6 -10 -12 -22 -14
-15 -2 -23 -10 -23 -23 0 -16 7 -20 38 -21 26 -1 34 2 28 10 -5 6 -11 22 -13
36 -3 27 -40 41 -53 20z m45 -39 c0 -14 -18 -23 -30 -16 -6 4 -8 11 -5 16 8
12 35 12 35 0z"/>
<path d="M3445 3611 c-3 -7 0 -8 9 -5 8 3 21 2 28 -2 9 -6 5 -10 -12 -14 -16
-4 -26 -14 -28 -28 -3 -19 1 -21 31 -20 33 1 33 2 28 37 -5 27 -12 37 -28 39
-11 2 -24 -2 -28 -7z m39 -46 c-4 -8 -12 -15 -20 -15 -8 0 -14 7 -14 15 0 8 9
15 20 15 13 0 18 -5 14 -15z"/>
<path d="M3520 3580 c0 -22 5 -40 10 -40 6 0 10 18 10 40 0 22 -4 40 -10 40
-5 0 -10 -18 -10 -40z"/>
<path d="M3558 3614 c6 -3 12 -21 12 -40 0 -19 5 -34 11 -34 6 0 9 16 7 37 -2
29 -8 38 -23 40 -11 2 -14 0 -7 -3z"/>
<path d="M3610 3605 c-24 -29 14 -85 41 -58 9 9 7 11 -8 7 -13 -4 -22 0 -26
10 -10 25 3 48 24 43 11 -3 17 -1 13 4 -8 14 -30 11 -44 -6z"/>
<path d="M3684 3606 c-16 -41 20 -86 47 -59 6 6 1 9 -12 9 -12 -1 -24 5 -26
12 -3 8 6 12 27 12 28 0 30 2 20 20 -12 23 -48 27 -56 6z m46 -6 c0 -5 -9 -10
-21 -10 -11 0 -17 5 -14 10 3 6 13 10 21 10 8 0 14 -4 14 -10z"/>
<path d="M3138 3573 c7 -3 16 -2 19 1 4 3 -2 6 -13 5 -11 0 -14 -3 -6 -6z"/>
<path d="M2880 3405 c0 -30 5 -55 10 -55 6 0 10 11 10 24 0 19 6 26 28 29 l27
4 -27 2 c-21 1 -28 6 -28 20 0 14 8 21 28 24 22 3 20 4 -10 6 l-38 1 0 -55z"/>
<path d="M3308 3443 c7 -12 12 -36 12 -53 0 -17 -5 -41 -12 -53 -10 -20 -10
-21 5 -8 12 9 17 29 17 61 0 32 -5 52 -17 61 -15 13 -15 12 -5 -8z"/>
<path d="M3128 3434 c-10 -10 8 -78 22 -82 12 -4 13 -2 3 9 -16 17 -17 56 -1
61 8 3 6 6 -4 10 -9 4 -18 5 -20 2z"/>
<path d="M2975 3420 c-4 -7 2 -9 19 -4 16 4 26 2 26 -4 0 -6 -10 -12 -22 -14
-15 -2 -23 -10 -23 -23 0 -16 7 -20 38 -21 26 -1 34 2 28 10 -5 6 -11 22 -13
36 -3 27 -40 41 -53 20z m45 -39 c0 -14 -18 -23 -30 -16 -6 4 -8 11 -5 16 8
12 35 12 35 0z"/>
<path d="M3060 3415 c-24 -29 14 -85 41 -58 9 9 7 11 -8 7 -13 -4 -22 0 -26
10 -10 25 3 48 24 43 11 -3 17 -1 13 4 -8 14 -30 11 -44 -6z"/>
<path d="M3180 3415 c-26 -31 13 -82 44 -56 21 17 21 57 0 65 -23 9 -30 8 -44
-9z m45 -25 c0 -31 -31 -39 -40 -11 -8 26 2 43 23 39 11 -2 17 -13 17 -28z"/>
<path d="M3262 3388 c1 -41 1 -41 5 -8 3 19 10 38 16 42 8 5 6 8 -5 8 -15 0
-18 -8 -16 -42z"/>
<path d="M770 3207 c0 -48 13 -67 47 -67 27 0 43 27 43 74 0 53 -18 43 -22
-11 -3 -40 -6 -48 -23 -48 -17 0 -20 8 -23 48 -4 59 -22 62 -22 4z"/>
<path d="M1010 3231 c0 -5 -10 -11 -22 -13 -19 -2 -23 -9 -23 -38 0 -32 3 -35
33 -38 l32 -3 0 50 c0 28 -4 51 -10 51 -5 0 -10 -4 -10 -9z m0 -51 c0 -32 -26
-43 -36 -15 -9 21 3 45 21 45 10 0 15 -10 15 -30z"/>
<path d="M1760 3230 c0 -5 -11 -10 -24 -10 -27 0 -41 -27 -31 -60 4 -14 15
-20 36 -20 28 0 29 1 29 50 0 28 -2 50 -5 50 -3 0 -5 -4 -5 -10z m-6 -35 c7
-20 -3 -45 -19 -45 -7 0 -15 7 -19 15 -7 20 3 45 19 45 7 0 15 -7 19 -15z"/>
<path d="M1128 3225 c-2 -2 -2 -22 0 -44 3 -30 8 -41 21 -40 10 0 11 2 4 6
-16 6 -17 60 -1 65 8 3 6 6 -4 10 -9 4 -18 5 -20 3z"/>
<path d="M881 3161 c1 -32 4 -48 7 -36 4 11 16 20 27 20 16 0 20 7 20 35 0 31
-3 35 -27 36 -27 1 -28 0 -27 -55z m49 19 c0 -32 -26 -43 -36 -15 -9 21 3 45
21 45 10 0 15 -10 15 -30z"/>
<path d="M1056 3211 c-4 -5 3 -7 14 -4 11 3 20 1 20 -5 0 -6 -10 -12 -22 -14
-15 -2 -23 -10 -23 -23 0 -16 7 -20 37 -21 22 -1 35 3 33 10 -2 6 -6 23 -9 39
-6 27 -38 38 -50 18z m34 -40 c0 -14 -18 -23 -30 -16 -6 4 -8 11 -5 16 8 12
35 12 35 0z"/>
<path d="M1173 3180 c0 -25 2 -35 4 -22 2 12 2 32 0 45 -2 12 -4 2 -4 -23z"/>
<path d="M1200 3180 c0 -22 5 -40 10 -40 6 0 10 18 10 40 0 22 -4 40 -10 40
-5 0 -10 -18 -10 -40z"/>
<path d="M1238 3214 c6 -3 12 -21 12 -40 0 -19 5 -34 11 -34 6 0 9 16 7 37 -2
29 -8 38 -23 40 -11 2 -14 0 -7 -3z"/>
<path d="M1294 3206 c-12 -31 0 -61 24 -60 12 0 21 -4 19 -10 -2 -6 -14 -11
-26 -10 -13 0 -18 -3 -12 -9 5 -5 17 -7 27 -5 15 2 20 14 22 53 3 48 2 51 -23
53 -15 1 -28 -4 -31 -12z m41 -26 c0 -16 -6 -26 -17 -28 -14 -3 -18 3 -18 28
0 25 4 31 18 28 11 -2 17 -12 17 -28z"/>
<path d="M1415 3210 c-4 -7 2 -9 19 -4 16 4 26 2 26 -4 0 -6 -10 -12 -22 -14
-15 -2 -23 -10 -23 -23 0 -16 7 -20 38 -21 26 -1 34 2 28 10 -5 6 -11 22 -13
36 -3 27 -40 41 -53 20z m45 -39 c0 -14 -18 -23 -30 -16 -6 4 -8 11 -5 16 8
12 35 12 35 0z"/>
<path d="M1541 3176 l2 -41 6 35 c8 48 38 54 44 8 l4 -33 -1 35 c-1 31 -4 35
-28 36 -26 1 -28 -1 -27 -40z"/>
<path d="M1624 3206 c-12 -31 0 -61 25 -61 31 0 50 28 35 53 -14 22 -52 28
-60 8z m46 -26 c0 -20 -5 -30 -15 -30 -18 0 -30 24 -21 45 10 28 36 17 36 -15z"/>
<path d="M1794 3206 c-16 -41 20 -86 47 -59 6 6 1 9 -12 9 -12 -1 -24 5 -26
12 -3 7 5 12 22 12 20 0 26 4 23 18 -4 22 -46 29 -54 8z m46 -6 c0 -5 -9 -10
-21 -10 -11 0 -17 5 -14 10 3 6 13 10 21 10 8 0 14 -4 14 -10z"/>
<path d="M773 2995 c0 -46 1 -52 6 -25 9 51 38 53 44 3 l4 -38 1 44 c2 41 1
43 -22 39 -19 -4 -26 0 -29 16 -2 12 -4 -6 -4 -39z"/>
<path d="M1050 2995 c0 -30 5 -55 10 -55 6 0 10 25 10 55 0 30 -4 55 -10 55
-5 0 -10 -25 -10 -55z"/>
<path d="M1138 3025 c-2 -2 -2 -22 0 -44 3 -30 8 -41 21 -40 10 0 11 2 4 6
-16 6 -17 60 -1 65 8 3 6 6 -4 10 -9 4 -18 5 -20 3z"/>
<path d="M863 3013 c-16 -6 -17 -45 -1 -61 15 -15 45 -16 53 -2 4 7 -2 9 -18
5 -17 -5 -26 -2 -30 9 -5 12 0 16 23 16 32 0 37 9 18 28 -13 13 -24 14 -45 5z
m42 -13 c4 -6 -5 -10 -20 -10 -15 0 -24 4 -20 10 3 6 12 10 20 10 8 0 17 -4
20 -10z"/>
<path d="M943 2980 c0 -25 2 -35 4 -22 2 12 2 32 0 45 -2 12 -4 2 -4 -23z"/>
<path d="M974 3006 c-12 -31 0 -61 24 -60 13 0 22 -5 22 -14 0 -10 -7 -12 -27
-7 -21 5 -25 4 -17 -5 7 -7 20 -10 30 -8 15 2 20 14 22 53 3 48 2 51 -23 53
-15 1 -28 -4 -31 -12z m41 -26 c0 -13 -6 -25 -12 -27 -16 -6 -27 21 -19 43 9
23 31 11 31 -16z"/>
<path d="M1088 3014 c6 -3 12 -21 12 -40 0 -19 5 -34 11 -34 6 0 9 16 7 37 -2
29 -8 38 -23 40 -11 2 -14 0 -7 -3z"/>
<path d="M2831 2603 c1 -32 4 -46 6 -30 6 35 39 37 55 2 6 -14 16 -25 21 -25
5 0 3 10 -5 23 -11 16 -12 27 -5 38 17 28 1 49 -38 49 l-35 0 1 -57z m64 27
c0 -9 -11 -16 -27 -18 -23 -3 -28 1 -28 18 0 17 5 21 28 18 16 -2 27 -9 27
-18z"/>
<path d="M3050 2605 c0 -30 5 -55 10 -55 6 0 10 25 10 55 0 30 -4 55 -10 55
-5 0 -10 -25 -10 -55z"/>
<path d="M3240 2640 c0 -11 -5 -29 -12 -39 -19 -32 -4 -50 43 -49 24 0 36 4
29 8 -7 5 -10 15 -6 25 5 15 4 16 -8 6 -18 -15 -34 5 -17 22 18 18 13 47 -9
47 -13 0 -20 -7 -20 -20z m30 -5 c0 -8 -4 -15 -10 -15 -5 0 -10 7 -10 15 0 8
5 15 10 15 6 0 10 -7 10 -15z m-15 -73 c-22 -5 -29 3 -21 25 7 17 8 17 22 -2
13 -18 13 -20 -1 -23z"/>
<path d="M3340 2640 c0 -11 -5 -29 -12 -39 -19 -32 -4 -50 43 -49 24 0 36 4
29 8 -7 5 -10 15 -6 25 5 15 4 16 -8 6 -18 -15 -34 5 -17 22 18 18 13 47 -9
47 -13 0 -20 -7 -20 -20z m30 -5 c0 -8 -4 -15 -10 -15 -5 0 -10 7 -10 15 0 8
5 15 10 15 6 0 10 -7 10 -15z m-15 -73 c-22 -5 -29 3 -21 25 7 17 8 17 22 -2
13 -18 13 -20 -1 -23z"/>
<path d="M3471 2603 c1 -32 4 -46 6 -30 5 34 27 35 49 2 20 -31 31 -26 12 4
-11 18 -11 23 0 30 8 5 12 17 10 27 -2 14 -13 20 -41 22 l-37 3 1 -58z m64 27
c0 -9 -11 -16 -27 -18 -23 -3 -28 1 -28 18 0 17 5 21 28 18 16 -2 27 -9 27
-18z"/>
<path d="M3692 2605 c1 -47 2 -52 7 -25 8 48 38 54 44 8 l4 -33 -1 35 c-1 28
-5 35 -21 35 -11 0 -23 9 -27 20 -3 11 -6 -7 -6 -40z"/>
<path d="M3138 2635 c-2 -2 -2 -22 0 -44 3 -30 8 -41 21 -40 10 0 11 2 4 6
-16 6 -17 60 -1 65 8 3 6 6 -4 10 -9 4 -18 5 -20 3z"/>
<path d="M3768 2634 c-10 -10 8 -78 22 -82 12 -4 13 -2 3 9 -16 17 -17 56 -1
61 8 3 6 6 -4 10 -9 4 -18 5 -20 2z"/>
<path d="M2943 2590 c0 -25 2 -35 4 -22 2 12 2 32 0 45 -2 12 -4 2 -4 -23z"/>
<path d="M2974 2616 c-12 -31 0 -61 24 -60 13 0 22 -5 22 -14 0 -10 -7 -12
-27 -7 -21 5 -25 4 -17 -5 7 -7 20 -10 30 -8 15 2 20 14 22 53 3 48 2 51 -23
53 -15 1 -28 -4 -31 -12z m41 -26 c0 -27 -22 -39 -31 -16 -8 22 3 49 19 43 6
-2 12 -14 12 -27z"/>
<path d="M3088 2624 c6 -3 12 -21 12 -40 0 -19 5 -34 11 -34 6 0 9 16 7 37 -2
29 -8 38 -23 40 -11 2 -14 0 -7 -3z"/>
<path d="M3573 2590 c0 -25 2 -35 4 -22 2 12 2 32 0 45 -2 12 -4 2 -4 -23z"/>
<path d="M3604 2616 c-10 -27 1 -61 21 -64 19 -4 19 -3 1 10 -22 17 -18 51 7
56 14 3 17 -4 17 -43 0 -46 -1 -47 -26 -41 -17 5 -23 3 -19 -4 8 -14 38 -13
53 2 7 7 12 30 12 53 0 38 -2 41 -30 43 -19 1 -33 -3 -36 -12z"/>
<path d="M4732 2608 l-2 -58 38 2 c36 1 36 1 5 5 -31 4 -32 6 -36 56 l-3 52
-2 -57z"/>
<path d="M4898 2643 c-2 -10 -1 -36 3 -58 l6 -40 2 38 c2 51 31 53 31 2 0 -27
4 -35 18 -34 10 0 12 3 5 6 -7 2 -13 18 -13 34 0 16 5 29 13 29 9 0 8 3 -2 9
-7 5 -22 6 -32 4 -21 -6 -26 12 -6 20 7 4 6 6 -4 6 -9 1 -18 -7 -21 -16z"/>
<path d="M5040 2640 c0 -11 -5 -29 -12 -39 -19 -32 -4 -50 43 -49 24 0 36 4
29 8 -7 5 -10 15 -6 25 5 15 4 16 -8 6 -18 -15 -34 5 -17 22 18 18 13 47 -9
47 -13 0 -20 -7 -20 -20z m30 -5 c0 -8 -4 -15 -10 -15 -5 0 -10 7 -10 15 0 8
5 15 10 15 6 0 10 -7 10 -15z m-15 -73 c-22 -5 -29 3 -21 25 7 17 8 17 22 -2
13 -18 13 -20 -1 -23z"/>
<path d="M5140 2640 c0 -11 -5 -29 -12 -39 -19 -32 -4 -50 43 -49 24 0 36 4
29 8 -7 5 -10 15 -6 25 5 15 4 16 -8 6 -18 -15 -34 5 -17 22 18 18 13 47 -9
47 -13 0 -20 -7 -20 -20z m30 -5 c0 -8 -4 -15 -10 -15 -5 0 -10 7 -10 15 0 8
5 15 10 15 6 0 10 -7 10 -15z m-15 -73 c-22 -5 -29 3 -21 25 7 17 8 17 22 -2
13 -18 13 -20 -1 -23z"/>
<path d="M5272 2608 l-2 -58 33 1 c29 2 30 2 5 6 -25 4 -27 9 -31 56 l-3 52
-2 -57z"/>
<path d="M5432 2643 c-4 -10 -5 -36 -1 -58 l6 -40 2 38 c1 47 28 52 33 5 2
-17 10 -33 18 -36 12 -4 13 -2 3 9 -7 7 -13 23 -13 36 0 13 6 23 13 23 9 0 8
3 -2 9 -7 5 -23 6 -35 3 -19 -5 -19 -4 -7 11 8 11 9 17 3 17 -6 0 -15 -8 -20
-17z"/>
<path d="M4823 2623 c-16 -6 -17 -45 -1 -61 15 -15 45 -16 53 -2 4 7 -2 9 -18
5 -17 -5 -26 -2 -30 9 -5 12 0 16 23 16 32 0 37 9 18 28 -13 13 -24 14 -45 5z
m42 -13 c4 -6 -5 -10 -20 -10 -15 0 -24 4 -20 10 3 6 12 10 20 10 8 0 17 -4
20 -10z"/>
<path d="M5352 2618 c-25 -25 -7 -68 29 -68 10 0 21 5 24 10 4 7 -2 9 -18 5
-17 -5 -26 -2 -30 9 -5 12 0 16 24 16 24 0 30 4 27 18 -4 21 -39 27 -56 10z
m43 -8 c3 -5 -3 -10 -14 -10 -12 0 -21 5 -21 10 0 6 6 10 14 10 8 0 18 -4 21
-10z"/>
<path d="M6481 2603 c1 -32 4 -46 6 -30 6 35 39 37 55 2 6 -14 16 -25 21 -25
5 0 3 10 -5 23 -11 16 -12 27 -5 38 17 28 1 49 -38 49 l-35 0 1 -57z m64 27
c0 -9 -11 -16 -27 -18 -23 -3 -28 1 -28 18 0 17 5 21 28 18 16 -2 27 -9 27
-18z"/>
<path d="M6700 2605 c0 -30 5 -55 10 -55 6 0 10 25 10 55 0 30 -4 55 -10 55
-5 0 -10 -25 -10 -55z"/>
<path d="M6890 2640 c0 -11 -5 -29 -12 -39 -19 -32 -4 -50 43 -49 24 0 36 4
29 8 -7 5 -10 15 -6 25 5 15 4 16 -8 6 -18 -15 -34 5 -17 22 18 18 13 47 -9
47 -13 0 -20 -7 -20 -20z m30 -5 c0 -8 -4 -15 -10 -15 -5 0 -10 7 -10 15 0 8
5 15 10 15 6 0 10 -7 10 -15z m-15 -73 c-22 -5 -29 3 -21 25 7 17 8 17 22 -2
13 -18 13 -20 -1 -23z"/>
<path d="M6990 2640 c0 -11 -5 -29 -12 -39 -19 -32 -4 -50 43 -49 24 0 36 4
29 8 -7 5 -10 15 -6 25 5 15 4 16 -8 6 -18 -15 -34 5 -17 22 18 18 13 47 -9
47 -13 0 -20 -7 -20 -20z m30 -5 c0 -8 -4 -15 -10 -15 -5 0 -10 7 -10 15 0 8
5 15 10 15 6 0 10 -7 10 -15z m-15 -73 c-22 -5 -29 3 -21 25 7 17 8 17 22 -2
13 -18 13 -20 -1 -23z"/>
<path d="M7122 2608 l-2 -58 33 1 c29 2 30 2 5 6 -25 4 -27 9 -31 56 l-3 52
-2 -57z"/>
<path d="M7282 2643 c-4 -10 -5 -36 -1 -58 l6 -40 2 38 c1 47 28 52 33 5 2
-17 10 -33 18 -36 12 -4 13 -2 3 9 -7 7 -13 23 -13 36 0 13 6 23 13 23 9 0 8
3 -2 9 -7 5 -23 6 -35 3 -19 -5 -19 -4 -7 11 8 11 9 17 3 17 -6 0 -15 -8 -20
-17z"/>
<path d="M6788 2635 c-2 -2 -2 -22 0 -44 3 -30 8 -41 21 -40 10 0 11 2 4 6
-16 6 -17 60 -1 65 8 3 6 6 -4 10 -9 4 -18 5 -20 3z"/>
<path d="M6593 2590 c0 -25 2 -35 4 -22 2 12 2 32 0 45 -2 12 -4 2 -4 -23z"/>
<path d="M6624 2616 c-12 -31 0 -61 24 -60 13 0 22 -5 22 -14 0 -10 -7 -12
-27 -7 -21 5 -25 4 -17 -5 7 -7 20 -10 30 -8 15 2 20 14 22 53 3 48 2 51 -23
53 -15 1 -28 -4 -31 -12z m41 -26 c0 -27 -22 -39 -31 -16 -8 22 3 49 19 43 6
-2 12 -14 12 -27z"/>
<path d="M6738 2624 c6 -3 12 -21 12 -40 0 -19 5 -34 11 -34 6 0 9 16 7 37 -2
29 -8 38 -23 40 -11 2 -14 0 -7 -3z"/>
<path d="M7202 2618 c-25 -25 -7 -68 29 -68 10 0 21 5 24 10 4 7 -2 9 -18 5
-17 -5 -26 -2 -30 9 -5 12 0 16 24 16 24 0 30 4 27 18 -4 21 -39 27 -56 10z
m43 -8 c3 -5 -3 -10 -14 -10 -12 0 -21 5 -21 10 0 6 6 10 14 10 8 0 18 -4 21
-10z"/>
<path d="M8282 2608 l-2 -58 38 2 c36 1 36 1 5 5 -31 4 -32 6 -36 56 l-3 52
-2 -57z"/>
<path d="M8448 2643 c-2 -10 -1 -36 3 -58 l6 -40 2 38 c2 51 31 53 31 2 0 -27
4 -35 18 -34 10 0 12 3 5 6 -7 2 -13 18 -13 34 0 16 5 29 13 29 9 0 8 3 -2 9
-7 5 -22 6 -32 4 -21 -6 -26 12 -6 20 7 4 6 6 -4 6 -9 1 -18 -7 -21 -16z"/>
<path d="M8590 2640 c0 -11 -5 -29 -12 -39 -19 -32 -4 -50 43 -49 24 0 36 4
29 8 -7 5 -10 15 -6 25 5 15 4 16 -8 6 -18 -15 -34 5 -17 22 18 18 13 47 -9
47 -13 0 -20 -7 -20 -20z m30 -5 c0 -8 -4 -15 -10 -15 -5 0 -10 7 -10 15 0 8
5 15 10 15 6 0 10 -7 10 -15z m-15 -73 c-22 -5 -29 3 -21 25 7 17 8 17 22 -2
13 -18 13 -20 -1 -23z"/>
<path d="M8690 2640 c0 -11 -5 -29 -12 -39 -19 -32 -4 -50 43 -49 24 0 36 4
29 8 -7 5 -10 15 -6 25 5 15 4 16 -8 6 -18 -15 -34 5 -17 22 18 18 13 47 -9
47 -13 0 -20 -7 -20 -20z m30 -5 c0 -8 -4 -15 -10 -15 -5 0 -10 7 -10 15 0 8
5 15 10 15 6 0 10 -7 10 -15z m-15 -73 c-22 -5 -29 3 -21 25 7 17 8 17 22 -2
13 -18 13 -20 -1 -23z"/>
<path d="M8821 2603 c1 -32 4 -46 6 -30 5 34 27 35 49 2 20 -31 31 -26 12 4
-11 18 -11 23 0 30 8 5 12 17 10 27 -2 14 -13 20 -41 22 l-37 3 1 -58z m64 27
c0 -9 -11 -16 -27 -18 -23 -3 -28 1 -28 18 0 17 5 21 28 18 16 -2 27 -9 27
-18z"/>
<path d="M9042 2605 c1 -47 2 -52 7 -25 8 48 38 54 44 8 l4 -33 -1 35 c-1 28
-5 35 -21 35 -11 0 -23 9 -27 20 -3 11 -6 -7 -6 -40z"/>
<path d="M9118 2634 c-10 -10 8 -78 22 -82 12 -4 13 -2 3 9 -16 17 -17 56 -1
61 8 3 6 6 -4 10 -9 4 -18 5 -20 2z"/>
<path d="M8373 2623 c-16 -6 -17 -45 -1 -61 15 -15 45 -16 53 -2 4 7 -2 9 -18
5 -17 -5 -26 -2 -30 9 -5 12 0 16 23 16 32 0 37 9 18 28 -13 13 -24 14 -45 5z
m42 -13 c4 -6 -5 -10 -20 -10 -15 0 -24 4 -20 10 3 6 12 10 20 10 8 0 17 -4
20 -10z"/>
<path d="M8923 2590 c0 -25 2 -35 4 -22 2 12 2 32 0 45 -2 12 -4 2 -4 -23z"/>
<path d="M8954 2616 c-10 -27 1 -61 21 -64 19 -4 19 -3 1 10 -22 17 -18 51 7
56 14 3 17 -4 17 -43 0 -46 -1 -47 -26 -41 -17 5 -23 3 -19 -4 8 -14 38 -13
53 2 7 7 12 30 12 53 0 38 -2 41 -30 43 -19 1 -33 -3 -36 -12z"/>
<path d="M3220 1940 c-12 -8 -10 -10 8 -10 13 0 20 4 17 10 -7 12 -6 12 -25 0z"/>
<path d="M3149 1903 c-13 -16 -12 -17 4 -4 9 7 17 15 17 17 0 8 -8 3 -21 -13z"/>
<path d="M2571 1874 c0 -11 3 -14 6 -6 3 7 2 16 -1 19 -3 4 -6 -2 -5 -13z"/>
<path d="M2696 1873 c-6 -14 -5 -15 5 -6 7 7 10 15 7 18 -3 3 -9 -2 -12 -12z"/>
<path d="M3723 1875 c0 -8 4 -15 9 -15 4 0 8 4 8 9 0 6 -4 12 -8 15 -5 3 -9
-1 -9 -9z"/>
<path d="M3251 1872 c0 -7 -7 -10 -13 -7 -7 4 -4 0 6 -9 22 -18 36 -13 35 12
0 14 -2 13 -8 -3 l-8 -20 -5 20 c-3 11 -6 14 -7 7z"/>
<path d="M3180 1769 c0 -5 5 -7 10 -4 6 3 10 8 10 11 0 2 -4 4 -10 4 -5 0 -10
-5 -10 -11z"/>
<path d="M3550 1769 c0 -5 5 -7 10 -4 6 3 10 8 10 11 0 2 -4 4 -10 4 -5 0 -10
-5 -10 -11z"/>
<path d="M3486 1735 c-9 -26 -7 -32 5 -12 6 10 9 21 6 23 -2 3 -7 -2 -11 -11z"/>
<path d="M3744 1730 c0 -11 4 -20 8 -20 4 0 8 9 8 20 0 11 -4 20 -8 20 -4 0
-8 -9 -8 -20z"/>
<path d="M2690 1730 c0 -5 5 -10 11 -10 5 0 7 5 4 10 -3 6 -8 10 -11 10 -2 0
-4 -4 -4 -10z"/>
<path d="M2781 1717 c-1 -12 -6 -16 -13 -11 -7 4 -9 3 -5 -1 12 -13 36 -15 44
-3 3 6 1 8 -5 4 -6 -3 -13 2 -15 11 -4 17 -5 17 -6 0z"/>
<path d="M3163 1715 c0 -8 4 -12 9 -9 5 3 6 10 3 15 -9 13 -12 11 -12 -6z"/>
<path d="M3130 1710 c0 -5 5 -10 11 -10 5 0 7 5 4 10 -3 6 -8 10 -11 10 -2 0
-4 -4 -4 -10z"/>
<path d="M3460 1650 c0 -11 4 -20 9 -20 5 0 7 9 4 20 -3 11 -7 20 -9 20 -2 0
-4 -9 -4 -20z"/>
<path d="M3574 1655 c-4 -9 -4 -19 0 -22 3 -4 6 2 7 13 0 18 1 18 9 -1 7 -16
9 -17 9 -3 1 23 -18 33 -25 13z"/>
<path d="M3842 1650 c0 -14 2 -19 5 -12 2 6 2 18 0 25 -3 6 -5 1 -5 -13z"/>
<path d="M2606 1633 c-6 -14 -5 -15 5 -6 7 7 10 15 7 18 -3 3 -9 -2 -12 -12z"/>
<path d="M2577 1576 c4 -13 3 -17 -5 -12 -7 4 -12 2 -12 -3 0 -18 45 -5 46 13
2 14 1 14 -3 0 -4 -14 -6 -13 -19 3 -13 17 -14 17 -7 -1z"/>
<path d="M3051 1572 c-1 -7 -5 -11 -10 -7 -5 3 -13 1 -16 -5 -4 -7 3 -10 21
-7 15 2 30 10 32 18 3 12 2 12 -6 0 -8 -11 -10 -11 -15 0 -4 11 -6 11 -6 1z"/>
<path d="M2671 1529 c0 -13 3 -18 6 -10 5 11 7 11 14 0 5 -8 9 -9 9 -3 0 6 -7
17 -15 24 -13 10 -15 9 -14 -11z"/>
<path d="M4888 1933 c6 -2 18 -2 25 0 6 3 1 5 -13 5 -14 0 -19 -2 -12 -5z"/>
<path d="M4950 1916 c0 -2 8 -10 18 -17 15 -13 16 -12 3 4 -13 16 -21 21 -21
13z"/>
<path d="M5580 1866 c0 -9 5 -16 10 -16 6 0 10 4 10 9 0 6 -4 13 -10 16 -5 3
-10 -1 -10 -9z"/>
<path d="M5711 1864 c0 -11 3 -14 6 -6 3 7 2 16 -1 19 -3 4 -6 -2 -5 -13z"/>
<path d="M4480 1856 c0 -9 5 -16 10 -16 6 0 10 4 10 9 0 6 -4 13 -10 16 -5 3
-10 -1 -10 -9z"/>
<path d="M5168 1853 c-34 -3 -48 -8 -48 -19 0 -10 12 -14 48 -12 l47 1 -45 7
-45 7 42 1 c23 1 45 7 48 12 3 6 5 9 3 8 -2 -1 -24 -3 -50 -5z"/>
<path d="M4405 1839 c-4 -5 -4 -13 -1 -16 3 -4 6 0 6 8 0 11 2 11 10 -1 6 -9
10 -10 10 -3 0 17 -17 25 -25 12z"/>
<path d="M5503 1835 c0 -8 4 -12 9 -9 5 3 6 10 3 15 -9 13 -12 11 -12 -6z"/>
<path d="M5238 1823 c7 -3 16 -2 19 1 4 3 -2 6 -13 5 -11 0 -14 -3 -6 -6z"/>
<path d="M4920 1790 c0 -5 5 -10 11 -10 5 0 7 5 4 10 -3 6 -8 10 -11 10 -2 0
-4 -4 -4 -10z"/>
<path d="M4445 1760 c3 -5 8 -10 11 -10 2 0 4 5 4 10 0 6 -5 10 -11 10 -5 0
-7 -4 -4 -10z"/>
<path d="M5405 1760 c-3 -5 -1 -10 4 -10 6 0 11 5 11 10 0 6 -2 10 -4 10 -3 0
-8 -4 -11 -10z"/>
<path d="M4601 1727 c-1 -12 -6 -16 -13 -11 -10 5 -10 4 -1 -6 17 -18 32 -8
22 15 -7 18 -8 18 -8 2z"/>
<path d="M4476 1714 c-8 -20 -8 -24 2 -24 4 0 8 9 9 20 2 24 -3 26 -11 4z"/>
<path d="M4503 1705 c0 -8 4 -12 9 -9 5 3 6 10 3 15 -9 13 -12 11 -12 -6z"/>
<path d="M5015 1650 c3 -5 8 -10 11 -10 2 0 4 5 4 10 0 6 -5 10 -11 10 -5 0
-7 -4 -4 -10z"/>
<path d="M5360 1619 c0 -5 5 -7 10 -4 6 3 10 8 10 11 0 2 -4 4 -10 4 -5 0 -10
-5 -10 -11z"/>
<path d="M5396 1615 c-3 -8 -1 -15 4 -15 6 0 10 7 10 15 0 8 -2 15 -4 15 -2 0
-6 -7 -10 -15z"/>
<path d="M5696 1613 c-6 -14 -5 -15 5 -6 7 7 10 15 7 18 -3 3 -9 -2 -12 -12z"/>
<path d="M5070 1590 c0 -5 -6 -7 -14 -4 -8 3 -16 1 -20 -4 -3 -5 5 -8 16 -7
19 1 41 25 24 25 -3 0 -6 -4 -6 -10z"/>
<path d="M4557 1570 c3 -11 7 -20 9 -20 2 0 4 9 4 20 0 11 -4 20 -9 20 -5 0
-7 -9 -4 -20z"/>
<path d="M4640 1545 c0 -8 4 -15 10 -15 5 0 7 7 4 15 -4 8 -8 15 -10 15 -2 0
-4 -7 -4 -15z"/>
<path d="M4751 1544 c0 -11 3 -14 6 -6 3 7 2 16 -1 19 -3 4 -6 -2 -5 -13z"/>
<path d="M4771 1544 c0 -11 3 -14 6 -6 3 7 2 16 -1 19 -3 4 -6 -2 -5 -13z"/>
<path d="M6730 1888 c0 -4 16 -8 35 -8 19 0 35 2 35 4 0 2 -16 6 -35 8 -19 2
-35 0 -35 -4z"/>
<path d="M6845 1850 c10 -11 20 -20 23 -20 3 0 -3 9 -13 20 -10 11 -20 20 -23
20 -3 0 3 -9 13 -20z"/>
<path d="M7450 1826 c0 -9 5 -16 10 -16 6 0 10 4 10 9 0 6 -4 13 -10 16 -5 3
-10 -1 -10 -9z"/>
<path d="M7481 1824 c0 -11 3 -14 6 -6 3 7 2 16 -1 19 -3 4 -6 -2 -5 -13z"/>
<path d="M6490 1810 c18 -12 30 -13 30 -2 0 4 -10 9 -22 9 -18 2 -20 0 -8 -7z"/>
<path d="M7038 1783 c-34 -3 -48 -8 -48 -19 0 -10 12 -14 38 -14 20 0 48 -3
62 -7 14 -3 22 -3 18 2 -4 4 -31 11 -60 15 -50 7 -51 8 -13 9 22 1 47 6 55 11
8 5 11 9 5 8 -5 -1 -31 -3 -57 -5z"/>
<path d="M6835 1720 c3 -5 8 -10 11 -10 2 0 4 5 4 10 0 6 -5 10 -11 10 -5 0
-7 -4 -4 -10z"/>
<path d="M7270 1719 c0 -5 5 -7 10 -4 6 3 10 8 10 11 0 2 -4 4 -10 4 -5 0 -10
-5 -10 -11z"/>
<path d="M6222 1670 c0 -14 2 -19 5 -12 2 6 2 18 0 25 -3 6 -5 1 -5 -13z"/>
<path d="M6390 1674 c0 -8 5 -12 10 -9 6 4 8 11 5 16 -9 14 -15 11 -15 -7z"/>
<path d="M6421 1674 c0 -11 3 -14 6 -6 3 7 2 16 -1 19 -3 4 -6 -2 -5 -13z"/>
<path d="M6717 1670 c7 -26 19 -34 29 -19 4 8 3 9 -4 5 -8 -5 -12 0 -12 13 0
12 -4 21 -9 21 -5 0 -7 -9 -4 -20z"/>
<path d="M7232 1670 c0 -14 2 -19 5 -12 2 6 2 18 0 25 -3 6 -5 1 -5 -13z"/>
<path d="M7492 1670 c0 -14 2 -19 5 -12 2 6 2 18 0 25 -3 6 -5 1 -5 -13z"/>
<path d="M6190 1664 c0 -8 5 -12 10 -9 6 4 8 11 5 16 -9 14 -15 11 -15 -7z"/>
<path d="M6765 1670 c-3 -6 1 -7 9 -4 18 7 21 14 7 14 -6 0 -13 -4 -16 -10z"/>
<path d="M6870 1671 c0 -6 4 -13 10 -16 6 -3 7 1 4 9 -7 18 -14 21 -14 7z"/>
<path d="M7561 1615 c-1 -17 -3 -17 -11 -5 -7 10 -10 11 -10 2 0 -12 27 -29
34 -21 2 2 0 13 -5 24 l-8 20 0 -20z"/>
<path d="M6786 1583 c-6 -14 -5 -15 5 -6 7 7 10 15 7 18 -3 3 -9 -2 -12 -12z"/>
<path d="M6276 1523 c-6 -14 -5 -15 5 -6 7 7 10 15 7 18 -3 3 -9 -2 -12 -12z"/>
<path d="M6305 1520 c3 -5 8 -10 11 -10 2 0 4 5 4 10 0 6 -5 10 -11 10 -5 0
-7 -4 -4 -10z"/>
<path d="M6507 1509 c4 -13 8 -18 11 -10 2 7 -1 18 -6 23 -8 8 -9 4 -5 -13z"/>
<path d="M8589 1833 c-13 -16 -12 -17 4 -4 16 13 21 21 13 21 -2 0 -10 -8 -17
-17z"/>
<path d="M8693 1803 c4 -3 3 -11 -3 -17 -6 -8 -3 -12 10 -12 15 0 16 4 9 18
-5 10 -13 18 -16 18 -3 0 -3 -3 0 -7z"/>
<path d="M8596 1783 c-6 -14 -5 -15 5 -6 7 7 10 15 7 18 -3 3 -9 -2 -12 -12z"/>
<path d="M9240 1780 c0 -19 3 -21 12 -12 9 9 9 15 0 24 -9 9 -12 7 -12 -12z"/>
<path d="M9355 1790 c-8 -13 4 -32 16 -25 12 8 12 35 0 35 -6 0 -13 -4 -16
-10z"/>
<path d="M8234 1770 c0 -13 4 -16 10 -10 7 7 7 13 0 20 -6 6 -10 3 -10 -10z"/>
<path d="M9310 1780 c0 -5 5 -10 10 -10 6 0 10 5 10 10 0 6 -4 10 -10 10 -5 0
-10 -4 -10 -10z"/>
<path d="M8118 1773 c7 -3 16 -2 19 1 4 3 -2 6 -13 5 -11 0 -14 -3 -6 -6z"/>
<path d="M8875 1760 l-50 -7 52 -1 c28 -1 55 3 58 8 3 6 3 9 -2 8 -4 0 -30 -4
-58 -8z"/>
<path d="M8831 1726 c2 -2 31 -6 64 -9 39 -4 54 -3 45 3 -14 9 -119 15 -109 6z"/>
<path d="M8165 1690 c-3 -5 -1 -10 4 -10 6 0 11 5 11 10 0 6 -2 10 -4 10 -3 0
-8 -4 -11 -10z"/>
<path d="M9230 1691 c0 -6 4 -13 10 -16 6 -3 7 1 4 9 -7 18 -14 21 -14 7z"/>
<path d="M8634 1671 c0 -11 4 -17 8 -15 4 3 8 12 8 20 0 8 -4 14 -8 14 -4 0
-8 -9 -8 -19z"/>
<path d="M9055 1680 c-3 -6 1 -7 9 -4 18 7 21 14 7 14 -6 0 -13 -4 -16 -10z"/>
<path d="M8670 1670 c0 -5 5 -10 10 -10 6 0 10 5 10 10 0 6 -4 10 -10 10 -5 0
-10 -4 -10 -10z"/>
<path d="M8595 1660 c-3 -5 -1 -10 4 -10 6 0 11 5 11 10 0 6 -2 10 -4 10 -3 0
-8 -4 -11 -10z"/>
<path d="M8700 1656 c0 -2 8 -10 18 -17 15 -13 16 -12 3 4 -13 16 -21 21 -21
13z"/>
<path d="M9032 1640 c0 -14 2 -19 5 -12 2 6 2 18 0 25 -3 6 -5 1 -5 -13z"/>
<path d="M8371 1634 c0 -11 3 -14 6 -6 3 7 2 16 -1 19 -3 4 -6 -2 -5 -13z"/>
<path d="M8290 1630 c0 -5 5 -10 10 -10 6 0 10 5 10 10 0 6 -4 10 -10 10 -5 0
-10 -4 -10 -10z"/>
<path d="M8722 1600 c0 -14 2 -19 5 -12 2 6 2 18 0 25 -3 6 -5 1 -5 -13z"/>
<path d="M8665 1580 c-3 -5 -1 -10 4 -10 6 0 11 5 11 10 0 6 -2 10 -4 10 -3 0
-8 -4 -11 -10z"/>
<path d="M9442 1556 c7 -8 15 -12 17 -11 5 6 -10 25 -20 25 -5 0 -4 -6 3 -14z"/>
<path d="M8185 1550 c3 -5 8 -10 11 -10 2 0 4 5 4 10 0 6 -5 10 -11 10 -5 0
-7 -4 -4 -10z"/>
<path d="M9031 1544 c0 -11 3 -14 6 -6 3 7 2 16 -1 19 -3 4 -6 -2 -5 -13z"/>
<path d="M8685 1520 c3 -5 8 -10 11 -10 2 0 4 5 4 10 0 6 -5 10 -11 10 -5 0
-7 -4 -4 -10z"/>
<path d="M8040 1501 c0 -25 6 -27 13 -6 4 8 2 17 -3 20 -6 4 -10 -3 -10 -14z"/>
<path d="M8715 1500 c-3 -5 -1 -10 4 -10 6 0 11 5 11 10 0 6 -2 10 -4 10 -3 0
-8 -4 -11 -10z"/>
<path d="M682 1438 c-17 -17 -15 -64 4 -83 9 -9 28 -15 43 -13 20 2 27 9 29
31 3 23 0 27 -20 26 -18 -1 -19 -2 -5 -6 27 -7 17 -38 -13 -38 -18 0 -27 8
-34 27 -13 37 8 62 46 54 18 -3 27 -2 23 4 -9 14 -59 12 -73 -2z"/>
<path d="M961 1393 c1 -32 4 -46 6 -31 3 22 10 28 36 31 l32 4 -32 1 c-25 2
-33 7 -33 21 0 15 8 21 33 24 31 4 31 4 -5 5 l-38 2 1 -57z"/>
<path d="M1420 1394 l0 -55 38 3 c30 2 38 7 40 26 2 12 -2 22 -8 22 -7 0 -8 6
-1 18 13 25 -4 42 -41 42 -27 0 -28 -1 -28 -56z m60 26 c0 -13 -7 -20 -20 -20
-13 0 -20 7 -20 20 0 13 7 20 20 20 13 0 20 -7 20 -20z m5 -50 c0 -8 -10 -16
-22 -18 -18 -3 -23 2 -23 18 0 16 5 21 23 18 12 -2 22 -10 22 -18z"/>
<path d="M1600 1395 c0 -30 5 -55 10 -55 6 0 10 25 10 55 0 30 -4 55 -10 55
-5 0 -10 -25 -10 -55z"/>
<path d="M868 1424 c-10 -10 8 -78 22 -82 12 -4 13 -2 3 9 -16 17 -17 56 -1
61 8 3 6 6 -4 10 -9 4 -18 5 -20 2z"/>
<path d="M1209 1426 c-7 -7 2 -86 10 -86 3 0 6 18 5 40 -1 40 -6 55 -15 46z"/>
<path d="M794 1406 c-16 -41 20 -86 47 -59 6 6 1 9 -12 9 -12 -1 -24 5 -26 12
-3 7 5 12 22 12 20 0 26 4 23 18 -4 22 -46 29 -54 8z m46 -6 c0 -5 -9 -10 -21
-10 -11 0 -17 5 -14 10 3 6 13 10 21 10 8 0 14 -4 14 -10z"/>
<path d="M1056 1411 c-4 -5 3 -7 14 -4 11 3 20 1 20 -5 0 -6 -10 -12 -22 -14
-15 -2 -23 -10 -23 -23 0 -16 7 -20 37 -21 22 -1 35 3 33 10 -2 6 -6 23 -9 39
-6 27 -38 38 -50 18z m34 -40 c0 -14 -18 -23 -30 -16 -6 4 -8 11 -5 16 8 12
35 12 35 0z"/>
<path d="M1134 1406 c-16 -43 21 -85 49 -57 9 9 5 11 -13 9 -21 -3 -26 2 -28
26 -3 26 -2 28 23 22 17 -4 24 -3 20 4 -9 15 -45 12 -51 -4z"/>
<path d="M1252 1408 c-27 -27 -3 -73 35 -66 27 5 25 72 -2 76 -11 1 -26 -3
-33 -10z m43 -28 c0 -15 -6 -26 -16 -28 -19 -3 -31 21 -22 43 9 25 38 13 38
-15z"/>
<path d="M1331 1375 c2 -33 3 -35 6 -10 2 17 11 35 20 42 13 10 13 12 -6 10
-18 -1 -21 -7 -20 -42z"/>
<path d="M1525 1410 c-4 -7 2 -9 19 -4 16 4 26 2 26 -4 0 -6 -10 -12 -22 -14
-15 -2 -24 -11 -26 -25 -3 -20 1 -22 31 -21 33 1 33 2 28 37 -5 27 -12 37 -28
39 -11 2 -24 -2 -28 -8z m43 -42 c-7 -19 -38 -22 -38 -4 0 10 9 16 21 16 12 0
19 -5 17 -12z"/>
<path d="M1645 1411 c-3 -7 0 -8 9 -5 8 3 21 2 28 -2 9 -6 5 -10 -12 -14 -16
-4 -26 -14 -28 -28 -3 -19 1 -21 31 -20 33 1 33 2 28 37 -5 27 -12 37 -28 39
-11 2 -24 -2 -28 -7z m39 -46 c-4 -8 -12 -15 -20 -15 -8 0 -14 7 -14 15 0 8 9
15 20 15 13 0 18 -5 14 -15z"/>
<path d="M1721 1375 l2 -40 6 35 c9 51 38 53 44 3 l4 -38 1 43 c2 41 1 42 -28
40 -28 -2 -30 -5 -29 -43z"/>
<path d="M1810 1405 c-24 -29 14 -85 41 -58 9 9 7 11 -8 7 -13 -4 -22 0 -26
10 -10 25 3 48 24 43 11 -3 17 -1 13 4 -8 14 -30 11 -44 -6z"/>
<path d="M1884 1406 c-16 -41 20 -86 47 -59 6 6 1 9 -12 9 -12 -1 -24 5 -26
12 -3 8 6 12 27 12 28 0 30 2 20 20 -12 23 -48 27 -56 6z m46 -6 c0 -5 -9 -10
-21 -10 -11 0 -17 5 -14 10 3 6 13 10 21 10 8 0 14 -4 14 -10z"/>
<path d="M840 610 c0 -33 4 -60 10 -60 6 0 10 11 10 25 0 15 6 25 14 25 7 0
21 -11 30 -25 23 -35 40 -31 21 5 -9 17 -11 30 -6 30 15 0 22 32 10 46 -6 8
-29 14 -50 14 l-39 0 0 -60z m70 25 c0 -9 -9 -15 -25 -15 -16 0 -25 6 -25 15
0 9 9 15 25 15 16 0 25 -6 25 -15z"/>
<path d="M1410 610 c0 -33 4 -60 10 -60 6 0 10 27 10 60 0 33 -4 60 -10 60 -6
0 -10 -27 -10 -60z"/>
<path d="M1063 645 c-7 -8 -11 -20 -9 -27 3 -7 7 -25 10 -40 4 -16 12 -28 19
-28 11 0 15 50 8 103 -2 11 -15 8 -28 -8z"/>
<path d="M1218 648 c-3 -7 -3 -32 0 -55 3 -34 8 -43 23 -43 10 0 19 5 19 10 0
6 -4 10 -10 10 -14 0 -12 48 2 52 9 3 8 9 -4 21 -20 20 -24 21 -30 5z"/>
<path d="M1753 645 c-7 -8 -11 -20 -9 -27 3 -7 7 -25 10 -40 4 -16 12 -28 19
-28 11 0 15 50 8 103 -2 11 -15 8 -28 -8z"/>
<path d="M972 628 c-17 -17 -15 -53 3 -68 8 -7 25 -10 40 -6 20 5 25 12 25 40
0 43 -39 63 -68 34z m48 -33 c0 -18 -5 -25 -20 -25 -15 0 -20 7 -20 25 0 18 5
25 20 25 15 0 20 -7 20 -25z"/>
<path d="M1125 630 c-4 -6 6 -11 22 -11 22 -1 24 -3 6 -6 -58 -11 -52 -63 7
-60 37 1 38 2 33 32 -2 16 -6 36 -9 43 -4 14 -50 16 -59 2z m40 -50 c-3 -5
-10 -10 -16 -10 -5 0 -9 5 -9 10 0 6 7 10 16 10 8 0 12 -4 9 -10z"/>
<path d="M1283 633 c-7 -2 -13 -20 -13 -39 0 -27 5 -35 24 -40 26 -6 46 1 46
17 0 5 -11 7 -25 3 -15 -4 -25 -2 -25 5 0 6 14 11 30 11 33 0 35 3 20 31 -10
18 -31 23 -57 12z m34 -19 c-3 -3 -12 -4 -19 -1 -8 3 -5 6 6 6 11 1 17 -2 13
-5z"/>
<path d="M1460 594 c0 -51 17 -60 22 -11 2 20 8 32 18 32 10 0 16 -12 18 -32
5 -49 24 -40 20 10 -3 41 -4 42 -40 43 l-38 1 0 -43z"/>
<path d="M1567 634 c-15 -16 -5 -35 26 -49 l32 -15 -33 5 c-24 3 -32 1 -30 -8
6 -17 46 -21 64 -7 21 19 17 28 -18 45 -32 15 -32 15 -5 10 21 -4 28 -2 25 7
-5 14 -50 23 -61 12z"/>
<path d="M1659 619 c-8 -16 -8 -28 0 -45 11 -24 26 -29 55 -18 25 10 19 25 -8
18 -13 -3 -27 -1 -30 5 -5 7 4 11 23 11 32 0 41 16 19 38 -19 19 -46 14 -59
-9z m48 -5 c-3 -3 -12 -4 -19 -1 -8 3 -5 6 6 6 11 1 17 -2 13 -5z"/>
<path d="M3170 610 l0 -60 45 0 c25 0 45 5 45 10 0 6 -16 10 -35 10 -24 0 -35
5 -35 15 0 10 10 15 30 15 17 0 30 5 30 10 0 6 -13 10 -30 10 -20 0 -30 5 -30
15 0 10 11 15 35 15 19 0 35 5 35 10 0 6 -20 10 -45 10 l-45 0 0 -60z"/>
<path d="M3380 660 c0 -5 5 -10 10 -10 6 0 10 5 10 10 0 6 -4 10 -10 10 -5 0
-10 -4 -10 -10z"/>
<path d="M3423 645 c-7 -8 -11 -20 -9 -27 3 -7 7 -25 10 -40 4 -16 12 -28 19
-28 11 0 15 50 8 103 -2 11 -15 8 -28 -8z"/>
<path d="M3285 620 c17 -18 17 -21 1 -45 -18 -27 -7 -35 14 -10 12 14 15 14
30 0 25 -23 32 -18 14 10 -16 24 -16 27 1 45 15 17 16 20 3 20 -9 0 -19 -8
-23 -17 -6 -17 -7 -17 -19 0 -7 9 -19 17 -26 17 -9 0 -8 -6 5 -20z"/>
<path d="M3380 595 c0 -25 5 -45 10 -45 6 0 10 20 10 45 0 25 -4 45 -10 45 -5
0 -10 -20 -10 -45z"/>
<path d="M720 6855 c0 -8 7 -15 15 -15 8 0 15 7 15 15 0 8 -7 15 -15 15 -8 0
-15 -7 -15 -15z"/>
<path d="M770 6800 c0 -56 3 -70 15 -70 12 0 15 14 15 70 0 56 -3 70 -15 70
-12 0 -15 -14 -15 -70z"/>
<path d="M890 6846 c0 -19 -4 -22 -25 -18 -20 3 -27 -1 -35 -22 -6 -16 -6 -35
0 -50 8 -21 16 -25 50 -24 l40 0 0 69 c0 55 -3 69 -15 69 -9 0 -15 -9 -15 -24z
m-5 -66 c0 -27 -22 -39 -31 -16 -8 22 3 49 19 43 6 -2 12 -14 12 -27z"/>
<path d="M940 6855 c0 -8 7 -15 15 -15 8 0 15 7 15 15 0 8 -7 15 -15 15 -8 0
-15 -7 -15 -15z"/>
<path d="M1420 6800 c0 -40 4 -70 10 -70 6 0 10 30 10 70 0 40 -4 70 -10 70
-6 0 -10 -30 -10 -70z"/>
<path d="M1780 6855 c0 -8 5 -15 10 -15 6 0 10 7 10 15 0 8 -4 15 -10 15 -5 0
-10 -7 -10 -15z"/>
<path d="M1890 6800 c0 -54 3 -70 14 -70 10 0 16 13 18 38 2 25 8 37 18 37 10
0 16 -12 18 -37 5 -56 24 -46 20 10 -3 44 -5 47 -30 47 -23 -1 -28 4 -28 22 0
14 -6 23 -15 23 -12 0 -15 -14 -15 -70z"/>
<path d="M470 6794 l0 -65 46 3 c55 4 77 26 57 58 -8 12 -9 21 -3 25 7 4 6 13
0 26 -8 14 -21 19 -55 19 l-45 0 0 -66z m80 31 c0 -10 -10 -15 -30 -15 -20 0
-30 5 -30 15 0 10 10 15 30 15 20 0 30 -5 30 -15z m5 -55 c0 -10 -12 -16 -32
-18 -28 -3 -33 0 -33 18 0 18 5 21 33 18 20 -2 32 -8 32 -18z"/>
<path d="M1300 6800 c-22 -60 -20 -91 4 -57 16 21 66 23 66 2 0 -8 7 -15 15
-15 12 0 11 11 -8 62 -30 84 -48 86 -77 8z m53 0 c4 -15 0 -20 -15 -20 -14 0
-18 5 -14 16 3 9 6 20 6 25 0 17 17 1 23 -21z"/>
<path d="M1833 6836 c-6 -8 -10 -22 -8 -32 14 -70 16 -74 35 -74 11 0 20 5 20
10 0 6 -4 10 -10 10 -15 0 -12 58 2 62 9 3 8 9 -4 21 -20 20 -20 20 -35 3z"/>
<path d="M612 6783 l3 -48 43 -2 42 -2 0 50 c0 36 -4 49 -14 49 -10 0 -16 -13
-18 -37 -2 -26 -8 -38 -18 -38 -10 0 -16 12 -18 38 -5 55 -24 45 -20 -10z"/>
<path d="M720 6780 c0 -38 4 -50 15 -50 11 0 15 12 15 50 0 38 -4 50 -15 50
-11 0 -15 -12 -15 -50z"/>
<path d="M940 6780 c0 -38 4 -50 15 -50 11 0 15 12 15 50 0 38 -4 50 -15 50
-11 0 -15 -12 -15 -50z"/>
<path d="M1000 6778 c0 -56 17 -65 22 -11 2 27 8 39 21 41 14 3 17 -4 17 -37
0 -30 4 -41 15 -41 11 0 15 11 15 39 0 45 -13 58 -57 58 -33 0 -33 -1 -33 -49z"/>
<path d="M1121 6817 c-16 -16 -14 -62 4 -77 8 -6 23 -9 36 -5 16 5 20 3 17 -6
-3 -9 -17 -13 -38 -11 -28 2 -31 0 -20 -13 15 -18 51 -20 68 -3 7 7 12 37 12
68 l0 56 -34 1 c-19 1 -39 -4 -45 -10z m54 -37 c0 -15 -6 -26 -16 -28 -19 -3
-31 21 -22 43 9 25 38 13 38 -15z"/>
<path d="M1481 6817 c-16 -16 -14 -62 4 -77 8 -6 23 -9 34 -5 16 5 20 3 15
-10 -5 -12 -14 -14 -38 -9 -27 6 -29 5 -17 -10 16 -19 52 -21 69 -4 7 7 12 37
12 68 l0 56 -34 1 c-19 1 -39 -4 -45 -10z m53 -22 c8 -21 -3 -45 -20 -45 -18
0 -28 24 -20 45 3 8 12 15 20 15 7 0 16 -7 20 -15z"/>
<path d="M1594 6809 c-17 -19 -17 -23 -3 -47 27 -49 89 -37 89 17 0 51 -51 69
-86 30z m61 -29 c0 -29 -32 -41 -41 -16 -9 24 4 48 23 44 12 -2 18 -12 18 -28z"/>
<path d="M1700 6779 c0 -37 4 -49 15 -49 11 0 15 11 15 35 0 22 6 38 15 41 25
10 17 21 -15 22 -29 1 -30 0 -30 -49z"/>
<path d="M1780 6780 c0 -27 5 -50 10 -50 6 0 10 23 10 50 0 28 -4 50 -10 50
-5 0 -10 -22 -10 -50z"/>
<path d="M2010 6778 c0 -26 5 -48 10 -48 6 0 10 12 10 28 0 15 4 33 9 41 14
22 31 3 31 -35 0 -46 18 -44 22 4 2 25 8 37 18 37 10 0 16 -12 18 -37 5 -56
24 -46 20 10 l-3 47 -67 1 -68 0 0 -48z"/>
<path d="M1180 6610 c0 -40 4 -70 10 -70 6 0 10 30 10 70 0 40 -4 70 -10 70
-6 0 -10 -30 -10 -70z"/>
<path d="M1280 6660 c0 -5 9 -10 20 -10 18 0 20 -7 20 -55 0 -42 3 -55 15 -55
12 0 15 13 15 55 0 48 2 55 20 55 11 0 20 5 20 10 0 6 -25 10 -55 10 -30 0
-55 -4 -55 -10z"/>
<path d="M969 6624 c-13 -16 -12 -17 13 -11 15 4 29 3 33 -2 3 -5 -7 -11 -22
-13 -22 -2 -28 -8 -28 -28 0 -23 4 -25 48 -26 26 -1 47 2 47 7 0 5 -4 9 -9 9
-6 0 -11 17 -13 38 -3 31 -7 37 -29 40 -15 2 -31 -4 -40 -14z m46 -54 c-3 -5
-13 -10 -21 -10 -8 0 -14 5 -14 10 0 6 9 10 21 10 11 0 17 -4 14 -10z"/>
<path d="M1078 6590 c20 -65 42 -66 65 -3 9 25 15 48 13 51 -10 9 -25 -10 -31
-38 -8 -36 -21 -31 -30 10 -4 17 -13 30 -20 30 -11 0 -10 -10 3 -50z"/>
<path d="M1400 6588 c0 -26 5 -48 10 -48 6 0 10 11 10 24 0 35 10 56 26 56 8
0 14 4 14 9 0 5 -13 9 -30 9 -29 -1 -30 -3 -30 -50z"/>
<path d="M1482 6628 c-17 -17 -15 -63 2 -78 18 -14 58 -10 64 8 3 9 -3 11 -21
7 -14 -4 -28 -2 -31 4 -5 7 5 11 28 11 40 0 43 6 20 38 -17 24 -43 29 -62 10z
m48 -18 c0 -5 -9 -10 -21 -10 -11 0 -17 5 -14 10 3 6 13 10 21 10 8 0 14 -4
14 -10z"/>
<path d="M1578 6615 c-24 -54 36 -103 73 -59 12 15 10 16 -19 10 -21 -5 -32
-4 -32 3 0 6 14 11 30 11 22 0 30 5 30 18 0 45 -63 59 -82 17z m57 -5 c3 -5
-3 -10 -14 -10 -12 0 -21 5 -21 10 0 6 6 10 14 10 8 0 18 -4 21 -10z"/>
<path d="M1220 6590 c0 -5 11 -10 25 -10 14 0 25 5 25 10 0 6 -11 10 -25 10
-14 0 -25 -4 -25 -10z"/>
<path d="M10590 5025 l0 -55 43 2 42 1 -37 4 c-29 3 -38 9 -38 23 0 14 9 20
33 23 l32 4 -32 1 c-25 2 -33 7 -33 21 0 15 8 21 38 24 l37 4 -42 1 -43 2 0
-55z"/>
<path d="M10820 5057 c0 -8 -10 -13 -22 -13 -20 1 -23 -4 -23 -34 0 -31 3 -35
28 -36 26 -1 27 1 27 47 0 27 -2 49 -5 49 -3 0 -5 -6 -5 -13z m-5 -47 c0 -27
-22 -39 -31 -16 -8 22 3 49 19 43 6 -2 12 -14 12 -27z"/>
<path d="M10691 5006 l2 -41 6 35 c8 48 38 54 44 8 l4 -33 -1 35 c-1 31 -4 35
-28 36 -26 1 -28 -1 -27 -40z"/>
</g>
</svg>
