<?xml version="1.0" standalone="no"?>
<!DOCTYPE svg PUBLIC "-//W3C//DTD SVG 20010904//EN"
 "http://www.w3.org/TR/2001/REC-SVG-20010904/DTD/svg10.dtd">
<svg version="1.0" xmlns="http://www.w3.org/2000/svg"
 width="2164.000000pt" height="1164.000000pt" viewBox="0 0 2164.000000 1164.000000"
 preserveAspectRatio="xMidYMid meet">

<g transform="translate(0.000000,1164.000000) scale(0.100000,-0.100000)"
fill="#000000" stroke="none">
<path d="M2538 10969 c-10 -5 -21 -28 -24 -49 -6 -34 -10 -40 -30 -40 -13 0
-24 -4 -24 -10 0 -5 11 -10 25 -10 24 0 25 -2 25 -65 0 -51 3 -65 15 -65 12 0
15 14 15 65 l0 65 40 0 c51 0 53 18 3 22 -33 3 -38 7 -41 30 -4 31 26 53 58
43 14 -4 20 -2 20 9 0 19 -54 22 -82 5z"/>
<path d="M2720 10959 c0 -25 33 -22 38 4 2 12 -3 17 -17 17 -15 0 -21 -6 -21
-21z"/>
<path d="M3180 10945 c0 -33 -2 -35 -35 -35 -52 0 -85 -36 -85 -92 0 -24 7
-54 16 -66 17 -25 56 -29 74 -7 7 8 16 15 21 15 5 0 9 -7 9 -15 0 -8 5 -15 10
-15 6 0 10 48 10 125 0 77 -4 125 -10 125 -5 0 -10 -16 -10 -35z m-19 -65 c24
-13 26 -66 3 -98 -19 -28 -60 -29 -75 -1 -16 31 -3 88 24 99 29 11 26 11 48 0z"/>
<path d="M3770 10946 c0 -31 -2 -34 -40 -39 -51 -7 -68 -20 -76 -62 -15 -83
29 -136 87 -103 24 14 29 15 29 3 0 -8 4 -15 9 -15 10 0 18 145 13 213 -4 46
-22 49 -22 3z m-9 -66 c5 0 9 -20 9 -44 0 -36 -5 -48 -26 -65 -39 -31 -64 -14
-64 44 0 34 5 47 22 60 13 8 29 13 36 10 8 -3 18 -5 23 -5z"/>
<path d="M3260 10845 c0 -70 4 -115 10 -115 6 0 10 37 10 92 0 50 3 89 6 85 4
-3 24 -43 45 -89 27 -59 44 -84 59 -86 19 -3 20 2 20 112 0 95 -3 116 -15 116
-11 0 -15 -19 -17 -90 l-3 -90 -40 90 c-28 63 -45 90 -57 90 -16 0 -18 -12
-18 -115z"/>
<path d="M5460 10915 c0 -19 -5 -25 -23 -25 -12 0 -33 -7 -45 -16 -19 -13 -23
-23 -20 -61 4 -56 26 -75 60 -54 16 10 23 10 26 2 2 -6 8 -11 13 -11 5 0 9 43
9 95 0 57 -4 95 -10 95 -5 0 -10 -11 -10 -25z m0 -78 c0 -38 -30 -73 -55 -64
-10 4 -15 20 -15 46 0 40 8 49 48 50 19 1 22 -4 22 -32z"/>
<path d="M6300 10930 c0 -5 9 -10 20 -10 18 0 20 -7 20 -75 0 -73 -1 -75 -25
-75 -14 0 -25 -4 -25 -10 0 -5 25 -10 55 -10 30 0 55 5 55 10 0 6 -9 10 -20
10 -18 0 -20 7 -20 85 l0 85 -30 0 c-16 0 -30 -4 -30 -10z"/>
<path d="M2680 10901 c0 -5 10 -11 23 -13 20 -3 22 -8 22 -68 0 -63 -1 -65
-27 -68 -56 -7 -26 -22 42 -22 40 0 70 4 70 10 0 6 -11 10 -25 10 -25 0 -25 1
-25 80 l0 80 -40 0 c-22 0 -40 -4 -40 -9z"/>
<path d="M2870 10820 c0 -53 4 -90 10 -90 6 0 10 26 10 58 0 58 8 74 47 96 25
14 43 -24 43 -90 0 -36 4 -64 10 -64 6 0 10 33 10 80 0 76 -1 81 -25 92 -19 8
-32 8 -52 -1 -19 -9 -29 -9 -31 -2 -2 6 -8 11 -13 11 -5 0 -9 -40 -9 -90z"/>
<path d="M3475 10885 c-19 -18 -25 -35 -25 -65 0 -30 6 -47 25 -65 55 -56 135
-11 135 75 0 41 -39 80 -80 80 -19 0 -40 -9 -55 -25z m83 -11 c33 -23 31 -88
-3 -110 -23 -15 -27 -15 -50 0 -34 22 -36 87 -3 110 12 9 25 16 28 16 3 0 16
-7 28 -16z"/>
<path d="M3875 10885 c-36 -35 -35 -105 1 -134 26 -21 67 -27 98 -15 29 11 16
23 -23 21 -40 -1 -71 15 -71 39 0 10 16 14 60 14 58 0 60 1 60 25 0 33 -42 75
-75 75 -14 0 -37 -11 -50 -25z m76 -5 c10 -6 19 -20 19 -30 0 -17 -7 -20 -45
-20 -38 0 -45 3 -45 20 0 10 8 24 18 29 22 13 29 13 53 1z"/>
<path d="M5060 10820 c0 -40 4 -70 10 -70 6 0 10 20 10 44 0 48 21 79 49 74
12 -2 17 -17 19 -61 4 -75 22 -74 22 2 0 71 -16 91 -61 74 -16 -6 -29 -7 -29
-2 0 5 -4 9 -10 9 -6 0 -10 -30 -10 -70z"/>
<path d="M5230 10870 c-38 -38 -13 -120 38 -120 36 0 62 29 62 69 0 64 -57 94
-100 51z m68 -9 c19 -11 11 -71 -10 -85 -25 -15 -52 4 -56 38 -6 45 30 70 66
47z"/>
<path d="M5540 10870 c-53 -53 4 -141 74 -114 27 10 18 21 -14 16 -29 -4 -60
11 -60 29 0 5 23 9 50 9 43 0 50 3 50 20 0 11 -9 29 -20 40 -11 11 -29 20 -40
20 -11 0 -29 -9 -40 -20z m70 -4 c0 -2 3 -11 6 -20 5 -13 -2 -16 -35 -16 -39
0 -41 1 -31 20 9 17 60 30 60 16z"/>
<path d="M5995 10825 c14 -36 25 -68 25 -70 0 -3 6 -5 14 -5 13 0 71 129 62
138 -10 10 -24 -11 -36 -53 -7 -25 -16 -47 -20 -50 -4 -2 -15 20 -26 50 -10
30 -24 55 -31 55 -8 0 -5 -20 12 -65z"/>
<path d="M6155 10881 c-3 -5 9 -11 27 -13 38 -4 55 -38 18 -38 -35 0 -60 -19
-60 -45 0 -26 3 -28 62 -29 l38 -1 0 56 c0 30 -5 60 -12 67 -14 14 -64 16 -73
3z m65 -86 c0 -15 -46 -32 -57 -22 -3 4 -3 13 0 22 8 20 57 20 57 0z"/>
<path d="M6452 10829 c3 -70 22 -94 57 -72 14 9 21 9 30 0 8 -8 11 8 11 61 0
41 -4 72 -10 72 -5 0 -10 -22 -10 -49 0 -51 -18 -78 -45 -67 -11 4 -15 21 -15
61 0 32 -4 55 -10 55 -7 0 -10 -23 -8 -61z"/>
<path d="M6611 10864 c-24 -30 -25 -42 -11 -78 11 -29 47 -42 82 -30 20 7 18
9 -17 14 -27 3 -41 10 -43 23 -3 14 4 17 42 17 42 0 46 2 46 23 0 29 -29 57
-58 57 -11 0 -30 -12 -41 -26z m69 2 c0 -2 3 -11 6 -20 5 -13 -2 -16 -35 -16
-39 0 -41 1 -31 20 9 17 60 30 60 16z"/>
<path d="M4440 10830 c0 -6 73 -10 200 -10 127 0 200 4 200 10 0 6 -73 10
-200 10 -127 0 -200 -4 -200 -10z"/>
<path d="M5717 10783 c-3 -5 -2 -15 3 -23 11 -17 2 -40 -16 -40 -8 0 -14 -4
-14 -10 0 -14 12 -12 38 6 16 11 22 24 20 42 -3 26 -22 40 -31 25z"/>
<path d="M3220 10245 c0 -107 -4 -195 -8 -195 -5 0 -91 25 -192 55 -101 30
-187 55 -192 55 -4 0 -8 -27 -8 -60 l0 -60 -990 0 -990 0 0 -4610 0 -4610
4210 0 4210 0 0 210 c0 203 -1 210 -20 210 -19 0 -20 -7 -20 -200 l0 -200
-2980 0 -2980 0 0 200 c0 193 -1 200 -20 200 -19 0 -20 -7 -20 -200 l0 -200
-1180 0 -1180 0 0 4590 0 4590 980 0 980 0 0 -60 c0 -33 4 -60 8 -60 5 0 91
25 192 55 101 30 187 55 192 55 4 0 8 -83 8 -185 0 -178 1 -185 20 -185 19 0
20 7 20 190 l0 190 2980 0 2980 0 0 -190 c0 -183 1 -190 20 -190 19 0 20 7 20
190 l0 190 5480 0 5480 0 0 -190 c0 -183 1 -190 20 -190 19 0 20 7 20 200 l0
200 -8500 0 -8500 0 0 200 c0 193 -1 200 -20 200 -19 0 -20 -7 -20 -195z"/>
<path d="M1620 9251 c0 -93 4 -101 51 -101 49 0 80 88 43 124 -18 19 -28 20
-55 6 -17 -10 -19 -7 -19 25 0 19 -4 35 -10 35 -6 0 -10 -36 -10 -89z m88 -19
c4 -40 -12 -62 -44 -62 -21 0 -24 5 -24 38 0 43 16 64 45 60 15 -2 21 -12 23
-36z"/>
<path d="M3790 9330 c0 -5 9 -10 20 -10 18 0 20 -7 20 -75 0 -73 -1 -75 -25
-75 -14 0 -25 -4 -25 -10 0 -5 25 -10 55 -10 30 0 55 5 55 10 0 6 -9 10 -20
10 -18 0 -20 7 -20 85 l0 85 -30 0 c-16 0 -30 -4 -30 -10z"/>
<path d="M3972 9328 c6 -18 28 -21 28 -4 0 9 -7 16 -16 16 -9 0 -14 -5 -12
-12z"/>
<path d="M7022 9328 c-7 -7 -12 -22 -12 -35 0 -18 -6 -23 -25 -23 -14 0 -25
-4 -25 -10 0 -5 11 -10 25 -10 23 0 25 -3 25 -50 0 -27 5 -50 10 -50 6 0 10
23 10 50 0 49 1 50 30 50 17 0 30 5 30 10 0 6 -14 10 -31 10 -26 0 -30 3 -27
23 2 16 11 23 31 25 15 2 27 8 27 13 0 13 -54 11 -68 -3z"/>
<path d="M8100 9324 c0 -9 5 -14 12 -12 18 6 21 28 4 28 -9 0 -16 -7 -16 -16z"/>
<path d="M8370 9245 c0 -57 4 -95 10 -95 6 0 10 22 10 49 0 51 18 78 45 67 11
-4 15 -21 15 -61 0 -32 4 -55 10 -55 7 0 10 23 8 61 -3 71 -22 94 -58 71 -19
-11 -20 -10 -20 23 0 19 -4 35 -10 35 -6 0 -10 -38 -10 -95z"/>
<path d="M19810 9325 c0 -8 7 -15 15 -15 8 0 15 7 15 15 0 8 -7 15 -15 15 -8
0 -15 -7 -15 -15z"/>
<path d="M1472 9241 c-20 -63 -25 -91 -17 -91 7 0 15 9 18 20 4 16 14 20 46
20 29 0 41 -4 41 -14 0 -15 18 -31 26 -24 2 3 -9 42 -24 89 -39 115 -52 115
-90 0z m64 8 l12 -39 -29 0 c-32 0 -35 10 -18 59 13 37 19 34 35 -20z"/>
<path d="M4115 9313 c-4 -13 -16 -23 -26 -23 -11 0 -19 -4 -19 -10 0 -5 9 -10
20 -10 17 0 20 -7 20 -44 0 -51 19 -76 56 -76 33 0 30 18 -3 22 -26 3 -28 7
-31 51 -3 46 -3 47 27 47 17 0 31 5 31 10 0 6 -13 10 -29 10 -23 0 -31 5 -34
23 l-4 22 -8 -22z"/>
<path d="M6670 9240 l0 -90 50 0 c28 0 50 5 50 10 0 6 -18 10 -40 10 l-40 0 0
80 c0 47 -4 80 -10 80 -6 0 -10 -37 -10 -90z"/>
<path d="M7155 9313 c-4 -13 -16 -23 -26 -23 -11 0 -19 -4 -19 -10 0 -5 9 -10
20 -10 17 0 20 -7 20 -44 0 -51 19 -76 56 -76 33 0 30 18 -3 22 -26 3 -28 7
-31 51 -3 46 -3 47 27 47 17 0 31 5 31 10 0 6 -13 10 -29 10 -23 0 -31 5 -34
23 l-4 22 -8 -22z"/>
<path d="M7910 9240 c0 -53 4 -90 10 -90 6 0 10 18 10 40 0 29 4 40 15 40 8 0
24 -18 35 -40 11 -22 25 -40 30 -40 12 0 -8 56 -25 70 -11 9 -10 15 6 31 37
37 12 79 -47 79 l-34 0 0 -90z m70 55 c16 -19 -3 -45 -31 -45 -14 0 -19 7 -19
30 0 23 5 30 19 30 10 0 24 -7 31 -15z"/>
<path d="M8545 9313 c-4 -13 -14 -23 -21 -23 -8 0 -14 -4 -14 -10 0 -5 7 -10
15 -10 11 0 15 -12 15 -44 0 -27 6 -51 16 -60 17 -18 74 -22 74 -6 0 6 -13 10
-29 10 -32 0 -41 14 -41 66 0 32 2 34 35 34 19 0 35 5 35 10 0 6 -15 10 -34
10 -28 0 -35 4 -39 23 l-4 22 -8 -22z"/>
<path d="M19470 9240 l0 -90 50 0 c28 0 50 5 50 10 0 6 -18 10 -40 10 -38 0
-40 2 -40 30 0 28 3 30 35 30 19 0 35 5 35 10 0 6 -16 10 -35 10 -32 0 -35 2
-35 30 0 28 2 30 40 30 22 0 40 5 40 10 0 6 -22 10 -50 10 l-50 0 0 -90z"/>
<path d="M19955 9313 c-4 -13 -16 -23 -26 -23 -11 0 -19 -4 -19 -10 0 -5 9
-10 20 -10 17 0 20 -7 20 -44 0 -51 19 -76 56 -76 33 0 30 18 -3 22 -26 3 -28
7 -31 51 -3 46 -3 47 27 47 17 0 31 5 31 10 0 6 -13 10 -29 10 -23 0 -31 5
-34 23 l-4 22 -8 -22z"/>
<path d="M1798 9279 c-30 -17 -22 -47 18 -66 48 -23 48 -37 2 -41 -47 -4 -50
-22 -4 -22 36 0 70 24 63 44 -2 6 -20 19 -40 29 -48 24 -49 47 -2 47 19 0 35
5 35 10 0 13 -50 12 -72 -1z"/>
<path d="M1940 9270 c-53 -53 4 -141 74 -114 27 10 18 21 -14 16 -29 -4 -60
11 -60 29 0 5 23 9 50 9 43 0 50 3 50 20 0 26 -34 60 -60 60 -11 0 -29 -9 -40
-20z m70 -4 c0 -2 3 -11 6 -20 5 -13 -2 -16 -35 -16 -39 0 -41 1 -31 20 9 17
60 30 60 16z"/>
<path d="M2080 9220 c0 -40 4 -70 10 -70 6 0 10 22 10 48 0 50 12 72 41 72 21
0 29 -20 29 -76 0 -24 3 -44 8 -44 4 0 5 29 4 65 -4 70 -20 87 -62 65 -13 -7
-20 -7 -20 0 0 5 -4 10 -10 10 -6 0 -10 -30 -10 -70z"/>
<path d="M2255 9265 c-28 -27 -30 -42 -13 -80 13 -30 50 -42 81 -27 21 10 20
11 -8 11 -37 2 -50 10 -57 38 -9 33 18 63 55 63 24 0 28 3 17 10 -25 16 -50
11 -75 -15z"/>
<path d="M2400 9270 c-53 -53 4 -141 74 -114 27 10 18 21 -14 16 -29 -4 -60
11 -60 29 0 5 23 9 50 9 43 0 50 3 50 20 0 26 -34 60 -60 60 -11 0 -29 -9 -40
-20z m68 -12 c21 -21 13 -28 -28 -28 -38 0 -40 2 -30 20 12 22 40 26 58 8z"/>
<path d="M2722 9274 c-27 -18 -31 -84 -6 -108 37 -38 104 -3 104 54 0 33 -30
70 -58 70 -10 0 -28 -7 -40 -16z m70 -29 c16 -36 -3 -75 -37 -75 -32 0 -49 38
-35 75 7 18 17 25 35 25 17 0 29 -8 37 -25z"/>
<path d="M2860 9220 c0 -40 4 -70 10 -70 6 0 10 20 10 43 0 30 6 49 18 60 23
21 52 22 52 2 0 -8 5 -15 11 -15 16 0 6 31 -13 44 -14 8 -23 7 -40 -3 -16 -10
-23 -10 -26 -2 -2 6 -8 11 -13 11 -5 0 -9 -31 -9 -70z"/>
<path d="M3179 9269 c-48 -48 -2 -132 64 -115 37 9 34 24 -3 18 -29 -4 -60 11
-60 29 0 5 23 9 51 9 51 0 51 0 45 28 -13 52 -60 68 -97 31z m71 -19 c10 -18
8 -20 -30 -20 -43 0 -43 0 -34 24 9 23 51 20 64 -4z"/>
<path d="M3336 9275 c-50 -51 -11 -152 45 -117 27 17 28 16 22 -23 -4 -23 -2
-35 6 -35 6 0 11 3 12 8 0 4 1 45 1 92 l1 85 -35 3 c-23 2 -41 -3 -52 -13z
m64 -43 c0 -61 -40 -85 -62 -37 -16 36 3 75 37 75 22 0 25 -4 25 -38z"/>
<path d="M3470 9237 c0 -30 6 -62 14 -73 13 -17 18 -18 45 -7 17 6 31 7 31 2
0 -5 5 -9 10 -9 6 0 10 30 10 70 0 81 -17 95 -22 19 -3 -55 -21 -78 -52 -66
-12 5 -16 20 -16 62 0 30 -4 55 -10 55 -5 0 -10 -24 -10 -53z"/>
<path d="M3645 9281 c-3 -5 9 -11 27 -13 41 -4 54 -38 15 -38 -14 0 -35 -8
-47 -18 -19 -16 -21 -22 -11 -40 10 -18 19 -22 56 -20 l45 3 0 56 c0 30 -5 60
-12 67 -14 14 -64 16 -73 3z m65 -85 c0 -14 -21 -26 -46 -26 -8 0 -14 9 -14
20 0 16 7 20 30 20 19 0 30 -5 30 -14z"/>
<path d="M3940 9280 c0 -5 9 -10 20 -10 17 0 20 -7 20 -50 0 -43 -3 -50 -20
-50 -11 0 -20 -4 -20 -10 0 -5 23 -10 50 -10 28 0 50 5 50 10 0 6 -9 10 -20
10 -18 0 -20 7 -20 60 l0 60 -30 0 c-16 0 -30 -4 -30 -10z"/>
<path d="M4235 9273 c45 -112 48 -123 35 -138 -7 -8 -19 -15 -26 -15 -8 0 -14
-4 -14 -10 0 -24 54 -1 70 31 26 47 60 151 49 147 -6 -2 -21 -28 -32 -58 -17
-46 -21 -51 -28 -35 -5 11 -15 37 -23 58 -8 20 -20 37 -27 37 -7 0 -8 -7 -4
-17z"/>
<path d="M6830 9263 c-48 -61 17 -144 80 -103 11 7 6 10 -22 10 -27 0 -40 6
-48 20 -10 19 -8 20 40 20 46 0 50 2 50 23 0 29 -29 57 -58 57 -11 0 -30 -12
-42 -27z m70 3 c0 -2 3 -11 6 -20 5 -13 -2 -16 -35 -16 -39 0 -41 1 -31 20 9
17 60 30 60 16z"/>
<path d="M7462 9273 c-30 -26 -33 -81 -6 -107 37 -38 104 -3 104 54 0 34 -30
70 -59 70 -10 0 -28 -8 -39 -17z m70 -28 c16 -36 -3 -75 -37 -75 -32 0 -49 38
-35 75 7 18 17 25 35 25 17 0 29 -8 37 -25z"/>
<path d="M7600 9220 c0 -40 4 -70 10 -70 6 0 10 20 10 43 0 30 6 49 18 60 23
21 52 22 52 2 0 -8 5 -15 11 -15 16 0 6 31 -13 44 -14 8 -23 7 -40 -3 -16 -10
-23 -10 -26 -2 -2 6 -8 11 -13 11 -5 0 -9 -31 -9 -70z"/>
<path d="M8070 9280 c0 -5 8 -10 18 -10 15 0 19 -9 21 -50 2 -48 1 -50 -24
-50 -14 0 -25 -4 -25 -10 0 -5 25 -10 55 -10 30 0 55 5 55 10 0 6 -9 10 -20
10 -18 0 -20 7 -20 60 l0 60 -30 0 c-16 0 -30 -4 -30 -10z"/>
<path d="M8226 9275 c-10 -10 -14 -31 -12 -68 2 -28 -2 -58 -8 -66 -21 -27 36
-49 91 -35 54 15 32 64 -28 64 -28 0 -39 4 -39 15 0 10 10 15 28 15 34 0 52
16 52 47 0 13 5 23 10 23 6 0 10 5 10 10 0 16 -87 12 -104 -5z m67 -17 c7 -22
-4 -38 -28 -38 -27 0 -39 14 -31 35 7 18 53 20 59 3z m12 -123 c0 -12 -50 -19
-71 -11 -9 3 -12 11 -9 16 8 14 80 9 80 -5z"/>
<path d="M19634 9255 l27 -35 -27 -35 c-21 -28 -23 -35 -10 -35 9 0 16 3 16 8
0 4 7 16 16 27 14 19 15 19 38 -10 31 -39 45 -26 15 14 l-23 31 23 31 c29 39
17 53 -14 15 l-23 -29 -17 27 c-10 14 -24 26 -32 26 -11 0 -8 -9 11 -35z"/>
<path d="M19780 9280 c0 -5 9 -10 20 -10 17 0 20 -7 20 -50 0 -47 -2 -50 -25
-50 -14 0 -25 -4 -25 -10 0 -5 25 -10 55 -10 30 0 55 5 55 10 0 6 -9 10 -20
10 -18 0 -20 7 -20 60 l0 60 -30 0 c-16 0 -30 -4 -30 -10z"/>
<path d="M20220 8243 c0 -196 1 -203 20 -203 19 0 20 7 20 203 0 196 -1 203
-20 203 -19 0 -20 -7 -20 -203z"/>
<path d="M3220 8240 c0 -193 1 -200 20 -200 19 0 20 7 20 200 0 193 -1 200
-20 200 -19 0 -20 -7 -20 -200z"/>
<path d="M9220 6840 c0 -1593 0 -1600 20 -1600 20 0 20 7 20 1600 0 1593 0
1600 -20 1600 -20 0 -20 -7 -20 -1600z"/>
<path d="M5420 7860 c0 -53 4 -90 10 -90 6 0 10 30 11 68 l1 67 31 -67 c22
-46 38 -68 50 -68 15 0 17 11 17 90 0 68 -3 90 -13 90 -10 0 -13 -17 -11 -65
2 -36 0 -65 -4 -65 -4 0 -20 30 -36 65 -41 93 -56 86 -56 -25z"/>
<path d="M5592 7894 c-28 -20 -31 -83 -4 -107 52 -47 127 13 101 80 -17 46
-55 56 -97 27z m66 -16 c7 -7 12 -24 12 -38 0 -51 -52 -69 -72 -25 -22 49 25
98 60 63z"/>
<path d="M2060 7715 c0 -19 -5 -25 -23 -25 -12 0 -33 -7 -45 -16 -19 -13 -23
-23 -20 -61 4 -56 26 -75 60 -54 16 10 23 10 26 2 2 -6 8 -11 13 -11 5 0 9 43
9 95 0 57 -4 95 -10 95 -5 0 -10 -11 -10 -25z m0 -78 c0 -38 -30 -73 -55 -64
-10 4 -15 20 -15 46 0 40 8 49 48 50 19 1 22 -4 22 -32z"/>
<path d="M3380 7730 c0 -5 9 -10 20 -10 18 0 20 -7 20 -75 0 -73 -1 -75 -25
-75 -14 0 -25 -4 -25 -10 0 -5 25 -10 55 -10 30 0 55 5 55 10 0 6 -9 10 -20
10 -18 0 -20 7 -20 85 l0 85 -30 0 c-16 0 -30 -4 -30 -10z"/>
<path d="M3535 7730 c3 -5 13 -10 21 -10 11 0 14 -16 14 -75 0 -68 -2 -75 -20
-75 -11 0 -20 -4 -20 -10 0 -5 23 -10 50 -10 28 0 50 5 50 10 0 6 -9 10 -20
10 -18 0 -20 7 -20 85 l0 85 -31 0 c-17 0 -28 -4 -24 -10z"/>
<path d="M20420 7715 c0 -19 -5 -25 -23 -25 -12 0 -33 -7 -45 -16 -19 -13 -23
-23 -20 -61 4 -56 26 -75 60 -54 16 10 23 10 26 2 2 -6 8 -11 13 -11 5 0 9 43
9 95 0 57 -4 95 -10 95 -5 0 -10 -11 -10 -25z m0 -78 c0 -38 -30 -73 -55 -64
-10 4 -15 20 -15 46 0 40 8 49 48 50 19 1 22 -4 22 -32z"/>
<path d="M20030 7640 l0 -90 50 0 c28 0 50 5 50 10 0 6 -18 10 -40 10 -38 0
-40 2 -40 30 0 28 3 30 35 30 19 0 35 5 35 10 0 6 -16 10 -35 10 -32 0 -35 2
-35 30 0 28 2 30 40 30 22 0 40 5 40 10 0 6 -22 10 -50 10 l-50 0 0 -90z"/>
<path d="M1660 7620 c0 -40 4 -70 10 -70 6 0 10 20 10 44 0 48 21 79 49 74 12
-2 17 -17 19 -61 4 -75 22 -74 22 2 0 71 -16 91 -61 74 -16 -6 -29 -7 -29 -2
0 5 -4 9 -10 9 -6 0 -10 -30 -10 -70z"/>
<path d="M1830 7670 c-38 -38 -13 -120 38 -120 36 0 62 29 62 69 0 64 -57 94
-100 51z m68 -9 c19 -11 11 -71 -10 -85 -25 -15 -52 4 -56 38 -6 45 30 70 66
47z"/>
<path d="M2140 7670 c-53 -53 4 -141 74 -114 27 10 18 21 -14 16 -29 -4 -60
11 -60 29 0 5 23 9 50 9 43 0 50 3 50 20 0 26 -34 60 -60 60 -11 0 -29 -9 -40
-20z m70 -4 c0 -2 3 -11 6 -20 5 -13 -2 -16 -35 -16 -39 0 -41 1 -31 20 9 17
60 30 60 16z"/>
<path d="M3060 7620 c0 -40 4 -70 10 -70 6 0 10 19 10 43 0 50 18 81 46 75 16
-3 20 -13 22 -61 2 -31 7 -57 13 -57 6 0 9 25 7 61 -3 72 -22 94 -60 70 -16
-10 -23 -10 -26 -2 -2 6 -8 11 -13 11 -5 0 -9 -31 -9 -70z"/>
<path d="M3222 7629 c3 -72 22 -94 59 -71 18 12 23 12 30 0 5 -8 8 18 7 62 -1
52 -3 61 -5 29 -4 -51 -31 -86 -58 -76 -11 5 -15 21 -15 62 0 32 -4 55 -10 55
-7 0 -10 -23 -8 -61z"/>
<path d="M20180 7620 c0 -40 4 -70 10 -70 6 0 10 22 10 48 0 51 12 72 42 72
19 0 25 -18 31 -85 2 -25 4 -15 5 27 2 58 0 67 -18 73 -10 3 -28 1 -40 -5 -13
-7 -20 -7 -20 0 0 5 -4 10 -10 10 -6 0 -10 -30 -10 -70z"/>
<path d="M2440 7650 c0 -5 25 -10 55 -10 30 0 55 5 55 10 0 6 -25 10 -55 10
-30 0 -55 -4 -55 -10z"/>
<path d="M2600 7650 c0 -5 25 -10 55 -10 30 0 55 5 55 10 0 6 -25 10 -55 10
-30 0 -55 -4 -55 -10z"/>
<path d="M2750 7650 c0 -5 25 -10 55 -10 30 0 55 5 55 10 0 6 -25 10 -55 10
-30 0 -55 -4 -55 -10z"/>
<path d="M5265 7630 c-4 -7 60 -10 184 -10 l191 0 0 -990 0 -990 -1190 0
-1190 0 0 200 c0 193 -1 200 -20 200 -20 0 -20 -7 -20 -400 0 -393 0 -400 20
-400 19 0 20 7 20 190 l0 190 1200 0 1200 0 0 1010 0 1010 -194 0 c-119 0
-197 -4 -201 -10z"/>
<path d="M2440 7600 c0 -5 25 -10 55 -10 30 0 55 5 55 10 0 6 -25 10 -55 10
-30 0 -55 -4 -55 -10z"/>
<path d="M2600 7600 c0 -5 25 -10 55 -10 30 0 55 5 55 10 0 6 -25 10 -55 10
-30 0 -55 -4 -55 -10z"/>
<path d="M2750 7600 c0 -5 25 -10 55 -10 30 0 55 5 55 10 0 6 -25 10 -55 10
-30 0 -55 -4 -55 -10z"/>
<path d="M3220 7040 c0 -193 1 -200 20 -200 19 0 20 7 20 200 0 193 -1 200
-20 200 -19 0 -20 -7 -20 -200z"/>
<path d="M2659 7093 c17 -31 31 -72 31 -90 0 -23 5 -33 15 -33 10 0 15 10 15
30 0 17 14 57 30 90 21 41 26 60 17 60 -7 0 -23 -21 -36 -47 l-23 -48 -24 48
c-14 26 -31 47 -40 47 -12 0 -9 -12 15 -57z"/>
<path d="M2820 7090 c-45 -45 -10 -124 52 -118 45 4 45 23 1 23 -28 0 -38 5
-41 18 -3 14 4 17 42 17 42 0 46 2 46 23 0 51 -63 74 -100 37z m70 -20 c10
-18 8 -20 -25 -20 -22 0 -35 5 -35 13 0 33 44 37 60 7z"/>
<path d="M2976 7097 c-27 -20 -12 -53 30 -67 44 -15 39 -35 -9 -35 -23 0 -37
-5 -37 -12 0 -22 74 -16 95 7 21 23 11 41 -35 60 -42 17 -39 40 6 40 21 0 33
4 29 10 -9 14 -58 12 -79 -3z"/>
<path d="M2860 6530 c0 -5 9 -10 20 -10 18 0 20 -7 20 -75 0 -73 -1 -75 -25
-75 -14 0 -25 -4 -25 -10 0 -5 25 -10 55 -10 30 0 55 5 55 10 0 6 -9 10 -20
10 -18 0 -20 7 -20 85 l0 85 -30 0 c-16 0 -30 -4 -30 -10z"/>
<path d="M3015 6530 c3 -5 13 -10 21 -10 11 0 14 -16 14 -75 0 -68 -2 -75 -20
-75 -11 0 -20 -4 -20 -10 0 -5 23 -10 50 -10 28 0 50 5 50 10 0 6 -9 10 -20
10 -18 0 -20 7 -20 85 l0 85 -31 0 c-17 0 -28 -4 -24 -10z"/>
<path d="M1800 6505 c0 -8 -9 -15 -20 -15 -11 0 -20 -4 -20 -10 0 -5 9 -10 20
-10 17 0 20 -7 20 -48 0 -55 12 -72 52 -72 36 0 37 18 1 22 -26 3 -28 7 -31
51 -3 46 -3 47 27 47 17 0 31 5 31 10 0 6 -13 10 -30 10 -20 0 -30 5 -30 15 0
8 -4 15 -10 15 -5 0 -10 -7 -10 -15z"/>
<path d="M1470 6420 c0 -40 4 -70 10 -70 6 0 10 22 10 48 0 26 5 53 12 60 17
17 45 15 57 -5 14 -25 25 -9 11 16 -12 23 -31 26 -61 11 -13 -7 -19 -7 -19 0
0 5 -4 10 -10 10 -6 0 -10 -30 -10 -70z"/>
<path d="M1638 6473 c-54 -62 -5 -149 65 -115 20 10 18 11 -15 11 -27 1 -40 7
-48 21 -10 19 -8 20 40 20 46 0 50 2 50 24 0 26 -33 56 -61 56 -9 0 -23 -8
-31 -17z m70 -25 c3 -15 -4 -18 -38 -18 -38 0 -40 1 -30 21 14 25 63 23 68 -3z"/>
<path d="M1932 6429 c3 -72 22 -94 59 -71 18 12 23 12 30 0 5 -8 9 16 9 60 0
41 -4 72 -10 72 -5 0 -10 -22 -10 -48 0 -51 -12 -72 -42 -72 -15 0 -18 9 -18
60 0 35 -4 60 -10 60 -7 0 -10 -23 -8 -61z"/>
<path d="M2080 6420 c0 -40 4 -70 10 -70 6 0 10 20 10 43 0 30 6 49 18 60 23
21 52 22 52 2 0 -8 5 -15 10 -15 15 0 12 26 -5 40 -12 10 -21 10 -43 1 -18 -9
-28 -9 -30 -2 -2 6 -8 11 -13 11 -5 0 -9 -31 -9 -70z"/>
<path d="M2230 6420 c0 -40 4 -70 10 -70 6 0 10 19 10 43 0 50 18 81 46 75 16
-3 20 -13 22 -61 2 -31 7 -57 13 -57 6 0 9 25 7 61 -3 72 -22 94 -60 70 -16
-10 -23 -10 -26 -2 -2 6 -8 11 -13 11 -5 0 -9 -31 -9 -70z"/>
<path d="M2540 6420 c0 -40 4 -70 10 -70 6 0 10 19 10 43 0 50 18 81 46 75 16
-3 20 -13 22 -61 2 -31 7 -57 13 -57 6 0 9 25 7 61 -3 72 -22 94 -60 70 -16
-10 -23 -10 -26 -2 -2 6 -8 11 -13 11 -5 0 -9 -31 -9 -70z"/>
<path d="M2702 6429 c3 -72 22 -94 59 -71 18 12 23 12 30 0 5 -8 8 18 7 62 -1
52 -3 61 -5 29 -4 -51 -31 -86 -58 -76 -11 5 -15 21 -15 62 0 32 -4 55 -10 55
-7 0 -10 -23 -8 -61z"/>
<path d="M5420 5060 c0 -53 4 -90 10 -90 6 0 10 31 10 73 l1 72 32 -72 c22
-52 36 -73 49 -73 16 0 18 10 18 90 0 66 -3 90 -13 90 -9 0 -12 -18 -10 -65 1
-36 -1 -65 -5 -65 -4 0 -20 30 -36 65 -41 93 -56 86 -56 -25z"/>
<path d="M12220 5060 c0 -53 4 -90 10 -90 6 0 10 31 10 73 l1 72 32 -72 c22
-52 36 -73 49 -73 16 0 18 10 18 90 0 66 -3 90 -13 90 -9 0 -12 -18 -10 -65 1
-36 -1 -65 -5 -65 -4 0 -20 30 -36 65 -41 93 -56 86 -56 -25z"/>
<path d="M5592 5094 c-28 -20 -31 -83 -4 -107 52 -47 127 13 101 80 -17 46
-55 56 -97 27z m66 -16 c7 -7 12 -24 12 -38 0 -51 -52 -69 -72 -25 -22 49 25
98 60 63z"/>
<path d="M12392 5094 c-28 -20 -31 -83 -4 -107 52 -47 127 13 101 80 -17 46
-55 56 -97 27z m66 -16 c7 -7 12 -24 12 -38 0 -51 -52 -69 -72 -25 -22 49 25
98 60 63z"/>
<path d="M1980 4930 c0 -5 9 -10 20 -10 18 0 20 -7 20 -75 0 -73 -1 -75 -25
-75 -14 0 -25 -4 -25 -10 0 -5 25 -10 55 -10 30 0 55 5 55 10 0 6 -9 10 -20
10 -18 0 -20 7 -20 85 l0 85 -30 0 c-16 0 -30 -4 -30 -10z"/>
<path d="M3600 4915 c0 -20 -5 -25 -24 -25 -41 0 -70 -32 -68 -75 2 -58 38
-84 71 -52 11 10 14 10 18 0 13 -37 23 -2 23 82 0 57 -4 95 -10 95 -5 0 -10
-11 -10 -25z m0 -78 c0 -38 -30 -73 -55 -64 -10 4 -15 20 -15 46 0 40 8 49 48
50 19 1 22 -4 22 -32z"/>
<path d="M4300 4930 c0 -5 9 -10 20 -10 18 0 20 -7 20 -75 0 -73 -1 -75 -25
-75 -14 0 -25 -4 -25 -10 0 -5 25 -10 55 -10 30 0 55 5 55 10 0 6 -9 10 -20
10 -18 0 -20 7 -20 85 l0 85 -30 0 c-16 0 -30 -4 -30 -10z"/>
<path d="M7180 4930 c0 -5 9 -10 20 -10 18 0 20 -7 20 -75 0 -73 -1 -75 -25
-75 -14 0 -25 -4 -25 -10 0 -5 25 -10 55 -10 30 0 55 5 55 10 0 6 -9 10 -20
10 -18 0 -20 7 -20 85 l0 85 -30 0 c-16 0 -30 -4 -30 -10z"/>
<path d="M8500 4915 c0 -19 -5 -25 -23 -25 -12 0 -33 -7 -45 -16 -19 -13 -23
-23 -20 -61 4 -56 26 -75 60 -54 16 10 23 10 26 2 2 -6 8 -11 13 -11 5 0 9 43
9 95 0 57 -4 95 -10 95 -5 0 -10 -11 -10 -25z m0 -78 c0 -38 -30 -73 -55 -64
-10 4 -15 20 -15 46 0 40 8 49 48 50 19 1 22 -4 22 -32z"/>
<path d="M9200 4930 c0 -5 9 -10 20 -10 18 0 20 -7 20 -75 0 -73 -1 -75 -25
-75 -14 0 -25 -4 -25 -10 0 -5 25 -10 55 -10 30 0 55 5 55 10 0 6 -9 10 -20
10 -18 0 -20 7 -20 85 l0 85 -30 0 c-16 0 -30 -4 -30 -10z"/>
<path d="M1675 4825 c14 -36 25 -68 25 -70 0 -3 6 -5 14 -5 13 0 71 129 62
138 -10 10 -24 -11 -36 -53 -7 -25 -16 -47 -20 -50 -4 -2 -15 20 -26 50 -10
30 -24 55 -31 55 -8 0 -5 -20 12 -65z"/>
<path d="M1835 4881 c-3 -5 9 -11 27 -13 38 -4 55 -38 18 -38 -35 0 -60 -19
-60 -45 0 -26 3 -28 62 -29 l38 -1 0 56 c0 30 -5 60 -12 67 -14 14 -64 16 -73
3z m65 -86 c0 -15 -46 -32 -57 -22 -3 4 -3 13 0 22 8 20 57 20 57 0z"/>
<path d="M2132 4829 c3 -70 22 -94 57 -72 14 9 21 9 30 0 8 -8 11 8 11 61 0
41 -4 72 -10 72 -5 0 -10 -22 -10 -49 0 -51 -18 -78 -45 -67 -11 4 -15 21 -15
61 0 32 -4 55 -10 55 -7 0 -10 -23 -8 -61z"/>
<path d="M2291 4864 c-24 -30 -25 -42 -11 -78 11 -29 47 -42 82 -30 20 7 18 9
-17 14 -27 3 -41 10 -43 23 -3 14 4 17 42 17 42 0 46 2 46 23 0 29 -29 57 -58
57 -11 0 -30 -12 -41 -26z m69 2 c0 -2 3 -11 6 -20 5 -13 -2 -16 -35 -16 -39
0 -41 1 -31 20 9 17 60 30 60 16z"/>
<path d="M3200 4820 c0 -40 4 -70 10 -70 6 0 10 20 10 44 0 48 21 79 49 74 12
-2 17 -17 19 -61 4 -75 22 -74 22 2 0 71 -16 91 -61 74 -16 -6 -29 -7 -29 -2
0 5 -4 9 -10 9 -6 0 -10 -30 -10 -70z"/>
<path d="M3370 4870 c-38 -38 -13 -120 38 -120 36 0 62 29 62 69 0 64 -57 94
-100 51z m68 -9 c19 -11 11 -71 -10 -85 -25 -15 -52 4 -56 38 -6 45 30 70 66
47z"/>
<path d="M3680 4870 c-53 -53 4 -141 74 -114 27 10 18 21 -14 16 -29 -4 -60
11 -60 29 0 5 23 9 50 9 43 0 50 3 50 20 0 11 -9 29 -20 40 -11 11 -29 20 -40
20 -11 0 -29 -9 -40 -20z m68 -12 c21 -21 13 -28 -28 -28 -38 0 -40 2 -30 20
12 22 40 26 58 8z"/>
<path d="M3995 4825 c14 -36 25 -68 25 -70 0 -3 6 -5 14 -5 13 0 71 129 62
138 -10 10 -24 -11 -36 -53 -7 -25 -16 -47 -20 -50 -4 -2 -15 20 -26 50 -10
30 -24 55 -31 55 -8 0 -5 -20 12 -65z"/>
<path d="M4155 4881 c-3 -5 9 -11 27 -13 38 -4 55 -38 18 -38 -35 0 -60 -19
-60 -45 0 -26 3 -28 62 -29 l38 -1 0 56 c0 30 -5 60 -12 67 -14 14 -64 16 -73
3z m65 -86 c0 -15 -46 -32 -57 -22 -3 4 -3 13 0 22 8 20 57 20 57 0z"/>
<path d="M4452 4829 c3 -70 22 -94 57 -72 14 9 21 9 30 0 8 -8 11 8 11 61 0
41 -4 72 -10 72 -5 0 -10 -22 -10 -49 0 -51 -18 -78 -45 -67 -11 4 -15 21 -15
61 0 32 -4 55 -10 55 -7 0 -10 -23 -8 -61z"/>
<path d="M4611 4864 c-24 -30 -25 -42 -11 -78 11 -29 47 -42 82 -30 20 7 18 9
-17 14 -27 3 -41 10 -43 23 -3 14 4 17 42 17 42 0 46 2 46 23 0 29 -29 57 -58
57 -11 0 -30 -12 -41 -26z m69 2 c0 -2 3 -11 6 -20 5 -13 -2 -16 -35 -16 -39
0 -41 1 -31 20 9 17 60 30 60 16z"/>
<path d="M6875 4825 c14 -36 25 -68 25 -70 0 -3 6 -5 14 -5 13 0 71 129 62
138 -10 10 -24 -11 -36 -53 -7 -25 -16 -47 -20 -50 -4 -2 -15 20 -26 50 -10
30 -24 55 -31 55 -8 0 -5 -20 12 -65z"/>
<path d="M7035 4881 c-3 -5 9 -11 27 -13 38 -4 55 -38 18 -38 -35 0 -60 -19
-60 -45 0 -26 3 -28 62 -29 l38 -1 0 56 c0 30 -5 60 -12 67 -14 14 -64 16 -73
3z m65 -86 c0 -15 -46 -32 -57 -22 -3 4 -3 13 0 22 8 20 57 20 57 0z"/>
<path d="M7332 4829 c3 -70 22 -94 57 -72 14 9 21 9 30 0 8 -8 11 8 11 61 0
41 -4 72 -10 72 -5 0 -10 -22 -10 -49 0 -51 -18 -78 -45 -67 -11 4 -15 21 -15
61 0 32 -4 55 -10 55 -7 0 -10 -23 -8 -61z"/>
<path d="M7491 4864 c-24 -30 -25 -42 -11 -78 11 -29 47 -42 82 -30 20 7 18 9
-17 14 -27 3 -41 10 -43 23 -3 14 4 17 42 17 42 0 46 2 46 23 0 29 -29 57 -58
57 -11 0 -30 -12 -41 -26z m69 2 c0 -2 3 -11 6 -20 5 -13 -2 -16 -35 -16 -39
0 -41 1 -31 20 9 17 60 30 60 16z"/>
<path d="M7824 4858 l-37 -32 38 -33 c21 -18 43 -33 49 -33 6 0 -7 14 -28 32
l-39 32 39 33 c21 18 34 33 27 33 -7 0 -29 -14 -49 -32z"/>
<path d="M8100 4820 c0 -40 4 -70 10 -70 6 0 10 20 10 44 0 48 21 79 49 74 12
-2 17 -17 19 -61 4 -75 22 -74 22 2 0 71 -16 91 -61 74 -16 -6 -29 -7 -29 -2
0 5 -4 9 -10 9 -6 0 -10 -30 -10 -70z"/>
<path d="M8270 4870 c-38 -38 -13 -120 38 -120 36 0 62 29 62 69 0 64 -57 94
-100 51z m68 -9 c19 -11 11 -71 -10 -85 -25 -15 -52 4 -56 38 -6 45 30 70 66
47z"/>
<path d="M8580 4870 c-53 -53 4 -141 74 -114 27 10 18 21 -14 16 -29 -4 -60
11 -60 29 0 5 23 9 50 9 43 0 50 3 50 20 0 26 -34 60 -60 60 -11 0 -29 -9 -40
-20z m70 -4 c0 -2 3 -11 6 -20 5 -13 -2 -16 -35 -16 -39 0 -41 1 -31 20 9 17
60 30 60 16z"/>
<path d="M8895 4825 c14 -36 25 -68 25 -70 0 -3 6 -5 14 -5 13 0 71 129 62
138 -10 10 -24 -11 -36 -53 -7 -25 -16 -47 -20 -50 -4 -2 -15 20 -26 50 -10
30 -24 55 -31 55 -8 0 -5 -20 12 -65z"/>
<path d="M9055 4881 c-3 -5 9 -11 27 -13 38 -4 55 -38 18 -38 -35 0 -60 -19
-60 -45 0 -27 19 -35 70 -31 l35 3 -3 53 c-1 30 -7 59 -13 67 -13 15 -65 18
-74 4z m65 -86 c0 -15 -46 -32 -57 -22 -3 4 -3 13 0 22 8 20 57 20 57 0z"/>
<path d="M9352 4829 c3 -70 22 -94 57 -72 14 9 21 9 30 0 8 -8 11 8 11 61 0
41 -4 72 -10 72 -5 0 -10 -22 -10 -49 0 -51 -18 -78 -45 -67 -11 4 -15 21 -15
61 0 32 -4 55 -10 55 -7 0 -10 -23 -8 -61z"/>
<path d="M9510 4863 c-48 -61 17 -144 80 -103 11 7 6 10 -22 10 -27 0 -40 6
-48 20 -10 19 -8 20 40 20 46 0 50 2 50 23 0 29 -29 57 -58 57 -11 0 -30 -12
-42 -27z m70 3 c0 -2 3 -11 6 -20 5 -13 -2 -16 -35 -16 -39 0 -41 1 -31 20 9
17 60 30 60 16z"/>
<path d="M2580 4850 c0 -5 25 -10 55 -10 30 0 55 5 55 10 0 6 -25 10 -55 10
-30 0 -55 -4 -55 -10z"/>
<path d="M2740 4850 c0 -5 25 -10 55 -10 30 0 55 5 55 10 0 6 -25 10 -55 10
-30 0 -55 -4 -55 -10z"/>
<path d="M2890 4850 c0 -5 25 -10 55 -10 30 0 55 5 55 10 0 6 -25 10 -55 10
-30 0 -55 -4 -55 -10z"/>
<path d="M5265 4830 c-4 -7 60 -10 184 -10 l191 0 0 -990 0 -990 -1190 0
-1190 0 0 200 c0 193 -1 200 -20 200 -20 0 -20 -7 -20 -400 0 -393 0 -400 20
-400 19 0 20 7 20 190 l0 190 1200 0 1200 0 0 1010 0 1010 -194 0 c-119 0
-197 -4 -201 -10z"/>
<path d="M12065 4830 c-4 -7 560 -10 1684 -10 l1691 0 0 -390 c0 -253 4 -390
10 -390 7 0 10 140 10 400 l0 400 -1694 0 c-1119 0 -1697 -3 -1701 -10z"/>
<path d="M2580 4800 c0 -5 25 -10 55 -10 30 0 55 5 55 10 0 6 -25 10 -55 10
-30 0 -55 -4 -55 -10z"/>
<path d="M2740 4800 c0 -5 25 -10 55 -10 30 0 55 5 55 10 0 6 -25 10 -55 10
-30 0 -55 -4 -55 -10z"/>
<path d="M2890 4800 c0 -5 25 -10 55 -10 30 0 55 5 55 10 0 6 -25 10 -55 10
-30 0 -55 -4 -55 -10z"/>
<path d="M3862 4774 c4 -21 22 -23 26 -1 2 10 -3 17 -13 17 -10 0 -15 -6 -13
-16z"/>
<path d="M8762 4774 c4 -21 22 -23 26 -1 2 10 -3 17 -13 17 -10 0 -15 -6 -13
-16z"/>
<path d="M3220 4240 c0 -193 1 -200 20 -200 19 0 20 7 20 200 0 193 -1 200
-20 200 -19 0 -20 -7 -20 -200z"/>
<path d="M9220 4240 c0 -193 1 -200 20 -200 19 0 20 7 20 200 0 193 -1 200
-20 200 -19 0 -20 -7 -20 -200z"/>
<path d="M2659 4293 c17 -31 31 -72 31 -90 0 -23 5 -33 15 -33 10 0 15 10 15
30 0 17 14 57 30 90 21 41 26 60 17 60 -7 0 -23 -21 -36 -47 l-23 -48 -24 48
c-14 26 -31 47 -40 47 -12 0 -9 -12 15 -57z"/>
<path d="M8659 4293 c17 -31 31 -72 31 -90 0 -23 5 -33 15 -33 10 0 15 10 15
30 0 17 14 57 30 90 21 41 26 60 17 60 -7 0 -23 -21 -36 -47 l-23 -48 -24 48
c-14 26 -31 47 -40 47 -12 0 -9 -12 15 -57z"/>
<path d="M2820 4290 c-45 -45 -10 -124 52 -118 45 4 45 23 1 23 -28 0 -38 5
-41 18 -3 14 4 17 42 17 42 0 46 2 46 23 0 51 -63 74 -100 37z m70 -20 c10
-18 8 -20 -25 -20 -22 0 -35 5 -35 13 0 33 44 37 60 7z"/>
<path d="M2976 4297 c-27 -20 -12 -53 30 -67 44 -15 39 -35 -9 -35 -23 0 -37
-5 -37 -12 0 -8 15 -13 39 -13 30 0 44 6 55 22 18 26 10 40 -34 58 -42 17 -39
40 6 40 21 0 33 4 29 10 -9 14 -58 12 -79 -3z"/>
<path d="M8820 4290 c-45 -45 -10 -124 52 -118 45 4 45 23 1 23 -28 0 -38 5
-41 18 -3 14 4 17 42 17 42 0 46 2 46 23 0 51 -63 74 -100 37z m70 -20 c10
-18 8 -20 -25 -20 -22 0 -35 5 -35 13 0 33 44 37 60 7z"/>
<path d="M8976 4297 c-27 -20 -12 -53 30 -67 44 -15 39 -35 -9 -35 -23 0 -37
-5 -37 -12 0 -8 15 -13 39 -13 30 0 44 6 55 22 18 26 10 40 -34 58 -42 17 -39
40 6 40 21 0 33 4 29 10 -9 14 -58 12 -79 -3z"/>
<path d="M2940 3715 c0 -19 -5 -25 -23 -25 -12 0 -33 -7 -45 -16 -19 -13 -23
-23 -20 -61 4 -56 26 -75 60 -54 16 10 23 10 26 2 2 -6 8 -11 13 -11 5 0 9 43
9 95 0 57 -4 95 -10 95 -5 0 -10 -11 -10 -25z m0 -78 c0 -38 -30 -73 -55 -64
-10 4 -15 20 -15 46 0 40 8 49 48 50 19 1 22 -4 22 -32z"/>
<path d="M7798 3729 c-10 -5 -18 -21 -18 -34 0 -20 -5 -25 -25 -25 -14 0 -25
-4 -25 -10 0 -5 11 -10 25 -10 23 0 25 -3 25 -50 0 -27 5 -50 10 -50 6 0 10
23 10 50 0 49 1 50 30 50 17 0 30 5 30 10 0 6 -14 10 -31 10 -26 0 -30 3 -27
23 2 16 11 23 31 25 15 2 27 8 27 13 0 12 -40 11 -62 -2z"/>
<path d="M7940 3724 c0 -17 22 -14 28 4 2 7 -3 12 -12 12 -9 0 -16 -7 -16 -16z"/>
<path d="M8290 3715 c0 -20 -5 -25 -25 -25 -57 0 -88 -86 -45 -125 17 -15 24
-16 47 -6 21 10 28 9 34 -1 5 -7 9 29 9 85 0 58 -4 97 -10 97 -5 0 -10 -11
-10 -25z m0 -83 c0 -41 -14 -62 -41 -62 -18 0 -29 19 -29 54 0 28 18 46 47 46
20 0 23 -5 23 -38z"/>
<path d="M8750 3715 c0 -20 -5 -25 -25 -25 -57 0 -88 -86 -45 -125 17 -15 24
-16 47 -6 21 10 28 9 34 -1 5 -7 9 29 9 85 0 58 -4 97 -10 97 -5 0 -10 -11
-10 -25z m0 -83 c0 -41 -14 -62 -41 -62 -18 0 -29 19 -29 54 0 28 18 46 47 46
20 0 23 -5 23 -38z"/>
<path d="M9033 3707 c-30 -44 -31 -117 -2 -163 30 -49 42 -42 14 9 -14 23 -25
56 -25 72 0 17 11 49 25 73 28 50 20 56 -12 9z"/>
<path d="M9540 3715 c0 -19 -5 -25 -23 -25 -12 0 -33 -7 -45 -16 -19 -13 -23
-23 -20 -61 4 -56 26 -75 60 -54 16 10 23 10 26 2 2 -6 8 -11 13 -11 5 0 9 43
9 95 0 57 -4 95 -10 95 -5 0 -10 -11 -10 -25z m0 -78 c0 -38 -30 -73 -55 -64
-10 4 -15 20 -15 46 0 40 8 49 48 50 19 1 22 -4 22 -32z"/>
<path d="M9930 3730 c0 -5 9 -10 20 -10 18 0 20 -7 20 -75 0 -68 -2 -75 -20
-75 -11 0 -20 -4 -20 -10 0 -5 23 -10 50 -10 28 0 50 5 50 10 0 6 -9 10 -20
10 -18 0 -20 7 -20 85 l0 85 -30 0 c-16 0 -30 -4 -30 -10z"/>
<path d="M10282 3728 c-7 -7 -12 -22 -12 -35 0 -18 -6 -23 -25 -23 -14 0 -25
-4 -25 -10 0 -5 11 -10 25 -10 23 0 25 -3 25 -50 0 -27 5 -50 10 -50 6 0 10
23 10 50 0 49 1 50 30 50 17 0 30 5 30 10 0 6 -14 10 -31 10 -26 0 -30 3 -27
23 2 16 11 23 31 25 15 2 27 8 27 13 0 13 -54 11 -68 -3z"/>
<path d="M11180 3730 c0 -5 9 -10 20 -10 18 0 20 -7 20 -75 0 -73 -1 -75 -25
-75 -14 0 -25 -4 -25 -10 0 -5 25 -10 55 -10 30 0 55 5 55 10 0 6 -9 10 -20
10 -18 0 -20 7 -20 85 l0 85 -30 0 c-16 0 -30 -4 -30 -10z"/>
<path d="M11665 3704 c17 -25 25 -51 25 -79 0 -28 -8 -54 -25 -79 -30 -45 -15
-48 17 -3 17 23 23 46 23 82 0 36 -6 59 -23 83 -32 44 -47 41 -17 -4z"/>
<path d="M13798 3729 c-10 -5 -18 -21 -18 -34 0 -20 -5 -25 -25 -25 -14 0 -25
-4 -25 -10 0 -5 11 -10 25 -10 23 0 25 -3 25 -50 0 -27 5 -50 10 -50 6 0 10
23 10 50 0 49 1 50 30 50 17 0 30 5 30 10 0 6 -14 10 -31 10 -26 0 -30 3 -27
23 2 16 11 23 31 25 15 2 27 8 27 13 0 12 -40 11 -62 -2z"/>
<path d="M13940 3724 c0 -17 22 -14 28 4 2 7 -3 12 -12 12 -9 0 -16 -7 -16
-16z"/>
<path d="M14290 3715 c0 -20 -5 -25 -25 -25 -57 0 -88 -86 -45 -125 17 -15 24
-16 47 -6 21 10 28 9 34 -1 5 -7 9 29 9 85 0 58 -4 97 -10 97 -5 0 -10 -11
-10 -25z m0 -83 c0 -41 -14 -62 -41 -62 -18 0 -29 19 -29 54 0 28 18 46 47 46
20 0 23 -5 23 -38z"/>
<path d="M14750 3715 c0 -20 -5 -25 -25 -25 -57 0 -88 -86 -45 -125 17 -15 24
-16 47 -6 21 10 28 9 34 -1 5 -7 9 29 9 85 0 58 -4 97 -10 97 -5 0 -10 -11
-10 -25z m0 -83 c0 -41 -14 -62 -41 -62 -18 0 -29 19 -29 54 0 28 18 46 47 46
20 0 23 -5 23 -38z"/>
<path d="M15033 3707 c-30 -44 -31 -117 -2 -163 30 -49 42 -42 14 9 -14 23
-25 56 -25 72 0 17 11 49 25 73 28 50 20 56 -12 9z"/>
<path d="M15540 3715 c0 -19 -5 -25 -23 -25 -12 0 -33 -7 -45 -16 -19 -13 -23
-23 -20 -61 4 -56 26 -75 60 -54 16 10 23 10 26 2 2 -6 8 -11 13 -11 5 0 9 43
9 95 0 57 -4 95 -10 95 -5 0 -10 -11 -10 -25z m0 -78 c0 -38 -30 -73 -55 -64
-10 4 -15 20 -15 46 0 40 8 49 48 50 19 1 22 -4 22 -32z"/>
<path d="M16120 3724 c0 -17 22 -14 28 4 2 7 -3 12 -12 12 -9 0 -16 -7 -16
-16z"/>
<path d="M16390 3645 c0 -57 4 -95 10 -95 6 0 10 22 10 49 0 51 18 78 45 67
11 -4 15 -21 15 -61 0 -32 4 -55 10 -55 7 0 10 23 8 61 -3 71 -22 94 -58 71
-19 -11 -20 -10 -20 23 0 19 -4 35 -10 35 -6 0 -10 -38 -10 -95z"/>
<path d="M17320 3730 c0 -5 9 -10 20 -10 18 0 20 -7 20 -75 0 -73 -1 -75 -25
-75 -14 0 -25 -4 -25 -10 0 -5 25 -10 55 -10 30 0 55 5 55 10 0 6 -9 10 -20
10 -18 0 -20 7 -20 85 l0 85 -30 0 c-16 0 -30 -4 -30 -10z"/>
<path d="M17805 3704 c17 -25 25 -51 25 -79 0 -28 -8 -54 -25 -79 -30 -45 -15
-48 17 -3 17 23 23 46 23 82 0 36 -6 59 -23 83 -32 44 -47 41 -17 -4z"/>
<path d="M8350 3640 c0 -108 18 -122 22 -17 l3 72 34 -72 c47 -101 61 -97 61
17 0 53 -4 90 -10 90 -6 0 -10 -31 -11 -72 l0 -73 -34 73 c-48 103 -65 98 -65
-18z"/>
<path d="M10415 3713 c-4 -13 -16 -23 -26 -23 -11 0 -19 -4 -19 -10 0 -5 9
-10 20 -10 17 0 20 -7 20 -44 0 -27 6 -51 16 -60 17 -18 64 -22 64 -6 0 6 -11
10 -24 10 -27 0 -36 16 -36 66 0 31 3 34 30 34 17 0 30 5 30 10 0 6 -13 10
-29 10 -23 0 -31 5 -34 23 l-4 22 -8 -22z"/>
<path d="M14350 3640 c0 -108 18 -122 22 -17 l3 72 34 -72 c47 -101 61 -97 61
17 0 53 -4 90 -10 90 -6 0 -10 -31 -11 -72 l0 -73 -34 73 c-48 103 -65 98 -65
-18z"/>
<path d="M16565 3713 c-4 -13 -14 -23 -21 -23 -8 0 -14 -4 -14 -10 0 -5 6 -10
14 -10 9 0 15 -17 18 -51 3 -28 12 -55 19 -60 19 -12 69 -11 69 1 0 6 -13 10
-29 10 -32 0 -41 14 -41 66 0 32 2 34 35 34 19 0 35 5 35 10 0 6 -15 10 -34
10 -28 0 -35 4 -39 23 l-4 22 -8 -22z"/>
<path d="M1800 3705 c0 -8 -9 -15 -20 -15 -11 0 -20 -4 -20 -10 0 -5 9 -10 20
-10 17 0 20 -7 20 -48 0 -55 12 -72 52 -72 36 0 37 18 1 22 -26 3 -28 7 -31
51 -3 46 -3 47 27 47 17 0 31 5 31 10 0 6 -13 10 -30 10 -20 0 -30 5 -30 15 0
8 -4 15 -10 15 -5 0 -10 -7 -10 -15z"/>
<path d="M7000 3705 c0 -8 -9 -15 -20 -15 -11 0 -20 -4 -20 -10 0 -5 9 -10 20
-10 17 0 20 -7 20 -48 0 -55 12 -72 52 -72 36 0 37 18 1 22 -26 3 -28 7 -31
51 -3 46 -3 47 27 47 17 0 31 5 31 10 0 6 -13 10 -30 10 -20 0 -30 5 -30 15 0
8 -4 15 -10 15 -5 0 -10 -7 -10 -15z"/>
<path d="M13000 3705 c0 -8 -9 -15 -20 -15 -11 0 -20 -4 -20 -10 0 -5 9 -10
20 -10 17 0 20 -7 20 -48 0 -55 12 -72 52 -72 36 0 37 18 1 22 -26 3 -28 7
-31 51 -3 46 -3 47 27 47 17 0 31 5 31 10 0 6 -13 10 -30 10 -20 0 -30 5 -30
15 0 8 -4 15 -10 15 -5 0 -10 -7 -10 -15z"/>
<path d="M1470 3620 c0 -40 4 -70 10 -70 6 0 10 22 10 48 0 26 5 53 12 60 17
17 45 15 57 -5 14 -25 25 -9 11 16 -12 23 -31 26 -61 11 -13 -7 -19 -7 -19 0
0 5 -4 10 -10 10 -6 0 -10 -30 -10 -70z"/>
<path d="M1638 3673 c-54 -62 -5 -149 65 -115 20 10 18 11 -15 11 -27 1 -40 7
-48 21 -10 19 -8 20 40 20 46 0 50 2 50 24 0 26 -33 56 -61 56 -9 0 -23 -8
-31 -17z m70 -25 c3 -15 -4 -18 -38 -18 -38 0 -40 1 -30 21 14 25 63 23 68 -3z"/>
<path d="M1932 3629 c3 -72 22 -94 59 -71 18 12 23 12 30 0 5 -8 9 16 9 60 0
41 -4 72 -10 72 -5 0 -10 -22 -10 -48 0 -51 -12 -72 -42 -72 -15 0 -18 9 -18
60 0 35 -4 60 -10 60 -7 0 -10 -23 -8 -61z"/>
<path d="M2080 3620 c0 -40 4 -70 10 -70 6 0 10 20 10 43 0 30 6 49 18 60 23
21 52 22 52 2 0 -8 5 -15 10 -15 15 0 12 26 -5 40 -12 10 -21 10 -43 1 -18 -9
-28 -9 -30 -2 -2 6 -8 11 -13 11 -5 0 -9 -31 -9 -70z"/>
<path d="M2230 3620 c0 -40 4 -70 10 -70 6 0 10 19 10 43 0 50 18 81 46 75 16
-3 20 -13 22 -61 2 -31 7 -57 13 -57 6 0 9 25 7 61 -3 72 -22 94 -60 70 -16
-10 -23 -10 -26 -2 -2 6 -8 11 -13 11 -5 0 -9 -31 -9 -70z"/>
<path d="M2540 3620 c0 -40 4 -70 10 -70 6 0 10 20 10 44 0 48 21 79 49 74 12
-2 17 -17 19 -61 4 -75 22 -74 22 2 0 71 -16 91 -61 74 -16 -6 -29 -7 -29 -2
0 5 -4 9 -10 9 -6 0 -10 -30 -10 -70z"/>
<path d="M2710 3670 c-38 -38 -13 -120 38 -120 36 0 62 29 62 69 0 64 -57 94
-100 51z m68 -9 c19 -11 11 -71 -10 -85 -25 -15 -52 4 -56 38 -6 45 30 70 66
47z"/>
<path d="M3020 3670 c-53 -53 4 -141 74 -114 27 10 18 21 -14 16 -29 -4 -60
11 -60 29 0 5 23 9 50 9 43 0 50 3 50 20 0 11 -9 29 -20 40 -11 11 -29 20 -40
20 -11 0 -29 -9 -40 -20z m70 -4 c0 -2 3 -11 6 -20 5 -13 -2 -16 -35 -16 -39
0 -41 1 -31 20 9 17 60 30 60 16z"/>
<path d="M6670 3620 c0 -40 4 -70 10 -70 6 0 10 22 10 48 0 26 5 53 12 60 17
17 45 15 57 -5 14 -25 25 -9 11 16 -12 23 -31 26 -61 11 -13 -7 -19 -7 -19 0
0 5 -4 10 -10 10 -6 0 -10 -30 -10 -70z"/>
<path d="M6838 3673 c-54 -62 -5 -149 65 -115 20 10 18 11 -15 11 -27 1 -40 7
-48 21 -10 19 -8 20 40 20 46 0 50 2 50 24 0 26 -33 56 -61 56 -9 0 -23 -8
-31 -17z m70 -25 c3 -15 -4 -18 -38 -18 -38 0 -40 1 -30 21 14 25 63 23 68 -3z"/>
<path d="M7132 3629 c3 -72 22 -94 59 -71 18 12 23 12 30 0 5 -8 9 16 9 60 0
41 -4 72 -10 72 -5 0 -10 -22 -10 -48 0 -51 -12 -72 -42 -72 -15 0 -18 9 -18
60 0 35 -4 60 -10 60 -7 0 -10 -23 -8 -61z"/>
<path d="M7280 3620 c0 -40 4 -70 10 -70 6 0 10 20 10 43 0 30 6 49 18 60 23
21 52 22 52 2 0 -8 5 -15 10 -15 15 0 12 26 -5 40 -12 10 -21 10 -43 1 -18 -9
-28 -9 -30 -2 -2 6 -8 11 -13 11 -5 0 -9 -31 -9 -70z"/>
<path d="M7430 3620 c0 -40 4 -70 10 -70 6 0 10 19 10 43 0 50 18 81 46 75 16
-3 20 -13 22 -61 2 -31 7 -57 13 -57 6 0 9 25 7 61 -3 72 -22 94 -60 70 -16
-10 -23 -10 -26 -2 -2 6 -8 11 -13 11 -5 0 -9 -31 -9 -70z"/>
<path d="M7910 3680 c0 -5 8 -10 18 -10 15 0 19 -9 21 -50 2 -48 1 -50 -24
-50 -14 0 -25 -4 -25 -10 0 -5 25 -10 55 -10 30 0 55 5 55 10 0 6 -9 10 -20
10 -18 0 -20 7 -20 60 l0 60 -30 0 c-16 0 -30 -4 -30 -10z"/>
<path d="M8050 3620 c0 -81 17 -95 22 -19 3 55 21 78 52 66 12 -5 16 -20 16
-62 0 -30 5 -55 10 -55 15 0 12 104 -4 126 -13 17 -18 18 -45 7 -17 -6 -31 -7
-31 -2 0 5 -4 9 -10 9 -6 0 -10 -30 -10 -70z"/>
<path d="M8531 3673 c-34 -29 -33 -92 3 -115 38 -26 96 12 96 62 0 34 -30 70
-59 70 -10 0 -28 -8 -40 -17z m71 -28 c16 -36 -3 -75 -37 -75 -32 0 -49 38
-35 75 7 18 17 25 35 25 17 0 29 -8 37 -25z"/>
<path d="M8842 3674 c-28 -20 -31 -83 -4 -107 21 -19 59 -22 82 -7 11 7 7 10
-17 10 -41 0 -63 9 -63 26 0 10 13 14 45 14 41 0 45 2 45 24 0 49 -46 70 -88
40z m66 -26 c3 -15 -4 -18 -32 -18 -39 0 -39 0 -30 25 9 22 58 16 62 -7z"/>
<path d="M9140 3620 c0 -40 4 -70 10 -70 6 0 10 20 10 44 0 48 21 79 49 74 12
-2 17 -17 19 -61 4 -75 22 -74 22 2 0 71 -16 91 -61 74 -16 -6 -29 -7 -29 -2
0 5 -4 9 -10 9 -6 0 -10 -30 -10 -70z"/>
<path d="M9310 3670 c-38 -38 -13 -120 38 -120 36 0 62 29 62 69 0 64 -57 94
-100 51z m68 -9 c19 -11 11 -71 -10 -85 -25 -15 -52 4 -56 38 -6 45 30 70 66
47z"/>
<path d="M9620 3670 c-53 -53 4 -141 74 -114 27 10 18 21 -14 16 -29 -4 -60
11 -60 29 0 5 23 9 50 9 43 0 50 3 50 20 0 26 -34 60 -60 60 -11 0 -29 -9 -40
-20z m70 -4 c0 -2 3 -11 6 -20 5 -13 -2 -16 -35 -16 -39 0 -41 1 -31 20 9 17
60 30 60 16z"/>
<path d="M10090 3663 c-48 -61 17 -144 80 -103 11 7 6 10 -22 10 -27 0 -40 6
-48 20 -10 19 -8 20 40 20 46 0 50 2 50 23 0 29 -29 57 -58 57 -11 0 -30 -12
-42 -27z m70 3 c0 -2 3 -11 6 -20 5 -13 -2 -16 -35 -16 -39 0 -41 1 -31 20 9
17 60 30 60 16z"/>
<path d="M10875 3625 c14 -36 25 -68 25 -70 0 -3 6 -5 14 -5 13 0 71 129 62
138 -10 10 -24 -11 -36 -53 -7 -25 -16 -47 -20 -50 -4 -2 -15 20 -26 50 -10
30 -24 55 -31 55 -8 0 -5 -20 12 -65z"/>
<path d="M11035 3681 c-3 -5 9 -11 27 -13 38 -4 55 -38 18 -38 -35 0 -60 -19
-60 -45 0 -26 3 -28 62 -29 l38 -1 0 56 c0 30 -5 60 -12 67 -14 14 -64 16 -73
3z m65 -86 c0 -15 -46 -32 -57 -22 -3 4 -3 13 0 22 8 20 57 20 57 0z"/>
<path d="M11332 3629 c3 -70 22 -94 57 -72 14 9 21 9 30 0 8 -8 11 8 11 61 0
41 -4 72 -10 72 -5 0 -10 -22 -10 -49 0 -51 -18 -78 -45 -67 -11 4 -15 21 -15
61 0 32 -4 55 -10 55 -7 0 -10 -23 -8 -61z"/>
<path d="M11491 3664 c-24 -30 -25 -42 -11 -78 11 -29 47 -42 82 -30 20 7 18
9 -17 14 -27 3 -41 10 -43 23 -3 14 4 17 42 17 42 0 46 2 46 23 0 29 -29 57
-58 57 -11 0 -30 -12 -41 -26z m69 2 c0 -2 3 -11 6 -20 5 -13 -2 -16 -35 -16
-39 0 -41 1 -31 20 9 17 60 30 60 16z"/>
<path d="M12670 3620 c0 -40 4 -70 10 -70 6 0 10 22 10 48 0 26 5 53 12 60 17
17 45 15 57 -5 14 -25 25 -9 11 16 -12 23 -31 26 -61 11 -13 -7 -19 -7 -19 0
0 5 -4 10 -10 10 -6 0 -10 -30 -10 -70z"/>
<path d="M12838 3673 c-54 -62 -5 -149 65 -115 20 10 18 11 -15 11 -27 1 -40
7 -48 21 -10 19 -8 20 40 20 46 0 50 2 50 24 0 26 -33 56 -61 56 -9 0 -23 -8
-31 -17z m70 -25 c3 -15 -4 -18 -38 -18 -38 0 -40 1 -30 21 14 25 63 23 68 -3z"/>
<path d="M13132 3629 c3 -72 22 -94 59 -71 18 12 23 12 30 0 5 -8 9 16 9 60 0
41 -4 72 -10 72 -5 0 -10 -22 -10 -48 0 -51 -12 -72 -42 -72 -15 0 -18 9 -18
60 0 35 -4 60 -10 60 -7 0 -10 -23 -8 -61z"/>
<path d="M13280 3620 c0 -40 4 -70 10 -70 6 0 10 20 10 43 0 30 6 49 18 60 23
21 52 22 52 2 0 -8 5 -15 10 -15 15 0 12 26 -5 40 -12 10 -21 10 -43 1 -18 -9
-28 -9 -30 -2 -2 6 -8 11 -13 11 -5 0 -9 -31 -9 -70z"/>
<path d="M13430 3620 c0 -40 4 -70 10 -70 6 0 10 19 10 43 0 50 18 81 46 75
16 -3 20 -13 22 -61 2 -31 7 -57 13 -57 6 0 9 25 7 61 -3 72 -22 94 -60 70
-16 -10 -23 -10 -26 -2 -2 6 -8 11 -13 11 -5 0 -9 -31 -9 -70z"/>
<path d="M13910 3680 c0 -5 8 -10 18 -10 15 0 19 -9 21 -50 2 -48 1 -50 -24
-50 -14 0 -25 -4 -25 -10 0 -5 25 -10 55 -10 30 0 55 5 55 10 0 6 -9 10 -20
10 -18 0 -20 7 -20 60 l0 60 -30 0 c-16 0 -30 -4 -30 -10z"/>
<path d="M14050 3620 c0 -81 17 -95 22 -19 3 55 21 78 52 66 12 -5 16 -20 16
-62 0 -30 5 -55 10 -55 15 0 12 104 -4 126 -13 17 -18 18 -45 7 -17 -6 -31 -7
-31 -2 0 5 -4 9 -10 9 -6 0 -10 -30 -10 -70z"/>
<path d="M14531 3673 c-34 -29 -33 -92 3 -115 38 -26 96 12 96 62 0 34 -30 70
-59 70 -10 0 -28 -8 -40 -17z m71 -28 c16 -36 -3 -75 -37 -75 -18 0 -28 7 -35
25 -14 37 3 75 35 75 17 0 29 -8 37 -25z"/>
<path d="M14842 3674 c-28 -20 -31 -83 -4 -107 21 -19 59 -22 82 -7 11 7 7 10
-17 10 -41 0 -63 9 -63 26 0 10 13 14 45 14 41 0 45 2 45 24 0 49 -46 70 -88
40z m66 -26 c3 -15 -4 -18 -32 -18 -39 0 -39 0 -30 25 9 22 58 16 62 -7z"/>
<path d="M15140 3620 c0 -40 4 -70 10 -70 6 0 10 20 10 44 0 48 21 79 49 74
12 -2 17 -17 19 -61 4 -75 22 -74 22 2 0 71 -16 91 -61 74 -16 -6 -29 -7 -29
-2 0 5 -4 9 -10 9 -6 0 -10 -30 -10 -70z"/>
<path d="M15310 3670 c-38 -38 -13 -120 38 -120 36 0 62 29 62 69 0 64 -57 94
-100 51z m68 -9 c19 -11 11 -71 -10 -85 -25 -15 -52 4 -56 38 -6 45 30 70 66
47z"/>
<path d="M15620 3670 c-53 -53 4 -141 74 -114 27 10 18 21 -14 16 -29 -4 -60
11 -60 29 0 5 23 9 50 9 43 0 50 3 50 20 0 26 -34 60 -60 60 -11 0 -29 -9 -40
-20z m70 -4 c0 -2 3 -11 6 -20 5 -13 -2 -16 -35 -16 -39 0 -41 1 -31 20 9 17
60 30 60 16z"/>
<path d="M15930 3620 c0 -40 4 -70 10 -70 6 0 10 22 10 48 0 26 5 53 12 60 17
17 45 15 57 -5 14 -25 25 -9 11 16 -12 23 -31 26 -61 11 -13 -7 -19 -7 -19 0
0 5 -4 10 -10 10 -6 0 -10 -30 -10 -70z"/>
<path d="M16090 3681 c0 -5 9 -11 20 -14 16 -4 20 -14 20 -51 0 -42 -2 -46
-25 -46 -14 0 -25 -4 -25 -10 0 -5 25 -10 55 -10 30 0 55 5 55 10 0 6 -9 10
-20 10 -18 0 -20 7 -20 60 l0 60 -30 0 c-16 0 -30 -4 -30 -9z"/>
<path d="M16246 3675 c-10 -10 -14 -31 -12 -68 2 -28 -2 -58 -8 -66 -21 -27
36 -49 91 -35 54 15 32 64 -28 64 -31 0 -39 4 -39 19 0 14 6 17 25 13 31 -6
55 13 55 44 0 13 5 24 10 24 6 0 10 5 10 10 0 16 -87 12 -104 -5z m67 -17 c7
-22 -4 -38 -28 -38 -27 0 -39 14 -31 35 7 18 53 20 59 3z m12 -123 c0 -5 -17
-11 -37 -13 -30 -3 -38 0 -38 13 0 13 8 16 38 13 20 -2 37 -7 37 -13z"/>
<path d="M17015 3625 c14 -36 25 -68 25 -70 0 -3 6 -5 14 -5 13 0 71 129 62
138 -10 10 -24 -11 -36 -53 -7 -25 -16 -47 -20 -50 -4 -2 -15 20 -26 50 -10
30 -24 55 -31 55 -8 0 -5 -20 12 -65z"/>
<path d="M17175 3681 c-3 -5 9 -11 27 -13 38 -4 55 -38 18 -38 -35 0 -60 -19
-60 -45 0 -14 6 -26 13 -27 40 -5 87 -2 88 7 3 36 -4 102 -13 113 -12 14 -64
16 -73 3z m65 -86 c0 -15 -46 -32 -57 -22 -3 4 -3 13 0 22 8 20 57 20 57 0z"/>
<path d="M17472 3629 c3 -70 22 -94 57 -72 14 9 21 9 30 0 8 -8 11 8 11 61 0
41 -4 72 -10 72 -5 0 -10 -22 -10 -49 0 -51 -18 -78 -45 -67 -11 4 -15 21 -15
61 0 32 -4 55 -10 55 -7 0 -10 -23 -8 -61z"/>
<path d="M17630 3663 c-48 -61 17 -144 80 -103 11 7 6 10 -22 10 -27 0 -40 6
-48 20 -10 19 -8 20 40 20 46 0 50 2 50 23 0 29 -29 57 -58 57 -11 0 -30 -12
-42 -27z m70 3 c0 -2 3 -11 6 -20 5 -13 -2 -16 -35 -16 -39 0 -41 1 -31 20 9
17 60 30 60 16z"/>
<path d="M9802 3574 c4 -21 22 -23 26 -1 2 10 -3 17 -13 17 -10 0 -15 -6 -13
-16z"/>
<path d="M10585 3562 c5 -23 2 -33 -12 -40 -10 -6 -15 -13 -12 -16 3 -3 15 2
28 10 24 18 26 64 2 72 -10 3 -12 -3 -6 -26z"/>
<path d="M15802 3574 c4 -21 22 -23 26 -1 2 10 -3 17 -13 17 -10 0 -15 -6 -13
-16z"/>
<path d="M16725 3562 c5 -23 2 -33 -12 -40 -10 -6 -15 -13 -12 -16 3 -3 15 2
28 10 24 18 26 64 2 72 -10 3 -12 -3 -6 -26z"/>
<path d="M9220 2840 c0 -393 0 -400 20 -400 19 0 20 7 20 190 l0 190 3100 0
3100 0 0 210 c0 133 -4 210 -10 210 -6 0 -10 -73 -10 -200 l0 -200 -3090 0
-3090 0 0 200 c0 193 -1 200 -20 200 -20 0 -20 -7 -20 -400z"/>
<path d="M1822 1728 c-7 -7 -12 -22 -12 -35 0 -18 -6 -23 -25 -23 -14 0 -25
-4 -25 -10 0 -5 11 -10 25 -10 23 0 25 -3 25 -50 0 -27 5 -50 10 -50 6 0 10
23 10 50 0 49 1 50 30 50 17 0 30 5 30 10 0 6 -14 10 -31 10 -26 0 -30 3 -27
23 2 16 11 23 31 25 15 2 27 8 27 13 0 13 -54 11 -68 -3z"/>
<path d="M2900 1724 c0 -9 5 -14 12 -12 18 6 21 28 4 28 -9 0 -16 -7 -16 -16z"/>
<path d="M3170 1645 c0 -57 4 -95 10 -95 6 0 10 22 10 49 0 51 18 78 45 67 11
-4 15 -21 15 -61 0 -32 4 -55 10 -55 7 0 10 23 8 61 -3 71 -22 94 -58 71 -19
-11 -20 -10 -20 23 0 19 -4 35 -10 35 -6 0 -10 -38 -10 -95z"/>
<path d="M7010 1725 c0 -8 7 -15 15 -15 8 0 15 7 15 15 0 8 -7 15 -15 15 -8 0
-15 -7 -15 -15z"/>
<path d="M1470 1640 l0 -90 50 0 c28 0 50 5 50 10 0 6 -18 10 -40 10 l-40 0 0
80 c0 47 -4 80 -10 80 -6 0 -10 -37 -10 -90z"/>
<path d="M1955 1713 c-4 -13 -16 -23 -26 -23 -11 0 -19 -4 -19 -10 0 -5 9 -10
20 -10 17 0 20 -7 20 -44 0 -51 19 -76 56 -76 33 0 30 18 -3 22 -26 3 -28 7
-31 51 -3 46 -3 47 27 47 17 0 31 5 31 10 0 6 -13 10 -29 10 -23 0 -31 5 -34
23 l-4 22 -8 -22z"/>
<path d="M2710 1640 c0 -53 4 -90 10 -90 6 0 10 18 10 40 0 29 4 40 15 40 8 0
24 -18 35 -40 11 -22 25 -40 30 -40 12 0 -8 56 -25 70 -11 9 -10 15 6 31 37
37 12 79 -47 79 l-34 0 0 -90z m70 55 c16 -19 -3 -45 -31 -45 -14 0 -19 7 -19
30 0 23 5 30 19 30 10 0 24 -7 31 -15z"/>
<path d="M3345 1713 c-4 -13 -14 -23 -21 -23 -8 0 -14 -4 -14 -10 0 -5 7 -10
15 -10 11 0 15 -12 15 -44 0 -27 6 -51 16 -60 17 -18 74 -22 74 -6 0 6 -13 10
-29 10 -32 0 -41 14 -41 66 0 32 2 34 35 34 19 0 35 5 35 10 0 6 -15 10 -34
10 -28 0 -35 4 -39 23 l-4 22 -8 -22z"/>
<path d="M6670 1640 l0 -90 50 0 c28 0 50 5 50 10 0 6 -18 10 -40 10 -38 0
-40 2 -40 30 0 28 3 30 35 30 19 0 35 5 35 10 0 6 -16 10 -35 10 -32 0 -35 2
-35 30 0 28 2 30 40 30 22 0 40 5 40 10 0 6 -22 10 -50 10 l-50 0 0 -90z"/>
<path d="M7155 1713 c-4 -13 -16 -23 -26 -23 -11 0 -19 -4 -19 -10 0 -5 9 -10
20 -10 17 0 20 -7 20 -44 0 -51 19 -76 56 -76 33 0 30 18 -3 22 -26 3 -28 7
-31 51 -3 46 -3 47 27 47 17 0 31 5 31 10 0 6 -13 10 -29 10 -23 0 -31 5 -34
23 l-4 22 -8 -22z"/>
<path d="M1630 1663 c-48 -61 17 -144 80 -103 11 7 6 10 -22 10 -27 0 -40 6
-48 20 -10 19 -8 20 40 20 46 0 50 2 50 23 0 29 -29 57 -58 57 -11 0 -30 -12
-42 -27z m70 3 c0 -2 3 -11 6 -20 5 -13 -2 -16 -35 -16 -39 0 -41 1 -31 20 9
17 60 30 60 16z"/>
<path d="M2262 1673 c-30 -26 -33 -81 -6 -107 37 -38 104 -3 104 54 0 34 -30
70 -59 70 -10 0 -28 -8 -39 -17z m70 -28 c16 -36 -3 -75 -37 -75 -32 0 -49 38
-35 75 7 18 17 25 35 25 17 0 29 -8 37 -25z"/>
<path d="M2400 1620 c0 -40 4 -70 10 -70 6 0 10 20 10 43 0 30 6 49 18 60 23
21 52 22 52 2 0 -8 5 -15 11 -15 16 0 6 31 -13 44 -14 8 -23 7 -40 -3 -16 -10
-23 -10 -26 -2 -2 6 -8 11 -13 11 -5 0 -9 -31 -9 -70z"/>
<path d="M2870 1680 c0 -5 8 -10 18 -10 15 0 19 -9 21 -50 2 -48 1 -50 -24
-50 -14 0 -25 -4 -25 -10 0 -5 25 -10 55 -10 30 0 55 5 55 10 0 6 -9 10 -20
10 -18 0 -20 7 -20 60 l0 60 -30 0 c-16 0 -30 -4 -30 -10z"/>
<path d="M3026 1675 c-10 -10 -14 -31 -12 -68 2 -28 -2 -58 -8 -66 -21 -27 36
-49 91 -35 54 15 32 64 -28 64 -28 0 -39 4 -39 15 0 10 10 15 28 15 34 0 52
16 52 47 0 13 5 23 10 23 6 0 10 5 10 10 0 16 -87 12 -104 -5z m67 -17 c7 -22
-4 -38 -28 -38 -27 0 -39 14 -31 35 7 18 53 20 59 3z m12 -123 c0 -12 -50 -19
-71 -11 -9 3 -12 11 -9 16 8 14 80 9 80 -5z"/>
<path d="M6834 1655 l27 -35 -27 -35 c-21 -28 -23 -35 -10 -35 9 0 16 3 16 8
0 4 7 16 16 27 14 19 15 19 38 -10 31 -39 45 -26 15 14 l-23 31 23 31 c29 39
17 53 -14 15 l-23 -29 -17 27 c-10 14 -24 26 -32 26 -11 0 -8 -9 11 -35z"/>
<path d="M6980 1680 c0 -5 9 -10 20 -10 17 0 20 -7 20 -50 0 -47 -2 -50 -25
-50 -14 0 -25 -4 -25 -10 0 -5 25 -10 55 -10 30 0 55 5 55 10 0 6 -9 10 -20
10 -18 0 -20 7 -20 60 l0 60 -30 0 c-16 0 -30 -4 -30 -10z"/>
</g>
</svg>
