<?xml version="1.0" standalone="no"?>
<!DOCTYPE svg PUBLIC "-//W3C//DTD SVG 20010904//EN"
 "http://www.w3.org/TR/2001/REC-SVG-20010904/DTD/svg10.dtd">
<svg version="1.0" xmlns="http://www.w3.org/2000/svg"
 width="1244.000000pt" height="1960.000000pt" viewBox="0 0 1244.000000 1960.000000"
 preserveAspectRatio="xMidYMid meet">

<g transform="translate(0.000000,1960.000000) scale(0.100000,-0.100000)"
fill="#000000" stroke="none">
<path d="M0 9800 l0 -9800 6220 0 6220 0 0 9800 0 9800 -6220 0 -6220 0 0
-9800z m3333 9378 c143 -51 254 -180 274 -318 l8 -55 193 -3 192 -2 0 200 0
200 1210 0 1210 0 0 -410 0 -410 -1210 0 -1210 0 0 200 0 200 -192 -2 -193 -3
-8 -55 c-23 -162 -167 -303 -337 -330 -38 -6 -269 -10 -557 -10 l-493 0 0
-190 0 -190 900 0 900 0 0 -810 0 -810 -900 0 -900 0 0 -191 c0 -177 1 -190
18 -185 9 3 101 30 203 60 102 31 188 56 192 56 4 0 7 -27 7 -60 l0 -60 4490
0 4490 0 0 -6610 0 -6610 -3110 0 -3110 0 0 1600 0 1600 -1213 0 -1212 0 -205
205 -205 205 205 205 205 205 1212 0 1213 0 0 390 0 390 -1400 0 -1400 0 0
1010 0 1010 1400 0 1400 0 0 190 0 190 -1400 0 -1400 0 0 410 0 410 1400 0
1400 0 0 190 0 190 -1400 0 -1400 0 0 410 0 410 1400 0 1400 0 0 190 0 190
-1213 0 -1212 0 -205 205 -205 205 205 205 205 205 1212 0 1213 0 0 190 0 190
-1400 0 -1400 0 0 410 0 410 1400 0 1400 0 0 390 0 390 -678 0 -677 0 -200
-200 -200 -200 -712 0 -713 0 0 -6190 0 -6190 900 0 900 0 0 -410 0 -410 -900
0 -900 0 0 -189 0 -189 333 -5 c369 -5 383 -7 483 -73 211 -140 239 -438 59
-619 -62 -62 -139 -101 -225 -115 -88 -13 -1233 -13 -1320 1 -115 18 -212 79
-274 173 -48 72 -68 142 -67 230 2 181 106 321 286 385 30 10 120 15 363 18
l322 5 0 189 0 189 -890 0 -890 0 0 410 0 410 890 0 890 0 0 6190 0 6190 -703
0 -702 0 -205 205 -205 205 205 205 205 205 702 0 703 0 0 390 0 390 -890 0
-890 0 0 810 0 810 890 0 890 0 0 190 0 190 -482 0 c-499 0 -580 5 -655 41
-104 50 -188 146 -220 251 -18 62 -18 178 0 233 52 162 180 266 352 288 17 3
498 4 1070 3 943 -2 1044 -3 1088 -18z m-1643 -4503 c0 -33 2 -35 35 -35 33 0
35 2 35 35 0 24 5 35 15 35 12 0 15 -17 15 -90 0 -73 -3 -90 -15 -90 -11 0
-15 12 -15 45 0 45 0 45 -35 45 -35 0 -35 0 -35 -45 0 -33 -4 -45 -15 -45 -12
0 -15 17 -15 90 0 73 3 90 15 90 10 0 15 -11 15 -35z m243 -7 c9 -7 19 -25 23
-40 l6 -28 -56 0 c-60 0 -61 -1 -46 -31 12 -21 50 -25 68 -7 6 6 15 8 19 4 12
-11 -27 -36 -56 -36 -13 0 -33 7 -43 17 -23 21 -24 89 -1 115 19 21 62 24 86
6z m197 2 c0 -5 -13 -10 -30 -10 l-30 0 0 -65 c0 -37 -4 -65 -10 -65 -6 0 -10
28 -10 65 l0 65 -30 0 c-16 0 -30 5 -30 10 0 6 30 10 70 10 40 0 70 -4 70 -10z
m2940 -2440 c0 -64 3 -80 15 -80 11 0 15 -11 15 -40 0 -29 -4 -40 -15 -40 -10
0 -15 10 -15 30 0 30 -1 30 -55 30 -54 0 -55 0 -55 -30 0 -20 -5 -30 -15 -30
-20 0 -21 76 -1 83 15 6 30 51 41 120 6 36 7 37 45 37 l40 0 0 -80z m154 34
c10 -10 16 -33 16 -65 0 -27 5 -49 10 -49 6 0 10 -4 10 -10 0 -14 -37 -12 -43
3 -4 10 -7 10 -18 0 -30 -29 -79 -8 -79 32 0 30 19 45 57 45 23 0 33 5 33 15
0 21 -29 31 -51 17 -30 -19 -44 -14 -24 8 22 24 67 26 89 4z m-334 -6389 c0
-33 2 -35 35 -35 33 0 35 2 35 35 0 24 5 35 15 35 12 0 15 -17 15 -90 0 -73
-3 -90 -15 -90 -11 0 -15 12 -15 45 0 45 0 45 -35 45 -35 0 -35 0 -35 -45 0
-33 -4 -45 -15 -45 -12 0 -15 17 -15 90 0 73 3 90 15 90 10 0 15 -11 15 -35z
m243 -7 c9 -7 19 -25 23 -40 l6 -28 -56 0 c-60 0 -61 -1 -46 -31 12 -21 50
-25 68 -7 6 6 15 8 19 4 12 -11 -27 -36 -56 -36 -13 0 -33 7 -43 17 -23 21
-24 89 -1 115 19 21 62 24 86 6z m197 2 c0 -5 -13 -10 -30 -10 l-30 0 0 -65
c0 -37 -4 -65 -10 -65 -6 0 -10 28 -10 65 l0 65 -30 0 c-16 0 -30 5 -30 10 0
6 30 10 70 10 40 0 70 -4 70 -10z"/>
<path d="M1084 19161 c-159 -54 -264 -201 -264 -371 0 -142 68 -262 192 -338
86 -53 50 -52 1199 -52 1044 0 1066 0 1125 20 158 55 264 202 264 369 0 141
-64 256 -185 335 -90 58 -44 56 -1210 55 -987 0 -1074 -2 -1121 -18z m1936
-293 l1 -83 42 48 c23 26 51 47 62 47 16 0 13 -6 -18 -38 -20 -21 -37 -42 -37
-48 0 -6 12 -26 26 -45 43 -57 47 -69 27 -69 -10 0 -30 19 -47 45 -15 25 -33
44 -40 42 -6 -2 -12 -22 -14 -45 -2 -29 -8 -42 -18 -42 -11 0 -14 24 -14 135
0 113 2 135 15 135 12 0 15 -16 15 -82z m-1636 23 c48 -45 42 -149 -11 -191
-18 -14 -41 -20 -74 -20 l-49 0 0 121 0 121 55 -4 c39 -3 62 -11 79 -27z m244
17 c-3 -8 -28 -14 -66 -16 l-62 -3 0 -39 0 -40 60 0 c47 0 60 -3 60 -15 0 -12
-13 -15 -60 -15 l-60 0 0 -50 c0 -38 -4 -50 -15 -50 -12 0 -15 20 -15 120 l0
120 81 0 c60 0 80 -3 77 -12z m190 -4 c24 -17 30 -44 8 -44 -7 0 -19 7 -26 16
-9 10 -26 14 -49 12 -31 -3 -36 -7 -36 -28 0 -22 8 -27 55 -43 30 -9 61 -25
68 -34 53 -72 -73 -141 -145 -79 -23 20 -26 27 -15 37 10 11 15 9 28 -9 31
-44 136 -19 107 26 -5 10 -32 25 -59 35 -63 24 -74 34 -74 68 0 35 32 59 80
59 20 0 46 -7 58 -16z m572 -4 c0 -17 7 -20 40 -20 29 0 40 -4 40 -15 0 -11
-11 -15 -40 -15 l-40 0 0 -54 c0 -77 5 -86 51 -86 40 0 52 -13 23 -24 -9 -3
-29 -6 -44 -6 -42 0 -60 32 -60 106 0 46 -4 63 -15 68 -21 8 -19 23 5 29 11 3
20 12 20 21 0 9 5 16 10 16 6 0 10 -9 10 -20z m-149 -30 c10 -6 19 -17 19 -25
0 -19 -5 -19 -36 1 -20 14 -30 15 -49 6 -41 -19 -28 -43 30 -56 95 -23 82
-116 -17 -116 -34 0 -68 20 -68 41 0 12 27 12 32 0 6 -17 52 -22 72 -8 28 21
13 44 -36 57 -66 18 -85 53 -48 90 22 22 70 26 101 10z m427 -6 c19 -13 22
-24 22 -85 0 -53 4 -71 15 -75 8 -4 15 -10 15 -15 0 -15 -37 -10 -50 6 -11 13
-15 13 -33 0 -46 -32 -97 -8 -97 45 0 37 32 60 82 60 38 0 43 5 32 34 -7 19
-46 21 -74 4 -29 -18 -39 1 -11 23 28 23 69 24 99 3z m230 -4 c12 -12 22 -25
22 -30 0 -15 -26 -12 -40 5 -7 8 -25 15 -41 15 -33 0 -49 -23 -49 -70 0 -47
16 -70 49 -70 16 0 34 7 41 15 14 17 40 20 40 6 0 -18 -53 -51 -82 -51 -47 0
-78 39 -78 100 0 41 5 56 25 75 30 31 82 33 113 5z m-818 -210 c0 -6 -42 -10
-105 -10 -63 0 -105 4 -105 10 0 6 42 10 105 10 63 0 105 -4 105 -10z"/>
<path d="M1280 18800 l0 -90 30 0 c46 0 70 31 70 90 0 59 -24 90 -70 90 l-30
0 0 -90z"/>
<path d="M2588 18769 c-31 -17 -16 -69 19 -69 20 0 53 38 53 60 0 15 -7 20
-27 20 -16 0 -36 -5 -45 -11z"/>
<path d="M4020 18790 l0 -390 1190 0 1190 0 0 390 0 390 -1190 0 -1190 0 0
-390z m900 85 c0 -33 2 -35 21 -25 29 16 65 5 73 -22 3 -13 6 -44 6 -70 0 -35
-4 -48 -15 -48 -10 0 -15 16 -17 62 -3 53 -6 63 -22 66 -28 6 -46 -25 -46 -80
0 -26 -4 -48 -10 -48 -6 0 -10 40 -10 100 0 60 4 100 10 100 6 0 10 -16 10
-35z m680 0 c0 -10 10 -15 30 -15 17 0 30 -4 30 -10 0 -5 -14 -10 -31 -10
l-30 0 3 -52 c3 -52 4 -53 38 -59 26 -4 31 -7 18 -13 -9 -4 -29 -6 -45 -4 -27
3 -28 5 -31 66 -2 46 -7 62 -17 62 -8 0 -15 5 -15 10 0 6 7 10 15 10 8 0 15 7
15 15 0 8 5 15 10 15 6 0 10 -7 10 -15z m510 0 c0 -10 10 -15 31 -15 17 0 28
-4 24 -10 -3 -5 -17 -10 -31 -10 -23 0 -24 -3 -24 -55 0 -54 0 -55 30 -55 17
0 30 -4 30 -10 0 -14 -64 -12 -78 2 -7 7 -12 35 -12 64 0 32 -5 54 -12 56 -8
3 -5 11 8 25 23 26 34 28 34 8z m-1802 -27 c9 -9 12 -9 12 0 0 7 5 12 10 12 6
0 10 -36 10 -89 0 -68 -4 -93 -16 -105 -18 -18 -47 -20 -75 -6 -23 13 -25 30
-4 30 8 0 15 -4 15 -10 0 -16 47 -11 54 6 12 32 7 45 -13 34 -46 -24 -81 1
-81 58 0 65 52 106 88 70z m118 -3 c5 -13 8 -13 21 0 16 17 63 20 63 5 0 -5
-9 -10 -20 -10 -35 0 -60 -35 -60 -85 0 -25 -4 -45 -10 -45 -6 0 -10 26 -10
59 0 33 -3 66 -6 75 -3 9 -1 16 5 16 7 0 14 -7 17 -15z m225 5 c15 -9 19 -22
19 -65 0 -34 5 -55 13 -58 6 -2 8 -8 4 -13 -4 -4 -16 -3 -26 3 -11 7 -23 8
-32 2 -35 -22 -79 0 -79 40 0 20 33 41 66 41 37 0 37 0 28 24 -7 17 -54 22
-54 6 0 -5 -7 -10 -15 -10 -20 0 -19 17 3 29 22 13 48 14 73 1z m99 0 c0 -7 6
-7 19 0 48 25 81 -1 81 -65 0 -57 -21 -79 -67 -70 -32 6 -33 5 -33 -30 0 -19
-4 -35 -10 -35 -6 0 -10 42 -10 105 0 63 4 105 10 105 6 0 10 -5 10 -10z m736
-4 c10 -8 16 -18 12 -22 -4 -4 -14 -1 -22 5 -19 16 -61 10 -61 -8 0 -8 18 -19
40 -25 43 -12 58 -43 35 -72 -13 -14 -56 -19 -84 -8 -17 7 -22 34 -6 34 6 0
10 -5 10 -11 0 -6 14 -9 33 -7 41 4 43 29 2 43 -43 14 -55 24 -55 44 0 39 57
55 96 27z m325 4 c15 -9 19 -22 19 -65 0 -34 5 -55 13 -58 6 -2 8 -8 4 -13 -4
-4 -16 -3 -26 3 -11 7 -23 8 -32 2 -35 -22 -79 0 -79 40 0 20 33 41 66 41 37
0 37 0 28 24 -7 17 -54 22 -54 6 0 -5 -7 -10 -15 -10 -20 0 -19 17 3 29 22 13
48 14 73 1z m111 -1 c3 -9 9 -9 25 0 27 14 63 14 63 1 0 -5 -10 -10 -22 -10
-38 0 -58 -28 -58 -82 0 -26 -4 -48 -10 -48 -5 0 -10 17 -10 38 0 20 -3 54 -6
75 -4 23 -3 37 4 37 6 0 12 -5 14 -11z m-792 -104 c0 -11 -41 -85 -46 -85 -6
0 4 69 12 82 6 9 34 11 34 3z"/>
<path d="M4254 18826 c-3 -8 -4 -31 -2 -52 3 -34 6 -39 28 -39 32 0 49 42 32
80 -13 27 -49 34 -58 11z"/>
<path d="M4587 18773 c-4 -3 -7 -15 -7 -25 0 -25 46 -24 60 1 5 11 10 22 10
25 0 8 -55 7 -63 -1z"/>
<path d="M4767 18833 c-4 -3 -7 -26 -7 -50 0 -47 19 -65 49 -46 20 12 27 69
10 89 -12 15 -41 19 -52 7z"/>
<path d="M5747 18773 c-4 -3 -7 -15 -7 -25 0 -25 46 -24 60 1 5 11 10 22 10
25 0 8 -55 7 -63 -1z"/>
<path d="M420 17190 l0 -790 1790 0 1790 0 0 790 0 790 -1790 0 -1790 0 0
-790z m450 424 c0 -17 -22 -14 -28 4 -2 7 3 12 12 12 9 0 16 -7 16 -16z m338
4 c-6 -18 -28 -21 -28 -4 0 9 7 16 16 16 9 0 14 -5 12 -12z m542 -88 c0 -60
-4 -100 -10 -100 -5 0 -10 5 -10 10 0 7 -6 7 -19 0 -48 -25 -81 1 -81 65 0 64
33 90 81 65 17 -10 19 -7 19 25 0 19 5 35 10 35 6 0 10 -40 10 -100z m640 90
c0 -5 -11 -10 -25 -10 l-25 0 0 -110 0 -110 25 0 c14 0 25 -4 25 -10 0 -5 -16
-10 -35 -10 l-35 0 0 130 0 130 35 0 c19 0 35 -4 35 -10z m140 -120 l0 -130
-35 0 c-19 0 -35 5 -35 10 0 6 11 10 25 10 l25 0 0 110 0 110 -25 0 c-14 0
-25 5 -25 10 0 6 16 10 35 10 l35 0 0 -130z m-1180 95 c0 -10 10 -15 31 -15
17 0 28 -4 24 -10 -3 -5 -17 -10 -31 -10 -23 0 -24 -3 -24 -55 0 -54 0 -55 30
-55 17 0 30 -4 30 -10 0 -14 -64 -12 -78 2 -7 7 -12 35 -12 64 0 32 -5 54 -12
56 -8 3 -5 11 8 25 23 26 34 28 34 8z m-690 -76 l23 -61 25 61 c13 34 30 61
37 61 10 0 5 -21 -17 -75 -27 -67 -48 -90 -62 -67 -2 4 -16 38 -30 75 -19 50
-22 67 -12 67 8 0 24 -27 36 -61z m210 -4 c0 -63 1 -65 25 -65 14 0 25 -4 25
-10 0 -6 -28 -10 -65 -10 -37 0 -65 4 -65 10 0 6 11 10 25 10 24 0 25 3 25 55
0 48 -2 55 -20 55 -11 0 -20 5 -20 10 0 6 16 10 35 10 l35 0 0 -65z m184 59
c17 -7 22 -34 6 -34 -5 0 -10 5 -10 10 0 6 -14 10 -31 10 -40 0 -36 -29 6 -43
40 -13 55 -26 55 -48 0 -21 -28 -39 -62 -39 -28 0 -66 25 -56 36 4 4 14 1 22
-5 19 -16 71 -10 71 8 0 8 -18 20 -40 28 -55 19 -67 40 -39 67 16 16 50 21 78
10z m156 -59 c0 -63 1 -65 25 -65 14 0 25 -4 25 -10 0 -6 -30 -10 -70 -10 -40
0 -70 4 -70 10 0 6 14 10 30 10 30 0 30 1 30 55 0 48 -2 55 -20 55 -11 0 -20
5 -20 10 0 6 16 10 35 10 l35 0 0 -65z m360 45 c11 -11 20 -29 20 -40 0 -18
-7 -20 -55 -20 -52 0 -54 -1 -46 -22 9 -26 45 -35 67 -17 8 6 18 9 22 5 4 -4
-2 -14 -12 -22 -48 -34 -106 -1 -106 61 0 42 29 75 65 75 14 0 34 -9 45 -20z
m520 0 c0 -6 -28 -10 -65 -10 -37 0 -65 4 -65 10 0 6 28 10 65 10 37 0 65 -4
65 -10z m0 -70 c0 -6 -28 -10 -65 -10 -37 0 -65 4 -65 10 0 6 28 10 65 10 37
0 65 -4 65 -10z m-760 -242 l0 -63 31 38 c17 20 38 37 47 37 12 0 9 -7 -11
-28 -33 -34 -33 -37 -2 -78 28 -37 30 -44 13 -44 -7 0 -23 16 -36 36 -26 39
-42 37 -42 -7 0 -19 -5 -29 -15 -29 -12 0 -15 18 -15 100 0 82 3 100 15 100
12 0 15 -14 15 -62z m720 52 c0 -5 -11 -10 -25 -10 l-25 0 0 -110 0 -110 25 0
c14 0 25 -4 25 -10 0 -5 -16 -10 -35 -10 l-35 0 0 130 0 130 35 0 c19 0 35 -4
35 -10z m980 -120 l0 -130 -35 0 c-19 0 -35 5 -35 10 0 6 11 10 25 10 l25 0 0
110 0 110 -25 0 c-14 0 -25 5 -25 10 0 6 16 10 35 10 l35 0 0 -130z m-2190 95
c0 -10 10 -15 30 -15 17 0 30 -4 30 -10 0 -5 -14 -10 -31 -10 l-30 0 3 -52 c3
-52 4 -53 38 -59 26 -4 31 -7 18 -13 -9 -4 -29 -6 -45 -4 -27 3 -28 5 -31 66
-2 46 -7 62 -17 62 -8 0 -15 5 -15 10 0 6 7 10 15 10 8 0 15 7 15 15 0 8 5 15
10 15 6 0 10 -7 10 -15z m1480 0 c0 -10 10 -15 30 -15 17 0 30 -4 30 -10 0 -5
-14 -10 -31 -10 l-30 0 3 -52 c3 -52 4 -53 38 -59 26 -4 31 -7 18 -13 -9 -4
-29 -6 -45 -4 -27 3 -28 5 -31 66 -2 46 -7 62 -17 62 -8 0 -15 5 -15 10 0 6 7
10 15 10 8 0 15 7 15 15 0 8 5 15 10 15 6 0 10 -7 10 -15z m510 0 c0 -10 10
-15 31 -15 17 0 28 -4 24 -10 -3 -5 -17 -10 -31 -10 -23 0 -24 -3 -24 -55 0
-54 0 -55 30 -55 17 0 30 -4 30 -10 0 -14 -64 -12 -78 2 -7 7 -12 35 -12 64 0
32 -5 54 -12 56 -8 3 -5 11 8 25 23 26 34 28 34 8z m-2104 -29 c10 -8 16 -18
12 -22 -4 -4 -14 -1 -22 5 -19 16 -61 10 -61 -8 0 -8 18 -19 40 -25 43 -12 58
-43 35 -72 -13 -14 -56 -19 -84 -8 -17 7 -22 34 -6 34 6 0 10 -5 10 -11 0 -6
14 -9 33 -7 41 4 43 29 2 43 -43 14 -55 24 -55 44 0 39 57 55 96 27z m325 4
c15 -9 19 -22 19 -65 0 -34 5 -55 13 -58 6 -2 8 -8 4 -13 -4 -4 -16 -3 -26 3
-11 7 -23 8 -32 2 -35 -22 -79 0 -79 40 0 20 33 41 66 41 37 0 37 0 28 24 -7
17 -54 22 -54 6 0 -5 -7 -10 -15 -10 -20 0 -19 17 3 29 22 13 48 14 73 1z
m184 -6 c22 -23 10 -30 -21 -14 -34 19 -58 3 -62 -39 -6 -55 32 -79 70 -44 25
22 36 8 13 -17 -38 -42 -115 -6 -115 55 0 12 9 34 21 49 24 30 69 35 94 10z
m971 2 c10 -8 16 -18 12 -22 -4 -4 -14 -1 -22 5 -19 16 -61 10 -61 -8 0 -8 18
-19 40 -25 43 -12 58 -43 35 -72 -13 -14 -56 -19 -84 -8 -17 7 -22 34 -6 34 6
0 10 -5 10 -11 0 -6 14 -9 33 -7 41 4 43 29 2 43 -43 14 -55 24 -55 44 0 39
57 55 96 27z m325 4 c15 -9 19 -22 19 -65 0 -34 5 -55 13 -58 6 -2 8 -8 4 -13
-4 -4 -16 -3 -26 3 -11 7 -23 8 -32 2 -35 -22 -79 0 -79 40 0 20 33 41 66 41
37 0 37 0 28 24 -7 17 -54 22 -54 6 0 -5 -7 -10 -15 -10 -20 0 -19 17 3 29 22
13 48 14 73 1z m111 -1 c3 -9 9 -9 25 0 27 14 63 14 63 1 0 -5 -10 -10 -22
-10 -38 0 -58 -28 -58 -82 0 -26 -4 -48 -10 -48 -5 0 -10 17 -10 38 0 20 -3
54 -6 75 -4 23 -3 37 4 37 6 0 12 -5 14 -11z m-892 -9 c0 -6 -28 -10 -65 -10
-37 0 -65 4 -65 10 0 6 28 10 65 10 37 0 65 -4 65 -10z m0 -70 c0 -6 -28 -10
-65 -10 -37 0 -65 4 -65 10 0 6 28 10 65 10 37 0 65 -4 65 -10z m-380 -270 c0
-89 0 -90 24 -90 14 0 28 -4 31 -10 4 -6 -20 -10 -64 -10 -41 0 -71 4 -71 10
0 6 14 10 30 10 l30 0 0 80 c0 73 -2 80 -20 80 -11 0 -20 5 -20 10 0 6 14 10
30 10 l30 0 0 -90z m840 80 c0 -5 -11 -10 -25 -10 l-25 0 0 -110 0 -110 25 0
c14 0 25 -4 25 -10 0 -5 -16 -10 -35 -10 l-35 0 0 130 0 130 35 0 c19 0 35 -4
35 -10z m140 -120 l0 -130 -35 0 c-19 0 -35 5 -35 10 0 6 11 10 25 10 l25 0 0
110 0 110 -25 0 c-14 0 -25 5 -25 10 0 6 16 10 35 10 l35 0 0 -130z m-809 80
c16 0 29 -4 29 -10 0 -5 -14 -10 -31 -10 l-30 0 3 -52 c3 -52 4 -53 36 -56 38
-4 33 -22 -7 -22 -39 0 -51 17 -51 76 0 31 -5 54 -12 56 -7 3 -5 12 8 26 15
18 20 20 22 7 2 -9 14 -15 33 -15z m-881 -17 c0 -15 1 -15 18 0 20 19 62 23
62 7 0 -5 -8 -10 -18 -10 -34 0 -52 -24 -59 -77 -3 -29 -9 -53 -14 -53 -4 0
-9 34 -11 75 -2 55 0 75 10 75 6 0 12 -7 12 -17z m226 9 c13 -8 34 -46 34 -61
0 -7 -23 -11 -55 -11 -59 0 -60 -1 -45 -31 12 -21 50 -25 68 -7 6 6 15 8 19 4
12 -11 -27 -36 -56 -36 -13 0 -33 7 -43 17 -23 21 -24 89 -1 115 16 18 59 24
79 10z m168 2 c17 -7 22 -34 6 -34 -5 0 -10 5 -10 10 0 6 -14 10 -31 10 -40 0
-36 -29 6 -43 40 -13 55 -26 55 -48 0 -21 -28 -39 -62 -39 -28 0 -66 25 -56
36 4 4 14 1 22 -5 19 -16 71 -10 71 8 0 8 -18 20 -40 28 -55 19 -67 40 -39 67
16 16 50 21 78 10z m96 -36 c0 -71 9 -90 39 -86 25 3 26 6 29 66 2 46 7 62 17
62 12 0 15 -16 15 -75 0 -67 -11 -96 -23 -62 -4 10 -7 10 -18 0 -17 -16 -51
-17 -67 -1 -15 15 -16 138 -2 138 6 0 10 -19 10 -42z m760 22 c0 -6 -28 -10
-65 -10 -37 0 -65 4 -65 10 0 6 28 10 65 10 37 0 65 -4 65 -10z m0 -70 c0 -6
-28 -10 -65 -10 -37 0 -65 4 -65 10 0 6 28 10 65 10 37 0 65 -4 65 -10z"/>
<path d="M1662 17548 c-16 -16 -15 -60 1 -82 19 -26 49 -16 58 17 15 56 -25
99 -59 65z"/>
<path d="M1497 17554 c-18 -19 -5 -34 29 -34 28 0 35 3 32 18 -3 17 -48 29
-61 16z"/>
<path d="M987 17173 c-4 -3 -7 -15 -7 -25 0 -25 46 -24 60 1 5 11 10 22 10 25
0 8 -55 7 -63 -1z"/>
<path d="M2467 17173 c-4 -3 -7 -15 -7 -25 0 -25 46 -24 60 1 5 11 10 22 10
25 0 8 -55 7 -63 -1z"/>
<path d="M822 16908 c-21 -21 -13 -28 29 -28 33 0 40 3 35 16 -3 9 -6 18 -6
20 0 9 -47 3 -58 -8z"/>
<path d="M2220 15791 l0 -191 713 0 712 0 200 -200 200 -200 687 0 688 0 0
-400 0 -400 1400 0 1400 0 0 -410 0 -410 -1400 0 -1400 0 0 -190 0 -190 1213
0 1212 0 200 -200 200 -200 1677 0 1678 0 0 1590 0 1590 -4480 0 -4480 0 0
-60 c0 -33 -3 -60 -7 -60 -4 0 -90 25 -192 56 -102 30 -194 57 -203 60 -17 5
-18 -8 -18 -185z m2080 -361 c0 -47 4 -80 10 -80 6 0 10 -18 10 -40 0 -22 -4
-40 -10 -40 -5 0 -10 14 -10 30 l0 30 -60 0 -60 0 0 -30 c0 -16 -4 -30 -10
-30 -16 0 -12 77 4 83 17 7 36 67 36 113 0 39 5 44 52 44 l38 0 0 -80z m148
38 c7 -7 12 -30 12 -53 0 -22 7 -51 16 -63 14 -21 14 -22 -5 -22 -11 0 -22 4
-25 9 -4 5 -18 5 -35 -2 -34 -13 -56 -5 -64 22 -8 32 19 61 59 61 24 0 34 5
34 15 0 23 -28 30 -56 15 -30 -16 -41 -8 -19 14 19 19 66 21 83 4z m3962
-2393 c0 -33 2 -35 35 -35 33 0 35 2 35 35 0 24 5 35 15 35 12 0 15 -17 15
-90 0 -73 -3 -90 -15 -90 -11 0 -15 12 -15 45 0 45 0 45 -35 45 -35 0 -35 0
-35 -45 0 -33 -4 -45 -15 -45 -12 0 -15 17 -15 90 0 73 3 90 15 90 10 0 15
-11 15 -35z m243 -7 c9 -7 19 -25 23 -40 l6 -28 -56 0 c-60 0 -61 -1 -46 -31
12 -21 50 -25 68 -7 6 6 15 8 19 4 12 -11 -27 -36 -56 -36 -13 0 -33 7 -43 17
-23 21 -24 89 -1 115 19 21 62 24 86 6z m197 2 c0 -5 -13 -10 -30 -10 l-30 0
0 -65 c0 -37 -4 -65 -10 -65 -6 0 -10 28 -10 65 l0 65 -30 0 c-16 0 -30 5 -30
10 0 6 30 10 70 10 40 0 70 -4 70 -10z"/>
<path d="M4235 15465 c-3 -14 -7 -37 -10 -52 -3 -16 -8 -36 -11 -45 -4 -15 1
-18 30 -18 l36 0 0 70 c0 63 -2 70 -20 70 -13 0 -21 -8 -25 -25z"/>
<path d="M4374 15385 c-8 -19 3 -35 25 -35 20 0 41 19 41 37 0 18 -59 17 -66
-2z"/>
<path d="M8580 13040 c-10 -18 -8 -20 30 -20 41 0 49 7 28 28 -18 18 -46 14
-58 -8z"/>
<path d="M570 15385 l-195 -195 195 -195 195 -195 1445 0 1445 0 188 188 c103
103 187 194 187 202 0 8 -84 100 -188 203 l-187 187 -1445 0 -1445 0 -195
-195z m960 -137 l0 -63 31 38 c17 20 38 37 47 37 12 0 9 -7 -11 -28 -33 -34
-33 -37 -2 -78 28 -37 30 -44 13 -44 -7 0 -23 16 -36 36 -26 39 -42 37 -42 -7
0 -19 -5 -29 -15 -29 -12 0 -15 18 -15 100 0 82 3 100 15 100 12 0 15 -14 15
-62z m370 -28 c0 -89 0 -90 25 -90 14 0 25 -4 25 -10 0 -6 -28 -10 -65 -10
-37 0 -65 4 -65 10 0 6 14 10 30 10 l30 0 0 80 c0 73 -2 80 -20 80 -11 0 -20
5 -20 10 0 6 14 10 30 10 l30 0 0 -90z m790 53 c0 -29 3 -34 12 -25 7 7 21 12
33 12 12 0 26 -5 33 -12 15 -15 16 -138 2 -138 -5 0 -10 22 -10 49 0 61 -7 81
-29 81 -29 0 -41 -22 -41 -77 0 -29 -4 -53 -10 -53 -6 0 -10 40 -10 100 0 60
4 100 10 100 6 0 10 -17 10 -37z m-1650 2 c0 -10 10 -15 30 -15 17 0 30 -4 30
-10 0 -5 -14 -10 -31 -10 l-30 0 3 -52 c3 -52 4 -53 38 -59 26 -4 31 -7 18
-13 -9 -4 -29 -6 -45 -4 -27 3 -28 5 -31 66 -2 46 -7 62 -17 62 -8 0 -15 5
-15 10 0 6 7 10 15 10 8 0 15 7 15 15 0 8 5 15 10 15 6 0 10 -7 10 -15z m1510
0 c0 -10 10 -15 31 -15 17 0 28 -4 24 -10 -3 -5 -17 -10 -31 -10 -23 0 -24 -3
-24 -55 0 -54 0 -55 30 -55 17 0 30 -4 30 -10 0 -14 -64 -12 -78 2 -7 7 -12
35 -12 64 0 32 -5 54 -12 56 -8 3 -5 11 8 25 23 26 34 28 34 8z m853 2 c20
-14 32 -74 23 -111 -14 -55 -68 -74 -106 -36 -15 15 -20 33 -20 70 0 37 5 55
20 70 23 23 58 26 83 7z m-293 -74 c0 -15 -107 -66 -124 -59 -6 2 16 16 49 31
l60 27 -55 23 c-78 33 -74 49 4 18 36 -15 66 -32 66 -40z m-2184 43 c10 -8 16
-18 12 -22 -4 -4 -14 -1 -22 5 -19 16 -61 10 -61 -8 0 -8 18 -19 40 -25 43
-12 58 -43 35 -72 -13 -14 -56 -19 -84 -8 -17 7 -22 34 -6 34 6 0 10 -5 10
-11 0 -6 14 -9 33 -7 41 4 43 29 2 43 -43 14 -55 24 -55 44 0 39 57 55 96 27z
m325 4 c15 -9 19 -22 19 -65 0 -34 5 -55 13 -58 6 -2 8 -8 4 -13 -4 -4 -16 -3
-26 3 -11 7 -23 8 -32 2 -35 -22 -79 0 -79 40 0 20 33 41 66 41 37 0 37 0 28
24 -7 17 -54 22 -54 6 0 -5 -7 -10 -15 -10 -20 0 -19 17 3 29 22 13 48 14 73
1z m184 -6 c22 -23 10 -30 -21 -14 -34 19 -58 3 -62 -39 -6 -55 32 -79 70 -44
25 22 36 8 13 -17 -38 -42 -115 -6 -115 55 0 12 9 34 21 49 24 30 69 35 94 10z
m651 8 c13 -8 34 -46 34 -61 0 -7 -23 -11 -55 -11 -59 0 -60 -1 -45 -31 12
-21 50 -25 68 -7 6 6 15 8 19 4 12 -11 -27 -36 -56 -36 -13 0 -33 7 -43 17
-23 21 -24 89 -1 115 16 18 59 24 79 10z m94 -2 c0 -7 6 -7 19 0 30 16 59 12
71 -9 16 -31 13 -131 -5 -131 -10 0 -15 16 -17 63 -3 56 -5 62 -25 65 -27 4
-43 -29 -43 -89 0 -21 -4 -39 -10 -39 -6 0 -10 32 -10 75 0 43 4 75 10 75 6 0
10 -5 10 -10z m226 -1 c4 -8 9 -8 17 0 22 22 27 9 27 -72 0 -96 -14 -127 -59
-127 -16 0 -34 7 -41 15 -17 21 -7 29 18 14 36 -23 50 -6 50 63 1 82 -4 98
-33 98 -24 0 -35 -17 -35 -55 0 -39 11 -55 37 -55 13 0 21 -4 18 -10 -9 -15
-51 -12 -65 5 -20 24 -16 106 6 122 22 16 50 17 60 2z m-666 -119 c0 -11 -7
-20 -15 -20 -8 0 -15 9 -15 20 0 11 7 20 15 20 8 0 15 -9 15 -20z"/>
<path d="M3330 15244 c-29 -74 18 -149 61 -98 7 9 14 33 14 54 0 66 -55 98
-75 44z m50 -39 c0 -8 -7 -15 -15 -15 -8 0 -15 7 -15 15 0 8 7 15 15 15 8 0
15 -7 15 -15z"/>
<path d="M1187 15173 c-4 -3 -7 -15 -7 -25 0 -25 46 -24 60 1 5 11 10 22 10
25 0 8 -55 7 -63 -1z"/>
<path d="M2022 15228 c-21 -21 -13 -28 29 -28 33 0 40 3 35 16 -3 9 -6 18 -6
20 0 9 -47 3 -58 -8z"/>
<path d="M2620 13990 l0 -390 2790 0 2790 0 0 390 0 390 -2790 0 -2790 0 0
-390z m2390 58 l0 -63 31 38 c17 20 38 37 47 37 12 0 9 -7 -11 -28 -33 -34
-33 -37 -2 -78 28 -37 30 -44 13 -44 -7 0 -23 16 -36 36 -26 39 -42 37 -42 -7
0 -19 -5 -29 -15 -29 -12 0 -15 18 -15 100 0 82 3 100 15 100 12 0 15 -14 15
-62z m864 15 c-13 -25 -24 -63 -24 -83 0 -20 11 -58 24 -83 16 -32 19 -47 11
-47 -21 0 -55 82 -55 130 0 48 34 130 55 130 8 0 5 -15 -11 -47z m160 13 c17
-21 21 -42 21 -96 0 -54 -4 -75 -21 -96 -31 -42 -47 -41 -22 2 16 28 23 54 23
94 0 40 -7 66 -23 94 -25 43 -9 44 22 2z m-2654 -1 c0 -10 10 -15 30 -15 17 0
30 -4 30 -10 0 -5 -14 -10 -31 -10 l-30 0 3 -52 c3 -49 5 -53 31 -56 39 -5 33
-22 -8 -22 -42 0 -55 20 -55 84 0 25 -4 46 -10 46 -5 0 -10 5 -10 10 0 6 7 10
15 10 8 0 15 7 15 15 0 8 5 15 10 15 6 0 10 -7 10 -15z m1140 0 c0 -10 10 -15
30 -15 17 0 30 -4 30 -10 0 -5 -14 -10 -31 -10 l-30 0 3 -52 c3 -52 4 -53 38
-59 26 -4 31 -7 18 -13 -9 -4 -29 -6 -45 -4 -27 3 -28 5 -31 66 -2 46 -7 62
-17 62 -8 0 -15 5 -15 10 0 6 7 10 15 10 8 0 15 7 15 15 0 8 5 15 10 15 6 0
10 -7 10 -15z m-1660 -76 l23 -61 25 61 c13 34 30 61 37 61 10 0 5 -21 -17
-75 -27 -67 -48 -90 -62 -67 -2 4 -16 38 -30 75 -19 50 -22 67 -12 67 8 0 24
-27 36 -61z m226 53 c13 -8 34 -46 34 -61 0 -7 -23 -11 -55 -11 -59 0 -60 -1
-45 -31 12 -21 50 -25 68 -7 6 6 15 8 19 4 12 -11 -27 -36 -56 -36 -13 0 -33
7 -43 17 -23 21 -24 89 -1 115 16 18 59 24 79 10z m106 -3 c3 -9 9 -9 25 0 27
14 63 14 63 1 0 -5 -10 -10 -22 -10 -38 0 -58 -28 -58 -82 0 -26 -4 -48 -10
-48 -5 0 -10 17 -10 38 0 20 -3 54 -6 75 -4 23 -3 37 4 37 6 0 12 -5 14 -11z
m408 -9 c11 -11 20 -29 20 -40 0 -17 -7 -20 -51 -20 -41 0 -50 -3 -47 -16 5
-28 35 -41 59 -26 25 16 37 8 19 -13 -18 -21 -66 -19 -90 5 -43 43 -13 130 45
130 14 0 34 -9 45 -20z m100 -5 c7 -14 17 -25 21 -25 5 0 16 11 25 25 9 14 23
25 31 25 11 0 8 -9 -12 -36 l-27 -36 19 -26 c32 -45 35 -52 21 -52 -8 0 -22
14 -32 32 l-19 31 -28 -34 c-35 -44 -49 -31 -15 14 l26 34 -25 33 c-29 39 -29
40 -12 40 8 0 20 -11 27 -25z m706 11 c10 -8 16 -18 12 -22 -4 -4 -14 -1 -22
5 -19 16 -61 10 -61 -8 0 -8 18 -19 40 -25 43 -12 58 -43 35 -72 -13 -14 -56
-19 -84 -8 -17 7 -22 34 -6 34 6 0 10 -5 10 -11 0 -6 14 -9 33 -7 41 4 43 29
2 43 -43 14 -55 24 -55 44 0 39 57 55 96 27z m325 4 c15 -9 19 -22 19 -65 0
-34 5 -55 13 -58 6 -2 8 -8 4 -13 -4 -4 -16 -3 -26 3 -11 7 -23 8 -32 2 -35
-22 -79 0 -79 40 0 20 33 41 66 41 37 0 37 0 28 24 -7 17 -54 22 -54 6 0 -5
-7 -10 -15 -10 -20 0 -19 17 3 29 22 13 48 14 73 1z m184 -6 c22 -23 10 -30
-21 -14 -34 19 -58 3 -62 -39 -6 -55 32 -79 70 -44 25 22 36 8 13 -17 -38 -42
-115 -6 -115 55 0 12 9 34 21 49 24 30 69 35 94 10z m415 4 c0 -9 3 -9 12 0
34 34 88 -4 88 -63 0 -59 -54 -97 -88 -63 -9 9 -12 3 -12 -30 0 -23 -4 -42 -9
-42 -6 0 -11 47 -13 105 -2 79 0 105 10 105 6 0 12 -5 12 -12z m240 2 c37 -20
34 -107 -4 -132 -19 -13 -59 -9 -78 9 -23 21 -24 89 -1 115 18 20 54 23 83 8z
m90 0 c0 -7 6 -7 19 0 48 25 81 -1 81 -65 0 -57 -21 -79 -67 -70 -32 6 -33 5
-33 -30 0 -19 -4 -35 -10 -35 -6 0 -10 42 -10 105 0 63 4 105 10 105 6 0 10
-5 10 -10z m-1550 -10 c0 -6 -28 -10 -65 -10 -37 0 -65 4 -65 10 0 6 28 10 65
10 37 0 65 -4 65 -10z m0 -70 c0 -6 -28 -10 -65 -10 -37 0 -65 4 -65 10 0 6
28 10 65 10 37 0 65 -4 65 -10z m1110 -40 c0 -11 -7 -20 -15 -20 -8 0 -15 9
-15 20 0 11 7 20 15 20 8 0 15 -9 15 -20z"/>
<path d="M3022 14028 c-21 -21 -13 -28 29 -28 33 0 40 3 35 16 -3 9 -6 18 -6
20 0 9 -47 3 -58 -8z"/>
<path d="M3527 14033 c-19 -19 -5 -33 33 -33 38 0 40 2 30 20 -10 19 -49 27
-63 13z"/>
<path d="M4667 13973 c-4 -3 -7 -15 -7 -25 0 -25 46 -24 60 1 5 11 10 22 10
25 0 8 -55 7 -63 -1z"/>
<path d="M5342 14028 c-17 -17 -15 -73 3 -88 8 -6 22 -10 32 -8 14 3 18 13 18
53 0 42 -3 50 -20 53 -11 1 -26 -3 -33 -10z"/>
<path d="M5498 14015 c-23 -51 20 -106 57 -75 15 13 20 56 9 84 -10 26 -53 20
-66 -9z"/>
<path d="M5677 14033 c-4 -3 -7 -26 -7 -50 0 -47 19 -65 49 -46 20 12 27 69
10 89 -12 15 -41 19 -52 7z"/>
<path d="M2770 12985 l-195 -195 195 -195 195 -195 2445 0 2445 0 188 188
c103 103 187 194 187 202 0 8 -84 100 -188 203 l-187 187 -2445 0 -2445 0
-195 -195z m660 -91 c0 -17 -22 -14 -28 4 -2 7 3 12 12 12 9 0 16 -7 16 -16z
m338 4 c-6 -18 -28 -21 -28 -4 0 9 7 16 16 16 9 0 14 -5 12 -12z m542 -88 c0
-60 -4 -100 -10 -100 -5 0 -10 5 -10 10 0 7 -6 7 -19 0 -48 -25 -81 1 -81 65
0 64 33 90 81 65 17 -10 19 -7 19 25 0 19 5 35 10 35 6 0 10 -40 10 -100z
m160 90 c0 -5 -11 -10 -25 -10 l-25 0 0 -110 0 -110 25 0 c14 0 25 -4 25 -10
0 -5 -16 -10 -35 -10 l-35 0 0 130 0 130 35 0 c19 0 35 -4 35 -10z m1140 -120
l0 -130 -35 0 c-19 0 -35 5 -35 10 0 6 11 10 25 10 l25 0 0 110 0 110 -25 0
c-14 0 -25 5 -25 10 0 6 16 10 35 10 l35 0 0 -130z m-2514 73 c-3 -21 -6 -51
-6 -66 0 -16 -4 -26 -10 -22 -5 3 -10 33 -10 66 0 48 3 59 16 59 14 0 15 -7
10 -37z m814 22 c0 -10 10 -15 31 -15 17 0 28 -4 24 -10 -3 -5 -17 -10 -31
-10 -23 0 -24 -3 -24 -55 0 -54 0 -55 30 -55 17 0 30 -4 30 -10 0 -14 -64 -12
-78 2 -7 7 -12 35 -12 64 0 32 -5 54 -12 56 -8 3 -5 11 8 25 23 26 34 28 34 8z
m1170 0 c0 -10 10 -15 30 -15 17 0 30 -4 30 -10 0 -5 -14 -10 -31 -10 l-30 0
3 -52 c3 -49 5 -53 31 -56 39 -5 33 -22 -8 -22 -42 0 -55 20 -55 84 0 25 -4
46 -10 46 -5 0 -10 5 -10 10 0 6 7 10 15 10 8 0 15 7 15 15 0 8 5 15 10 15 6
0 10 -7 10 -15z m-1860 -76 l23 -61 25 61 c13 34 30 61 37 61 10 0 5 -21 -17
-75 -27 -67 -48 -90 -62 -67 -2 4 -16 38 -30 75 -19 50 -22 67 -12 67 8 0 24
-27 36 -61z m210 -4 c0 -63 1 -65 25 -65 14 0 25 -4 25 -10 0 -6 -28 -10 -65
-10 -37 0 -65 4 -65 10 0 6 11 10 25 10 24 0 25 3 25 55 0 48 -2 55 -20 55
-11 0 -20 5 -20 10 0 6 16 10 35 10 l35 0 0 -65z m184 59 c17 -7 22 -34 6 -34
-5 0 -10 5 -10 10 0 6 -14 10 -31 10 -40 0 -36 -29 6 -43 40 -13 55 -26 55
-48 0 -21 -28 -39 -62 -39 -28 0 -66 25 -56 36 4 4 14 1 22 -5 19 -16 71 -10
71 8 0 8 -18 20 -40 28 -55 19 -67 40 -39 67 16 16 50 21 78 10z m156 -59 c0
-63 1 -65 25 -65 14 0 25 -4 25 -10 0 -6 -30 -10 -70 -10 -40 0 -70 4 -70 10
0 6 14 10 30 10 30 0 30 1 30 55 0 48 -2 55 -20 55 -11 0 -20 5 -20 10 0 6 16
10 35 10 l35 0 0 -65z m360 45 c11 -11 20 -29 20 -40 0 -18 -7 -20 -55 -20
-52 0 -54 -1 -46 -22 9 -26 45 -35 67 -17 8 6 18 9 22 5 4 -4 -2 -14 -12 -22
-48 -34 -106 -1 -106 61 0 42 29 75 65 75 14 0 34 -9 45 -20z m430 -41 l23
-61 25 61 c13 34 30 61 37 61 10 0 5 -21 -17 -75 -27 -67 -48 -90 -62 -67 -2
4 -16 38 -30 75 -19 50 -22 67 -12 67 8 0 24 -27 36 -61z m226 53 c13 -8 34
-46 34 -61 0 -7 -23 -11 -55 -11 -59 0 -60 -1 -45 -31 12 -21 50 -25 68 -7 6
6 15 8 19 4 12 -11 -27 -36 -56 -36 -13 0 -33 7 -43 17 -23 21 -24 89 -1 115
16 18 59 24 79 10z m106 -3 c3 -9 9 -9 25 0 27 14 63 14 63 1 0 -5 -10 -10
-22 -10 -38 0 -58 -28 -58 -82 0 -26 -4 -48 -10 -48 -5 0 -10 17 -10 38 0 20
-3 54 -6 75 -4 23 -3 37 4 37 6 0 12 -5 14 -11z m408 -9 c11 -11 20 -29 20
-40 0 -17 -7 -20 -51 -20 -41 0 -50 -3 -47 -16 5 -28 35 -41 59 -26 25 16 37
8 19 -13 -18 -21 -66 -19 -90 5 -43 43 -13 130 45 130 14 0 34 -9 45 -20z
m100 -5 c7 -14 17 -25 21 -25 5 0 16 11 25 25 9 14 23 25 31 25 11 0 8 -9 -12
-36 l-27 -36 19 -26 c32 -45 35 -52 21 -52 -8 0 -22 14 -32 32 l-19 31 -28
-34 c-35 -44 -49 -31 -15 14 l26 34 -25 33 c-29 39 -29 40 -12 40 8 0 20 -11
27 -25z m-2302 -113 c2 -7 -3 -12 -12 -12 -9 0 -16 7 -16 16 0 17 22 14 28 -4z"/>
<path d="M4222 12828 c-16 -16 -15 -60 1 -82 19 -26 49 -16 58 17 15 56 -25
99 -59 65z"/>
<path d="M4057 12834 c-18 -19 -5 -34 29 -34 28 0 35 3 32 18 -3 17 -48 29
-61 16z"/>
<path d="M4722 12828 c-21 -21 -13 -28 29 -28 33 0 40 3 35 16 -3 9 -6 18 -6
20 0 9 -47 3 -58 -8z"/>
<path d="M5227 12833 c-19 -19 -5 -33 33 -33 38 0 40 2 30 20 -10 19 -49 27
-63 13z"/>
<path d="M8045 12580 l-200 -200 -1212 0 -1213 0 0 -190 0 -190 1400 0 1400 0
0 -410 0 -410 -1400 0 -1400 0 0 -190 0 -190 1400 0 1400 0 0 -410 0 -410
-1400 0 -1400 0 0 -190 0 -190 1400 0 1400 0 0 -1010 0 -1010 -1400 0 -1400 0
0 -191 c0 -177 1 -190 18 -185 9 3 101 30 203 60 102 31 188 56 192 56 4 0 7
-27 7 -60 l0 -60 2690 0 2690 0 0 -2010 0 -2010 -1310 0 -1310 0 0 200 0 200
-1100 0 -1100 0 0 410 0 410 1100 0 1100 0 0 190 0 190 -1100 0 -1100 0 0 410
0 410 1100 0 1100 0 0 390 0 390 -178 0 -177 0 -200 -200 -200 -200 -1212 0
-1213 0 0 -1590 0 -1590 3090 0 3090 0 0 4990 0 4990 -1678 0 -1677 0 -200
-200z"/>
<path d="M2620 11590 l0 -390 2790 0 2790 0 0 390 0 390 -2790 0 -2790 0 0
-390z m450 104 c0 -17 -22 -14 -28 4 -2 7 3 12 12 12 9 0 16 -7 16 -16z m338
4 c-6 -18 -28 -21 -28 -4 0 9 7 16 16 16 9 0 14 -5 12 -12z m542 -88 c0 -60
-4 -100 -10 -100 -5 0 -10 5 -10 10 0 7 -6 7 -19 0 -48 -25 -81 1 -81 65 0 64
33 90 81 65 17 -10 19 -7 19 25 0 19 5 35 10 35 6 0 10 -40 10 -100z m160 90
c0 -5 -11 -10 -25 -10 l-25 0 0 -110 0 -110 25 0 c14 0 25 -4 25 -10 0 -5 -16
-10 -35 -10 l-35 0 0 130 0 130 35 0 c19 0 35 -4 35 -10z m1140 -120 l0 -130
-35 0 c-19 0 -35 5 -35 10 0 6 11 10 25 10 l25 0 0 110 0 110 -25 0 c-14 0
-25 5 -25 10 0 6 16 10 35 10 l35 0 0 -130z m-1700 95 c0 -10 10 -15 31 -15
17 0 28 -4 24 -10 -3 -5 -17 -10 -31 -10 -23 0 -24 -3 -24 -55 0 -54 0 -55 30
-55 17 0 30 -4 30 -10 0 -14 -64 -12 -78 2 -7 7 -12 35 -12 64 0 32 -5 54 -12
56 -8 3 -5 11 8 25 23 26 34 28 34 8z m1170 0 c0 -10 10 -15 30 -15 17 0 30
-4 30 -10 0 -5 -14 -10 -31 -10 l-30 0 3 -52 c3 -49 5 -53 31 -56 39 -5 33
-22 -8 -22 -42 0 -55 20 -55 84 0 25 -4 46 -10 46 -5 0 -10 5 -10 10 0 6 7 10
15 10 8 0 15 7 15 15 0 8 5 15 10 15 6 0 10 -7 10 -15z m1161 -15 c16 0 29 -4
29 -10 0 -5 -14 -10 -31 -10 l-30 0 3 -52 c3 -52 4 -53 36 -56 38 -4 33 -22
-7 -22 -39 0 -51 17 -51 76 0 31 -5 54 -12 56 -7 3 -5 12 8 26 15 18 20 20 22
7 2 -9 14 -15 33 -15z m-3021 -61 l23 -61 25 61 c13 34 30 61 37 61 10 0 5
-21 -17 -75 -27 -67 -48 -90 -62 -67 -2 4 -16 38 -30 75 -19 50 -22 67 -12 67
8 0 24 -27 36 -61z m210 -4 c0 -63 1 -65 25 -65 14 0 25 -4 25 -10 0 -6 -28
-10 -65 -10 -37 0 -65 4 -65 10 0 6 11 10 25 10 24 0 25 3 25 55 0 48 -2 55
-20 55 -11 0 -20 5 -20 10 0 6 16 10 35 10 l35 0 0 -65z m184 59 c17 -7 22
-34 6 -34 -5 0 -10 5 -10 10 0 6 -14 10 -31 10 -40 0 -36 -29 6 -43 40 -13 55
-26 55 -48 0 -21 -28 -39 -62 -39 -28 0 -66 25 -56 36 4 4 14 1 22 -5 19 -16
71 -10 71 8 0 8 -18 20 -40 28 -55 19 -67 40 -39 67 16 16 50 21 78 10z m156
-59 c0 -63 1 -65 25 -65 14 0 25 -4 25 -10 0 -6 -30 -10 -70 -10 -40 0 -70 4
-70 10 0 6 14 10 30 10 30 0 30 1 30 55 0 48 -2 55 -20 55 -11 0 -20 5 -20 10
0 6 16 10 35 10 l35 0 0 -65z m360 45 c11 -11 20 -29 20 -40 0 -18 -7 -20 -55
-20 -52 0 -54 -1 -46 -22 9 -26 45 -35 67 -17 8 6 18 9 22 5 4 -4 -2 -14 -12
-22 -48 -34 -106 -1 -106 61 0 42 29 75 65 75 14 0 34 -9 45 -20z m430 -41
l23 -61 25 61 c13 34 30 61 37 61 10 0 5 -21 -17 -75 -27 -67 -48 -90 -62 -67
-2 4 -16 38 -30 75 -19 50 -22 67 -12 67 8 0 24 -27 36 -61z m226 53 c13 -8
34 -46 34 -61 0 -7 -23 -11 -55 -11 -59 0 -60 -1 -45 -31 12 -21 50 -25 68 -7
6 6 15 8 19 4 12 -11 -27 -36 -56 -36 -13 0 -33 7 -43 17 -23 21 -24 89 -1
115 16 18 59 24 79 10z m106 -3 c3 -9 9 -9 25 0 27 14 63 14 63 1 0 -5 -10
-10 -22 -10 -38 0 -58 -28 -58 -82 0 -26 -4 -48 -10 -48 -5 0 -10 17 -10 38 0
20 -3 54 -6 75 -4 23 -3 37 4 37 6 0 12 -5 14 -11z m408 -9 c11 -11 20 -29 20
-40 0 -17 -7 -20 -51 -20 -41 0 -50 -3 -47 -16 5 -28 35 -41 59 -26 25 16 37
8 19 -13 -18 -21 -66 -19 -90 5 -43 43 -13 130 45 130 14 0 34 -9 45 -20z
m100 -5 c7 -14 17 -25 21 -25 5 0 16 11 25 25 9 14 23 25 31 25 11 0 8 -9 -12
-36 l-27 -36 19 -26 c32 -45 35 -52 21 -52 -8 0 -22 14 -32 32 l-19 31 -28
-34 c-35 -44 -49 -31 -15 14 l26 34 -25 33 c-29 39 -29 40 -12 40 8 0 20 -11
27 -25z m968 9 c8 -14 10 -14 21 0 15 18 61 22 61 6 0 -5 -11 -10 -24 -10 -34
0 -56 -35 -56 -87 0 -24 -4 -43 -10 -43 -6 0 -10 26 -10 59 0 33 -3 66 -6 75
-8 21 12 21 24 0z m152 -36 c0 -64 10 -81 41 -76 22 3 24 8 27 66 2 46 7 62
17 62 12 0 15 -16 15 -75 0 -67 -11 -96 -23 -62 -4 10 -7 10 -18 0 -20 -19
-57 -16 -69 6 -13 25 -13 131 0 131 6 0 10 -24 10 -52z m252 35 c10 -9 18 -27
18 -40 0 -21 -4 -23 -50 -23 -34 0 -50 -4 -50 -13 0 -33 53 -50 78 -25 6 6 14
9 17 6 11 -11 -27 -38 -54 -38 -37 0 -65 33 -65 75 0 63 62 98 106 58z m-802
-3 c0 -6 -28 -10 -65 -10 -37 0 -65 4 -65 10 0 6 28 10 65 10 37 0 65 -4 65
-10z m0 -70 c0 -6 -28 -10 -65 -10 -37 0 -65 4 -65 10 0 6 28 10 65 10 37 0
65 -4 65 -10z"/>
<path d="M3862 11628 c-16 -16 -15 -60 1 -82 19 -26 49 -16 58 17 15 56 -25
99 -59 65z"/>
<path d="M3697 11634 c-18 -19 -5 -34 29 -34 28 0 35 3 32 18 -3 17 -48 29
-61 16z"/>
<path d="M4362 11628 c-21 -21 -13 -28 29 -28 33 0 40 3 35 16 -3 9 -6 18 -6
20 0 9 -47 3 -58 -8z"/>
<path d="M4867 11633 c-19 -19 -5 -33 33 -33 38 0 40 2 30 20 -10 19 -49 27
-63 13z"/>
<path d="M6342 11628 c-21 -21 -13 -28 28 -28 22 0 40 4 40 8 0 14 -23 32 -40
32 -9 0 -21 -5 -28 -12z"/>
<path d="M2620 10390 l0 -390 2790 0 2790 0 0 390 0 390 -2790 0 -2790 0 0
-390z m950 30 c0 -89 0 -90 24 -90 14 0 28 -4 31 -10 4 -6 -20 -10 -64 -10
-41 0 -71 4 -71 10 0 6 14 10 30 10 l30 0 0 80 c0 73 -2 80 -20 80 -11 0 -20
5 -20 10 0 6 14 10 30 10 l30 0 0 -90z m940 55 c0 -32 2 -35 19 -25 53 28 81
-1 81 -81 0 -45 -3 -59 -15 -59 -10 0 -15 16 -17 63 -3 56 -5 62 -25 65 -27 4
-43 -29 -43 -89 0 -21 -4 -39 -10 -39 -6 0 -10 40 -10 100 0 60 4 100 10 100
6 0 10 -16 10 -35z m224 -12 c-13 -25 -24 -63 -24 -83 0 -20 11 -58 24 -83 16
-32 19 -47 11 -47 -21 0 -55 82 -55 130 0 48 34 130 55 130 8 0 5 -15 -11 -47z
m1160 13 c17 -21 21 -42 21 -96 0 -54 -4 -75 -21 -96 -31 -42 -47 -41 -22 2
16 28 23 54 23 94 0 40 -7 66 -23 94 -25 43 -9 44 22 2z m-2153 -16 c16 0 29
-4 29 -10 0 -5 -14 -10 -31 -10 l-30 0 3 -52 c3 -52 4 -53 36 -56 38 -4 33
-22 -7 -22 -39 0 -51 17 -51 76 0 31 -5 54 -12 56 -7 3 -5 12 8 26 15 18 20
20 22 7 2 -9 14 -15 33 -15z m1639 15 c0 -10 10 -15 30 -15 17 0 30 -4 30 -10
0 -5 -14 -10 -31 -10 l-30 0 3 -52 c3 -49 5 -53 31 -56 39 -5 33 -22 -8 -22
-42 0 -55 20 -55 84 0 25 -4 46 -10 46 -5 0 -10 5 -10 10 0 6 7 10 15 10 8 0
15 7 15 15 0 8 5 15 10 15 6 0 10 -7 10 -15z m-2520 -32 c0 -15 1 -15 18 0 20
19 62 23 62 7 0 -5 -8 -10 -18 -10 -34 0 -52 -24 -59 -77 -3 -29 -9 -53 -14
-53 -4 0 -9 34 -11 75 -2 55 0 75 10 75 6 0 12 -7 12 -17z m226 9 c13 -8 34
-46 34 -61 0 -7 -23 -11 -55 -11 -59 0 -60 -1 -45 -31 12 -21 50 -25 68 -7 6
6 15 8 19 4 12 -11 -27 -36 -56 -36 -13 0 -33 7 -43 17 -23 21 -24 89 -1 115
16 18 59 24 79 10z m168 2 c17 -7 22 -34 6 -34 -5 0 -10 5 -10 10 0 6 -14 10
-31 10 -40 0 -36 -29 6 -43 40 -13 55 -26 55 -48 0 -21 -28 -39 -62 -39 -28 0
-66 25 -56 36 4 4 14 1 22 -5 19 -16 71 -10 71 8 0 8 -18 20 -40 28 -55 19
-67 40 -39 67 16 16 50 21 78 10z m96 -36 c0 -71 9 -90 39 -86 25 3 26 6 29
66 2 46 7 62 17 62 12 0 15 -16 15 -75 0 -67 -11 -96 -23 -62 -4 10 -7 10 -18
0 -17 -16 -51 -17 -67 -1 -15 15 -16 138 -2 138 6 0 10 -19 10 -42z m660 30
c0 -9 3 -9 12 0 34 34 88 -4 88 -63 0 -59 -54 -97 -88 -63 -9 9 -12 3 -12 -30
0 -23 -4 -42 -9 -42 -6 0 -11 47 -13 105 -2 79 0 105 10 105 6 0 12 -5 12 -12z
m172 -50 c3 -53 6 -63 22 -66 28 -6 46 25 46 80 0 26 5 48 10 48 6 0 10 -32
10 -75 0 -43 -4 -75 -10 -75 -5 0 -10 5 -10 10 0 7 -6 7 -19 0 -30 -16 -59
-12 -71 9 -16 31 -13 131 5 131 10 0 15 -16 17 -62z m232 56 c17 -7 22 -34 6
-34 -5 0 -10 5 -10 10 0 6 -14 10 -31 10 -40 0 -36 -29 6 -43 40 -13 55 -26
55 -48 0 -21 -28 -39 -62 -39 -28 0 -66 25 -56 36 4 4 14 1 22 -5 19 -16 71
-10 71 8 0 8 -18 20 -40 28 -55 19 -67 40 -39 67 16 16 50 21 78 10z m446 -55
l23 -61 25 61 c13 34 30 61 37 61 10 0 5 -21 -17 -75 -27 -67 -48 -90 -62 -67
-2 4 -16 38 -30 75 -19 50 -22 67 -12 67 8 0 24 -27 36 -61z m226 53 c13 -8
34 -46 34 -61 0 -7 -23 -11 -55 -11 -59 0 -60 -1 -45 -31 12 -21 50 -25 68 -7
6 6 15 8 19 4 12 -11 -27 -36 -56 -36 -13 0 -33 7 -43 17 -23 21 -24 89 -1
115 16 18 59 24 79 10z m106 -3 c3 -9 9 -9 25 0 27 14 63 14 63 1 0 -5 -10
-10 -22 -10 -38 0 -58 -28 -58 -82 0 -26 -4 -48 -10 -48 -5 0 -10 17 -10 38 0
20 -3 54 -6 75 -4 23 -3 37 4 37 6 0 12 -5 14 -11z m408 -9 c11 -11 20 -29 20
-40 0 -17 -7 -20 -51 -20 -41 0 -50 -3 -47 -16 5 -28 35 -41 59 -26 25 16 37
8 19 -13 -18 -21 -66 -19 -90 5 -43 43 -13 130 45 130 14 0 34 -9 45 -20z
m100 -5 c7 -14 17 -25 21 -25 5 0 16 11 25 25 9 14 23 25 31 25 11 0 8 -9 -12
-36 l-27 -36 19 -26 c32 -45 35 -52 21 -52 -8 0 -22 14 -32 32 l-19 31 -28
-34 c-35 -44 -49 -31 -15 14 l26 34 -25 33 c-29 39 -29 40 -12 40 8 0 20 -11
27 -25z m360 5 c0 -11 -7 -20 -15 -20 -8 0 -15 9 -15 20 0 11 7 20 15 20 8 0
15 -9 15 -20z m-2160 -110 c0 -11 -7 -20 -15 -20 -8 0 -15 9 -15 20 0 11 7 20
15 20 8 0 15 -9 15 -20z m2160 15 c0 -2 -8 -20 -17 -40 -19 -39 -38 -48 -28
-12 4 12 9 30 11 40 5 14 34 26 34 12z"/>
<path d="M3022 10428 c-21 -21 -13 -28 29 -28 33 0 40 3 35 16 -3 9 -6 18 -6
20 0 9 -47 3 -58 -8z"/>
<path d="M4022 10428 c-17 -17 -15 -73 3 -88 8 -6 22 -10 32 -8 14 3 18 13 18
53 0 42 -3 50 -20 53 -11 1 -26 -3 -33 -10z"/>
<path d="M5022 10428 c-21 -21 -13 -28 29 -28 33 0 40 3 35 16 -3 9 -6 18 -6
20 0 9 -47 3 -58 -8z"/>
<path d="M5527 10433 c-19 -19 -5 -33 33 -33 38 0 40 2 30 20 -10 19 -49 27
-63 13z"/>
<path d="M2620 8590 l0 -990 2790 0 2790 0 0 990 0 990 -2790 0 -2790 0 0
-990z m1278 588 c-6 -18 -28 -21 -28 -4 0 9 7 16 16 16 9 0 14 -5 12 -12z
m282 -23 c0 -33 2 -35 21 -25 29 16 65 5 73 -22 3 -13 6 -44 6 -70 0 -35 -4
-48 -15 -48 -10 0 -15 16 -17 62 -3 53 -6 63 -22 66 -28 6 -46 -25 -46 -80 0
-26 -4 -48 -10 -48 -6 0 -10 40 -10 100 0 60 4 100 10 100 6 0 10 -16 10 -35z
m170 -2 c0 -29 3 -34 12 -25 34 34 88 -4 88 -63 0 -59 -54 -97 -88 -63 -9 9
-12 9 -12 0 0 -7 -6 -12 -12 -12 -10 0 -12 25 -10 100 2 55 8 100 13 100 5 0
9 -17 9 -37z m2050 21 c0 -17 -22 -14 -28 4 -2 7 3 12 12 12 9 0 16 -7 16 -16z
m280 -19 c0 -32 2 -35 19 -25 53 28 81 -1 81 -81 0 -45 -3 -59 -15 -59 -10 0
-15 16 -17 63 -3 56 -5 62 -25 65 -27 4 -43 -29 -43 -89 0 -21 -4 -39 -10 -39
-6 0 -10 40 -10 100 0 60 4 100 10 100 6 0 10 -16 10 -35z m170 0 c0 -32 2
-35 19 -25 48 25 81 -1 81 -65 0 -64 -33 -90 -81 -65 -13 7 -19 7 -19 0 0 -5
-4 -10 -10 -10 -6 0 -10 40 -10 100 0 60 4 100 10 100 6 0 10 -16 10 -35z
m724 -12 c-13 -25 -24 -63 -24 -83 0 -20 11 -58 24 -83 16 -32 19 -47 11 -47
-21 0 -55 82 -55 130 0 48 34 130 55 130 8 0 5 -15 -11 -47z m-1704 12 c0 -10
10 -15 30 -15 17 0 30 -4 30 -10 0 -5 -14 -10 -31 -10 l-30 0 3 -52 c3 -49 5
-53 31 -56 39 -5 33 -22 -8 -22 -42 0 -55 20 -55 84 0 25 -4 46 -10 46 -5 0
-10 5 -10 10 0 6 7 10 15 10 8 0 15 7 15 15 0 8 5 15 10 15 6 0 10 -7 10 -15z
m182 -57 l37 -73 0 73 c1 41 5 72 11 72 6 0 10 -37 10 -90 0 -116 -17 -121
-65 -17 l-34 72 -1 -72 c0 -42 -4 -73 -10 -73 -6 0 -10 37 -10 90 0 113 12
116 62 18z m-3193 -18 c12 -33 23 -60 25 -60 2 0 13 27 25 60 12 34 28 60 36
60 10 0 6 -19 -17 -75 -31 -77 -52 -93 -67 -52 -5 12 -18 46 -30 75 -16 40
-18 52 -7 52 7 0 23 -27 35 -60z m229 48 c7 -7 12 -33 12 -58 0 -25 5 -51 12
-58 17 -17 1 -28 -21 -15 -12 7 -23 8 -35 1 -10 -5 -28 -7 -42 -4 -19 5 -24
13 -24 36 0 33 22 50 65 50 20 0 26 4 23 18 -4 20 -47 29 -58 12 -4 -7 -13
-11 -20 -8 -9 3 -8 9 4 21 20 20 67 22 84 5z m106 -4 c5 -14 7 -14 22 0 17 18
64 22 64 6 0 -5 -10 -10 -22 -10 -38 0 -58 -28 -58 -82 0 -26 -4 -48 -10 -48
-5 0 -10 20 -10 44 0 24 -3 58 -6 75 -7 32 9 44 20 15z m316 4 c0 -9 3 -9 12
0 7 7 21 12 33 12 12 0 26 -5 33 -12 15 -15 16 -138 2 -138 -5 0 -10 22 -10
49 0 61 -7 81 -29 81 -29 0 -41 -22 -41 -77 0 -81 -18 -63 -22 22 -2 55 0 75
10 75 6 0 12 -5 12 -12z m236 4 c13 -8 34 -46 34 -61 0 -7 -23 -11 -55 -11
-59 0 -60 -1 -45 -31 12 -21 50 -25 68 -7 6 6 15 8 19 4 12 -11 -27 -36 -56
-36 -13 0 -33 7 -43 17 -23 21 -24 89 -1 115 16 18 59 24 79 10z m154 -57 c0
-63 1 -65 25 -65 14 0 25 -4 25 -10 0 -6 -30 -10 -70 -10 -40 0 -70 4 -70 10
0 6 14 10 30 10 30 0 30 1 30 55 0 48 -2 55 -20 55 -11 0 -20 5 -20 10 0 6 16
10 35 10 l35 0 0 -65z m166 54 c4 -8 9 -8 17 0 22 22 27 9 27 -72 0 -96 -14
-127 -59 -127 -16 0 -34 7 -41 15 -17 21 -7 29 18 14 36 -23 50 -6 50 63 1 82
-4 98 -33 98 -24 0 -35 -17 -35 -55 0 -39 11 -55 37 -55 13 0 21 -4 18 -10 -9
-15 -51 -12 -65 5 -20 24 -16 106 6 122 22 16 50 17 60 2z m524 1 c37 -20 34
-107 -4 -132 -19 -13 -59 -9 -78 9 -23 21 -24 89 -1 115 18 20 54 23 83 8z
m102 -1 c3 -9 9 -9 25 0 27 14 63 14 63 1 0 -5 -10 -10 -22 -10 -38 0 -58 -28
-58 -82 0 -26 -4 -48 -10 -48 -5 0 -10 17 -10 38 0 20 -3 54 -6 75 -4 23 -3
37 4 37 6 0 12 -5 14 -11z m232 5 c17 -7 22 -34 6 -34 -5 0 -10 5 -10 10 0 6
-14 10 -31 10 -40 0 -36 -29 6 -43 40 -13 55 -26 55 -48 0 -21 -28 -39 -62
-39 -28 0 -66 25 -56 36 4 4 14 1 22 -5 19 -16 71 -10 71 8 0 8 -18 20 -40 28
-55 19 -67 40 -39 67 16 16 50 21 78 10z m644 -6 c9 -9 12 -9 12 0 0 7 5 12
10 12 6 0 10 -36 10 -89 0 -68 -4 -93 -16 -105 -18 -18 -47 -20 -75 -6 -23 13
-25 30 -4 30 8 0 15 -4 15 -10 0 -16 47 -11 54 6 12 32 7 45 -13 34 -46 -24
-81 1 -81 58 0 65 52 106 88 70z m178 4 c13 -8 34 -46 34 -61 0 -7 -23 -11
-55 -11 -59 0 -60 -1 -45 -31 12 -21 50 -25 68 -7 6 6 15 8 19 4 12 -11 -27
-36 -56 -36 -13 0 -33 7 -43 17 -23 21 -24 89 -1 115 16 18 59 24 79 10z m514
-12 c11 -11 20 -29 20 -40 0 -17 -7 -20 -51 -20 -41 0 -50 -3 -47 -16 5 -28
35 -41 59 -26 25 16 37 8 19 -13 -18 -21 -66 -19 -90 5 -43 43 -13 130 45 130
14 0 34 -9 45 -20z m140 -45 c0 -63 1 -65 25 -65 14 0 25 -4 25 -10 0 -6 -28
-10 -65 -10 -37 0 -65 4 -65 10 0 6 14 10 30 10 30 0 30 1 30 55 0 52 -1 55
-25 55 -14 0 -25 5 -25 10 0 6 16 10 35 10 l35 0 0 -65z m171 55 c13 -7 19 -7
19 0 0 5 5 10 10 10 6 0 10 -36 10 -87 0 -66 -4 -91 -17 -105 -20 -22 -66 -24
-83 -3 -16 19 -5 34 12 17 18 -18 46 -14 58 7 16 31 13 43 -9 31 -48 -25 -81
1 -81 65 0 64 33 90 81 65z m531 -7 c25 -23 24 -87 -2 -113 -43 -43 -110 -10
-110 55 0 63 67 99 112 58z m98 0 c0 -15 1 -15 18 0 20 19 62 23 62 7 0 -5 -8
-10 -18 -10 -34 0 -52 -24 -59 -77 -3 -29 -9 -53 -14 -53 -4 0 -9 34 -11 75
-2 55 0 75 10 75 6 0 12 -7 12 -17z m231 6 c11 -5 17 -14 13 -20 -4 -6 -11 -6
-19 1 -18 15 -60 9 -60 -9 0 -8 13 -18 28 -22 79 -21 74 -89 -5 -89 -28 0 -66
25 -56 36 4 4 14 1 22 -5 20 -17 71 -10 71 9 0 8 -13 20 -30 25 -43 14 -55 24
-55 44 0 37 48 54 91 30z m-2141 -9 c0 -6 -28 -10 -65 -10 -37 0 -65 4 -65 10
0 6 28 10 65 10 37 0 65 -4 65 -10z m0 -70 c0 -6 -28 -10 -65 -10 -37 0 -65 4
-65 10 0 6 28 10 65 10 37 0 65 -4 65 -10z m-1130 -215 c0 -33 2 -35 21 -25
29 16 65 5 73 -22 3 -13 6 -44 6 -70 0 -35 -4 -48 -15 -48 -10 0 -15 16 -17
62 -3 53 -6 63 -22 66 -28 6 -46 -25 -46 -80 0 -26 -4 -48 -10 -48 -6 0 -10
40 -10 100 0 60 4 100 10 100 6 0 10 -16 10 -35z m-612 -27 c9 -9 12 -9 12 0
0 7 5 12 10 12 6 0 10 -36 10 -89 0 -68 -4 -93 -16 -105 -18 -18 -47 -20 -75
-6 -23 13 -25 30 -4 30 8 0 15 -4 15 -10 0 -16 47 -11 54 6 12 32 7 45 -13 34
-46 -24 -81 1 -81 58 0 65 52 106 88 70z m118 -3 c5 -13 8 -13 21 0 16 17 63
20 63 5 0 -5 -9 -10 -20 -10 -35 0 -60 -35 -60 -85 0 -25 -4 -45 -10 -45 -6 0
-10 26 -10 59 0 33 -3 66 -6 75 -3 9 -1 16 5 16 7 0 14 -7 17 -15z m225 5 c15
-9 19 -22 19 -65 0 -34 5 -55 13 -58 6 -2 8 -8 4 -13 -4 -4 -16 -3 -26 3 -11
7 -23 8 -32 2 -35 -22 -79 0 -79 40 0 20 33 41 66 41 37 0 37 0 28 24 -7 17
-54 22 -54 6 0 -5 -7 -10 -15 -10 -20 0 -19 17 3 29 22 13 48 14 73 1z m99 0
c0 -7 6 -7 19 0 48 25 81 -1 81 -65 0 -57 -21 -79 -67 -70 -32 6 -33 5 -33
-30 0 -19 -4 -35 -10 -35 -6 0 -10 42 -10 105 0 63 4 105 10 105 6 0 10 -5 10
-10z m380 -105 c0 -13 -42 -87 -46 -82 -11 10 17 87 31 87 8 0 15 -2 15 -5z
m-350 -190 c0 -10 10 -15 30 -15 17 0 30 -4 30 -10 0 -5 -14 -10 -31 -10 l-30
0 3 -52 c3 -49 5 -53 31 -56 39 -5 33 -22 -8 -22 -42 0 -55 20 -55 84 0 25 -4
46 -10 46 -5 0 -10 5 -10 10 0 6 7 10 15 10 8 0 15 7 15 15 0 8 5 15 10 15 6
0 10 -7 10 -15z m-520 -76 l23 -61 25 61 c13 34 30 61 37 61 10 0 5 -21 -17
-75 -27 -67 -48 -90 -62 -67 -2 4 -16 38 -30 75 -19 50 -22 67 -12 67 8 0 24
-27 36 -61z m226 53 c13 -8 34 -46 34 -61 0 -7 -23 -11 -55 -11 -59 0 -60 -1
-45 -31 12 -21 50 -25 68 -7 6 6 15 8 19 4 12 -11 -27 -36 -56 -36 -13 0 -33
7 -43 17 -23 21 -24 89 -1 115 16 18 59 24 79 10z m106 -3 c3 -9 9 -9 25 0 27
14 63 14 63 1 0 -5 -10 -10 -22 -10 -38 0 -58 -28 -58 -82 0 -26 -4 -48 -10
-48 -5 0 -10 17 -10 38 0 20 -3 54 -6 75 -4 23 -3 37 4 37 6 0 12 -5 14 -11z
m408 -9 c11 -11 20 -29 20 -40 0 -17 -7 -20 -51 -20 -41 0 -50 -3 -47 -16 5
-28 35 -41 59 -26 25 16 37 8 19 -13 -18 -21 -66 -19 -90 5 -43 43 -13 130 45
130 14 0 34 -9 45 -20z m100 -5 c7 -14 17 -25 21 -25 5 0 16 11 25 25 9 14 23
25 31 25 11 0 8 -9 -12 -36 l-27 -36 19 -26 c32 -45 35 -52 21 -52 -8 0 -22
14 -32 32 l-19 31 -28 -34 c-35 -44 -49 -31 -15 14 l26 34 -25 33 c-29 39 -29
40 -12 40 8 0 20 -11 27 -25z m-1446 -279 c17 -21 21 -42 21 -96 0 -54 -4 -75
-21 -96 -31 -42 -47 -41 -22 2 16 28 23 54 23 94 0 40 -7 66 -23 94 -25 43 -9
44 22 2z"/>
<path d="M4362 9108 c-17 -17 -15 -73 3 -88 8 -6 22 -10 32 -8 14 3 18 13 18
53 0 42 -3 50 -20 53 -11 1 -26 -3 -33 -10z"/>
<path d="M6865 9109 c-4 -6 -7 -25 -7 -44 0 -41 8 -55 31 -55 26 0 41 20 41
55 0 17 -5 36 -12 43 -15 15 -45 16 -53 1z"/>
<path d="M3014 9045 c-8 -19 3 -35 25 -35 20 0 41 19 41 37 0 18 -59 17 -66
-2z"/>
<path d="M3682 9108 c-21 -21 -13 -28 29 -28 33 0 40 3 35 16 -3 9 -6 18 -6
20 0 9 -47 3 -58 -8z"/>
<path d="M4518 9095 c-23 -51 20 -106 57 -75 15 13 20 56 9 84 -10 26 -53 20
-66 -9z"/>
<path d="M5514 9106 c-3 -8 -4 -31 -2 -52 3 -34 6 -39 28 -39 32 0 49 42 32
80 -13 27 -49 34 -58 11z"/>
<path d="M5682 9108 c-21 -21 -13 -28 29 -28 33 0 40 3 35 16 -3 9 -6 18 -6
20 0 9 -47 3 -58 -8z"/>
<path d="M6187 9113 c-19 -19 -5 -33 33 -33 38 0 40 2 30 20 -10 19 -49 27
-63 13z"/>
<path d="M6518 9095 c-17 -37 0 -80 31 -80 30 0 46 40 32 78 -14 35 -47 36
-63 2z"/>
<path d="M7024 9106 c-3 -8 -4 -31 -2 -52 3 -36 5 -39 33 -39 37 0 55 39 37
80 -13 28 -59 35 -68 11z"/>
<path d="M3494 8786 c-3 -8 -4 -31 -2 -52 3 -34 6 -39 28 -39 32 0 49 42 32
80 -13 27 -49 34 -58 11z"/>
<path d="M3827 8733 c-4 -3 -7 -15 -7 -25 0 -25 46 -24 60 1 5 11 10 22 10 25
0 8 -55 7 -63 -1z"/>
<path d="M4007 8793 c-4 -3 -7 -26 -7 -50 0 -47 19 -65 49 -46 20 12 27 69 10
89 -12 15 -41 19 -52 7z"/>
<path d="M3662 8468 c-21 -21 -13 -28 29 -28 33 0 40 3 35 16 -3 9 -6 18 -6
20 0 9 -47 3 -58 -8z"/>
<path d="M4167 8473 c-19 -19 -5 -33 33 -33 38 0 40 2 30 20 -10 19 -49 27
-63 13z"/>
<path d="M5420 6991 l0 -191 1213 0 1212 0 200 -200 200 -200 187 0 188 0 0
-400 0 -400 1100 0 1100 0 0 -410 0 -410 -1100 0 -1100 0 0 -190 0 -190 1100
0 1100 0 0 -410 0 -410 -1100 0 -1100 0 0 -190 0 -190 1290 0 1290 0 0 1990 0
1990 -2680 0 -2680 0 0 -60 c0 -33 -3 -60 -7 -60 -4 0 -90 25 -192 56 -102 30
-194 57 -203 60 -17 5 -18 -8 -18 -185z m3080 -361 c0 -47 4 -80 10 -80 6 0
10 -18 10 -40 0 -22 -4 -40 -10 -40 -5 0 -10 14 -10 30 l0 30 -60 0 -60 0 0
-30 c0 -16 -4 -30 -10 -30 -16 0 -12 77 4 83 17 7 36 67 36 113 0 39 5 44 52
44 l38 0 0 -80z m148 38 c7 -7 12 -30 12 -53 0 -22 7 -51 16 -63 14 -21 14
-22 -5 -22 -11 0 -22 4 -25 9 -4 5 -18 5 -35 -2 -34 -13 -56 -5 -64 22 -8 32
19 61 59 61 24 0 34 5 34 15 0 23 -28 30 -56 15 -30 -16 -41 -8 -19 14 19 19
66 21 83 4z"/>
<path d="M8435 6665 c-3 -14 -7 -37 -10 -52 -3 -16 -8 -36 -11 -45 -4 -15 1
-18 30 -18 l36 0 0 70 c0 63 -2 70 -20 70 -13 0 -21 -8 -25 -25z"/>
<path d="M8574 6585 c-8 -19 3 -35 25 -35 20 0 41 19 41 37 0 18 -59 17 -66
-2z"/>
<path d="M2770 6585 l-195 -195 195 -195 195 -195 2445 0 2445 0 188 188 c103
103 187 194 187 202 0 8 -84 100 -188 203 l-187 187 -2445 0 -2445 0 -195
-195z m330 -91 c0 -17 -22 -14 -28 4 -2 7 3 12 12 12 9 0 16 -7 16 -16z m978
4 c-6 -18 -28 -21 -28 -4 0 9 7 16 16 16 9 0 14 -5 12 -12z m282 -23 c0 -33 2
-35 21 -25 29 16 65 5 73 -22 3 -13 6 -44 6 -70 0 -35 -4 -48 -15 -48 -10 0
-15 16 -17 62 -3 53 -6 63 -22 66 -28 6 -46 -25 -46 -80 0 -26 -4 -48 -10 -48
-6 0 -10 40 -10 100 0 60 4 100 10 100 6 0 10 -16 10 -35z m170 -2 c0 -29 3
-34 12 -25 34 34 88 -4 88 -63 0 -59 -54 -97 -88 -63 -9 9 -12 9 -12 0 0 -7
-6 -12 -12 -12 -10 0 -12 25 -10 100 2 55 8 100 13 100 5 0 9 -17 9 -37z m890
-53 c0 -89 0 -90 25 -90 14 0 25 -4 25 -10 0 -6 -28 -10 -65 -10 -37 0 -65 4
-65 10 0 6 14 10 30 10 l30 0 0 80 c0 73 -2 80 -20 80 -11 0 -20 5 -20 10 0 6
14 10 30 10 l30 0 0 -90z m790 53 c0 -29 3 -34 12 -25 7 7 21 12 33 12 12 0
26 -5 33 -12 15 -15 16 -138 2 -138 -5 0 -10 22 -10 49 0 61 -7 81 -29 81 -29
0 -41 -22 -41 -77 0 -29 -4 -53 -10 -53 -6 0 -10 40 -10 100 0 60 4 100 10
100 6 0 10 -17 10 -37z m-140 2 c0 -10 10 -15 31 -15 17 0 28 -4 24 -10 -3 -5
-17 -10 -31 -10 -23 0 -24 -3 -24 -55 0 -54 0 -55 30 -55 17 0 30 -4 30 -10 0
-14 -64 -12 -78 2 -7 7 -12 35 -12 64 0 32 -5 54 -12 56 -8 3 -5 11 8 25 23
26 34 28 34 8z m840 -65 c0 -73 2 -80 20 -80 11 0 20 -4 20 -10 0 -6 -28 -10
-65 -10 -37 0 -65 4 -65 10 0 6 14 10 30 10 l30 0 0 65 c0 62 -1 65 -19 55
-23 -12 -41 -13 -41 -2 0 8 58 39 78 41 9 1 12 -21 12 -79z m-3810 -15 c0 -63
1 -65 25 -65 14 0 25 -4 25 -10 0 -6 -28 -10 -65 -10 -37 0 -65 4 -65 10 0 6
14 10 30 10 30 0 30 1 30 55 0 52 -1 55 -25 55 -14 0 -25 5 -25 10 0 6 16 10
35 10 l35 0 0 -65z m590 53 c0 -9 3 -9 12 0 7 7 21 12 33 12 12 0 26 -5 33
-12 15 -15 16 -138 2 -138 -5 0 -10 22 -10 49 0 61 -7 81 -29 81 -29 0 -41
-22 -41 -77 0 -81 -18 -63 -22 22 -2 55 0 75 10 75 6 0 12 -5 12 -12z m236 4
c13 -8 34 -46 34 -61 0 -7 -23 -11 -55 -11 -59 0 -60 -1 -45 -31 12 -21 50
-25 68 -7 6 6 15 8 19 4 12 -11 -27 -36 -56 -36 -13 0 -33 7 -43 17 -23 21
-24 89 -1 115 16 18 59 24 79 10z m154 -57 c0 -63 1 -65 25 -65 14 0 25 -4 25
-10 0 -6 -30 -10 -70 -10 -40 0 -70 4 -70 10 0 6 14 10 30 10 30 0 30 1 30 55
0 48 -2 55 -20 55 -11 0 -20 5 -20 10 0 6 16 10 35 10 l35 0 0 -65z m166 54
c4 -8 9 -8 17 0 22 22 27 9 27 -72 0 -96 -14 -127 -59 -127 -16 0 -34 7 -41
15 -17 21 -7 29 18 14 36 -23 50 -6 50 63 1 82 -4 98 -33 98 -24 0 -35 -17
-35 -55 0 -39 11 -55 37 -55 13 0 21 -4 18 -10 -9 -15 -51 -12 -65 5 -20 24
-16 106 6 122 22 16 50 17 60 2z m524 1 c37 -20 34 -107 -4 -132 -19 -13 -59
-9 -78 9 -23 21 -24 89 -1 115 18 20 54 23 83 8z m102 -1 c3 -9 9 -9 25 0 27
14 63 14 63 1 0 -5 -10 -10 -22 -10 -38 0 -58 -28 -58 -82 0 -26 -4 -48 -10
-48 -5 0 -10 17 -10 38 0 20 -3 54 -6 75 -4 23 -3 37 4 37 6 0 12 -5 14 -11z
m232 5 c17 -7 22 -34 6 -34 -5 0 -10 5 -10 10 0 6 -14 10 -31 10 -40 0 -36
-29 6 -43 40 -13 55 -26 55 -48 0 -21 -28 -39 -62 -39 -28 0 -66 25 -56 36 4
4 14 1 22 -5 19 -16 71 -10 71 8 0 8 -18 20 -40 28 -55 19 -67 40 -39 67 16
16 50 21 78 10z m502 -2 c13 -8 34 -46 34 -61 0 -7 -23 -11 -55 -11 -59 0 -60
-1 -45 -31 12 -21 50 -25 68 -7 6 6 15 8 19 4 12 -11 -27 -36 -56 -36 -13 0
-33 7 -43 17 -23 21 -24 89 -1 115 16 18 59 24 79 10z m94 -2 c0 -7 6 -7 19 0
30 16 59 12 71 -9 16 -31 13 -131 -5 -131 -10 0 -15 16 -17 63 -3 56 -5 62
-25 65 -27 4 -43 -29 -43 -89 0 -21 -4 -39 -10 -39 -6 0 -10 32 -10 75 0 43 4
75 10 75 6 0 10 -5 10 -10z m226 -1 c4 -8 9 -8 17 0 22 22 27 9 27 -72 0 -96
-14 -127 -59 -127 -16 0 -34 7 -41 15 -17 21 -7 29 18 14 36 -23 50 -6 50 63
1 82 -4 98 -33 98 -24 0 -35 -17 -35 -55 0 -39 11 -55 37 -55 13 0 21 -4 18
-10 -9 -15 -51 -12 -65 5 -20 24 -16 106 6 122 22 16 50 17 60 2z m-2456 -9
c0 -6 -28 -10 -65 -10 -37 0 -65 4 -65 10 0 6 28 10 65 10 37 0 65 -4 65 -10z
m3130 -60 c0 -5 -16 -10 -35 -10 -19 0 -35 5 -35 10 0 6 16 10 35 10 19 0 35
-4 35 -10z m-3130 -10 c0 -6 -28 -10 -65 -10 -37 0 -65 4 -65 10 0 6 28 10 65
10 37 0 65 -4 65 -10z m1790 -40 c0 -11 -7 -20 -15 -20 -8 0 -15 9 -15 20 0
11 7 20 15 20 8 0 15 -9 15 -20z"/>
<path d="M4542 6428 c-17 -17 -15 -73 3 -88 8 -6 22 -10 32 -8 14 3 18 13 18
53 0 42 -3 50 -20 53 -11 1 -26 -3 -33 -10z"/>
<path d="M3862 6428 c-21 -21 -13 -28 29 -28 33 0 40 3 35 16 -3 9 -6 18 -6
20 0 9 -47 3 -58 -8z"/>
<path d="M4698 6415 c-23 -51 20 -106 57 -75 15 13 20 56 9 84 -10 26 -53 20
-66 -9z"/>
<path d="M5542 6428 c-21 -21 -13 -28 29 -28 33 0 40 3 35 16 -3 9 -6 18 -6
20 0 9 -47 3 -58 -8z"/>
<path d="M6420 5190 l0 -390 2190 0 2190 0 0 390 0 390 -2190 0 -2190 0 0
-390z m910 58 l0 -63 31 38 c17 20 38 37 47 37 12 0 9 -7 -11 -28 -33 -34 -33
-37 -2 -78 28 -37 30 -44 13 -44 -7 0 -23 16 -36 36 -26 39 -42 37 -42 -7 0
-19 -5 -29 -15 -29 -12 0 -15 18 -15 100 0 82 3 100 15 100 12 0 15 -14 15
-62z m820 27 c0 -32 2 -35 19 -25 53 28 81 -1 81 -81 0 -45 -3 -59 -15 -59
-10 0 -15 16 -17 63 -3 56 -5 62 -25 65 -27 4 -43 -29 -43 -89 0 -21 -4 -39
-10 -39 -6 0 -10 40 -10 100 0 60 4 100 10 100 6 0 10 -16 10 -35z m224 -12
c-13 -25 -24 -63 -24 -83 0 -20 11 -58 24 -83 16 -32 19 -47 11 -47 -21 0 -55
82 -55 130 0 48 34 130 55 130 8 0 5 -15 -11 -47z m504 35 c-6 -18 -28 -21
-28 -4 0 9 7 16 16 16 9 0 14 -5 12 -12z m282 -23 c0 -33 2 -35 21 -25 29 16
65 5 73 -22 3 -13 6 -44 6 -70 0 -35 -4 -48 -15 -48 -10 0 -15 16 -17 62 -3
53 -6 63 -22 66 -28 6 -46 -25 -46 -80 0 -26 -4 -48 -10 -48 -6 0 -10 40 -10
100 0 60 4 100 10 100 6 0 10 -16 10 -35z m170 -2 c0 -29 3 -34 12 -25 34 34
88 -4 88 -63 0 -59 -54 -97 -88 -63 -9 9 -12 9 -12 0 0 -7 -6 -12 -12 -12 -10
0 -12 25 -10 100 2 55 8 100 13 100 5 0 9 -17 9 -37z m760 27 c0 -5 -11 -10
-25 -10 l-25 0 0 -110 0 -110 25 0 c14 0 25 -4 25 -10 0 -5 -16 -10 -35 -10
l-35 0 0 130 0 130 35 0 c19 0 35 -4 35 -10z m130 -6 c0 -17 -22 -14 -28 4 -2
7 3 12 12 12 9 0 16 -7 16 -16z m170 -114 l0 -130 -35 0 c-19 0 -35 5 -35 10
0 6 11 10 25 10 l25 0 0 110 0 110 -25 0 c-14 0 -25 5 -25 10 0 6 16 10 35 10
l35 0 0 -130z m144 96 c17 -21 21 -42 21 -96 0 -54 -4 -75 -21 -96 -31 -42
-47 -41 -22 2 16 28 23 54 23 94 0 40 -7 66 -23 94 -25 43 -9 44 22 2z m-3694
-1 c0 -10 10 -15 30 -15 17 0 30 -4 30 -10 0 -5 -14 -10 -31 -10 l-30 0 3 -52
c3 -52 4 -53 38 -59 26 -4 31 -7 18 -13 -9 -4 -29 -6 -45 -4 -27 3 -28 5 -31
66 -2 46 -7 62 -17 62 -8 0 -15 5 -15 10 0 6 7 10 15 10 8 0 15 7 15 15 0 8 5
15 10 15 6 0 10 -7 10 -15z m-114 -29 c10 -8 16 -18 12 -22 -4 -4 -14 -1 -22
5 -19 16 -61 10 -61 -8 0 -8 18 -19 40 -25 43 -12 58 -43 35 -72 -13 -14 -56
-19 -84 -8 -17 7 -22 34 -6 34 6 0 10 -5 10 -11 0 -6 14 -9 33 -7 41 4 43 29
2 43 -43 14 -55 24 -55 44 0 39 57 55 96 27z m325 4 c15 -9 19 -22 19 -65 0
-34 5 -55 13 -58 6 -2 8 -8 4 -13 -4 -4 -16 -3 -26 3 -11 7 -23 8 -32 2 -35
-22 -79 0 -79 40 0 20 33 41 66 41 37 0 37 0 28 24 -7 17 -54 22 -54 6 0 -5
-7 -10 -15 -10 -20 0 -19 17 3 29 22 13 48 14 73 1z m184 -6 c22 -23 10 -30
-21 -14 -34 19 -58 3 -62 -39 -6 -55 32 -79 70 -44 25 22 36 8 13 -17 -38 -42
-115 -6 -115 55 0 12 9 34 21 49 24 30 69 35 94 10z m415 4 c0 -9 3 -9 12 0
34 34 88 -4 88 -63 0 -59 -54 -97 -88 -63 -9 9 -12 3 -12 -30 0 -23 -4 -42 -9
-42 -6 0 -11 47 -13 105 -2 79 0 105 10 105 6 0 12 -5 12 -12z m172 -50 c3
-53 6 -63 22 -66 28 -6 46 25 46 80 0 26 5 48 10 48 6 0 10 -32 10 -75 0 -43
-4 -75 -10 -75 -5 0 -10 5 -10 10 0 7 -6 7 -19 0 -30 -16 -59 -12 -71 9 -16
31 -13 131 5 131 10 0 15 -16 17 -62z m232 56 c17 -7 22 -34 6 -34 -5 0 -10 5
-10 10 0 6 -14 10 -31 10 -40 0 -36 -29 6 -43 40 -13 55 -26 55 -48 0 -21 -28
-39 -62 -39 -28 0 -66 25 -56 36 4 4 14 1 22 -5 19 -16 71 -10 71 8 0 8 -18
20 -40 28 -55 19 -67 40 -39 67 16 16 50 21 78 10z m436 -6 c0 -9 3 -9 12 0 7
7 21 12 33 12 12 0 26 -5 33 -12 15 -15 16 -138 2 -138 -5 0 -10 22 -10 49 0
61 -7 81 -29 81 -29 0 -41 -22 -41 -77 0 -81 -18 -63 -22 22 -2 55 0 75 10 75
6 0 12 -5 12 -12z m236 4 c13 -8 34 -46 34 -61 0 -7 -23 -11 -55 -11 -59 0
-60 -1 -45 -31 12 -21 50 -25 68 -7 6 6 15 8 19 4 12 -11 -27 -36 -56 -36 -13
0 -33 7 -43 17 -23 21 -24 89 -1 115 16 18 59 24 79 10z m154 -57 c0 -63 1
-65 25 -65 14 0 25 -4 25 -10 0 -6 -30 -10 -70 -10 -40 0 -70 4 -70 10 0 6 14
10 30 10 30 0 30 1 30 55 0 48 -2 55 -20 55 -11 0 -20 5 -20 10 0 6 16 10 35
10 l35 0 0 -65z m166 54 c4 -8 9 -8 17 0 22 22 27 9 27 -72 0 -96 -14 -127
-59 -127 -16 0 -34 7 -41 15 -17 21 -7 29 18 14 36 -23 50 -6 50 63 1 82 -4
98 -33 98 -24 0 -35 -17 -35 -55 0 -39 11 -55 37 -55 13 0 21 -4 18 -10 -9
-15 -51 -12 -65 5 -20 24 -16 106 6 122 22 16 50 17 60 2z m524 1 c37 -20 34
-107 -4 -132 -19 -13 -59 -9 -78 9 -23 21 -24 89 -1 115 18 20 54 23 83 8z
m102 -1 c3 -9 9 -9 25 0 27 14 63 14 63 1 0 -5 -10 -10 -22 -10 -38 0 -58 -28
-58 -82 0 -26 -4 -48 -10 -48 -5 0 -10 17 -10 38 0 20 -3 54 -6 75 -4 23 -3
37 4 37 6 0 12 -5 14 -11z m232 5 c17 -7 22 -34 6 -34 -5 0 -10 5 -10 10 0 6
-14 10 -31 10 -40 0 -36 -29 6 -43 40 -13 55 -26 55 -48 0 -21 -28 -39 -62
-39 -28 0 -66 25 -56 36 4 4 14 1 22 -5 19 -16 71 -10 71 8 0 8 -18 20 -40 28
-55 19 -67 40 -39 67 16 16 50 21 78 10z m316 -59 c0 -63 1 -65 25 -65 14 0
25 -4 25 -10 0 -6 -28 -10 -65 -10 -37 0 -65 4 -65 10 0 6 14 10 30 10 30 0
30 1 30 55 0 52 -1 55 -25 55 -14 0 -25 5 -25 10 0 6 16 10 35 10 l35 0 0 -65z
m-2680 -65 c0 -11 -7 -20 -15 -20 -8 0 -15 9 -15 20 0 11 7 20 15 20 8 0 15
-9 15 -20z"/>
<path d="M9342 5228 c-17 -17 -15 -73 3 -88 8 -6 22 -10 32 -8 14 3 18 13 18
53 0 42 -3 50 -20 53 -11 1 -26 -3 -33 -10z"/>
<path d="M6987 5173 c-4 -3 -7 -15 -7 -25 0 -25 46 -24 60 1 5 11 10 22 10 25
0 8 -55 7 -63 -1z"/>
<path d="M7662 5228 c-17 -17 -15 -73 3 -88 8 -6 22 -10 32 -8 14 3 18 13 18
53 0 42 -3 50 -20 53 -11 1 -26 -3 -33 -10z"/>
<path d="M8662 5228 c-21 -21 -13 -28 29 -28 33 0 40 3 35 16 -3 9 -6 18 -6
20 0 9 -47 3 -58 -8z"/>
<path d="M9498 5215 c-23 -51 20 -106 57 -75 15 13 20 56 9 84 -10 26 -53 20
-66 -9z"/>
<path d="M6420 3990 l0 -390 2190 0 2190 0 0 390 0 390 -2190 0 -2190 0 0
-390z m280 104 c0 -17 -22 -14 -28 4 -2 7 3 12 12 12 9 0 16 -7 16 -16z m640
0 c0 -17 -22 -14 -28 4 -2 7 3 12 12 12 9 0 16 -7 16 -16z m650 -84 c0 -73 2
-80 20 -80 11 0 20 -4 20 -10 0 -6 -28 -10 -65 -10 -37 0 -65 4 -65 10 0 6 14
10 30 10 l30 0 0 65 c0 62 -1 65 -19 55 -23 -12 -41 -13 -41 -2 0 8 58 39 78
41 9 1 12 -21 12 -79z m-1290 -15 c0 -63 1 -65 25 -65 14 0 25 -4 25 -10 0 -6
-28 -10 -65 -10 -37 0 -65 4 -65 10 0 6 14 10 30 10 30 0 30 1 30 55 0 52 -1
55 -25 55 -14 0 -25 5 -25 10 0 6 16 10 35 10 l35 0 0 -65z m640 0 c0 -63 1
-65 25 -65 14 0 25 -4 25 -10 0 -6 -28 -10 -65 -10 -37 0 -65 4 -65 10 0 6 14
10 30 10 30 0 30 1 30 55 0 52 -1 55 -25 55 -14 0 -25 5 -25 10 0 6 16 10 35
10 l35 0 0 -65z m-270 45 c0 -6 -28 -10 -65 -10 -37 0 -65 4 -65 10 0 6 28 10
65 10 37 0 65 -4 65 -10z m610 -60 c0 -5 -16 -10 -35 -10 -19 0 -35 5 -35 10
0 6 16 10 35 10 19 0 35 -4 35 -10z m-610 -10 c0 -6 -28 -10 -65 -10 -37 0
-65 4 -65 10 0 6 28 10 65 10 37 0 65 -4 65 -10z"/>
<path d="M420 1990 l0 -390 1790 0 1790 0 0 390 0 390 -1790 0 -1790 0 0 -390z
m2110 30 c0 -89 0 -90 24 -90 14 0 28 -4 31 -10 4 -6 -20 -10 -64 -10 -41 0
-71 4 -71 10 0 6 14 10 30 10 l30 0 0 80 c0 73 -2 80 -20 80 -11 0 -20 5 -20
10 0 6 14 10 30 10 l30 0 0 -90z m-1520 55 c0 -10 10 -15 30 -15 17 0 30 -4
30 -10 0 -5 -14 -10 -31 -10 l-30 0 3 -52 c3 -50 5 -53 31 -56 35 -4 25 -22
-13 -22 -36 0 -50 23 -50 84 0 25 -4 46 -10 46 -5 0 -10 5 -10 10 0 6 7 10 15
10 8 0 15 7 15 15 0 8 5 15 10 15 6 0 10 -7 10 -15z m1691 -15 c16 0 29 -4 29
-10 0 -5 -14 -10 -31 -10 l-30 0 3 -52 c3 -52 4 -53 36 -56 38 -4 33 -22 -7
-22 -39 0 -51 17 -51 76 0 31 -5 54 -12 56 -7 3 -5 12 8 26 15 18 20 20 22 7
2 -9 14 -15 33 -15z m-2041 -17 c0 -15 1 -15 18 0 20 18 62 23 62 8 0 -5 -14
-11 -30 -15 -34 -6 -50 -36 -50 -92 0 -67 -18 -33 -22 41 -2 55 0 75 10 75 6
0 12 -7 12 -17z m234 1 c9 -8 16 -19 16 -24 0 -5 3 -15 6 -24 5 -13 -3 -16
-50 -16 -60 0 -61 -1 -46 -31 12 -21 50 -25 68 -7 6 6 15 8 19 4 11 -10 -26
-36 -52 -36 -41 0 -65 28 -65 75 0 34 5 47 22 59 29 20 62 20 82 0z m256 -36
c0 -64 10 -81 41 -76 22 3 24 8 27 66 2 46 7 62 17 62 12 0 15 -16 15 -75 0
-67 -11 -96 -23 -62 -4 10 -7 10 -18 0 -20 -19 -57 -16 -69 6 -13 25 -13 131
0 131 6 0 10 -24 10 -52z m180 35 c0 -15 1 -15 18 0 20 19 62 23 62 7 0 -5 -9
-10 -19 -10 -34 0 -51 -28 -51 -81 0 -37 -4 -49 -15 -49 -12 0 -15 15 -15 75
0 43 4 75 10 75 6 0 10 -7 10 -17z m160 8 c0 -5 13 -4 29 2 46 17 61 -2 61
-79 0 -36 -4 -64 -10 -64 -6 0 -10 27 -10 60 0 47 -4 62 -16 67 -32 12 -49
-11 -52 -71 -4 -83 -22 -68 -22 19 0 43 4 75 10 75 6 0 10 -4 10 -9z m330 -8
c0 -15 1 -15 18 0 20 19 62 23 62 7 0 -5 -8 -10 -18 -10 -34 0 -52 -24 -59
-77 -3 -29 -9 -53 -14 -53 -4 0 -9 34 -11 75 -2 55 0 75 10 75 6 0 12 -7 12
-17z m226 9 c13 -8 34 -46 34 -61 0 -7 -23 -11 -55 -11 -59 0 -60 -1 -45 -31
12 -21 50 -25 68 -7 6 6 15 8 19 4 12 -11 -27 -36 -56 -36 -13 0 -33 7 -43 17
-23 21 -24 89 -1 115 16 18 59 24 79 10z m168 2 c17 -7 22 -34 6 -34 -5 0 -10
5 -10 10 0 6 -14 10 -31 10 -40 0 -36 -29 6 -43 40 -13 55 -26 55 -48 0 -21
-28 -39 -62 -39 -28 0 -66 25 -56 36 4 4 14 1 22 -5 19 -16 71 -10 71 8 0 8
-18 20 -40 28 -55 19 -67 40 -39 67 16 16 50 21 78 10z m96 -36 c0 -71 9 -90
39 -86 25 3 26 6 29 66 2 46 7 62 17 62 12 0 15 -16 15 -75 0 -67 -11 -96 -23
-62 -4 10 -7 10 -18 0 -17 -16 -51 -17 -67 -1 -15 15 -16 138 -2 138 6 0 10
-19 10 -42z"/>
<path d="M822 2028 c-21 -21 -14 -28 29 -28 33 0 40 3 37 18 -4 21 -48 28 -66
10z"/>
<path d="M1982 2028 c-21 -21 -13 -28 29 -28 33 0 40 3 35 16 -3 9 -6 18 -6
20 0 9 -47 3 -58 -8z"/>
<path d="M1484 1161 c-159 -54 -264 -201 -264 -371 0 -142 68 -262 192 -338
83 -52 84 -52 799 -52 642 0 667 1 725 20 308 106 359 523 85 699 -96 62 -81
61 -816 60 -608 0 -675 -2 -721 -18z m346 -311 c0 -22 5 -40 10 -40 6 0 23 18
38 40 33 48 63 56 35 9 -10 -17 -24 -35 -30 -41 -10 -8 -5 -21 23 -59 26 -36
32 -49 20 -49 -9 0 -28 18 -42 40 -15 22 -33 40 -40 40 -10 0 -14 -13 -14 -40
0 -29 -4 -40 -15 -40 -12 0 -15 17 -15 90 0 73 3 90 15 90 11 0 15 -11 15 -40z
m240 0 c37 -20 34 -107 -4 -132 -19 -13 -59 -9 -78 9 -23 21 -24 89 -1 115 18
20 54 23 83 8z m90 -20 c0 -28 3 -30 35 -30 32 0 35 2 35 30 0 20 5 30 15 30
12 0 15 -15 15 -75 0 -60 -3 -75 -15 -75 -10 0 -15 11 -15 35 0 33 -2 35 -35
35 -33 0 -35 -2 -35 -35 0 -19 -4 -35 -10 -35 -6 0 -10 32 -10 75 0 43 4 75
10 75 6 0 10 -13 10 -30z m252 13 c10 -9 18 -27 18 -40 0 -21 -4 -23 -50 -23
-34 0 -50 -4 -50 -13 0 -33 53 -50 78 -25 6 6 14 9 17 6 11 -11 -27 -38 -54
-38 -66 0 -93 105 -37 142 19 13 59 9 78 -9z m88 -48 l0 -65 35 0 35 0 0 65
c0 51 3 65 15 65 12 0 15 -14 15 -64 0 -36 5 -68 10 -71 17 -10 12 -75 -5 -75
-10 0 -15 10 -15 30 0 30 -1 30 -55 30 l-55 0 0 75 c0 43 4 75 10 75 6 0 10
-28 10 -65z"/>
<path d="M1998 815 c-23 -51 20 -106 57 -75 15 13 20 56 9 84 -10 26 -53 20
-66 -9z"/>
<path d="M2342 828 c-21 -21 -13 -28 28 -28 22 0 40 4 40 8 0 14 -23 32 -40
32 -9 0 -21 -5 -28 -12z"/>
<path d="M1860 14640 c-10 -18 -8 -20 30 -20 41 0 49 7 28 28 -18 18 -46 14
-58 -8z"/>
<path d="M5002 12238 c-5 -29 -13 -61 -17 -70 -6 -15 -2 -18 29 -18 l36 0 0
70 c0 62 -2 70 -19 70 -15 0 -21 -11 -29 -52z"/>
<path d="M5146 12184 c-8 -21 1 -34 23 -34 20 0 41 19 41 37 0 19 -57 17 -64
-3z"/>
<path d="M5060 5840 c-10 -18 -8 -20 30 -20 41 0 49 7 28 28 -18 18 -46 14
-58 -8z"/>
</g>
</svg>
