<svg version="1.1" xmlns="http://www.w3.org/2000/svg" xmlns:xlink="http://www.w3.org/1999/xlink" width="390" height="200"><defs/><g><rect fill="#202020" stroke="none" x="0" y="0" width="390" height="200"/><g transform="scale(1,1) translate(140,40)"><rect fill="#dddd90" stroke="none" x="-1" y="0" width="2" height="60"/><rect fill="#dddd90" stroke="none" x="-1" y="60" width="2" height="60"/><path fill="none" stroke="#dddd90" paint-order="fill stroke markers" d=" M 0.5 0.5 L 180.5 0.5" stroke-linecap="round" stroke-miterlimit="10"/><path fill="#000000" stroke="none" paint-order="stroke fill markers" d=" M -30 140 A 20 20 0 0 1 -30.000000000000004 100 L 30 100 L 29.999999999999996 100 A 20 20 0 0 1 30 140 Z"/><path fill="none" stroke="#98984D" paint-order="fill stroke markers" d=" M -29.5 140.5 A 20 20 0 0 1 -29.500000000000004 100.5 L 30.5 100.5 L 30.499999999999996 100.5 A 20 20 0 0 1 30.5 140.5 Z" stroke-linecap="round" stroke-miterlimit="10"/><text fill="#ffffcc" stroke="none" font-family="Consolas, Monaco, Cousine" font-size="14px" font-style="normal" font-weight="normal" text-decoration="normal" x="-13" y="124" text-anchor="start" dominant-baseline="alphabetic">End</text><rect fill="#000000" stroke="none" x="-120" y="40" width="240" height="40"/><rect fill="none" stroke="#98984D" x="-119.5" y="40.5" width="240" height="40" stroke-linecap="round" stroke-miterlimit="10"/><text fill="#80ff80" stroke="none" font-family="Consolas, Monaco, Cousine" font-size="14px" font-style="normal" font-weight="normal" text-decoration="normal" x="-110" y="64" text-anchor="start" dominant-baseline="alphabetic">return</text><text fill="#ffffcc" stroke="none" font-family="Consolas, Monaco, Cousine" font-size="14px" font-style="normal" font-weight="normal" text-decoration="normal" x="-52" y="64" text-anchor="start" dominant-baseline="alphabetic">Object</text><text fill="#95DCFC" stroke="none" font-family="Consolas, Monaco, Cousine" font-size="14px" font-style="normal" font-weight="normal" text-decoration="normal" x="-2" y="64" text-anchor="start" dominant-baseline="alphabetic">.</text><text fill="#ffffcc" stroke="none" font-family="Consolas, Monaco, Cousine" font-size="14px" font-style="normal" font-weight="normal" text-decoration="normal" x="6" y="64" text-anchor="start" dominant-baseline="alphabetic">keys</text><text fill="#95DCFC" stroke="none" font-family="Consolas, Monaco, Cousine" font-size="14px" font-style="normal" font-weight="normal" text-decoration="normal" x="40" y="64" text-anchor="start" dominant-baseline="alphabetic">(</text><text fill="#ffffcc" stroke="none" font-family="Consolas, Monaco, Cousine" font-size="14px" font-style="normal" font-weight="normal" text-decoration="normal" x="48" y="64" text-anchor="start" dominant-baseline="alphabetic">graph</text><text fill="#95DCFC" stroke="none" font-family="Consolas, Monaco, Cousine" font-size="14px" font-style="normal" font-weight="normal" text-decoration="normal" x="90" y="64" text-anchor="start" dominant-baseline="alphabetic">)</text><path fill="#000000" stroke="none" paint-order="stroke fill markers" d=" M -90 20 A 20 20 0 0 1 -90 -20 L 90 -20 L 90 -20 A 20 20 0 0 1 90 20 Z"/><path fill="none" stroke="#98984D" paint-order="fill stroke markers" d=" M -89.5 20.5 A 20 20 0 0 1 -89.5 -19.5 L 90.5 -19.5 L 90.5 -19.5 A 20 20 0 0 1 90.5 20.5 Z" stroke-linecap="round" stroke-miterlimit="10"/><text fill="#ffffcc" stroke="none" font-family="Consolas, Monaco, Cousine" font-size="18px" font-style="normal" font-weight="normal" text-decoration="normal" x="-81" y="6" text-anchor="start" dominant-baseline="alphabetic">getVerticesList</text><rect fill="#000000" stroke="none" x="130" y="-20" width="100" height="40"/><rect fill="none" stroke="#98984D" x="130.5" y="-19.5" width="100" height="40" stroke-linecap="round" stroke-miterlimit="10"/><text fill="#ffffcc" stroke="none" font-family="Consolas, Monaco, Cousine" font-size="14px" font-style="normal" font-weight="normal" text-decoration="normal" x="140" y="4" text-anchor="start" dominant-baseline="alphabetic">graph</text></g></g></svg>