<svg version="1.1" xmlns="http://www.w3.org/2000/svg" xmlns:xlink="http://www.w3.org/1999/xlink" width="330" height="540"><defs/><g><rect fill="#97D3E1" stroke="none" x="0" y="0" width="330" height="540"/><g transform="scale(1,1) translate(110,40)"><rect fill="#000000" stroke="none" x="-1" y="0" width="2" height="60"/><rect fill="#000000" stroke="none" x="-1" y="60" width="2" height="40"/><path fill="none" stroke="#000000" paint-order="fill stroke markers" d=" M 1.5 100.5 L 130.5 100.5" stroke-linecap="round" stroke-miterlimit="10"/><g transform="translate(1.5,100.5) rotate(180,0,0)"><path fill="#000000" stroke="#000000" paint-order="fill stroke markers" d=" M -20 -6 L 0 0 L -20 6 Z" stroke-linecap="round" stroke-linejoin="round" stroke-miterlimit="10"/></g><g transform="translate(130.5,100.5) rotate(0,0,0)"/><rect fill="#000000" stroke="none" x="-1" y="100" width="2" height="40"/><rect fill="#000000" stroke="none" x="-1" y="140" width="2" height="60"/><rect fill="#000000" stroke="none" x="-1" y="280" width="2" height="60"/><rect fill="#000000" stroke="none" x="-1" y="340" width="2" height="60"/><rect fill="#000000" stroke="none" x="-1" y="400" width="2" height="60"/><rect fill="#000000" stroke="none" x="130" y="100" width="1" height="240"/><path fill="none" stroke="#000000" paint-order="fill stroke markers" d=" M 0.5 340.5 L 130.5 340.5" stroke-linecap="round" stroke-miterlimit="10"/><path fill="none" stroke="#000000" paint-order="fill stroke markers" d=" M 0.5 140.5 L 110.5 140.5" stroke-linecap="round" stroke-miterlimit="10"/><rect fill="#000000" stroke="none" x="110" y="140" width="1" height="100"/><rect fill="#000000" stroke="none" x="-1" y="200" width="2" height="40"/><rect fill="#000000" stroke="none" x="-1" y="240" width="2" height="40"/><path fill="none" stroke="#000000" paint-order="fill stroke markers" d=" M 0.5 240.5 L 110.5 240.5" stroke-linecap="round" stroke-miterlimit="10"/><path fill="none" stroke="#000000" paint-order="fill stroke markers" d=" M 0.5 0.5 L 150.5 0.5" stroke-linecap="round" stroke-miterlimit="10"/><path fill="rgb(0,0,0)" stroke="none" paint-order="stroke fill markers" d=" M -25 487 A 20 20 0 0 1 -25.000000000000004 447 L 35 447 L 34.99999999999999 447 A 20 20 0 0 1 35 487 Z" fill-opacity="0.3"/><path fill="#ffffff" stroke="none" paint-order="stroke fill markers" d=" M -30 480 A 20 20 0 0 1 -30.000000000000004 440 L 30 440 L 29.999999999999996 440 A 20 20 0 0 1 30 480 Z"/><text fill="#000000" stroke="none" font-family="Consolas, Monaco, Cousine" font-size="14px" font-style="normal" font-weight="normal" text-decoration="normal" x="-12" y="464" text-anchor="start" dominant-baseline="alphabetic">End</text><rect fill="rgb(0,0,0)" stroke="none" x="-85" y="47" width="180" height="40" fill-opacity="0.3"/><rect fill="#ffffff" stroke="none" x="-90" y="40" width="180" height="40"/><text fill="#000000" stroke="none" font-family="Consolas, Monaco, Cousine" font-size="14px" font-style="normal" font-weight="normal" text-decoration="normal" x="-80" y="64" text-anchor="start" dominant-baseline="alphabetic">node</text><text fill="#cc3399" stroke="none" font-family="Consolas, Monaco, Cousine" font-size="14px" font-style="normal" font-weight="normal" text-decoration="normal" x="-41" y="64" text-anchor="start" dominant-baseline="alphabetic">=</text><text fill="#000000" stroke="none" font-family="Consolas, Monaco, Cousine" font-size="14px" font-style="normal" font-weight="normal" text-decoration="normal" x="-25" y="64" text-anchor="start" dominant-baseline="alphabetic">list</text><text fill="#cc3399" stroke="none" font-family="Consolas, Monaco, Cousine" font-size="14px" font-style="normal" font-weight="normal" text-decoration="normal" x="6" y="64" text-anchor="start" dominant-baseline="alphabetic">.</text><text fill="#000000" stroke="none" font-family="Consolas, Monaco, Cousine" font-size="14px" font-style="normal" font-weight="normal" text-decoration="normal" x="14" y="64" text-anchor="start" dominant-baseline="alphabetic">headNode</text><path fill="rgb(0,0,0)" stroke="none" paint-order="stroke fill markers" d=" M -87 147 L -67 127 L 77 127 L 97 147 L 77 167 L -67 167 Z" fill-opacity="0.3"/><path fill="#ffffff" stroke="none" paint-order="stroke fill markers" d=" M -92 140 L -72 120 L 72 120 L 92 140 L 72 160 L -72 160 Z"/><text fill="#000000" stroke="none" font-family="Consolas, Monaco, Cousine" font-size="14px" font-style="normal" font-weight="normal" text-decoration="normal" x="-70" y="144" text-anchor="start" dominant-baseline="alphabetic">node</text><text fill="#cc3399" stroke="none" font-family="Consolas, Monaco, Cousine" font-size="14px" font-style="normal" font-weight="normal" text-decoration="normal" x="-39" y="144" text-anchor="start" dominant-baseline="alphabetic">.</text><text fill="#000000" stroke="none" font-family="Consolas, Monaco, Cousine" font-size="14px" font-style="normal" font-weight="normal" text-decoration="normal" x="-31" y="144" text-anchor="start" dominant-baseline="alphabetic">data</text><text fill="#cc3399" stroke="none" font-family="Consolas, Monaco, Cousine" font-size="14px" font-style="normal" font-weight="normal" text-decoration="normal" x="8" y="144" text-anchor="start" dominant-baseline="alphabetic">===</text><text fill="#000000" stroke="none" font-family="Consolas, Monaco, Cousine" font-size="14px" font-style="normal" font-weight="normal" text-decoration="normal" x="39" y="144" text-anchor="start" dominant-baseline="alphabetic">val</text><text fill="#000000" stroke="none" font-family="Consolas, Monaco, Cousine" font-size="14px" font-style="normal" font-weight="normal" text-decoration="normal" x="-30.599999999999998" y="173" text-anchor="start" dominant-baseline="alphabetic">Yes</text><text fill="#000000" stroke="none" font-family="Consolas, Monaco, Cousine" font-size="14px" font-style="normal" font-weight="normal" text-decoration="normal" x="98" y="133" text-anchor="start" dominant-baseline="alphabetic">No</text><rect fill="rgb(0,0,0)" stroke="none" x="-85" y="187" width="180" height="40" fill-opacity="0.3"/><rect fill="#ffffff" stroke="none" x="-90" y="180" width="180" height="40"/><text fill="#003399" stroke="none" font-family="Consolas, Monaco, Cousine" font-size="14px" font-style="normal" font-weight="normal" text-decoration="normal" x="-80" y="204" text-anchor="start" dominant-baseline="alphabetic">return</text><text fill="#000000" stroke="none" font-family="Consolas, Monaco, Cousine" font-size="14px" font-style="normal" font-weight="normal" text-decoration="normal" x="-26" y="204" text-anchor="start" dominant-baseline="alphabetic">node</text><rect fill="rgb(0,0,0)" stroke="none" x="-85" y="267" width="180" height="40" fill-opacity="0.3"/><rect fill="#ffffff" stroke="none" x="-90" y="260" width="180" height="40"/><text fill="#000000" stroke="none" font-family="Consolas, Monaco, Cousine" font-size="14px" font-style="normal" font-weight="normal" text-decoration="normal" x="-80" y="284" text-anchor="start" dominant-baseline="alphabetic">node</text><text fill="#cc3399" stroke="none" font-family="Consolas, Monaco, Cousine" font-size="14px" font-style="normal" font-weight="normal" text-decoration="normal" x="-41" y="284" text-anchor="start" dominant-baseline="alphabetic">=</text><text fill="#000000" stroke="none" font-family="Consolas, Monaco, Cousine" font-size="14px" font-style="normal" font-weight="normal" text-decoration="normal" x="-25" y="284" text-anchor="start" dominant-baseline="alphabetic">node</text><text fill="#cc3399" stroke="none" font-family="Consolas, Monaco, Cousine" font-size="14px" font-style="normal" font-weight="normal" text-decoration="normal" x="6" y="284" text-anchor="start" dominant-baseline="alphabetic">.</text><text fill="#000000" stroke="none" font-family="Consolas, Monaco, Cousine" font-size="14px" font-style="normal" font-weight="normal" text-decoration="normal" x="14" y="284" text-anchor="start" dominant-baseline="alphabetic">nextNode</text><path fill="rgb(0,0,0)" stroke="none" paint-order="stroke fill markers" d=" M -87 347 L -67 327 L 77 327 L 97 347 L 77 367 L -67 367 Z" fill-opacity="0.3"/><path fill="#ffffff" stroke="none" paint-order="stroke fill markers" d=" M -92 340 L -72 320 L 72 320 L 92 340 L 72 360 L -72 360 Z"/><text fill="#000000" stroke="none" font-family="Consolas, Monaco, Cousine" font-size="14px" font-style="normal" font-weight="normal" text-decoration="normal" x="-70" y="344" text-anchor="start" dominant-baseline="alphabetic">node</text><text fill="#cc3399" stroke="none" font-family="Consolas, Monaco, Cousine" font-size="14px" font-style="normal" font-weight="normal" text-decoration="normal" x="-31" y="344" text-anchor="start" dominant-baseline="alphabetic">!==</text><text fill="#003399" stroke="none" font-family="Consolas, Monaco, Cousine" font-size="14px" font-style="normal" font-weight="normal" text-decoration="normal" x="0" y="344" text-anchor="start" dominant-baseline="alphabetic">null</text><text fill="#000000" stroke="none" font-family="Consolas, Monaco, Cousine" font-size="14px" font-style="normal" font-weight="normal" text-decoration="normal" x="-30.599999999999998" y="373" text-anchor="start" dominant-baseline="alphabetic">Yes</text><text fill="#000000" stroke="none" font-family="Consolas, Monaco, Cousine" font-size="14px" font-style="normal" font-weight="normal" text-decoration="normal" x="98" y="333" text-anchor="start" dominant-baseline="alphabetic">No</text><rect fill="rgb(0,0,0)" stroke="none" x="-85" y="387" width="180" height="40" fill-opacity="0.3"/><rect fill="#ffffff" stroke="none" x="-90" y="380" width="180" height="40"/><text fill="#003399" stroke="none" font-family="Consolas, Monaco, Cousine" font-size="14px" font-style="normal" font-weight="normal" text-decoration="normal" x="-80" y="404" text-anchor="start" dominant-baseline="alphabetic">return</text><text fill="#003399" stroke="none" font-family="Consolas, Monaco, Cousine" font-size="14px" font-style="normal" font-weight="normal" text-decoration="normal" x="-26" y="404" text-anchor="start" dominant-baseline="alphabetic">null</text><path fill="rgb(0,0,0)" stroke="none" paint-order="stroke fill markers" d=" M -55 27 A 20 20 0 0 1 -55.00000000000001 -13 L 65 -13 L 65 -13 A 20 20 0 0 1 65 27 Z" fill-opacity="0.3"/><path fill="#ffffff" stroke="none" paint-order="stroke fill markers" d=" M -60 20 A 20 20 0 0 1 -60.00000000000001 -20 L 60 -20 L 59.99999999999999 -20 A 20 20 0 0 1 60 20 Z"/><text fill="#000000" stroke="none" font-family="Consolas, Monaco, Cousine" font-size="18px" font-style="normal" font-weight="normal" text-decoration="normal" x="-55" y="6" text-anchor="start" dominant-baseline="alphabetic">nodeWithVal</text><rect fill="rgb(0,0,0)" stroke="none" x="105" y="-13" width="100" height="40" fill-opacity="0.3"/><rect fill="#ffffff" stroke="none" x="100" y="-20" width="100" height="40"/><text fill="#000000" stroke="none" font-family="Consolas, Monaco, Cousine" font-size="14px" font-style="normal" font-weight="normal" text-decoration="normal" x="110" y="4" text-anchor="start" dominant-baseline="alphabetic">list,</text><text fill="#000000" stroke="none" font-family="Consolas, Monaco, Cousine" font-size="14px" font-style="normal" font-weight="normal" text-decoration="normal" x="156" y="4" text-anchor="start" dominant-baseline="alphabetic">val</text></g></g></svg>