<svg version="1.1" xmlns="http://www.w3.org/2000/svg" xmlns:xlink="http://www.w3.org/1999/xlink" width="442" height="660"><defs/><g><rect fill="#97D3E1" stroke="none" x="0" y="0" width="442" height="660"/><g transform="scale(1,1) translate(100,40)"><rect fill="#000000" stroke="none" x="-1" y="0" width="2" height="60"/><rect fill="#000000" stroke="none" x="-1" y="60" width="2" height="60"/><rect fill="#000000" stroke="none" x="-1" y="120" width="2" height="40"/><path fill="none" stroke="#000000" paint-order="fill stroke markers" d=" M 1.5 160.5 L 300.5 160.5" stroke-linecap="round" stroke-miterlimit="10"/><g transform="translate(1.5,160.5) rotate(180,0,0)"><path fill="#000000" stroke="#000000" paint-order="fill stroke markers" d=" M -20 -6 L 0 0 L -20 6 Z" stroke-linecap="round" stroke-linejoin="round" stroke-miterlimit="10"/></g><g transform="translate(300.5,160.5) rotate(0,0,0)"/><rect fill="#000000" stroke="none" x="-1" y="160" width="2" height="40"/><rect fill="#000000" stroke="none" x="-1" y="200" width="2" height="60"/><path fill="none" stroke="#000000" paint-order="fill stroke markers" d=" M 0.5 260.5 L 140.5 260.5" stroke-linecap="round" stroke-miterlimit="10"/><rect fill="#000000" stroke="none" x="140" y="260" width="1" height="60"/><rect fill="#000000" stroke="none" x="140" y="320" width="1" height="90"/><rect fill="#000000" stroke="none" x="140" y="410" width="1" height="90"/><rect fill="#000000" stroke="none" x="140" y="500" width="1" height="40"/><path fill="none" stroke="#000000" paint-order="fill stroke markers" d=" M 140.5 540.5 L 300.5 540.5" stroke-linecap="round" stroke-miterlimit="10"/><rect fill="#000000" stroke="none" x="300" y="320" width="1" height="220"/><rect fill="#000000" stroke="none" x="300" y="160" width="1" height="160"/><path fill="none" stroke="#000000" paint-order="fill stroke markers" d=" M 140.5 320.5 L 300.5 320.5" stroke-linecap="round" stroke-miterlimit="10"/><path fill="none" stroke="#000000" paint-order="fill stroke markers" d=" M 0.5 0.5 L 140.5 0.5" stroke-linecap="round" stroke-miterlimit="10"/><rect fill="#000000" stroke="none" x="-1" y="260" width="2" height="320"/><path fill="rgb(0,0,0)" stroke="none" paint-order="stroke fill markers" d=" M -25 607 A 20 20 0 0 1 -25.000000000000004 567 L 35 567 L 34.99999999999999 567 A 20 20 0 0 1 35 607 Z" fill-opacity="0.3"/><path fill="#ffffff" stroke="none" paint-order="stroke fill markers" d=" M -30 600 A 20 20 0 0 1 -30.000000000000004 560 L 30 560 L 29.999999999999996 560 A 20 20 0 0 1 30 600 Z"/><text fill="#000000" stroke="none" font-family="Consolas, Monaco, Cousine" font-size="14px" font-style="normal" font-weight="normal" text-decoration="normal" x="-12" y="584" text-anchor="start" dominant-baseline="alphabetic">End</text><rect fill="rgb(0,0,0)" stroke="none" x="-75" y="47" width="160" height="40" fill-opacity="0.3"/><rect fill="#ffffff" stroke="none" x="-80" y="40" width="160" height="40"/><text fill="#000000" stroke="none" font-family="Consolas, Monaco, Cousine" font-size="14px" font-style="normal" font-weight="normal" text-decoration="normal" x="-70" y="64" text-anchor="start" dominant-baseline="alphabetic">size</text><text fill="#cc3399" stroke="none" font-family="Consolas, Monaco, Cousine" font-size="14px" font-style="normal" font-weight="normal" text-decoration="normal" x="-31" y="64" text-anchor="start" dominant-baseline="alphabetic">=</text><text fill="#000000" stroke="none" font-family="Consolas, Monaco, Cousine" font-size="14px" font-style="normal" font-weight="normal" text-decoration="normal" x="-15" y="64" text-anchor="start" dominant-baseline="alphabetic">data</text><text fill="#cc3399" stroke="none" font-family="Consolas, Monaco, Cousine" font-size="14px" font-style="normal" font-weight="normal" text-decoration="normal" x="16" y="64" text-anchor="start" dominant-baseline="alphabetic">.</text><text fill="#000000" stroke="none" font-family="Consolas, Monaco, Cousine" font-size="14px" font-style="normal" font-weight="normal" text-decoration="normal" x="24" y="64" text-anchor="start" dominant-baseline="alphabetic">length</text><rect fill="rgb(0,0,0)" stroke="none" x="-75" y="107" width="160" height="40" fill-opacity="0.3"/><rect fill="#ffffff" stroke="none" x="-80" y="100" width="160" height="40"/><text fill="#000000" stroke="none" font-family="Consolas, Monaco, Cousine" font-size="14px" font-style="normal" font-weight="normal" text-decoration="normal" x="-70" y="124" text-anchor="start" dominant-baseline="alphabetic">i</text><text fill="#cc3399" stroke="none" font-family="Consolas, Monaco, Cousine" font-size="14px" font-style="normal" font-weight="normal" text-decoration="normal" x="-54" y="124" text-anchor="start" dominant-baseline="alphabetic">=</text><text fill="#cc3399" stroke="none" font-family="Consolas, Monaco, Cousine" font-size="14px" font-style="normal" font-weight="normal" text-decoration="normal" x="-38" y="124" text-anchor="start" dominant-baseline="alphabetic">-</text><text fill="#004d00" stroke="none" font-family="Consolas, Monaco, Cousine" font-size="14px" font-style="normal" font-weight="normal" text-decoration="normal" x="-30" y="124" text-anchor="start" dominant-baseline="alphabetic">1</text><path fill="rgb(0,0,0)" stroke="none" paint-order="stroke fill markers" d=" M -77 267 L -57 247 L 67 247 L 87 267 L 67 287 L -57 287 Z" fill-opacity="0.3"/><path fill="#ffffff" stroke="none" paint-order="stroke fill markers" d=" M -82 260 L -62 240 L 62 240 L 82 260 L 62 280 L -62 280 Z"/><text fill="#003399" stroke="none" font-family="Consolas, Monaco, Cousine" font-size="14px" font-style="normal" font-weight="normal" text-decoration="normal" x="-60" y="264" text-anchor="start" dominant-baseline="alphabetic">true</text><text fill="#000000" stroke="none" font-family="Consolas, Monaco, Cousine" font-size="14px" font-style="normal" font-weight="normal" text-decoration="normal" x="-18" y="293" text-anchor="start" dominant-baseline="alphabetic">No</text><text fill="#000000" stroke="none" font-family="Consolas, Monaco, Cousine" font-size="14px" font-style="normal" font-weight="normal" text-decoration="normal" x="88" y="253" text-anchor="start" dominant-baseline="alphabetic">Yes</text><path fill="rgb(0,0,0)" stroke="none" paint-order="stroke fill markers" d=" M 23 327 L 43 307 L 247 307 L 267 327 L 247 347 L 43 347 Z" fill-opacity="0.3"/><path fill="#ffffff" stroke="none" paint-order="stroke fill markers" d=" M 18 320 L 38 300 L 242 300 L 262 320 L 242 340 L 38 340 Z"/><text fill="#000000" stroke="none" font-family="Consolas, Monaco, Cousine" font-size="14px" font-style="normal" font-weight="normal" text-decoration="normal" x="40" y="324" text-anchor="start" dominant-baseline="alphabetic">data</text><text fill="#cc3399" stroke="none" font-family="Consolas, Monaco, Cousine" font-size="14px" font-style="normal" font-weight="normal" text-decoration="normal" x="71" y="324" text-anchor="start" dominant-baseline="alphabetic">[</text><text fill="#000000" stroke="none" font-family="Consolas, Monaco, Cousine" font-size="14px" font-style="normal" font-weight="normal" text-decoration="normal" x="79" y="324" text-anchor="start" dominant-baseline="alphabetic">i</text><text fill="#cc3399" stroke="none" font-family="Consolas, Monaco, Cousine" font-size="14px" font-style="normal" font-weight="normal" text-decoration="normal" x="87" y="324" text-anchor="start" dominant-baseline="alphabetic">]</text><text fill="#cc3399" stroke="none" font-family="Consolas, Monaco, Cousine" font-size="14px" font-style="normal" font-weight="normal" text-decoration="normal" x="103" y="324" text-anchor="start" dominant-baseline="alphabetic">&gt;=</text><text fill="#000000" stroke="none" font-family="Consolas, Monaco, Cousine" font-size="14px" font-style="normal" font-weight="normal" text-decoration="normal" x="126" y="324" text-anchor="start" dominant-baseline="alphabetic">value</text><text fill="#000000" stroke="none" font-family="Consolas, Monaco, Cousine" font-size="14px" font-style="normal" font-weight="normal" text-decoration="normal" x="109.4" y="353" text-anchor="start" dominant-baseline="alphabetic">Yes</text><text fill="#000000" stroke="none" font-family="Consolas, Monaco, Cousine" font-size="14px" font-style="normal" font-weight="normal" text-decoration="normal" x="268" y="313" text-anchor="start" dominant-baseline="alphabetic">No</text><rect fill="rgb(0,0,0)" stroke="none" x="25" y="367" width="240" height="100" fill-opacity="0.3"/><rect fill="#ffffff" stroke="none" x="20" y="360" width="240" height="100"/><text fill="#000000" stroke="none" font-family="Consolas, Monaco, Cousine" font-size="14px" font-style="normal" font-weight="normal" text-decoration="normal" x="30" y="390" text-anchor="start" dominant-baseline="alphabetic">console</text><text fill="#cc3399" stroke="none" font-family="Consolas, Monaco, Cousine" font-size="14px" font-style="normal" font-weight="normal" text-decoration="normal" x="84" y="390" text-anchor="start" dominant-baseline="alphabetic">.</text><text fill="#000000" stroke="none" font-family="Consolas, Monaco, Cousine" font-size="14px" font-style="normal" font-weight="normal" text-decoration="normal" x="92" y="390" text-anchor="start" dominant-baseline="alphabetic">log</text><text fill="#cc3399" stroke="none" font-family="Consolas, Monaco, Cousine" font-size="14px" font-style="normal" font-weight="normal" text-decoration="normal" x="115" y="390" text-anchor="start" dominant-baseline="alphabetic">(</text><text fill="#800000" stroke="none" font-family="Consolas, Monaco, Cousine" font-size="14px" font-style="normal" font-weight="normal" text-decoration="normal" x="62" y="406" text-anchor="start" dominant-baseline="alphabetic">"The element value --&gt;"</text><text fill="#cc3399" stroke="none" font-family="Consolas, Monaco, Cousine" font-size="14px" font-style="normal" font-weight="normal" text-decoration="normal" x="239" y="406" text-anchor="start" dominant-baseline="alphabetic">,</text><text fill="#000000" stroke="none" font-family="Consolas, Monaco, Cousine" font-size="14px" font-style="normal" font-weight="normal" text-decoration="normal" x="62" y="422" text-anchor="start" dominant-baseline="alphabetic">value</text><text fill="#cc3399" stroke="none" font-family="Consolas, Monaco, Cousine" font-size="14px" font-style="normal" font-weight="normal" text-decoration="normal" x="30" y="438" text-anchor="start" dominant-baseline="alphabetic">)</text><rect fill="rgb(0,0,0)" stroke="none" x="-75" y="187" width="160" height="40" fill-opacity="0.3"/><rect fill="#ffffff" stroke="none" x="-80" y="180" width="160" height="40"/><text fill="#000000" stroke="none" font-family="Consolas, Monaco, Cousine" font-size="14px" font-style="normal" font-weight="normal" text-decoration="normal" x="-70" y="204" text-anchor="start" dominant-baseline="alphabetic">i</text><text fill="#cc3399" stroke="none" font-family="Consolas, Monaco, Cousine" font-size="14px" font-style="normal" font-weight="normal" text-decoration="normal" x="-62" y="204" text-anchor="start" dominant-baseline="alphabetic">++</text><rect fill="rgb(0,0,0)" stroke="none" x="25" y="487" width="240" height="40" fill-opacity="0.3"/><rect fill="#ffffff" stroke="none" x="20" y="480" width="240" height="40"/><text fill="#003399" stroke="none" font-family="Consolas, Monaco, Cousine" font-size="14px" font-style="normal" font-weight="normal" text-decoration="normal" x="30" y="504" text-anchor="start" dominant-baseline="alphabetic">return</text><path fill="rgb(0,0,0)" stroke="none" paint-order="stroke fill markers" d=" M -45 27 A 20 20 0 0 1 -45.00000000000001 -13 L 55 -13 L 54.99999999999999 -13 A 20 20 0 0 1 55 27 Z" fill-opacity="0.3"/><path fill="#ffffff" stroke="none" paint-order="stroke fill markers" d=" M -50 20 A 20 20 0 0 1 -50.00000000000001 -20 L 50 -20 L 49.99999999999999 -20 A 20 20 0 0 1 50 20 Z"/><text fill="#000000" stroke="none" font-family="Consolas, Monaco, Cousine" font-size="18px" font-style="normal" font-weight="normal" text-decoration="normal" x="-50" y="6" text-anchor="start" dominant-baseline="alphabetic">dataSorted</text><rect fill="rgb(0,0,0)" stroke="none" x="95" y="-13" width="100" height="40" fill-opacity="0.3"/><rect fill="#ffffff" stroke="none" x="90" y="-20" width="100" height="40"/><text fill="#000000" stroke="none" font-family="Consolas, Monaco, Cousine" font-size="14px" font-style="normal" font-weight="normal" text-decoration="normal" x="100" y="4" text-anchor="start" dominant-baseline="alphabetic">data,value</text></g></g></svg>