<svg version="1.1" xmlns="http://www.w3.org/2000/svg" xmlns:xlink="http://www.w3.org/1999/xlink" width="392" height="540"><defs/><g><rect fill="#97D3E1" stroke="none" x="0" y="0" width="392" height="540"/><g transform="scale(1,1) translate(110,40)"><rect fill="#000000" stroke="none" x="-1" y="0" width="2" height="60"/><rect fill="#000000" stroke="none" x="-1" y="60" width="2" height="60"/><rect fill="#000000" stroke="none" x="-1" y="120" width="2" height="40"/><path fill="none" stroke="#000000" paint-order="fill stroke markers" d=" M 1.5 160.5 L 240.5 160.5" stroke-linecap="round" stroke-miterlimit="10"/><g transform="translate(1.5,160.5) rotate(180,0,0)"><path fill="#000000" stroke="#000000" paint-order="fill stroke markers" d=" M -20 -6 L 0 0 L -20 6 Z" stroke-linecap="round" stroke-linejoin="round" stroke-miterlimit="10"/></g><g transform="translate(240.5,160.5) rotate(0,0,0)"/><rect fill="#000000" stroke="none" x="-1" y="160" width="2" height="40"/><path fill="none" stroke="#000000" paint-order="fill stroke markers" d=" M 0.5 200.5 L 110.5 200.5" stroke-linecap="round" stroke-miterlimit="10"/><rect fill="#000000" stroke="none" x="110" y="200" width="1" height="60"/><rect fill="#000000" stroke="none" x="110" y="260" width="1" height="60"/><rect fill="#000000" stroke="none" x="110" y="320" width="1" height="60"/><rect fill="#000000" stroke="none" x="110" y="380" width="1" height="40"/><path fill="none" stroke="#000000" paint-order="fill stroke markers" d=" M 110.5 420.5 L 240.5 420.5" stroke-linecap="round" stroke-miterlimit="10"/><rect fill="#000000" stroke="none" x="240" y="260" width="1" height="160"/><rect fill="#000000" stroke="none" x="240" y="160" width="1" height="100"/><path fill="none" stroke="#000000" paint-order="fill stroke markers" d=" M 110.5 260.5 L 240.5 260.5" stroke-linecap="round" stroke-miterlimit="10"/><path fill="none" stroke="#000000" paint-order="fill stroke markers" d=" M 0.5 0.5 L 140.5 0.5" stroke-linecap="round" stroke-miterlimit="10"/><rect fill="#000000" stroke="none" x="-1" y="200" width="2" height="260"/><path fill="rgb(0,0,0)" stroke="none" paint-order="stroke fill markers" d=" M -23.75 488.75 A 20 20 0 0 1 -23.750000000000004 448.75 L 36.25 448.75 L 36.24999999999999 448.75 A 20 20 0 0 1 36.25 488.75 Z" fill-opacity="0.3"/><path fill="#ffffff" stroke="none" paint-order="stroke fill markers" d=" M -30 480 A 20 20 0 0 1 -30.000000000000004 440 L 30 440 L 29.999999999999996 440 A 20 20 0 0 1 30 480 Z"/><text fill="#000000" stroke="none" font-family="Consolas, Monaco, Cousine" font-size="14px" font-style="normal" font-weight="normal" text-decoration="normal" x="-12" y="464" text-anchor="start" dominant-baseline="alphabetic">End</text><rect fill="rgb(0,0,0)" stroke="none" x="-85" y="47" width="180" height="40" fill-opacity="0.3"/><rect fill="#ffffff" stroke="none" x="-90" y="40" width="180" height="40"/><text fill="#000000" stroke="none" font-family="Consolas, Monaco, Cousine" font-size="14px" font-style="normal" font-weight="normal" text-decoration="normal" x="-80" y="64" text-anchor="start" dominant-baseline="alphabetic">node</text><text fill="#cc3399" stroke="none" font-family="Consolas, Monaco, Cousine" font-size="14px" font-style="normal" font-weight="normal" text-decoration="normal" x="-41" y="64" text-anchor="start" dominant-baseline="alphabetic">=</text><text fill="#000000" stroke="none" font-family="Consolas, Monaco, Cousine" font-size="14px" font-style="normal" font-weight="normal" text-decoration="normal" x="-25" y="64" text-anchor="start" dominant-baseline="alphabetic">list</text><text fill="#cc3399" stroke="none" font-family="Consolas, Monaco, Cousine" font-size="14px" font-style="normal" font-weight="normal" text-decoration="normal" x="6" y="64" text-anchor="start" dominant-baseline="alphabetic">.</text><text fill="#000000" stroke="none" font-family="Consolas, Monaco, Cousine" font-size="14px" font-style="normal" font-weight="normal" text-decoration="normal" x="14" y="64" text-anchor="start" dominant-baseline="alphabetic">headNode</text><rect fill="rgb(0,0,0)" stroke="none" x="-85" y="107" width="180" height="40" fill-opacity="0.3"/><rect fill="#ffffff" stroke="none" x="-90" y="100" width="180" height="40"/><text fill="#000000" stroke="none" font-family="Consolas, Monaco, Cousine" font-size="14px" font-style="normal" font-weight="normal" text-decoration="normal" x="-80" y="124" text-anchor="start" dominant-baseline="alphabetic">count</text><text fill="#cc3399" stroke="none" font-family="Consolas, Monaco, Cousine" font-size="14px" font-style="normal" font-weight="normal" text-decoration="normal" x="-34" y="124" text-anchor="start" dominant-baseline="alphabetic">=</text><text fill="#004d00" stroke="none" font-family="Consolas, Monaco, Cousine" font-size="14px" font-style="normal" font-weight="normal" text-decoration="normal" x="-18" y="124" text-anchor="start" dominant-baseline="alphabetic">0</text><path fill="rgb(0,0,0)" stroke="none" paint-order="stroke fill markers" d=" M -85.75 208.75 L -65.75 188.75 L 78.25 188.75 L 98.25 208.75 L 78.25 228.75 L -65.75 228.75 Z" fill-opacity="0.3"/><path fill="#ffffff" stroke="none" paint-order="stroke fill markers" d=" M -92 200 L -72 180 L 72 180 L 92 200 L 72 220 L -72 220 Z"/><text fill="#000000" stroke="none" font-family="Consolas, Monaco, Cousine" font-size="14px" font-style="normal" font-weight="normal" text-decoration="normal" x="-70" y="204" text-anchor="start" dominant-baseline="alphabetic">node</text><text fill="#cc3399" stroke="none" font-family="Consolas, Monaco, Cousine" font-size="14px" font-style="normal" font-weight="normal" text-decoration="normal" x="-31" y="204" text-anchor="start" dominant-baseline="alphabetic">!==</text><text fill="#003399" stroke="none" font-family="Consolas, Monaco, Cousine" font-size="14px" font-style="normal" font-weight="normal" text-decoration="normal" x="0" y="204" text-anchor="start" dominant-baseline="alphabetic">null</text><text fill="#000000" stroke="none" font-family="Consolas, Monaco, Cousine" font-size="14px" font-style="normal" font-weight="normal" text-decoration="normal" x="-18" y="233" text-anchor="start" dominant-baseline="alphabetic">No</text><text fill="#000000" stroke="none" font-family="Consolas, Monaco, Cousine" font-size="14px" font-style="normal" font-weight="normal" text-decoration="normal" x="98" y="193" text-anchor="start" dominant-baseline="alphabetic">Yes</text><path fill="rgb(0,0,0)" stroke="none" paint-order="stroke fill markers" d=" M 24.25 268.75 L 44.25 248.75 L 188.25 248.75 L 208.25 268.75 L 188.25 288.75 L 44.25 288.75 Z" fill-opacity="0.3"/><path fill="#ffffff" stroke="none" paint-order="stroke fill markers" d=" M 18 260 L 38 240 L 182 240 L 202 260 L 182 280 L 38 280 Z"/><text fill="#000000" stroke="none" font-family="Consolas, Monaco, Cousine" font-size="14px" font-style="normal" font-weight="normal" text-decoration="normal" x="40" y="264" text-anchor="start" dominant-baseline="alphabetic">node</text><text fill="#cc3399" stroke="none" font-family="Consolas, Monaco, Cousine" font-size="14px" font-style="normal" font-weight="normal" text-decoration="normal" x="71" y="264" text-anchor="start" dominant-baseline="alphabetic">.</text><text fill="#000000" stroke="none" font-family="Consolas, Monaco, Cousine" font-size="14px" font-style="normal" font-weight="normal" text-decoration="normal" x="79" y="264" text-anchor="start" dominant-baseline="alphabetic">data</text><text fill="#cc3399" stroke="none" font-family="Consolas, Monaco, Cousine" font-size="14px" font-style="normal" font-weight="normal" text-decoration="normal" x="118" y="264" text-anchor="start" dominant-baseline="alphabetic">===</text><text fill="#000000" stroke="none" font-family="Consolas, Monaco, Cousine" font-size="14px" font-style="normal" font-weight="normal" text-decoration="normal" x="149" y="264" text-anchor="start" dominant-baseline="alphabetic">val</text><text fill="#000000" stroke="none" font-family="Consolas, Monaco, Cousine" font-size="14px" font-style="normal" font-weight="normal" text-decoration="normal" x="79.4" y="293" text-anchor="start" dominant-baseline="alphabetic">Yes</text><text fill="#000000" stroke="none" font-family="Consolas, Monaco, Cousine" font-size="14px" font-style="normal" font-weight="normal" text-decoration="normal" x="208" y="253" text-anchor="start" dominant-baseline="alphabetic">No</text><rect fill="rgb(0,0,0)" stroke="none" x="25" y="307" width="180" height="40" fill-opacity="0.3"/><rect fill="#ffffff" stroke="none" x="20" y="300" width="180" height="40"/><text fill="#000000" stroke="none" font-family="Consolas, Monaco, Cousine" font-size="14px" font-style="normal" font-weight="normal" text-decoration="normal" x="30" y="324" text-anchor="start" dominant-baseline="alphabetic">count</text><text fill="#cc3399" stroke="none" font-family="Consolas, Monaco, Cousine" font-size="14px" font-style="normal" font-weight="normal" text-decoration="normal" x="68" y="324" text-anchor="start" dominant-baseline="alphabetic">++</text><rect fill="rgb(0,0,0)" stroke="none" x="25" y="367" width="180" height="40" fill-opacity="0.3"/><rect fill="#ffffff" stroke="none" x="20" y="360" width="180" height="40"/><text fill="#000000" stroke="none" font-family="Consolas, Monaco, Cousine" font-size="14px" font-style="normal" font-weight="normal" text-decoration="normal" x="30" y="384" text-anchor="start" dominant-baseline="alphabetic">node</text><text fill="#cc3399" stroke="none" font-family="Consolas, Monaco, Cousine" font-size="14px" font-style="normal" font-weight="normal" text-decoration="normal" x="69" y="384" text-anchor="start" dominant-baseline="alphabetic">=</text><text fill="#000000" stroke="none" font-family="Consolas, Monaco, Cousine" font-size="14px" font-style="normal" font-weight="normal" text-decoration="normal" x="85" y="384" text-anchor="start" dominant-baseline="alphabetic">node</text><text fill="#cc3399" stroke="none" font-family="Consolas, Monaco, Cousine" font-size="14px" font-style="normal" font-weight="normal" text-decoration="normal" x="116" y="384" text-anchor="start" dominant-baseline="alphabetic">.</text><text fill="#000000" stroke="none" font-family="Consolas, Monaco, Cousine" font-size="14px" font-style="normal" font-weight="normal" text-decoration="normal" x="124" y="384" text-anchor="start" dominant-baseline="alphabetic">nextNode</text><path fill="rgb(0,0,0)" stroke="none" paint-order="stroke fill markers" d=" M -43.75 28.75 A 20 20 0 0 1 -43.75000000000001 -11.25 L 56.25 -11.25 L 56.24999999999999 -11.25 A 20 20 0 0 1 56.25 28.75 Z" fill-opacity="0.3"/><path fill="#ffffff" stroke="none" paint-order="stroke fill markers" d=" M -50 20 A 20 20 0 0 1 -50.00000000000001 -20 L 50 -20 L 49.99999999999999 -20 A 20 20 0 0 1 50 20 Z"/><text fill="#000000" stroke="none" font-family="Consolas, Monaco, Cousine" font-size="18px" font-style="normal" font-weight="normal" text-decoration="normal" x="-50" y="6" text-anchor="start" dominant-baseline="alphabetic">searchData</text><rect fill="rgb(0,0,0)" stroke="none" x="95" y="-13" width="100" height="40" fill-opacity="0.3"/><rect fill="#ffffff" stroke="none" x="90" y="-20" width="100" height="40"/><text fill="#000000" stroke="none" font-family="Consolas, Monaco, Cousine" font-size="14px" font-style="normal" font-weight="normal" text-decoration="normal" x="100" y="4" text-anchor="start" dominant-baseline="alphabetic">list,</text><text fill="#000000" stroke="none" font-family="Consolas, Monaco, Cousine" font-size="14px" font-style="normal" font-weight="normal" text-decoration="normal" x="146" y="4" text-anchor="start" dominant-baseline="alphabetic">val</text></g></g></svg>