<svg xmlns="http://www.w3.org/2000/svg" width="212" height="175" style="background:#f8f9fa">
<line x1="58" y1="100" x2="50" y2="125" stroke="black" stroke-width="1" />
<line x1="74" y1="75" x2="58" y2="100" stroke="black" stroke-width="1" />
<line x1="74" y1="75" x2="90" y2="100" stroke="black" stroke-width="1" />
<line x1="90" y1="100" x2="98" y2="125" stroke="black" stroke-width="1" />
<line x1="106" y1="50" x2="74" y2="75" stroke="black" stroke-width="1" />
<line x1="106" y1="50" x2="138" y2="75" stroke="black" stroke-width="1" />
<line x1="122" y1="100" x2="114" y2="125" stroke="black" stroke-width="1" />
<line x1="138" y1="75" x2="122" y2="100" stroke="black" stroke-width="1" />
<line x1="138" y1="75" x2="154" y2="100" stroke="black" stroke-width="1" />
<line x1="154" y1="100" x2="162" y2="125" stroke="black" stroke-width="1" />
<circle cx="50" cy="125" r="6" fill="#f1f7f6ff" stroke="black" stroke-width="1" />
<text x="50" y="127" text-anchor="middle" fill="black" font-size="6" font-family="NaN">1</text>
<circle cx="58" cy="100" r="6" fill="#f1f7f6ff" stroke="black" stroke-width="1" />
<text x="58" y="102" text-anchor="middle" fill="black" font-size="6" font-family="NaN">2</text>
<circle cx="74" cy="75" r="6" fill="#f1f7f6ff" stroke="black" stroke-width="1" />
<text x="74" y="77" text-anchor="middle" fill="black" font-size="6" font-family="NaN">5</text>
<circle cx="90" cy="100" r="6" fill="#f1f7f6ff" stroke="black" stroke-width="1" />
<text x="90" y="102" text-anchor="middle" fill="black" font-size="6" font-family="NaN">6</text>
<circle cx="98" cy="125" r="6" fill="#f1f7f6ff" stroke="black" stroke-width="1" />
<text x="98" y="127" text-anchor="middle" fill="black" font-size="6" font-family="NaN">8</text>
<circle cx="106" cy="50" r="6" fill="#f1f7f6ff" stroke="black" stroke-width="1" />
<text x="106" y="52" text-anchor="middle" fill="black" font-size="6" font-family="NaN">11</text>
<circle cx="114" cy="125" r="6" fill="#f1f7f6ff" stroke="black" stroke-width="1" />
<text x="114" y="127" text-anchor="middle" fill="black" font-size="6" font-family="NaN">13</text>
<circle cx="122" cy="100" r="6" fill="#f1f7f6ff" stroke="black" stroke-width="1" />
<text x="122" y="102" text-anchor="middle" fill="black" font-size="6" font-family="NaN">15</text>
<circle cx="138" cy="75" r="6" fill="#f1f7f6ff" stroke="black" stroke-width="1" />
<text x="138" y="77" text-anchor="middle" fill="black" font-size="6" font-family="NaN">17</text>
<circle cx="154" cy="100" r="6" fill="#f1f7f6ff" stroke="black" stroke-width="1" />
<text x="154" y="102" text-anchor="middle" fill="black" font-size="6" font-family="NaN">19</text>
<circle cx="162" cy="125" r="6" fill="#f1f7f6ff" stroke="black" stroke-width="1" />
<text x="162" y="127" text-anchor="middle" fill="black" font-size="6" font-family="NaN">21</text>
</svg>