<svg width="1600" height="1400" xmlns="http://www.w3.org/2000/svg" viewBox="0 0 1600 1400">
  <defs>
    <marker id="arrowhead" markerWidth="10" markerHeight="10" refX="9" refY="3" orient="auto">
      <polygon points="0 0, 10 3, 0 6" fill="#000000" />
    </marker>
  </defs>
  
  <!-- Белый фон -->
  <rect width="1600" height="1400" fill="white"/>
  
  <!-- РЁБРА (стрелки) -->
  <!-- 5 → 4 -->
  <path d="M 250 700 Q 400 950 550 1050" stroke="#000000" stroke-width="3" fill="none" marker-end="url(#arrowhead)"/>
  
  <!-- 4 → 3 -->
  <path d="M 550 1050 L 550 650" stroke="#000000" stroke-width="3" fill="none" marker-end="url(#arrowhead)"/>
  
  <!-- 4 → 6 -->
  <path d="M 550 1050 Q 750 900 900 700" stroke="#000000" stroke-width="3" fill="none" marker-end="url(#arrowhead)"/>
  
  <!-- 3 → 6 -->
  <path d="M 600 650 L 850 700" stroke="#000000" stroke-width="3" fill="none" marker-end="url(#arrowhead)"/>
  
  <!-- 3 → 7 -->
  <path d="M 550 600 Q 700 400 1000 250" stroke="#000000" stroke-width="3" fill="none" marker-end="url(#arrowhead)"/>
  
  <!-- 6 → 7 -->
  <path d="M 900 650 Q 950 450 1000 280" stroke="#000000" stroke-width="3" fill="none" marker-end="url(#arrowhead)"/>
  
  <!-- 5 → 1 -->
  <path d="M 250 650 L 350 450" stroke="#000000" stroke-width="3" fill="none" marker-end="url(#arrowhead)"/>
  
  <!-- 1 → 3 -->
  <path d="M 400 400 Q 475 500 520 600" stroke="#000000" stroke-width="3" fill="none" marker-end="url(#arrowhead)"/>
  
  <!-- 1 → 2 -->
  <path d="M 350 400 L 450 200" stroke="#000000" stroke-width="3" fill="none" marker-end="url(#arrowhead)"/>
  
  <!-- 2 → 7 -->
  <path d="M 500 150 Q 750 180 950 250" stroke="#000000" stroke-width="3" fill="none" marker-end="url(#arrowhead)"/>
  
  <!-- ВЕРШИНЫ (узлы) с увеличенным размером -->
  <!-- Node 5 -->
  <circle cx="250" cy="700" r="65" fill="white" stroke="#000000" stroke-width="3"/>
  <text x="250" y="725" font-size="32" font-weight="bold" text-anchor="middle" fill="#000000">5</text>
  
  <!-- Node 4 -->
  <circle cx="550" cy="1050" r="65" fill="white" stroke="#000000" stroke-width="3"/>
  <text x="550" y="1075" font-size="32" font-weight="bold" text-anchor="middle" fill="#000000">4</text>
  
  <!-- Node 6 -->
  <circle cx="900" cy="700" r="65" fill="white" stroke="#000000" stroke-width="3"/>
  <text x="900" y="725" font-size="32" font-weight="bold" text-anchor="middle" fill="#000000">6</text>
  
  <!-- Node 1 -->
  <circle cx="350" cy="450" r="65" fill="white" stroke="#000000" stroke-width="3"/>
  <text x="350" y="475" font-size="32" font-weight="bold" text-anchor="middle" fill="#000000">1</text>
  
  <!-- Node 3 -->
  <circle cx="550" cy="650" r="65" fill="white" stroke="#000000" stroke-width="3"/>
  <text x="550" y="675" font-size="32" font-weight="bold" text-anchor="middle" fill="#000000">3</text>
  
  <!-- Node 2 -->
  <circle cx="450" cy="150" r="65" fill="white" stroke="#000000" stroke-width="3"/>
  <text x="450" y="175" font-size="32" font-weight="bold" text-anchor="middle" fill="#000000">2</text>
  
  <!-- Node 7 -->
  <circle cx="1000" cy="250" r="65" fill="white" stroke="#000000" stroke-width="3"/>
  <text x="1000" y="275" font-size="32" font-weight="bold" text-anchor="middle" fill="#000000">7</text>
  
  <!-- ВЕСА НА РЁБРАХ - УВЕЛИЧЕННЫЙ ШРИФТ И ОТСТУП -->
  
  <!-- 5 → 4: 42.2 (1.50) -->
  <rect x="280" y="810" width="130" height="70" fill="white" stroke="#000000" stroke-width="2" rx="8"/>
  <text x="345" y="840" font-size="18" font-weight="bold" text-anchor="middle" fill="#000000">42.2</text>
  <text x="345" y="865" font-size="18" text-anchor="middle" fill="#666666">(1.50)</text>
  
  <!-- 4 → 3: 25.6 (1.55) -->
  <rect x="510" y="840" width="130" height="70" fill="white" stroke="#000000" stroke-width="2" rx="8"/>
  <text x="575" y="870" font-size="18" font-weight="bold" text-anchor="middle" fill="#000000">25.6</text>
  <text x="575" y="895" font-size="18" text-anchor="middle" fill="#666666">(1.55)</text>
  
  <!-- 4 → 6: 38.7 (1.60) -->
  <rect x="680" y="930" width="130" height="70" fill="white" stroke="#000000" stroke-width="2" rx="8"/>
  <text x="745" y="960" font-size="18" font-weight="bold" text-anchor="middle" fill="#000000">38.7</text>
  <text x="745" y="985" font-size="18" text-anchor="middle" fill="#666666">(1.60)</text>
  
  <!-- 3 → 6: 25.8 (1.35) -->
  <rect x="680" y="640" width="130" height="70" fill="white" stroke="#000000" stroke-width="2" rx="8"/>
  <text x="745" y="670" font-size="18" font-weight="bold" text-anchor="middle" fill="#000000">25.8</text>
  <text x="745" y="695" font-size="18" text-anchor="middle" fill="#666666">(1.35)</text>
  
  <!-- 3 → 7: 16.6 (1.55) -->
  <rect x="700" y="420" width="130" height="70" fill="white" stroke="#000000" stroke-width="2" rx="8"/>
  <text x="765" y="450" font-size="18" font-weight="bold" text-anchor="middle" fill="#000000">16.6</text>
  <text x="765" y="475" font-size="18" text-anchor="middle" fill="#666666">(1.55)</text>
  
  <!-- 6 → 7: 33.9 (1.40) -->
  <rect x="920" y="450" width="130" height="70" fill="white" stroke="#000000" stroke-width="2" rx="8"/>
  <text x="985" y="480" font-size="18" font-weight="bold" text-anchor="middle" fill="#000000">33.9</text>
  <text x="985" y="505" font-size="18" text-anchor="middle" fill="#666666">(1.40)</text>
  
  <!-- 5 → 1: 38.4 (1.35) -->
  <rect x="220" y="560" width="130" height="70" fill="white" stroke="#000000" stroke-width="2" rx="8"/>
  <text x="285" y="590" font-size="18" font-weight="bold" text-anchor="middle" fill="#000000">38.4</text>
  <text x="285" y="615" font-size="18" text-anchor="middle" fill="#666666">(1.35)</text>
  
  <!-- 1 → 3: 46.1 (1.25) -->
  <rect x="420" y="510" width="130" height="70" fill="white" stroke="#000000" stroke-width="2" rx="8"/>
  <text x="485" y="540" font-size="18" font-weight="bold" text-anchor="middle" fill="#000000">46.1</text>
  <text x="485" y="565" font-size="18" text-anchor="middle" fill="#666666">(1.25)</text>
  
  <!-- 1 → 2: 34.4 (1.30) -->
  <rect x="350" y="290" width="130" height="70" fill="white" stroke="#000000" stroke-width="2" rx="8"/>
  <text x="415" y="320" font-size="18" font-weight="bold" text-anchor="middle" fill="#000000">34.4</text>
  <text x="415" y="345" font-size="18" text-anchor="middle" fill="#666666">(1.30)</text>
  
  <!-- 2 → 7: 39.5 (1.30) -->
  <rect x="700" y="160" width="130" height="70" fill="white" stroke="#000000" stroke-width="2" rx="8"/>
  <text x="765" y="190" font-size="18" font-weight="bold" text-anchor="middle" fill="#000000">39.5</text>
  <text x="765" y="215" font-size="18" text-anchor="middle" fill="#666666">(1.30)</text>
  
</svg>
