<?xml version="1.0" standalone="no"?>
<!DOCTYPE svg PUBLIC "-//W3C//DTD SVG 20010904//EN"
 "http://www.w3.org/TR/2001/REC-SVG-20010904/DTD/svg10.dtd">
<svg version="1.0" xmlns="http://www.w3.org/2000/svg"
 width="383.000000pt" height="279.000000pt" viewBox="0 0 383.000000 279.000000"
 preserveAspectRatio="xMidYMid meet">

<g transform="translate(0.000000,279.000000) scale(0.100000,-0.100000)"
fill="#000000" stroke="none">
<path d="M100 1375 l0 -1275 1795 0 1795 0 0 1275 0 1275 -1795 0 -1795 0 0
-1275z m360 1135 l0 -130 -175 0 -175 0 0 130 0 130 175 0 175 0 0 -130z m370
0 l0 -130 -180 0 -180 0 0 130 0 130 180 0 180 0 0 -130z m360 0 l0 -130 -175
0 -175 0 0 130 0 130 175 0 175 0 0 -130z m360 0 l0 -130 -175 0 -175 0 0 130
0 130 175 0 175 0 0 -130z m360 0 l0 -130 -175 0 -175 0 0 130 0 130 175 0
175 0 0 -130z m360 0 l0 -130 -175 0 -175 0 0 130 0 130 175 0 175 0 0 -130z
m330 0 l0 -130 -160 0 -160 0 0 130 0 130 160 0 160 0 0 -130z m360 0 l0 -130
-175 0 -175 0 0 130 0 130 175 0 175 0 0 -130z m360 0 l0 -130 -175 0 -175 0
0 130 0 130 175 0 175 0 0 -130z m360 0 l0 -130 -175 0 -175 0 0 130 0 130
175 0 175 0 0 -130z m-3220 -250 l0 -110 -175 0 -175 0 0 110 0 110 175 0 175
0 0 -110z m370 0 l0 -110 -180 0 -180 0 0 110 0 110 180 0 180 0 0 -110z m360
0 l0 -110 -175 0 -175 0 0 110 0 110 175 0 175 0 0 -110z m360 0 l0 -110 -175
0 -175 0 0 110 0 110 175 0 175 0 0 -110z m360 0 l0 -110 -175 0 -175 0 0 110
0 110 175 0 175 0 0 -110z m360 0 l0 -110 -175 0 -175 0 0 110 0 110 175 0
175 0 0 -110z m330 0 l0 -110 -160 0 -160 0 0 110 0 110 160 0 160 0 0 -110z
m360 0 l0 -110 -175 0 -175 0 0 110 0 110 175 0 175 0 0 -110z m360 0 l0 -110
-175 0 -175 0 0 110 0 110 175 0 175 0 0 -110z m360 0 l0 -110 -175 0 -175 0
0 110 0 110 175 0 175 0 0 -110z m-3220 -250 l0 -130 -175 0 -175 0 0 130 0
130 175 0 175 0 0 -130z m370 0 l0 -130 -180 0 -180 0 0 130 0 130 180 0 180
0 0 -130z m360 0 l0 -130 -175 0 -175 0 0 130 0 130 175 0 175 0 0 -130z m360
0 l0 -130 -175 0 -175 0 0 130 0 130 175 0 175 0 0 -130z m360 0 l0 -130 -175
0 -175 0 0 130 0 130 175 0 175 0 0 -130z m360 0 l0 -130 -175 0 -175 0 0 130
0 130 175 0 175 0 0 -130z m330 0 l0 -130 -160 0 -160 0 0 130 0 130 160 0
160 0 0 -130z m360 0 l0 -130 -175 0 -175 0 0 130 0 130 175 0 175 0 0 -130z
m360 0 l0 -130 -175 0 -175 0 0 130 0 130 175 0 175 0 0 -130z m360 0 l0 -130
-175 0 -175 0 0 130 0 130 175 0 175 0 0 -130z m-3220 -270 l0 -130 -175 0
-175 0 0 130 0 130 175 0 175 0 0 -130z m370 0 l0 -130 -180 0 -180 0 0 130 0
130 180 0 180 0 0 -130z m360 0 l0 -130 -175 0 -175 0 0 130 0 130 175 0 175
0 0 -130z m360 0 l0 -130 -175 0 -175 0 0 130 0 130 175 0 175 0 0 -130z m360
0 l0 -130 -175 0 -175 0 0 130 0 130 175 0 175 0 0 -130z m360 0 l0 -130 -175
0 -175 0 0 130 0 130 175 0 175 0 0 -130z m330 0 l0 -130 -160 0 -160 0 0 130
0 130 160 0 160 0 0 -130z m360 0 l0 -130 -175 0 -175 0 0 130 0 130 175 0
175 0 0 -130z m360 0 l0 -130 -175 0 -175 0 0 130 0 130 175 0 175 0 0 -130z
m360 0 l0 -130 -175 0 -175 0 0 130 0 130 175 0 175 0 0 -130z m-3220 -265 l0
-125 -175 0 -175 0 0 125 0 125 175 0 175 0 0 -125z m370 0 l0 -125 -180 0
-180 0 0 125 0 125 180 0 180 0 0 -125z m360 0 l0 -125 -175 0 -175 0 0 125 0
125 175 0 175 0 0 -125z m360 0 l0 -125 -175 0 -175 0 0 125 0 125 175 0 175
0 0 -125z m360 0 l0 -125 -175 0 -175 0 0 125 0 125 175 0 175 0 0 -125z m360
0 l0 -125 -175 0 -175 0 0 125 0 125 175 0 175 0 0 -125z m330 0 l0 -125 -160
0 -160 0 0 125 0 125 160 0 160 0 0 -125z m360 0 l0 -125 -175 0 -175 0 0 125
0 125 175 0 175 0 0 -125z m360 0 l0 -125 -175 0 -175 0 0 125 0 125 175 0
175 0 0 -125z m360 0 l0 -125 -175 0 -175 0 0 125 0 125 175 0 175 0 0 -125z
m-3220 -265 l0 -130 -175 0 -175 0 0 130 0 130 175 0 175 0 0 -130z m370 0 l0
-130 -180 0 -180 0 0 130 0 130 180 0 180 0 0 -130z m360 0 l0 -130 -175 0
-175 0 0 130 0 130 175 0 175 0 0 -130z m360 0 l0 -130 -175 0 -175 0 0 130 0
130 175 0 175 0 0 -130z m360 0 l0 -130 -175 0 -175 0 0 130 0 130 175 0 175
0 0 -130z m360 0 l0 -130 -175 0 -175 0 0 130 0 130 175 0 175 0 0 -130z m330
0 l0 -130 -160 0 -160 0 0 130 0 130 160 0 160 0 0 -130z m360 0 l0 -130 -175
0 -175 0 0 130 0 130 175 0 175 0 0 -130z m360 0 l0 -130 -175 0 -175 0 0 130
0 130 175 0 175 0 0 -130z m360 0 l0 -130 -175 0 -175 0 0 130 0 130 175 0
175 0 0 -130z m-3220 -270 l0 -130 -175 0 -175 0 0 130 0 130 175 0 175 0 0
-130z m370 0 l0 -130 -180 0 -180 0 0 130 0 130 180 0 180 0 0 -130z m360 0
l0 -130 -175 0 -175 0 0 130 0 130 175 0 175 0 0 -130z m360 0 l0 -130 -175 0
-175 0 0 130 0 130 175 0 175 0 0 -130z m360 0 l0 -130 -175 0 -175 0 0 130 0
130 175 0 175 0 0 -130z m360 0 l0 -130 -175 0 -175 0 0 130 0 130 175 0 175
0 0 -130z m330 0 l0 -130 -160 0 -160 0 0 130 0 130 160 0 160 0 0 -130z m360
0 l0 -130 -175 0 -175 0 0 130 0 130 175 0 175 0 0 -130z m360 0 l0 -130 -175
0 -175 0 0 130 0 130 175 0 175 0 0 -130z m360 0 l0 -130 -175 0 -175 0 0 130
0 130 175 0 175 0 0 -130z m-3220 -250 l0 -110 -175 0 -175 0 0 110 0 110 175
0 175 0 0 -110z m370 0 l0 -110 -180 0 -180 0 0 110 0 110 180 0 180 0 0 -110z
m360 0 l0 -110 -175 0 -175 0 0 110 0 110 175 0 175 0 0 -110z m360 0 l0 -110
-175 0 -175 0 0 110 0 110 175 0 175 0 0 -110z m360 0 l0 -110 -175 0 -175 0
0 110 0 110 175 0 175 0 0 -110z m360 0 l0 -110 -175 0 -175 0 0 110 0 110
175 0 175 0 0 -110z m330 0 l0 -110 -160 0 -160 0 0 110 0 110 160 0 160 0 0
-110z m360 0 l0 -110 -175 0 -175 0 0 110 0 110 175 0 175 0 0 -110z m360 0
l0 -110 -175 0 -175 0 0 110 0 110 175 0 175 0 0 -110z m360 0 l0 -110 -175 0
-175 0 0 110 0 110 175 0 175 0 0 -110z m-3220 -235 l0 -115 -175 0 -175 0 0
115 0 115 175 0 175 0 0 -115z m370 0 l0 -115 -180 0 -180 0 0 115 0 115 180
0 180 0 0 -115z m360 0 l0 -115 -175 0 -175 0 0 115 0 115 175 0 175 0 0 -115z
m360 0 l0 -115 -175 0 -175 0 0 115 0 115 175 0 175 0 0 -115z m360 0 l0 -115
-175 0 -175 0 0 115 0 115 175 0 175 0 0 -115z m360 0 l0 -115 -175 0 -175 0
0 115 0 115 175 0 175 0 0 -115z m330 0 l0 -115 -160 0 -160 0 0 115 0 115
160 0 160 0 0 -115z m360 0 l0 -115 -175 0 -175 0 0 115 0 115 175 0 175 0 0
-115z m360 0 l0 -115 -175 0 -175 0 0 115 0 115 175 0 175 0 0 -115z m360 0
l0 -115 -175 0 -175 0 0 115 0 115 175 0 175 0 0 -115z m-3220 -235 l0 -110
-175 0 -175 0 0 110 0 110 175 0 175 0 0 -110z m370 0 l0 -110 -180 0 -180 0
0 110 0 110 180 0 180 0 0 -110z m360 0 l0 -110 -175 0 -175 0 0 110 0 110
175 0 175 0 0 -110z m360 0 l0 -110 -175 0 -175 0 0 110 0 110 175 0 175 0 0
-110z m360 0 l0 -110 -175 0 -175 0 0 110 0 110 175 0 175 0 0 -110z m360 0
l0 -110 -175 0 -175 0 0 110 0 110 175 0 175 0 0 -110z m330 0 l0 -110 -160 0
-160 0 0 110 0 110 160 0 160 0 0 -110z m360 0 l0 -110 -175 0 -175 0 0 110 0
110 175 0 175 0 0 -110z m360 0 l0 -110 -175 0 -175 0 0 110 0 110 175 0 175
0 0 -110z m360 0 l0 -110 -175 0 -175 0 0 110 0 110 175 0 175 0 0 -110z"/>
<path d="M210 2556 c-6 -8 -10 -25 -8 -38 2 -19 9 -23 36 -23 17 0 32 -2 32
-5 0 -16 -28 -39 -50 -43 -22 -4 -21 -4 6 -6 35 -1 48 11 58 51 9 40 -9 78
-38 78 -13 0 -29 -7 -36 -14z m55 -16 c8 -24 -1 -40 -21 -40 -17 0 -28 24 -20
45 8 22 34 18 41 -5z"/>
<path d="M322 2558 c-17 -17 -15 -93 3 -108 8 -7 25 -10 39 -6 51 13 44 126
-7 126 -13 0 -28 -5 -35 -12z m52 -14 c17 -44 0 -101 -28 -91 -11 5 -16 19
-16 50 0 24 3 47 7 50 11 12 31 7 37 -9z"/>
<path d="M243 2413 c32 -2 81 -2 110 0 29 2 3 3 -58 3 -60 0 -84 -1 -52 -3z"/>
<path d="M598 2543 c36 -5 37 -14 5 -76 -8 -16 -12 -31 -9 -35 3 -3 7 -3 9 -1
6 7 47 107 47 113 0 3 -19 5 -42 4 -38 -1 -39 -2 -10 -5z"/>
<path d="M677 2543 c-4 -3 -7 -17 -7 -29 0 -17 7 -23 28 -26 19 -2 27 -9 27
-23 0 -15 -7 -20 -27 -20 -16 1 -28 -3 -28 -7 0 -11 41 -10 58 1 22 13 11 56
-15 59 -34 5 -30 40 5 45 26 4 26 4 -4 6 -17 0 -34 -2 -37 -6z"/>
<path d="M944 2535 c-4 -8 -3 -22 0 -31 4 -9 1 -23 -5 -30 -16 -19 6 -44 38
-44 28 0 41 25 25 50 -7 11 -7 21 -1 27 5 5 7 17 3 26 -8 21 -53 22 -60 2z
m46 -9 c0 -20 -19 -31 -32 -18 -6 6 -7 15 -4 21 10 16 36 13 36 -3z m5 -66 c0
-8 -10 -16 -22 -18 -18 -3 -23 2 -23 18 0 16 5 21 23 18 12 -2 22 -10 22 -18z"/>
<path d="M1036 2541 c-3 -4 6 -6 19 -3 33 6 35 -27 3 -36 -23 -6 -23 -6 2 -12
36 -9 34 -45 -2 -45 -17 1 -24 -3 -19 -8 5 -5 21 -7 35 -3 19 5 26 13 26 31 0
14 -5 25 -11 25 -8 0 -8 4 0 14 17 20 3 46 -24 46 -13 0 -26 -4 -29 -9z"/>
<path d="M1306 2542 c-3 -5 5 -8 17 -8 33 1 32 -28 -3 -68 l-32 -36 43 1 c31
2 35 3 16 6 l-27 4 20 30 c26 36 23 73 -7 77 -11 2 -24 -1 -27 -6z"/>
<path d="M1406 2508 l-26 -43 30 -3 c20 -2 30 -9 31 -20 0 -14 2 -14 6 -2 3 8
11 18 17 22 8 5 7 8 -1 8 -8 0 -13 15 -13 40 0 22 -4 40 -9 40 -6 0 -21 -19
-35 -42z m34 -8 c0 -23 -4 -30 -20 -30 -20 0 -20 1 -5 30 9 17 18 30 20 30 3
0 5 -13 5 -30z"/>
<path d="M1669 2533 c-12 -15 -12 -16 4 -10 15 5 17 0 17 -38 0 -33 -4 -45
-17 -48 -10 -3 0 -5 22 -5 22 0 32 2 23 5 -14 4 -18 15 -18 59 0 56 -8 66 -31
37z"/>
<path d="M1756 2541 c-3 -4 6 -6 19 -3 21 4 25 1 25 -21 0 -13 -7 -30 -16 -37
-8 -8 -20 -22 -25 -32 -9 -16 -6 -18 28 -17 31 2 33 3 10 6 l-28 4 26 30 c28
34 31 49 13 67 -14 14 -44 16 -52 3z"/>
<path d="M2026 2542 c-3 -5 4 -8 16 -8 29 1 34 -22 7 -32 l-23 -9 23 -6 c33
-8 24 -42 -11 -42 -15 1 -24 -3 -22 -7 9 -13 51 -9 64 7 7 8 9 22 5 32 -4 10
-8 29 -9 43 -1 18 -7 26 -23 28 -11 2 -24 -1 -27 -6z"/>
<path d="M2120 2540 c-12 -7 -12 -13 -4 -27 8 -12 8 -23 1 -34 -24 -39 33 -70
63 -34 10 13 10 19 -5 35 -12 13 -14 20 -6 20 7 0 11 10 9 23 -3 24 -33 33
-58 17z m45 -20 c0 -22 -29 -18 -33 3 -3 14 1 18 15 15 10 -2 18 -10 18 -18z
m3 -63 c2 -11 -3 -17 -17 -17 -23 0 -35 15 -26 31 10 15 39 6 43 -14z"/>
<path d="M2376 2534 c-19 -18 -21 -75 -4 -92 28 -28 75 -1 63 38 -4 13 -15 20
-31 20 -34 0 -29 31 6 41 23 6 23 7 3 8 -12 1 -29 -6 -37 -15z m42 -66 c-5
-34 -38 -37 -38 -4 0 20 5 26 21 26 15 0 20 -5 17 -22z"/>
<path d="M2466 2542 c-3 -5 5 -8 17 -8 31 1 32 -26 2 -62 -14 -16 -25 -33 -25
-36 0 -3 17 -5 38 -5 29 2 31 3 10 6 l-28 4 21 28 c26 35 22 75 -8 79 -11 2
-24 -1 -27 -6z"/>
<path d="M2733 2510 c-29 -49 -29 -50 2 -50 16 0 25 -6 25 -15 0 -20 18 -19
22 2 6 33 -4 103 -16 103 -6 0 -21 -18 -33 -40z m27 -10 c0 -23 -4 -30 -20
-30 -18 0 -18 1 -2 30 9 16 18 30 20 30 1 0 2 -13 2 -30z"/>
<path d="M2833 2543 c-7 -2 -13 -9 -13 -14 0 -6 5 -7 10 -4 6 4 10 -11 10 -39
0 -26 -5 -46 -12 -49 -7 -3 3 -5 22 -5 19 0 29 2 23 5 -8 3 -13 25 -13 59 0
53 -3 57 -27 47z"/>
<path d="M3080 2521 c0 -23 5 -30 23 -33 34 -5 30 -43 -5 -43 -14 1 -24 -3
-22 -7 9 -14 51 -9 65 8 16 20 1 48 -30 52 -32 5 -28 40 7 45 25 4 25 4 -5 6
-30 1 -33 -2 -33 -28z"/>
<path d="M3174 2536 c-11 -29 1 -51 29 -54 15 -2 27 -7 27 -11 0 -12 -22 -28
-45 -34 -16 -4 -15 -5 6 -6 37 -1 51 20 47 71 -3 39 -6 43 -31 46 -17 2 -29
-2 -33 -12z m54 -24 c3 -16 -2 -22 -17 -22 -24 0 -35 15 -27 36 9 23 40 13 44
-14z"/>
<path d="M3448 2559 c-10 -5 -18 -15 -18 -21 0 -7 5 -6 15 2 13 11 15 6 15
-38 0 -40 -4 -52 -17 -55 -10 -3 2 -5 27 -5 25 0 37 2 28 5 -15 4 -18 16 -18
64 0 61 -3 65 -32 48z"/>
<path d="M3542 2558 c-17 -17 -15 -93 3 -108 8 -7 25 -10 39 -6 51 13 44 126
-7 126 -13 0 -28 -5 -35 -12z m52 -14 c17 -44 0 -101 -28 -91 -11 5 -16 19
-16 50 0 24 3 47 7 50 11 12 31 7 37 -9z"/>
<path d="M3463 2413 c32 -2 81 -2 110 0 29 2 3 3 -58 3 -60 0 -84 -1 -52 -3z"/>
<path d="M229 2293 c-12 -15 -12 -16 4 -10 15 5 17 0 17 -38 0 -33 -4 -45 -17
-48 -10 -3 0 -5 22 -5 22 0 32 2 23 5 -14 4 -18 15 -18 59 0 56 -8 66 -31 37z"/>
<path d="M322 2298 c-17 -17 -15 -83 3 -98 37 -31 78 23 59 78 -10 30 -42 40
-62 20z m43 -48 c0 -34 -4 -45 -17 -48 -12 -2 -19 5 -24 22 -9 39 3 78 24 74
13 -3 17 -14 17 -48z"/>
<path d="M598 2303 c36 -5 37 -14 5 -76 -8 -16 -12 -31 -9 -35 3 -3 7 -3 9 -1
6 7 47 107 47 113 0 3 -19 5 -42 4 -38 -1 -39 -2 -10 -5z"/>
<path d="M677 2303 c-4 -3 -7 -17 -7 -29 0 -17 7 -23 28 -26 19 -2 27 -9 27
-23 0 -15 -7 -20 -27 -20 -16 1 -28 -3 -28 -7 0 -11 41 -10 58 1 22 13 11 56
-15 59 -34 5 -30 40 5 45 26 4 26 4 -4 6 -17 0 -34 -2 -37 -6z"/>
<path d="M944 2295 c-4 -8 -3 -22 0 -31 4 -9 1 -23 -5 -30 -16 -19 6 -44 38
-44 28 0 41 25 25 50 -7 11 -7 21 -1 27 5 5 7 17 3 26 -8 21 -53 22 -60 2z
m46 -9 c0 -20 -19 -31 -32 -18 -6 6 -7 15 -4 21 10 16 36 13 36 -3z m5 -66 c0
-8 -10 -16 -22 -18 -18 -3 -23 2 -23 18 0 16 5 21 23 18 12 -2 22 -10 22 -18z"/>
<path d="M1036 2301 c-3 -4 6 -6 19 -3 33 6 35 -27 3 -36 -23 -6 -23 -6 2 -12
36 -9 34 -45 -2 -45 -17 1 -24 -3 -19 -8 5 -5 21 -7 35 -3 19 5 26 13 26 31 0
14 -5 25 -11 25 -8 0 -8 4 0 14 17 20 3 46 -24 46 -13 0 -26 -4 -29 -9z"/>
<path d="M1306 2302 c-3 -5 5 -8 17 -8 33 1 32 -28 -3 -68 l-32 -36 43 1 c31
2 35 3 16 6 l-27 4 20 30 c26 36 23 73 -7 77 -11 2 -24 -1 -27 -6z"/>
<path d="M1406 2268 l-26 -43 30 -3 c20 -2 30 -9 31 -20 0 -14 2 -14 6 -2 3 8
11 18 17 22 8 5 7 8 -1 8 -8 0 -13 15 -13 40 0 22 -4 40 -9 40 -6 0 -21 -19
-35 -42z m34 -8 c0 -23 -4 -30 -20 -30 -20 0 -20 1 -5 30 9 17 18 30 20 30 3
0 5 -13 5 -30z"/>
<path d="M1669 2293 c-12 -15 -12 -16 4 -10 15 5 17 0 17 -38 0 -33 -4 -45
-17 -48 -10 -3 0 -5 22 -5 22 0 32 2 23 5 -14 4 -18 15 -18 59 0 56 -8 66 -31
37z"/>
<path d="M1756 2301 c-3 -4 6 -6 19 -3 21 4 25 1 25 -21 0 -13 -7 -30 -16 -37
-8 -8 -20 -22 -25 -32 -9 -16 -6 -18 28 -17 31 2 33 3 10 6 l-28 4 26 30 c28
34 31 49 13 67 -14 14 -44 16 -52 3z"/>
<path d="M2026 2302 c-3 -5 4 -8 16 -8 29 1 34 -22 7 -32 l-23 -9 23 -6 c33
-8 24 -42 -11 -42 -15 1 -24 -3 -22 -7 9 -13 51 -9 64 7 7 8 9 22 5 32 -4 10
-8 29 -9 43 -1 18 -7 26 -23 28 -11 2 -24 -1 -27 -6z"/>
<path d="M2120 2300 c-12 -7 -12 -13 -4 -27 8 -12 8 -23 1 -34 -24 -39 33 -70
63 -34 10 13 10 19 -5 35 -12 13 -14 20 -6 20 7 0 11 10 9 23 -3 24 -33 33
-58 17z m45 -20 c0 -22 -29 -18 -33 3 -3 14 1 18 15 15 10 -2 18 -10 18 -18z
m3 -63 c2 -11 -3 -17 -17 -17 -23 0 -35 15 -26 31 10 15 39 6 43 -14z"/>
<path d="M2376 2294 c-19 -18 -21 -75 -4 -92 28 -28 75 -1 63 38 -4 13 -15 20
-31 20 -34 0 -29 31 6 41 23 6 23 7 3 8 -12 1 -29 -6 -37 -15z m42 -66 c-5
-34 -38 -37 -38 -4 0 20 5 26 21 26 15 0 20 -5 17 -22z"/>
<path d="M2466 2302 c-3 -5 5 -8 17 -8 31 1 32 -26 2 -62 -14 -16 -25 -33 -25
-36 0 -3 17 -5 38 -5 29 2 31 3 10 6 l-28 4 21 28 c26 35 22 75 -8 79 -11 2
-24 -1 -27 -6z"/>
<path d="M2733 2270 c-29 -49 -29 -50 2 -50 16 0 25 -6 25 -15 0 -20 18 -19
22 2 6 33 -4 103 -16 103 -6 0 -21 -18 -33 -40z m27 -10 c0 -23 -4 -30 -20
-30 -18 0 -18 1 -2 30 9 16 18 30 20 30 1 0 2 -13 2 -30z"/>
<path d="M2833 2303 c-7 -2 -13 -9 -13 -14 0 -6 5 -7 10 -4 6 4 10 -11 10 -39
0 -26 -5 -46 -12 -49 -7 -3 3 -5 22 -5 19 0 29 2 23 5 -8 3 -13 25 -13 59 0
53 -3 57 -27 47z"/>
<path d="M3080 2281 c0 -23 5 -30 23 -33 34 -5 30 -43 -5 -43 -14 1 -24 -3
-22 -7 9 -14 51 -9 65 8 16 20 1 48 -30 52 -32 5 -28 40 7 45 25 4 25 4 -5 6
-30 1 -33 -2 -33 -28z"/>
<path d="M3174 2296 c-11 -29 1 -51 29 -54 15 -2 27 -7 27 -11 0 -12 -22 -28
-45 -34 -16 -4 -15 -5 6 -6 37 -1 51 20 47 71 -3 39 -6 43 -31 46 -17 2 -29
-2 -33 -12z m54 -24 c3 -16 -2 -22 -17 -22 -24 0 -35 15 -27 36 9 23 40 13 44
-14z"/>
<path d="M3439 2294 c-17 -20 -1 -48 30 -52 30 -5 23 -34 -9 -43 -23 -6 -23
-7 -3 -8 31 -1 53 25 53 63 0 52 -42 75 -71 40z m51 -19 c0 -18 -5 -25 -20
-25 -20 0 -28 28 -13 43 15 16 33 6 33 -18z"/>
<path d="M3542 2298 c-17 -17 -15 -83 3 -98 37 -31 78 23 59 78 -10 30 -42 40
-62 20z m43 -48 c0 -34 -4 -45 -17 -48 -12 -2 -19 5 -24 22 -9 39 3 78 24 74
13 -3 17 -14 17 -48z"/>
<path d="M229 2033 c-12 -15 -12 -16 4 -10 15 5 17 0 17 -38 0 -33 -4 -45 -17
-48 -10 -3 0 -5 22 -5 22 0 32 2 23 5 -14 4 -18 15 -18 59 0 56 -8 66 -31 37z"/>
<path d="M322 2038 c-17 -17 -15 -83 3 -98 37 -31 78 23 59 78 -10 30 -42 40
-62 20z m43 -48 c0 -34 -4 -45 -17 -48 -12 -2 -19 5 -24 22 -9 39 3 78 24 74
13 -3 17 -14 17 -48z"/>
<path d="M588 2059 c-10 -5 -18 -15 -18 -21 0 -7 5 -6 15 2 13 11 15 6 15 -38
0 -40 -4 -52 -17 -55 -10 -3 2 -5 27 -5 25 0 37 2 28 5 -15 4 -18 16 -18 64 0
61 -3 65 -32 48z"/>
<path d="M675 2060 c-4 -7 2 -9 19 -4 33 8 45 -17 22 -49 -9 -12 -23 -32 -32
-44 -16 -23 -16 -23 27 -22 29 1 35 3 17 6 l-27 4 26 41 c21 30 24 44 16 56
-12 20 -58 28 -68 12z"/>
<path d="M603 1913 c32 -2 81 -2 110 0 29 2 3 3 -58 3 -60 0 -84 -1 -52 -3z"/>
<path d="M944 2035 c-4 -8 -3 -22 0 -31 4 -9 1 -23 -5 -30 -16 -19 6 -44 38
-44 28 0 41 25 25 50 -7 11 -7 21 -1 27 5 5 7 17 3 26 -8 21 -53 22 -60 2z
m46 -9 c0 -20 -19 -31 -32 -18 -6 6 -7 15 -4 21 10 16 36 13 36 -3z m5 -66 c0
-8 -10 -16 -22 -18 -18 -3 -23 2 -23 18 0 16 5 21 23 18 12 -2 22 -10 22 -18z"/>
<path d="M1036 2041 c-3 -4 6 -6 19 -3 33 6 35 -27 3 -36 -23 -6 -23 -6 2 -12
36 -9 34 -45 -2 -45 -17 1 -24 -3 -19 -8 5 -5 21 -7 35 -3 19 5 26 13 26 31 0
14 -5 25 -11 25 -8 0 -8 4 0 14 17 20 3 46 -24 46 -13 0 -26 -4 -29 -9z"/>
<path d="M1306 2042 c-3 -5 5 -8 17 -8 31 1 32 -26 2 -62 -14 -16 -25 -33 -25
-36 0 -3 17 -5 38 -5 30 2 32 3 9 6 l-27 4 20 30 c26 36 23 73 -7 77 -11 2
-24 -1 -27 -6z"/>
<path d="M1406 2008 l-26 -43 30 -3 c20 -2 30 -9 31 -20 0 -14 2 -14 6 -2 3 8
11 18 17 22 8 5 7 8 -1 8 -8 0 -13 15 -13 40 0 22 -4 40 -9 40 -6 0 -21 -19
-35 -42z m34 -8 c0 -23 -4 -30 -20 -30 -20 0 -20 1 -5 30 9 17 18 30 20 30 3
0 5 -13 5 -30z"/>
<path d="M1668 2063 c36 -5 38 -12 18 -51 -21 -41 -28 -72 -18 -72 6 0 15 12
20 28 6 15 17 44 26 65 l16 37 -47 -2 c-37 -1 -40 -2 -15 -5z"/>
<path d="M1757 2063 c-4 -3 -7 -17 -7 -29 0 -17 7 -23 28 -26 21 -2 27 -8 27
-28 0 -21 -5 -25 -27 -25 -16 1 -28 -3 -28 -7 0 -13 55 -9 68 4 7 7 12 22 12
35 0 18 -7 25 -30 30 -43 8 -41 40 3 46 l32 4 -36 1 c-20 1 -39 -1 -42 -5z"/>
<path d="M1683 1913 c32 -2 81 -2 110 0 29 2 3 3 -58 3 -60 0 -84 -1 -52 -3z"/>
<path d="M2026 2042 c-3 -5 4 -8 16 -8 29 1 34 -22 7 -32 l-23 -9 23 -6 c33
-8 24 -42 -11 -42 -15 1 -24 -3 -22 -7 9 -13 51 -9 64 7 7 8 9 22 5 32 -4 10
-8 29 -9 43 -1 18 -7 26 -23 28 -11 2 -24 -1 -27 -6z"/>
<path d="M2120 2040 c-12 -7 -12 -13 -4 -27 8 -12 8 -23 1 -34 -24 -39 33 -70
63 -34 10 13 10 19 -5 35 -12 13 -14 20 -6 20 7 0 11 10 9 23 -3 24 -33 33
-58 17z m45 -20 c0 -22 -29 -18 -33 3 -3 14 1 18 15 15 10 -2 18 -10 18 -18z
m3 -63 c2 -11 -3 -17 -17 -17 -23 0 -35 15 -26 31 10 15 39 6 43 -14z"/>
<path d="M2376 2034 c-19 -18 -21 -75 -4 -92 28 -28 75 -1 63 38 -4 13 -15 20
-31 20 -34 0 -29 31 6 41 23 6 23 7 3 8 -12 1 -29 -6 -37 -15z m42 -66 c-5
-34 -38 -37 -38 -4 0 20 5 26 21 26 15 0 20 -5 17 -22z"/>
<path d="M2466 2042 c-3 -5 5 -8 17 -8 31 1 32 -26 2 -62 -14 -16 -25 -33 -25
-36 0 -3 17 -5 38 -5 29 2 31 3 10 6 l-28 4 21 28 c26 35 22 75 -8 79 -11 2
-24 -1 -27 -6z"/>
<path d="M2733 2010 c-29 -49 -29 -50 2 -50 16 0 25 -6 25 -15 0 -20 18 -19
22 2 6 33 -4 103 -16 103 -6 0 -21 -18 -33 -40z m27 -10 c0 -23 -4 -30 -20
-30 -18 0 -18 1 -2 30 9 16 18 30 20 30 1 0 2 -13 2 -30z"/>
<path d="M2833 2043 c-7 -2 -13 -9 -13 -14 0 -6 5 -7 10 -4 6 4 10 -11 10 -39
0 -26 -5 -46 -12 -49 -7 -3 3 -5 22 -5 19 0 29 2 23 5 -8 3 -13 25 -13 59 0
53 -3 57 -27 47z"/>
<path d="M3080 2021 c0 -23 5 -30 23 -33 34 -5 30 -43 -5 -43 -14 1 -24 -3
-22 -7 9 -14 51 -9 65 8 16 20 1 48 -30 52 -32 5 -28 40 7 45 25 4 25 4 -5 6
-30 1 -33 -2 -33 -28z"/>
<path d="M3174 2036 c-11 -29 1 -51 29 -54 15 -2 27 -7 27 -11 0 -12 -22 -28
-45 -34 -16 -4 -15 -5 6 -6 37 -1 51 20 47 71 -3 39 -6 43 -31 46 -17 2 -29
-2 -33 -12z m54 -24 c3 -16 -2 -22 -17 -22 -24 0 -35 15 -27 36 9 23 40 13 44
-14z"/>
<path d="M3439 2034 c-17 -20 -1 -48 30 -52 30 -5 23 -34 -9 -43 -23 -6 -23
-7 -3 -8 31 -1 53 25 53 63 0 52 -42 75 -71 40z m51 -19 c0 -18 -5 -25 -20
-25 -20 0 -28 28 -13 43 15 16 33 6 33 -18z"/>
<path d="M3542 2038 c-17 -17 -15 -83 3 -98 37 -31 78 23 59 78 -10 30 -42 40
-62 20z m43 -48 c0 -34 -4 -45 -17 -48 -12 -2 -19 5 -24 22 -9 39 3 78 24 74
13 -3 17 -14 17 -48z"/>
<path d="M229 1763 c-12 -15 -12 -16 4 -10 15 5 17 0 17 -38 0 -33 -4 -45 -17
-48 -10 -3 0 -5 22 -5 22 0 32 2 23 5 -14 4 -18 15 -18 59 0 56 -8 66 -31 37z"/>
<path d="M322 1768 c-17 -17 -15 -83 3 -98 37 -31 78 23 59 78 -10 30 -42 40
-62 20z m43 -48 c0 -34 -4 -45 -17 -48 -12 -2 -19 5 -24 22 -9 39 3 78 24 74
13 -3 17 -14 17 -48z"/>
<path d="M589 1763 c-12 -15 -12 -16 4 -10 15 5 17 0 17 -38 0 -33 -4 -45 -17
-48 -10 -3 0 -5 22 -5 22 0 32 2 23 5 -14 4 -18 15 -18 59 0 56 -8 66 -31 37z"/>
<path d="M676 1771 c-3 -4 6 -6 19 -3 21 4 25 1 25 -21 0 -13 -7 -30 -16 -37
-8 -8 -20 -22 -25 -32 -9 -16 -6 -18 28 -17 31 2 33 3 10 6 l-28 4 26 30 c28
34 31 49 13 67 -14 14 -44 16 -52 3z"/>
<path d="M925 1790 c-4 -7 2 -9 19 -4 19 4 28 2 32 -11 4 -10 3 -23 -2 -30 -5
-7 -19 -27 -32 -44 l-23 -31 48 2 c36 1 40 2 15 5 l-32 4 25 33 c28 36 31 56
13 74 -15 15 -55 16 -63 2z"/>
<path d="M1046 1750 l-27 -50 30 0 c21 0 31 -5 31 -15 0 -8 5 -15 10 -15 6 0
10 6 10 14 0 8 6 17 13 19 10 4 10 6 0 6 -9 1 -13 17 -13 46 0 60 -19 59 -54
-5z m34 -10 c0 -24 -4 -30 -21 -30 -20 0 -20 1 -2 30 9 17 19 30 20 30 2 0 3
-13 3 -30z"/>
<path d="M963 1643 c32 -2 81 -2 110 0 29 2 3 3 -58 3 -60 0 -84 -1 -52 -3z"/>
<path d="M1291 1786 c-16 -19 -6 -38 30 -59 33 -18 35 -42 3 -42 -13 0 -19 7
-18 23 1 28 -20 23 -24 -6 -6 -38 70 -43 85 -6 4 10 0 22 -9 28 -11 8 -12 15
-5 27 24 38 -33 70 -62 35z m57 -13 c5 -17 -26 -29 -40 -15 -6 6 -7 15 -3 22
9 14 37 9 43 -7z"/>
<path d="M1395 1790 c-4 -7 2 -9 18 -5 14 4 28 2 31 -3 11 -17 -5 -42 -28 -43
-19 -1 -18 -2 4 -8 36 -10 34 -46 -2 -46 -14 1 -24 -3 -22 -7 6 -9 36 -10 58
-2 18 7 22 54 6 54 -7 0 -7 7 0 21 9 15 8 24 -1 35 -13 16 -55 19 -64 4z"/>
<path d="M1323 1643 c32 -2 81 -2 110 0 29 2 3 3 -58 3 -60 0 -84 -1 -52 -3z"/>
<path d="M1678 1773 c36 -5 37 -14 5 -76 -8 -16 -12 -31 -9 -35 3 -3 7 -3 9
-1 6 7 47 107 47 113 0 3 -19 5 -42 4 -38 -1 -39 -2 -10 -5z"/>
<path d="M1757 1773 c-4 -3 -7 -17 -7 -29 0 -17 7 -23 28 -26 19 -2 27 -9 27
-23 0 -15 -7 -20 -27 -20 -16 1 -28 -3 -28 -7 0 -11 41 -10 58 1 22 13 11 56
-15 59 -34 5 -30 40 5 45 26 4 26 4 -4 6 -17 0 -34 -2 -37 -6z"/>
<path d="M2026 1772 c-3 -5 4 -8 16 -8 29 1 34 -22 7 -32 l-23 -9 23 -6 c33
-8 24 -42 -11 -42 -15 1 -24 -3 -22 -7 9 -13 51 -9 64 7 7 8 9 22 5 32 -4 10
-8 29 -9 43 -1 18 -7 26 -23 28 -11 2 -24 -1 -27 -6z"/>
<path d="M2120 1770 c-12 -7 -12 -13 -4 -27 8 -12 8 -23 1 -34 -24 -39 33 -70
63 -34 10 13 10 19 -5 35 -12 13 -14 20 -6 20 7 0 11 10 9 23 -3 24 -33 33
-58 17z m45 -20 c0 -22 -29 -18 -33 3 -3 14 1 18 15 15 10 -2 18 -10 18 -18z
m3 -63 c2 -11 -3 -17 -17 -17 -23 0 -35 15 -26 31 10 15 39 6 43 -14z"/>
<path d="M2376 1764 c-19 -18 -21 -75 -4 -92 28 -28 75 -1 63 38 -4 13 -15 20
-31 20 -34 0 -29 31 6 41 23 6 23 7 3 8 -12 1 -29 -6 -37 -15z m42 -66 c-5
-34 -38 -37 -38 -4 0 20 5 26 21 26 15 0 20 -5 17 -22z"/>
<path d="M2466 1772 c-3 -5 5 -8 17 -8 31 1 32 -26 2 -62 -14 -16 -25 -33 -25
-36 0 -3 17 -5 38 -5 29 2 31 3 10 6 l-28 4 21 28 c26 35 22 75 -8 79 -11 2
-24 -1 -27 -6z"/>
<path d="M2733 1740 c-29 -49 -29 -50 2 -50 16 0 25 -6 25 -15 0 -20 18 -19
22 2 6 33 -4 103 -16 103 -6 0 -21 -18 -33 -40z m27 -10 c0 -23 -4 -30 -20
-30 -18 0 -18 1 -2 30 9 16 18 30 20 30 1 0 2 -13 2 -30z"/>
<path d="M2833 1773 c-7 -2 -13 -9 -13 -14 0 -6 5 -7 10 -4 6 4 10 -11 10 -39
0 -26 -5 -46 -12 -49 -7 -3 3 -5 22 -5 19 0 29 2 23 5 -8 3 -13 25 -13 59 0
53 -3 57 -27 47z"/>
<path d="M3080 1751 c0 -23 5 -30 23 -33 34 -5 30 -43 -5 -43 -14 1 -24 -3
-22 -7 9 -14 51 -9 65 8 16 20 1 48 -30 52 -32 5 -28 40 7 45 25 4 25 4 -5 6
-30 1 -33 -2 -33 -28z"/>
<path d="M3174 1766 c-11 -29 1 -51 29 -54 15 -2 27 -7 27 -11 0 -12 -22 -28
-45 -34 -16 -4 -15 -5 6 -6 37 -1 51 20 47 71 -3 39 -6 43 -31 46 -17 2 -29
-2 -33 -12z m54 -24 c3 -16 -2 -22 -17 -22 -24 0 -35 15 -27 36 9 23 40 13 44
-14z"/>
<path d="M3439 1764 c-17 -20 -1 -48 30 -52 30 -5 23 -34 -9 -43 -23 -6 -23
-7 -3 -8 31 -1 53 25 53 63 0 52 -42 75 -71 40z m51 -19 c0 -18 -5 -25 -20
-25 -20 0 -28 28 -13 43 15 16 33 6 33 -18z"/>
<path d="M3542 1768 c-17 -17 -15 -83 3 -98 37 -31 78 23 59 78 -10 30 -42 40
-62 20z m43 -48 c0 -34 -4 -45 -17 -48 -12 -2 -19 5 -24 22 -9 39 3 78 24 74
13 -3 17 -14 17 -48z"/>
<path d="M229 1493 c-12 -15 -12 -16 4 -10 15 5 17 0 17 -38 0 -33 -4 -45 -17
-48 -10 -3 0 -5 22 -5 22 0 32 2 23 5 -14 4 -18 15 -18 59 0 56 -8 66 -31 37z"/>
<path d="M322 1498 c-17 -17 -15 -83 3 -98 37 -31 78 23 59 78 -10 30 -42 40
-62 20z m43 -48 c0 -34 -4 -45 -17 -48 -12 -2 -19 5 -24 22 -9 39 3 78 24 74
13 -3 17 -14 17 -48z"/>
<path d="M589 1493 c-12 -15 -12 -16 4 -10 15 5 17 0 17 -38 0 -33 -4 -45 -17
-48 -10 -3 0 -5 22 -5 22 0 32 2 23 5 -14 4 -18 15 -18 59 0 56 -8 66 -31 37z"/>
<path d="M676 1501 c-3 -4 6 -6 19 -3 21 4 25 1 25 -21 0 -13 -7 -30 -16 -37
-8 -8 -20 -22 -25 -32 -9 -16 -6 -18 28 -17 31 2 33 3 10 6 l-28 4 26 30 c28
34 31 49 13 67 -14 14 -44 16 -52 3z"/>
<path d="M946 1502 c-3 -5 5 -8 17 -8 31 1 32 -26 2 -62 -14 -16 -25 -33 -25
-36 0 -3 17 -5 38 -5 30 2 32 3 9 6 l-27 4 20 30 c26 36 23 73 -7 77 -11 2
-24 -1 -27 -6z"/>
<path d="M1046 1468 l-26 -43 30 -3 c20 -2 30 -9 31 -20 0 -14 2 -14 6 -2 3 8
11 18 17 22 8 5 7 8 -1 8 -8 0 -13 15 -13 40 0 22 -4 40 -9 40 -6 0 -21 -19
-35 -42z m34 -8 c0 -23 -4 -30 -20 -30 -20 0 -20 1 -5 30 9 17 18 30 20 30 3
0 5 -13 5 -30z"/>
<path d="M1300 1502 c0 -5 10 -8 21 -8 30 1 36 -22 8 -32 l-23 -9 23 -6 c34
-9 24 -43 -12 -40 -15 1 -25 -2 -22 -8 9 -14 51 -11 65 6 7 8 9 22 5 32 -4 10
-8 29 -9 43 -1 19 -7 26 -28 28 -16 2 -28 -1 -28 -6z"/>
<path d="M1394 1495 c-4 -9 -2 -21 4 -27 7 -7 7 -16 0 -28 -25 -40 32 -71 62
-35 10 13 10 19 -5 35 -12 13 -14 20 -6 20 7 0 11 10 9 23 -4 28 -55 38 -64
12z m51 -15 c0 -22 -29 -18 -33 3 -3 14 1 18 15 15 10 -2 18 -10 18 -18z m3
-63 c2 -11 -3 -17 -17 -17 -23 0 -35 15 -26 31 10 15 39 6 43 -14z"/>
<path d="M1328 1363 c29 -2 74 -2 100 0 26 2 2 3 -53 3 -55 0 -76 -1 -47 -3z"/>
<path d="M1678 1503 c36 -5 37 -14 5 -76 -8 -16 -12 -31 -9 -35 3 -3 7 -3 9
-1 6 7 47 107 47 113 0 3 -19 5 -42 4 -38 -1 -39 -2 -10 -5z"/>
<path d="M1757 1503 c-4 -3 -7 -17 -7 -29 0 -17 7 -23 28 -26 19 -2 27 -9 27
-23 0 -15 -7 -20 -27 -20 -16 1 -28 -3 -28 -7 0 -11 41 -10 58 1 22 13 11 56
-15 59 -34 5 -30 40 5 45 26 4 26 4 -4 6 -17 0 -34 -2 -37 -6z"/>
<path d="M2011 1516 c-16 -19 -4 -42 30 -56 34 -14 36 -45 4 -45 -14 0 -20 6
-19 23 1 28 -20 23 -24 -6 -6 -38 70 -43 85 -6 4 10 0 22 -9 28 -11 8 -12 15
-5 27 24 38 -33 70 -62 35z m57 -13 c5 -17 -26 -29 -40 -15 -6 6 -7 15 -3 22
9 14 37 9 43 -7z"/>
<path d="M2115 1520 c-4 -7 2 -9 18 -5 14 4 28 2 31 -3 11 -17 -5 -42 -28 -43
-19 -1 -18 -2 4 -8 36 -10 34 -46 -2 -46 -14 1 -24 -3 -22 -7 6 -9 36 -10 58
-2 18 7 22 54 6 54 -7 0 -7 7 0 21 9 15 8 24 -1 35 -13 16 -55 19 -64 4z"/>
<path d="M2043 1373 c32 -2 81 -2 110 0 29 2 3 3 -58 3 -60 0 -84 -1 -52 -3z"/>
<path d="M2376 1494 c-19 -18 -21 -75 -4 -92 28 -28 75 -1 63 38 -4 13 -15 20
-31 20 -34 0 -29 31 6 41 23 6 23 7 3 8 -12 1 -29 -6 -37 -15z m42 -66 c-5
-34 -38 -37 -38 -4 0 20 5 26 21 26 15 0 20 -5 17 -22z"/>
<path d="M2466 1502 c-3 -5 5 -8 17 -8 31 1 32 -26 2 -62 -14 -16 -25 -33 -25
-36 0 -3 17 -5 38 -5 29 2 31 3 10 6 l-28 4 21 28 c26 35 22 75 -8 79 -11 2
-24 -1 -27 -6z"/>
<path d="M2733 1470 c-29 -49 -29 -50 2 -50 16 0 25 -6 25 -15 0 -20 18 -19
22 2 6 33 -4 103 -16 103 -6 0 -21 -18 -33 -40z m27 -10 c0 -23 -4 -30 -20
-30 -18 0 -18 1 -2 30 9 16 18 30 20 30 1 0 2 -13 2 -30z"/>
<path d="M2833 1503 c-7 -2 -13 -9 -13 -14 0 -6 5 -7 10 -4 6 4 10 -11 10 -39
0 -26 -5 -46 -12 -49 -7 -3 3 -5 22 -5 19 0 29 2 23 5 -8 3 -13 25 -13 59 0
53 -3 57 -27 47z"/>
<path d="M3080 1481 c0 -23 5 -30 23 -33 34 -5 30 -43 -5 -43 -14 1 -24 -3
-22 -7 9 -14 51 -9 65 8 16 20 1 48 -30 52 -32 5 -28 40 7 45 25 4 25 4 -5 6
-30 1 -33 -2 -33 -28z"/>
<path d="M3174 1496 c-11 -29 1 -51 29 -54 15 -2 27 -7 27 -11 0 -12 -22 -28
-45 -34 -16 -4 -15 -5 6 -6 37 -1 51 20 47 71 -3 39 -6 43 -31 46 -17 2 -29
-2 -33 -12z m54 -24 c3 -16 -2 -22 -17 -22 -24 0 -35 15 -27 36 9 23 40 13 44
-14z"/>
<path d="M3439 1494 c-17 -20 -1 -48 30 -52 30 -5 23 -34 -9 -43 -23 -6 -23
-7 -3 -8 31 -1 53 25 53 63 0 52 -42 75 -71 40z m51 -19 c0 -18 -5 -25 -20
-25 -20 0 -28 28 -13 43 15 16 33 6 33 -18z"/>
<path d="M3542 1498 c-17 -17 -15 -83 3 -98 37 -31 78 23 59 78 -10 30 -42 40
-62 20z m43 -48 c0 -34 -4 -45 -17 -48 -12 -2 -19 5 -24 22 -9 39 3 78 24 74
13 -3 17 -14 17 -48z"/>
<path d="M229 1233 c-12 -15 -12 -16 4 -10 15 5 17 0 17 -38 0 -33 -4 -45 -17
-48 -10 -3 0 -5 22 -5 22 0 32 2 23 5 -14 4 -18 15 -18 59 0 56 -8 66 -31 37z"/>
<path d="M322 1238 c-17 -17 -15 -83 3 -98 37 -31 78 23 59 78 -10 30 -42 40
-62 20z m43 -48 c0 -34 -4 -45 -17 -48 -21 -4 -33 35 -24 74 5 17 12 24 24 22
13 -3 17 -14 17 -48z"/>
<path d="M589 1233 c-12 -15 -12 -16 4 -10 15 5 17 0 17 -38 0 -33 -4 -45 -17
-48 -10 -3 0 -5 22 -5 22 0 32 2 23 5 -14 4 -18 15 -18 59 0 56 -8 66 -31 37z"/>
<path d="M676 1241 c-3 -4 6 -6 19 -3 21 4 25 1 25 -21 0 -13 -7 -30 -16 -37
-8 -8 -20 -22 -25 -32 -9 -16 -6 -18 28 -17 31 2 33 3 10 6 l-28 4 26 30 c28
34 31 49 13 67 -14 14 -44 16 -52 3z"/>
<path d="M946 1242 c-3 -5 5 -8 17 -8 31 1 32 -26 2 -62 -14 -16 -25 -33 -25
-36 0 -3 17 -5 38 -5 30 2 32 3 9 6 l-27 4 20 30 c26 36 23 73 -7 77 -11 2
-24 -1 -27 -6z"/>
<path d="M1046 1208 l-26 -43 30 -3 c20 -2 30 -9 31 -20 0 -14 2 -14 6 -2 3 8
11 18 17 22 8 5 7 8 -1 8 -8 0 -13 15 -13 40 0 22 -4 40 -9 40 -6 0 -21 -19
-35 -42z m34 -8 c0 -23 -4 -30 -20 -30 -20 0 -20 1 -5 30 9 17 18 30 20 30 3
0 5 -13 5 -30z"/>
<path d="M1306 1242 c-3 -5 4 -8 16 -8 29 1 34 -22 7 -32 l-23 -9 23 -6 c33
-8 24 -42 -11 -42 -15 1 -24 -3 -22 -7 9 -13 51 -9 64 7 7 8 9 22 5 32 -4 10
-8 29 -9 43 -1 18 -7 26 -23 28 -11 2 -24 -1 -27 -6z"/>
<path d="M1400 1240 c-12 -7 -12 -13 -4 -27 8 -12 8 -23 1 -34 -24 -39 33 -70
63 -34 10 13 10 19 -5 35 -12 13 -14 20 -6 20 7 0 11 10 9 23 -3 24 -33 33
-58 17z m45 -20 c0 -22 -29 -18 -33 3 -3 14 1 18 15 15 10 -2 18 -10 18 -18z
m3 -63 c2 -11 -3 -17 -17 -17 -23 0 -35 15 -26 31 10 15 39 6 43 -14z"/>
<path d="M1663 1230 c-29 -50 -29 -60 2 -60 16 0 25 -6 25 -15 0 -8 5 -15 10
-15 6 0 10 6 10 14 0 8 6 17 13 19 10 4 10 6 0 6 -9 1 -13 17 -13 46 0 57 -17
59 -47 5z m27 -20 c0 -24 -4 -30 -21 -30 -20 0 -20 1 -2 30 9 17 19 30 20 30
2 0 3 -13 3 -30z"/>
<path d="M1778 1259 c-10 -5 -18 -15 -18 -21 0 -7 5 -6 15 2 13 11 15 6 15
-38 0 -40 -4 -52 -17 -55 -10 -3 0 -5 22 -5 22 0 34 2 28 5 -9 3 -13 26 -13
64 0 61 -3 65 -32 48z"/>
<path d="M1683 1113 c32 -2 81 -2 110 0 29 2 3 3 -58 3 -60 0 -84 -1 -52 -3z"/>
<path d="M2024 1235 c-4 -8 -3 -22 0 -31 4 -9 1 -23 -5 -30 -16 -19 6 -44 38
-44 28 0 41 25 25 50 -7 11 -7 21 -1 27 5 5 7 17 3 26 -8 21 -53 22 -60 2z
m46 -9 c0 -20 -19 -31 -32 -18 -6 6 -7 15 -4 21 10 16 36 13 36 -3z m5 -66 c0
-8 -10 -16 -22 -18 -18 -3 -23 2 -23 18 0 16 5 21 23 18 12 -2 22 -10 22 -18z"/>
<path d="M2116 1241 c-3 -4 6 -6 19 -3 33 6 35 -27 3 -36 -23 -6 -23 -6 2 -12
36 -9 34 -45 -2 -45 -17 1 -24 -3 -19 -8 5 -5 21 -7 35 -3 19 5 26 13 26 31 0
14 -5 25 -11 25 -8 0 -8 4 0 14 17 20 3 46 -24 46 -13 0 -26 -4 -29 -9z"/>
<path d="M2376 1234 c-19 -18 -21 -75 -4 -92 28 -28 75 -1 63 38 -4 13 -15 20
-31 20 -34 0 -29 31 6 41 23 6 23 7 3 8 -12 1 -29 -6 -37 -15z m42 -66 c-5
-34 -38 -37 -38 -4 0 20 5 26 21 26 15 0 20 -5 17 -22z"/>
<path d="M2466 1242 c-3 -5 5 -8 17 -8 31 1 32 -26 2 -62 -14 -16 -25 -33 -25
-36 0 -3 17 -5 38 -5 29 2 31 3 10 6 l-28 4 21 28 c26 35 22 75 -8 79 -11 2
-24 -1 -27 -6z"/>
<path d="M2728 1263 c38 -5 38 -7 12 -68 -23 -53 -23 -55 -11 -55 5 0 14 12
19 28 6 15 17 44 26 65 l16 37 -47 -2 c-37 -1 -40 -2 -15 -5z"/>
<path d="M2816 1262 c-11 -18 2 -47 25 -52 17 -4 24 -13 24 -30 0 -21 -5 -25
-27 -25 -16 1 -28 -3 -28 -7 0 -13 55 -9 68 4 7 7 12 22 12 35 0 18 -7 25 -30
30 -43 8 -41 40 3 46 l32 4 -37 1 c-20 1 -39 -2 -42 -6z"/>
<path d="M2743 1113 c32 -2 81 -2 110 0 29 2 3 3 -58 3 -60 0 -84 -1 -52 -3z"/>
<path d="M3080 1221 c0 -23 5 -30 23 -33 34 -5 30 -43 -5 -43 -14 1 -24 -3
-22 -7 9 -14 51 -9 65 8 16 20 1 48 -30 52 -32 5 -28 40 7 45 25 4 25 4 -5 6
-30 1 -33 -2 -33 -28z"/>
<path d="M3174 1236 c-11 -29 1 -51 29 -54 15 -2 27 -7 27 -11 0 -12 -22 -28
-45 -34 -16 -4 -15 -5 6 -6 37 -1 51 20 47 71 -3 39 -6 43 -31 46 -17 2 -29
-2 -33 -12z m54 -24 c3 -16 -2 -22 -17 -22 -24 0 -35 15 -27 36 9 23 40 13 44
-14z"/>
<path d="M3439 1234 c-17 -20 -1 -48 30 -52 30 -5 23 -34 -9 -43 -23 -6 -23
-7 -3 -8 31 -1 53 25 53 63 0 52 -42 75 -71 40z m51 -19 c0 -18 -5 -25 -20
-25 -20 0 -28 28 -13 43 15 16 33 6 33 -18z"/>
<path d="M3542 1238 c-17 -17 -15 -83 3 -98 37 -31 78 23 59 78 -10 30 -42 40
-62 20z m43 -48 c0 -34 -4 -45 -17 -48 -21 -4 -33 35 -24 74 5 17 12 24 24 22
13 -3 17 -14 17 -48z"/>
<path d="M229 963 c-12 -15 -12 -16 4 -10 15 5 17 0 17 -38 0 -33 -4 -45 -17
-48 -10 -3 0 -5 22 -5 22 0 32 2 23 5 -14 4 -18 15 -18 59 0 56 -8 66 -31 37z"/>
<path d="M322 968 c-17 -17 -15 -83 3 -98 37 -31 78 23 59 78 -10 30 -42 40
-62 20z m43 -48 c0 -34 -4 -45 -17 -48 -21 -4 -33 35 -24 74 5 17 12 24 24 22
13 -3 17 -14 17 -48z"/>
<path d="M589 963 c-12 -15 -12 -16 4 -10 15 5 17 0 17 -38 0 -33 -4 -45 -17
-48 -10 -3 0 -5 22 -5 22 0 32 2 23 5 -14 4 -18 15 -18 59 0 56 -8 66 -31 37z"/>
<path d="M676 971 c-3 -4 6 -6 19 -3 21 4 25 1 25 -21 0 -13 -7 -30 -16 -37
-8 -8 -20 -22 -25 -32 -9 -16 -6 -18 28 -17 31 2 33 3 10 6 l-28 4 26 30 c28
34 31 49 13 67 -14 14 -44 16 -52 3z"/>
<path d="M946 972 c-3 -5 5 -8 17 -8 31 1 32 -26 2 -62 -14 -16 -25 -33 -25
-36 0 -3 17 -5 38 -5 30 2 32 3 9 6 l-27 4 20 30 c26 36 23 73 -7 77 -11 2
-24 -1 -27 -6z"/>
<path d="M1046 938 l-26 -43 30 -3 c20 -2 30 -9 31 -20 0 -14 2 -14 6 -2 3 8
11 18 17 22 8 5 7 8 -1 8 -8 0 -13 15 -13 40 0 22 -4 40 -9 40 -6 0 -21 -19
-35 -42z m34 -8 c0 -23 -4 -30 -20 -30 -20 0 -20 1 -5 30 9 17 18 30 20 30 3
0 5 -13 5 -30z"/>
<path d="M1306 972 c-3 -5 4 -8 16 -8 29 1 34 -22 7 -32 l-23 -9 23 -6 c33 -8
24 -42 -11 -42 -15 1 -24 -3 -22 -7 9 -13 51 -9 64 7 7 8 9 22 5 32 -4 10 -8
29 -9 43 -1 18 -7 26 -23 28 -11 2 -24 -1 -27 -6z"/>
<path d="M1400 970 c-12 -7 -12 -13 -4 -27 8 -12 8 -23 1 -34 -24 -39 33 -70
63 -34 10 13 10 19 -5 35 -12 13 -14 20 -6 20 7 0 11 10 9 23 -3 24 -33 33
-58 17z m45 -20 c0 -22 -29 -18 -33 3 -3 14 1 18 15 15 10 -2 18 -10 18 -18z
m3 -63 c2 -11 -3 -17 -17 -17 -23 0 -35 15 -26 31 10 15 39 6 43 -14z"/>
<path d="M1673 940 c-29 -49 -29 -50 2 -50 16 0 25 -6 25 -15 0 -8 5 -15 10
-15 6 0 10 6 10 14 0 8 6 17 13 19 10 4 10 6 0 6 -8 1 -13 16 -13 41 0 52 -18
52 -47 0z m27 -10 c0 -23 -4 -30 -20 -30 -18 0 -18 1 -2 30 9 16 18 30 20 30
1 0 2 -13 2 -30z"/>
<path d="M1773 973 c-7 -2 -13 -9 -13 -14 0 -6 5 -7 10 -4 6 4 10 -11 10 -39
0 -26 -5 -46 -12 -49 -7 -3 3 -5 22 -5 19 0 29 2 23 5 -8 3 -13 25 -13 59 0
53 -3 57 -27 47z"/>
<path d="M2010 970 c0 -23 5 -30 19 -30 10 0 24 -6 30 -13 16 -20 -10 -52 -38
-44 -11 3 -21 1 -21 -4 0 -15 56 -10 70 5 20 26 8 61 -22 64 -42 5 -38 39 5
45 31 4 31 4 -5 5 -36 2 -38 0 -38 -28z"/>
<path d="M2120 986 c-6 -8 -10 -25 -8 -38 2 -19 9 -23 36 -23 17 0 32 -2 32
-5 0 -16 -28 -39 -50 -43 l-25 -4 26 -2 c42 -2 62 20 62 68 0 44 -13 61 -44
61 -9 0 -22 -7 -29 -14z m50 -11 c16 -20 5 -45 -20 -45 -14 0 -20 7 -20 23 0
38 18 48 40 22z"/>
<path d="M2043 843 c32 -2 81 -2 110 0 29 2 3 3 -58 3 -60 0 -84 -1 -52 -3z"/>
<path d="M2376 964 c-19 -18 -21 -75 -4 -92 28 -28 75 -1 63 38 -4 13 -15 20
-31 20 -34 0 -29 31 6 41 23 6 23 7 3 8 -12 1 -29 -6 -37 -15z m42 -66 c-5
-34 -38 -37 -38 -4 0 20 5 26 21 26 15 0 20 -5 17 -22z"/>
<path d="M2466 972 c-3 -5 5 -8 17 -8 31 1 32 -26 2 -62 -14 -16 -25 -33 -25
-36 0 -3 17 -5 38 -5 29 2 31 3 10 6 l-28 4 21 28 c26 35 22 75 -8 79 -11 2
-24 -1 -27 -6z"/>
<path d="M2738 973 c36 -5 37 -14 5 -76 -8 -16 -12 -31 -9 -35 3 -3 7 -3 9 -1
6 7 47 107 47 113 0 3 -19 5 -42 4 -38 -1 -39 -2 -10 -5z"/>
<path d="M2817 973 c-4 -3 -7 -17 -7 -29 0 -17 7 -23 28 -26 19 -2 27 -9 27
-23 0 -15 -7 -20 -27 -20 -16 1 -28 -3 -28 -7 0 -11 41 -10 58 1 22 13 11 56
-15 59 -34 5 -30 40 5 45 26 4 26 4 -4 6 -17 0 -34 -2 -37 -6z"/>
<path d="M3071 986 c-16 -19 -6 -38 30 -59 33 -18 35 -42 3 -42 -13 0 -19 7
-18 23 1 28 -20 23 -24 -6 -6 -38 70 -43 85 -6 4 10 0 22 -9 28 -11 8 -12 15
-5 27 24 38 -33 70 -62 35z m57 -13 c5 -17 -26 -29 -40 -15 -6 6 -7 15 -3 22
9 14 37 9 43 -7z"/>
<path d="M3175 990 c-4 -7 2 -9 18 -5 14 4 28 2 31 -3 11 -17 -5 -42 -28 -43
-19 -1 -18 -2 4 -8 36 -10 34 -46 -2 -46 -14 1 -24 -3 -22 -7 6 -9 36 -10 58
-2 18 7 22 54 6 54 -7 0 -7 7 0 21 9 15 8 24 -1 35 -13 16 -55 19 -64 4z"/>
<path d="M3103 843 c32 -2 81 -2 110 0 29 2 3 3 -58 3 -60 0 -84 -1 -52 -3z"/>
<path d="M3439 964 c-17 -20 -1 -48 30 -52 30 -5 23 -34 -9 -43 -23 -6 -23 -7
-3 -8 31 -1 53 25 53 63 0 52 -42 75 -71 40z m51 -19 c0 -18 -5 -25 -20 -25
-20 0 -28 28 -13 43 15 16 33 6 33 -18z"/>
<path d="M3542 968 c-17 -17 -15 -83 3 -98 37 -31 78 23 59 78 -10 30 -42 40
-62 20z m43 -48 c0 -34 -4 -45 -17 -48 -21 -4 -33 35 -24 74 5 17 12 24 24 22
13 -3 17 -14 17 -48z"/>
<path d="M229 723 c-12 -15 -12 -16 4 -10 15 5 17 0 17 -38 0 -33 -4 -45 -17
-48 -10 -3 0 -5 22 -5 22 0 32 2 23 5 -14 4 -18 15 -18 59 0 56 -8 66 -31 37z"/>
<path d="M322 728 c-17 -17 -15 -83 3 -98 37 -31 78 23 59 78 -10 30 -42 40
-62 20z m43 -48 c0 -34 -4 -45 -17 -48 -21 -4 -33 35 -24 74 5 17 12 24 24 22
13 -3 17 -14 17 -48z"/>
<path d="M589 723 c-12 -15 -12 -16 4 -10 15 5 17 0 17 -38 0 -33 -4 -45 -17
-48 -10 -3 0 -5 22 -5 22 0 32 2 23 5 -14 4 -18 15 -18 59 0 56 -8 66 -31 37z"/>
<path d="M676 731 c-3 -4 6 -6 19 -3 21 4 25 1 25 -21 0 -13 -7 -30 -16 -37
-8 -8 -20 -22 -25 -32 -9 -16 -6 -18 28 -17 31 2 33 3 10 6 l-28 4 26 30 c28
34 31 49 13 67 -14 14 -44 16 -52 3z"/>
<path d="M946 732 c-3 -5 5 -8 17 -8 31 1 32 -26 2 -62 -14 -16 -25 -33 -25
-36 0 -3 17 -5 38 -5 30 2 32 3 9 6 l-27 4 20 30 c26 36 23 73 -7 77 -11 2
-24 -1 -27 -6z"/>
<path d="M1046 698 l-26 -43 30 -3 c20 -2 30 -9 31 -20 0 -14 2 -14 6 -2 3 8
11 18 17 22 8 5 7 8 -1 8 -8 0 -13 15 -13 40 0 22 -4 40 -9 40 -6 0 -21 -19
-35 -42z m34 -8 c0 -23 -4 -30 -20 -30 -20 0 -20 1 -5 30 9 17 18 30 20 30 3
0 5 -13 5 -30z"/>
<path d="M1306 732 c-3 -5 4 -8 16 -8 29 1 34 -22 7 -32 l-23 -9 23 -6 c33 -8
24 -42 -11 -42 -15 1 -24 -3 -22 -7 9 -13 51 -9 64 7 7 8 9 22 5 32 -4 10 -8
29 -9 43 -1 18 -7 26 -23 28 -11 2 -24 -1 -27 -6z"/>
<path d="M1400 730 c-12 -7 -12 -13 -4 -27 8 -12 8 -23 1 -34 -24 -39 33 -70
63 -34 10 13 10 19 -5 35 -12 13 -14 20 -6 20 7 0 11 10 9 23 -3 24 -33 33
-58 17z m45 -20 c0 -22 -29 -18 -33 3 -3 14 1 18 15 15 10 -2 18 -10 18 -18z
m3 -63 c2 -11 -3 -17 -17 -17 -23 0 -35 15 -26 31 10 15 39 6 43 -14z"/>
<path d="M1673 700 c-29 -49 -29 -50 2 -50 16 0 25 -6 25 -15 0 -8 5 -15 10
-15 6 0 10 6 10 14 0 8 6 17 13 19 10 4 10 6 0 6 -8 1 -13 16 -13 41 0 52 -18
52 -47 0z m27 -10 c0 -23 -4 -30 -20 -30 -18 0 -18 1 -2 30 9 16 18 30 20 30
1 0 2 -13 2 -30z"/>
<path d="M1773 733 c-7 -2 -13 -9 -13 -14 0 -6 5 -7 10 -4 6 4 10 -11 10 -39
0 -26 -5 -46 -12 -49 -7 -3 3 -5 22 -5 19 0 29 2 23 5 -8 3 -13 25 -13 59 0
53 -3 57 -27 47z"/>
<path d="M2020 711 c0 -23 5 -30 23 -33 34 -5 30 -43 -5 -43 -14 1 -24 -3 -22
-7 9 -14 51 -9 65 8 16 20 1 48 -30 52 -32 5 -28 40 7 45 25 4 25 4 -5 6 -30
1 -33 -2 -33 -28z"/>
<path d="M2114 726 c-11 -29 1 -51 29 -54 15 -2 27 -7 27 -11 0 -12 -22 -28
-45 -34 -16 -4 -15 -5 6 -6 37 -1 51 20 47 71 -3 39 -6 43 -31 46 -17 2 -29
-2 -33 -12z m54 -24 c3 -16 -2 -22 -17 -22 -24 0 -35 15 -27 36 9 23 40 13 44
-14z"/>
<path d="M2376 724 c-19 -18 -21 -75 -4 -92 28 -28 75 -1 63 38 -4 13 -15 20
-31 20 -34 0 -29 31 6 41 23 6 23 7 3 8 -12 1 -29 -6 -37 -15z m42 -66 c-5
-34 -38 -37 -38 -4 0 20 5 26 21 26 15 0 20 -5 17 -22z"/>
<path d="M2466 732 c-3 -5 5 -8 17 -8 31 1 32 -26 2 -62 -14 -16 -25 -33 -25
-36 0 -3 17 -5 38 -5 29 2 31 3 10 6 l-28 4 21 28 c26 35 22 75 -8 79 -11 2
-24 -1 -27 -6z"/>
<path d="M2738 733 c36 -5 37 -14 5 -76 -8 -16 -12 -31 -9 -35 3 -3 7 -3 9 -1
6 7 47 107 47 113 0 3 -19 5 -42 4 -38 -1 -39 -2 -10 -5z"/>
<path d="M2817 733 c-4 -3 -7 -17 -7 -29 0 -17 7 -23 28 -26 19 -2 27 -9 27
-23 0 -15 -7 -20 -27 -20 -16 1 -28 -3 -28 -7 0 -11 41 -10 58 1 22 13 11 56
-15 59 -34 5 -30 40 5 45 26 4 26 4 -4 6 -17 0 -34 -2 -37 -6z"/>
<path d="M3084 725 c-4 -8 -3 -22 0 -31 4 -9 1 -23 -5 -30 -16 -19 6 -44 38
-44 28 0 41 25 25 50 -7 11 -7 21 -1 27 5 5 7 17 3 26 -8 21 -53 22 -60 2z
m46 -9 c0 -8 -5 -18 -11 -22 -14 -8 -33 11 -25 25 10 16 36 13 36 -3z m5 -66
c0 -8 -10 -16 -22 -18 -18 -3 -23 2 -23 18 0 16 5 21 23 18 12 -2 22 -10 22
-18z"/>
<path d="M3176 731 c-3 -4 6 -6 19 -3 33 6 35 -27 3 -36 -23 -6 -23 -6 2 -12
36 -9 34 -45 -2 -45 -17 1 -24 -3 -19 -8 5 -5 21 -7 35 -3 19 5 26 13 26 31 0
14 -5 25 -11 25 -8 0 -8 4 0 14 17 20 3 46 -24 46 -13 0 -26 -4 -29 -9z"/>
<path d="M3439 724 c-17 -20 -1 -48 30 -52 30 -5 23 -34 -9 -43 -23 -6 -23 -7
-3 -8 31 -1 53 25 53 63 0 52 -42 75 -71 40z m51 -19 c0 -18 -5 -25 -20 -25
-20 0 -28 28 -13 43 15 16 33 6 33 -18z"/>
<path d="M3542 728 c-17 -17 -15 -83 3 -98 37 -31 78 23 59 78 -10 30 -42 40
-62 20z m43 -48 c0 -34 -4 -45 -17 -48 -21 -4 -33 35 -24 74 5 17 12 24 24 22
13 -3 17 -14 17 -48z"/>
<path d="M229 493 c-12 -15 -12 -16 4 -10 15 5 17 0 17 -38 0 -33 -4 -45 -17
-48 -10 -3 0 -5 22 -6 32 0 36 2 23 10 -13 7 -18 23 -18 59 0 52 -8 61 -31 33z"/>
<path d="M322 498 c-17 -17 -15 -83 3 -98 37 -31 78 23 59 78 -10 30 -42 40
-62 20z m43 -48 c0 -34 -4 -45 -17 -48 -21 -4 -33 35 -24 74 5 17 12 24 24 22
13 -3 17 -14 17 -48z"/>
<path d="M589 493 c-12 -15 -12 -16 4 -10 15 5 17 0 17 -38 0 -33 -4 -45 -17
-48 -10 -3 0 -5 22 -5 22 0 32 2 23 5 -14 4 -18 15 -18 59 0 56 -8 66 -31 37z"/>
<path d="M676 501 c-3 -4 6 -6 19 -3 21 4 25 1 25 -21 0 -13 -7 -30 -16 -37
-8 -8 -20 -22 -25 -32 -9 -16 -6 -18 28 -17 31 2 33 3 10 6 l-28 4 26 30 c28
34 31 49 13 67 -14 14 -44 16 -52 3z"/>
<path d="M946 502 c-3 -5 5 -8 17 -8 31 1 32 -26 2 -62 -14 -16 -25 -33 -25
-36 0 -3 17 -5 38 -5 30 2 32 3 9 6 l-27 4 20 30 c26 36 23 73 -7 77 -11 2
-24 -1 -27 -6z"/>
<path d="M1046 468 l-26 -43 30 -3 c20 -2 30 -9 31 -20 0 -14 2 -14 6 -2 3 8
11 18 17 22 8 5 7 8 -1 8 -8 0 -13 15 -13 40 0 22 -4 40 -9 40 -6 0 -21 -19
-35 -42z m34 -8 c0 -23 -4 -30 -20 -30 -20 0 -20 1 -5 30 9 17 18 30 20 30 3
0 5 -13 5 -30z"/>
<path d="M1306 502 c-3 -5 4 -8 16 -8 29 1 34 -22 7 -32 l-23 -9 23 -6 c33 -8
24 -42 -11 -42 -15 1 -24 -3 -22 -7 9 -13 51 -9 64 7 7 8 9 22 5 32 -4 10 -8
29 -9 43 -1 18 -7 26 -23 28 -11 2 -24 -1 -27 -6z"/>
<path d="M1400 500 c-12 -7 -12 -13 -4 -27 8 -12 8 -23 1 -34 -24 -39 33 -70
63 -34 10 13 10 19 -5 35 -12 13 -14 20 -6 20 7 0 11 10 9 23 -3 24 -33 33
-58 17z m45 -20 c0 -22 -29 -18 -33 3 -3 14 1 18 15 15 10 -2 18 -10 18 -18z
m3 -63 c2 -11 -3 -17 -17 -17 -23 0 -35 15 -26 31 10 15 39 6 43 -14z"/>
<path d="M1673 470 c-29 -49 -29 -50 2 -50 16 0 25 -6 25 -15 0 -20 18 -19 22
2 6 33 -4 103 -16 103 -6 0 -21 -18 -33 -40z m27 -10 c0 -23 -4 -30 -20 -30
-18 0 -18 1 -2 30 9 16 18 30 20 30 1 0 2 -13 2 -30z"/>
<path d="M1773 503 c-7 -2 -13 -9 -13 -14 0 -6 5 -7 10 -4 6 4 10 -11 10 -39
0 -26 -5 -46 -12 -49 -7 -3 3 -5 22 -5 19 0 29 2 23 5 -8 3 -13 25 -13 59 0
53 -3 57 -27 47z"/>
<path d="M2020 481 c0 -23 5 -30 23 -33 34 -5 30 -43 -5 -43 -14 1 -24 -3 -22
-7 9 -14 51 -9 65 8 16 20 1 48 -30 52 -32 5 -28 40 7 45 25 4 25 4 -5 6 -30
1 -33 -2 -33 -28z"/>
<path d="M2114 496 c-11 -29 1 -51 29 -54 15 -2 27 -7 27 -11 0 -12 -22 -28
-45 -34 -16 -4 -15 -5 6 -6 37 -1 51 20 47 71 -3 39 -6 43 -31 46 -17 2 -29
-2 -33 -12z m54 -24 c3 -16 -2 -22 -17 -22 -24 0 -35 15 -27 36 9 23 40 13 44
-14z"/>
<path d="M2376 494 c-19 -18 -21 -75 -4 -92 28 -28 75 -1 63 38 -4 13 -15 20
-31 20 -34 0 -29 31 6 41 23 6 23 7 3 8 -12 1 -29 -6 -37 -15z m42 -66 c-5
-34 -38 -37 -38 -4 0 20 5 26 21 26 15 0 20 -5 17 -22z"/>
<path d="M2466 502 c-3 -5 5 -8 17 -8 31 1 32 -26 2 -62 -14 -16 -25 -33 -25
-36 0 -3 17 -5 38 -5 29 2 31 3 10 6 l-28 4 21 28 c26 35 22 75 -8 79 -11 2
-24 -1 -27 -6z"/>
<path d="M2738 503 c36 -5 37 -14 5 -76 -8 -16 -12 -31 -9 -35 3 -3 7 -3 9 -1
6 7 47 107 47 113 0 3 -19 5 -42 4 -38 -1 -39 -2 -10 -5z"/>
<path d="M2817 503 c-4 -3 -7 -17 -7 -29 0 -17 7 -23 28 -26 19 -2 27 -9 27
-23 0 -15 -7 -20 -27 -20 -16 1 -28 -3 -28 -7 0 -11 41 -10 58 1 22 13 11 56
-15 59 -34 5 -30 40 5 45 26 4 26 4 -4 6 -17 0 -34 -2 -37 -6z"/>
<path d="M3084 495 c-4 -8 -3 -22 0 -31 4 -9 1 -23 -5 -30 -16 -19 6 -44 38
-44 28 0 41 25 25 50 -7 11 -7 21 -1 27 5 5 7 17 3 26 -8 21 -53 22 -60 2z
m46 -9 c0 -8 -5 -18 -11 -22 -14 -8 -33 11 -25 25 10 16 36 13 36 -3z m5 -66
c0 -8 -10 -16 -22 -18 -18 -3 -23 2 -23 18 0 16 5 21 23 18 12 -2 22 -10 22
-18z"/>
<path d="M3176 501 c-3 -4 6 -6 19 -3 33 6 35 -27 3 -36 -23 -6 -23 -6 2 -12
36 -9 34 -45 -2 -45 -17 1 -24 -3 -19 -8 5 -5 21 -7 35 -3 19 5 26 13 26 31 0
14 -5 25 -11 25 -8 0 -8 4 0 14 17 20 3 46 -24 46 -13 0 -26 -4 -29 -9z"/>
<path d="M3439 494 c-17 -20 -1 -48 30 -52 30 -5 23 -34 -9 -43 -23 -6 -23 -7
-3 -8 31 -1 53 25 53 63 0 52 -42 75 -71 40z m51 -19 c0 -18 -5 -25 -20 -25
-20 0 -28 28 -13 43 15 16 33 6 33 -18z"/>
<path d="M3542 498 c-17 -17 -15 -83 3 -98 37 -31 78 23 59 78 -10 30 -42 40
-62 20z m43 -48 c0 -34 -4 -45 -17 -48 -21 -4 -33 35 -24 74 5 17 12 24 24 22
13 -3 17 -14 17 -48z"/>
<path d="M229 253 c-12 -15 -12 -16 4 -10 15 5 17 0 17 -38 0 -33 -4 -45 -17
-48 -10 -3 0 -5 22 -6 32 0 36 2 23 10 -13 7 -18 23 -18 59 0 52 -8 61 -31 33z"/>
<path d="M322 258 c-17 -17 -15 -83 3 -98 37 -31 78 23 59 78 -10 30 -42 40
-62 20z m43 -48 c0 -34 -4 -45 -17 -48 -12 -2 -19 5 -24 22 -9 39 3 78 24 74
13 -3 17 -14 17 -48z"/>
<path d="M589 253 c-12 -15 -12 -16 4 -10 15 5 17 0 17 -38 0 -33 -4 -45 -17
-48 -10 -3 0 -5 22 -5 22 0 32 2 23 5 -14 4 -18 15 -18 59 0 56 -8 66 -31 37z"/>
<path d="M676 261 c-3 -4 6 -6 19 -3 21 4 25 1 25 -21 0 -13 -7 -30 -16 -37
-8 -8 -20 -22 -25 -32 -9 -16 -6 -18 28 -17 31 2 33 3 10 6 l-28 4 26 30 c28
34 31 49 13 67 -14 14 -44 16 -52 3z"/>
<path d="M946 262 c-3 -5 5 -8 17 -8 31 1 32 -26 2 -62 -14 -16 -25 -33 -25
-36 0 -3 17 -5 38 -5 30 2 32 3 9 6 l-27 4 20 30 c26 36 23 73 -7 77 -11 2
-24 -1 -27 -6z"/>
<path d="M1046 228 l-26 -43 30 -3 c20 -2 30 -9 31 -20 0 -14 2 -14 6 -2 3 8
11 18 17 22 8 5 7 8 -1 8 -8 0 -13 15 -13 40 0 22 -4 40 -9 40 -6 0 -21 -19
-35 -42z m34 -8 c0 -23 -4 -30 -20 -30 -20 0 -20 1 -5 30 9 17 18 30 20 30 3
0 5 -13 5 -30z"/>
<path d="M1306 262 c-3 -5 4 -8 16 -8 29 1 34 -22 7 -32 l-23 -9 23 -6 c33 -8
24 -42 -11 -42 -15 1 -24 -3 -22 -7 9 -13 51 -9 64 7 7 8 9 22 5 32 -4 10 -8
29 -9 43 -1 18 -7 26 -23 28 -11 2 -24 -1 -27 -6z"/>
<path d="M1400 260 c-12 -7 -12 -13 -4 -27 8 -12 8 -23 1 -34 -24 -39 33 -70
63 -34 10 13 10 19 -5 35 -12 13 -14 20 -6 20 7 0 11 10 9 23 -3 24 -33 33
-58 17z m45 -20 c0 -22 -29 -18 -33 3 -3 14 1 18 15 15 10 -2 18 -10 18 -18z
m3 -63 c2 -11 -3 -17 -17 -17 -23 0 -35 15 -26 31 10 15 39 6 43 -14z"/>
<path d="M1673 230 c-29 -49 -29 -50 2 -50 16 0 25 -6 25 -15 0 -20 18 -19 22
2 6 33 -4 103 -16 103 -6 0 -21 -18 -33 -40z m27 -10 c0 -23 -4 -30 -20 -30
-18 0 -18 1 -2 30 9 16 18 30 20 30 1 0 2 -13 2 -30z"/>
<path d="M1773 263 c-7 -2 -13 -9 -13 -14 0 -6 5 -7 10 -4 6 4 10 -11 10 -39
0 -26 -5 -46 -12 -49 -7 -3 3 -5 22 -5 19 0 29 2 23 5 -8 3 -13 25 -13 59 0
53 -3 57 -27 47z"/>
<path d="M2020 241 c0 -23 5 -30 23 -33 34 -5 30 -43 -5 -43 -14 1 -24 -3 -22
-7 9 -14 51 -9 65 8 16 20 1 48 -30 52 -32 5 -28 40 7 45 25 4 25 4 -5 6 -30
1 -33 -2 -33 -28z"/>
<path d="M2114 256 c-11 -29 1 -51 29 -54 15 -2 27 -7 27 -11 0 -12 -22 -28
-45 -34 -16 -4 -15 -5 6 -6 37 -1 51 20 47 71 -3 39 -6 43 -31 46 -17 2 -29
-2 -33 -12z m54 -24 c3 -16 -2 -22 -17 -22 -24 0 -35 15 -27 36 9 23 40 13 44
-14z"/>
<path d="M2376 254 c-19 -18 -21 -75 -4 -92 28 -28 75 -1 63 38 -4 13 -15 20
-31 20 -34 0 -29 31 6 41 23 6 23 7 3 8 -12 1 -29 -6 -37 -15z m42 -66 c-5
-34 -38 -37 -38 -4 0 20 5 26 21 26 15 0 20 -5 17 -22z"/>
<path d="M2466 262 c-3 -5 5 -8 17 -8 31 1 32 -26 2 -62 -14 -16 -25 -33 -25
-36 0 -3 17 -5 38 -5 29 2 31 3 10 6 l-28 4 21 28 c26 35 22 75 -8 79 -11 2
-24 -1 -27 -6z"/>
<path d="M2738 263 c36 -5 37 -14 5 -76 -8 -16 -12 -31 -9 -35 3 -3 7 -3 9 -1
6 7 47 107 47 113 0 3 -19 5 -42 4 -38 -1 -39 -2 -10 -5z"/>
<path d="M2817 263 c-4 -3 -7 -17 -7 -29 0 -17 7 -23 28 -26 19 -2 27 -9 27
-23 0 -15 -7 -20 -27 -20 -16 1 -28 -3 -28 -7 0 -11 41 -10 58 1 22 13 11 56
-15 59 -34 5 -30 40 5 45 26 4 26 4 -4 6 -17 0 -34 -2 -37 -6z"/>
<path d="M3084 255 c-4 -8 -3 -22 0 -31 4 -9 1 -23 -5 -30 -16 -19 6 -44 38
-44 28 0 41 25 25 50 -7 11 -7 21 -1 27 5 5 7 17 3 26 -8 21 -53 22 -60 2z
m46 -9 c0 -8 -5 -18 -11 -22 -14 -8 -33 11 -25 25 10 16 36 13 36 -3z m5 -66
c0 -8 -10 -16 -22 -18 -18 -3 -23 2 -23 18 0 16 5 21 23 18 12 -2 22 -10 22
-18z"/>
<path d="M3176 261 c-3 -4 6 -6 19 -3 33 6 35 -27 3 -36 -23 -6 -23 -6 2 -12
36 -9 34 -45 -2 -45 -17 1 -24 -3 -19 -8 5 -5 21 -7 35 -3 19 5 26 13 26 31 0
14 -5 25 -11 25 -8 0 -8 4 0 14 17 20 3 46 -24 46 -13 0 -26 -4 -29 -9z"/>
<path d="M3439 254 c-17 -20 -1 -48 30 -52 30 -5 23 -34 -9 -43 -23 -6 -23 -7
-3 -8 31 -1 53 25 53 63 0 52 -42 75 -71 40z m51 -19 c0 -18 -5 -25 -20 -25
-20 0 -28 28 -13 43 15 16 33 6 33 -18z"/>
<path d="M3542 258 c-17 -17 -15 -83 3 -98 37 -31 78 23 59 78 -10 30 -42 40
-62 20z m43 -48 c0 -34 -4 -45 -17 -48 -12 -2 -19 5 -24 22 -9 39 3 78 24 74
13 -3 17 -14 17 -48z"/>
</g>
</svg>
