<?xml version="1.0" standalone="no"?>
<!DOCTYPE svg PUBLIC "-//W3C//DTD SVG 20010904//EN"
 "http://www.w3.org/TR/2001/REC-SVG-20010904/DTD/svg10.dtd">
<svg version="1.0" xmlns="http://www.w3.org/2000/svg"
 width="742.000000pt" height="337.000000pt" viewBox="0 0 742.000000 337.000000"
 preserveAspectRatio="xMidYMid meet">

<g transform="translate(0.000000,337.000000) scale(0.100000,-0.100000)"
fill="#000000" stroke="none">
<path d="M1670 3085 l0 -115 31 0 c35 0 36 23 1 28 -21 3 -22 9 -22 87 0 80 1
83 25 89 35 9 31 26 -5 26 l-30 0 0 -115z"/>
<path d="M5880 3190 c0 -5 11 -12 25 -16 24 -6 25 -9 25 -92 0 -47 -3 -82 -6
-79 -9 8 -44 -11 -44 -23 0 -6 14 -10 30 -10 l30 0 0 115 0 115 -30 0 c-16 0
-30 -4 -30 -10z"/>
<path d="M2112 3174 c-25 -17 -29 -44 -7 -44 8 0 15 5 15 10 0 6 10 11 23 11
17 1 18 2 4 6 -10 3 -24 -1 -32 -7 -10 -8 -15 -9 -15 -2 0 20 38 34 61 22 27
-15 22 -53 -8 -55 -13 -1 -26 -4 -29 -8 -12 -11 8 -28 29 -25 31 4 37 -46 8
-62 -22 -11 -61 1 -61 20 0 6 8 5 19 -1 23 -15 51 -5 50 18 -1 17 -2 17 -6 1
-5 -19 -38 -24 -48 -8 -11 17 -25 11 -25 -10 0 -30 46 -45 75 -26 21 14 23 23
22 81 -2 53 -6 69 -21 81 -25 18 -27 17 -54 -2z m48 -74 c0 -5 -4 -10 -10 -10
-5 0 -10 5 -10 10 0 6 5 10 10 10 6 0 10 -4 10 -10z"/>
<path d="M2240 3179 c-12 -8 -10 -9 7 -4 29 8 61 -10 66 -37 l4 -23 2 22 c0
12 -9 29 -21 37 -26 19 -37 20 -58 5z"/>
<path d="M2554 3174 c-18 -14 -18 -15 4 -4 29 14 56 5 70 -23 6 -12 11 -16 11
-9 1 16 -35 52 -52 52 -7 0 -22 -7 -33 -16z"/>
<path d="M2678 3179 c-10 -5 -18 -19 -18 -29 0 -21 15 -27 25 -10 10 16 35 12
35 -5 0 -9 -7 -18 -15 -21 -22 -9 -18 -31 5 -37 11 -3 20 -1 20 5 0 5 5 6 10
3 21 -13 10 -54 -17 -69 -16 -8 -23 -15 -18 -16 38 -1 74 67 44 85 -6 4 -8 14
-5 22 3 8 1 11 -4 8 -6 -3 -10 5 -10 19 0 28 -26 36 -48 14 -8 -8 -12 -8 -12
-1 0 24 29 36 58 24 25 -10 26 -10 8 4 -23 17 -34 18 -58 4z m47 -79 c-3 -5
-11 -10 -16 -10 -6 0 -7 5 -4 10 3 6 11 10 16 10 6 0 7 -4 4 -10z"/>
<path d="M3005 3177 c-14 -11 -19 -30 -21 -81 -3 -62 -1 -67 23 -83 23 -15 28
-15 52 -2 24 13 26 20 27 79 0 86 -32 122 -81 87z m59 -13 c18 -18 21 -40 6
-49 -5 -3 -10 -1 -10 6 0 7 -3 9 -6 6 -4 -4 1 -18 10 -31 22 -34 20 -63 -5
-77 -16 -8 -28 -8 -45 0 -28 12 -31 41 -8 77 9 13 14 27 10 31 -3 3 -6 1 -6
-6 0 -7 -4 -9 -10 -6 -23 14 4 65 35 65 7 0 21 -7 29 -16z"/>
<path d="M3017 3153 c-3 -5 5 -8 18 -8 13 0 21 3 18 8 -2 4 -10 7 -18 7 -8 0
-16 -3 -18 -7z"/>
<path d="M3011 3076 c-16 -20 -3 -46 24 -46 13 0 26 7 29 16 7 19 -10 44 -29
44 -7 0 -18 -6 -24 -14z m47 -13 c5 -17 -26 -29 -40 -15 -6 6 -7 15 -3 22 9
14 37 9 43 -7z"/>
<path d="M3908 3183 c-38 -10 -35 -96 3 -106 19 -5 20 -7 4 -36 -15 -29 -14
-31 3 -31 11 0 25 14 35 35 24 50 20 58 -4 12 -11 -22 -23 -37 -25 -34 -3 3 2
19 10 35 9 17 17 45 18 64 3 29 0 33 -22 33 -35 0 -41 -41 -8 -55 l23 -10 -25
3 c-20 2 -26 8 -28 34 -6 65 73 66 81 0 l4 -32 1 32 c2 23 -4 36 -20 47 -12 9
-25 15 -28 15 -3 -1 -13 -3 -22 -6z m40 -50 c-5 -26 -38 -29 -38 -4 0 15 6 21
21 21 14 0 19 -5 17 -17z"/>
<path d="M4020 3170 c-23 -23 -28 -116 -7 -142 19 -25 51 -30 73 -12 18 15 18
15 -3 5 -23 -11 -53 -5 -65 13 -14 21 -9 114 8 130 38 39 72 9 77 -69 l3 -60
2 62 c2 54 -1 64 -20 77 -30 21 -44 20 -68 -4z"/>
<path d="M4472 3174 c-25 -17 -29 -44 -7 -44 8 0 15 5 15 10 0 14 37 12 43 -2
4 -10 6 -10 6 0 1 19 -29 27 -50 13 -11 -6 -19 -7 -19 -1 0 5 12 16 28 24 15
8 22 15 17 16 -6 0 -21 -7 -33 -16z"/>
<path d="M4974 3174 c24 -14 28 -20 23 -48 -3 -18 -2 -38 2 -44 4 -6 8 9 9 33
1 35 -3 47 -20 60 -13 8 -27 15 -33 15 -5 -1 3 -8 19 -16z"/>
<path d="M5380 3170 c-24 -24 -26 -40 -6 -40 8 0 18 5 21 10 9 15 35 12 35 -4
0 -8 -7 -16 -15 -20 -19 -7 -20 -36 -1 -36 8 0 16 -3 19 -7 2 -5 2 -2 0 6 -2
7 2 11 9 8 8 -3 14 5 15 21 1 16 -2 21 -7 12 -6 -9 -9 -6 -12 11 -3 27 -36 38
-49 17 -7 -10 -9 -10 -9 3 0 15 19 29 40 29 5 0 16 -7 24 -16 9 -8 16 -11 16
-5 0 11 -32 31 -49 31 -6 0 -20 -9 -31 -20z m50 -70 c0 -5 -5 -10 -11 -10 -5
0 -7 5 -4 10 3 6 8 10 11 10 2 0 4 -4 4 -10z"/>
<path d="M5788 3179 c-10 -5 -18 -17 -18 -26 0 -11 5 -9 19 8 16 21 22 22 45
11 24 -11 26 -16 26 -76 0 -55 -3 -67 -20 -76 -22 -12 -60 2 -60 22 0 6 -2 9
-5 6 -3 -3 -3 -12 0 -21 9 -22 46 -28 72 -11 20 12 23 23 23 77 0 34 -4 67 -8
74 -11 17 -54 24 -74 12z"/>
<path d="M1737 3173 c-13 -12 -7 -33 8 -33 8 0 15 5 15 11 0 5 -5 7 -12 3 -7
-4 -8 -3 -4 4 4 7 14 12 22 12 19 0 21 -146 2 -153 -8 -3 -6 -6 5 -6 15 -1 17
9 17 84 0 82 -1 85 -23 85 -13 0 -27 -3 -30 -7z"/>
<path d="M1817 3173 c-13 -12 -7 -33 8 -33 8 0 15 5 15 11 0 5 -5 7 -12 3 -7
-4 -8 -3 -4 4 4 7 14 12 22 12 19 0 21 -146 2 -153 -8 -3 -6 -6 5 -6 15 -1 17
9 17 84 0 82 -1 85 -23 85 -13 0 -27 -3 -30 -7z"/>
<path d="M3120 3135 l0 -45 34 3 c19 1 32 6 29 10 -3 5 -16 6 -30 2 -24 -6
-25 -4 -21 35 2 22 0 40 -4 40 -5 0 -8 -20 -8 -45z"/>
<path d="M3175 3170 l30 -8 -32 -1 c-26 -1 -33 -5 -33 -21 0 -14 7 -20 23 -20
32 0 47 -18 47 -57 0 -26 -6 -36 -25 -45 -21 -10 -29 -9 -43 6 -16 16 -16 17
12 10 29 -7 46 6 45 36 0 8 -4 5 -10 -8 -7 -20 -14 -23 -39 -17 -33 7 -39 -4
-14 -29 48 -49 109 29 74 95 -6 11 -21 19 -35 19 -14 0 -25 5 -25 10 0 6 14
10 30 10 20 0 30 5 30 15 0 10 -10 15 -32 14 l-33 -1 30 -8z"/>
<path d="M3430 3155 c0 -18 5 -25 20 -25 11 0 20 5 20 10 0 6 6 10 14 10 9 0
13 -8 10 -22 -4 -21 -4 -22 5 -3 15 31 13 35 -14 35 -14 0 -25 -4 -25 -10 0
-5 -4 -10 -10 -10 -5 0 -10 7 -10 14 0 11 14 16 48 19 l47 3 -52 2 c-50 2 -53
1 -53 -23z"/>
<path d="M3592 3155 c-17 -37 -14 -45 4 -12 24 44 27 26 4 -24 -25 -56 -25
-67 3 -72 15 -3 12 -5 -12 -6 -35 -1 -35 -1 -16 54 4 13 1 12 -9 -5 -26 -43
-21 -60 19 -60 19 0 35 -4 35 -10 0 -5 8 -10 18 -10 14 0 15 2 2 10 -12 8 -11
10 8 10 25 0 28 16 8 43 -14 18 -14 18 -19 0 -4 -15 -5 -14 -6 4 0 12 5 24 12
26 7 3 5 6 -5 6 -13 1 -18 -7 -18 -24 0 -16 -6 -25 -16 -25 -18 0 -13 22 17
83 19 36 19 37 1 37 -10 0 -24 -11 -30 -25z"/>
<path d="M4361 3153 l-12 -28 21 25 c22 28 28 14 5 -16 -20 -27 -19 -34 9 -34
16 0 27 -7 31 -20 16 -50 -29 -87 -66 -54 -11 10 -19 12 -19 5 0 -20 45 -35
69 -22 39 21 35 101 -4 101 -19 0 -19 4 0 40 15 28 14 30 -3 30 -11 0 -24 -12
-31 -27z"/>
<path d="M4528 3168 c20 -20 13 -51 -19 -93 l-30 -40 31 -3 c17 -2 28 -8 25
-13 -4 -5 -1 -9 4 -9 6 0 11 7 11 15 0 10 -10 15 -26 15 -25 0 -26 1 -12 23
38 57 41 65 34 90 -3 15 -12 27 -18 27 -9 0 -9 -3 0 -12z"/>
<path d="M4797 3125 c-37 -75 -34 -85 4 -12 16 32 34 55 39 52 6 -3 10 -1 10
4 0 29 -29 5 -53 -44z"/>
<path d="M4922 3167 c-6 -7 -10 -32 -9 -55 0 -23 4 -36 8 -30 4 7 5 25 2 40
-3 16 0 34 7 43 7 8 10 15 7 15 -2 0 -9 -6 -15 -13z"/>
<path d="M5240 3134 c0 -45 1 -46 27 -40 17 5 29 3 34 -6 7 -10 9 -10 9 0 0 7
-10 17 -22 22 -22 8 -22 9 -2 9 11 1 25 -4 32 -11 9 -9 12 -9 12 0 0 7 -13 15
-30 19 -16 3 -30 9 -30 14 0 5 14 9 30 9 20 0 30 5 30 15 0 11 -12 15 -45 15
l-45 0 0 -46z m51 29 c-30 -4 -33 -7 -29 -34 3 -16 1 -29 -4 -29 -4 0 -8 16
-8 35 0 34 1 35 38 33 l37 -1 -34 -4z"/>
<path d="M5683 3163 c-4 -9 -1 -19 5 -21 8 -2 12 -27 12 -68 0 -60 1 -64 23
-63 16 1 18 2 5 6 -15 4 -18 16 -18 74 0 44 -4 68 -10 64 -5 -3 -10 -2 -10 4
0 5 12 12 28 14 l27 4 -28 2 c-18 0 -30 -5 -34 -16z"/>
<path d="M2230 3144 c-25 -13 -25 -14 -2 -14 12 0 22 5 22 11 0 6 9 9 20 6 11
-3 20 -1 20 4 0 13 -31 9 -60 -7z"/>
<path d="M2560 3149 c0 -6 -7 -9 -15 -5 -8 3 -15 1 -15 -4 0 -13 27 -13 35 0
10 16 35 12 35 -6 0 -8 -16 -36 -35 -61 -36 -48 -42 -63 -24 -63 5 0 8 4 5 9
-3 5 10 29 29 54 42 56 46 87 10 87 -14 0 -25 -5 -25 -11z"/>
<path d="M3521 3144 c0 -11 3 -14 6 -6 3 7 2 16 -1 19 -3 4 -6 -2 -5 -13z"/>
<path d="M4030 3095 c0 -36 3 -65 8 -65 4 0 5 28 4 61 -4 59 -3 62 17 56 12
-3 21 -1 21 4 0 5 -11 9 -25 9 -24 0 -25 -2 -25 -65z"/>
<path d="M4933 3144 c-3 -8 2 -23 11 -32 15 -15 17 -15 32 0 21 21 11 48 -16
48 -11 0 -23 -7 -27 -16z m45 -11 c-2 -10 -10 -18 -18 -18 -8 0 -16 8 -18 18
-2 12 3 17 18 17 15 0 20 -5 18 -17z"/>
<path d="M5797 3154 c-9 -10 -9 -112 1 -117 4 -3 5 21 4 54 -4 54 -2 59 17 59
19 0 21 -6 21 -54 0 -30 -5 -57 -10 -59 -6 -3 -5 -4 2 -3 9 2 13 22 13 62 0
52 -2 59 -20 62 -12 2 -24 0 -28 -4z"/>
<path d="M4812 3105 c-12 -25 -22 -48 -22 -50 0 -3 12 -6 28 -6 21 -2 18 -3
-13 -9 l-40 -7 38 -2 c20 0 37 -5 37 -11 0 -15 27 -12 33 4 3 8 3 31 0 50 -6
41 -33 50 -33 11 0 -16 -6 -25 -15 -25 -19 0 -19 13 1 51 8 17 14 33 12 35 -2
2 -14 -17 -26 -41z m45 -37 c-3 -7 -5 -2 -5 12 0 14 2 19 5 13 2 -7 2 -19 0
-25z"/>
<path d="M5911 3124 c0 -11 3 -14 6 -6 3 7 2 16 -1 19 -3 4 -6 -2 -5 -13z"/>
<path d="M2260 3092 c-36 -53 -41 -62 -37 -62 6 0 69 91 65 95 -2 2 -14 -13
-28 -33z"/>
<path d="M4081 3095 c0 -23 -6 -46 -13 -53 -9 -9 -9 -12 0 -12 15 0 25 39 19
76 -3 23 -4 21 -6 -11z"/>
<path d="M2593 3074 l-33 -44 36 0 c21 0 33 -4 29 -10 -3 -5 -1 -10 4 -10 6 0
11 7 11 15 0 10 -10 15 -31 15 l-30 0 27 35 c15 20 25 37 23 39 -2 2 -19 -17
-36 -40z"/>
<path d="M3499 3071 c-7 -28 -17 -51 -22 -51 -5 0 -6 7 -3 16 3 9 8 28 11 42
4 20 2 18 -9 -8 -19 -47 -19 -62 0 -58 16 3 51 94 41 105 -3 2 -11 -19 -18
-46z"/>
<path d="M4336 3105 c-3 -9 -6 -22 -5 -28 0 -7 5 -1 10 12 5 13 8 26 5 28 -2
2 -6 -3 -10 -12z"/>
<path d="M4482 3076 c-33 -46 -40 -66 -21 -66 5 0 7 5 4 10 -4 6 4 25 17 43
29 38 41 57 35 57 -2 0 -18 -20 -35 -44z"/>
<path d="M2276 3076 c-14 -19 -26 -37 -26 -40 0 -3 14 -6 31 -6 17 0 28 -4 24
-10 -3 -5 -1 -10 4 -10 6 0 11 7 11 15 0 9 -9 15 -25 15 -30 0 -31 4 -4 41 29
41 17 36 -15 -5z"/>
<path d="M5912 3075 c0 -16 2 -22 5 -12 2 9 2 23 0 30 -3 6 -5 -1 -5 -18z"/>
<path d="M4354 3075 c-9 -23 3 -45 26 -45 11 0 20 4 20 9 0 5 -9 7 -20 4 -16
-4 -20 0 -20 17 0 17 4 21 20 17 11 -3 18 -1 14 4 -8 14 -34 11 -40 -6z"/>
<path d="M4934 3076 c-10 -26 4 -48 28 -44 17 2 23 10 23 28 0 18 -6 26 -23
28 -13 2 -25 -3 -28 -12z m46 -16 c0 -13 -7 -20 -20 -20 -13 0 -20 7 -20 20 0
13 7 20 20 20 13 0 20 -7 20 -20z"/>
<path d="M5331 3068 c-1 -26 -24 -58 -41 -58 -15 0 -40 12 -40 19 0 4 14 6 30
3 24 -3 30 -1 29 14 0 11 -3 14 -6 6 -3 -9 -16 -11 -40 -6 -33 6 -34 5 -24
-14 14 -26 45 -36 71 -22 21 11 36 50 27 72 -3 7 -6 1 -6 -14z"/>
<path d="M5456 3047 c-3 -14 -16 -27 -28 -30 -24 -7 -58 8 -58 25 0 9 3 9 12
0 14 -14 44 -16 52 -3 3 4 -6 6 -19 3 -15 -2 -25 0 -25 7 0 6 -7 11 -15 11
-23 0 -18 -28 9 -45 17 -12 30 -13 49 -6 23 9 45 46 34 57 -2 3 -7 -6 -11 -19z"/>
<path d="M2650 3054 c0 -13 22 -44 31 -44 6 0 7 5 4 10 -4 6 6 11 22 11 21 1
23 3 8 6 -11 3 -24 9 -29 14 -11 10 -36 12 -36 3z m30 -14 c0 -5 -2 -10 -4
-10 -3 0 -8 5 -11 10 -3 6 -1 10 4 10 6 0 11 -4 11 -10z"/>
<path d="M4910 3032 c0 -12 19 -26 26 -19 2 2 -2 10 -11 17 -9 8 -15 8 -15 2z"/>
<path d="M4990 3025 c-8 -9 -8 -15 -2 -15 12 0 26 19 19 26 -2 2 -10 -2 -17
-11z"/>
<path d="M2384 2869 c-21 -22 -78 -77 -127 -121 -85 -79 -88 -80 -107 -63 -11
10 -22 16 -23 14 -12 -14 -49 -131 -43 -136 5 -5 115 22 139 35 5 2 -1 14 -13
27 l-21 22 33 28 c18 15 77 69 130 121 74 71 94 95 84 103 -9 8 -23 0 -52 -30z"/>
<path d="M4952 2888 c-8 -8 31 -43 131 -120 78 -61 151 -116 161 -124 18 -13
19 -15 3 -32 -9 -10 -17 -21 -17 -24 0 -3 28 -11 63 -17 34 -7 70 -14 80 -17
14 -5 10 9 -20 71 l-38 76 -18 -22 -18 -22 -39 29 c-22 16 -93 70 -158 121
-84 64 -123 88 -130 81z"/>
<path d="M4310 2505 c0 -8 5 -15 10 -15 6 0 10 -35 10 -85 0 -50 -4 -85 -10
-85 -5 0 -10 -7 -10 -15 0 -9 9 -15 25 -15 16 0 25 6 25 15 0 8 -4 15 -10 15
-6 0 -10 37 -10 90 0 53 4 90 10 90 6 0 10 5 10 10 0 6 -11 10 -25 10 -16 0
-25 -6 -25 -15z"/>
<path d="M6370 2515 c0 -3 9 -14 19 -24 14 -14 21 -16 25 -8 2 7 5 -27 5 -75
1 -82 0 -87 -21 -90 -35 -5 -34 -28 1 -28 l31 0 0 115 0 115 -30 0 c-16 0 -30
-2 -30 -5z"/>
<path d="M4430 2496 c16 -9 27 -26 31 -48 l6 -33 2 32 c1 31 -27 64 -54 63 -5
-1 1 -7 15 -14z"/>
<path d="M4518 2499 c-10 -5 -18 -15 -18 -20 0 -6 7 -3 16 5 38 39 72 9 77
-69 l3 -60 2 62 c2 54 -1 64 -20 77 -26 18 -36 19 -60 5z"/>
<path d="M4962 2494 c-26 -18 -29 -44 -4 -44 15 0 15 2 2 10 -13 9 -12 12 4
25 25 19 41 19 60 -1 9 -8 16 -11 16 -5 0 10 -31 31 -47 31 -5 0 -19 -7 -31
-16z"/>
<path d="M5423 2495 c-17 -12 -21 -25 -21 -79 0 -49 4 -68 16 -77 14 -11 15
-11 5 1 -24 26 -5 93 23 83 16 -5 37 24 30 42 -3 8 -16 14 -28 14 l-23 -2 23
-4 c33 -6 25 -37 -11 -40 -23 -1 -27 2 -27 23 0 36 43 54 70 29 11 -10 20 -13
20 -7 0 11 -31 32 -47 32 -5 0 -18 -7 -30 -15z"/>
<path d="M5870 2490 c-24 -24 -26 -40 -6 -40 8 0 18 5 21 10 14 22 34 10 33
-20 -1 -31 -12 -40 -21 -17 -3 7 -6 5 -6 -5 -1 -10 5 -18 13 -18 8 0 16 -3 19
-7 2 -5 2 -2 0 6 -2 7 2 11 9 8 8 -3 14 5 15 21 1 16 -2 21 -7 12 -6 -9 -9 -6
-12 11 -3 27 -36 38 -49 17 -7 -10 -9 -10 -9 3 0 15 19 29 40 29 5 0 16 -7 24
-16 9 -8 16 -11 16 -5 0 11 -32 31 -49 31 -6 0 -20 -9 -31 -20z"/>
<path d="M6278 2499 c-10 -5 -18 -17 -18 -26 0 -11 5 -9 19 8 16 21 22 22 45
11 24 -11 26 -16 26 -76 0 -55 -3 -67 -20 -76 -22 -12 -54 0 -63 22 -3 8 -6 6
-6 -5 -1 -27 46 -41 75 -22 21 14 24 23 24 78 0 34 -4 67 -8 74 -11 17 -54 24
-74 12z"/>
<path d="M1040 2385 l0 -115 25 0 c16 0 25 6 25 15 0 8 -4 15 -10 15 -6 0 -10
35 -10 84 0 47 5 88 10 91 18 11 10 25 -15 25 l-25 0 0 -115z m17 -48 c-2 -23
-3 -1 -3 48 0 50 1 68 3 42 2 -26 2 -67 0 -90z"/>
<path d="M3040 2490 c0 -5 5 -10 10 -10 6 0 10 -37 10 -90 0 -53 -4 -90 -10
-90 -5 0 -10 -7 -10 -15 0 -9 9 -15 25 -15 16 0 25 6 25 15 0 8 -4 15 -10 15
-6 0 -10 35 -10 85 0 47 4 85 9 85 5 0 11 7 15 15 4 11 -2 15 -24 15 -17 0
-30 -4 -30 -10z"/>
<path d="M4374 2475 c-9 -37 3 -72 27 -78 19 -5 20 -7 4 -36 -15 -29 -14 -31
3 -31 11 0 25 14 35 35 24 50 20 58 -4 12 -28 -53 -34 -41 -9 17 25 55 19 89
-13 84 -32 -4 -35 -45 -5 -58 l23 -10 -25 3 c-19 1 -26 8 -28 30 -2 16 2 35 9
43 8 10 8 14 0 14 -6 0 -13 -11 -17 -25z m61 -25 c0 -8 -8 -16 -17 -18 -13 -2
-18 3 -18 18 0 15 5 20 18 18 9 -2 17 -10 17 -18z"/>
<path d="M4842 2455 c-26 -54 -28 -97 -6 -119 21 -21 47 -20 68 3 30 33 17 74
-32 98 -2 0 4 15 13 32 15 29 14 31 -3 31 -12 0 -26 -16 -40 -45z m24 -3 c-16
-30 -16 -31 12 -34 22 -2 28 -8 30 -35 3 -27 -1 -35 -22 -44 -54 -25 -74 37
-35 112 11 23 23 39 25 36 3 -3 -2 -19 -10 -35z"/>
<path d="M4844 2395 c-10 -24 4 -45 28 -44 l23 2 -22 4 c-15 3 -23 12 -23 24
0 24 25 25 40 2 11 -17 11 -17 6 0 -3 10 -6 21 -6 23 0 12 -41 2 -46 -11z"/>
<path d="M5302 2475 c-17 -37 -14 -45 4 -12 24 44 27 26 4 -24 -25 -56 -25
-67 3 -72 15 -3 12 -5 -12 -6 -35 -1 -35 -1 -16 54 4 13 1 12 -9 -5 -26 -43
-21 -60 19 -60 19 0 35 -4 35 -10 0 -15 19 -12 37 5 18 19 9 50 -12 41 -10 -4
-15 1 -15 15 0 11 5 17 10 14 6 -3 10 -1 10 4 0 6 -7 11 -15 11 -9 0 -15 -9
-15 -25 0 -16 -6 -25 -15 -25 -19 0 -19 0 9 65 23 50 23 55 7 55 -10 0 -23
-11 -29 -25z"/>
<path d="M5730 2455 l0 -45 34 3 c19 1 32 6 29 10 -3 5 -16 6 -29 3 -22 -6
-24 -3 -24 29 0 34 1 35 38 33 36 -1 36 -1 5 -5 -25 -3 -33 -9 -33 -24 0 -13
7 -19 23 -19 32 0 47 -18 47 -57 0 -26 -6 -36 -25 -45 -21 -10 -29 -9 -43 6
-16 16 -16 17 12 10 29 -7 46 6 45 36 0 8 -4 5 -10 -8 -7 -20 -14 -23 -39 -17
-33 7 -39 -4 -14 -29 48 -49 109 29 74 95 -6 11 -21 19 -35 19 -14 0 -25 5
-25 10 0 6 14 10 30 10 20 0 30 5 30 15 0 11 -12 15 -45 15 l-45 0 0 -45z"/>
<path d="M6173 2483 c-4 -9 -1 -19 5 -21 8 -2 12 -27 12 -68 0 -60 1 -64 23
-63 16 1 18 2 5 6 -15 4 -18 16 -18 74 0 44 -4 68 -10 64 -5 -3 -10 -2 -10 4
0 5 12 12 28 14 l27 4 -28 2 c-18 0 -30 -5 -34 -16z"/>
<path d="M1482 2474 c-25 -17 -29 -44 -7 -44 8 0 15 5 15 10 0 6 10 11 23 11
17 1 18 2 4 6 -10 3 -24 -1 -32 -7 -10 -8 -15 -9 -15 -2 0 20 38 34 61 22 27
-15 22 -53 -8 -55 -13 -1 -26 -4 -29 -8 -12 -11 8 -28 29 -25 31 4 37 -46 8
-62 -22 -11 -61 1 -61 20 0 6 8 5 19 -1 23 -15 51 -5 50 18 -1 17 -2 17 -6 1
-5 -19 -38 -24 -48 -8 -11 17 -25 11 -25 -10 0 -30 46 -45 75 -26 21 14 23 23
22 81 -2 53 -6 69 -21 81 -25 18 -27 17 -54 -2z m48 -74 c0 -5 -4 -10 -10 -10
-5 0 -10 5 -10 10 0 6 5 10 10 10 6 0 10 -4 10 -10z"/>
<path d="M1610 2479 c-12 -8 -10 -9 7 -4 29 8 61 -10 66 -37 l4 -23 2 22 c0
12 -9 29 -21 37 -26 19 -37 20 -58 5z"/>
<path d="M1920 2470 c-24 -24 -26 -40 -6 -40 8 0 18 5 21 10 10 16 35 12 35
-6 0 -8 -16 -36 -35 -61 -36 -48 -42 -63 -24 -63 5 0 8 4 5 9 -3 5 10 29 29
54 42 56 46 87 10 87 -14 0 -25 -4 -25 -10 0 -5 -4 -10 -10 -10 -16 0 1 29 21
35 10 3 29 1 41 -5 22 -11 22 -10 4 4 -26 21 -42 20 -66 -4z"/>
<path d="M2048 2479 c-10 -5 -18 -19 -18 -29 0 -21 15 -27 25 -10 10 16 35 12
35 -5 0 -9 -7 -18 -15 -21 -22 -9 -18 -31 5 -37 11 -3 20 -1 20 5 0 5 5 6 10
3 21 -13 10 -54 -17 -69 -16 -8 -23 -15 -18 -16 38 -1 74 67 44 85 -6 4 -8 14
-5 22 3 8 1 11 -4 8 -6 -3 -10 5 -10 19 0 28 -26 36 -48 14 -8 -8 -12 -8 -12
-1 0 24 29 36 58 24 25 -10 26 -10 8 4 -23 17 -34 18 -58 4z m47 -79 c-3 -5
-11 -10 -16 -10 -6 0 -7 5 -4 10 3 6 11 10 16 10 6 0 7 -4 4 -10z"/>
<path d="M2373 2475 c-17 -12 -21 -25 -21 -79 0 -49 4 -68 16 -77 14 -11 15
-11 5 1 -27 30 -7 83 31 87 39 3 59 -52 30 -81 -8 -9 -11 -16 -4 -16 6 0 16
12 22 26 9 20 9 30 0 45 -7 11 -10 25 -6 31 4 6 3 8 -4 4 -6 -4 -12 3 -14 16
-2 16 -10 23 -28 25 -23 1 -23 1 -2 -4 33 -7 25 -37 -11 -40 -23 -1 -27 2 -27
23 0 36 43 54 70 29 11 -10 20 -13 20 -7 0 11 -31 32 -47 32 -5 0 -18 -7 -30
-15z"/>
<path d="M1107 2473 c-13 -12 -7 -33 8 -33 8 0 15 5 15 11 0 5 -5 7 -12 3 -7
-4 -8 -3 -4 4 4 7 14 12 22 12 19 0 21 -146 2 -153 -8 -3 -6 -6 5 -6 15 -1 17
9 17 84 0 82 -1 85 -23 85 -13 0 -27 -3 -30 -7z"/>
<path d="M1187 2473 c-13 -12 -7 -33 8 -33 8 0 15 5 15 11 0 5 -5 7 -12 3 -7
-4 -8 -3 -4 4 4 7 14 12 22 12 19 0 21 -146 2 -153 -8 -3 -6 -6 5 -6 15 -1 17
9 17 84 0 82 -1 85 -23 85 -13 0 -27 -3 -30 -7z"/>
<path d="M2490 2434 c0 -45 1 -46 27 -40 17 5 29 3 34 -6 7 -10 9 -10 9 0 0 7
-10 17 -22 22 -22 8 -22 9 -2 9 11 1 25 -4 32 -11 9 -9 12 -9 12 0 0 7 -13 15
-30 19 -16 3 -30 9 -30 14 0 5 14 9 30 9 20 0 30 5 30 15 0 11 -12 15 -45 15
l-45 0 0 -46z m51 29 c-30 -4 -33 -7 -29 -34 3 -16 1 -29 -4 -29 -4 0 -8 16
-8 35 0 34 1 35 38 33 l37 -1 -34 -4z"/>
<path d="M2800 2455 c0 -18 5 -25 20 -25 11 0 20 5 20 10 0 6 6 10 14 10 9 0
13 -8 10 -22 -4 -21 -4 -22 5 -3 15 31 13 35 -14 35 -14 0 -25 -4 -25 -10 0
-5 -4 -10 -10 -10 -5 0 -10 6 -10 14 0 10 13 16 38 19 l37 4 -42 1 c-40 2 -43
0 -43 -23z"/>
<path d="M2947 2425 c-15 -31 -27 -61 -27 -68 0 -6 13 16 30 51 16 35 34 61
40 57 5 -3 10 -1 10 4 0 29 -29 5 -53 -44z"/>
<path d="M4520 2415 c0 -36 3 -65 8 -65 4 0 5 27 4 60 -3 49 -1 60 12 60 8 0
20 -8 26 -17 11 -17 11 -17 6 0 -3 10 -6 21 -6 23 0 2 -11 4 -25 4 -24 0 -25
-2 -25 -65z"/>
<path d="M4988 2473 c30 -6 28 -23 -13 -76 -36 -47 -43 -67 -24 -67 5 0 7 4 4
10 -3 5 10 31 30 57 40 53 42 77 5 80 -22 1 -22 1 -2 -4z"/>
<path d="M6287 2474 c-9 -10 -9 -112 1 -117 4 -3 5 21 4 54 -4 54 -2 59 17 59
19 0 21 -6 21 -54 0 -30 -5 -57 -10 -59 -6 -3 -5 -4 2 -3 9 2 13 22 13 62 0
52 -2 59 -20 62 -12 2 -24 0 -28 -4z"/>
<path d="M1600 2444 c-25 -13 -25 -14 -2 -14 12 0 22 5 22 11 0 6 9 9 20 6 11
-3 20 -1 20 4 0 13 -31 9 -60 -7z"/>
<path d="M4492 2414 c-1 -27 4 -57 11 -66 19 -25 51 -30 73 -12 19 15 19 15
-2 5 -11 -5 -31 -7 -42 -4 -23 6 -29 21 -35 88 -3 36 -4 35 -5 -11z"/>
<path d="M2962 2405 c-12 -25 -22 -48 -22 -50 0 -3 12 -6 28 -6 21 -2 18 -3
-13 -9 l-40 -7 38 -2 c20 0 37 -5 37 -11 0 -15 27 -12 33 4 3 8 3 31 0 50 -6
41 -33 50 -33 11 0 -16 -6 -25 -15 -25 -19 0 -19 13 1 51 8 17 14 33 12 35 -2
2 -14 -17 -26 -41z m45 -37 c-3 -7 -5 -2 -5 12 0 14 2 19 5 13 2 -7 2 -19 0
-25z"/>
<path d="M5002 2399 l-32 -49 29 0 c16 0 31 -6 34 -12 2 -7 8 -10 12 -6 12 12
-5 28 -31 28 l-24 0 26 40 c15 22 25 42 23 44 -2 2 -19 -19 -37 -45z"/>
<path d="M5484 2429 c-3 -6 -2 -15 3 -20 5 -5 9 -1 9 11 0 23 -2 24 -12 9z"/>
<path d="M1630 2392 c-36 -53 -41 -62 -37 -62 6 0 69 91 65 95 -2 2 -14 -13
-28 -33z"/>
<path d="M4572 2405 c0 -16 2 -22 5 -12 2 9 2 23 0 30 -3 6 -5 -1 -5 -18z"/>
<path d="M1962 2374 l-33 -44 38 0 c28 0 34 -3 23 -10 -13 -8 -12 -10 3 -10
29 0 14 25 -17 28 l-27 3 26 35 c15 20 25 37 24 39 -2 1 -19 -17 -37 -41z"/>
<path d="M2869 2371 c-7 -28 -17 -51 -22 -51 -5 0 -6 7 -3 16 3 9 8 28 11 42
4 20 2 18 -9 -8 -19 -47 -19 -62 0 -58 16 3 51 94 41 105 -3 2 -11 -19 -18
-46z"/>
<path d="M1645 2373 l-25 -38 30 -3 c17 -2 28 -8 25 -13 -4 -5 -1 -9 4 -9 6 0
11 7 11 15 0 9 -9 15 -25 15 -30 0 -31 4 -4 41 11 16 18 29 15 29 -3 0 -17
-17 -31 -37z"/>
<path d="M5424 2395 c-10 -25 4 -45 31 -45 14 0 25 4 25 9 0 4 -12 6 -26 3
-21 -4 -25 -1 -22 14 2 12 12 19 25 18 12 0 20 3 17 8 -9 14 -44 9 -50 -7z"/>
<path d="M2374 2375 c-10 -25 4 -45 31 -45 14 0 25 4 25 9 0 4 -12 6 -26 3
-21 -4 -25 -1 -22 14 2 12 12 19 25 18 12 0 20 3 17 8 -9 14 -44 9 -50 -7z"/>
<path d="M2581 2368 c-1 -26 -24 -58 -41 -58 -15 0 -40 12 -40 19 0 4 14 6 30
3 24 -3 30 -1 29 14 0 11 -3 14 -6 6 -3 -9 -16 -11 -40 -6 -33 6 -34 5 -24
-14 14 -26 45 -36 71 -22 21 11 36 50 27 72 -3 7 -6 1 -6 -14z"/>
<path d="M5501 2374 c0 -11 3 -14 6 -6 3 7 2 16 -1 19 -3 4 -6 -2 -5 -13z"/>
<path d="M5951 2378 c-1 -9 -8 -24 -17 -32 -8 -9 -11 -16 -5 -16 14 0 34 38
27 53 -2 7 -5 5 -5 -5z"/>
<path d="M5850 2366 c0 -16 37 -46 55 -46 5 1 -2 8 -17 16 -16 8 -28 20 -28
26 0 9 3 9 12 0 14 -14 44 -16 52 -3 3 4 -6 6 -19 3 -15 -2 -25 0 -25 7 0 6
-7 11 -15 11 -8 0 -15 -6 -15 -14z"/>
<path d="M4555 2360 c-3 -5 -1 -10 4 -10 6 0 11 5 11 10 0 6 -2 10 -4 10 -3 0
-8 -4 -11 -10z"/>
<path d="M2020 2354 c0 -13 22 -44 31 -44 6 0 7 5 4 10 -4 6 6 11 22 11 21 1
23 3 8 6 -11 3 -24 9 -29 14 -11 10 -36 12 -36 3z m30 -14 c0 -5 -2 -10 -4
-10 -3 0 -8 5 -11 10 -3 6 -1 10 4 10 6 0 11 -4 11 -10z"/>
<path d="M5480 2340 c-9 -6 -10 -10 -3 -10 6 0 15 5 18 10 8 12 4 12 -15 0z"/>
<path d="M1198 2208 c-30 -40 -64 -88 -77 -106 -22 -32 -24 -32 -42 -16 -11 9
-22 14 -26 11 -10 -11 -31 -147 -21 -147 17 0 128 60 128 70 0 5 -9 14 -20 20
-19 10 -15 17 59 119 73 99 83 121 60 121 -5 0 -32 -33 -61 -72z"/>
<path d="M2397 2274 c-4 -4 28 -56 69 -116 75 -108 76 -110 55 -125 -12 -8
-19 -18 -16 -23 7 -12 115 -72 123 -68 4 2 3 36 -1 76 -7 57 -12 72 -23 68 -8
-3 -20 -8 -28 -12 -9 -3 -38 31 -85 100 -69 102 -80 114 -94 100z"/>
<path d="M5693 2269 c-8 -8 8 -29 55 -73 189 -174 188 -172 169 -194 -10 -11
-15 -22 -10 -25 18 -11 134 -39 139 -34 5 5 -28 106 -43 129 -3 5 -13 2 -24
-8 -23 -20 -14 -26 -165 113 -79 73 -114 99 -121 92z"/>
<path d="M4698 2134 l-138 -83 -14 26 -14 27 -41 -63 c-22 -35 -41 -67 -41
-71 0 -7 141 -1 150 7 2 2 -1 13 -8 23 -7 11 -12 22 -12 24 0 3 61 41 135 86
126 76 147 92 128 103 -5 2 -70 -33 -145 -79z"/>
<path d="M750 1795 l0 -115 25 0 c16 0 25 6 25 15 0 8 -4 15 -10 15 -6 0 -10
35 -10 84 0 47 5 88 10 91 18 11 10 25 -15 25 l-25 0 0 -115z m17 -48 c-2 -23
-3 -1 -3 48 0 50 1 68 3 42 2 -26 2 -67 0 -90z"/>
<path d="M1400 1900 c0 -5 11 -12 25 -16 24 -6 25 -8 24 -93 0 -57 -3 -79 -9
-66 -7 16 -9 16 -9 4 -1 -9 -8 -19 -16 -23 -26 -10 -16 -26 15 -26 l30 0 0
115 0 115 -30 0 c-16 0 -30 -4 -30 -10z"/>
<path d="M2080 1795 l0 -115 25 0 c16 0 25 6 25 15 0 8 -4 15 -10 15 -6 0 -10
35 -10 84 0 47 5 88 10 91 18 11 10 25 -15 25 l-25 0 0 -115z m17 -48 c-2 -23
-3 -1 -3 48 0 50 1 68 3 42 2 -26 2 -67 0 -90z"/>
<path d="M3280 1900 c0 -5 5 -10 10 -10 6 0 10 -37 10 -90 0 -53 -4 -90 -10
-90 -5 0 -10 -7 -10 -15 0 -10 10 -15 30 -15 22 0 28 4 24 15 -4 8 -10 15 -15
15 -5 0 -9 38 -9 85 0 50 4 85 10 85 6 0 10 7 10 15 0 9 -9 15 -25 15 -14 0
-25 -4 -25 -10z"/>
<path d="M3880 1795 l0 -115 25 0 c16 0 25 6 25 15 0 8 -4 15 -10 15 -6 0 -10
35 -10 84 0 47 5 88 10 91 18 11 10 25 -15 25 l-25 0 0 -115z m17 -48 c-2 -23
-3 -1 -3 48 0 50 1 68 3 42 2 -26 2 -67 0 -90z"/>
<path d="M4630 1901 c0 -6 5 -13 10 -16 6 -3 10 -44 10 -91 0 -49 -4 -84 -10
-84 -5 0 -10 -7 -10 -15 0 -9 9 -15 25 -15 l25 0 0 115 0 115 -25 0 c-14 0
-25 -4 -25 -9z m37 -154 c-2 -23 -3 -1 -3 48 0 50 1 68 3 42 2 -26 2 -67 0
-90z"/>
<path d="M1180 1880 c-24 -24 -26 -40 -6 -40 8 0 18 5 21 10 10 16 35 12 35
-5 0 -9 -7 -18 -15 -21 -19 -8 -20 -34 -1 -34 8 0 16 -3 19 -7 2 -5 2 -2 0 6
-2 7 2 11 9 8 8 -3 14 5 15 21 1 18 -1 21 -8 11 -6 -10 -9 -6 -9 14 0 22 -5
27 -24 27 -13 0 -27 -6 -29 -12 -4 -8 -6 -7 -6 3 -1 15 18 29 39 29 5 0 16 -7
24 -16 9 -8 16 -11 16 -5 0 11 -32 31 -49 31 -6 0 -20 -9 -31 -20z m50 -70 c0
-5 -5 -10 -11 -10 -5 0 -7 5 -4 10 3 6 8 10 11 10 2 0 4 -4 4 -10z"/>
<path d="M1312 1884 c-26 -18 -29 -44 -4 -44 15 0 15 2 2 10 -13 9 -12 12 4
25 25 19 41 19 60 -1 9 -8 16 -11 16 -5 0 10 -31 31 -47 31 -5 0 -19 -7 -31
-16z"/>
<path d="M2164 1884 c-18 -14 -18 -15 5 -4 17 9 30 9 50 1 24 -11 25 -10 7 4
-25 19 -37 19 -62 -1z"/>
<path d="M2288 1889 c-10 -5 -18 -19 -18 -29 0 -21 15 -27 25 -10 10 16 35 12
35 -5 0 -9 -7 -18 -15 -21 -22 -9 -18 -31 5 -37 11 -3 20 -1 20 5 0 5 5 6 10
3 16 -10 11 -53 -7 -64 -10 -6 -13 -11 -7 -11 28 -1 48 60 23 75 -6 4 -8 14
-5 22 3 8 1 11 -4 8 -6 -3 -10 5 -10 19 0 28 -26 36 -48 14 -8 -8 -12 -8 -12
-1 0 24 29 36 58 24 25 -10 26 -10 8 4 -23 17 -34 18 -58 4z m47 -79 c-3 -5
-11 -10 -16 -10 -6 0 -7 5 -4 10 3 6 11 10 16 10 6 0 7 -4 4 -10z"/>
<path d="M2613 1885 c-17 -12 -21 -25 -21 -79 0 -49 4 -68 16 -77 14 -11 15
-11 5 1 -27 30 -7 83 31 87 39 3 59 -52 30 -81 -8 -9 -11 -16 -4 -16 20 0 35
49 22 70 -6 11 -9 27 -6 37 5 14 4 15 -4 4 -8 -11 -11 -9 -14 10 -2 17 -10 24
-28 26 -23 1 -23 1 -2 -4 33 -7 25 -37 -11 -40 -23 -1 -27 2 -27 23 0 17 8 28
26 36 23 11 29 10 45 -11 14 -17 19 -19 19 -7 0 14 -28 36 -47 36 -5 0 -18 -7
-30 -15z"/>
<path d="M4087 1882 c-19 -20 -24 -126 -8 -151 20 -31 92 -11 90 24 0 6 -3 4
-6 -3 -9 -22 -41 -34 -63 -22 -17 9 -20 21 -20 73 0 36 5 68 12 75 19 19 45
14 62 -10 13 -18 16 -19 16 -6 0 18 -28 38 -53 38 -8 0 -21 -8 -30 -18z"/>
<path d="M4540 1890 c-18 -12 -2 -12 25 0 13 6 15 9 5 9 -8 0 -22 -4 -30 -9z"/>
<path d="M5450 1785 l0 -115 25 0 c16 0 25 6 25 15 0 8 -4 15 -10 15 -6 0 -10
35 -10 84 0 47 5 88 10 91 18 11 10 25 -15 25 l-25 0 0 -115z m17 -48 c-2 -23
-3 -1 -3 48 0 50 1 68 3 42 2 -26 2 -67 0 -90z"/>
<path d="M6630 1891 c0 -6 5 -13 10 -16 6 -3 10 -44 10 -91 0 -49 -4 -84 -10
-84 -5 0 -10 -7 -10 -15 0 -9 9 -15 25 -15 l25 0 0 115 0 115 -25 0 c-14 0
-25 -4 -25 -9z m37 -154 c-2 -23 -3 -1 -3 48 0 50 1 68 3 42 2 -26 2 -67 0
-90z"/>
<path d="M813 1873 c-4 -9 -1 -19 5 -21 8 -2 12 -27 12 -68 0 -50 3 -64 15
-64 12 0 15 16 15 85 0 79 -1 85 -20 85 -11 0 -24 -8 -27 -17z m35 -70 l-2
-78 -3 73 c-2 43 -8 70 -13 67 -6 -4 -10 -1 -10 4 0 6 7 11 15 11 12 0 15 -14
13 -77z"/>
<path d="M893 1873 c-4 -9 -1 -19 5 -21 8 -2 12 -27 12 -68 0 -50 3 -64 15
-64 12 0 15 16 15 85 0 79 -1 85 -20 85 -11 0 -24 -8 -27 -17z m35 -70 l-2
-78 -3 73 c-2 43 -8 70 -13 67 -6 -4 -10 -1 -10 4 0 6 7 11 15 11 12 0 15 -14
13 -77z"/>
<path d="M2730 1844 c0 -45 1 -46 27 -40 17 5 29 3 35 -6 7 -10 9 -10 5 2 -3
9 -15 14 -32 13 -26 -2 -27 0 -23 37 2 22 0 40 -4 40 -5 0 -8 -21 -8 -46z"/>
<path d="M2805 1880 c4 -6 -7 -10 -24 -10 -24 0 -31 -4 -31 -20 0 -14 7 -20
23 -20 13 0 28 -5 35 -12 9 -9 12 -9 12 0 0 7 -13 15 -30 19 -16 3 -30 9 -30
14 0 5 14 9 30 9 20 0 30 5 30 15 0 8 -5 15 -11 15 -5 0 -7 -4 -4 -10z"/>
<path d="M3040 1865 c0 -18 5 -25 20 -25 11 0 20 5 20 10 0 6 6 10 14 10 9 0
13 -8 10 -22 -4 -21 -4 -22 5 -3 15 31 13 35 -14 35 -14 0 -25 -4 -25 -10 0
-5 -5 -10 -11 -10 -6 0 -9 9 -6 20 3 11 1 20 -4 20 -5 0 -9 -11 -9 -25z"/>
<path d="M3202 1865 c-17 -37 -14 -45 4 -12 9 16 18 27 21 24 2 -3 -1 -15 -7
-27 -6 -12 -10 -24 -8 -26 3 -2 12 12 21 31 16 33 16 35 -2 35 -10 0 -23 -11
-29 -25z"/>
<path d="M3948 1865 c-14 -31 3 -75 28 -75 16 0 16 -11 -1 -52 -5 -13 -2 -18
9 -18 15 0 56 67 56 92 -1 7 -10 -8 -22 -34 -11 -27 -25 -48 -30 -48 -4 0 -2
14 7 30 9 17 17 47 18 68 2 32 -1 37 -20 40 -13 2 -23 -1 -23 -6 0 -6 9 -8 20
-5 16 4 20 0 20 -17 0 -17 -4 -21 -20 -17 -11 3 -20 1 -20 -3 0 -5 8 -11 18
-13 13 -4 12 -5 -4 -6 -34 -2 -46 46 -18 73 8 9 11 16 4 16 -6 0 -16 -11 -22
-25z"/>
<path d="M4020 1875 c7 -9 15 -13 17 -11 7 7 -7 26 -19 26 -6 0 -6 -6 2 -15z"/>
<path d="M4420 1849 c-12 -23 -20 -43 -17 -45 2 -2 12 14 22 36 10 22 22 40
27 40 5 0 2 -13 -7 -30 -20 -38 -19 -40 9 -40 13 0 27 -6 29 -12 4 -10 6 -10
6 0 1 8 -8 16 -20 19 -20 6 -21 14 -4 56 5 12 2 17 -9 17 -8 0 -25 -18 -36
-41z"/>
<path d="M4600 1873 c15 -23 10 -39 -30 -100 l-22 -33 32 0 c18 0 29 -4 25
-10 -3 -5 -1 -10 4 -10 6 0 11 7 11 15 0 9 -9 15 -25 15 -14 0 -25 2 -25 6 0
3 11 22 25 42 29 43 31 64 8 83 -15 13 -15 12 -3 -8z"/>
<path d="M5675 1876 c-14 -10 -19 -28 -21 -77 -2 -62 7 -89 30 -89 6 0 3 5 -6
11 -22 12 -23 47 -3 73 8 11 15 25 15 30 0 6 -4 5 -9 -3 -12 -18 -24 3 -16 29
12 37 68 36 80 -1 8 -25 -4 -46 -16 -28 -5 8 -9 9 -9 3 0 -5 7 -19 15 -30 23
-31 18 -62 -12 -78 -16 -8 -23 -15 -18 -16 6 0 20 7 32 15 19 14 22 23 19 82
-2 50 -7 69 -21 80 -24 16 -36 16 -60 -1z"/>
<path d="M6132 1874 c-25 -17 -29 -44 -7 -44 8 0 15 5 15 10 0 6 10 11 23 11
17 1 18 2 4 6 -10 3 -24 -1 -32 -7 -10 -8 -15 -9 -15 -2 0 6 9 16 20 22 27 14
60 -4 60 -33 0 -18 -2 -19 -10 -7 -6 9 -10 10 -10 3 0 -6 -9 -15 -20 -18 -11
-3 -20 -11 -20 -17 0 -5 9 -12 20 -15 26 -7 27 -43 1 -43 -11 0 -23 5 -26 10
-11 17 -25 11 -25 -10 0 -30 46 -45 75 -26 21 14 23 23 22 81 -2 53 -6 69 -21
81 -25 18 -27 17 -54 -2z m52 -68 c-3 -8 -1 -17 5 -21 18 -11 12 -54 -9 -65
-21 -11 -60 2 -60 20 0 6 8 5 19 -1 10 -7 26 -9 35 -6 21 8 21 43 -1 56 -16 9
-16 12 -3 21 20 13 20 13 14 -4z"/>
<path d="M6532 1874 c-19 -13 -22 -24 -22 -79 0 -57 3 -66 24 -80 27 -18 69
-7 80 20 14 38 6 115 -14 135 -24 24 -38 25 -68 4z m62 -10 c17 -16 22 -109 8
-130 -12 -18 -42 -24 -63 -14 -27 15 -28 134 -1 149 24 15 38 13 56 -5z"/>
<path d="M6535 1837 c-4 -14 -5 -38 -2 -53 3 -22 4 -18 6 14 1 45 24 67 43 41
8 -12 9 -11 5 1 -2 8 -13 16 -25 18 -16 2 -23 -3 -27 -21z"/>
<path d="M6582 1795 c0 -16 2 -22 5 -12 2 9 2 23 0 30 -3 6 -5 -1 -5 -18z"/>
<path d="M6576 1743 c-6 -14 -5 -15 5 -6 7 7 10 15 7 18 -3 3 -9 -2 -12 -12z"/>
<path d="M6540 1740 c0 -5 5 -10 11 -10 5 0 7 5 4 10 -3 6 -8 10 -11 10 -2 0
-4 -4 -4 -10z"/>
<path d="M5560 1859 c-7 -11 -9 -23 -7 -26 3 -2 8 5 12 16 3 12 10 21 15 21 5
0 -2 -25 -16 -55 -13 -31 -24 -57 -24 -60 0 -2 12 -6 28 -8 22 -3 20 -4 -10
-6 -42 -1 -44 2 -23 39 8 14 14 30 14 35 0 14 -38 -57 -39 -72 0 -8 14 -13 40
-13 22 0 40 -4 40 -10 0 -15 27 -12 33 4 3 8 3 31 0 50 -6 41 -33 50 -33 11 0
-18 -5 -25 -20 -25 -19 0 -19 2 5 56 29 66 29 64 10 64 -8 0 -19 -9 -25 -21z
m47 -91 c-3 -7 -5 -2 -5 12 0 14 2 19 5 13 2 -7 2 -19 0 -25z"/>
<path d="M6055 1870 c17 -7 15 -9 -12 -9 -26 -1 -33 -5 -33 -21 0 -15 7 -20
25 -20 13 0 29 -8 34 -17 6 -10 11 -13 11 -7 0 16 -22 34 -42 34 -10 0 -18 5
-18 10 0 6 14 10 30 10 20 0 30 5 30 15 0 9 -9 15 -22 14 -22 0 -22 -1 -3 -9z"/>
<path d="M6433 1873 c-18 -7 -16 -33 2 -33 12 0 15 -14 15 -65 0 -51 3 -65 15
-65 12 0 15 16 15 85 0 88 -4 96 -47 78z m35 -80 l-2 -78 -3 72 c-3 62 -6 71
-20 66 -11 -4 -14 -3 -9 5 4 7 14 12 22 12 11 0 14 -16 12 -77z"/>
<path d="M1338 1863 c30 -6 28 -23 -13 -76 -39 -51 -43 -67 -17 -67 13 0 14 2
3 9 -11 7 -6 19 23 57 41 54 43 78 6 81 -22 1 -22 1 -2 -4z"/>
<path d="M2170 1859 c0 -6 -7 -9 -15 -5 -8 3 -15 1 -15 -4 0 -13 27 -13 35 0
10 16 33 12 38 -7 4 -14 5 -12 6 5 1 17 -4 22 -24 22 -14 0 -25 -5 -25 -11z"/>
<path d="M3131 1854 c0 -11 3 -14 6 -6 3 7 2 16 -1 19 -3 4 -6 -2 -5 -13z"/>
<path d="M4097 1864 c-9 -10 -9 -112 1 -117 4 -3 5 21 4 54 -4 55 -2 59 18 59
20 0 22 -4 18 -60 -1 -32 1 -55 5 -51 5 4 7 32 5 62 -3 46 -6 54 -23 57 -12 2
-24 0 -28 -4z"/>
<path d="M4530 1854 c-25 -13 -25 -14 -2 -14 12 0 22 5 22 11 0 6 9 9 20 6 11
-3 20 -1 20 4 0 13 -31 9 -60 -7z"/>
<path d="M5687 1853 c-3 -5 5 -8 18 -8 13 0 21 3 18 8 -2 4 -10 7 -18 7 -8 0
-16 -3 -18 -7z"/>
<path d="M1352 1789 l-32 -49 30 0 c16 0 30 -5 30 -11 0 -5 5 -7 11 -3 14 8 0
21 -29 26 l-22 3 26 38 c15 20 25 39 23 41 -2 2 -19 -19 -37 -45z"/>
<path d="M4560 1802 c-36 -53 -41 -62 -37 -62 6 0 69 91 65 95 -2 2 -14 -13
-28 -33z"/>
<path d="M2203 1784 l-33 -43 38 -4 c33 -3 32 -4 -11 -5 -52 -2 -52 -2 -9 56
13 17 22 32 19 32 -7 0 -67 -82 -67 -92 0 -4 25 -8 55 -8 42 0 55 3 55 15 0
10 -10 15 -31 15 l-30 0 27 35 c15 20 25 37 23 39 -2 2 -19 -16 -36 -40z"/>
<path d="M3109 1781 c-7 -28 -17 -51 -22 -51 -5 0 -6 7 -3 16 3 9 8 28 11 42
4 20 2 18 -9 -8 -19 -47 -19 -62 0 -58 16 3 51 94 41 105 -3 2 -11 -19 -18
-46z"/>
<path d="M3172 1795 c-20 -44 -15 -55 23 -55 19 0 35 -4 35 -10 0 -15 19 -12
36 4 18 18 18 30 0 45 -11 9 -15 9 -19 -1 -3 -7 -6 -3 -6 10 -1 13 3 20 9 17
6 -3 10 -1 10 4 0 6 -7 11 -15 11 -9 0 -15 -9 -15 -25 0 -16 -6 -25 -16 -25
-11 0 -14 6 -9 23 5 17 4 19 -4 7 -17 -24 -13 -38 12 -43 16 -3 13 -5 -10 -6
-35 -1 -40 8 -22 41 6 11 9 22 6 24 -2 2 -9 -7 -15 -21z"/>
<path d="M6000 1800 c-22 -8 -21 -9 10 -7 31 2 35 -1 38 -26 3 -27 2 -28 -35
-23 -35 6 -36 5 -10 -5 41 -16 59 -5 55 33 -3 35 -17 42 -58 28z"/>
<path d="M2614 1785 c-10 -25 4 -45 31 -45 14 0 25 4 25 9 0 4 -12 6 -26 3
-21 -4 -25 -1 -22 14 2 12 12 19 25 18 12 0 20 3 17 8 -9 14 -44 9 -50 -7z"/>
<path d="M2821 1778 c-1 -26 -24 -58 -41 -58 -15 0 -40 12 -40 19 0 4 14 6 30
3 24 -3 30 -1 29 14 0 11 -3 14 -6 6 -3 -9 -16 -11 -40 -6 -33 6 -34 5 -24
-14 14 -26 45 -36 71 -22 21 11 36 50 27 72 -3 7 -6 1 -6 -14z"/>
<path d="M4426 1791 c-3 -5 3 -7 14 -4 16 4 20 0 20 -17 0 -17 -4 -21 -20 -17
-11 3 -20 1 -20 -5 0 -5 10 -8 23 -6 16 2 22 10 22 28 0 25 -27 40 -39 21z"/>
<path d="M4391 1773 c-1 -23 30 -63 50 -63 17 0 49 20 49 31 0 6 -7 3 -16 -5
-28 -29 -60 -16 -74 30 -7 24 -8 25 -9 7z"/>
<path d="M5681 1776 c-16 -20 -3 -46 24 -46 13 0 26 7 29 16 7 19 -10 44 -29
44 -7 0 -18 -6 -24 -14z m47 -13 c5 -17 -26 -29 -40 -15 -6 6 -7 15 -3 22 9
14 37 9 43 -7z"/>
<path d="M1256 1757 c-3 -14 -16 -27 -28 -30 -24 -7 -58 8 -58 25 0 9 3 9 12
0 14 -14 44 -16 52 -3 3 4 -6 6 -19 3 -15 -2 -25 0 -25 7 0 6 -7 11 -15 11
-23 0 -18 -28 9 -45 17 -12 30 -13 49 -6 23 9 45 46 34 57 -2 3 -7 -6 -11 -19z"/>
<path d="M2260 1764 c0 -13 22 -44 32 -44 7 0 6 5 -2 15 -7 9 -10 18 -6 22 3
3 6 1 6 -5 0 -7 12 -11 28 -11 20 1 22 2 7 6 -11 3 -24 9 -29 14 -11 10 -36
12 -36 3z"/>
<path d="M6059 1727 c-15 -19 -19 -20 -45 -9 -27 11 -27 11 -10 -3 11 -8 25
-15 31 -15 18 0 48 26 44 37 -2 6 -11 1 -20 -10z"/>
<path d="M1338 1723 c7 -3 16 -2 19 1 4 3 -2 6 -13 5 -11 0 -14 -3 -6 -6z"/>
<path d="M4538 1723 c12 -2 30 -2 40 0 9 3 -1 5 -23 4 -22 0 -30 -2 -17 -4z"/>
<path d="M5630 1553 c-40 -181 -37 -173 -69 -167 l-28 6 20 -76 c11 -42 23
-76 26 -75 13 1 92 110 86 119 -3 6 -15 10 -26 10 -15 0 -18 5 -14 23 15 65
55 247 55 251 0 3 -6 6 -14 6 -10 0 -21 -30 -36 -97z"/>
<path d="M4037 1618 c-3 -13 -13 -69 -23 -126 l-18 -103 -28 6 c-34 8 -33 9
-5 -83 l22 -73 48 64 c26 36 47 68 47 71 0 3 -11 6 -25 6 -31 0 -31 2 -5 144
11 60 20 111 20 113 0 2 -6 3 -14 3 -8 0 -16 -10 -19 -22z"/>
<path d="M6232 1617 c-7 -9 26 -55 115 -161 l124 -150 -23 -17 c-27 -21 -29
-18 48 -52 80 -35 84 -35 74 6 -5 17 -14 52 -20 75 -11 41 -12 43 -29 28 -10
-9 -20 -16 -23 -16 -4 0 -62 67 -131 150 -91 108 -128 146 -135 137z"/>
<path d="M2155 1509 l-100 -107 -21 20 c-12 11 -24 16 -26 11 -13 -24 -40
-134 -35 -139 5 -6 122 31 136 43 2 1 -4 12 -14 23 -21 23 -25 18 118 166 53
55 65 73 55 81 -10 8 -37 -16 -113 -98z"/>
<path d="M4510 1617 c0 -2 11 -37 25 -77 31 -92 31 -96 -2 -105 l-26 -6 59
-60 59 -60 6 38 c4 21 9 58 13 81 l7 44 -30 -7 c-29 -6 -29 -5 -56 74 -17 51
-32 81 -41 81 -8 0 -14 -1 -14 -3z"/>
<path d="M2847 1603 c-2 -4 33 -68 79 -141 46 -73 84 -136 84 -140 0 -4 -10
-13 -21 -21 -21 -12 -19 -14 40 -52 67 -42 87 -48 77 -23 -3 9 -6 37 -6 62 0
60 -12 81 -35 62 -21 -17 -23 -15 -115 132 -72 116 -92 139 -103 121z"/>
<path d="M809 1483 c-46 -60 -84 -110 -86 -112 -1 -2 -12 4 -23 14 -11 10 -22
16 -24 14 -2 -2 -10 -37 -19 -76 -10 -52 -11 -73 -3 -73 6 1 40 16 75 34 63
32 64 33 41 49 -26 18 -29 12 71 143 71 91 82 114 58 114 -4 0 -45 -48 -90
-107z"/>
<path d="M1220 1576 c0 -2 22 -52 50 -110 l49 -107 -24 -11 c-13 -6 -23 -14
-20 -17 2 -4 31 -29 64 -55 l61 -47 0 86 c0 82 -1 85 -19 75 -11 -5 -24 -10
-29 -10 -5 0 -30 45 -56 100 -28 62 -52 100 -61 100 -8 0 -15 -2 -15 -4z"/>
<path d="M6190 1125 l0 -115 31 0 c35 0 36 23 1 28 -21 3 -22 9 -22 87 0 80 1
83 25 89 35 9 31 26 -5 26 l-30 0 0 -115z"/>
<path d="M6910 1230 c0 -5 5 -10 10 -10 6 0 10 -37 10 -90 0 -53 -4 -90 -10
-90 -5 0 -10 -7 -10 -15 0 -9 9 -15 25 -15 l25 0 0 115 0 115 -25 0 c-14 0
-25 -4 -25 -10z m37 -153 c-2 -23 -3 -1 -3 48 0 50 1 68 3 42 2 -26 2 -67 0
-90z"/>
<path d="M5360 1115 l0 -115 31 0 c35 0 36 23 1 28 -21 3 -22 9 -22 87 0 80 1
83 25 89 35 9 31 26 -5 26 l-30 0 0 -115z"/>
<path d="M5680 1221 c0 -9 30 -25 43 -23 4 1 7 -36 7 -82 0 -79 -1 -85 -22
-88 -35 -5 -34 -28 1 -28 l31 0 0 115 0 115 -30 0 c-16 0 -30 -4 -30 -9z"/>
<path d="M6412 1214 c-25 -17 -29 -44 -7 -44 8 0 15 5 15 10 0 6 10 11 23 11
17 1 18 2 4 6 -10 3 -24 -1 -32 -7 -10 -8 -15 -9 -15 -2 0 20 38 34 61 22 27
-15 22 -53 -8 -55 -13 -1 -26 -4 -29 -8 -12 -11 8 -28 29 -25 31 4 37 -46 8
-62 -22 -11 -61 1 -61 20 0 6 8 5 19 -1 23 -15 51 -5 50 18 -1 17 -2 17 -6 1
-5 -19 -38 -24 -48 -8 -11 17 -25 11 -25 -10 0 -30 46 -45 75 -26 21 14 23 23
22 81 -2 53 -6 69 -21 81 -25 18 -27 17 -54 -2z m48 -74 c0 -5 -4 -10 -10 -10
-5 0 -10 5 -10 10 0 6 5 10 10 10 6 0 10 -4 10 -10z"/>
<path d="M6812 1214 c-19 -13 -22 -24 -22 -79 0 -57 3 -66 24 -80 27 -18 69
-7 80 20 14 38 6 115 -14 135 -24 24 -38 25 -68 4z m62 -10 c17 -16 22 -109 8
-130 -12 -18 -42 -24 -63 -14 -27 15 -28 134 -1 149 24 15 38 13 56 -5z"/>
<path d="M6837 1194 c17 -4 23 -14 26 -42 l4 -37 -1 40 c-1 35 -4 40 -26 42
-21 1 -21 0 -3 -3z"/>
<path d="M6813 1135 c0 -27 2 -38 4 -22 2 15 2 37 0 50 -2 12 -4 0 -4 -28z"/>
<path d="M6857 1090 c-3 -11 -1 -20 4 -20 5 0 9 9 9 20 0 11 -2 20 -4 20 -2 0
-6 -9 -9 -20z"/>
<path d="M560 1105 l0 -115 31 0 c35 0 36 23 1 28 -21 3 -22 9 -22 87 0 80 1
83 25 89 35 9 31 26 -5 26 l-30 0 0 -115z"/>
<path d="M770 1211 c0 -9 30 -25 43 -23 4 1 7 -37 7 -85 0 -47 -3 -83 -6 -80
-9 8 -44 -11 -44 -23 0 -6 14 -10 30 -10 l30 0 0 115 0 115 -30 0 c-16 0 -30
-4 -30 -9z"/>
<path d="M3830 1105 l0 -115 31 0 c35 0 36 23 1 28 -21 3 -22 9 -22 87 0 80 1
83 25 89 35 9 31 26 -5 26 l-30 0 0 -115z"/>
<path d="M4140 1210 c0 -5 5 -10 10 -10 6 0 10 -37 10 -90 0 -53 -4 -90 -10
-90 -5 0 -10 -7 -10 -15 0 -9 9 -15 25 -15 l25 0 0 115 0 115 -25 0 c-14 0
-25 -4 -25 -10z m37 -153 c-2 -23 -3 -1 -3 48 0 50 1 68 3 42 2 -26 2 -67 0
-90z"/>
<path d="M4480 1105 l0 -115 25 0 c16 0 25 6 25 15 0 8 -4 15 -10 15 -6 0 -10
35 -10 84 0 47 5 88 10 91 18 11 10 25 -15 25 l-25 0 0 -115z m17 -48 c-2 -23
-3 -1 -3 48 0 50 1 68 3 42 2 -26 2 -67 0 -90z"/>
<path d="M4780 1211 c0 -6 5 -13 10 -16 6 -3 10 -44 10 -91 0 -49 -4 -84 -10
-84 -5 0 -10 -7 -10 -15 0 -9 9 -15 25 -15 l25 0 0 115 0 115 -25 0 c-14 0
-25 -4 -25 -9z m37 -154 c-2 -23 -3 -1 -3 48 0 50 1 68 3 42 2 -26 2 -67 0
-90z"/>
<path d="M5588 1209 c-10 -5 -18 -15 -18 -21 0 -6 9 -3 20 7 28 25 70 7 70
-30 0 -14 -4 -25 -10 -25 -5 0 -7 8 -3 18 5 15 4 14 -9 -2 -8 -10 -20 -16 -26
-12 -20 12 -13 34 11 39 19 5 19 5 -3 4 -18 -2 -26 -9 -28 -26 -3 -17 -6 -20
-12 -11 -5 8 -8 4 -7 -14 2 -21 4 -23 13 -12 13 18 45 16 61 -4 16 -20 16 -52
1 -70 -11 -12 -10 -12 4 -1 12 9 16 28 16 77 0 54 -4 67 -21 79 -25 17 -36 18
-59 4z"/>
<path d="M6278 1213 c12 -2 30 -2 40 0 9 3 -1 5 -23 4 -22 0 -30 -2 -17 -4z"/>
<path d="M6345 1210 c4 -6 -7 -10 -24 -10 -24 0 -31 -4 -31 -20 0 -15 7 -20
25 -20 13 0 29 -8 34 -17 6 -10 11 -13 11 -7 0 16 -22 34 -42 34 -10 0 -18 5
-18 10 0 6 14 10 30 10 20 0 30 5 30 15 0 8 -5 15 -11 15 -5 0 -7 -4 -4 -10z"/>
<path d="M6713 1213 c-18 -7 -16 -33 2 -33 12 0 15 -14 15 -65 0 -51 3 -65 15
-65 12 0 15 16 15 85 0 88 -4 96 -47 78z m35 -80 l-2 -78 -3 72 c-3 62 -6 71
-20 66 -11 -4 -14 -3 -9 5 4 7 14 12 22 12 11 0 14 -16 12 -77z"/>
<path d="M1110 1195 c0 -8 5 -15 10 -15 6 0 10 -35 10 -85 0 -50 -4 -85 -10
-85 -5 0 -10 -7 -10 -15 0 -9 9 -15 25 -15 16 0 25 6 25 15 0 8 -4 15 -10 15
-6 0 -10 37 -10 90 0 53 4 90 10 90 6 0 10 5 10 10 0 6 -11 10 -25 10 -16 0
-25 -6 -25 -15z"/>
<path d="M1410 1201 c0 -6 5 -13 10 -16 6 -3 10 -44 10 -91 0 -49 -4 -84 -10
-84 -5 0 -10 -7 -10 -15 0 -9 9 -15 25 -15 l25 0 0 115 0 115 -25 0 c-14 0
-25 -4 -25 -9z m37 -154 c-2 -23 -3 -1 -3 48 0 50 1 68 3 42 2 -26 2 -67 0
-90z"/>
<path d="M1850 1195 c0 -8 5 -15 10 -15 6 0 10 -35 10 -85 0 -50 -4 -85 -10
-85 -5 0 -10 -7 -10 -15 0 -9 9 -15 25 -15 16 0 25 6 25 15 0 8 -4 15 -10 15
-6 0 -10 37 -10 90 0 53 4 90 10 90 6 0 10 5 10 10 0 6 -11 10 -25 10 -16 0
-25 -6 -25 -15z"/>
<path d="M2150 1201 c0 -6 5 -13 10 -16 6 -3 10 -44 10 -91 0 -49 -4 -84 -10
-84 -5 0 -10 -7 -10 -15 0 -9 9 -15 25 -15 l25 0 0 115 0 115 -25 0 c-14 0
-25 -4 -25 -9z m37 -154 c-2 -23 -3 -1 -3 48 0 50 1 68 3 42 2 -26 2 -67 0
-90z"/>
<path d="M4042 1194 c-19 -13 -22 -24 -22 -79 0 -57 3 -66 24 -80 18 -12 30
-13 49 -6 30 12 40 40 34 97 -3 36 -4 35 -5 -11 -1 -27 -6 -55 -10 -61 -12
-18 -42 -24 -63 -14 -16 9 -19 22 -19 75 0 53 3 66 19 75 27 14 37 13 55 -6 9
-8 16 -11 16 -5 0 10 -31 31 -47 31 -5 0 -19 -7 -31 -16z"/>
<path d="M4692 1194 c-25 -17 -29 -44 -7 -44 8 0 15 5 15 10 0 14 37 12 43 -2
4 -10 6 -10 6 0 1 19 -29 27 -50 13 -11 -6 -19 -7 -19 -1 0 5 12 16 28 24 15
8 22 15 17 16 -6 0 -21 -7 -33 -16z"/>
<path d="M5457 1155 c-37 -75 -33 -84 4 -11 17 32 33 56 35 53 3 -3 -6 -28
-20 -56 -14 -28 -26 -53 -26 -56 0 -3 12 -6 28 -6 21 -2 18 -3 -13 -9 l-40 -7
38 -2 c20 0 37 -5 37 -11 0 -15 27 -12 33 4 3 8 3 31 0 50 -6 41 -33 50 -33
11 0 -16 -6 -25 -15 -25 -20 0 -19 13 5 60 23 46 25 60 7 60 -7 0 -25 -25 -40
-55z m60 -57 c-3 -7 -5 -2 -5 12 0 14 2 19 5 13 2 -7 2 -19 0 -25z"/>
<path d="M627 1193 c-13 -12 -7 -33 8 -33 8 0 15 5 15 11 0 5 -5 7 -12 3 -7
-4 -8 -3 -4 4 4 7 14 12 22 12 19 0 21 -146 2 -153 -8 -3 -6 -6 5 -6 15 -1 17
9 17 84 0 82 -1 85 -23 85 -13 0 -27 -3 -30 -7z"/>
<path d="M707 1193 c-13 -12 -7 -33 8 -33 8 0 15 5 15 11 0 5 -5 7 -12 3 -7
-4 -8 -3 -4 4 4 7 14 12 22 12 19 0 21 -146 2 -153 -8 -3 -6 -6 5 -6 15 -1 17
9 17 84 0 82 -1 85 -23 85 -13 0 -27 -3 -30 -7z"/>
<path d="M1320 1189 c-12 -8 -10 -9 7 -4 29 8 61 -10 66 -37 l4 -23 2 22 c0
12 -9 29 -21 37 -26 19 -37 20 -58 5z"/>
<path d="M1932 1184 c-26 -18 -29 -44 -4 -43 10 0 12 3 5 6 -19 7 -16 21 7 33
26 14 60 4 61 -18 0 -13 2 -14 6 -3 6 14 -21 41 -42 41 -6 0 -21 -7 -33 -16z"/>
<path d="M2050 1180 c-24 -24 -26 -40 -6 -40 8 0 18 5 21 10 14 22 34 10 33
-20 -1 -31 -12 -40 -21 -17 -4 7 -6 6 -6 -4 -1 -9 8 -19 19 -22 13 -3 18 -1
13 6 -4 6 -1 8 8 5 10 -4 14 2 16 20 1 18 -1 21 -8 11 -6 -10 -9 -6 -9 14 0
22 -5 27 -24 27 -13 0 -27 -6 -29 -12 -4 -8 -6 -7 -6 3 -1 15 18 29 39 29 5 0
16 -7 24 -16 9 -8 16 -11 16 -5 0 11 -32 31 -49 31 -6 0 -20 -9 -31 -20z"/>
<path d="M2580 1185 c0 -8 5 -15 10 -15 6 0 10 -35 10 -85 0 -50 -4 -85 -10
-85 -5 0 -10 -7 -10 -15 0 -9 9 -15 25 -15 16 0 25 6 25 15 0 8 -4 15 -10 15
-6 0 -10 37 -10 90 0 53 4 90 10 90 6 0 10 5 10 10 0 6 -11 10 -25 10 -16 0
-25 -6 -25 -15z"/>
<path d="M3330 1190 c0 -5 11 -12 25 -16 24 -6 25 -9 25 -89 0 -78 -1 -84 -22
-87 -35 -5 -34 -28 1 -28 l31 0 0 115 0 115 -30 0 c-16 0 -30 -4 -30 -10z"/>
<path d="M3903 1185 c-9 -24 1 -27 15 -5 8 13 8 20 2 20 -6 0 -13 -7 -17 -15z"/>
<path d="M3974 1184 c9 -8 17 -25 17 -37 1 -16 2 -18 6 -5 5 20 -13 58 -28 58
-6 0 -3 -7 5 -16z"/>
<path d="M4577 1164 c-10 -19 -13 -33 -7 -29 5 3 10 1 10 -4 0 -6 11 -11 24
-11 44 0 47 -72 4 -86 -16 -5 -27 0 -40 16 -14 17 -18 19 -18 6 0 -24 42 -41
69 -27 39 21 35 101 -4 101 -8 0 -15 5 -15 11 0 5 -4 7 -10 4 -15 -9 -12 9 6
31 13 16 15 16 10 2 -7 -24 1 -23 14 2 9 17 8 20 -8 20 -11 0 -25 -14 -35 -36z"/>
<path d="M4748 1188 c20 -20 13 -51 -19 -93 l-30 -40 31 -3 c17 -2 28 -8 25
-13 -4 -5 -1 -9 4 -9 6 0 11 7 11 15 0 10 -10 15 -26 15 -25 0 -26 1 -12 23
38 57 41 65 34 90 -3 15 -12 27 -18 27 -9 0 -9 -3 0 -12z"/>
<path d="M1182 1178 c-17 -17 -15 -38 3 -38 8 0 15 5 15 10 0 6 10 11 23 11
17 1 18 2 4 6 -10 3 -24 -1 -32 -7 -18 -15 -20 1 -3 18 7 7 10 12 7 12 -3 0
-10 -5 -17 -12z"/>
<path d="M1250 1174 c15 -24 7 -56 -12 -49 -18 7 -42 -10 -34 -24 4 -6 14 -11
22 -11 8 0 14 -9 14 -20 0 -21 -33 -29 -45 -10 -11 17 -25 11 -25 -10 0 -30
46 -45 75 -26 20 13 23 23 22 80 -1 40 -7 70 -16 78 -11 11 -11 10 -1 -8z
m-10 -58 c0 -3 -4 -8 -10 -11 -5 -3 -10 -1 -10 4 0 6 5 11 10 11 6 0 10 -2 10
-4z m20 -51 c0 -31 -32 -50 -60 -35 -11 6 -20 15 -20 20 0 6 8 5 19 -1 28 -18
54 -4 49 26 -3 13 -1 22 3 19 5 -3 9 -16 9 -29z"/>
<path d="M2665 1177 c-14 -11 -19 -30 -21 -81 -3 -62 -1 -67 23 -83 23 -15 28
-15 52 -2 24 13 26 20 27 79 0 86 -32 122 -81 87z m59 -13 c18 -18 21 -40 6
-49 -5 -3 -10 -1 -10 6 0 7 -3 9 -6 6 -4 -4 1 -18 10 -31 22 -34 20 -63 -5
-77 -16 -8 -28 -8 -45 0 -28 12 -31 41 -8 77 9 13 14 27 10 31 -3 3 -6 1 -6
-6 0 -7 -4 -9 -10 -6 -23 14 4 65 35 65 7 0 21 -7 29 -16z"/>
<path d="M2677 1153 c-3 -5 5 -8 18 -8 13 0 21 3 18 8 -2 4 -10 7 -18 7 -8 0
-16 -3 -18 -7z"/>
<path d="M2671 1076 c-16 -20 -3 -46 24 -46 13 0 26 7 29 16 7 19 -10 44 -29
44 -7 0 -18 -6 -24 -14z m47 -13 c5 -17 -26 -29 -40 -15 -6 6 -7 15 -3 22 9
14 37 9 43 -7z"/>
<path d="M2780 1135 l0 -45 34 3 c19 1 32 6 29 10 -3 5 -16 6 -29 3 -22 -6
-24 -3 -24 29 0 34 1 35 38 33 36 -1 36 -1 5 -5 -25 -3 -33 -9 -33 -24 0 -13
7 -19 23 -19 32 0 47 -18 47 -57 0 -26 -6 -36 -25 -45 -21 -10 -29 -9 -43 6
-16 16 -16 17 12 10 29 -7 46 6 45 36 0 8 -4 5 -10 -8 -7 -20 -14 -23 -39 -17
-33 7 -39 -4 -14 -29 48 -49 109 29 74 95 -6 11 -21 19 -35 19 -14 0 -25 5
-25 10 0 6 14 10 30 10 20 0 30 5 30 15 0 11 -12 15 -45 15 l-45 0 0 -45z"/>
<path d="M3143 1173 c45 -4 47 -5 42 -31 -4 -23 -4 -24 4 -7 19 40 14 45 -41
43 l-53 -2 48 -3z"/>
<path d="M3252 1155 c-17 -37 -14 -45 4 -12 24 44 27 26 4 -24 -25 -56 -25
-67 3 -72 15 -3 12 -5 -12 -6 -35 -1 -35 -1 -16 54 4 13 1 12 -9 -5 -26 -43
-21 -60 19 -60 19 0 35 -4 35 -10 0 -5 8 -10 18 -10 14 0 15 2 2 10 -12 8 -10
10 8 10 17 0 22 5 20 18 -2 9 -11 16 -21 16 -20 -2 -24 32 -4 39 7 3 5 6 -5 6
-13 1 -18 -7 -18 -24 0 -16 -6 -25 -15 -25 -19 0 -19 0 9 65 23 50 23 55 7 55
-10 0 -23 -11 -29 -25z"/>
<path d="M3924 1165 c-9 -23 3 -45 26 -45 11 0 20 4 20 9 0 5 -9 7 -20 4 -16
-4 -20 0 -20 17 0 17 4 21 20 17 11 -3 20 -1 20 4 0 15 -40 10 -46 -6z"/>
<path d="M4068 1173 c22 -4 23 -9 20 -64 -1 -32 1 -59 5 -59 4 0 7 28 5 63 -3
58 -5 62 -28 64 -24 1 -24 1 -2 -4z"/>
<path d="M1310 1154 c-25 -13 -25 -14 -2 -14 12 0 22 5 22 11 0 6 9 9 20 6 11
-3 20 -1 20 4 0 13 -31 9 -60 -7z"/>
<path d="M1958 1163 c30 -6 28 -23 -13 -76 -19 -25 -35 -51 -35 -56 0 -6 15
-10 33 -10 30 2 30 2 5 6 -16 2 -28 7 -28 9 0 3 16 26 35 52 40 52 42 76 5 79
-22 1 -22 1 -2 -4z"/>
<path d="M3112 1145 c-11 -12 -10 -15 3 -15 8 0 15 5 15 10 0 6 7 10 16 10 11
0 14 -5 10 -16 -3 -9 -8 -28 -11 -42 -4 -20 -2 -18 9 8 8 19 15 41 15 48 1 17
-41 15 -57 -3z"/>
<path d="M4042 1123 c-2 -47 5 -73 20 -73 7 0 7 4 0 13 -6 7 -12 33 -15 57
l-4 45 -1 -42z"/>
<path d="M6280 1140 c-22 -8 -21 -9 10 -7 31 2 35 -1 38 -26 3 -27 2 -28 -35
-23 -35 6 -36 5 -10 -5 41 -16 59 -5 55 33 -3 35 -17 42 -58 28z"/>
<path d="M1340 1102 c-36 -53 -41 -62 -37 -62 6 0 69 91 65 95 -2 2 -14 -13
-28 -33z"/>
<path d="M1973 1089 l-31 -49 31 0 c24 0 28 -3 17 -10 -12 -8 -10 -10 8 -10
32 0 23 24 -11 28 l-26 3 26 40 c14 22 24 41 22 43 -2 2 -18 -19 -36 -45z"/>
<path d="M3900 1127 c0 -11 9 -21 21 -24 20 -6 21 -14 4 -55 -5 -13 -2 -18 9
-18 15 0 62 77 53 86 -2 2 -12 -14 -22 -36 -10 -22 -22 -40 -27 -40 -5 0 -2
13 7 30 19 37 19 40 -5 40 -10 0 -24 8 -29 18 -10 16 -10 16 -11 -1z"/>
<path d="M4702 1096 c-33 -46 -40 -66 -21 -66 5 0 7 5 4 10 -4 6 4 25 17 43
29 38 41 57 35 57 -2 0 -18 -20 -35 -44z"/>
<path d="M1355 1083 l-25 -38 32 -4 c32 -4 32 -4 8 -11 l-25 -8 28 -1 c18 -1
27 4 27 14 0 9 -9 15 -25 15 -30 0 -31 4 -4 41 11 16 18 29 15 29 -3 0 -17
-17 -31 -37z"/>
<path d="M5596 1112 c-3 -5 5 -8 17 -8 13 1 23 -6 25 -18 3 -15 -1 -18 -22
-14 -14 3 -26 1 -26 -4 0 -5 12 -8 28 -6 21 2 27 8 27 28 0 18 -6 26 -22 28
-11 2 -24 -1 -27 -6z"/>
<path d="M3160 1065 c-13 -46 -32 -64 -24 -22 4 21 4 21 -6 -2 -12 -27 -8 -36
13 -28 13 5 42 85 34 93 -2 3 -10 -16 -17 -41z"/>
<path d="M4574 1095 c-9 -23 3 -45 26 -45 11 0 20 4 20 9 0 5 -9 7 -20 4 -16
-4 -20 0 -20 17 0 17 4 21 20 17 11 -3 18 -1 14 4 -8 14 -34 11 -40 -6z"/>
<path d="M5561 1092 c-1 -20 18 -52 32 -52 9 0 9 2 0 8 -7 4 -16 19 -22 32 -5
14 -10 19 -10 12z"/>
<path d="M6339 1067 c-15 -19 -19 -20 -45 -9 -27 11 -27 11 -10 -3 11 -8 25
-15 31 -15 18 0 48 26 44 37 -2 6 -11 1 -20 -10z"/>
<path d="M2127 1057 c-4 -15 -14 -27 -22 -27 -7 0 -16 -4 -19 -9 -4 -5 3 -7
14 -4 23 6 44 37 37 56 -2 7 -7 0 -10 -16z"/>
<path d="M2030 1057 c0 -16 20 -37 35 -37 5 0 2 5 -7 11 -10 5 -18 15 -18 21
0 9 3 9 12 0 14 -14 44 -16 52 -3 3 4 -6 6 -19 3 -15 -2 -25 0 -25 7 0 6 -7
11 -15 11 -8 0 -15 -6 -15 -13z"/>
<path d="M1308 1023 c6 -2 18 -2 25 0 6 3 1 5 -13 5 -14 0 -19 -2 -12 -5z"/>
<path d="M2690 810 l-43 -121 -29 7 c-26 5 -29 3 -25 -12 3 -11 8 -45 12 -76
3 -32 10 -58 14 -58 3 0 31 24 60 54 l54 55 -26 6 c-15 4 -27 10 -27 14 0 4
18 61 40 126 22 65 40 120 40 122 0 2 -6 3 -14 3 -8 0 -30 -45 -56 -120z"/>
<path d="M1245 843 c-11 -143 -14 -153 -41 -153 -13 0 -24 -4 -24 -8 0 -18 47
-123 56 -124 5 -1 26 27 46 61 l38 61 -31 7 c-28 5 -30 8 -25 42 3 20 8 71 11
114 6 65 4 77 -8 77 -12 0 -17 -18 -22 -77z"/>
<path d="M3950 918 c0 -3 23 -60 50 -128 50 -124 55 -150 25 -150 -27 0 -16
-17 46 -70 42 -37 57 -56 50 -63 -6 -6 -11 -39 -11 -74 0 -55 3 -64 24 -78 17
-11 30 -13 48 -6 31 12 38 29 38 92 0 61 -27 94 -67 84 l-26 -6 6 81 6 81 -28
-6 c-28 -6 -29 -5 -79 117 -31 75 -57 124 -66 126 -9 2 -16 2 -16 0z m244
-414 c17 -16 22 -109 8 -130 -12 -18 -42 -24 -63 -14 -27 15 -28 134 -1 149
24 15 38 13 56 -5z"/>
<path d="M4140 491 c0 -6 7 -8 16 -4 9 3 20 0 26 -8 8 -12 9 -11 5 1 -4 17
-47 27 -47 11z"/>
<path d="M4133 430 c0 -25 2 -35 4 -22 2 12 2 32 0 45 -2 12 -4 2 -4 -23z"/>
<path d="M4182 435 c0 -16 2 -22 5 -12 2 9 2 23 0 30 -3 6 -5 -1 -5 -18z"/>
<path d="M4176 383 c-6 -14 -5 -15 5 -6 7 7 10 15 7 18 -3 3 -9 -2 -12 -12z"/>
<path d="M5531 898 c-49 -125 -47 -123 -80 -120 l-31 2 6 -72 c4 -40 8 -75 10
-77 5 -6 114 89 114 100 0 5 -7 9 -15 9 -27 0 -26 24 5 99 35 86 34 81 15 81
-9 0 -19 -10 -24 -22z"/>
<path d="M645 765 c-71 -134 -78 -144 -97 -134 -11 6 -22 8 -25 5 -3 -3 -8
-34 -10 -70 -5 -61 -7 -66 -29 -66 -15 0 -24 -6 -24 -15 0 -8 5 -15 10 -15 6
0 10 -35 10 -85 0 -50 -4 -85 -10 -85 -5 0 -10 -7 -10 -15 0 -9 9 -15 25 -15
16 0 25 6 25 15 0 8 -4 15 -10 15 -6 0 -10 37 -10 90 0 57 4 90 11 90 15 0
139 90 139 101 0 5 -3 9 -7 9 -5 0 -14 4 -22 9 -11 7 2 39 63 156 42 80 76
148 76 151 0 2 -6 4 -14 4 -9 0 -47 -61 -91 -145z"/>
<path d="M6293 835 c-27 -73 -29 -75 -57 -69 l-29 6 7 -73 c4 -41 9 -76 11
-78 5 -4 115 92 115 101 0 4 -11 10 -25 14 -14 3 -25 7 -25 8 0 1 14 37 30 79
35 91 34 87 16 87 -9 0 -26 -29 -43 -75z"/>
<path d="M1955 800 l-7 -90 -29 0 -28 0 31 -72 c16 -40 31 -74 32 -75 4 -4 76
126 76 137 0 5 -12 10 -26 10 l-27 0 7 90 c6 76 5 90 -7 90 -11 0 -17 -21 -22
-90z"/>
<path d="M6730 887 c0 -2 14 -43 30 -92 17 -49 30 -94 30 -101 0 -6 -12 -15
-27 -19 l-26 -6 59 -60 59 -60 6 38 c4 21 9 58 13 81 l7 44 -30 -7 c-29 -6
-29 -6 -61 89 -20 61 -37 96 -46 96 -8 0 -14 -1 -14 -3z"/>
<path d="M3130 873 c0 -5 12 -46 25 -92 25 -86 23 -100 -12 -101 -7 0 -13 -3
-13 -7 1 -13 99 -117 105 -112 3 3 11 38 19 78 l13 73 -28 -6 c-31 -6 -26 -15
-75 157 -5 16 -34 25 -34 10z"/>
<path d="M4695 808 c3 -40 8 -83 11 -95 3 -17 0 -23 -13 -23 -42 -1 -42 -15
-1 -79 22 -35 43 -59 47 -55 9 10 51 122 51 134 0 4 -9 6 -21 3 -26 -7 -39 11
-39 58 0 71 -12 129 -27 129 -12 0 -13 -14 -8 -72z"/>
<path d="M3920 425 l0 -115 31 0 c35 0 36 23 1 28 -21 3 -22 9 -22 87 0 80 1
83 25 89 35 9 31 26 -5 26 l-30 0 0 -115z"/>
<path d="M4230 531 c0 -6 5 -13 10 -16 6 -3 10 -44 10 -91 0 -49 -4 -84 -10
-84 -5 0 -10 -7 -10 -15 0 -9 9 -15 25 -15 l25 0 0 115 0 115 -25 0 c-14 0
-25 -4 -25 -9z m37 -154 c-2 -23 -3 -1 -3 48 0 50 1 68 3 42 2 -26 2 -67 0
-90z"/>
<path d="M1030 405 l0 -115 31 0 c35 0 36 23 1 28 -21 3 -22 9 -22 87 0 80 1
83 25 89 35 9 31 26 -5 26 l-30 0 0 -115z"/>
<path d="M1340 511 c0 -6 5 -13 10 -16 6 -3 10 -44 10 -91 0 -49 -4 -84 -10
-84 -5 0 -10 -7 -10 -15 0 -9 9 -15 25 -15 l25 0 0 115 0 115 -25 0 c-14 0
-25 -4 -25 -9z m37 -154 c-2 -23 -3 -1 -3 48 0 50 1 68 3 42 2 -26 2 -67 0
-90z"/>
<path d="M1770 505 c0 -8 5 -15 10 -15 6 0 10 -35 10 -85 0 -50 -4 -85 -10
-85 -5 0 -10 -7 -10 -15 0 -9 9 -15 25 -15 16 0 25 6 25 15 0 8 -4 15 -10 15
-6 0 -10 37 -10 90 0 53 4 90 10 90 6 0 10 5 10 10 0 6 -11 10 -25 10 -16 0
-25 -6 -25 -15z"/>
<path d="M2070 511 c0 -6 5 -13 10 -16 6 -3 10 -44 10 -91 0 -49 -4 -84 -10
-84 -5 0 -10 -7 -10 -15 0 -9 9 -15 25 -15 l25 0 0 115 0 115 -25 0 c-14 0
-25 -4 -25 -9z m37 -154 c-2 -23 -3 -1 -3 48 0 50 1 68 3 42 2 -26 2 -67 0
-90z"/>
<path d="M3993 505 c-9 -24 1 -27 15 -5 8 13 8 20 2 20 -6 0 -13 -7 -17 -15z"/>
<path d="M4064 504 c9 -8 17 -25 17 -37 1 -16 2 -18 6 -5 5 20 -13 58 -28 58
-6 0 -3 -7 5 -16z"/>
<path d="M6110 405 l0 -115 25 0 c16 0 25 6 25 15 0 8 -4 15 -10 15 -6 0 -10
35 -10 84 0 47 5 88 10 91 18 11 10 25 -15 25 l-25 0 0 -115z m17 -48 c-2 -23
-3 -1 -3 48 0 50 1 68 3 42 2 -26 2 -67 0 -90z"/>
<path d="M6420 511 c0 -6 5 -13 10 -16 6 -3 10 -44 10 -91 0 -49 -4 -84 -10
-84 -5 0 -10 -7 -10 -15 0 -9 9 -15 25 -15 l25 0 0 115 0 115 -25 0 c-14 0
-25 -4 -25 -9z m37 -154 c-2 -23 -3 -1 -3 48 0 50 1 68 3 42 2 -26 2 -67 0
-90z"/>
<path d="M6700 405 l0 -115 25 0 c16 0 25 6 25 15 0 8 -4 15 -10 15 -6 0 -10
35 -10 84 0 47 5 88 10 91 18 11 10 25 -15 25 l-25 0 0 -115z m17 -48 c-2 -23
-3 -1 -3 48 0 50 1 68 3 42 2 -26 2 -67 0 -90z"/>
<path d="M6960 510 c0 -5 11 -12 25 -16 24 -6 25 -9 25 -92 0 -47 -3 -82 -6
-79 -9 8 -44 -11 -44 -23 0 -6 14 -10 30 -10 l30 0 0 115 0 115 -30 0 c-16 0
-30 -4 -30 -10z"/>
<path d="M1122 494 c-25 -17 -29 -44 -7 -44 8 0 15 5 15 10 0 6 10 11 23 11
17 1 18 2 4 6 -10 3 -24 -1 -32 -7 -10 -8 -15 -9 -15 -2 0 20 38 34 61 22 27
-15 22 -53 -8 -55 -13 -1 -26 -4 -29 -8 -12 -11 8 -28 29 -25 31 4 37 -46 8
-62 -22 -11 -61 1 -61 20 0 6 8 5 19 -1 23 -15 51 -5 50 18 -1 17 -2 17 -6 1
-5 -19 -38 -24 -48 -8 -11 17 -25 11 -25 -10 0 -30 46 -45 75 -26 21 14 23 23
22 81 -2 53 -6 69 -21 81 -25 18 -27 17 -54 -2z m48 -74 c0 -5 -4 -10 -10 -10
-5 0 -10 5 -10 10 0 6 5 10 10 10 6 0 10 -4 10 -10z"/>
<path d="M1240 490 c-24 -24 -26 -40 -6 -40 8 0 18 5 21 10 10 16 35 12 35 -6
0 -8 -16 -36 -35 -61 -36 -48 -42 -63 -24 -63 5 0 8 4 5 9 -3 5 10 29 29 54
42 56 46 87 10 87 -14 0 -25 -4 -25 -10 0 -5 -4 -10 -10 -10 -16 0 0 29 20 35
24 8 46 -2 58 -28 6 -12 11 -16 11 -9 1 17 -35 52 -54 52 -8 0 -24 -9 -35 -20z"/>
<path d="M1852 494 c-25 -17 -29 -44 -7 -44 8 0 15 5 15 10 0 14 37 12 43 -2
4 -10 6 -10 6 0 1 19 -29 27 -50 13 -11 -6 -19 -7 -19 -1 0 5 12 16 28 24 15
8 22 15 17 16 -6 0 -21 -7 -33 -16z"/>
<path d="M1970 490 c-24 -24 -26 -40 -6 -40 8 0 18 5 21 10 9 15 35 12 35 -4
0 -8 -7 -16 -15 -20 -19 -7 -20 -36 -1 -36 8 0 16 -3 19 -7 2 -5 2 -2 0 6 -2
7 2 11 9 8 8 -3 14 5 15 21 1 18 -1 21 -8 11 -6 -10 -9 -6 -9 15 0 26 -3 28
-30 24 -32 -5 -41 6 -14 16 24 9 31 8 48 -10 9 -8 16 -11 16 -5 0 11 -32 31
-49 31 -6 0 -20 -9 -31 -20z m50 -70 c0 -5 -4 -10 -10 -10 -5 0 -10 5 -10 10
0 6 5 10 10 10 6 0 10 -4 10 -10z"/>
<path d="M2410 395 l0 -115 25 0 c16 0 25 6 25 15 0 8 -4 15 -10 15 -6 0 -10
35 -10 84 0 47 5 88 10 91 18 11 10 25 -15 25 l-25 0 0 -115z m17 -48 c-2 -23
-3 -1 -3 48 0 50 1 68 3 42 2 -26 2 -67 0 -90z"/>
<path d="M2730 501 c0 -6 5 -13 10 -16 6 -3 10 -44 10 -91 0 -49 -4 -84 -10
-84 -5 0 -10 -7 -10 -15 0 -9 9 -15 25 -15 l25 0 0 115 0 115 -25 0 c-14 0
-25 -4 -25 -9z m37 -154 c-2 -23 -3 -1 -3 48 0 50 1 68 3 42 2 -26 2 -67 0
-90z"/>
<path d="M3010 395 l0 -115 25 0 c16 0 25 6 25 15 0 8 -4 15 -10 15 -6 0 -10
35 -10 84 0 47 5 88 10 91 18 11 10 25 -15 25 l-25 0 0 -115z m17 -48 c-2 -23
-3 -1 -3 48 0 50 1 68 3 42 2 -26 2 -67 0 -90z"/>
<path d="M3310 500 c0 -5 5 -10 10 -10 6 0 10 -37 10 -90 0 -53 -4 -90 -10
-90 -5 0 -10 -7 -10 -15 0 -10 10 -15 28 -15 19 0 29 5 29 15 0 8 -6 15 -14
15 -21 0 -19 166 3 174 8 3 12 10 9 16 -8 13 -55 13 -55 0z"/>
<path d="M4570 395 l0 -115 25 0 c16 0 25 6 25 15 0 8 -4 15 -10 15 -6 0 -10
35 -10 84 0 47 5 88 10 91 18 11 10 25 -15 25 l-25 0 0 -115z m17 -48 c-2 -23
-3 -1 -3 48 0 50 1 68 3 42 2 -26 2 -67 0 -90z"/>
<path d="M4870 501 c0 -6 5 -13 10 -16 6 -3 10 -44 10 -91 0 -49 -4 -84 -10
-84 -5 0 -10 -7 -10 -15 0 -9 9 -15 25 -15 l25 0 0 115 0 115 -25 0 c-14 0
-25 -4 -25 -9z m37 -154 c-2 -23 -3 -1 -3 48 0 50 1 68 3 42 2 -26 2 -67 0
-90z"/>
<path d="M6320 490 c-24 -24 -26 -40 -6 -40 8 0 18 5 21 10 14 22 34 10 33
-20 -1 -31 -12 -40 -21 -17 -3 7 -6 5 -6 -5 -1 -10 5 -18 13 -18 8 0 16 -3 19
-7 2 -5 2 -2 0 6 -2 7 2 11 9 8 8 -3 14 5 15 21 1 18 -1 21 -8 11 -6 -10 -9
-6 -9 14 0 22 -5 27 -24 27 -13 0 -27 -6 -29 -12 -4 -8 -6 -7 -6 3 -1 15 18
29 39 29 5 0 16 -7 24 -16 9 -8 16 -11 16 -5 0 11 -32 31 -49 31 -6 0 -20 -9
-31 -20z"/>
<path d="M6868 499 c-10 -5 -18 -17 -18 -26 0 -11 5 -9 19 8 16 21 22 22 45
11 24 -11 26 -16 26 -76 0 -55 -3 -67 -20 -76 -22 -12 -54 0 -63 22 -3 7 -6 9
-6 3 -1 -22 19 -38 49 -38 17 0 36 6 41 14 11 17 12 129 1 146 -11 17 -54 24
-74 12z"/>
<path d="M670 491 c0 -6 5 -13 10 -16 6 -3 10 -44 10 -91 0 -49 -4 -84 -10
-84 -5 0 -10 -7 -10 -15 0 -9 9 -15 25 -15 l25 0 0 115 0 115 -25 0 c-14 0
-25 -4 -25 -9z m37 -154 c-2 -23 -3 -1 -3 48 0 50 1 68 3 42 2 -26 2 -67 0
-90z"/>
<path d="M1908 489 c19 -21 14 -47 -18 -95 l-31 -44 31 0 c18 0 29 -4 25 -10
-3 -5 -1 -10 4 -10 23 0 10 29 -14 32 l-25 3 25 38 c28 41 31 87 5 95 -12 4
-13 2 -2 -9z"/>
<path d="M2497 482 c-10 -11 -16 -33 -14 -59 2 -54 11 -46 12 10 0 34 4 44 25
54 16 8 19 13 9 13 -9 0 -23 -8 -32 -18z"/>
<path d="M4014 485 c-9 -23 3 -45 26 -45 11 0 20 4 20 9 0 5 -9 7 -20 4 -16
-4 -20 0 -20 17 0 17 4 21 20 17 11 -3 20 -1 20 4 0 15 -40 10 -46 -6z"/>
<path d="M5300 485 c0 -8 5 -15 10 -15 6 0 10 -35 10 -85 0 -50 -4 -85 -10
-85 -5 0 -10 -7 -10 -15 0 -9 9 -15 25 -15 16 0 25 6 25 15 0 8 -4 15 -10 15
-6 0 -10 37 -10 90 0 53 4 90 10 90 6 0 10 5 10 10 0 6 -11 10 -25 10 -16 0
-25 -6 -25 -15z"/>
<path d="M5620 490 c0 -5 5 -10 10 -10 6 0 10 -37 10 -90 0 -53 -4 -90 -10
-90 -5 0 -10 -7 -10 -15 0 -9 9 -15 25 -15 l25 0 0 115 0 115 -25 0 c-14 0
-25 -4 -25 -10z m37 -153 c-2 -23 -3 -1 -3 48 0 50 1 68 3 42 2 -26 2 -67 0
-90z"/>
<path d="M6180 455 l0 -45 34 3 c19 1 32 6 29 10 -3 5 -16 6 -29 3 -22 -6 -24
-3 -24 29 0 34 1 35 38 33 36 -1 36 -1 5 -5 -25 -3 -33 -9 -33 -24 0 -13 7
-19 23 -19 32 0 47 -18 47 -57 0 -26 -6 -36 -25 -45 -21 -10 -29 -9 -43 6 -16
16 -16 17 12 10 29 -7 46 6 45 36 0 8 -4 5 -10 -8 -7 -20 -14 -23 -39 -17 -33
7 -39 -4 -14 -29 48 -49 109 29 74 95 -6 11 -21 19 -35 19 -14 0 -25 5 -25 10
0 6 14 10 30 10 20 0 30 5 30 15 0 11 -12 15 -45 15 l-45 0 0 -45z"/>
<path d="M6763 483 c-4 -9 -1 -19 5 -21 8 -2 12 -27 12 -68 0 -57 2 -64 20
-64 11 0 20 4 20 10 0 5 -7 7 -15 4 -12 -5 -15 6 -15 66 0 45 -4 69 -10 65 -5
-3 -10 -1 -10 6 0 7 10 9 25 7 14 -3 25 -1 25 3 0 17 -51 9 -57 -8z"/>
<path d="M2559 477 c8 -10 11 -28 8 -45 -3 -15 -2 -33 1 -40 4 -6 9 8 10 32 1
31 -3 48 -16 57 -15 13 -16 12 -3 -4z"/>
<path d="M2695 480 c4 -6 -7 -10 -24 -10 -24 0 -31 -4 -31 -20 0 -15 7 -20 25
-20 13 0 29 -8 34 -17 6 -10 11 -13 11 -7 0 16 -22 34 -42 34 -10 0 -18 5 -18
10 0 6 14 10 30 10 20 0 30 5 30 15 0 8 -5 15 -11 15 -5 0 -7 -4 -4 -10z"/>
<path d="M3070 465 c0 -16 6 -25 15 -25 8 0 15 5 15 10 0 17 28 11 32 -7 3
-15 5 -14 10 5 5 19 2 22 -22 22 -16 0 -31 -6 -34 -12 -4 -7 -4 -3 -2 10 2 12
0 22 -5 22 -5 0 -9 -11 -9 -25z"/>
<path d="M3149 481 c12 -8 13 -16 3 -49 -16 -52 -14 -66 3 -22 20 51 19 80 -2
80 -15 0 -15 -2 -4 -9z"/>
<path d="M3217 435 c-15 -31 -27 -61 -27 -68 0 -6 14 17 30 52 17 35 33 61 36
58 3 -3 -6 -28 -20 -56 -14 -28 -26 -53 -26 -56 0 -3 12 -6 28 -6 21 -2 18 -3
-13 -9 l-40 -7 38 -2 c20 0 37 -5 37 -11 0 -15 27 -12 33 4 3 8 3 31 0 50 -6
41 -33 50 -33 11 0 -16 -6 -25 -15 -25 -20 0 -19 13 5 60 23 46 25 60 7 60 -7
0 -25 -25 -40 -55z m60 -57 c-3 -7 -5 -2 -5 12 0 14 2 19 5 13 2 -7 2 -19 0
-25z"/>
<path d="M4660 449 c-12 -23 -20 -43 -17 -45 2 -2 12 14 22 36 10 22 22 40 27
40 5 0 2 -13 -7 -30 -20 -38 -19 -40 9 -40 13 0 27 -6 29 -12 4 -10 6 -10 6 0
1 8 -8 16 -20 19 -20 6 -21 14 -4 56 5 12 2 17 -9 17 -8 0 -25 -18 -36 -41z"/>
<path d="M4772 478 c-17 -17 -15 -38 3 -38 8 0 15 5 15 10 0 14 37 12 43 -2 4
-10 6 -10 6 0 1 19 -29 27 -50 13 -21 -13 -26 -2 -7 17 7 7 10 12 7 12 -3 0
-10 -5 -17 -12z"/>
<path d="M4838 478 c20 -20 13 -51 -19 -93 l-30 -40 33 -6 c32 -6 32 -6 -9 -8
-24 0 -43 2 -43 6 0 3 10 20 23 37 28 37 40 56 34 56 -7 0 -67 -88 -67 -99 0
-7 21 -11 50 -11 38 0 50 4 50 15 0 10 -10 15 -26 15 -25 0 -26 1 -12 23 38
57 41 65 34 90 -3 15 -12 27 -18 27 -9 0 -9 -3 0 -12z"/>
<path d="M5523 475 c-17 -12 -21 -25 -21 -79 0 -49 4 -68 16 -77 14 -11 15
-11 5 1 -27 30 -7 83 31 87 23 2 45 -23 47 -52 1 -18 2 -18 6 -2 3 10 -1 24
-7 32 -6 8 -8 20 -4 26 4 7 3 9 -4 5 -6 -4 -12 3 -14 16 -2 16 -10 23 -28 25
-22 1 -22 1 -2 -4 23 -5 30 -27 10 -39 -6 -4 -18 2 -26 12 -13 16 -14 17 -9 2
4 -10 2 -18 -3 -18 -6 0 -10 11 -10 25 0 37 42 55 70 30 11 -10 20 -13 20 -7
0 11 -31 32 -47 32 -5 0 -18 -7 -30 -15z"/>
<path d="M523 473 c-18 -7 -16 -33 2 -33 12 0 15 -14 15 -65 0 -51 3 -65 15
-65 12 0 15 16 15 85 0 88 -4 96 -47 78z m35 -80 l-2 -78 -3 72 c-3 62 -6 71
-20 66 -11 -4 -14 -3 -9 5 4 7 14 12 22 12 11 0 14 -16 12 -77z"/>
<path d="M603 473 c-18 -7 -16 -33 2 -33 12 0 15 -14 15 -65 0 -51 3 -65 15
-65 12 0 15 16 15 85 0 88 -4 96 -47 78z m35 -80 l-2 -78 -3 72 c-3 62 -6 71
-20 66 -11 -4 -14 -3 -9 5 4 7 14 12 22 12 11 0 14 -16 12 -77z"/>
<path d="M5390 420 c-40 -78 -39 -90 5 -90 19 0 35 -4 35 -10 0 -16 37 -12 43
4 3 8 3 31 0 50 -4 26 -11 36 -24 36 -11 0 -19 -4 -19 -10 0 -5 7 -7 15 -4 10
4 15 0 15 -11 0 -11 -5 -15 -15 -11 -8 3 -15 1 -15 -4 0 -6 -7 -10 -15 -10
-19 0 -19 3 5 50 28 56 24 64 -5 10 -30 -56 -31 -68 -2 -73 16 -3 13 -5 -10
-6 -18 0 -33 3 -33 9 0 22 55 120 69 123 13 4 13 5 -1 6 -12 1 -28 -19 -48
-59z"/>
<path d="M6877 474 c-9 -10 -9 -112 1 -117 4 -3 5 21 4 54 -4 54 -2 59 17 59
19 0 21 -6 21 -54 0 -30 -5 -57 -10 -59 -6 -3 -5 -4 2 -3 9 2 13 22 13 62 0
52 -2 59 -20 62 -12 2 -24 0 -28 -4z"/>
<path d="M2503 454 c-3 -8 2 -23 11 -32 15 -15 17 -15 32 0 21 21 11 48 -16
48 -11 0 -23 -7 -27 -16z m45 -11 c-2 -10 -10 -18 -18 -18 -8 0 -16 8 -18 18
-2 12 3 17 18 17 15 0 20 -5 18 -17z"/>
<path d="M3990 447 c0 -11 9 -21 21 -24 20 -6 21 -14 4 -55 -5 -13 -2 -18 9
-18 15 0 62 77 53 86 -2 2 -12 -14 -22 -36 -10 -22 -22 -40 -27 -40 -5 0 -2
13 7 30 19 37 19 40 -5 40 -10 0 -24 8 -29 18 -10 16 -10 16 -11 -1z"/>
<path d="M1283 394 l-33 -44 36 0 c21 0 33 -4 29 -10 -3 -5 -1 -10 5 -10 23 0
3 25 -23 28 l-27 3 26 35 c15 19 25 36 23 38 -2 2 -19 -17 -36 -40z"/>
<path d="M1862 396 c-33 -46 -40 -66 -21 -66 5 0 7 5 4 10 -4 6 4 25 17 43 29
38 41 57 35 57 -2 0 -18 -20 -35 -44z"/>
<path d="M2630 410 c-22 -8 -21 -9 10 -7 31 2 35 -1 38 -26 3 -27 2 -28 -33
-21 -35 6 -37 6 -26 -14 6 -11 20 -23 31 -27 24 -8 60 11 60 31 0 12 -4 11
-18 -6 -13 -17 -24 -21 -40 -16 -31 10 -27 22 6 21 24 0 27 3 27 35 0 38 -12
44 -55 30z"/>
<path d="M3112 381 c-15 -50 -15 -61 2 -61 14 0 27 22 25 43 0 7 -5 1 -10 -12
-15 -37 -22 -17 -9 24 7 20 10 38 8 41 -3 2 -10 -13 -16 -35z"/>
<path d="M2504 386 c-10 -26 4 -48 28 -44 17 2 23 10 23 28 0 18 -6 26 -23 28
-13 2 -25 -3 -28 -12z m46 -16 c0 -13 -7 -20 -20 -20 -13 0 -20 7 -20 20 0 13
7 20 20 20 13 0 20 -7 20 -20z"/>
<path d="M4666 391 c-3 -5 3 -7 14 -4 16 4 20 0 20 -17 0 -17 -4 -21 -20 -17
-11 3 -20 1 -20 -5 0 -5 10 -8 23 -6 16 2 22 10 22 28 0 25 -27 40 -39 21z"/>
<path d="M2046 367 c-3 -14 -16 -27 -28 -30 -24 -7 -58 8 -58 25 0 9 3 9 12 0
14 -14 44 -16 52 -3 3 4 -6 6 -19 3 -15 -2 -25 0 -25 7 0 6 -7 11 -15 11 -23
0 -18 -28 9 -45 17 -12 30 -13 49 -6 23 9 45 46 34 57 -2 3 -7 -6 -11 -19z"/>
<path d="M4631 373 c-1 -23 30 -63 50 -63 17 0 49 20 49 31 0 6 -7 3 -16 -5
-28 -29 -60 -16 -74 30 -7 24 -8 25 -9 7z"/>
<path d="M5524 375 c-10 -25 4 -45 31 -45 14 0 25 4 25 9 0 4 -12 6 -26 3 -21
-4 -25 -1 -22 14 2 12 12 19 25 18 12 0 20 3 17 8 -9 14 -44 9 -50 -7z"/>
<path d="M6396 367 c-3 -14 -16 -27 -28 -30 -24 -7 -58 8 -58 25 0 9 3 9 12 0
14 -14 44 -16 52 -3 3 4 -6 6 -19 3 -15 -2 -25 0 -25 7 0 6 -7 11 -15 11 -23
0 -18 -28 9 -45 17 -12 30 -13 49 -6 23 9 45 46 34 57 -2 3 -7 -6 -11 -19z"/>
<path d="M2480 342 c0 -12 19 -26 26 -19 2 2 -2 10 -11 17 -9 8 -15 8 -15 2z"/>
<path d="M2560 335 c-8 -9 -8 -15 -2 -15 12 0 26 19 19 26 -2 2 -10 -2 -17
-11z"/>
<path d="M5580 320 c-9 -6 -10 -10 -3 -10 6 0 15 5 18 10 8 12 4 12 -15 0z"/>
</g>
</svg>
