<?xml version="1.0" standalone="no"?>
<!DOCTYPE svg PUBLIC "-//W3C//DTD SVG 20010904//EN"
 "http://www.w3.org/TR/2001/REC-SVG-20010904/DTD/svg10.dtd">
<svg version="1.0" xmlns="http://www.w3.org/2000/svg"
 width="952.000000pt" height="643.000000pt" viewBox="0 0 952.000000 643.000000"
 preserveAspectRatio="xMidYMid meet">

<g transform="translate(0.000000,643.000000) scale(0.100000,-0.100000)"
fill="#000000" stroke="none">
<path d="M4720 6324 c-77 -33 -120 -96 -129 -189 l-6 -59 -530 -163 -530 -163
-1762 0 c-1169 0 -1763 -3 -1763 -10 0 -7 581 -10 1723 -10 976 0 1716 -4
1707 -9 -8 -5 -238 -77 -510 -160 -272 -84 -496 -154 -499 -156 -13 -14 66 9
558 160 l538 165 142 0 141 0 0 -935 0 -935 -25 16 c-23 15 -27 15 -50 0 -33
-22 -42 -59 -20 -92 14 -22 23 -25 56 -22 l39 4 0 -208 0 -208 -971 0 c-644 0
-968 -3 -964 -10 4 -7 342 -10 981 -10 l974 0 0 1210 0 1209 -102 3 -103 3
493 151 493 151 14 -26 c33 -65 112 -111 187 -111 74 1 140 42 193 122 9 13
174 -36 1105 -322 l1095 -336 6 -54 c3 -30 9 -66 12 -80 7 -24 -12 -37 -434
-295 -242 -148 -454 -276 -470 -284 -27 -14 -31 -13 -57 12 -104 100 -280 61
-336 -75 -44 -104 9 -228 116 -272 142 -60 304 62 284 213 -3 25 -7 56 -8 68
-3 19 58 60 462 307 l464 286 31 -30 c82 -79 208 -79 290 0 l31 30 469 -289
c378 -232 469 -292 467 -307 -19 -117 -10 -163 41 -221 127 -144 367 -55 367
137 0 184 -223 278 -356 149 l-31 -30 -472 288 c-410 251 -471 291 -465 308 3
11 8 41 11 66 18 156 -149 276 -292 210 -35 -16 -79 -57 -110 -103 -9 -13
-174 36 -1105 322 l-1095 336 -6 59 c-6 68 -24 108 -66 147 -58 56 -151 73
-223 42z m174 -38 c116 -68 115 -248 -2 -314 -85 -48 -200 -19 -248 64 -50 86
-22 199 62 250 54 33 132 33 188 0z m2604 -793 c107 -50 129 -206 42 -293
-132 -132 -354 -5 -309 177 29 115 154 169 267 116z m-1294 -807 c116 -68 115
-248 -2 -314 -85 -48 -200 -19 -248 64 -33 56 -33 134 0 188 51 84 164 112
250 62z m2610 0 c116 -68 115 -248 -2 -314 -85 -48 -200 -19 -248 64 -33 56
-33 134 0 188 51 84 164 112 250 62z m-5046 -828 c19 -19 14 -28 -18 -28 -41
0 -40 33 1 39 3 1 10 -4 17 -11z m32 -59 c0 -17 -5 -20 -37 -17 -27 2 -39 8
-41 21 -3 14 4 17 37 17 35 0 41 -3 41 -21z"/>
<path d="M4745 6180 c-16 -18 -16 -20 -3 -15 14 6 17 -2 21 -42 3 -44 4 -43 5
15 1 34 0 62 -1 62 -2 0 -12 -9 -22 -20z"/>
<path d="M4816 6183 c-6 -14 -5 -16 5 -5 7 6 19 12 26 12 17 0 17 -40 1 -40
-7 0 -5 -5 5 -11 9 -5 17 -17 17 -25 0 -21 -27 -29 -47 -13 -14 12 -16 12 -11
-1 6 -20 35 -25 53 -10 16 13 21 50 7 50 -4 0 -8 12 -7 28 0 20 -5 28 -21 30
-13 2 -24 -4 -28 -15z"/>
<path d="M7355 5380 c-16 -18 -16 -20 -3 -15 14 6 17 -2 21 -42 3 -44 4 -43 5
15 1 34 0 62 -1 62 -2 0 -12 -9 -22 -20z"/>
<path d="M7442 5393 c26 -4 26 -5 12 -38 -8 -19 -14 -45 -13 -57 0 -14 6 -5
15 24 8 26 19 50 24 53 22 13 8 25 -27 24 -29 -2 -32 -3 -11 -6z"/>
<path d="M6055 4580 c-16 -18 -16 -20 -3 -15 14 6 17 -2 21 -42 3 -44 4 -43 5
15 1 34 0 62 -1 62 -2 0 -12 -9 -22 -20z"/>
<path d="M6130 4586 c0 -8 -3 -21 -6 -30 -4 -11 1 -15 23 -13 22 2 29 -3 31
-21 4 -27 -22 -40 -45 -21 -14 12 -16 12 -11 -1 6 -20 48 -19 61 1 13 21 2 50
-23 56 -27 7 -25 31 3 36 19 4 18 4 -5 6 -18 1 -28 -4 -28 -13z"/>
<path d="M8647 4593 c-4 -3 -7 -11 -7 -17 0 -6 5 -5 12 2 16 16 35 15 42 -3 3
-9 -7 -29 -24 -49 -17 -18 -30 -36 -30 -40 0 -3 17 -5 38 -5 30 2 32 3 9 6
l-28 4 26 30 c14 17 25 36 25 43 0 27 -45 48 -63 29z"/>
<path d="M8755 4580 c-16 -18 -16 -20 -3 -15 14 6 17 -2 21 -42 3 -44 4 -43 5
15 1 34 0 62 -1 62 -2 0 -12 -9 -22 -20z"/>
<path d="M2121 5503 c-51 -25 -87 -92 -90 -164 -4 -102 44 -165 142 -190 84
-21 170 22 203 100 21 51 24 141 4 162 -8 9 -23 29 -34 44 -43 63 -149 85
-225 48z m117 -75 c7 -7 12 -35 12 -64 0 -74 -25 -100 -92 -95 -30 2 -20 21
10 21 29 0 52 16 52 36 0 6 -10 9 -23 7 -44 -9 -71 42 -47 88 12 22 68 27 88
7z"/>
<path d="M2172 5403 c-13 -26 -4 -43 24 -43 22 0 25 4 22 27 -4 33 -32 43 -46
16z"/>
<path d="M1050 5342 l0 -88 45 -2 c50 -2 65 13 65 67 0 34 -36 66 -64 55 -13
-5 -16 0 -16 25 0 21 -5 31 -15 31 -12 0 -15 -16 -15 -88z m80 -2 c16 -30 2
-72 -24 -68 -38 5 -33 87 6 88 4 0 12 -9 18 -20z"/>
<path d="M1190 5340 c0 -73 3 -90 15 -90 12 0 15 17 15 90 0 73 -3 90 -15 90
-12 0 -15 -17 -15 -90z"/>
<path d="M1810 5399 c0 -28 -2 -31 -25 -25 -48 12 -82 -53 -55 -104 8 -15 20
-19 55 -18 l45 2 0 88 c0 52 -4 88 -10 88 -5 0 -10 -14 -10 -31z m-4 -75 c7
-26 -10 -54 -32 -54 -19 0 -35 35 -27 57 14 39 49 37 59 -3z"/>
<path d="M50 5335 c0 -69 3 -85 15 -85 10 0 15 11 15 35 0 25 5 35 15 35 9 0
23 -16 32 -35 21 -43 49 -50 31 -7 -7 15 -16 32 -21 39 -5 7 -2 21 7 35 14 22
14 26 0 46 -11 16 -25 22 -55 22 l-39 0 0 -85z m76 50 c7 -18 -12 -45 -32 -45
-9 0 -14 11 -14 30 0 23 4 30 20 30 11 0 23 -7 26 -15z"/>
<path d="M220 5373 c-41 -15 -54 -78 -22 -106 20 -18 77 -23 87 -8 3 6 -12 11
-32 13 -27 2 -39 8 -41 21 -3 14 4 17 37 17 34 0 41 3 41 19 0 11 -10 27 -22
35 -24 17 -25 17 -48 9z m39 -26 c6 -8 8 -17 4 -20 -12 -12 -53 -7 -53 6 0 28
30 37 49 14z"/>
<path d="M327 5374 c-11 -11 -8 -124 3 -124 6 0 10 18 10 39 0 47 24 78 46 60
8 -7 14 -30 14 -55 0 -24 5 -44 10 -44 6 0 10 20 10 45 0 33 5 47 19 54 26 14
31 5 31 -51 0 -36 4 -48 15 -48 11 0 15 12 15 49 0 65 -35 102 -67 70 -8 -8
-17 -8 -32 0 -15 8 -27 9 -40 1 -13 -7 -20 -7 -23 1 -2 6 -7 7 -11 3z"/>
<path d="M560 5367 c-28 -14 -38 -63 -20 -97 13 -24 71 -28 89 -6 21 25 16 77
-9 98 -26 21 -28 21 -60 5z m49 -21 c7 -8 11 -27 9 -43 -2 -21 -9 -29 -27 -31
-13 -2 -28 2 -32 10 -29 45 17 104 50 64z"/>
<path d="M660 5372 c0 -25 44 -122 56 -122 11 0 54 95 54 122 0 24 -27 -13
-40 -54 l-13 -43 -17 49 c-14 44 -40 74 -40 48z"/>
<path d="M812 5364 c-16 -11 -22 -25 -22 -53 0 -46 14 -61 56 -61 47 0 52 18
7 22 -27 2 -39 8 -41 21 -3 14 4 17 37 17 32 0 41 4 41 18 -1 41 -43 61 -78
36z m42 -10 c28 -11 18 -34 -14 -34 -18 0 -30 5 -30 13 0 25 15 32 44 21z"/>
<path d="M934 5365 c-18 -14 -17 -15 16 -12 26 1 35 -2 38 -15 3 -13 -3 -18
-21 -18 -29 0 -50 -22 -45 -47 2 -14 13 -18 46 -19 l42 -2 0 54 c0 42 -4 55
-19 64 -26 13 -34 13 -57 -5z m54 -72 c-4 -23 -48 -31 -48 -10 0 9 6 18 13 20
25 11 38 7 35 -10z"/>
<path d="M1272 5364 c-16 -11 -22 -25 -22 -53 0 -46 14 -61 56 -61 47 0 52 18
7 22 -27 2 -39 8 -41 21 -3 14 4 17 37 17 37 0 41 2 41 25 0 18 -7 28 -26 35
-31 12 -25 13 -52 -6z m42 -10 c28 -11 18 -34 -14 -34 -32 0 -37 9 -18 28 14
14 12 14 32 6z"/>
<path d="M1450 5316 c0 -37 4 -66 10 -66 6 0 10 20 10 44 0 51 20 76 45 56 9
-8 15 -30 15 -56 0 -24 5 -44 10 -44 17 0 12 97 -6 114 -18 18 -23 19 -44 6
-9 -5 -19 -5 -27 2 -10 8 -13 -3 -13 -56z"/>
<path d="M1620 5373 c-39 -14 -54 -78 -24 -107 24 -25 71 -20 90 9 22 33 10
83 -23 96 -13 5 -25 9 -26 8 -1 0 -9 -3 -17 -6z m38 -22 c21 -13 11 -75 -12
-80 -20 -3 -46 22 -46 45 0 13 27 44 38 44 4 0 13 -4 20 -9z"/>
<path d="M1900 5373 c-39 -14 -54 -78 -24 -107 17 -18 84 -22 84 -6 0 6 -13
10 -29 10 -29 0 -57 21 -44 33 3 4 24 7 45 7 31 0 38 4 38 19 0 11 -10 27 -22
35 -24 17 -25 17 -48 9z m38 -36 c3 -12 -3 -17 -22 -17 -25 0 -35 18 -19 34
12 12 38 2 41 -17z"/>
<path d="M2530 5318 c0 -79 17 -108 64 -108 50 0 66 25 66 103 0 38 -4 67 -10
67 -5 0 -10 -25 -10 -56 0 -68 -13 -94 -46 -94 -31 0 -46 36 -42 99 1 28 -2
46 -10 49 -9 3 -12 -15 -12 -60z"/>
<path d="M1536 4939 l-470 -289 -25 24 c-85 79 -233 79 -302 0 -68 -78 -70
-207 -4 -284 11 -13 -14 -48 -166 -235 -234 -286 -209 -263 -259 -240 -72 33
-156 18 -218 -39 -29 -25 -52 -68 -52 -93 1 -10 10 1 22 25 75 155 305 134
347 -31 54 -216 -250 -325 -347 -125 -12 24 -21 35 -22 25 -1 -69 100 -149
190 -149 171 0 265 206 152 334 -10 12 -12 22 -5 30 85 109 378 464 384 466 4
2 23 -5 41 -14 43 -23 133 -23 176 0 19 10 35 16 37 14 1 -2 89 -109 194 -238
189 -233 190 -235 171 -255 -10 -11 -28 -40 -39 -65 -63 -139 31 -295 185
-308 188 -16 297 191 186 353 -55 80 -178 114 -260 71 -18 -9 -37 -14 -42 -11
-8 5 -338 406 -368 448 -12 15 -12 21 1 35 46 53 67 166 39 218 -8 14 -8 24
-1 31 6 6 219 138 474 294 408 250 489 302 458 298 -5 0 -219 -131 -477 -290z
m-552 -253 c116 -68 115 -248 -2 -314 -85 -48 -200 -19 -248 64 -33 56 -33
134 0 188 51 84 164 112 250 62z m616 -910 c0 -29 -59 -151 -74 -154 -12 -3
-10 11 14 63 17 37 30 71 30 76 0 5 -18 9 -40 9 -22 0 -40 5 -40 10 0 6 25 10
55 10 40 0 55 -4 55 -14z"/>
<path d="M867 4593 c-4 -3 -7 -16 -7 -28 0 -16 6 -21 23 -21 28 1 37 -41 11
-51 -10 -4 -19 -2 -22 5 -2 7 -8 12 -14 12 -6 0 -6 -6 2 -15 30 -36 83 3 60
45 -6 11 -20 20 -31 20 -28 0 -19 23 12 31 l24 7 -26 1 c-14 1 -29 -2 -32 -6z"/>
<path d="M2400 5196 c8 -8 209 -132 445 -276 237 -145 438 -270 448 -280 15
-14 16 -23 8 -63 -31 -134 62 -250 199 -250 120 0 203 83 203 203 0 120 -83
203 -203 203 -59 0 -108 -19 -151 -60 -22 -21 -31 -23 -48 -14 -11 6 -218 133
-461 281 -242 149 -443 270 -447 270 -4 0 -1 -6 7 -14z m1194 -510 c116 -68
115 -248 -2 -314 -85 -48 -200 -19 -248 64 -50 86 -22 199 62 250 54 33 132
33 188 0z"/>
<path d="M3454 4578 c-10 -12 -13 -18 -6 -14 9 5 12 -5 12 -38 0 -25 5 -46 10
-46 6 0 10 27 10 60 0 33 -2 60 -3 60 -2 0 -12 -10 -23 -22z"/>
<path d="M3525 4578 c-16 -17 -17 -20 -3 -15 14 5 18 -2 21 -41 3 -42 4 -40 5
16 1 34 1 62 0 61 -2 0 -12 -10 -23 -21z"/>
<path d="M4310 5105 l0 -85 36 0 c19 0 44 5 55 10 20 11 26 54 9 65 -5 3 -7
19 -3 35 8 41 -11 60 -58 60 l-39 0 0 -85z m75 40 c0 -13 -8 -21 -22 -23 -19
-3 -23 1 -23 23 0 22 4 26 23 23 14 -2 22 -10 22 -23z m5 -60 c18 -21 5 -45
-25 -45 -21 0 -25 5 -25 30 0 23 5 30 19 30 10 0 24 -7 31 -15z"/>
<path d="M4460 5105 l0 -85 45 0 c25 0 45 5 45 10 0 6 -16 10 -35 10 -32 0
-35 2 -35 30 0 27 3 30 30 30 17 0 30 5 30 10 0 6 -13 10 -30 10 -25 0 -30 4
-30 25 0 22 4 25 35 25 19 0 35 5 35 10 0 6 -20 10 -45 10 l-45 0 0 -85z"/>
<path d="M4590 5105 c0 -50 4 -85 10 -85 6 0 10 16 10 35 0 32 2 35 30 35 17
0 30 5 30 10 0 6 -13 10 -30 10 -27 0 -30 3 -30 30 0 28 3 30 35 30 19 0 35 5
35 10 0 6 -20 10 -45 10 l-45 0 0 -85z"/>
<path d="M4721 5164 c-28 -35 -28 -97 -1 -124 26 -26 81 -26 104 -1 10 11 20
37 23 58 11 81 -78 128 -126 67z m87 -6 c17 -17 15 -93 -2 -107 -8 -7 -27 -11
-43 -9 -60 7 -51 128 10 128 13 0 28 -5 35 -12z"/>
<path d="M4887 5183 c-4 -3 -7 -42 -7 -85 0 -63 3 -78 15 -78 10 0 15 11 15
35 0 28 4 35 19 35 13 0 23 -11 31 -35 6 -19 18 -35 26 -35 11 0 11 5 2 28 -7
15 -16 32 -21 39 -6 8 -3 18 7 28 20 20 20 25 0 53 -15 21 -71 31 -87 15z m71
-37 c2 -10 -2 -22 -10 -27 -25 -17 -38 -9 -38 22 0 26 3 30 22 27 13 -2 24
-11 26 -22z"/>
<path d="M5030 5105 l0 -85 45 0 c25 0 45 5 45 10 0 6 -16 10 -35 10 -32 0
-35 2 -35 30 0 27 3 30 30 30 17 0 30 5 30 10 0 6 -13 10 -30 10 -25 0 -30 4
-30 25 0 22 4 25 35 25 19 0 35 5 35 10 0 6 -20 10 -45 10 l-45 0 0 -85z"/>
<path d="M2068 5062 c-42 -19 -54 -49 -15 -37 63 19 66 19 83 -19 10 -20 21
-36 25 -36 17 0 16 18 -3 63 -23 52 -32 55 -90 29z"/>
<path d="M2073 4975 c-13 -27 -14 -38 -5 -47 9 -9 15 -3 27 25 18 43 19 57 5
57 -6 0 -18 -16 -27 -35z"/>
<path d="M2040 4885 c0 -9 5 -15 11 -13 6 2 11 8 11 13 0 5 -5 11 -11 13 -6 2
-11 -4 -11 -13z"/>
<path d="M2005 4810 c-19 -36 -19 -50 -1 -50 12 0 36 47 36 71 0 20 -20 7 -35
-21z"/>
<path d="M1972 4719 c2 -6 8 -10 13 -10 5 0 11 4 13 10 2 6 -4 11 -13 11 -9 0
-15 -5 -13 -11z"/>
<path d="M1936 4643 c-15 -33 -14 -53 3 -53 4 0 15 18 23 39 21 53 -2 65 -26
14z"/>
<path d="M1900 4556 c0 -9 7 -16 16 -16 9 0 14 5 12 12 -6 18 -28 21 -28 4z"/>
<path d="M1867 4473 c-11 -28 -12 -40 -3 -45 11 -8 47 60 39 75 -9 16 -22 5
-36 -30z"/>
<path d="M1830 4385 c0 -8 7 -15 15 -15 8 0 15 7 15 15 0 8 -7 15 -15 15 -8 0
-15 -7 -15 -15z"/>
<path d="M1810 4336 c0 -2 -7 -20 -15 -40 -14 -32 -14 -36 0 -36 8 0 22 16 30
36 18 45 18 44 0 44 -8 0 -15 -2 -15 -4z"/>
<path d="M1762 4218 c6 -18 28 -21 28 -4 0 9 -7 16 -16 16 -9 0 -14 -5 -12
-12z"/>
<path d="M1732 4147 c-15 -41 -15 -57 -2 -57 12 0 42 69 34 81 -10 17 -20 9
-32 -24z"/>
<path d="M1696 4063 c-10 -10 -7 -21 8 -26 8 -3 17 0 20 8 5 14 -17 28 -28 18z"/>
<path d="M1667 3993 c-2 -10 -8 -26 -12 -35 -12 -29 20 -22 33 7 7 14 12 30
12 35 0 17 -27 11 -33 -7z"/>
<path d="M2210 3850 c0 -53 4 -90 10 -90 6 0 10 37 10 90 0 53 -4 90 -10 90
-6 0 -10 -37 -10 -90z"/>
<path d="M3640 3909 c0 -28 -3 -31 -23 -25 -38 9 -62 -16 -62 -64 0 -48 14
-60 68 -58 l37 1 0 89 c0 52 -4 88 -10 88 -5 0 -10 -14 -10 -31z m-11 -53 c7
-8 11 -27 9 -43 -2 -22 -8 -28 -28 -28 -21 0 -26 5 -28 34 -5 45 23 66 47 37z"/>
<path d="M1800 3845 c0 -69 3 -85 15 -85 10 0 15 11 15 35 0 25 5 35 15 35 9
0 23 -16 32 -35 21 -43 49 -50 31 -7 -7 15 -16 32 -21 39 -5 7 -2 21 7 35 14
22 14 26 0 46 -11 16 -25 22 -55 22 l-39 0 0 -85z m77 49 c4 -11 -1 -22 -12
-30 -28 -21 -35 -17 -35 16 0 23 4 30 20 30 11 0 23 -7 27 -16z"/>
<path d="M3133 3903 c-4 -10 -11 -21 -17 -25 -7 -5 -7 -8 2 -8 7 0 12 -14 12
-36 0 -19 5 -44 10 -55 11 -20 50 -27 50 -9 0 6 -7 10 -15 10 -22 0 -20 69 3
86 16 13 16 13 0 14 -11 0 -18 8 -18 20 0 25 -18 26 -27 3z"/>
<path d="M1970 3883 c-41 -15 -54 -78 -22 -106 20 -18 77 -23 87 -8 3 6 -12
11 -32 13 -27 2 -39 8 -41 21 -3 14 4 17 37 17 34 0 41 3 41 19 0 11 -10 27
-22 35 -24 17 -25 17 -48 9z m39 -26 c6 -8 8 -17 4 -20 -12 -12 -53 -7 -53 6
0 28 30 37 49 14z"/>
<path d="M2077 3884 c-10 -11 -9 -174 2 -174 5 0 11 12 13 28 3 24 7 27 35 24
36 -4 53 17 53 67 0 39 -38 68 -69 52 -13 -8 -20 -8 -23 0 -2 6 -7 7 -11 3z
m73 -34 c24 -44 -15 -91 -48 -58 -17 17 -15 38 5 60 21 23 30 23 43 -2z"/>
<path d="M2288 3883 c-31 -8 -20 -23 14 -21 24 2 33 -2 36 -14 2 -13 -3 -18
-20 -18 -34 0 -50 -14 -46 -41 3 -21 9 -24 46 -25 l42 -2 0 54 c0 42 -4 55
-19 64 -20 10 -25 11 -53 3z m50 -80 c-4 -23 -48 -31 -48 -10 0 9 6 18 13 20
25 11 38 7 35 -10z"/>
<path d="M2423 3875 c-52 -36 -30 -119 29 -113 43 4 49 27 6 25 -29 -2 -33 1
-36 26 -5 38 14 58 47 51 25 -5 25 -5 7 10 -24 20 -26 20 -53 1z"/>
<path d="M2532 3874 c-16 -11 -22 -25 -22 -53 0 -46 14 -61 56 -61 47 0 52 18
7 22 -27 2 -39 8 -41 21 -3 14 4 17 37 17 37 0 41 2 41 25 0 18 -7 28 -26 35
-31 12 -25 13 -52 -6z m42 -10 c28 -11 18 -34 -14 -34 -32 0 -37 9 -18 28 14
14 12 14 32 6z"/>
<path d="M2650 3827 c0 -38 4 -67 10 -67 6 0 10 20 10 44 0 44 19 74 40 61 5
-3 10 -28 10 -56 0 -37 4 -49 15 -49 11 0 15 12 15 49 0 32 5 51 14 54 22 9
36 -14 36 -60 0 -24 5 -43 10 -43 6 0 10 25 10 55 0 44 -4 56 -20 65 -14 8
-26 8 -41 0 -15 -8 -24 -8 -34 0 -10 8 -19 8 -33 1 -13 -7 -22 -7 -30 1 -9 9
-12 -4 -12 -55z"/>
<path d="M2882 3878 c-50 -24 -34 -110 22 -116 15 -2 35 0 44 4 12 6 6 9 -23
13 -27 4 -41 12 -43 24 -3 14 4 17 37 17 34 0 41 3 41 19 0 11 -10 27 -22 35
-26 18 -25 18 -56 4z m47 -21 c14 -17 4 -27 -26 -27 -35 0 -28 35 8 39 4 1 12
-5 18 -12z"/>
<path d="M2997 3884 c-11 -11 -8 -124 3 -124 6 0 10 18 10 39 0 40 22 75 44
68 6 -2 12 -27 14 -55 4 -69 22 -67 22 3 0 44 -4 56 -20 65 -14 7 -26 8 -39 0
-13 -7 -20 -7 -23 1 -2 6 -7 7 -11 3z"/>
<path d="M3280 3825 c0 -37 4 -65 10 -65 6 0 10 20 10 45 0 33 5 47 18 54 27
15 42 -5 42 -56 0 -24 5 -43 10 -43 6 0 10 25 10 55 0 44 -4 56 -20 65 -14 8
-26 8 -40 0 -14 -7 -20 -7 -20 0 0 5 -4 10 -10 10 -6 0 -10 -28 -10 -65z"/>
<path d="M3445 3878 c-27 -15 -35 -28 -35 -59 0 -52 69 -79 103 -41 46 51 -10
132 -68 100z m49 -24 c19 -19 20 -35 3 -58 -21 -29 -51 -16 -55 23 -5 47 23
65 52 35z"/>
<path d="M205 3790 c-4 -6 -4 -14 -1 -17 3 -4 6 -1 6 5 0 15 27 15 36 0 4 -6
-1 -17 -11 -25 -17 -12 -17 -13 -2 -13 22 0 22 -39 0 -47 -9 -4 -19 -1 -21 5
-2 7 -8 12 -14 12 -6 0 -6 -6 2 -15 7 -8 21 -15 31 -15 22 0 43 35 32 53 -4 6
-8 23 -8 37 0 18 -6 26 -22 28 -11 2 -24 -2 -28 -8z"/>
<path d="M1090 3678 c17 -45 30 -84 30 -86 0 -2 7 -2 17 0 20 4 79 168 59 168
-7 0 -23 -33 -36 -72 l-23 -73 -24 73 c-15 44 -30 72 -39 72 -11 0 -7 -19 16
-82z"/>
<path d="M2120 3522 l0 -88 42 -1 c23 -1 48 3 55 9 14 11 18 76 5 94 -12 18
-44 25 -58 13 -11 -9 -14 -5 -14 25 0 25 -4 36 -15 36 -12 0 -15 -16 -15 -88z
m79 4 c7 -8 11 -27 9 -43 -2 -22 -8 -28 -28 -28 -20 0 -26 6 -28 28 -3 27 12
57 28 57 4 0 13 -6 19 -14z"/>
<path d="M2264 3566 c-6 -14 -8 -28 -3 -33 4 -4 9 -28 11 -53 3 -41 6 -45 31
-48 15 -2 27 1 27 7 0 6 -9 11 -20 11 -17 0 -20 7 -20 39 0 32 4 41 22 47 l23
7 -23 8 c-12 5 -22 15 -22 24 0 23 -14 18 -26 -9z"/>
<path d="M1886 3544 c-23 -22 -20 -33 14 -52 40 -23 40 -46 0 -40 -19 3 -29 1
-27 -6 2 -6 19 -11 38 -11 29 0 34 4 37 26 2 19 -3 28 -23 37 -34 16 -34 47 0
38 27 -7 35 8 9 18 -24 9 -31 8 -48 -10z"/>
<path d="M1986 3553 c-10 -10 -7 -82 4 -103 8 -15 20 -19 56 -18 l45 2 -3 61
c-4 71 -21 76 -28 8 -4 -40 -9 -49 -27 -51 -21 -3 -23 0 -23 47 0 47 -9 68
-24 54z"/>
<path d="M2357 3553 c-4 -3 -7 -33 -7 -65 0 -45 3 -58 15 -58 11 0 15 12 15
44 0 41 19 74 33 59 4 -3 7 1 7 10 0 19 -25 23 -36 6 -5 -8 -8 -8 -13 0 -4 6
-10 8 -14 4z"/>
<path d="M2460 3542 c-16 -13 -23 -29 -22 -51 1 -43 18 -61 58 -61 46 0 52 18
7 22 -27 2 -39 8 -41 21 -3 14 4 17 37 17 32 0 41 4 41 18 -1 43 -45 62 -80
34z m44 -8 c28 -11 18 -34 -14 -34 -18 0 -30 5 -30 13 0 25 15 32 44 21z"/>
<path d="M2592 3544 c-24 -17 -30 -61 -12 -95 8 -14 21 -19 50 -19 22 0 40 5
40 10 0 6 -15 10 -34 10 -22 0 -36 6 -40 16 -9 24 -9 24 40 24 42 0 45 1 39
23 -4 12 -10 25 -14 28 -16 16 -48 18 -69 3z m42 -10 c28 -11 18 -34 -14 -34
-32 0 -37 9 -18 28 14 14 12 14 32 6z"/>
<path d="M1831 3394 c0 -11 3 -14 6 -6 3 7 2 16 -1 19 -3 4 -6 -2 -5 -13z"/>
<path d="M0 3340 c0 -7 301 -10 910 -10 581 0 910 4 910 10 0 6 -330 10 -910
10 -609 0 -910 -3 -910 -10z"/>
<path d="M4760 2964 c-77 -33 -120 -96 -129 -189 l-6 -59 -335 -103 -335 -103
-1977 0 c-1759 0 -1978 -1 -1978 -15 0 -13 214 -15 1923 -16 1236 0 1915 -4
1902 -10 -11 -5 -328 -104 -705 -219 l-684 -210 -44 50 c-24 28 -58 58 -76 67
-37 20 -131 22 -166 3 -36 -18 -89 -70 -107 -105 -19 -35 -21 -131 -4 -162 14
-27 67 9 -498 -337 l-435 -266 -25 24 c-85 79 -233 79 -302 0 -68 -78 -70
-207 -4 -284 11 -13 -14 -48 -166 -235 -231 -283 -208 -261 -250 -239 -40 21
-133 23 -169 4 -36 -18 -89 -70 -107 -105 -9 -17 -16 -54 -16 -85 0 -63 17
-101 65 -146 48 -46 76 -57 138 -57 62 0 90 11 138 57 83 77 89 182 17 281
-14 19 -3 35 176 255 106 129 195 236 200 238 4 2 23 -5 41 -14 68 -35 190
-14 239 42 48 55 69 168 41 220 -9 17 -8 24 6 36 9 8 221 140 470 292 438 269
454 277 475 261 12 -8 36 -26 54 -39 58 -43 157 -41 212 3 74 60 21 83 523
-225 249 -152 461 -284 471 -294 15 -14 16 -23 8 -63 -31 -134 62 -250 199
-250 120 0 203 83 203 203 0 120 -83 203 -203 203 -59 0 -108 -19 -151 -60
-23 -21 -30 -23 -48 -13 -26 13 -839 511 -894 546 -33 22 -36 27 -26 46 6 11
12 45 13 74 1 29 4 55 7 58 6 6 1405 436 1419 436 7 0 10 -426 10 -1230 0
-1087 2 -1230 15 -1230 13 0 15 144 15 1235 l0 1234 113 35 c61 19 228 71 370
114 l258 79 14 -26 c33 -65 112 -111 187 -111 74 1 140 42 193 122 9 13 174
-36 1105 -322 l1095 -336 6 -54 c3 -30 9 -66 12 -80 7 -24 -12 -37 -434 -295
-242 -148 -454 -276 -470 -284 -27 -14 -31 -13 -57 12 -104 100 -280 61 -336
-75 -44 -104 9 -228 116 -272 142 -60 304 62 284 213 -3 25 -7 56 -8 68 -3 19
58 60 462 307 l464 286 31 -30 c82 -79 208 -79 290 0 l31 30 469 -289 c378
-232 469 -292 467 -307 -19 -117 -10 -163 41 -221 127 -144 367 -55 367 137 0
184 -223 278 -356 149 l-31 -30 -472 288 c-410 251 -471 291 -465 308 3 11 8
41 11 66 18 156 -149 276 -292 210 -35 -16 -79 -57 -110 -103 -9 -13 -174 36
-1105 322 l-1095 336 -6 59 c-6 68 -24 108 -66 147 -58 56 -151 73 -223 42z
m174 -38 c116 -68 115 -248 -2 -314 -85 -48 -200 -19 -248 64 -33 56 -33 134
0 188 51 84 164 112 250 62z m-2616 -793 c42 -20 77 -66 91 -120 25 -94 -37
-197 -132 -222 -183 -45 -309 177 -177 309 59 59 138 71 218 33z m5220 0 c107
-50 129 -206 42 -293 -132 -132 -354 -5 -309 177 29 115 154 169 267 116z
m-6514 -807 c116 -68 115 -248 -2 -314 -54 -30 -130 -30 -184 0 -117 66 -118
244 -2 314 54 33 132 33 188 0z m2610 0 c116 -68 115 -248 -2 -314 -54 -30
-130 -30 -184 0 -117 66 -118 244 -2 314 54 33 132 33 188 0z m2610 0 c116
-68 115 -248 -2 -314 -54 -30 -130 -30 -184 0 -117 66 -118 244 -2 314 54 33
132 33 188 0z m2610 0 c116 -68 115 -248 -2 -314 -54 -30 -130 -30 -184 0
-117 66 -118 244 -2 314 54 33 132 33 188 0z m-8496 -793 c107 -50 129 -206
42 -293 -132 -132 -354 -5 -309 177 29 115 154 169 267 116z"/>
<path d="M4785 2820 c-16 -18 -16 -20 -3 -15 14 6 17 -2 21 -42 3 -44 4 -43 5
15 1 34 0 62 -1 62 -2 0 -12 -9 -22 -20z"/>
<path d="M4856 2823 c-6 -14 -5 -16 5 -5 7 6 19 12 26 12 17 0 17 -40 1 -40
-7 0 -5 -5 5 -11 9 -5 17 -17 17 -25 0 -21 -27 -29 -47 -13 -14 12 -16 12 -11
-1 6 -20 35 -25 53 -10 16 13 21 50 7 50 -4 0 -8 12 -7 28 0 20 -5 28 -21 30
-13 2 -24 -4 -28 -15z"/>
<path d="M2217 2033 c31 -4 32 -5 19 -26 -8 -12 -17 -38 -20 -57 -5 -31 -5
-32 5 -10 6 14 19 42 29 63 l18 37 -41 -2 c-37 -1 -38 -2 -10 -5z"/>
<path d="M7395 2020 c-16 -18 -16 -20 -3 -15 14 6 17 -2 21 -42 3 -44 4 -43 5
15 1 34 0 62 -1 62 -2 0 -12 -9 -22 -20z"/>
<path d="M7482 2033 c26 -4 26 -5 12 -38 -8 -19 -14 -45 -13 -57 0 -14 6 -5
15 24 8 26 19 50 24 53 22 13 8 25 -27 24 -29 -2 -32 -3 -11 -6z"/>
<path d="M907 1233 c-4 -3 -7 -16 -7 -28 0 -16 6 -21 23 -21 28 1 37 -41 11
-51 -10 -4 -19 -2 -22 5 -2 7 -8 12 -14 12 -6 0 -6 -6 2 -15 30 -36 83 3 60
45 -6 11 -20 20 -31 20 -28 0 -19 23 12 31 l24 7 -26 1 c-14 1 -29 -2 -32 -6z"/>
<path d="M3494 1218 c-10 -12 -13 -18 -6 -14 9 5 12 -5 12 -38 0 -25 5 -46 10
-46 6 0 10 27 10 60 0 33 -2 60 -3 60 -2 0 -12 -10 -23 -22z"/>
<path d="M3565 1218 c-16 -17 -17 -20 -3 -15 14 5 18 -2 21 -41 3 -42 4 -40 5
16 1 34 1 62 0 61 -2 0 -12 -10 -23 -21z"/>
<path d="M6095 1220 c-16 -18 -16 -20 -3 -15 14 6 17 -2 21 -42 3 -44 4 -43 5
15 1 34 0 62 -1 62 -2 0 -12 -9 -22 -20z"/>
<path d="M6170 1226 c0 -8 -3 -21 -6 -30 -4 -11 1 -15 23 -13 22 2 29 -3 31
-21 4 -27 -22 -40 -45 -21 -14 12 -16 12 -11 -1 6 -20 48 -19 61 1 13 21 2 50
-23 56 -27 7 -25 31 3 36 19 4 18 4 -5 6 -18 1 -28 -4 -28 -13z"/>
<path d="M8687 1233 c-4 -3 -7 -11 -7 -17 0 -6 5 -5 12 2 16 16 35 15 42 -3 3
-9 -7 -29 -24 -49 -17 -18 -30 -36 -30 -40 0 -3 17 -5 38 -5 30 2 32 3 9 6
l-28 4 26 30 c14 17 25 36 25 43 0 27 -45 48 -63 29z"/>
<path d="M8795 1220 c-16 -18 -16 -20 -3 -15 14 6 17 -2 21 -42 3 -44 4 -43 5
15 1 34 0 62 -1 62 -2 0 -12 -9 -22 -20z"/>
<path d="M245 430 c-4 -6 -4 -14 -1 -17 3 -4 6 -1 6 5 0 15 27 15 36 0 4 -6
-1 -17 -11 -25 -17 -12 -17 -13 -2 -13 22 0 22 -39 0 -47 -9 -4 -19 -1 -21 5
-2 7 -8 12 -14 12 -6 0 -6 -6 2 -15 7 -8 21 -15 31 -15 22 0 43 35 32 53 -4 6
-8 23 -8 37 0 18 -6 26 -22 28 -11 2 -24 -2 -28 -8z"/>
<path d="M4264 1785 c-22 -58 -28 -85 -19 -85 7 0 15 9 18 20 4 15 14 20 42
20 28 0 38 -5 42 -20 3 -11 12 -20 19 -20 18 0 19 -7 -15 86 -16 43 -35 80
-43 82 -9 2 -24 -26 -44 -83z m66 -12 c0 -7 -12 -13 -26 -13 -20 0 -25 4 -20
16 3 9 9 28 13 42 l6 27 13 -30 c7 -16 13 -36 14 -42z"/>
<path d="M4410 1785 c0 -50 4 -85 10 -85 6 0 10 16 10 35 0 32 2 35 30 35 17
0 30 5 30 10 0 6 -13 10 -30 10 -27 0 -30 3 -30 30 0 27 3 30 30 30 17 0 30 5
30 10 0 6 -18 10 -40 10 l-40 0 0 -85z"/>
<path d="M4510 1860 c0 -5 11 -10 25 -10 24 0 25 -2 25 -75 0 -43 4 -75 10
-75 6 0 10 32 10 75 l0 75 31 0 c17 0 28 4 24 10 -3 6 -33 10 -66 10 -33 0
-59 -4 -59 -10z"/>
<path d="M4660 1785 l0 -85 45 0 c25 0 45 5 45 10 0 6 -16 10 -35 10 -32 0
-35 2 -35 30 0 27 3 30 30 30 17 0 30 5 30 10 0 6 -13 10 -30 10 -25 0 -30 4
-30 25 0 22 4 25 35 25 19 0 35 5 35 10 0 6 -20 10 -45 10 l-45 0 0 -85z"/>
<path d="M4790 1785 c0 -50 4 -85 10 -85 6 0 10 16 10 35 0 29 4 35 21 35 13
0 25 -11 35 -35 8 -19 19 -35 24 -35 13 0 13 4 -5 47 -11 25 -12 40 -5 47 17
17 11 55 -9 66 -11 5 -33 10 -50 10 l-31 0 0 -85z m74 49 c8 -21 -11 -44 -35
-44 -14 0 -19 7 -19 30 0 25 4 30 24 30 13 0 27 -7 30 -16z"/>
</g>
</svg>
