<?xml version="1.0" encoding="UTF-8" standalone="no"?>
<svg
   version="1.2"
   width="159.11mm"
   height="113.00518mm"
   viewBox="0 0 15911 11300.518"
   preserveAspectRatio="xMidYMid"
   fill-rule="evenodd"
   stroke-width="28.222"
   stroke-linejoin="round"
   xml:space="preserve"
   id="svg102"
   sodipodi:docname="Fig8_33_B2_RR.svg"
   inkscape:version="1.4.3 (fcd0343856, 2026-01-01)"
   xmlns:inkscape="http://www.inkscape.org/namespaces/inkscape"
   xmlns:sodipodi="http://sodipodi.sourceforge.net/DTD/sodipodi-0.dtd"
   xmlns="http://www.w3.org/2000/svg"
   xmlns:svg="http://www.w3.org/2000/svg"
   xmlns:ooo="http://xml.openoffice.org/svg/export"><sodipodi:namedview
   id="namedview102"
   pagecolor="#505050"
   bordercolor="#eeeeee"
   borderopacity="1"
   inkscape:showpageshadow="0"
   inkscape:pageopacity="0"
   inkscape:pagecheckerboard="0"
   inkscape:deskcolor="#505050"
   inkscape:document-units="mm"
   inkscape:zoom="0.82314815"
   inkscape:cx="314.03824"
   inkscape:cy="404.54443"
   inkscape:window-width="1920"
   inkscape:window-height="1152"
   inkscape:window-x="0"
   inkscape:window-y="25"
   inkscape:window-maximized="1"
   inkscape:current-layer="svg102" />
 <defs
   class="ClipPathGroup"
   id="defs2">
  <clipPath
   id="presentation_clip_path"
   clipPathUnits="userSpaceOnUse">
   <rect
   x="0"
   y="0"
   width="21000"
   height="29700"
   id="rect1" />
  </clipPath>
  <clipPath
   id="presentation_clip_path_shrink"
   clipPathUnits="userSpaceOnUse">
   <rect
   x="21"
   y="29"
   width="20958"
   height="29641"
   id="rect2" />
  </clipPath>
 </defs>
 <defs
   id="defs35">
  <font
   id="EmbeddedFont_1"
   horiz-adv-x="2048"
   horiz-origin-x="0"
   horiz-origin-y="0"
   vert-origin-x="512"
   vert-origin-y="768"
   vert-adv-y="1024">
   <font-face
   font-family="Liberation Sans embedded"
   units-per-em="2048"
   font-weight="normal"
   font-style="normal"
   ascent="1852"
   descent="423"
   id="font-face2" />
   <missing-glyph
   horiz-adv-x="2048"
   d="M 0,0 L 2047,0 2047,2047 0,2047 0,0 Z"
   id="missing-glyph2" />
   <glyph
   unicode="}"
   horiz-adv-x="612"
   d="M 94,-296 C 155,-296 198,-278 225,-242 251,-205 264,-152 264,-81 L 264,276 C 264,341 281,397 316,442 351,487 398,517 457,530 L 457,532 C 400,545 353,575 318,620 282,665 264,719 264,784 L 264,1140 C 264,1212 251,1266 225,1302 198,1337 155,1355 94,1355 L 34,1355 34,1484 166,1484 C 253,1484 319,1459 364,1408 408,1357 430,1285 430,1191 L 430,829 C 430,752 448,694 483,655 518,616 573,596 647,593 L 647,466 C 572,463 518,443 483,404 448,365 430,307 430,229 L 430,-132 C 430,-224 407,-296 362,-348 316,-399 251,-425 166,-425 L 34,-425 34,-296 94,-296 Z"
   id="glyph2" />
   <glyph
   unicode="{"
   horiz-adv-x="613"
   d="M 513,-425 C 428,-425 363,-399 318,-348 272,-297 249,-225 249,-132 L 249,229 C 249,307 232,365 197,404 162,442 107,463 34,466 L 34,593 C 107,596 161,616 196,655 231,693 249,751 249,829 L 249,1191 C 249,1285 271,1357 316,1408 360,1459 426,1484 513,1484 L 648,1484 648,1355 585,1355 C 524,1355 481,1337 456,1302 430,1266 417,1212 417,1140 L 417,784 C 417,721 399,667 364,622 329,576 282,546 223,532 L 223,530 C 282,516 330,486 365,441 400,396 417,341 417,276 L 417,-81 C 417,-152 430,-205 456,-242 481,-278 524,-296 585,-296 L 648,-296 648,-425 513,-425 Z"
   id="glyph3" />
   <glyph
   unicode="z"
   horiz-adv-x="837"
   d="M 83,0 L 83,137 688,943 117,943 117,1082 901,1082 901,945 295,139 922,139 922,0 83,0 Z"
   id="glyph4" />
   <glyph
   unicode="x"
   horiz-adv-x="976"
   d="M 801,0 L 510,444 217,0 23,0 408,556 41,1082 240,1082 510,661 778,1082 979,1082 612,558 1002,0 801,0 Z"
   id="glyph5" />
   <glyph
   unicode="u"
   horiz-adv-x="867"
   d="M 314,1082 L 314,396 C 314,325 321,269 335,230 349,191 371,162 402,145 433,128 478,119 537,119 624,119 692,149 742,208 792,267 817,350 817,455 L 817,1082 997,1082 997,231 C 997,105 999,28 1003,0 L 833,0 C 832,3 832,12 831,27 830,42 830,59 829,78 828,97 826,132 825,185 L 822,185 C 781,110 733,58 679,27 624,-4 557,-20 476,-20 357,-20 271,10 216,69 161,128 133,225 133,361 L 133,1082 314,1082 Z"
   id="glyph6" />
   <glyph
   unicode="t"
   horiz-adv-x="523"
   d="M 554,8 C 495,-8 434,-16 372,-16 228,-16 156,66 156,229 L 156,951 31,951 31,1082 163,1082 216,1324 336,1324 336,1082 536,1082 536,951 336,951 336,268 C 336,216 345,180 362,159 379,138 408,127 450,127 474,127 509,132 554,141 L 554,8 Z"
   id="glyph7" />
   <glyph
   unicode="s"
   horiz-adv-x="891"
   d="M 950,299 C 950,197 912,118 835,63 758,8 650,-20 511,-20 376,-20 273,2 200,47 127,91 79,160 57,254 L 216,285 C 231,227 263,185 311,158 359,131 426,117 511,117 602,117 669,131 712,159 754,187 775,229 775,285 775,328 760,362 731,389 702,416 654,438 589,455 L 460,489 C 357,516 283,542 240,568 196,593 162,624 137,661 112,698 100,743 100,796 100,895 135,970 206,1022 276,1073 378,1099 513,1099 632,1099 727,1078 798,1036 868,994 912,927 931,834 L 769,814 C 759,862 732,899 689,925 645,950 586,963 513,963 432,963 372,951 333,926 294,901 275,864 275,814 275,783 283,758 299,738 315,718 339,701 370,687 401,673 467,654 568,629 663,605 732,583 774,563 816,542 849,520 874,495 898,470 917,442 930,410 943,377 950,340 950,299 Z"
   id="glyph8" />
   <glyph
   unicode="r"
   horiz-adv-x="511"
   d="M 142,0 L 142,830 C 142,906 140,990 136,1082 L 306,1082 C 311,959 314,886 314,861 L 318,861 C 347,954 380,1017 417,1051 454,1085 507,1102 575,1102 599,1102 623,1099 648,1092 L 648,927 C 624,934 592,937 552,937 477,937 420,905 381,841 342,776 322,684 322,564 L 322,0 142,0 Z"
   id="glyph9" />
   <glyph
   unicode="p"
   horiz-adv-x="918"
   d="M 1053,546 C 1053,169 920,-20 655,-20 488,-20 376,43 319,168 L 314,168 C 317,163 318,106 318,-2 L 318,-425 138,-425 138,861 C 138,972 136,1046 132,1082 L 306,1082 C 307,1079 308,1070 309,1054 310,1037 312,1012 314,978 315,944 316,921 316,908 L 320,908 C 352,975 394,1024 447,1055 500,1086 569,1101 655,1101 788,1101 888,1056 954,967 1020,878 1053,737 1053,546 Z M 864,542 C 864,693 844,800 803,865 762,930 698,962 609,962 538,962 482,947 442,917 401,887 371,840 350,777 329,713 318,630 318,528 318,386 341,281 386,214 431,147 505,113 607,113 696,113 762,146 803,212 844,277 864,387 864,542 Z"
   id="glyph10" />
   <glyph
   unicode="o"
   horiz-adv-x="964"
   d="M 1053,542 C 1053,353 1011,212 928,119 845,26 724,-20 565,-20 407,-20 288,28 207,125 126,221 86,360 86,542 86,915 248,1102 571,1102 736,1102 858,1057 936,966 1014,875 1053,733 1053,542 Z M 864,542 C 864,691 842,800 798,868 753,935 679,969 574,969 469,969 393,935 346,866 299,797 275,689 275,542 275,399 298,292 345,221 391,149 464,113 563,113 671,113 748,148 795,217 841,286 864,395 864,542 Z"
   id="glyph11" />
   <glyph
   unicode="l"
   horiz-adv-x="181"
   d="M 138,0 L 138,1484 318,1484 318,0 138,0 Z"
   id="glyph12" />
   <glyph
   unicode="i"
   horiz-adv-x="181"
   d="M 137,1312 L 137,1484 317,1484 317,1312 137,1312 Z M 137,0 L 137,1082 317,1082 317,0 137,0 Z"
   id="glyph13" />
   <glyph
   unicode="g"
   horiz-adv-x="918"
   d="M 548,-425 C 430,-425 336,-402 266,-356 196,-309 151,-243 131,-158 L 312,-132 C 324,-182 351,-220 392,-248 433,-274 486,-288 553,-288 732,-288 822,-183 822,27 L 822,201 820,201 C 786,132 739,80 680,45 621,10 551,-8 472,-8 339,-8 242,36 180,124 117,212 86,350 86,539 86,730 120,872 187,963 254,1054 355,1099 492,1099 569,1099 635,1082 692,1047 748,1012 791,962 822,897 L 824,897 C 824,917 825,952 828,1001 831,1050 833,1077 836,1082 L 1007,1082 C 1003,1046 1001,971 1001,858 L 1001,31 C 1001,-273 850,-425 548,-425 Z M 822,541 C 822,629 810,705 786,769 762,832 728,881 685,915 641,948 591,965 536,965 444,965 377,932 335,865 293,798 272,690 272,541 272,393 292,287 331,222 370,157 438,125 533,125 590,125 640,142 684,175 728,208 762,256 786,319 810,381 822,455 822,541 Z"
   id="glyph14" />
   <glyph
   unicode="e"
   horiz-adv-x="958"
   d="M 276,503 C 276,379 302,283 353,216 404,149 479,115 578,115 656,115 719,131 766,162 813,193 844,233 861,281 L 1019,236 C 954,65 807,-20 578,-20 418,-20 296,28 213,123 129,218 87,360 87,548 87,727 129,864 213,959 296,1054 416,1102 571,1102 889,1102 1048,910 1048,527 L 1048,503 276,503 Z M 862,641 C 852,755 823,838 775,891 727,943 658,969 568,969 481,969 412,940 361,882 310,823 282,743 278,641 L 862,641 Z"
   id="glyph15" />
   <glyph
   unicode="c"
   horiz-adv-x="880"
   d="M 275,546 C 275,402 298,295 343,226 388,157 457,122 548,122 612,122 666,139 709,174 752,209 778,262 788,334 L 970,322 C 956,218 912,135 837,73 762,11 668,-20 553,-20 402,-20 286,28 207,124 127,219 87,359 87,542 87,724 127,863 207,959 287,1054 402,1102 551,1102 662,1102 754,1073 827,1016 900,959 945,880 964,779 L 779,765 C 770,825 746,873 708,908 670,943 616,961 546,961 451,961 382,929 339,866 296,803 275,696 275,546 Z"
   id="glyph16" />
   <glyph
   unicode="a"
   horiz-adv-x="1049"
   d="M 414,-20 C 305,-20 224,9 169,66 114,123 87,202 87,302 87,414 124,500 198,560 271,620 390,652 554,656 L 797,660 797,719 C 797,807 778,870 741,908 704,946 645,965 565,965 484,965 426,951 389,924 352,897 330,853 323,793 L 135,810 C 166,1005 310,1102 569,1102 705,1102 807,1071 876,1009 945,946 979,856 979,738 L 979,272 C 979,219 986,179 1000,152 1014,125 1041,111 1080,111 1097,111 1117,113 1139,118 L 1139,6 C 1094,-5 1047,-10 1000,-10 933,-10 885,8 855,43 824,78 807,132 803,207 L 797,207 C 751,124 698,66 637,32 576,-3 501,-20 414,-20 Z M 455,115 C 521,115 580,130 631,160 682,190 723,231 753,284 782,336 797,390 797,445 L 797,534 600,530 C 515,529 451,520 408,504 364,488 330,463 307,430 284,397 272,353 272,299 272,240 288,195 320,163 351,131 396,115 455,115 Z"
   id="glyph17" />
   <glyph
   unicode="`"
   horiz-adv-x="424"
   d="M 436,1201 L 106,1479 106,1508 313,1508 530,1221 530,1201 436,1201 Z"
   id="glyph18" />
   <glyph
   unicode="U"
   horiz-adv-x="1159"
   d="M 731,-20 C 616,-20 515,1 429,43 343,85 276,146 229,226 182,306 158,401 158,512 L 158,1409 349,1409 349,528 C 349,399 382,302 447,235 512,168 607,135 730,135 857,135 955,170 1026,239 1096,308 1131,408 1131,541 L 1131,1409 1321,1409 1321,530 C 1321,416 1297,318 1249,235 1200,152 1132,89 1044,46 955,2 851,-20 731,-20 Z"
   id="glyph19" />
   <glyph
   unicode="R"
   horiz-adv-x="1211"
   d="M 1164,0 L 798,585 359,585 359,0 168,0 168,1409 831,1409 C 990,1409 1112,1374 1199,1303 1285,1232 1328,1133 1328,1006 1328,901 1298,813 1237,742 1176,671 1091,626 984,607 L 1384,0 1164,0 Z M 1136,1004 C 1136,1086 1108,1149 1053,1192 997,1235 917,1256 812,1256 L 359,1256 359,736 820,736 C 921,736 999,760 1054,807 1109,854 1136,919 1136,1004 Z"
   id="glyph20" />
   <glyph
   unicode="P"
   horiz-adv-x="1086"
   d="M 1258,985 C 1258,852 1215,746 1128,667 1041,588 922,549 773,549 L 359,549 359,0 168,0 168,1409 761,1409 C 919,1409 1041,1372 1128,1298 1215,1224 1258,1120 1258,985 Z M 1066,983 C 1066,1165 957,1256 738,1256 L 359,1256 359,700 746,700 C 959,700 1066,794 1066,983 Z"
   id="glyph21" />
   <glyph
   unicode="G"
   horiz-adv-x="1332"
   d="M 103,711 C 103,940 164,1117 287,1242 410,1367 582,1430 804,1430 960,1430 1087,1404 1184,1351 1281,1298 1356,1214 1409,1098 L 1227,1044 C 1187,1124 1132,1182 1062,1219 991,1256 904,1274 799,1274 636,1274 512,1225 426,1127 340,1028 297,890 297,711 297,533 343,393 434,290 525,187 652,135 813,135 905,135 991,149 1071,177 1150,205 1215,243 1264,291 L 1264,545 843,545 843,705 1440,705 1440,219 C 1365,143 1274,84 1166,43 1057,1 940,-20 813,-20 666,-20 539,9 432,68 325,127 244,211 188,322 131,432 103,562 103,711 Z"
   id="glyph22" />
   <glyph
   unicode="D"
   horiz-adv-x="1208"
   d="M 1381,719 C 1381,574 1353,447 1296,338 1239,229 1159,145 1055,87 951,29 831,0 695,0 L 168,0 168,1409 634,1409 C 873,1409 1057,1349 1187,1230 1316,1110 1381,940 1381,719 Z M 1189,719 C 1189,894 1141,1027 1046,1119 950,1210 811,1256 630,1256 L 359,1256 359,153 673,153 C 776,153 867,176 946,221 1024,266 1084,332 1126,417 1168,502 1189,603 1189,719 Z"
   id="glyph23" />
   <glyph
   unicode="C"
   horiz-adv-x="1292"
   d="M 792,1274 C 636,1274 515,1224 428,1124 341,1023 298,886 298,711 298,538 343,400 434,295 524,190 646,137 800,137 997,137 1146,235 1245,430 L 1401,352 C 1343,231 1262,138 1157,75 1052,12 930,-20 791,-20 649,-20 526,10 423,69 319,128 240,212 186,322 131,431 104,561 104,711 104,936 165,1112 286,1239 407,1366 575,1430 790,1430 940,1430 1065,1401 1166,1342 1267,1283 1341,1196 1388,1081 L 1207,1021 C 1174,1103 1122,1166 1050,1209 977,1252 891,1274 792,1274 Z"
   id="glyph24" />
   <glyph
   unicode="B"
   horiz-adv-x="1086"
   d="M 1258,397 C 1258,272 1212,174 1121,105 1030,35 903,0 740,0 L 168,0 168,1409 680,1409 C 1011,1409 1176,1295 1176,1067 1176,984 1153,914 1106,857 1059,800 993,762 908,743 1020,730 1106,692 1167,631 1228,569 1258,491 1258,397 Z M 984,1044 C 984,1120 958,1174 906,1207 854,1240 779,1256 680,1256 L 359,1256 359,810 680,810 C 782,810 858,829 909,868 959,906 984,965 984,1044 Z M 1065,412 C 1065,578 948,661 715,661 L 359,661 359,153 730,153 C 847,153 932,175 985,218 1038,261 1065,326 1065,412 Z"
   id="glyph25" />
   <glyph
   unicode="&gt;"
   horiz-adv-x="992"
   d="M 101,154 L 101,307 959,674 101,1040 101,1194 1096,776 1096,571 101,154 Z"
   id="glyph26" />
   <glyph
   unicode="&lt;"
   horiz-adv-x="992"
   d="M 101,571 L 101,776 1096,1194 1096,1040 238,674 1096,307 1096,154 101,571 Z"
   id="glyph27" />
   <glyph
   unicode=";"
   horiz-adv-x="201"
   d="M 385,207 L 385,51 C 385,-20 379,-79 366,-126 353,-173 334,-219 307,-262 L 184,-262 C 247,-171 278,-84 278,0 L 190,0 190,207 385,207 Z M 190,875 L 190,1082 385,1082 385,875 190,875 Z"
   id="glyph28" />
   <glyph
   unicode=":"
   horiz-adv-x="196"
   d="M 187,875 L 187,1082 382,1082 382,875 187,875 Z M 187,0 L 187,207 382,207 382,0 187,0 Z"
   id="glyph29" />
   <glyph
   unicode="2"
   horiz-adv-x="930"
   d="M 103,0 L 103,127 C 137,205 179,274 228,334 277,393 328,447 382,496 436,544 490,589 543,630 596,671 643,713 686,754 729,795 763,839 790,884 816,929 829,981 829,1038 829,1115 806,1175 761,1218 716,1261 653,1282 572,1282 495,1282 432,1261 383,1220 333,1178 304,1119 295,1044 L 111,1061 C 124,1174 172,1263 255,1330 337,1397 443,1430 572,1430 714,1430 823,1397 900,1330 976,1263 1014,1167 1014,1044 1014,989 1002,935 977,881 952,827 914,773 865,719 816,665 721,581 582,468 505,405 444,349 399,299 354,248 321,200 301,153 L 1036,153 1036,0 103,0 Z"
   id="glyph30" />
   <glyph
   unicode="-"
   horiz-adv-x="499"
   d="M 91,464 L 91,624 591,624 591,464 91,464 Z"
   id="glyph31" />
   <glyph
   unicode=","
   horiz-adv-x="201"
   d="M 385,219 L 385,51 C 385,-20 379,-79 366,-126 353,-173 334,-219 307,-262 L 184,-262 C 247,-171 278,-84 278,0 L 190,0 190,219 385,219 Z"
   id="glyph32" />
   <glyph
   unicode=")"
   horiz-adv-x="543"
   d="M 555,528 C 555,335 525,162 465,9 404,-144 311,-289 186,-424 L 12,-424 C 137,-284 229,-136 287,19 345,174 374,344 374,530 374,716 345,887 287,1042 228,1197 137,1345 12,1484 L 186,1484 C 312,1348 405,1203 465,1050 525,896 555,723 555,532 L 555,528 Z"
   id="glyph33" />
   <glyph
   unicode="("
   horiz-adv-x="542"
   d="M 127,532 C 127,725 157,898 218,1051 278,1204 371,1349 496,1484 L 670,1484 C 545,1345 454,1198 396,1042 337,886 308,715 308,530 308,345 337,175 395,20 452,-135 544,-283 670,-424 L 496,-424 C 370,-288 277,-143 217,11 157,164 127,337 127,528 L 127,532 Z"
   id="glyph34" />
   <glyph
   unicode=" "
   horiz-adv-x="556"
   id="glyph35" />
  </font>
 </defs>
 <defs
   class="TextShapeIndex"
   id="defs36">
  <g
   ooo:slide="id1"
   ooo:id-list="id3 id4 id5 id6 id7 id8 id9 id10 id11 id12 id13 id14 id15 id16 id17 id18 id19 id20 id21 id22 id23 id24 id25 id26 id27 id28 id29"
   id="g35" />
 </defs>
 <defs
   class="EmbeddedBulletChars"
   id="defs45">
  <g
   id="bullet-char-template-57356"
   transform="matrix(4.8828125e-4,0,0,-4.8828125e-4,0,0)">
   <path
   d="M 580,1141 1163,571 580,0 -4,571 Z"
   id="path36" />
  </g>
  <g
   id="bullet-char-template-57354"
   transform="matrix(4.8828125e-4,0,0,-4.8828125e-4,0,0)">
   <path
   d="M 8,1128 H 1137 V 0 H 8 Z"
   id="path37" />
  </g>
  <g
   id="bullet-char-template-10146"
   transform="matrix(4.8828125e-4,0,0,-4.8828125e-4,0,0)">
   <path
   d="M 174,0 602,739 174,1481 1456,739 Z M 1358,739 309,1346 659,739 Z"
   id="path38" />
  </g>
  <g
   id="bullet-char-template-10132"
   transform="matrix(4.8828125e-4,0,0,-4.8828125e-4,0,0)">
   <path
   d="M 2015,739 1276,0 H 717 l 543,543 H 174 v 393 h 1086 l -543,545 h 557 z"
   id="path39" />
  </g>
  <g
   id="bullet-char-template-10007"
   transform="matrix(4.8828125e-4,0,0,-4.8828125e-4,0,0)">
   <path
   d="m 0,-2 c -7,16 -16,29 -25,39 l 381,530 c -94,256 -141,385 -141,387 0,25 13,38 40,38 9,0 21,-2 34,-5 21,4 42,12 65,25 l 27,-13 111,-251 280,301 64,-25 24,25 c 21,-10 41,-24 62,-43 C 886,937 835,863 770,784 769,783 710,716 594,584 L 774,223 c 0,-27 -21,-55 -63,-84 l 16,-20 C 717,90 699,76 672,76 641,76 570,178 457,381 L 164,-76 c -22,-34 -53,-51 -92,-51 -42,0 -63,17 -64,51 -7,9 -10,24 -10,44 0,9 1,19 2,30 z"
   id="path40" />
  </g>
  <g
   id="bullet-char-template-10004"
   transform="matrix(4.8828125e-4,0,0,-4.8828125e-4,0,0)">
   <path
   d="M 285,-33 C 182,-33 111,30 74,156 52,228 41,333 41,471 c 0,78 14,145 41,201 34,71 87,106 158,106 53,0 88,-31 106,-94 l 23,-176 c 8,-64 28,-97 59,-98 l 735,706 c 11,11 33,17 66,17 42,0 63,-15 63,-46 V 965 c 0,-36 -10,-64 -30,-84 L 442,47 C 390,-6 338,-33 285,-33 Z"
   id="path41" />
  </g>
  <g
   id="bullet-char-template-9679"
   transform="matrix(4.8828125e-4,0,0,-4.8828125e-4,0,0)">
   <path
   d="M 813,0 C 632,0 489,54 383,161 276,268 223,411 223,592 c 0,181 53,324 160,431 106,107 249,161 430,161 179,0 323,-54 432,-161 108,-107 162,-251 162,-431 0,-180 -54,-324 -162,-431 C 1136,54 992,0 813,0 Z"
   id="path42" />
  </g>
  <g
   id="bullet-char-template-8226"
   transform="matrix(4.8828125e-4,0,0,-4.8828125e-4,0,0)">
   <path
   d="m 346,457 c -73,0 -137,26 -191,78 -54,51 -81,114 -81,188 0,73 27,136 81,188 54,52 118,78 191,78 73,0 134,-26 185,-79 51,-51 77,-114 77,-187 0,-75 -25,-137 -76,-188 -50,-52 -112,-78 -186,-78 z"
   id="path43" />
  </g>
  <g
   id="bullet-char-template-8211"
   transform="matrix(4.8828125e-4,0,0,-4.8828125e-4,0,0)">
   <path
   d="M -4,459 H 1135 V 606 H -4 Z"
   id="path44" />
  </g>
  <g
   id="bullet-char-template-61548"
   transform="matrix(4.8828125e-4,0,0,-4.8828125e-4,0,0)">
   <path
   d="m 173,740 c 0,163 58,303 173,419 116,115 255,173 419,173 163,0 302,-58 418,-173 116,-116 174,-256 174,-419 0,-163 -58,-303 -174,-418 C 1067,206 928,148 765,148 601,148 462,206 346,322 231,437 173,577 173,740 Z"
   id="path45" />
  </g>
 </defs>
 <g
   id="g45"
   transform="translate(-2198.4286,-4138.4286)">
  <g
   id="id2"
   class="Master_Slide">
   <g
   id="bg-id2"
   class="Background" />
   <g
   id="bo-id2"
   class="BackgroundObjects" />
  </g>
 </g>
 <g
   class="SlideGroup"
   id="g102"
   transform="translate(-2552,-4492)">
  <g
   id="g101">
   <g
   id="container-id1">
    <g
   id="id1"
   class="Slide"
   clip-path="url(#presentation_clip_path)">
     <g
   class="Page"
   id="g100">
      <g
   class="com.sun.star.drawing.LineShape"
   id="g46">
       <g
   id="id3">
        <rect
   class="BoundingBox"
   stroke="none"
   fill="none"
   x="5254"
   y="9282"
   width="841"
   height="916"
   id="rect45" />
        <path
   fill="none"
   stroke="#000000"
   stroke-width="102"
   stroke-linejoin="round"
   d="m 6043,9333 -738,813"
   id="path46"
   style="stroke:#fdfdfd;stroke-opacity:1" />
       </g>
      </g>
      <g
   class="com.sun.star.drawing.LineShape"
   id="g47">
       <g
   id="id4">
        <rect
   class="BoundingBox"
   stroke="none"
   fill="none"
   x="6481"
   y="9297"
   width="934"
   height="1029"
   id="rect46" />
        <path
   fill="none"
   stroke="#000000"
   stroke-width="102"
   stroke-linejoin="round"
   d="m 6532,9348 831,926"
   id="path47"
   style="stroke:#fcfafb;stroke-width:112;stroke-dasharray:none;stroke-opacity:1" />
       </g>
      </g>
      <g
   class="com.sun.star.drawing.CustomShape"
   id="g49">
       <g
   id="id5">
        <rect
   class="BoundingBox"
   stroke="none"
   fill="none"
   x="5700"
   y="8409"
   width="1196"
   height="1195"
   id="rect47" />
        
        <path
   fill="none"
   stroke="#000000"
   d="m 6894,9006 c 0,105 -28,207 -80,298 -52,91 -128,166 -218,218 -91,52 -194,80 -298,80 -105,0 -208,-28 -299,-80 -90,-52 -166,-127 -218,-218 -52,-91 -80,-193 -80,-298 0,-105 28,-207 80,-298 52,-91 128,-166 218,-218 91,-52 194,-80 299,-80 104,0 207,28 298,80 90,52 166,127 218,218 52,91 80,193 80,298 z"
   id="path49" />
       </g>
      </g>
      <g
   class="com.sun.star.drawing.CustomShape"
   id="g51">
       <g
   id="id6">
        <rect
   class="BoundingBox"
   stroke="none"
   fill="none"
   x="4326"
   y="9971"
   width="1194"
   height="1195"
   id="rect49" />
        
        
       </g>
      </g>
      <g
   class="com.sun.star.drawing.CustomShape"
   id="g53">
       <g
   id="id7">
        <rect
   class="BoundingBox"
   stroke="none"
   fill="none"
   x="6950"
   y="9909"
   width="1196"
   height="1195"
   id="rect51" />
        
        <path
   fill="none"
   stroke="#ff0000"
   d="m 8144,10506 c 0,105 -28,207 -80,298 -52,91 -128,166 -218,218 -91,52 -194,80 -298,80 -105,0 -208,-28 -299,-80 -90,-52 -166,-127 -218,-218 -52,-91 -80,-193 -80,-298 0,-105 28,-207 80,-298 52,-91 128,-166 218,-218 91,-52 194,-80 299,-80 104,0 207,28 298,80 90,52 166,127 218,218 52,91 80,193 80,298 z"
   id="path53" />
       </g>
      </g>
      <g
   class="TextShape"
   id="g55">
       <g
   id="id8">
        <rect
   class="BoundingBox"
   stroke="none"
   fill="none"
   x="4738"
   y="8144"
   width="863"
   height="1196"
   id="rect53" />
        
       </g>
      </g>
      <g
   class="TextShape"
   id="g58">
       <g
   id="id9">
        <rect
   class="BoundingBox"
   stroke="none"
   fill="none"
   x="3422"
   y="9427"
   width="862"
   height="1482"
   id="rect55" />
        
       </g>
      </g>
      <g
   class="TextShape"
   id="g61">
       <g
   id="id10">
        <rect
   class="BoundingBox"
   stroke="none"
   fill="none"
   x="7332"
   y="11552"
   width="1042"
   height="1196"
   id="rect58" />
        
       </g>
      </g>
      <g
   class="TextShape"
   id="g64">
       <g
   id="id11">
        <rect
   class="BoundingBox"
   stroke="none"
   fill="none"
   x="8267"
   y="9815"
   width="1379"
   height="1518"
   id="rect61" />
        
       </g>
      </g>
      <g
   class="com.sun.star.drawing.LineShape"
   id="g65">
       <g
   id="id12">
        <rect
   class="BoundingBox"
   stroke="none"
   fill="none"
   x="14155"
   y="9283"
   width="841"
   height="916"
   id="rect64" />
        <path
   fill="none"
   stroke="#000000"
   stroke-width="102"
   stroke-linejoin="round"
   d="m 14944,9334 -738,813"
   id="path64"
   style="stroke:#fffdfb;stroke-opacity:1" />
       </g>
      </g>
      <g
   class="com.sun.star.drawing.LineShape"
   id="g66">
       <g
   id="id13">
        <rect
   class="BoundingBox"
   stroke="none"
   fill="none"
   x="15382"
   y="9298"
   width="934"
   height="1029"
   id="rect65" />
        <path
   fill="none"
   stroke="#000000"
   stroke-width="102"
   stroke-linejoin="round"
   d="m 15433,9349 831,926"
   id="path65"
   style="stroke:#fdfefe;stroke-opacity:1" />
       </g>
      </g>
      <g
   class="com.sun.star.drawing.CustomShape"
   id="g67">
       <g
   id="id14">
        <rect
   class="BoundingBox"
   stroke="none"
   fill="none"
   x="14601"
   y="8410"
   width="1196"
   height="1195"
   id="rect66" />
        
        <path
   fill="none"
   stroke="#000000"
   d="m 15795,9007 c 0,105 -28,207 -80,298 -52,91 -128,166 -218,218 -91,52 -194,80 -298,80 -105,0 -208,-28 -299,-80 -90,-52 -166,-127 -218,-218 -52,-91 -80,-193 -80,-298 0,-105 28,-207 80,-298 52,-91 128,-166 218,-218 91,-52 194,-80 299,-80 104,0 207,28 298,80 90,52 166,127 218,218 52,91 80,193 80,298 z"
   id="path67" />
       </g>
      </g>
      <g
   class="TextShape"
   id="g69">
       <g
   id="id15">
        <rect
   class="BoundingBox"
   stroke="none"
   fill="none"
   x="12094"
   y="9647"
   width="1607"
   height="1196"
   id="rect67" />
        
       </g>
      </g>
      <g
   class="TextShape"
   id="g72">
       <g
   id="id16">
        <rect
   class="BoundingBox"
   stroke="none"
   fill="none"
   x="13430"
   y="8232"
   width="1455"
   height="1196"
   id="rect69" />
        
       </g>
      </g>
      <g
   class="TextShape"
   id="g75">
       <g
   id="id17">
        <rect
   class="BoundingBox"
   stroke="none"
   fill="none"
   x="17192"
   y="9890"
   width="1271"
   height="2140"
   id="rect72" />
        
       </g>
      </g>
      <g
   class="TextShape"
   id="g78">
       <g
   id="id18">
        <rect
   class="BoundingBox"
   stroke="none"
   fill="none"
   x="10842"
   y="11477"
   width="1589"
   height="1588"
   id="rect75" />
        
       </g>
      </g>
      <g
   class="com.sun.star.drawing.CustomShape"
   id="g79">
       <g
   id="id19">
        <rect
   class="BoundingBox"
   stroke="none"
   fill="none"
   x="11872"
   y="11554"
   width="1195"
   height="1195"
   id="rect78" />
        
        <path
   fill="none"
   stroke="#000000"
   d="m 13065,12151 c 0,105 -28,207 -80,298 -52,91 -127,166 -218,218 -91,52 -193,80 -298,80 -105,0 -207,-28 -298,-80 -91,-52 -166,-127 -218,-218 -52,-91 -80,-193 -80,-298 0,-105 28,-207 80,-298 52,-91 127,-166 218,-218 91,-52 193,-80 298,-80 105,0 207,28 298,80 91,52 166,127 218,218 52,91 80,193 80,298 z"
   id="path79" />
       </g>
      </g>
      <g
   class="com.sun.star.drawing.CustomShape"
   id="g81">
       <g
   id="id20">
        <rect
   class="BoundingBox"
   stroke="none"
   fill="none"
   x="7776"
   y="8400"
   width="1688"
   height="1688"
   id="rect79" />
        
        
       </g>
      </g>
      <g
   class="TextShape"
   id="g86">
       <g
   id="id21">
        <rect
   class="BoundingBox"
   stroke="none"
   fill="none"
   x="2552"
   y="13000"
   width="11149"
   height="1971"
   id="rect81" />
        
       </g>
      </g>
      <g
   class="com.sun.star.drawing.CustomShape"
   id="g87">
       <g
   id="id22">
        <rect
   class="BoundingBox"
   stroke="none"
   fill="none"
   x="8810"
   y="6395"
   width="3933"
   height="1428"
   id="rect86" />
        <path
   fill="#729fcf"
   stroke="none"
   d="m 10106,7349 1,-24 3,-24 6,-24 8,-24 9,-24 12,-23 15,-23 16,-23 18,-22 20,-21 22,-21 24,-21 26,-19 28,-19 29,-19 31,-17 33,-16 34,-16 35,-15 37,-13 37,-13 39,-11 40,-11 41,-9 42,-9 42,-7 43,-6 44,-5 43,-3 45,-3 44,-1 h 44 l 44,1 45,3 43,3 44,5 43,6 42,7 42,9 41,9 40,11 38,11 38,13 37,13 35,15 34,16 33,16 31,17 29,19 28,19 26,19 24,21 22,21 20,21 18,22 16,23 15,23 12,23 9,24 8,24 6,24 3,24 1,24 h 857 l -2,-48 -7,-47 -11,-47 -15,-47 -19,-46 -24,-46 -27,-45 -32,-44 -36,-43 -40,-43 -43,-41 -48,-40 -50,-38 -55,-38 -57,-35 -61,-34 -64,-33 -67,-30 -69,-29 -72,-27 -75,-24 -76,-23 -78,-21 -81,-18 -82,-16 -83,-14 -84,-12 -86,-10 -86,-7 -86,-4 -87,-3 h -88 l -87,3 -86,4 -86,7 -86,10 -84,12 -83,14 -82,16 -81,18 -78,21 -77,23 -74,24 -72,27 -69,29 -67,30 -64,33 -61,34 -57,35 -55,38 -50,38 -48,40 -43,41 -40,43 -36,43 -32,44 -27,45 -24,46 -19,46 -15,47 -11,47 -7,47 -2,48 h -436 l 865,472 866,-472 z"
   id="path86" />
        <path
   fill="none"
   stroke="#3465a4"
   d="m 10106,7349 1,-24 3,-24 6,-24 8,-24 9,-24 12,-23 15,-23 16,-23 18,-22 20,-21 22,-21 24,-21 26,-19 28,-19 29,-19 31,-17 33,-16 34,-16 35,-15 37,-13 37,-13 39,-11 40,-11 41,-9 42,-9 42,-7 43,-6 44,-5 43,-3 45,-3 44,-1 h 44 l 44,1 45,3 43,3 44,5 43,6 42,7 42,9 41,9 40,11 38,11 38,13 37,13 35,15 34,16 33,16 31,17 29,19 28,19 26,19 24,21 22,21 20,21 18,22 16,23 15,23 12,23 9,24 8,24 6,24 3,24 1,24 h 857 l -2,-48 -7,-47 -11,-47 -15,-47 -19,-46 -24,-46 -27,-45 -32,-44 -36,-43 -40,-43 -43,-41 -48,-40 -50,-38 -55,-38 -57,-35 -61,-34 -64,-33 -67,-30 -69,-29 -72,-27 -75,-24 -76,-23 -78,-21 -81,-18 -82,-16 -83,-14 -84,-12 -86,-10 -86,-7 -86,-4 -87,-3 h -88 l -87,3 -86,4 -86,7 -86,10 -84,12 -83,14 -82,16 -81,18 -78,21 -77,23 -74,24 -72,27 -69,29 -67,30 -64,33 -61,34 -57,35 -55,38 -50,38 -48,40 -43,41 -40,43 -36,43 -32,44 -27,45 -24,46 -19,46 -15,47 -11,47 -7,47 -2,48 h -436 l 865,472 866,-472 z"
   id="path87" />
       </g>
      </g>
      <g
   class="TextShape"
   id="g89">
       <g
   id="id23">
        <rect
   class="BoundingBox"
   stroke="none"
   fill="none"
   x="10607"
   y="7250"
   width="1306"
   height="1416"
   id="rect87" />
        
       </g>
      </g>
      <g
   class="TextShape"
   id="g92">
       <g
   id="id24">
        <rect
   class="BoundingBox"
   stroke="none"
   fill="none"
   x="6636"
   y="4492"
   width="8686"
   height="1196"
   id="rect89" />
        <text
   class="SVGTextShape"
   id="text92"
   style="fill:#ffffff;fill-opacity:1"><tspan
     class="TextParagraph"
     id="tspan92"
     style="fill:#ffffff;fill-opacity:1"><tspan
       class="TextPosition"
       x="6886"
       y="5383"
       id="tspan91"
       style="fill:#ffffff;fill-opacity:1"><tspan
         font-family="'Liberation Sans', sans-serif"
         font-size="847px"
         font-weight="400"
         fill="rgb(0,0,0)"
         stroke="none"
         style="white-space:pre;fill:#ffffff;fill-opacity:1"
         id="tspan90">Case B2: zig-zig (RR)</tspan></tspan></tspan></text>
       </g>
      </g>
      <g
   class="com.sun.star.drawing.LineShape"
   id="g93">
       <g
   id="id25">
        <rect
   class="BoundingBox"
   stroke="none"
   fill="none"
   x="7782"
   y="10797"
   width="934"
   height="1029"
   id="rect92" />
        <path
   fill="none"
   stroke="#000000"
   stroke-width="69.0206"
   stroke-linejoin="round"
   d="m 7974.4697,11004.663 694.0442,773.387"
   id="path92"
   style="stroke:#fcfcfd;stroke-width:109.849;stroke-dasharray:none;stroke-opacity:1" />
       </g>
      </g>
      <g
   class="com.sun.star.drawing.CustomShape"
   id="g94">
       <g
   id="id26">
        <rect
   class="BoundingBox"
   stroke="none"
   fill="none"
   x="8250"
   y="11409"
   width="1195"
   height="1195"
   id="rect93" />
        
        
       </g>
      </g>
      <g
   class="com.sun.star.drawing.LineShape"
   id="g95">
       <g
   id="id27">
        <rect
   class="BoundingBox"
   stroke="none"
   fill="none"
   x="12711"
   y="10831"
   width="841"
   height="916"
   id="rect94" />
        <path
   fill="none"
   stroke="#000000"
   stroke-width="102"
   stroke-linejoin="round"
   d="m 13500,10882 -738,813"
   id="path95"
   style="stroke:#fdfefd;stroke-opacity:1" />
       </g>
      </g>
      <g
   class="com.sun.star.drawing.CustomShape"
   id="g97">
       <g
   id="id28">
        <rect
   class="BoundingBox"
   stroke="none"
   fill="none"
   x="13227"
   y="9972"
   width="1194"
   height="1195"
   id="rect95" />
        
        
       </g>
      </g>
      <g
   class="com.sun.star.drawing.CustomShape"
   id="g99">
       <g
   id="id29">
        <rect
   class="BoundingBox"
   stroke="none"
   fill="none"
   x="15851"
   y="9910"
   width="1196"
   height="1195"
   id="rect97" />
        
        
       </g>
      </g>
     </g>
    </g>
   </g>
  </g>
 </g>
<text
   xml:space="preserve"
   style="font-style:normal;font-variant:normal;font-weight:normal;font-stretch:normal;font-size:800px;font-family:Sans;-inkscape-font-specification:'Sans, Normal';font-variant-ligatures:normal;font-variant-caps:normal;font-variant-numeric:normal;font-variant-east-asian:normal;writing-mode:lr-tb;direction:ltr;fill:#ffffff;fill-opacity:1;stroke:#feffff;stroke-width:56.254;stroke-linejoin:bevel;stroke-opacity:1"
   x="994.71936"
   y="5533.3125"
   id="text102"><tspan
     sodipodi:role="line"
     id="tspan102"
     style="font-style:normal;font-variant:normal;font-weight:normal;font-stretch:normal;font-size:800px;font-family:Sans;-inkscape-font-specification:'Sans, Normal';font-variant-ligatures:normal;font-variant-caps:normal;font-variant-numeric:normal;font-variant-east-asian:normal;stroke-width:56.2541"
     x="994.71936"
     y="5533.3125">U</tspan></text><text
   xml:space="preserve"
   style="font-style:normal;font-variant:normal;font-weight:normal;font-stretch:normal;font-size:800px;font-family:Sans;-inkscape-font-specification:'Sans, Normal';font-variant-ligatures:normal;font-variant-caps:normal;font-variant-numeric:normal;font-variant-east-asian:normal;writing-mode:lr-tb;direction:ltr;fill:#ffffff;fill-opacity:1;stroke:#feffff;stroke-width:56.254;stroke-linejoin:bevel;stroke-opacity:1"
   x="2278.4412"
   y="4300.4014"
   id="text102-2"><tspan
     sodipodi:role="line"
     id="tspan102-9"
     style="font-style:normal;font-variant:normal;font-weight:normal;font-stretch:normal;font-size:800px;font-family:Sans;-inkscape-font-specification:'Sans, Normal';font-variant-ligatures:normal;font-variant-caps:normal;font-variant-numeric:normal;font-variant-east-asian:normal;stroke-width:56.2541"
     x="2278.4412"
     y="4300.4014">G</tspan></text><text
   xml:space="preserve"
   style="font-style:normal;font-variant:normal;font-weight:normal;font-stretch:normal;font-size:800px;font-family:Sans;-inkscape-font-specification:'Sans, Normal';font-variant-ligatures:normal;font-variant-caps:normal;font-variant-numeric:normal;font-variant-east-asian:normal;writing-mode:lr-tb;direction:ltr;fill:#ffffff;fill-opacity:1;stroke:#feffff;stroke-width:56.254;stroke-linejoin:bevel;stroke-opacity:1"
   x="8610.4658"
   y="7241.3535"
   id="text102-1"><tspan
     sodipodi:role="line"
     id="tspan102-94"
     style="font-style:normal;font-variant:normal;font-weight:normal;font-stretch:normal;font-size:800px;font-family:Sans;-inkscape-font-specification:'Sans, Normal';font-variant-ligatures:normal;font-variant-caps:normal;font-variant-numeric:normal;font-variant-east-asian:normal;stroke-width:56.2541"
     x="8610.4658"
     y="7241.3535">U'</tspan></text><text
   xml:space="preserve"
   style="font-style:normal;font-variant:normal;font-weight:normal;font-stretch:normal;font-size:800px;font-family:Sans;-inkscape-font-specification:'Sans, Normal';font-variant-ligatures:normal;font-variant-caps:normal;font-variant-numeric:normal;font-variant-east-asian:normal;writing-mode:lr-tb;direction:ltr;fill:#ffffff;fill-opacity:1;stroke:#feffff;stroke-width:56.254;stroke-linejoin:bevel;stroke-opacity:1"
   x="8194.0615"
   y="3521.364"
   id="text102-2-8"><tspan
     sodipodi:role="line"
     id="tspan102-9-4"
     style="font-style:normal;font-variant:normal;font-weight:normal;font-stretch:normal;font-size:800px;font-family:Sans;-inkscape-font-specification:'Sans, Normal';font-variant-ligatures:normal;font-variant-caps:normal;font-variant-numeric:normal;font-variant-east-asian:normal;stroke-width:56.2541"
     x="8194.0615"
     y="3521.364">G</tspan></text><text
   xml:space="preserve"
   style="font-style:normal;font-variant:normal;font-weight:normal;font-stretch:normal;font-size:800px;font-family:Sans;-inkscape-font-specification:'Sans, Normal';font-variant-ligatures:normal;font-variant-caps:normal;font-variant-numeric:normal;font-variant-east-asian:normal;writing-mode:lr-tb;direction:ltr;fill:#ffffff;fill-opacity:1;stroke:#feffff;stroke-width:56.254;stroke-linejoin:bevel;stroke-opacity:1"
   x="5030.1074"
   y="8063.4961"
   id="text102-0"
   inkscape:transform-center-x="-160.71429"
   inkscape:transform-center-y="96.428571"><tspan
     sodipodi:role="line"
     id="tspan102-3"
     style="font-style:normal;font-variant:normal;font-weight:normal;font-stretch:normal;font-size:800px;font-family:Sans;-inkscape-font-specification:'Sans, Normal';font-variant-ligatures:normal;font-variant-caps:normal;font-variant-numeric:normal;font-variant-east-asian:normal;stroke-width:56.2541"
     x="5030.1074"
     y="8063.4961">x</tspan></text><text
   xml:space="preserve"
   style="font-style:normal;font-variant:normal;font-weight:normal;font-stretch:normal;font-size:800px;font-family:Sans;-inkscape-font-specification:'Sans, Normal';font-variant-ligatures:normal;font-variant-caps:normal;font-variant-numeric:normal;font-variant-east-asian:normal;writing-mode:lr-tb;direction:ltr;fill:#ffffff;fill-opacity:1;stroke:#feffff;stroke-width:56.254;stroke-linejoin:bevel;stroke-opacity:1"
   x="5003.8569"
   y="5285.251"
   id="text102-10"
   inkscape:transform-center-x="1639.2857"
   inkscape:transform-center-y="-1414.2857"><tspan
     sodipodi:role="line"
     id="tspan102-6"
     style="font-style:normal;font-variant:normal;font-weight:normal;font-stretch:normal;font-size:800px;font-family:Sans;-inkscape-font-specification:'Sans, Normal';font-variant-ligatures:normal;font-variant-caps:normal;font-variant-numeric:normal;font-variant-east-asian:normal;stroke-width:56.2541"
     x="5003.8569"
     y="5285.251">P</tspan></text><text
   xml:space="preserve"
   style="font-style:normal;font-variant:normal;font-weight:normal;font-stretch:normal;font-size:800px;font-family:Sans;-inkscape-font-specification:'Sans, Normal';font-variant-ligatures:normal;font-variant-caps:normal;font-variant-numeric:normal;font-variant-east-asian:normal;writing-mode:lr-tb;direction:ltr;fill:#ffffff;fill-opacity:1;stroke:#feffff;stroke-width:56.254;stroke-linejoin:bevel;stroke-opacity:1"
   x="9836.2344"
   y="5564.7266"
   id="text102-2-8-2"><tspan
     sodipodi:role="line"
     id="tspan102-9-4-0"
     style="font-style:normal;font-variant:normal;font-weight:normal;font-stretch:normal;font-size:800px;font-family:Sans;-inkscape-font-specification:'Sans, Normal';font-variant-ligatures:normal;font-variant-caps:normal;font-variant-numeric:normal;font-variant-east-asian:normal;stroke-width:56.2541"
     x="9836.2344"
     y="5564.7266">G'</tspan></text><text
   xml:space="preserve"
   style="font-style:normal;font-variant:normal;font-weight:normal;font-stretch:normal;font-size:800px;font-family:Sans;-inkscape-font-specification:'Sans, Normal';font-variant-ligatures:normal;font-variant-caps:normal;font-variant-numeric:normal;font-variant-east-asian:normal;writing-mode:lr-tb;direction:ltr;fill:#ffffff;fill-opacity:1;stroke:#feffff;stroke-width:56.254;stroke-linejoin:bevel;stroke-opacity:1"
   x="11345.706"
   y="4279.835"
   id="text102-10-1"
   inkscape:transform-center-x="1639.2857"
   inkscape:transform-center-y="-1414.2857"><tspan
     sodipodi:role="line"
     id="tspan102-6-5"
     style="font-style:normal;font-variant:normal;font-weight:normal;font-stretch:normal;font-size:800px;font-family:Sans;-inkscape-font-specification:'Sans, Normal';font-variant-ligatures:normal;font-variant-caps:normal;font-variant-numeric:normal;font-variant-east-asian:normal;stroke-width:56.2541"
     x="11345.706"
     y="4279.835">P'</tspan></text><text
   xml:space="preserve"
   style="font-style:normal;font-variant:normal;font-weight:normal;font-stretch:normal;font-size:800px;font-family:Sans;-inkscape-font-specification:'Sans, Normal';font-variant-ligatures:normal;font-variant-caps:normal;font-variant-numeric:normal;font-variant-east-asian:normal;writing-mode:lr-tb;direction:ltr;fill:#ffffff;fill-opacity:1;stroke:#feffff;stroke-width:56.254;stroke-linejoin:bevel;stroke-opacity:1"
   x="14661.353"
   y="5720.5"
   id="text102-0-4"
   inkscape:transform-center-x="-160.71429"
   inkscape:transform-center-y="96.428571"><tspan
     sodipodi:role="line"
     id="tspan102-3-7"
     style="font-style:normal;font-variant:normal;font-weight:normal;font-stretch:normal;font-size:800px;font-family:Sans;-inkscape-font-specification:'Sans, Normal';font-variant-ligatures:normal;font-variant-caps:normal;font-variant-numeric:normal;font-variant-east-asian:normal;stroke-width:56.2541"
     x="14661.353"
     y="5720.5">x</tspan></text><path
   fill="#ff0000"
   stroke="none"
   d="m 6993.8623,7703.5154 c 0,105 -28,207 -80,298 -52,91 -127,166 -218.0003,218 -91,52 -193,80 -298,80 -105,0 -207,-28 -298,-80 -91,-52 -166,-127 -218.0004,-218 -52,-91 -80,-193 -80,-298 0,-105 28,-207 80,-298 52.0004,-91 127.0004,-166 218.0004,-218 91,-52 193,-80 298,-80 105,0 207,28 298,80 91.0003,52 166.0003,127 218.0003,218 52,91 80,193 80,298 z"
   id="path120-7"
   style="stroke:#fff0ff;stroke-width:108.2;stroke-dasharray:none;stroke-opacity:1" /><path
   fill="#000000"
   stroke="none"
   d="m 2957.8076,6142.8914 c 0,105 -28,207 -80,298 -52,91 -128,166 -218,218 -91,52 -194,80 -298,80 -105,0 -208,-28 -299,-80 -90,-52 -166,-127 -218,-218 -52,-91 -80,-193 -80,-298 0,-105 28,-207 80,-298.0003 52,-91 128,-166 218,-218 91,-52 194,-80 299,-80 104,0 207,28 298,80 90,52 166,127 218,218 52,91.0003 80,193.0003 80,298.0003 z"
   id="path116"
   style="stroke:#f9fefd;stroke-width:118.2;stroke-dasharray:none;stroke-opacity:1" /><path
   fill="#ff0000"
   stroke="none"
   d="m 5675.4684,6148.7824 c 0,105 -28,207 -80,298 -52,91 -127,166 -218,218 -91,52 -193,80 -298,80 -105,0 -207,-28 -298,-80 -91,-52 -166,-127 -218,-218 -52,-91 -80,-193 -80,-298 0,-105 28,-207 80,-297.9997 52,-90.9996 127,-165.9996 218,-217.9996 91,-52 193,-80 298,-80 105,0 207,28 298,80 91,52 166,127 218,217.9996 52,90.9997 80,192.9997 80,297.9997 z"
   id="path120-7-5"
   style="stroke:#fff0ff;stroke-width:108.2;stroke-dasharray:none;stroke-opacity:1" /><path
   fill="#ff0000"
   stroke="none"
   d="m 11857.641,5964.2894 c 0,105 -28,207 -80,298 -52,91 -127,166 -218,218 -91,52 -193,80 -298,80 -105,0 -207,-28 -298,-80 -91,-52 -166,-127 -218,-218 -52,-91 -80,-193 -80,-298 0,-105.0003 28,-207.0003 80,-298.0003 52,-91 127,-166 218,-218 91,-52 193,-80 298,-80 105,0 207,28 298,80 91,52 166,127 218,218 52,91 80,193 80,298.0003 z"
   id="path120-7-9"
   style="stroke:#fff0ff;stroke-width:108.2;stroke-dasharray:none;stroke-opacity:1" /><path
   fill="#ff0000"
   stroke="none"
   d="m 14540.171,5993.8424 c 0,105 -28,207 -80,298 -52,91 -127,166 -218,218 -91,52 -193,80 -298,80 -105,0 -207,-28 -298,-80 -91,-52 -166,-127 -218.001,-218 -52,-91 -80,-193 -80,-298 0,-105 28,-206.9996 80,-297.9996 52.001,-91 127.001,-166 218.001,-218 91,-52 193,-80 298,-80 105,0 207,28 298,80 91,52 166,127 218,218 52,91 80,192.9996 80,297.9996 z"
   id="path120-7-7"
   style="stroke:#fff0ff;stroke-width:108.2;stroke-dasharray:none;stroke-opacity:1" /><path
   fill="#000000"
   stroke="none"
   d="m 4216.9445,4303.9614 c 0,105 -28,207 -80,298 -52,91 -128,166 -218,218 -91,52 -194,80 -298,80 -105,0 -208,-28 -299,-80 -90,-52 -166,-127 -218,-218 -52,-91 -80,-193 -80,-298 0,-105 28,-207 80,-298 52,-91 128,-166 218,-218 91,-52 194,-80 299,-80 104,0 207,28 298,80 90,52 166,127 218,218 52,91 80,193 80,298 z"
   id="path116-5"
   style="stroke:#f9fefd;stroke-width:118.2;stroke-dasharray:none;stroke-opacity:1" /><path
   fill="#000000"
   stroke="none"
   d="m 13175.813,4306.6399 c 0,105 -28,207 -80,298 -52,91 -128,166 -218,218 -91,52 -194,80 -298,80 -105,0 -208,-28 -299,-80 -90,-52 -166,-127 -218,-218 -52,-91 -80,-193 -80,-298 0,-105 28,-207 80,-298 52,-91 128,-166 218,-218 91,-52 194,-80 299,-80 104,0 207,28 298,80 90,52 166,127 218,218 52,91 80,193 80,298 z"
   id="path116-54"
   style="stroke:#f9fefd;stroke-width:118.2;stroke-dasharray:none;stroke-opacity:1" /><path
   fill="#000000"
   stroke="none"
   d="m 10632.509,7500.6574 c 0,105 -28,207 -80,298 -52,91 -128,166 -218,218 -91,52 -194,80 -298,80 -104.9996,0 -207.9996,-28 -298.9996,-80 -90,-52 -166,-127 -218,-218 -52,-91 -80,-193 -80,-298 0,-105 28,-207 80,-298 52,-91 128,-166 218,-218 91,-52 194,-80 298.9996,-80 104,0 207,28 298,80 90,52 166,127 218,218 52,91 80,193 80,298 z"
   id="path116-4"
   style="stroke:#f9fefd;stroke-width:118.2;stroke-dasharray:none;stroke-opacity:1" /><text
   class="SVGTextShape"
   id="text92-9"
   style="fill:#ffffff;fill-opacity:1"
   x="-5525.2627"
   y="4355.1719"><tspan
     sodipodi:role="line"
     id="tspan3"
     x="1360.7384"
     y="9738.1719"><tspan
       class="TextParagraph"
       id="tspan92-3-2"
       style="fill:#ffffff;fill-opacity:1"><tspan
         class="TextPosition"
         x="1360.7384"
         y="9738.1719"
         id="tspan91-0-0"
         style="fill:#ffffff;fill-opacity:1"><tspan
           font-family="'Liberation Sans', sans-serif"
           font-size="847px"
           font-weight="400"
           fill="rgb(0,0,0)"
           stroke="none"
           style="white-space:pre;fill:#ffffff;fill-opacity:1"
           id="tspan90-7-6">Cluster Descriptor: </tspan></tspan></tspan></tspan><tspan
     sodipodi:role="line"
     x="1360.7384"
     y="9738.1719"
     id="tspan5"><tspan
       class="TextParagraph"
       style="fill:#ffffff;fill-opacity:1"
       id="tspan6"><tspan
         class="TextPosition"
         x="1360.7384"
         y="9738.1719"
         style="fill:#ffffff;fill-opacity:1"
         id="tspan7"><tspan
           font-family="'Liberation Sans', sans-serif"
           font-size="847px"
           font-weight="400"
           fill="rgb(0,0,0)"
           stroke="none"
           style="white-space:pre;fill:#ffffff;fill-opacity:1"
           id="tspan8">f</tspan></tspan></tspan></tspan><tspan
     sodipodi:role="line"
     id="tspan4"
     x="1360.7384"
     y="10044.6" /></text><text
   class="SVGTextShape"
   id="text92-9-6"
   style="fill:#ffffff;fill-opacity:1"
   x="-5478.9526"
   y="5741.748"><tspan
     sodipodi:role="line"
     id="tspan3-6"
     x="1407.048"
     y="11124.749"><tspan
       class="TextParagraph"
       id="tspan92-3-2-4"
       style="fill:#ffffff;fill-opacity:1"><tspan
         class="TextPosition"
         x="1407.048"
         y="11124.749"
         id="tspan91-0-0-9"
         style="fill:#ffffff;fill-opacity:1"><tspan
           font-family="'Liberation Sans', sans-serif"
           font-size="847px"
           font-weight="400"
           fill="rgb(0,0,0)"
           stroke="none"
           style="white-space:pre;fill:#ffffff;fill-opacity:1"
           id="tspan90-7-6-5">{x:R,x&gt;P;P:R,P&gt;G;G:B;U:B,U&lt;G} </tspan></tspan></tspan></tspan><tspan
     sodipodi:role="line"
     x="1407.048"
     y="11124.749"
     id="tspan5-0"><tspan
       class="TextParagraph"
       style="fill:#ffffff;fill-opacity:1"
       id="tspan6-4"><tspan
         class="TextPosition"
         x="1407.048"
         y="11124.749"
         style="fill:#ffffff;fill-opacity:1"
         id="tspan7-8"><tspan
           font-family="'Liberation Sans', sans-serif"
           font-size="847px"
           font-weight="400"
           fill="rgb(0,0,0)"
           stroke="none"
           style="white-space:pre;fill:#ffffff;fill-opacity:1"
           id="tspan8-7">f</tspan></tspan></tspan></tspan><tspan
     sodipodi:role="line"
     id="tspan4-1"
     x="1407.048"
     y="11431.177" /></text></svg>
