<svg version="1.1" id="Layer_1" xmlns="http://www.w3.org/2000/svg" xmlns:xlink="http://www.w3.org/1999/xlink" x="0px" y="0px"
	 width="100%" viewBox="0 0 483 179" enable-background="new 0 0 483 179" xml:space="preserve">
<path fill="#202020" opacity="1.000000" stroke="none" 
	d="
M229.000000,1.000000 
	C313.944580,1.000000 398.889130,1.000000 483.916870,1.000000 
	C483.916870,60.572224 483.916870,120.144600 483.916870,180.000000 
	C405.312653,180.000000 326.625000,180.000000 247.374893,179.655762 
	C245.495377,178.820618 244.215073,178.095139 242.854446,177.881699 
	C238.324921,177.171097 233.766525,176.644348 229.124817,175.583374 
	C229.030441,169.183945 229.030441,163.248245 229.030441,156.828491 
	C305.977631,156.828491 382.363586,156.828491 458.625549,156.828491 
	C458.625549,119.611008 458.625549,82.888840 458.625549,46.231480 
	C452.465973,46.231480 446.682587,46.231480 440.899200,46.231480 
	C440.894226,46.527988 440.889252,46.824501 440.884277,47.121010 
	C446.553864,47.121010 452.223480,47.121010 457.747009,47.121010 
	C457.747009,83.717873 457.747009,119.655342 457.747009,155.712189 
	C381.441345,155.712189 305.389832,155.712189 229.027237,155.712189 
	C229.027237,149.292526 229.027237,143.156693 229.494125,137.012512 
	C299.516510,137.004166 369.071991,137.004166 438.657654,137.004166 
	C438.657654,122.962379 438.657654,109.722931 438.657654,95.979088 
	C368.554443,95.979088 298.790588,95.979088 229.014771,95.513214 
	C229.010956,89.038544 229.019119,83.029755 229.494171,77.012833 
	C291.640167,77.002708 353.319244,77.010391 414.998291,76.946701 
	C416.652039,76.944992 418.305023,76.170441 420.098877,75.456512 
	C425.822235,66.723328 431.328094,58.237274 437.036346,49.889652 
	C438.674988,47.493351 438.768707,45.814133 437.037018,43.290520 
	C431.160034,34.726082 425.630219,25.923426 420.041901,16.902611 
	C418.347931,16.396166 416.579926,16.027428 414.811768,16.026367 
	C352.883514,15.989196 290.955261,15.986612 229.014908,15.514464 
	C229.001862,10.366530 229.000931,5.683265 229.000000,1.000000 
M461.024261,33.116096 
	C460.843353,33.568348 460.662415,34.020599 460.693298,35.063026 
	C460.693298,36.141529 460.693298,37.220032 460.693298,38.298538 
	C461.122589,38.265106 461.551880,38.231674 461.981140,38.198242 
	C461.812347,36.626293 461.643555,35.054344 461.024261,33.116096 
z"/>
<path fill="#202020" opacity="1.000000" stroke="none" 
	d="
M203.000000,180.000000 
	C135.715225,180.000000 68.430450,180.000000 1.072837,180.000000 
	C1.072837,120.424995 1.072837,60.849880 1.072837,1.000000 
	C76.020668,1.000000 151.041672,1.000000 226.531738,1.466013 
	C226.991409,6.614393 226.982025,11.296761 226.505585,15.987621 
	C164.742432,15.997794 103.446297,15.990300 42.150211,16.041100 
	C40.104748,16.042795 38.059780,16.634228 35.987003,17.325977 
	C35.254246,18.966255 34.549068,20.231321 33.792507,21.471809 
	C33.741123,21.447229 33.763824,21.596073 33.583572,21.996124 
	C32.883499,23.096258 32.363686,23.796337 31.792488,24.471849 
	C31.741102,24.447281 31.763803,24.596098 31.583549,24.996147 
	C30.883488,26.096268 30.363680,26.796341 29.792490,27.471848 
	C29.741106,27.447281 29.763807,27.596094 29.583553,27.996143 
	C28.883490,29.096264 28.363682,29.796339 27.792488,30.471848 
	C27.741106,30.447281 27.763807,30.596094 27.583551,30.996141 
	C26.883486,32.096264 26.363676,32.796337 25.792484,33.471844 
	C25.741100,33.447277 25.763805,33.596096 25.583549,33.996147 
	C24.883488,35.096268 24.363678,35.796341 23.792484,36.471844 
	C23.741100,36.447277 23.763805,36.596096 23.583549,36.996147 
	C22.883486,38.096268 22.363678,38.796337 21.792484,39.471844 
	C21.741100,39.447277 21.763805,39.596096 21.582817,39.996880 
	C20.879799,41.098404 20.357765,41.799149 19.784048,42.474129 
	C19.732365,42.448368 19.754646,42.601830 19.524229,42.927864 
	C15.808431,45.896152 17.737970,48.165585 19.797182,50.478394 
	C19.806696,50.530041 19.866510,50.524422 20.173027,50.836483 
	C20.912529,51.905891 21.345518,52.663242 21.787697,53.473022 
	C21.796886,53.525459 21.858316,53.521091 22.166286,53.833061 
	C22.909008,54.903553 23.343756,55.662071 23.787697,56.473022 
	C23.796886,56.525459 23.858316,56.521091 24.166286,56.833061 
	C24.909008,57.903553 25.343758,58.662071 25.787697,59.473022 
	C25.796886,59.525459 25.858316,59.521091 26.166286,59.833061 
	C26.909008,60.903553 27.343758,61.662071 27.787697,62.473022 
	C27.796886,62.525459 27.858316,62.521091 28.166286,62.833061 
	C28.909008,63.903553 29.343756,64.662071 29.787697,65.473022 
	C29.796886,65.525467 29.858316,65.521088 30.166288,65.833061 
	C30.909010,66.903549 31.343760,67.662064 31.787701,68.473015 
	C31.796892,68.525452 31.858316,68.521088 32.166286,68.833069 
	C32.909008,69.903557 33.343754,70.662079 33.787693,71.473030 
	C33.796886,71.525467 33.858315,71.521103 34.143387,71.797073 
	C34.811413,72.764503 35.194363,73.455956 35.605316,74.188522 
	C35.633320,74.229637 35.606716,74.369202 35.829590,74.823166 
	C38.139420,75.851074 40.225594,76.923256 42.313446,76.926529 
	C103.866318,77.023201 165.419357,77.013634 226.984619,77.487030 
	C226.988892,83.961769 226.980881,89.970428 226.505981,95.987305 
	C156.816727,95.995506 87.594376,95.995506 18.341619,95.995506 
	C18.341619,110.037262 18.341619,123.276810 18.341619,137.020874 
	C88.111206,137.020874 157.541809,137.020874 226.984528,137.487350 
	C227.024521,150.950562 227.052414,163.947311 226.613892,176.971680 
	C219.409302,177.671738 212.671143,178.344193 205.612122,179.026428 
	C204.527496,179.357468 203.763748,179.678726 203.000000,180.000000 
z"/>
<path fill="#050503" opacity="1.000000" stroke="none" 
	d="
M205.932983,179.016632 
	C212.671143,178.344193 219.409302,177.671738 226.936615,176.999405 
	C228.223587,176.682053 228.721405,176.364594 229.219208,176.047119 
	C233.766525,176.644348 238.324921,177.171097 242.854446,177.881699 
	C244.215073,178.095139 245.495377,178.820618 246.906235,179.655762 
	C233.645767,180.000000 220.291550,180.000000 206.454163,179.753998 
	C205.971008,179.508011 205.932983,179.016632 205.932983,179.016632 
z"/>
<path fill="#DDDD90" opacity="1.000000" stroke="none" 
	d="
M226.972626,15.979128 
	C226.982025,11.296761 226.991409,6.614393 227.000397,1.466013 
	C227.444443,1.000000 227.888901,1.000000 228.666672,1.000000 
	C229.000931,5.683265 229.001862,10.366530 228.672546,15.521044 
	C227.885757,15.987904 227.429184,15.983516 226.972626,15.979128 
z"/>
<path fill="#2C2C16" opacity="1.000000" stroke="none" 
	d="
M205.612122,179.026428 
	C205.932983,179.016632 205.971008,179.508011 205.985504,179.753998 
	C205.250000,180.000000 204.500000,180.000000 203.375000,180.000000 
	C203.763748,179.678726 204.527496,179.357468 205.612122,179.026428 
z"/>
<path fill="#000000" opacity="1.000000" stroke="none" 
	d="
M19.787668,50.426743 
	C17.737970,48.165585 15.808431,45.896152 19.549240,42.930828 
	C19.804670,42.607758 19.835732,42.499889 19.835732,42.499889 
	C20.357765,41.799149 20.879799,41.098404 21.607494,39.999931 
	C21.813156,39.602196 21.843868,39.496410 21.843868,39.496410 
	C22.363678,38.796337 22.883486,38.096268 23.608225,36.999195 
	C23.813156,36.602196 23.843868,36.496410 23.843868,36.496410 
	C24.363678,35.796341 24.883488,35.096268 25.608227,33.999195 
	C25.813156,33.602196 25.843868,33.496410 25.843868,33.496410 
	C26.363676,32.796337 26.883486,32.096264 27.608227,30.999191 
	C27.813158,30.602192 27.843874,30.496414 27.843872,30.496414 
	C28.363682,29.796339 28.883490,29.096264 29.608227,27.999191 
	C29.813158,27.602192 29.843874,27.496414 29.843874,27.496414 
	C30.363680,26.796341 30.883488,26.096268 31.608225,24.999195 
	C31.813154,24.602196 31.843870,24.496416 31.843872,24.496418 
	C32.363686,23.796337 32.883499,23.096258 33.608246,21.999174 
	C33.813175,21.602171 33.843891,21.496389 33.843891,21.496387 
	C34.549068,20.231321 35.254246,18.966255 36.454285,17.345861 
	C162.463364,16.993784 287.977600,16.995974 413.491821,17.009073 
	C415.650482,17.009298 417.809143,17.141268 419.967804,17.211760 
	C425.630219,25.923426 431.160034,34.726082 437.037018,43.290520 
	C438.768707,45.814133 438.674988,47.493351 437.036346,49.889652 
	C431.328094,58.237274 425.822235,66.723328 419.641296,75.553879 
	C322.103455,75.967171 225.163757,75.984444 128.224075,75.998817 
	C99.242027,76.003113 70.259819,76.035599 41.278267,75.915634 
	C39.392532,75.907829 37.511761,74.700638 35.629288,74.074661 
	C35.629894,74.097969 35.577309,74.147408 35.577309,74.147408 
	C35.194363,73.455956 34.811413,72.764503 34.143700,71.767815 
	C33.858936,71.462578 33.778500,71.420593 33.778500,71.420593 
	C33.343754,70.662079 32.909008,69.903557 32.166595,68.803802 
	C31.858934,68.462563 31.778509,68.420578 31.778511,68.420578 
	C31.343760,67.662064 30.909010,66.903549 30.166599,65.803802 
	C29.858936,65.462563 29.778505,65.420586 29.778505,65.420586 
	C29.343756,64.662071 28.909008,63.903553 28.166597,62.803802 
	C27.858936,62.462570 27.778505,62.420589 27.778505,62.420589 
	C27.343758,61.662071 26.909008,60.903553 26.166597,59.803802 
	C25.858936,59.462570 25.778505,59.420589 25.778507,59.420589 
	C25.343758,58.662071 24.909008,57.903553 24.166597,56.803802 
	C23.858936,56.462570 23.778505,56.420589 23.778505,56.420589 
	C23.343756,55.662071 22.909008,54.903553 22.166597,53.803802 
	C21.858936,53.462570 21.778505,53.420589 21.778505,53.420589 
	C21.345518,52.663242 20.912529,51.905891 20.173412,50.807873 
	C19.867281,50.467201 19.787668,50.426743 19.787668,50.426743 
M303.970795,37.475872 
	C304.133759,37.629173 304.296722,37.782475 304.459686,37.935776 
	C304.316162,37.630039 304.172607,37.324306 303.801727,36.728458 
	C303.574097,36.654789 303.346436,36.581120 303.118805,36.507458 
	C303.371277,36.715153 303.623749,36.922852 303.970795,37.475872 
M215.132233,42.678127 
	C216.077087,42.454651 217.021927,42.231174 218.618439,42.091740 
	C219.519684,41.611237 221.232315,41.037491 221.189560,40.665466 
	C220.925690,38.369259 220.266312,36.118496 219.668411,33.552345 
	C217.971161,35.039398 216.788269,36.075787 215.071472,37.197521 
	C214.389999,37.771320 213.708527,38.345123 212.567139,38.724720 
	C212.567139,38.724720 212.123764,38.495262 212.072403,37.890892 
	C212.055161,37.286793 212.037918,36.682690 211.865036,35.351082 
	C210.543518,34.918324 209.221985,34.485565 207.191956,34.300053 
	C207.083969,35.538269 206.975998,36.776489 206.199860,38.205620 
	C203.245285,42.240250 206.286987,41.988579 209.322723,42.638386 
	C210.554733,42.424377 211.786743,42.210373 213.494766,42.008511 
	C213.494766,42.008511 213.970932,42.010677 214.472748,42.173199 
	C214.646057,42.143452 214.819351,42.113705 214.988953,42.004478 
	C214.988953,42.004478 214.909500,42.008823 215.132233,42.678127 
M122.932770,39.799629 
	C122.932770,39.799629 122.697174,39.811954 122.697174,39.811954 
	C122.697174,39.811954 122.939377,40.038857 123.534622,40.456257 
	C125.130386,40.624374 126.726158,40.792492 128.321930,40.960606 
	C128.331070,40.620396 128.340210,40.280182 128.349365,39.939972 
	C126.578842,39.939972 124.808319,39.939972 122.932770,39.799629 
M53.022812,36.091469 
	C52.838577,36.553684 52.654343,37.015900 52.696194,38.068806 
	C52.696194,39.159893 52.696194,40.250984 52.696194,41.342072 
	C53.123669,41.330143 53.551144,41.318218 53.978619,41.306290 
	C53.812027,39.694263 53.645435,38.082241 53.022812,36.091469 
M122.932686,35.800652 
	C122.932686,35.800652 122.697990,35.812489 122.697990,35.812489 
	C122.697990,35.812489 122.940292,36.038448 123.535240,36.456089 
	C125.130699,36.624199 126.726151,36.792313 128.321609,36.960423 
	C128.330750,36.620583 128.339874,36.280739 128.348999,35.940899 
	C126.578468,35.940899 124.807922,35.940899 122.932686,35.800652 
M245.022827,36.091476 
	C244.838593,36.553688 244.654358,37.015903 244.696182,38.068806 
	C244.696182,39.159893 244.696182,40.250984 244.696182,41.342072 
	C245.123657,41.330151 245.551132,41.318226 245.978592,41.306305 
	C245.812027,39.694279 245.645447,38.082256 245.022827,36.091476 
M292.212189,36.976303 
	C287.666351,37.521950 289.141876,39.731464 289.986633,41.766682 
	C290.544220,41.924496 291.101807,42.082314 291.659424,42.240128 
	C292.133972,40.518719 292.608521,38.797314 293.518372,36.958324 
	C293.790222,36.652802 294.062042,36.347279 294.333893,36.041763 
	C294.202209,36.000797 294.001953,35.884041 293.949921,35.931107 
	C293.602020,36.245872 293.285736,36.595558 292.212189,36.976303 
M179.886734,41.959484 
	C180.672409,41.723587 181.458069,41.487686 182.243744,41.251789 
	C182.156952,40.870815 182.070175,40.489841 181.983398,40.108868 
	C180.389526,40.404297 178.795670,40.699722 177.072128,40.103218 
	C177.072128,37.457237 177.072128,34.811256 177.072128,32.165276 
	C176.610107,32.194046 176.148071,32.222816 175.686050,32.251591 
	C175.246353,35.795200 174.806656,39.338810 174.310699,43.335720 
	C175.570511,42.980209 177.406616,42.462070 179.886734,41.959484 
M377.072144,40.103203 
	C377.072144,37.457222 377.072144,34.811237 377.072144,32.165257 
	C376.610107,32.194023 376.148041,32.222790 375.686005,32.251556 
	C375.246307,35.795181 374.806610,39.338802 374.310699,43.335739 
	C375.570526,42.980217 377.406616,42.462070 379.886719,41.959488 
	C380.672424,41.723595 381.458099,41.487698 382.243805,41.251804 
	C382.157013,40.870815 382.070251,40.489826 381.983459,40.108841 
	C380.389557,40.404270 378.795685,40.699699 377.072144,40.103203 
M164.588821,35.751595 
	C159.560532,35.952606 158.823685,37.460495 161.513260,42.961037 
	C162.311737,41.664577 162.965378,40.603302 163.157333,40.291611 
	C164.968475,41.263657 166.650269,42.166271 169.399368,43.641724 
	C167.428787,40.125500 166.289734,38.093029 164.588821,35.751595 
M360.016296,38.868340 
	C360.276123,40.136906 360.535950,41.405468 360.795746,42.674030 
	C361.173065,42.670418 361.550385,42.666801 361.927704,42.663185 
	C362.461548,41.608231 362.995392,40.553276 363.183167,40.182209 
	C364.873016,41.089382 366.579895,42.005676 368.286743,42.921974 
	C367.810577,40.614250 366.989258,39.280914 366.003601,38.082748 
	C365.272583,37.194160 364.174164,35.719501 363.511902,35.853439 
	C362.254883,36.107651 361.193237,37.327938 360.016296,38.868340 
M240.441284,35.923046 
	C234.545349,35.712833 234.112671,36.316895 235.926071,42.612499 
	C237.750107,42.491283 239.632980,42.366154 242.275772,42.190525 
	C241.783386,39.971973 241.379807,38.153503 240.441284,35.923046 
M46.525002,42.430592 
	C47.676823,41.544010 48.828644,40.657429 49.980465,39.770847 
	C48.943924,38.455399 48.135937,36.682266 46.780502,36.005394 
	C46.031853,35.631538 43.456940,36.924164 43.297710,37.766541 
	C42.943996,39.637829 41.747231,42.733555 46.525002,42.430592 
M86.083572,38.871391 
	C85.769882,37.046112 85.456184,35.220829 85.142487,33.395550 
	C84.482742,33.462231 83.822990,33.528908 83.163246,33.595589 
	C83.163246,36.081455 82.939224,38.600727 83.301796,41.032536 
	C83.408508,41.748253 85.176117,42.216339 86.182556,42.797913 
	C86.199654,41.735703 86.216751,40.673489 86.083572,38.871391 
M310.018097,37.594604 
	C309.920502,36.510536 309.822906,35.426468 309.725281,34.342400 
	C309.141479,34.295486 308.557678,34.248573 307.973846,34.201664 
	C307.844055,36.442940 307.279053,38.787327 307.774933,40.880383 
	C308.009674,41.871246 310.273499,42.381390 311.618042,43.109337 
	C311.719940,42.752426 311.821869,42.395519 311.923798,42.038612 
	C311.297577,40.794373 310.671387,39.550133 310.018097,37.594604 
M109.146210,39.079197 
	C108.824722,37.564892 108.503242,36.050587 108.181755,34.536278 
	C106.386101,41.394009 107.152847,42.599636 112.573547,42.238342 
	C111.302246,41.255436 110.333031,40.506088 109.146210,39.079197 
M55.388035,40.554279 
	C56.333637,40.721806 57.279236,40.889328 58.224842,41.056854 
	C58.032299,39.910255 57.839760,38.763657 57.647217,37.617058 
	C56.833252,38.384781 56.019287,39.152504 55.388035,40.554279 
M250.496429,40.631653 
	C249.896881,39.538731 249.297348,38.445812 248.697800,37.352894 
	C248.201218,38.215530 247.704620,39.078167 247.208038,39.940804 
	C248.188766,40.353165 249.169510,40.765522 250.496429,40.631653 
M274.997162,39.712109 
	C275.078766,40.276764 275.160400,40.841419 275.199280,41.110340 
	C276.449860,39.264122 277.700104,37.418396 279.051636,35.423141 
	C275.711182,34.519455 274.892242,36.235706 274.997162,39.712109 
M66.363464,42.680885 
	C67.696373,42.456394 69.029289,42.231903 70.362198,42.007412 
	C70.292076,41.508900 70.221954,41.010387 70.151833,40.511875 
	C68.606445,40.511875 67.061058,40.511875 65.515671,40.511875 
	C65.612740,41.218796 65.709801,41.925720 66.363464,42.680885 
M261.192963,40.380726 
	C259.686340,40.579819 258.179688,40.778912 256.673065,40.978004 
	C260.942963,42.981510 260.942963,42.981510 261.192963,40.380726 
M186.511017,40.256199 
	C186.225037,38.031132 185.939072,35.806061 185.653107,33.580990 
	C185.218674,36.221340 185.162491,38.835625 185.299515,41.439735 
	C185.314362,41.721840 186.447403,41.945099 187.061768,42.195656 
	C186.999741,41.743443 186.937729,41.291229 186.511017,40.256199 
M385.206177,41.422237 
	C385.726257,41.807209 386.246338,42.192184 386.972412,42.729645 
	C386.450745,39.369331 386.015228,36.563969 385.579712,33.758610 
	C385.408600,33.784241 385.237518,33.809872 385.066406,33.835503 
	C385.066406,36.125187 385.066406,38.414871 385.206177,41.422237 
M101.422615,32.936344 
	C100.680298,33.456524 99.937988,33.976704 98.168259,35.216843 
	C101.400337,34.937263 103.125893,34.788002 104.851448,34.638741 
	C104.890335,34.204842 104.929222,33.770943 104.968109,33.337044 
	C103.995605,33.158016 103.023094,32.978989 101.422615,32.936344 
M326.746552,37.505760 
	C326.641052,37.380493 326.554718,37.227180 326.424408,37.138214 
	C326.305634,37.057110 326.139221,37.045780 325.993835,37.003693 
	C325.658875,38.620968 325.323914,40.238239 324.988953,41.855515 
	C325.525055,41.925205 326.061157,41.994896 326.597260,42.064587 
	C326.704712,40.759632 326.812195,39.454674 326.746552,37.505760 
M89.751389,40.694199 
	C91.111588,41.439926 92.471786,42.185658 93.831978,42.931389 
	C93.996376,42.389629 94.160774,41.847870 94.325172,41.306110 
	C92.958107,40.986153 91.591049,40.666199 89.751389,40.694199 
M142.803909,36.867538 
	C143.937592,36.761944 145.071259,36.656349 146.204941,36.550755 
	C146.132004,36.173363 146.059052,35.795971 145.986099,35.418579 
	C144.802811,35.795528 143.619522,36.172478 142.803909,36.867538 
M143.397217,40.976807 
	C144.318893,40.756378 145.240570,40.535950 146.162247,40.315517 
	C146.009933,39.958275 145.857605,39.601028 145.705292,39.243786 
	C144.763931,39.799183 143.822556,40.354580 143.397217,40.976807 
M345.324036,39.501637 
	C344.354187,39.771133 343.384338,40.040630 342.414490,40.310131 
	C342.561584,40.642918 342.708679,40.975708 342.855774,41.308498 
	C343.857300,40.728458 344.858795,40.148422 345.324036,39.501637 
M344.766296,35.612774 
	C343.997894,35.866829 343.229462,36.120880 342.461060,36.374931 
	C342.660400,36.684048 342.859741,36.993164 343.059082,37.302280 
	C343.807709,36.702377 344.556366,36.102474 344.766296,35.612774 
M132.876862,36.129848 
	C132.758484,36.237064 132.572906,36.329063 132.544037,36.456543 
	C132.522827,36.550270 132.704788,36.792622 132.799530,36.794434 
	C134.024643,36.817818 135.250351,36.809914 136.475906,36.809914 
	C136.483643,36.613106 136.491364,36.416294 136.499100,36.219486 
	C135.468842,36.157440 134.438568,36.095394 132.876862,36.129848 
M333.412872,36.972794 
	C334.440857,36.909332 335.468872,36.845871 336.496857,36.782410 
	C336.426636,36.469227 336.356384,36.156048 336.286163,35.842869 
	C335.155853,36.190239 334.025574,36.537605 333.412872,36.972794 
M70.350418,36.291912 
	C69.829407,36.244987 69.308388,36.198063 68.787376,36.151138 
	C68.912605,36.646408 69.037827,37.141674 69.163048,37.636940 
	C69.607185,37.352215 70.051323,37.067490 70.350418,36.291912 
M135.619095,40.964828 
	C135.825806,40.718136 136.032532,40.471443 136.239243,40.224751 
	C136.093765,40.173508 135.945984,40.072403 135.803177,40.078999 
	C134.763870,40.127010 133.725586,40.196697 132.686966,40.259533 
	C132.698593,40.503895 132.710220,40.748257 132.721848,40.992619 
	C133.499344,40.992619 134.276855,40.992619 135.619095,40.964828 
M260.626404,37.255306 
	C261.162628,37.295135 261.698822,37.334965 262.235046,37.374794 
	C262.097321,36.873371 261.959595,36.371948 261.821869,35.870529 
	C261.383179,36.169067 260.944489,36.467606 260.626404,37.255306 
M292.198883,44.469368 
	C291.994263,44.918926 291.789642,45.368484 291.585022,45.818043 
	C292.346313,45.611496 293.107605,45.404945 293.868896,45.198395 
	C293.473450,44.898167 293.077972,44.597939 292.198883,44.469368 
M335.619049,40.964828 
	C335.825775,40.718140 336.032532,40.471447 336.239288,40.224762 
	C336.093811,40.173512 335.946045,40.072403 335.803223,40.078999 
	C334.763916,40.126999 333.725586,40.196682 332.686951,40.259514 
	C332.698578,40.503883 332.710175,40.748249 332.721802,40.992619 
	C333.499329,40.992619 334.276855,40.992619 335.619049,40.964828 
M252.229309,34.686016 
	C252.683899,34.537567 253.138474,34.389118 253.593063,34.240669 
	C253.413925,33.831375 253.234772,33.422085 253.055634,33.012791 
	C252.735825,33.417912 252.416000,33.823032 252.229309,34.686016 
M60.243484,33.296185 
	C60.350063,33.868591 60.456638,34.440994 60.563213,35.013397 
	C60.842094,34.906887 61.120975,34.800377 61.399857,34.693871 
	C61.131828,34.123573 60.863800,33.553276 60.243484,33.296185 
M97.264122,36.238293 
	C96.866966,35.964520 96.469818,35.690750 96.072662,35.416981 
	C95.960365,35.681274 95.848068,35.945568 95.735764,36.209858 
	C96.137177,36.330780 96.538597,36.451702 97.264122,36.238293 
M90.705643,36.163887 
	C90.342575,36.230545 89.956352,36.248409 89.634148,36.401230 
	C89.561661,36.435608 89.712662,36.941177 89.760780,37.229832 
	C90.090462,37.018143 90.420151,36.806458 90.705643,36.163887 
M75.627144,40.792583 
	C75.786255,40.985580 75.945374,41.178581 76.104485,41.371582 
	C76.207909,41.275791 76.311325,41.180000 76.414742,41.084209 
	C76.232513,40.912315 76.050278,40.740421 75.627144,40.792583 
M66.176888,37.216496 
	C65.976562,36.835079 65.776245,36.453663 65.575928,36.072247 
	C65.461914,36.166557 65.236069,36.317451 65.250824,36.346600 
	C65.439674,36.719826 65.662956,37.075630 66.176888,37.216496 
M257.888397,37.424755 
	C257.892181,37.019249 257.911163,36.612595 257.880798,36.209660 
	C257.876953,36.158302 257.615753,36.126328 257.473755,36.085369 
	C257.490784,36.499195 257.507843,36.913025 257.888397,37.424755 
M267.627136,40.792545 
	C267.786224,40.985538 267.945312,41.178532 268.104401,41.371525 
	C268.207825,41.275753 268.311249,41.179981 268.414673,41.084206 
	C268.232452,40.912308 268.050262,40.740406 267.627136,40.792545 
M158.362701,35.821667 
	C158.260406,36.060020 158.158112,36.298370 158.055817,36.536724 
	C158.220261,36.372578 158.384705,36.208435 158.362701,35.821667 
M357.848114,36.035652 
	C358.033325,36.153015 358.218567,36.270378 358.403778,36.387733 
	C358.285645,36.202942 358.167480,36.018154 357.848114,36.035652 
M80.909958,42.616215 
	C80.909958,42.616215 81.147804,42.449787 81.147804,42.449787 
	C81.147804,42.449787 80.839043,42.470692 80.909958,42.616215 
M311.911530,35.363777 
	C311.911530,35.363777 311.987335,35.626945 311.987335,35.626945 
	C311.987335,35.626945 312.072845,35.366066 311.911530,35.363777 
M41.092796,36.639618 
	C41.092796,36.639618 41.014793,36.369900 41.014793,36.369900 
	C41.014793,36.369900 40.927361,36.637470 41.092796,36.639618 
M232.907196,36.360386 
	C232.907196,36.360386 232.985214,36.630096 232.985214,36.630096 
	C232.985214,36.630096 233.072647,36.362534 232.907196,36.360386 
M282.471100,41.497368 
	C282.471100,41.497368 282.513794,41.480743 282.471100,41.497368 
M373.503693,32.468216 
	C373.503693,32.468216 373.522369,32.514359 373.503693,32.468216 
M173.503662,32.468208 
	C173.503662,32.468208 173.522385,32.514351 173.503662,32.468208 
M56.469051,35.496681 
	C56.469051,35.496681 56.514202,35.478619 56.469051,35.496681 
M139.532120,35.504158 
	C139.532120,35.504158 139.484970,35.523415 139.532120,35.504158 
M248.503342,35.469074 
	C248.503342,35.469074 248.521408,35.514233 248.503342,35.469074 
M273.531067,35.503876 
	C273.531067,35.503876 273.485779,35.522217 273.531067,35.503876 
M339.466980,35.496361 
	C339.466980,35.496361 339.514130,35.477097 339.466980,35.496361 
M111.470802,36.497364 
	C111.470802,36.497364 111.513496,36.480721 111.470802,36.497364 
M339.503479,39.467644 
	C339.503479,39.467644 339.522858,39.514881 339.503479,39.467644 
M139.466904,39.496319 
	C139.466904,39.496319 139.514160,39.476959 139.466904,39.496319 
z"/>
<path fill="#98984D" opacity="1.000000" stroke="none" 
	d="
M226.972427,137.020874 
	C157.541809,137.020874 88.111206,137.020874 18.341619,137.020874 
	C18.341619,123.276810 18.341619,110.037262 18.341619,95.995506 
	C87.594376,95.995506 156.816727,95.995506 226.848251,95.993782 
	C228.113861,95.987732 228.570312,95.983406 229.026764,95.979088 
	C298.790588,95.979088 368.554443,95.979088 438.657654,95.979088 
	C438.657654,109.722931 438.657654,122.962379 438.657654,137.004166 
	C369.071991,137.004166 299.516510,137.004166 229.151703,137.005859 
	C227.885742,137.011993 227.429092,137.016434 226.972427,137.020874 
M273.500000,96.997162 
	C188.776688,96.997162 104.053375,96.997162 19.415880,96.997162 
	C19.415880,110.403587 19.415880,123.114395 19.415880,135.745621 
	C159.053696,135.745621 298.272644,135.745621 437.672546,135.745621 
	C437.672546,122.777748 437.672546,110.068977 437.672546,96.997162 
	C383.062073,96.997162 328.781036,96.997162 273.500000,96.997162 
z"/>
<path fill="#DDDD90" opacity="1.000000" stroke="none" 
	d="
M226.984528,137.487350 
	C227.429092,137.016434 227.885742,137.011993 228.684814,137.014191 
	C229.027237,143.156693 229.027237,149.292526 229.027237,155.712189 
	C305.389832,155.712189 381.441345,155.712189 457.747009,155.712189 
	C457.747009,119.655342 457.747009,83.717873 457.747009,47.121010 
	C452.223480,47.121010 446.553864,47.121010 440.884277,47.121010 
	C440.889252,46.824501 440.894226,46.527988 440.899200,46.231480 
	C446.682587,46.231480 452.465973,46.231480 458.625549,46.231480 
	C458.625549,82.888840 458.625549,119.611008 458.625549,156.828491 
	C382.363586,156.828491 305.977631,156.828491 229.030441,156.828491 
	C229.030441,163.248245 229.030441,169.183945 229.124817,175.583389 
	C228.721405,176.364594 228.223587,176.682053 227.403046,176.971771 
	C227.052414,163.947311 227.024521,150.950562 226.984528,137.487350 
z"/>
<path fill="#98984D" opacity="1.000000" stroke="none" 
	d="
M35.628681,74.051353 
	C37.511761,74.700638 39.392532,75.907829 41.278267,75.915634 
	C70.259819,76.035599 99.242027,76.003113 128.224075,75.998817 
	C225.163757,75.984444 322.103455,75.967171 419.500732,75.853653 
	C418.305023,76.170441 416.652039,76.944992 414.998291,76.946701 
	C353.319244,77.010391 291.640167,77.002708 229.151733,77.006119 
	C227.885727,77.012024 227.429047,77.016495 226.972366,77.020966 
	C165.419357,77.013634 103.866318,77.023201 42.313446,76.926529 
	C40.225594,76.923256 38.139420,75.851074 35.775917,74.740448 
	C35.499374,74.203773 35.628681,74.051353 35.628681,74.051353 
z"/>
<path fill="#98984D" opacity="1.000000" stroke="none" 
	d="
M420.041901,16.902613 
	C417.809143,17.141268 415.650482,17.009298 413.491821,17.009073 
	C287.977600,16.995974 162.463364,16.993784 36.481861,16.970650 
	C38.059780,16.634228 40.104748,16.042795 42.150211,16.041100 
	C103.446297,15.990300 164.742432,15.997794 226.505585,15.987621 
	C227.429184,15.983516 227.885757,15.987904 228.684662,15.985712 
	C290.955261,15.986612 352.883514,15.989196 414.811768,16.026367 
	C416.579926,16.027428 418.347931,16.396166 420.041901,16.902613 
z"/>
<path fill="#DDDD90" opacity="1.000000" stroke="none" 
	d="
M226.984619,77.487030 
	C227.429047,77.016495 227.885727,77.012024 228.684845,77.014252 
	C229.019119,83.029755 229.010956,89.038544 229.014771,95.513214 
	C228.570312,95.983406 228.113861,95.987732 227.315155,95.985580 
	C226.980881,89.970428 226.988892,83.961769 226.984619,77.487030 
z"/>
<path fill="#C0C09B" opacity="1.000000" stroke="none" 
	d="
M461.474762,33.482395 
	C461.643555,35.054344 461.812347,36.626293 461.981140,38.198242 
	C461.551880,38.231674 461.122589,38.265106 460.693298,38.298538 
	C460.693298,37.220032 460.693298,36.141529 460.841248,34.525867 
	C461.151031,33.819939 461.312897,33.651169 461.474762,33.482395 
z"/>
<path fill="#C0C09B" opacity="1.000000" stroke="none" 
	d="
M460.735352,34.230782 
	C460.662415,34.020599 460.843353,33.568348 461.249512,33.299248 
	C461.312897,33.651169 461.151031,33.819939 460.735352,34.230782 
z"/>
<path fill="#010101" opacity="1.000000" stroke="none" 
	d="
M31.787701,68.473015 
	C31.778509,68.420578 31.858934,68.462563 31.858625,68.491821 
	C31.858316,68.521088 31.796892,68.525452 31.787701,68.473015 
z"/>
<path fill="#010101" opacity="1.000000" stroke="none" 
	d="
M35.629288,74.074661 
	C35.628681,74.051353 35.499374,74.203773 35.553047,74.286484 
	C35.606716,74.369202 35.633320,74.229637 35.605316,74.188522 
	C35.577309,74.147408 35.629894,74.097969 35.629288,74.074661 
z"/>
<path fill="#010101" opacity="1.000000" stroke="none" 
	d="
M33.787693,71.473030 
	C33.778500,71.420593 33.858936,71.462578 33.858627,71.491837 
	C33.858315,71.521103 33.796886,71.525467 33.787693,71.473030 
z"/>
<path fill="#010101" opacity="1.000000" stroke="none" 
	d="
M19.784048,42.474129 
	C19.835732,42.499889 19.804670,42.607758 19.779659,42.604794 
	C19.754646,42.601830 19.732365,42.448368 19.784048,42.474129 
z"/>
<path fill="#010101" opacity="1.000000" stroke="none" 
	d="
M29.787697,65.473022 
	C29.778505,65.420586 29.858936,65.462563 29.858627,65.491821 
	C29.858316,65.521088 29.796886,65.525467 29.787697,65.473022 
z"/>
<path fill="#010101" opacity="1.000000" stroke="none" 
	d="
M23.792484,36.471844 
	C23.843868,36.496410 23.813156,36.602196 23.788481,36.599144 
	C23.763805,36.596096 23.741100,36.447277 23.792484,36.471844 
z"/>
<path fill="#010101" opacity="1.000000" stroke="none" 
	d="
M19.797182,50.478394 
	C19.787668,50.426743 19.867281,50.467201 19.866896,50.495811 
	C19.866510,50.524422 19.806696,50.530041 19.797182,50.478394 
z"/>
<path fill="#010101" opacity="1.000000" stroke="none" 
	d="
M21.787697,53.473022 
	C21.778505,53.420589 21.858936,53.462570 21.858627,53.491829 
	C21.858316,53.521091 21.796886,53.525459 21.787697,53.473022 
z"/>
<path fill="#010101" opacity="1.000000" stroke="none" 
	d="
M23.787697,56.473022 
	C23.778505,56.420589 23.858936,56.462570 23.858627,56.491829 
	C23.858316,56.521091 23.796886,56.525459 23.787697,56.473022 
z"/>
<path fill="#010101" opacity="1.000000" stroke="none" 
	d="
M25.787697,59.473022 
	C25.778505,59.420589 25.858936,59.462570 25.858627,59.491829 
	C25.858316,59.521091 25.796886,59.525459 25.787697,59.473022 
z"/>
<path fill="#010101" opacity="1.000000" stroke="none" 
	d="
M27.787697,62.473022 
	C27.778505,62.420589 27.858936,62.462570 27.858627,62.491829 
	C27.858316,62.521091 27.796886,62.525459 27.787697,62.473022 
z"/>
<path fill="#010101" opacity="1.000000" stroke="none" 
	d="
M25.792484,33.471844 
	C25.843868,33.496410 25.813156,33.602196 25.788481,33.599144 
	C25.763805,33.596096 25.741100,33.447277 25.792484,33.471844 
z"/>
<path fill="#010101" opacity="1.000000" stroke="none" 
	d="
M27.792490,30.471848 
	C27.843874,30.496414 27.813158,30.602192 27.788483,30.599144 
	C27.763807,30.596094 27.741106,30.447281 27.792490,30.471848 
z"/>
<path fill="#010101" opacity="1.000000" stroke="none" 
	d="
M29.792490,27.471848 
	C29.843874,27.496414 29.813158,27.602192 29.788483,27.599144 
	C29.763807,27.596094 29.741106,27.447281 29.792490,27.471848 
z"/>
<path fill="#010101" opacity="1.000000" stroke="none" 
	d="
M31.792486,24.471848 
	C31.843870,24.496416 31.813154,24.602196 31.788479,24.599148 
	C31.763803,24.596098 31.741102,24.447281 31.792486,24.471848 
z"/>
<path fill="#010101" opacity="1.000000" stroke="none" 
	d="
M21.792484,39.471844 
	C21.843868,39.496410 21.813156,39.602196 21.788481,39.599144 
	C21.763805,39.596096 21.741100,39.447277 21.792484,39.471844 
z"/>
<path fill="#010101" opacity="1.000000" stroke="none" 
	d="
M33.792507,21.471809 
	C33.843891,21.496389 33.813175,21.602171 33.788498,21.599121 
	C33.763824,21.596073 33.741123,21.447229 33.792507,21.471809 
z"/>
<path fill="#010101" opacity="1.000000" stroke="none" 
	d="
M164.869751,35.906075 
	C166.289734,38.093029 167.428787,40.125500 169.399368,43.641724 
	C166.650269,42.166271 164.968475,41.263657 163.157333,40.291611 
	C162.965378,40.603302 162.311737,41.664577 161.513260,42.961037 
	C158.823685,37.460495 159.560532,35.952606 164.869751,35.906075 
z"/>
<path fill="#010101" opacity="1.000000" stroke="none" 
	d="
M360.033386,38.507645 
	C361.193237,37.327938 362.254883,36.107651 363.511902,35.853439 
	C364.174164,35.719501 365.272583,37.194160 366.003601,38.082748 
	C366.989258,39.280914 367.810577,40.614250 368.286743,42.921974 
	C366.579895,42.005676 364.873016,41.089382 363.183167,40.182209 
	C362.995392,40.553276 362.461548,41.608231 361.927704,42.663185 
	C361.550385,42.666801 361.173065,42.670418 360.795746,42.674030 
	C360.535950,41.405468 360.276123,40.136906 360.033386,38.507645 
z"/>
<path fill="#010101" opacity="1.000000" stroke="none" 
	d="
M240.708740,36.129040 
	C241.379807,38.153503 241.783386,39.971973 242.275772,42.190525 
	C239.632980,42.366154 237.750107,42.491283 235.926071,42.612499 
	C234.112671,36.316895 234.545349,35.712833 240.708740,36.129040 
M239.167053,39.361115 
	C238.968750,39.209930 238.770447,39.058743 238.572128,38.907558 
	C238.697861,39.119141 238.823593,39.330723 239.167053,39.361115 
z"/>
<path fill="#010101" opacity="1.000000" stroke="none" 
	d="
M46.174072,42.498837 
	C41.747231,42.733555 42.943996,39.637829 43.297710,37.766541 
	C43.456940,36.924164 46.031853,35.631538 46.780502,36.005394 
	C48.135937,36.682266 48.943924,38.455399 49.980465,39.770847 
	C48.828644,40.657429 47.676823,41.544010 46.174072,42.498837 
M46.494877,39.294991 
	C46.716568,39.259201 46.938263,39.223412 47.159954,39.187626 
	C46.928871,39.129433 46.697788,39.071236 46.494877,39.294991 
z"/>
<path fill="#0F171A" opacity="1.000000" stroke="none" 
	d="
M215.605392,37.112183 
	C216.788269,36.075787 217.971161,35.039398 219.668411,33.552345 
	C220.266312,36.118496 220.925690,38.369259 221.189560,40.665466 
	C221.232315,41.037491 219.519684,41.611237 217.905853,41.988815 
	C216.432007,41.926868 215.670761,41.967846 214.909500,42.008823 
	C214.909500,42.008823 214.988953,42.004478 215.141632,41.678307 
	C215.181427,40.574493 215.068558,39.796852 215.144226,38.831619 
	C215.423630,38.133411 215.514511,37.622799 215.605392,37.112183 
M219.519638,38.493820 
	C219.519638,38.493820 219.465378,38.514790 219.519638,38.493820 
z"/>
<path fill="#010101" opacity="1.000000" stroke="none" 
	d="
M86.158707,39.241333 
	C86.216751,40.673489 86.199654,41.735703 86.182556,42.797913 
	C85.176117,42.216339 83.408508,41.748253 83.301796,41.032536 
	C82.939224,38.600727 83.163246,36.081455 83.163246,33.595589 
	C83.822990,33.528908 84.482742,33.462231 85.142487,33.395550 
	C85.456184,35.220829 85.769882,37.046112 86.158707,39.241333 
z"/>
<path fill="#010101" opacity="1.000000" stroke="none" 
	d="
M310.031616,37.950249 
	C310.671387,39.550133 311.297577,40.794373 311.923798,42.038612 
	C311.821869,42.395519 311.719940,42.752426 311.618042,43.109337 
	C310.273499,42.381390 308.009674,41.871246 307.774933,40.880383 
	C307.279053,38.787327 307.844055,36.442940 307.973846,34.201664 
	C308.557678,34.248573 309.141479,34.295486 309.725281,34.342400 
	C309.822906,35.426468 309.920502,36.510536 310.031616,37.950249 
z"/>
<path fill="#5CB85C" opacity="1.000000" stroke="none" 
	d="
M379.242706,41.943924 
	C377.406616,42.462070 375.570526,42.980217 374.310699,43.335739 
	C374.806610,39.338802 375.246307,35.795181 375.686005,32.251556 
	C376.148041,32.222790 376.610107,32.194023 377.072144,32.165257 
	C377.072144,34.811237 377.072144,37.457222 377.219116,40.857712 
	C377.991638,41.722790 378.617188,41.833355 379.242706,41.943924 
z"/>
<path fill="#5CB85C" opacity="1.000000" stroke="none" 
	d="
M179.242722,41.943932 
	C177.406616,42.462070 175.570511,42.980209 174.310699,43.335720 
	C174.806656,39.338810 175.246353,35.795200 175.686050,32.251591 
	C176.148071,32.222816 176.610107,32.194046 177.072128,32.165276 
	C177.072128,34.811256 177.072128,37.457237 177.219147,40.857735 
	C177.991684,41.722809 178.617203,41.833366 179.242722,41.943932 
z"/>
<path fill="#010101" opacity="1.000000" stroke="none" 
	d="
M109.255013,39.417969 
	C110.333031,40.506088 111.302246,41.255436 112.573547,42.238342 
	C107.152847,42.599636 106.386101,41.394009 108.181755,34.536278 
	C108.503242,36.050587 108.824722,37.564892 109.255013,39.417969 
z"/>
<path fill="#010101" opacity="1.000000" stroke="none" 
	d="
M293.083069,37.075905 
	C292.608521,38.797314 292.133972,40.518719 291.659424,42.240128 
	C291.101807,42.082314 290.544220,41.924496 289.986633,41.766682 
	C289.141876,39.731464 287.666351,37.521950 292.615173,36.991913 
	C293.018127,37.007526 293.083069,37.075905 293.083069,37.075905 
z"/>
<path fill="#010101" opacity="1.000000" stroke="none" 
	d="
M55.296677,40.237251 
	C56.019287,39.152504 56.833252,38.384781 57.647217,37.617058 
	C57.839760,38.763657 58.032299,39.910255 58.224838,41.056854 
	C57.279236,40.889328 56.333637,40.721806 55.296677,40.237251 
z"/>
<path fill="#010101" opacity="1.000000" stroke="none" 
	d="
M250.323334,40.904766 
	C249.169510,40.765522 248.188766,40.353165 247.208038,39.940804 
	C247.704620,39.078167 248.201218,38.215530 248.697800,37.352894 
	C249.297348,38.445812 249.896881,39.538731 250.323334,40.904766 
z"/>
<path fill="#010101" opacity="1.000000" stroke="none" 
	d="
M274.996155,39.366100 
	C274.892242,36.235706 275.711182,34.519455 279.051636,35.423141 
	C277.700104,37.418396 276.449860,39.264122 275.199280,41.110340 
	C275.160400,40.841419 275.078766,40.276764 274.996155,39.366100 
z"/>
<path fill="#010101" opacity="1.000000" stroke="none" 
	d="
M66.085167,42.656761 
	C65.709801,41.925720 65.612740,41.218796 65.515671,40.511875 
	C67.061058,40.511875 68.606445,40.511875 70.151833,40.511875 
	C70.221954,41.010387 70.292076,41.508900 70.362198,42.007412 
	C69.029289,42.231903 67.696373,42.456394 66.085167,42.656761 
z"/>
<path fill="#010101" opacity="1.000000" stroke="none" 
	d="
M261.447174,40.488777 
	C260.942963,42.981510 260.942963,42.981510 256.673065,40.978004 
	C258.179688,40.778912 259.686340,40.579819 261.447174,40.488777 
z"/>
<path fill="#19242A" opacity="1.000000" stroke="none" 
	d="
M208.928558,42.022934 
	C206.286987,41.988579 203.245285,42.240250 206.836029,38.229553 
	C208.012360,38.510067 208.552536,38.766655 209.047668,39.024605 
	C209.002640,39.025970 208.998413,38.935966 208.943756,39.323933 
	C208.902267,40.482243 208.915421,41.252590 208.928558,42.022934 
z"/>
<path fill="#010101" opacity="1.000000" stroke="none" 
	d="
M186.693359,40.547607 
	C186.937729,41.291229 186.999741,41.743443 187.061768,42.195656 
	C186.447403,41.945099 185.314362,41.721840 185.299515,41.439735 
	C185.162491,38.835625 185.218674,36.221340 185.653107,33.580990 
	C185.939072,35.806061 186.225037,38.031132 186.693359,40.547607 
z"/>
<path fill="#010101" opacity="1.000000" stroke="none" 
	d="
M385.136292,41.063396 
	C385.066406,38.414871 385.066406,36.125187 385.066406,33.835503 
	C385.237518,33.809872 385.408600,33.784241 385.579712,33.758610 
	C386.015228,36.563969 386.450745,39.369331 386.972412,42.729645 
	C386.246338,42.192184 385.726257,41.807209 385.136292,41.063396 
z"/>
<path fill="#010101" opacity="1.000000" stroke="none" 
	d="
M101.736603,32.868153 
	C103.023094,32.978989 103.995605,33.158016 104.968109,33.337044 
	C104.929222,33.770943 104.890335,34.204842 104.851448,34.638741 
	C103.125893,34.788002 101.400337,34.937263 98.168259,35.216843 
	C99.937988,33.976704 100.680298,33.456524 101.736603,32.868153 
z"/>
<path fill="#010101" opacity="1.000000" stroke="none" 
	d="
M326.833130,37.827740 
	C326.812195,39.454674 326.704712,40.759632 326.597260,42.064587 
	C326.061157,41.994896 325.525055,41.925205 324.988953,41.855515 
	C325.323914,40.238239 325.658875,38.620968 325.993835,37.003693 
	C326.139221,37.045780 326.305634,37.057110 326.424408,37.138214 
	C326.554718,37.227180 326.641052,37.380493 326.833130,37.827740 
z"/>
<path fill="#010101" opacity="1.000000" stroke="none" 
	d="
M89.987686,40.520222 
	C91.591049,40.666199 92.958107,40.986153 94.325172,41.306110 
	C94.160774,41.847870 93.996376,42.389629 93.831978,42.931389 
	C92.471786,42.185658 91.111588,41.439926 89.987686,40.520222 
z"/>
<path fill="#6DA1B8" opacity="1.000000" stroke="none" 
	d="
M209.125641,42.330658 
	C208.915421,41.252590 208.902267,40.482243 209.196808,39.316353 
	C209.672150,38.940365 209.839783,38.959927 210.198318,39.183109 
	C210.524338,39.065300 210.659439,38.743866 211.115616,38.186928 
	C211.669525,38.078861 211.902374,38.206303 212.081543,38.861843 
	C212.358154,40.258751 212.688461,41.127556 213.018753,41.996361 
	C211.786743,42.210373 210.554733,42.424377 209.125641,42.330658 
z"/>
<path fill="#010101" opacity="1.000000" stroke="none" 
	d="
M379.564697,41.951706 
	C378.617188,41.833355 377.991638,41.722790 377.283936,41.303673 
	C378.795685,40.699699 380.389557,40.404270 381.983459,40.108841 
	C382.070251,40.489826 382.157013,40.870815 382.243805,41.251804 
	C381.458099,41.487698 380.672424,41.723595 379.564697,41.951706 
z"/>
<path fill="#10171B" opacity="1.000000" stroke="none" 
	d="
M207.900467,34.052811 
	C209.221985,34.485565 210.543518,34.918324 211.678406,35.743340 
	C210.854950,36.426872 210.218155,36.718147 209.297699,36.752083 
	C208.642838,35.680767 208.271652,34.866787 207.900467,34.052811 
z"/>
<path fill="#010101" opacity="1.000000" stroke="none" 
	d="
M179.564728,41.951706 
	C178.617203,41.833366 177.991684,41.722809 177.283981,41.303696 
	C178.795670,40.699722 180.389526,40.404297 181.983398,40.108868 
	C182.070175,40.489841 182.156952,40.870815 182.243744,41.251789 
	C181.458069,41.487686 180.672409,41.723587 179.564728,41.951706 
z"/>
<path fill="#010101" opacity="1.000000" stroke="none" 
	d="
M142.620056,36.708481 
	C143.619522,36.172478 144.802811,35.795528 145.986099,35.418579 
	C146.059052,35.795971 146.132004,36.173363 146.204941,36.550755 
	C145.071259,36.656349 143.937592,36.761944 142.620056,36.708481 
z"/>
<path fill="#010101" opacity="1.000000" stroke="none" 
	d="
M209.581345,37.009422 
	C210.218155,36.718147 210.854950,36.426872 211.756226,36.107094 
	C212.037918,36.682690 212.055161,37.286793 212.103455,38.153130 
	C212.134521,38.415363 212.135239,38.333744 212.135239,38.333744 
	C211.902374,38.206303 211.669525,38.078861 211.009796,38.186104 
	C210.279755,38.483669 210.087921,38.669903 210.007416,38.979488 
	C209.839783,38.959927 209.672150,38.940365 209.251465,38.928383 
	C208.998413,38.935966 209.002640,39.025970 209.055725,38.668312 
	C209.266327,37.876911 209.423828,37.443165 209.581345,37.009422 
z"/>
<path fill="#010101" opacity="1.000000" stroke="none" 
	d="
M143.139206,40.943390 
	C143.822556,40.354580 144.763931,39.799183 145.705292,39.243786 
	C145.857605,39.601028 146.009933,39.958275 146.162247,40.315517 
	C145.240570,40.535950 144.318893,40.756378 143.139206,40.943390 
z"/>
<path fill="#010101" opacity="1.000000" stroke="none" 
	d="
M345.592163,39.535011 
	C344.858795,40.148422 343.857300,40.728458 342.855774,41.308498 
	C342.708679,40.975708 342.561584,40.642918 342.414490,40.310131 
	C343.384338,40.040630 344.354187,39.771133 345.592163,39.535011 
z"/>
<path fill="#010101" opacity="1.000000" stroke="none" 
	d="
M345.035645,35.557671 
	C344.556366,36.102474 343.807709,36.702377 343.059082,37.302280 
	C342.859741,36.993164 342.660400,36.684048 342.461060,36.374931 
	C343.229462,36.120880 343.997894,35.866829 345.035645,35.557671 
z"/>
<path fill="#B7B792" opacity="1.000000" stroke="none" 
	d="
M245.478867,36.470230 
	C245.645447,38.082256 245.812027,39.694279 245.978592,41.306305 
	C245.551132,41.318226 245.123657,41.330151 244.696182,41.342072 
	C244.696182,40.250984 244.696182,39.159893 244.841110,37.527267 
	C245.150314,36.813900 245.314590,36.642063 245.478867,36.470230 
z"/>
<path fill="#010101" opacity="1.000000" stroke="none" 
	d="
M133.142578,36.081596 
	C134.438568,36.095394 135.468842,36.157440 136.499100,36.219486 
	C136.491364,36.416294 136.483643,36.613106 136.475906,36.809914 
	C135.250351,36.809914 134.024643,36.817818 132.799530,36.794434 
	C132.704788,36.792622 132.522827,36.550270 132.544037,36.456543 
	C132.572906,36.329063 132.758484,36.237064 133.142578,36.081596 
z"/>
<path fill="#010101" opacity="1.000000" stroke="none" 
	d="
M123.037384,35.940899 
	C124.807922,35.940899 126.578468,35.940899 128.348999,35.940899 
	C128.339874,36.280739 128.330750,36.620583 128.321609,36.960423 
	C126.726151,36.792313 125.130699,36.624199 123.263809,36.224640 
	C122.992371,35.993191 123.037384,35.940899 123.037384,35.940899 
z"/>
<path fill="#010101" opacity="1.000000" stroke="none" 
	d="
M333.154053,36.928883 
	C334.025574,36.537605 335.155853,36.190239 336.286163,35.842869 
	C336.356384,36.156048 336.426636,36.469227 336.496857,36.782410 
	C335.468872,36.845871 334.440857,36.909332 333.154053,36.928883 
z"/>
<path fill="#B7B792" opacity="1.000000" stroke="none" 
	d="
M53.478844,36.470215 
	C53.645435,38.082241 53.812027,39.694263 53.978619,41.306290 
	C53.551144,41.318218 53.123669,41.330143 52.696194,41.342072 
	C52.696194,40.250984 52.696194,39.159893 52.841114,37.527271 
	C53.150307,36.813892 53.314575,36.642052 53.478844,36.470215 
z"/>
<path fill="#010101" opacity="1.000000" stroke="none" 
	d="
M70.422943,36.537338 
	C70.051323,37.067490 69.607185,37.352215 69.163048,37.636940 
	C69.037827,37.141674 68.912605,36.646408 68.787376,36.151138 
	C69.308388,36.198063 69.829407,36.244987 70.422943,36.537338 
z"/>
<path fill="#010101" opacity="1.000000" stroke="none" 
	d="
M123.037804,39.939972 
	C124.808319,39.939972 126.578842,39.939972 128.349365,39.939972 
	C128.340210,40.280182 128.331070,40.620396 128.321930,40.960606 
	C126.726158,40.792492 125.130386,40.624374 123.263412,40.224632 
	C122.992195,39.993008 123.037804,39.939972 123.037804,39.939972 
z"/>
<path fill="#010101" opacity="1.000000" stroke="none" 
	d="
M135.336731,40.978722 
	C134.276855,40.992619 133.499344,40.992619 132.721848,40.992619 
	C132.710220,40.748257 132.698593,40.503895 132.686966,40.259533 
	C133.725586,40.196697 134.763870,40.127010 135.803177,40.078999 
	C135.945984,40.072403 136.093765,40.173508 136.239243,40.224751 
	C136.032532,40.471443 135.825806,40.718136 135.336731,40.978722 
z"/>
<path fill="#010101" opacity="1.000000" stroke="none" 
	d="
M260.566101,37.010727 
	C260.944489,36.467606 261.383179,36.169067 261.821869,35.870525 
	C261.959595,36.371948 262.097321,36.873371 262.235046,37.374794 
	C261.698822,37.334965 261.162628,37.295135 260.566101,37.010727 
z"/>
<path fill="#010101" opacity="1.000000" stroke="none" 
	d="
M292.440704,44.383537 
	C293.077972,44.597939 293.473450,44.898167 293.868896,45.198395 
	C293.107605,45.404945 292.346313,45.611496 291.585022,45.818043 
	C291.789642,45.368484 291.994263,44.918926 292.440704,44.383537 
z"/>
<path fill="#010101" opacity="1.000000" stroke="none" 
	d="
M335.336731,40.978722 
	C334.276855,40.992619 333.499329,40.992619 332.721802,40.992619 
	C332.710175,40.748249 332.698578,40.503883 332.686951,40.259514 
	C333.725586,40.196682 334.763916,40.126999 335.803223,40.078999 
	C335.946045,40.072403 336.093811,40.173512 336.239288,40.224762 
	C336.032532,40.471447 335.825775,40.718140 335.336731,40.978722 
z"/>
<path fill="#010101" opacity="1.000000" stroke="none" 
	d="
M252.162750,34.457085 
	C252.416000,33.823032 252.735825,33.417912 253.055634,33.012791 
	C253.234772,33.422085 253.413925,33.831375 253.593063,34.240669 
	C253.138474,34.389118 252.683899,34.537567 252.162750,34.457085 
z"/>
<path fill="#86C5E2" opacity="1.000000" stroke="none" 
	d="
M209.297699,36.752083 
	C209.423828,37.443165 209.266327,37.876911 209.100769,38.666946 
	C208.552536,38.766655 208.012360,38.510067 207.170105,38.134094 
	C206.975998,36.776489 207.083969,35.538269 207.546204,34.176430 
	C208.271652,34.866787 208.642838,35.680767 209.297699,36.752083 
z"/>
<path fill="#010101" opacity="1.000000" stroke="none" 
	d="
M60.419632,33.139580 
	C60.863800,33.553276 61.131828,34.123573 61.399857,34.693871 
	C61.120975,34.800377 60.842094,34.906887 60.563213,35.013397 
	C60.456638,34.440994 60.350063,33.868591 60.419632,33.139580 
z"/>
<path fill="#0D1417" opacity="1.000000" stroke="none" 
	d="
M212.081543,38.861843 
	C212.135239,38.333744 212.134521,38.415363 212.129150,38.455315 
	C212.123764,38.495262 212.567139,38.724720 213.047638,38.850845 
	C213.696106,38.989166 213.864075,39.001366 213.963745,39.384193 
	C213.920609,40.506775 213.945770,41.258728 213.970917,42.010677 
	C213.970932,42.010677 213.494766,42.008511 213.256760,42.002434 
	C212.688461,41.127556 212.358154,40.258751 212.081543,38.861843 
z"/>
<path fill="#010101" opacity="1.000000" stroke="none" 
	d="
M97.102066,36.405457 
	C96.538597,36.451702 96.137177,36.330780 95.735764,36.209858 
	C95.848068,35.945568 95.960365,35.681274 96.072662,35.416981 
	C96.469818,35.690750 96.866966,35.964520 97.102066,36.405457 
z"/>
<path fill="#181814" opacity="1.000000" stroke="none" 
	d="
M90.727737,36.379330 
	C90.420151,36.806458 90.090462,37.018143 89.760773,37.229832 
	C89.712662,36.941177 89.561661,36.435608 89.634148,36.401230 
	C89.956352,36.248409 90.342575,36.230545 90.727737,36.379330 
z"/>
<path fill="#010101" opacity="1.000000" stroke="none" 
	d="
M214.032028,39.013561 
	C213.864075,39.001366 213.696106,38.989166 213.277618,38.947945 
	C213.708527,38.345123 214.389999,37.771320 215.338440,37.154854 
	C215.514511,37.622799 215.423630,38.133411 214.913574,38.785492 
	C214.494400,38.926964 214.032028,39.013561 214.032028,39.013561 
z"/>
<path fill="#010101" opacity="1.000000" stroke="none" 
	d="
M75.747597,40.680557 
	C76.050278,40.740421 76.232513,40.912315 76.414742,41.084213 
	C76.311325,41.180000 76.207909,41.275791 76.104485,41.371582 
	C75.945374,41.178581 75.786255,40.985580 75.747597,40.680557 
z"/>
<path fill="#010101" opacity="1.000000" stroke="none" 
	d="
M66.027191,37.326180 
	C65.662956,37.075630 65.439674,36.719826 65.250824,36.346600 
	C65.236069,36.317451 65.461914,36.166557 65.575928,36.072247 
	C65.776245,36.453663 65.976562,36.835079 66.027191,37.326180 
z"/>
<path fill="#010101" opacity="1.000000" stroke="none" 
	d="
M257.706635,37.375801 
	C257.507843,36.913025 257.490784,36.499195 257.473755,36.085373 
	C257.615753,36.126328 257.876953,36.158302 257.880798,36.209660 
	C257.911163,36.612595 257.892181,37.019249 257.706635,37.375801 
z"/>
<path fill="#010101" opacity="1.000000" stroke="none" 
	d="
M267.747589,40.680527 
	C268.050262,40.740406 268.232452,40.912308 268.414673,41.084206 
	C268.311249,41.179981 268.207825,41.275753 268.104401,41.371529 
	C267.945312,41.178532 267.786224,40.985538 267.747589,40.680527 
z"/>
<path fill="#74ABC3" opacity="1.000000" stroke="none" 
	d="
M213.963745,39.384193 
	C214.032028,39.013561 214.494400,38.926964 214.725037,38.973087 
	C215.068558,39.796852 215.181427,40.574493 215.143463,41.718048 
	C214.819351,42.113705 214.646057,42.143452 214.221832,42.091938 
	C213.945770,41.258728 213.920609,40.506775 213.963745,39.384193 
z"/>
<path fill="#74ABC3" opacity="1.000000" stroke="none" 
	d="
M215.020874,42.343475 
	C215.670761,41.967846 216.432007,41.926868 217.580017,41.946793 
	C217.021927,42.231174 216.077087,42.454651 215.020874,42.343475 
z"/>
<path fill="#010101" opacity="1.000000" stroke="none" 
	d="
M292.988647,36.970718 
	C293.285736,36.595558 293.602020,36.245872 293.949921,35.931107 
	C294.001953,35.884041 294.202209,36.000797 294.333893,36.041759 
	C294.062042,36.347279 293.790222,36.652802 293.300720,37.017113 
	C293.083069,37.075905 293.018127,37.007526 292.988647,36.970718 
z"/>
<path fill="#010101" opacity="1.000000" stroke="none" 
	d="
M158.455917,35.932976 
	C158.384705,36.208435 158.220261,36.372578 158.055817,36.536720 
	C158.158112,36.298370 158.260406,36.060020 158.455917,35.932976 
z"/>
<path fill="#010101" opacity="1.000000" stroke="none" 
	d="
M357.948730,35.934509 
	C358.167480,36.018154 358.285645,36.202942 358.403778,36.387733 
	C358.218567,36.270378 358.033325,36.153015 357.948730,35.934509 
z"/>
<path fill="#010101" opacity="1.000000" stroke="none" 
	d="
M80.874496,42.543453 
	C80.839043,42.470692 81.147804,42.449787 81.147804,42.449787 
	C81.147804,42.449787 80.909958,42.616215 80.874496,42.543453 
z"/>
<path fill="#010101" opacity="1.000000" stroke="none" 
	d="
M311.992188,35.364922 
	C312.072845,35.366066 311.987335,35.626945 311.987335,35.626945 
	C311.987335,35.626945 311.911530,35.363777 311.992188,35.364922 
z"/>
<path fill="#010101" opacity="1.000000" stroke="none" 
	d="
M41.010078,36.638542 
	C40.927361,36.637470 41.014793,36.369900 41.014793,36.369900 
	C41.014793,36.369900 41.092796,36.639618 41.010078,36.638542 
z"/>
<path fill="#010101" opacity="1.000000" stroke="none" 
	d="
M232.989929,36.361458 
	C233.072647,36.362534 232.985214,36.630096 232.985214,36.630096 
	C232.985214,36.630096 232.907196,36.360386 232.989929,36.361458 
z"/>
<path fill="#010101" opacity="1.000000" stroke="none" 
	d="
M303.876251,37.130547 
	C303.623749,36.922852 303.371277,36.715153 303.118805,36.507454 
	C303.346436,36.581120 303.574097,36.654789 303.874695,36.898117 
	C303.947662,37.067772 303.876251,37.130543 303.876251,37.130547 
z"/>
<path fill="#010101" opacity="1.000000" stroke="none" 
	d="
M303.988342,37.043175 
	C304.172607,37.324306 304.316162,37.630039 304.459686,37.935776 
	C304.296722,37.782475 304.133759,37.629173 303.923523,37.303207 
	C303.876251,37.130543 303.947662,37.067772 303.988342,37.043175 
z"/>
<path fill="#010101" opacity="1.000000" stroke="none" 
	d="
M282.492432,41.489056 
	C282.513794,41.480743 282.471100,41.497368 282.492432,41.489056 
z"/>
<path fill="#010101" opacity="1.000000" stroke="none" 
	d="
M373.513031,32.491287 
	C373.522369,32.514359 373.503693,32.468216 373.513031,32.491287 
z"/>
<path fill="#010101" opacity="1.000000" stroke="none" 
	d="
M173.513031,32.491280 
	C173.522385,32.514351 173.503662,32.468208 173.513031,32.491280 
z"/>
<path fill="#010101" opacity="1.000000" stroke="none" 
	d="
M56.491627,35.487648 
	C56.514202,35.478619 56.469051,35.496681 56.491627,35.487648 
z"/>
<path fill="#010101" opacity="1.000000" stroke="none" 
	d="
M122.966331,36.015820 
	C122.940292,36.038448 122.697990,35.812489 122.697990,35.812489 
	C122.697990,35.812489 122.932686,35.800652 122.985031,35.870773 
	C123.037384,35.940899 122.992371,35.993191 122.966331,36.015820 
z"/>
<path fill="#010101" opacity="1.000000" stroke="none" 
	d="
M139.508545,35.513786 
	C139.484970,35.523415 139.532120,35.504158 139.508545,35.513786 
z"/>
<path fill="#010101" opacity="1.000000" stroke="none" 
	d="
M248.512375,35.491653 
	C248.521408,35.514233 248.503342,35.469074 248.512375,35.491653 
z"/>
<path fill="#010101" opacity="1.000000" stroke="none" 
	d="
M273.508423,35.513046 
	C273.485779,35.522217 273.531067,35.503876 273.508423,35.513046 
z"/>
<path fill="#010101" opacity="1.000000" stroke="none" 
	d="
M339.490540,35.486729 
	C339.514130,35.477097 339.466980,35.496361 339.490540,35.486729 
z"/>
<path fill="#B7B792" opacity="1.000000" stroke="none" 
	d="
M52.728073,37.231926 
	C52.654343,37.015900 52.838577,36.553684 53.250828,36.280842 
	C53.314575,36.642052 53.150307,36.813892 52.728073,37.231926 
z"/>
<path fill="#010101" opacity="1.000000" stroke="none" 
	d="
M111.492149,36.489044 
	C111.513496,36.480721 111.470802,36.497364 111.492149,36.489044 
z"/>
<path fill="#010101" opacity="1.000000" stroke="none" 
	d="
M339.513184,39.491264 
	C339.522858,39.514881 339.503479,39.467644 339.513184,39.491264 
z"/>
<path fill="#B7B792" opacity="1.000000" stroke="none" 
	d="
M244.728073,37.231926 
	C244.654358,37.015903 244.838593,36.553688 245.250854,36.280853 
	C245.314590,36.642063 245.150314,36.813900 244.728073,37.231926 
z"/>
<path fill="#010101" opacity="1.000000" stroke="none" 
	d="
M139.490540,39.486641 
	C139.514160,39.476959 139.466904,39.496319 139.490540,39.486641 
z"/>
<path fill="#010101" opacity="1.000000" stroke="none" 
	d="
M122.965790,40.015930 
	C122.939377,40.038857 122.697174,39.811954 122.697174,39.811954 
	C122.697174,39.811954 122.932770,39.799629 122.985291,39.869801 
	C123.037804,39.939972 122.992195,39.993008 122.965790,40.015930 
z"/>
<path fill="#010101" opacity="1.000000" stroke="none" 
	d="
M274.000000,96.997162 
	C328.781036,96.997162 383.062073,96.997162 437.672546,96.997162 
	C437.672546,110.068977 437.672546,122.777748 437.672546,135.745621 
	C298.272644,135.745621 159.053696,135.745621 19.415880,135.745621 
	C19.415880,123.114395 19.415880,110.403587 19.415880,96.997162 
	C104.053375,96.997162 188.776688,96.997162 274.000000,96.997162 
M101.022736,114.093857 
	C100.839081,114.554993 100.655426,115.016129 100.697624,116.067184 
	C100.697624,117.156952 100.697624,118.246727 100.697624,119.336494 
	C101.124580,119.324493 101.551537,119.312492 101.978493,119.300491 
	C101.811668,117.690971 101.644852,116.081444 101.022736,114.093857 
z"/>
<path fill="#000000" opacity="1.000000" stroke="none" 
	d="
M239.058182,39.451710 
	C238.823593,39.330723 238.697861,39.119141 238.572128,38.907558 
	C238.770447,39.058743 238.968750,39.209930 239.058182,39.451710 
z"/>
<path fill="#000000" opacity="1.000000" stroke="none" 
	d="
M46.480789,39.154015 
	C46.697788,39.071236 46.928871,39.129433 47.159954,39.187626 
	C46.938263,39.223412 46.716568,39.259201 46.480789,39.154015 
z"/>
<path fill="#010101" opacity="1.000000" stroke="none" 
	d="
M219.492508,38.504303 
	C219.465378,38.514790 219.519638,38.493820 219.492508,38.504303 
z"/>
<path fill="#000000" opacity="1.000000" stroke="none" 
	d="
M210.198318,39.183109 
	C210.087921,38.669903 210.279755,38.483669 210.688721,38.421612 
	C210.659439,38.743866 210.524338,39.065300 210.198318,39.183109 
z"/>
<path fill="#B7B792" opacity="1.000000" stroke="none" 
	d="
M101.478027,114.471916 
	C101.644852,116.081444 101.811668,117.690971 101.978493,119.300491 
	C101.551537,119.312492 101.124580,119.324493 100.697624,119.336494 
	C100.697624,118.246727 100.697624,117.156952 100.841980,115.526611 
	C101.150238,114.814659 101.314133,114.643288 101.478027,114.471916 
z"/>
<path fill="#B7B792" opacity="1.000000" stroke="none" 
	d="
M100.729050,115.231651 
	C100.655426,115.016129 100.839081,114.554993 101.250381,114.282883 
	C101.314133,114.643288 101.150238,114.814659 100.729050,115.231651 
z"/>
</svg>