<svg width="211pt" height="231pt" viewBox="0.00 0.00 211.00 231.00" xmlns="http://www.w3.org/2000/svg" xmlns:xlink="http://www.w3.org/1999/xlink">
<g id="graph0" class="graph" transform="scale(1 1) rotate(0) translate(4 227.2)">
<title>G</title>
<!-- 11 -->
<g id="node1" class="node">
<title>11</title>
<ellipse fill="black" stroke="black" cx="101.4" cy="-208.8" rx="14.4" ry="14.4"/>
<text xml:space="preserve" text-anchor="middle" x="101.4" y="-205.2" font-family="Arial" font-size="12.00" fill="white">11</text>
</g>
<!-- 5 -->
<g id="node2" class="node">
<title>5</title>
<ellipse fill="black" stroke="black" cx="72.4" cy="-144" rx="14.4" ry="14.4"/>
<text xml:space="preserve" text-anchor="middle" x="72.4" y="-140.4" font-family="Arial" font-size="12.00" fill="white">5</text>
</g>
<!-- 11&#45;&gt;5 -->
<g id="edge1" class="edge">
<title>11-&gt;5</title>
<path fill="none" stroke="black" stroke-width="1.2" d="M95.67,-195.39C92.02,-187.48 87.17,-176.99 82.85,-167.63"/>
<polygon fill="black" stroke="black" stroke-width="1.2" points="78.73,-158.71 87.01,-165.9 80.3,-161.88 83.01,-167.75 82.92,-167.79 82.83,-167.83 80.12,-161.96 78.84,-169.67 78.73,-158.71"/>
</g>
<!-- 17 -->
<g id="node3" class="node">
<title>17</title>
<ellipse fill="black" stroke="black" cx="130.4" cy="-144" rx="14.4" ry="14.4"/>
<text xml:space="preserve" text-anchor="middle" x="130.4" y="-140.4" font-family="Arial" font-size="12.00" fill="white">17</text>
</g>
<!-- 11&#45;&gt;17 -->
<g id="edge2" class="edge">
<title>11-&gt;17</title>
<path fill="none" stroke="black" stroke-width="1.2" d="M107.13,-195.39C110.78,-187.48 115.63,-176.99 119.95,-167.63"/>
<polygon fill="black" stroke="black" stroke-width="1.2" points="124.07,-158.71 123.96,-169.67 122.68,-161.96 119.97,-167.83 119.88,-167.79 119.79,-167.75 122.5,-161.88 115.79,-165.9 124.07,-158.71"/>
</g>
<!-- 1 -->
<g id="node4" class="node">
<title>1</title>
<ellipse fill="black" stroke="black" cx="14.4" cy="-79.2" rx="14.4" ry="14.4"/>
<text xml:space="preserve" text-anchor="middle" x="14.4" y="-75.6" font-family="Arial" font-size="12.00" fill="white">1</text>
</g>
<!-- 5&#45;&gt;1 -->
<g id="edge3" class="edge">
<title>5-&gt;1</title>
<path fill="none" stroke="black" stroke-width="1.2" d="M62.82,-132.63C54.29,-123.39 41.61,-109.66 31.37,-98.57"/>
<polygon fill="black" stroke="black" stroke-width="1.2" points="24.79,-91.45 34.88,-95.74 27.27,-93.98 31.65,-98.73 31.58,-98.8 31.5,-98.87 27.12,-94.12 28.27,-101.85 24.79,-91.45"/>
</g>
<!-- 8 -->
<g id="node5" class="node">
<title>8</title>
<ellipse fill="black" stroke="black" cx="72.4" cy="-79.2" rx="14.4" ry="14.4"/>
<text xml:space="preserve" text-anchor="middle" x="72.4" y="-75.6" font-family="Arial" font-size="12.00" fill="white">8</text>
</g>
<!-- 5&#45;&gt;8 -->
<g id="edge4" class="edge">
<title>5-&gt;8</title>
<path fill="none" stroke="black" stroke-width="1.2" d="M72.4,-129.37C72.4,-122.3 72.4,-113.42 72.4,-105.17"/>
<polygon fill="black" stroke="black" stroke-width="1.2" points="72.4,-95.26 76.9,-105.26 72.5,-98.8 72.5,-105.26 72.4,-105.26 72.3,-105.26 72.3,-98.8 67.9,-105.26 72.4,-95.26"/>
</g>
<!-- 15 -->
<g id="node6" class="node">
<title>15</title>
<ellipse fill="black" stroke="black" cx="130.4" cy="-79.2" rx="14.4" ry="14.4"/>
<text xml:space="preserve" text-anchor="middle" x="130.4" y="-75.6" font-family="Arial" font-size="12.00" fill="white">15</text>
</g>
<!-- 17&#45;&gt;15 -->
<g id="edge5" class="edge">
<title>17-&gt;15</title>
<path fill="none" stroke="black" stroke-width="1.2" d="M130.4,-129.37C130.4,-122.3 130.4,-113.42 130.4,-105.17"/>
<polygon fill="black" stroke="black" stroke-width="1.2" points="130.4,-95.26 134.9,-105.26 130.5,-98.8 130.5,-105.26 130.4,-105.26 130.3,-105.26 130.3,-98.8 125.9,-105.26 130.4,-95.26"/>
</g>
<!-- 19 -->
<g id="node7" class="node">
<title>19</title>
<ellipse fill="black" stroke="black" cx="188.4" cy="-79.2" rx="14.4" ry="14.4"/>
<text xml:space="preserve" text-anchor="middle" x="188.4" y="-75.6" font-family="Arial" font-size="12.00" fill="white">19</text>
</g>
<!-- 17&#45;&gt;19 -->
<g id="edge6" class="edge">
<title>17-&gt;19</title>
<path fill="none" stroke="black" stroke-width="1.2" d="M139.98,-132.63C148.51,-123.39 161.19,-109.66 171.43,-98.57"/>
<polygon fill="black" stroke="black" stroke-width="1.2" points="178.01,-91.45 174.53,-101.85 175.68,-94.12 171.3,-98.87 171.22,-98.8 171.15,-98.73 175.53,-93.98 167.92,-95.74 178.01,-91.45"/>
</g>
<!-- 13 -->
<g id="node8" class="node">
<title>13</title>
<ellipse fill="black" stroke="black" cx="130.4" cy="-14.4" rx="14.4" ry="14.4"/>
<text xml:space="preserve" text-anchor="middle" x="130.4" y="-10.8" font-family="Arial" font-size="12.00" fill="white">13</text>
</g>
<!-- 15&#45;&gt;13 -->
<g id="edge7" class="edge">
<title>15-&gt;13</title>
<path fill="none" stroke="black" stroke-width="1.2" d="M130.4,-64.57C130.4,-57.5 130.4,-48.62 130.4,-40.37"/>
<polygon fill="black" stroke="black" stroke-width="1.2" points="130.4,-30.46 134.9,-40.46 130.5,-34 130.5,-40.46 130.4,-40.46 130.3,-40.46 130.3,-34 125.9,-40.46 130.4,-30.46"/>
</g>
<!-- 21 -->
<g id="node9" class="node">
<title>21</title>
<ellipse fill="black" stroke="black" cx="188.4" cy="-14.4" rx="14.4" ry="14.4"/>
<text xml:space="preserve" text-anchor="middle" x="188.4" y="-10.8" font-family="Arial" font-size="12.00" fill="white">21</text>
</g>
<!-- 19&#45;&gt;21 -->
<g id="edge8" class="edge">
<title>19-&gt;21</title>
<path fill="none" stroke="black" stroke-width="1.2" d="M188.4,-64.57C188.4,-57.5 188.4,-48.62 188.4,-40.37"/>
<polygon fill="black" stroke="black" stroke-width="1.2" points="188.4,-30.46 192.9,-40.46 188.5,-34 188.5,-40.46 188.4,-40.46 188.3,-40.46 188.3,-34 183.9,-40.46 188.4,-30.46"/>
</g>
</g>
</svg>