<svg version="1.1" xmlns="http://www.w3.org/2000/svg" xmlns:xlink="http://www.w3.org/1999/xlink" width="402" height="440"><defs/><g><rect fill="#97D3E1" stroke="none" x="0" y="0" width="402" height="440"/><g transform="scale(1,1) translate(130,40)"><rect fill="#000000" stroke="none" x="-1" y="0" width="2" height="70"/><rect fill="#000000" stroke="none" x="-1" y="70" width="2" height="50"/><path fill="none" stroke="#000000" paint-order="fill stroke markers" d=" M 1.5 120.5 L 230.5 120.5" stroke-linecap="round" stroke-miterlimit="10"/><g transform="translate(1.5,120.5) rotate(180,0,0)"><path fill="#000000" stroke="#000000" paint-order="fill stroke markers" d=" M -20 -6 L 0 0 L -20 6 Z" stroke-linecap="round" stroke-linejoin="round" stroke-miterlimit="10"/></g><g transform="translate(230.5,120.5) rotate(0,0,0)"/><rect fill="#000000" stroke="none" x="-1" y="120" width="2" height="40"/><rect fill="#000000" stroke="none" x="-1" y="300" width="2" height="60"/><path fill="none" stroke="#000000" paint-order="fill stroke markers" d=" M 0.5 160.5 L 130.5 160.5" stroke-linecap="round" stroke-miterlimit="10"/><rect fill="#000000" stroke="none" x="130" y="160" width="1" height="60"/><rect fill="#000000" stroke="none" x="230" y="120" width="1" height="140"/><rect fill="#000000" stroke="none" x="130" y="220" width="1" height="40"/><path fill="none" stroke="#000000" paint-order="fill stroke markers" d=" M 130.5 260.5 L 230.5 260.5" stroke-linecap="round" stroke-miterlimit="10"/><path fill="none" stroke="#000000" paint-order="fill stroke markers" d=" M 0.5 0.5 L 130.5 0.5" stroke-linecap="round" stroke-miterlimit="10"/><rect fill="#000000" stroke="none" x="-1" y="160" width="2" height="140"/><path fill="rgb(0,0,0)" stroke="none" paint-order="stroke fill markers" d=" M -25 387 A 20 20 0 0 1 -25.000000000000004 347 L 35 347 L 34.99999999999999 347 A 20 20 0 0 1 35 387 Z" fill-opacity="0.3"/><path fill="#ffffff" stroke="none" paint-order="stroke fill markers" d=" M -30 380 A 20 20 0 0 1 -30.000000000000004 340 L 30 340 L 29.999999999999996 340 A 20 20 0 0 1 30 380 Z"/><text fill="#000000" stroke="none" font-family="Consolas, Monaco, Cousine" font-size="14px" font-style="normal" font-weight="normal" text-decoration="normal" x="-12" y="364" text-anchor="start" dominant-baseline="alphabetic">End</text><rect fill="rgb(0,0,0)" stroke="none" x="-105" y="47" width="220" height="60" fill-opacity="0.3"/><rect fill="#ffffff" stroke="none" x="-110" y="40" width="220" height="60"/><text fill="#000000" stroke="none" font-family="Consolas, Monaco, Cousine" font-size="14px" font-style="normal" font-weight="normal" text-decoration="normal" x="-100" y="66" text-anchor="start" dominant-baseline="alphabetic">nullNode</text><text fill="#cc3399" stroke="none" font-family="Consolas, Monaco, Cousine" font-size="14px" font-style="normal" font-weight="normal" text-decoration="normal" x="-30" y="66" text-anchor="start" dominant-baseline="alphabetic">=</text><text fill="#000000" stroke="none" font-family="Consolas, Monaco, Cousine" font-size="14px" font-style="normal" font-weight="normal" text-decoration="normal" x="-14" y="66" text-anchor="start" dominant-baseline="alphabetic">tree</text><text fill="#cc3399" stroke="none" font-family="Consolas, Monaco, Cousine" font-size="14px" font-style="normal" font-weight="normal" text-decoration="normal" x="17" y="66" text-anchor="start" dominant-baseline="alphabetic">.</text><text fill="#000000" stroke="none" font-family="Consolas, Monaco, Cousine" font-size="14px" font-style="normal" font-weight="normal" text-decoration="normal" x="25" y="66" text-anchor="start" dominant-baseline="alphabetic">nullNode</text><text fill="#995c00" stroke="none" font-family="Consolas, Monaco, Cousine" font-size="14px" font-style="normal" font-weight="normal" text-decoration="normal" x="-100" y="82" text-anchor="start" dominant-baseline="alphabetic">//{nullNode} = tree</text><path fill="rgb(0,0,0)" stroke="none" paint-order="stroke fill markers" d=" M -107 167 L -87 147 L 97 147 L 117 167 L 97 187 L -87 187 Z" fill-opacity="0.3"/><path fill="#ffffff" stroke="none" paint-order="stroke fill markers" d=" M -112 160 L -92 140 L 92 140 L 112 160 L 92 180 L -92 180 Z"/><text fill="#000000" stroke="none" font-family="Consolas, Monaco, Cousine" font-size="14px" font-style="normal" font-weight="normal" text-decoration="normal" x="-90" y="164" text-anchor="start" dominant-baseline="alphabetic">node</text><text fill="#cc3399" stroke="none" font-family="Consolas, Monaco, Cousine" font-size="14px" font-style="normal" font-weight="normal" text-decoration="normal" x="-59" y="164" text-anchor="start" dominant-baseline="alphabetic">.</text><text fill="#000000" stroke="none" font-family="Consolas, Monaco, Cousine" font-size="14px" font-style="normal" font-weight="normal" text-decoration="normal" x="-51" y="164" text-anchor="start" dominant-baseline="alphabetic">left</text><text fill="#cc3399" stroke="none" font-family="Consolas, Monaco, Cousine" font-size="14px" font-style="normal" font-weight="normal" text-decoration="normal" x="-12" y="164" text-anchor="start" dominant-baseline="alphabetic">!==</text><text fill="#000000" stroke="none" font-family="Consolas, Monaco, Cousine" font-size="14px" font-style="normal" font-weight="normal" text-decoration="normal" x="19" y="164" text-anchor="start" dominant-baseline="alphabetic">nullNode</text><text fill="#000000" stroke="none" font-family="Consolas, Monaco, Cousine" font-size="14px" font-style="normal" font-weight="normal" text-decoration="normal" x="-18" y="193" text-anchor="start" dominant-baseline="alphabetic">No</text><text fill="#000000" stroke="none" font-family="Consolas, Monaco, Cousine" font-size="14px" font-style="normal" font-weight="normal" text-decoration="normal" x="118" y="153" text-anchor="start" dominant-baseline="alphabetic">Yes</text><rect fill="rgb(0,0,0)" stroke="none" x="55" y="207" width="160" height="40" fill-opacity="0.3"/><rect fill="#ffffff" stroke="none" x="50" y="200" width="160" height="40"/><text fill="#000000" stroke="none" font-family="Consolas, Monaco, Cousine" font-size="14px" font-style="normal" font-weight="normal" text-decoration="normal" x="60" y="224" text-anchor="start" dominant-baseline="alphabetic">node</text><text fill="#cc3399" stroke="none" font-family="Consolas, Monaco, Cousine" font-size="14px" font-style="normal" font-weight="normal" text-decoration="normal" x="99" y="224" text-anchor="start" dominant-baseline="alphabetic">=</text><text fill="#000000" stroke="none" font-family="Consolas, Monaco, Cousine" font-size="14px" font-style="normal" font-weight="normal" text-decoration="normal" x="115" y="224" text-anchor="start" dominant-baseline="alphabetic">node</text><text fill="#cc3399" stroke="none" font-family="Consolas, Monaco, Cousine" font-size="14px" font-style="normal" font-weight="normal" text-decoration="normal" x="146" y="224" text-anchor="start" dominant-baseline="alphabetic">.</text><text fill="#000000" stroke="none" font-family="Consolas, Monaco, Cousine" font-size="14px" font-style="normal" font-weight="normal" text-decoration="normal" x="154" y="224" text-anchor="start" dominant-baseline="alphabetic">left</text><rect fill="rgb(0,0,0)" stroke="none" x="-105" y="287" width="220" height="40" fill-opacity="0.3"/><rect fill="#ffffff" stroke="none" x="-110" y="280" width="220" height="40"/><text fill="#003399" stroke="none" font-family="Consolas, Monaco, Cousine" font-size="14px" font-style="normal" font-weight="normal" text-decoration="normal" x="-100" y="304" text-anchor="start" dominant-baseline="alphabetic">return</text><text fill="#000000" stroke="none" font-family="Consolas, Monaco, Cousine" font-size="14px" font-style="normal" font-weight="normal" text-decoration="normal" x="-46" y="304" text-anchor="start" dominant-baseline="alphabetic">node</text><path fill="rgb(0,0,0)" stroke="none" paint-order="stroke fill markers" d=" M -35 27 A 20 20 0 0 1 -35.00000000000001 -13 L 45 -13 L 44.99999999999999 -13 A 20 20 0 0 1 45 27 Z" fill-opacity="0.3"/><path fill="#ffffff" stroke="none" paint-order="stroke fill markers" d=" M -40 20 A 20 20 0 0 1 -40.00000000000001 -20 L 40 -20 L 39.99999999999999 -20 A 20 20 0 0 1 40 20 Z"/><text fill="#000000" stroke="none" font-family="Consolas, Monaco, Cousine" font-size="18px" font-style="normal" font-weight="normal" text-decoration="normal" x="-35" y="6" text-anchor="start" dominant-baseline="alphabetic">findMin</text><rect fill="rgb(0,0,0)" stroke="none" x="85" y="-13" width="100" height="40" fill-opacity="0.3"/><rect fill="#ffffff" stroke="none" x="80" y="-20" width="100" height="40"/><text fill="#000000" stroke="none" font-family="Consolas, Monaco, Cousine" font-size="14px" font-style="normal" font-weight="normal" text-decoration="normal" x="90" y="4" text-anchor="start" dominant-baseline="alphabetic">tree,</text><text fill="#000000" stroke="none" font-family="Consolas, Monaco, Cousine" font-size="14px" font-style="normal" font-weight="normal" text-decoration="normal" x="136" y="4" text-anchor="start" dominant-baseline="alphabetic">node</text></g></g></svg>