<svg version="1.1" xmlns="http://www.w3.org/2000/svg" xmlns:xlink="http://www.w3.org/1999/xlink" width="2222" height="602"><defs/><g><rect fill="#97D3E1" stroke="none" x="0" y="0" width="2222" height="602"/><g transform="scale(1,1) translate(42,40)"><rect fill="#000000" stroke="none" x="0" y="40" width="1" height="480"/><rect fill="#000000" stroke="none" x="189" y="90" width="2" height="180"/><rect fill="#000000" stroke="none" x="189" y="270" width="2" height="110"/><rect fill="#000000" stroke="none" x="189" y="380" width="2" height="90"/><path fill="none" stroke="#000000" paint-order="fill stroke markers" d=" M 0.5 40.5 L 189.5 40.5" stroke-linecap="round" stroke-miterlimit="10"/><g transform="translate(0.5,40.5) rotate(180,0,0)"/><g transform="translate(189.5,40.5) rotate(0,0,0)"><path fill="#000000" stroke="#000000" paint-order="fill stroke markers" d=" M -20 -6 L 0 0 L -20 6 Z" stroke-linecap="round" stroke-linejoin="round" stroke-miterlimit="10"/></g><rect fill="#000000" stroke="none" x="189" y="40" width="2" height="50"/><path fill="none" stroke="#000000" paint-order="fill stroke markers" d=" M 0.5 520.5 L 190.5 520.5" stroke-linecap="round" stroke-miterlimit="10"/><rect fill="#000000" stroke="none" x="189" y="470" width="2" height="50"/><rect fill="#000000" stroke="none" x="489" y="90" width="2" height="70"/><rect fill="#000000" stroke="none" x="489" y="200" width="2" height="50"/><rect fill="#000000" stroke="none" x="690" y="200" width="1" height="50"/><path fill="none" stroke="#000000" paint-order="fill stroke markers" d=" M 490.5 200.5 L 690.5 200.5" stroke-linecap="round" stroke-miterlimit="10"/><rect fill="#000000" stroke="none" x="970" y="200" width="1" height="50"/><path fill="none" stroke="#000000" paint-order="fill stroke markers" d=" M 690.5 200.5 L 970.5 200.5" stroke-linecap="round" stroke-miterlimit="10"/><rect fill="#000000" stroke="none" x="1290" y="200" width="1" height="50"/><path fill="none" stroke="#000000" paint-order="fill stroke markers" d=" M 970.5 200.5 L 1290.5 200.5" stroke-linecap="round" stroke-miterlimit="10"/><rect fill="#000000" stroke="none" x="1550" y="200" width="1" height="50"/><path fill="none" stroke="#000000" paint-order="fill stroke markers" d=" M 1290.5 200.5 L 1550.5 200.5" stroke-linecap="round" stroke-miterlimit="10"/><rect fill="#000000" stroke="none" x="1850" y="200" width="1" height="50"/><path fill="none" stroke="#000000" paint-order="fill stroke markers" d=" M 1550.5 200.5 L 1850.5 200.5" stroke-linecap="round" stroke-miterlimit="10"/><rect fill="#000000" stroke="none" x="489" y="160" width="2" height="40"/><rect fill="#000000" stroke="none" x="489" y="250" width="2" height="130"/><rect fill="#000000" stroke="none" x="690" y="250" width="1" height="130"/><rect fill="#000000" stroke="none" x="690" y="380" width="1" height="40"/><rect fill="#000000" stroke="none" x="489" y="380" width="2" height="40"/><rect fill="#000000" stroke="none" x="489" y="420" width="2" height="50"/><path fill="none" stroke="#000000" paint-order="fill stroke markers" d=" M 490.5 420.5 L 690.5 420.5" stroke-linecap="round" stroke-miterlimit="10"/><rect fill="#000000" stroke="none" x="970" y="250" width="1" height="130"/><rect fill="#000000" stroke="none" x="970" y="380" width="1" height="40"/><path fill="none" stroke="#000000" paint-order="fill stroke markers" d=" M 690.5 420.5 L 970.5 420.5" stroke-linecap="round" stroke-miterlimit="10"/><rect fill="#000000" stroke="none" x="1290" y="250" width="1" height="100"/><rect fill="#000000" stroke="none" x="1290" y="350" width="1" height="70"/><path fill="none" stroke="#000000" paint-order="fill stroke markers" d=" M 970.5 420.5 L 1290.5 420.5" stroke-linecap="round" stroke-miterlimit="10"/><rect fill="#000000" stroke="none" x="1550" y="250" width="1" height="100"/><rect fill="#000000" stroke="none" x="1550" y="350" width="1" height="70"/><path fill="none" stroke="#000000" paint-order="fill stroke markers" d=" M 1290.5 420.5 L 1550.5 420.5" stroke-linecap="round" stroke-miterlimit="10"/><rect fill="#000000" stroke="none" x="1850" y="250" width="1" height="130"/><rect fill="#000000" stroke="none" x="1850" y="380" width="1" height="40"/><path fill="none" stroke="#000000" paint-order="fill stroke markers" d=" M 1550.5 420.5 L 1850.5 420.5" stroke-linecap="round" stroke-miterlimit="10"/><path fill="none" stroke="#000000" paint-order="fill stroke markers" d=" M 190.5 40.5 L 490.5 40.5" stroke-linecap="round" stroke-miterlimit="10"/><rect fill="#000000" stroke="none" x="489" y="40" width="2" height="50"/><path fill="none" stroke="#000000" paint-order="fill stroke markers" d=" M 190.5 520.5 L 490.5 520.5" stroke-linecap="round" stroke-miterlimit="10"/><rect fill="#000000" stroke="none" x="489" y="470" width="2" height="50"/><rect fill="#000000" stroke="none" x="2109" y="90" width="2" height="70"/><path fill="none" stroke="#000000" paint-order="fill stroke markers" d=" M 490.5 40.5 L 2110.5 40.5" stroke-linecap="round" stroke-miterlimit="10"/><rect fill="#000000" stroke="none" x="2109" y="40" width="2" height="50"/><rect fill="#000000" stroke="none" x="189" y="0" width="2" height="40"/><path fill="none" stroke="#000000" paint-order="fill stroke markers" d=" M 190.5 0.5 L 370.5 0.5" stroke-linecap="round" stroke-miterlimit="10"/><path fill="rgb(0,0,0)" stroke="none" paint-order="stroke fill markers" d=" M 2085 187 A 20 20 0 0 1 2085 147 L 2145 147 L 2145 147 A 20 20 0 0 1 2145 187 Z" fill-opacity="0.3"/><path fill="#ffffff" stroke="none" paint-order="stroke fill markers" d=" M 2080 180 A 20 20 0 0 1 2080 140 L 2140 140 L 2140 140 A 20 20 0 0 1 2140 180 Z"/><text fill="#000000" stroke="none" font-family="Consolas, Monaco, Cousine" font-size="14px" font-style="normal" font-weight="normal" text-decoration="normal" x="2098" y="164" text-anchor="start" dominant-baseline="alphabetic">End</text><path fill="rgb(0,0,0)" stroke="none" paint-order="stroke fill markers" d=" M 25 67 L 365 67 L 365 107 L 195 127 L 25 107 Z" fill-opacity="0.3"/><path fill="#ffffff" stroke="none" paint-order="stroke fill markers" d=" M 20 60 L 360 60 L 360 100 L 190 120 L 20 100 Z"/><text fill="#000000" stroke="none" font-family="Consolas, Monaco, Cousine" font-size="14px" font-style="normal" font-weight="normal" text-decoration="normal" x="30" y="84" text-anchor="start" dominant-baseline="alphabetic">Branch1</text><rect fill="rgb(0,0,0)" stroke="none" x="25" y="227" width="340" height="100" fill-opacity="0.3"/><rect fill="#ffffff" stroke="none" x="20" y="220" width="340" height="100"/><text fill="#000000" stroke="none" font-family="Consolas, Monaco, Cousine" font-size="14px" font-style="normal" font-weight="normal" text-decoration="normal" x="30" y="250" text-anchor="start" dominant-baseline="alphabetic">caseType</text><text fill="#cc3399" stroke="none" font-family="Consolas, Monaco, Cousine" font-size="14px" font-style="normal" font-weight="normal" text-decoration="normal" x="100" y="250" text-anchor="start" dominant-baseline="alphabetic">=</text><text fill="#000000" stroke="none" font-family="Consolas, Monaco, Cousine" font-size="14px" font-style="normal" font-weight="normal" text-decoration="normal" x="116" y="250" text-anchor="start" dominant-baseline="alphabetic">caseInfoAfter</text><text fill="#cc3399" stroke="none" font-family="Consolas, Monaco, Cousine" font-size="14px" font-style="normal" font-weight="normal" text-decoration="normal" x="216" y="250" text-anchor="start" dominant-baseline="alphabetic">.</text><text fill="#000000" stroke="none" font-family="Consolas, Monaco, Cousine" font-size="14px" font-style="normal" font-weight="normal" text-decoration="normal" x="224" y="250" text-anchor="start" dominant-baseline="alphabetic">caseType</text><text fill="#cc3399" stroke="none" font-family="Consolas, Monaco, Cousine" font-size="14px" font-style="normal" font-weight="normal" text-decoration="normal" x="286" y="250" text-anchor="start" dominant-baseline="alphabetic">;</text><text fill="#000000" stroke="none" font-family="Consolas, Monaco, Cousine" font-size="14px" font-style="normal" font-weight="normal" text-decoration="normal" x="30" y="266" text-anchor="start" dominant-baseline="alphabetic">clusterInfo</text><text fill="#cc3399" stroke="none" font-family="Consolas, Monaco, Cousine" font-size="14px" font-style="normal" font-weight="normal" text-decoration="normal" x="123" y="266" text-anchor="start" dominant-baseline="alphabetic">=</text><text fill="#000000" stroke="none" font-family="Consolas, Monaco, Cousine" font-size="14px" font-style="normal" font-weight="normal" text-decoration="normal" x="139" y="266" text-anchor="start" dominant-baseline="alphabetic">caseInfoAfter</text><text fill="#cc3399" stroke="none" font-family="Consolas, Monaco, Cousine" font-size="14px" font-style="normal" font-weight="normal" text-decoration="normal" x="239" y="266" text-anchor="start" dominant-baseline="alphabetic">.</text><text fill="#000000" stroke="none" font-family="Consolas, Monaco, Cousine" font-size="14px" font-style="normal" font-weight="normal" text-decoration="normal" x="247" y="266" text-anchor="start" dominant-baseline="alphabetic">clusterInfo</text><text fill="#cc3399" stroke="none" font-family="Consolas, Monaco, Cousine" font-size="14px" font-style="normal" font-weight="normal" text-decoration="normal" x="332" y="266" text-anchor="start" dominant-baseline="alphabetic">;</text><text fill="#000000" stroke="none" font-family="Consolas, Monaco, Cousine" font-size="14px" font-style="normal" font-weight="normal" text-decoration="normal" x="30" y="282" text-anchor="start" dominant-baseline="alphabetic">description</text><text fill="#cc3399" stroke="none" font-family="Consolas, Monaco, Cousine" font-size="14px" font-style="normal" font-weight="normal" text-decoration="normal" x="123" y="282" text-anchor="start" dominant-baseline="alphabetic">=</text><text fill="#000000" stroke="none" font-family="Consolas, Monaco, Cousine" font-size="14px" font-style="normal" font-weight="normal" text-decoration="normal" x="139" y="282" text-anchor="start" dominant-baseline="alphabetic">caseInfoAfter</text><text fill="#cc3399" stroke="none" font-family="Consolas, Monaco, Cousine" font-size="14px" font-style="normal" font-weight="normal" text-decoration="normal" x="239" y="282" text-anchor="start" dominant-baseline="alphabetic">.</text><text fill="#000000" stroke="none" font-family="Consolas, Monaco, Cousine" font-size="14px" font-style="normal" font-weight="normal" text-decoration="normal" x="247" y="282" text-anchor="start" dominant-baseline="alphabetic">description</text><text fill="#cc3399" stroke="none" font-family="Consolas, Monaco, Cousine" font-size="14px" font-style="normal" font-weight="normal" text-decoration="normal" x="332" y="282" text-anchor="start" dominant-baseline="alphabetic">;</text><text fill="#000000" stroke="none" font-family="Consolas, Monaco, Cousine" font-size="14px" font-style="normal" font-weight="normal" text-decoration="normal" x="30" y="298" text-anchor="start" dominant-baseline="alphabetic">nodes</text><text fill="#cc3399" stroke="none" font-family="Consolas, Monaco, Cousine" font-size="14px" font-style="normal" font-weight="normal" text-decoration="normal" x="76" y="298" text-anchor="start" dominant-baseline="alphabetic">=</text><text fill="#000000" stroke="none" font-family="Consolas, Monaco, Cousine" font-size="14px" font-style="normal" font-weight="normal" text-decoration="normal" x="92" y="298" text-anchor="start" dominant-baseline="alphabetic">clusterInfo</text><text fill="#cc3399" stroke="none" font-family="Consolas, Monaco, Cousine" font-size="14px" font-style="normal" font-weight="normal" text-decoration="normal" x="177" y="298" text-anchor="start" dominant-baseline="alphabetic">.</text><text fill="#000000" stroke="none" font-family="Consolas, Monaco, Cousine" font-size="14px" font-style="normal" font-weight="normal" text-decoration="normal" x="185" y="298" text-anchor="start" dominant-baseline="alphabetic">nodes</text><text fill="#cc3399" stroke="none" font-family="Consolas, Monaco, Cousine" font-size="14px" font-style="normal" font-weight="normal" text-decoration="normal" x="223" y="298" text-anchor="start" dominant-baseline="alphabetic">;</text><rect fill="rgb(0,0,0)" stroke="none" x="25" y="347" width="340" height="80" fill-opacity="0.3"/><rect fill="#ffffff" stroke="none" x="20" y="340" width="340" height="80"/><text fill="#000000" stroke="none" font-family="Consolas, Monaco, Cousine" font-size="14px" font-style="normal" font-weight="normal" text-decoration="normal" x="30" y="368" text-anchor="start" dominant-baseline="alphabetic">console</text><text fill="#cc3399" stroke="none" font-family="Consolas, Monaco, Cousine" font-size="14px" font-style="normal" font-weight="normal" text-decoration="normal" x="84" y="368" text-anchor="start" dominant-baseline="alphabetic">.</text><text fill="#000000" stroke="none" font-family="Consolas, Monaco, Cousine" font-size="14px" font-style="normal" font-weight="normal" text-decoration="normal" x="92" y="368" text-anchor="start" dominant-baseline="alphabetic">log</text><text fill="#cc3399" stroke="none" font-family="Consolas, Monaco, Cousine" font-size="14px" font-style="normal" font-weight="normal" text-decoration="normal" x="115" y="368" text-anchor="start" dominant-baseline="alphabetic">(</text><text fill="#800000" stroke="none" font-family="Consolas, Monaco, Cousine" font-size="14px" font-style="normal" font-weight="normal" text-decoration="normal" x="62" y="384" text-anchor="start" dominant-baseline="alphabetic">`Executing fix for: ${caseType}`</text><text fill="#cc3399" stroke="none" font-family="Consolas, Monaco, Cousine" font-size="14px" font-style="normal" font-weight="normal" text-decoration="normal" x="30" y="400" text-anchor="start" dominant-baseline="alphabetic">)</text><path fill="rgb(0,0,0)" stroke="none" paint-order="stroke fill markers" d=" M 2065 67 L 2165 67 L 2165 107 L 2115 127 L 2065 107 Z" fill-opacity="0.3"/><path fill="#ffffff" stroke="none" paint-order="stroke fill markers" d=" M 2060 60 L 2160 60 L 2160 100 L 2110 120 L 2060 100 Z"/><text fill="#000000" stroke="none" font-family="Consolas, Monaco, Cousine" font-size="14px" font-style="normal" font-weight="normal" text-decoration="normal" x="2070" y="84" text-anchor="start" dominant-baseline="alphabetic">Exit</text><path fill="rgb(0,0,0)" stroke="none" paint-order="stroke fill markers" d=" M 405 67 L 585 67 L 585 107 L 495 127 L 405 107 Z" fill-opacity="0.3"/><path fill="#ffffff" stroke="none" paint-order="stroke fill markers" d=" M 400 60 L 580 60 L 580 100 L 490 120 L 400 100 Z"/><text fill="#000000" stroke="none" font-family="Consolas, Monaco, Cousine" font-size="14px" font-style="normal" font-weight="normal" text-decoration="normal" x="410" y="84" text-anchor="start" dominant-baseline="alphabetic">Switch</text><path fill="rgb(0,0,0)" stroke="none" paint-order="stroke fill markers" d=" M 805 227 L 1145 227 L 1145 267 L 975 287 L 805 267 Z" fill-opacity="0.3"/><path fill="#ffffff" stroke="none" paint-order="stroke fill markers" d=" M 800 220 L 1140 220 L 1140 260 L 970 280 L 800 260 Z"/><path fill="none" stroke="#000000" paint-order="fill stroke markers" d=" M 800.5 259.5 L 1139.5 259.5" stroke-linecap="round" stroke-miterlimit="10"/><text fill="#800000" stroke="none" font-family="Consolas, Monaco, Cousine" font-size="14px" font-style="normal" font-weight="normal" text-decoration="normal" x="810" y="244" text-anchor="start" dominant-baseline="alphabetic">"RED_SIBLING"</text><path fill="rgb(0,0,0)" stroke="none" paint-order="stroke fill markers" d=" M 605 227 L 785 227 L 785 267 L 695 287 L 605 267 Z" fill-opacity="0.3"/><path fill="#ffffff" stroke="none" paint-order="stroke fill markers" d=" M 600 220 L 780 220 L 780 260 L 690 280 L 600 260 Z"/><path fill="none" stroke="#000000" paint-order="fill stroke markers" d=" M 600.5 259.5 L 779.5 259.5" stroke-linecap="round" stroke-miterlimit="10"/><text fill="#800000" stroke="none" font-family="Consolas, Monaco, Cousine" font-size="14px" font-style="normal" font-weight="normal" text-decoration="normal" x="610" y="244" text-anchor="start" dominant-baseline="alphabetic">"RED_NODE"</text><path fill="rgb(0,0,0)" stroke="none" paint-order="stroke fill markers" d=" M 405 227 L 585 227 L 585 267 L 495 287 L 405 267 Z" fill-opacity="0.3"/><path fill="#ffffff" stroke="none" paint-order="stroke fill markers" d=" M 400 220 L 580 220 L 580 260 L 490 280 L 400 260 Z"/><path fill="none" stroke="#000000" paint-order="fill stroke markers" d=" M 400.5 259.5 L 579.5 259.5" stroke-linecap="round" stroke-miterlimit="10"/><text fill="#800000" stroke="none" font-family="Consolas, Monaco, Cousine" font-size="14px" font-style="normal" font-weight="normal" text-decoration="normal" x="410" y="244" text-anchor="start" dominant-baseline="alphabetic">"ROOT_CASE"</text><path fill="rgb(0,0,0)" stroke="none" paint-order="stroke fill markers" d=" M 405 187 L 415 147 L 585 147 L 575 187 Z" fill-opacity="0.3"/><path fill="#ffffff" stroke="none" paint-order="stroke fill markers" d=" M 400 180 L 410 140 L 580 140 L 570 180 Z"/><text fill="#000000" stroke="none" font-family="Consolas, Monaco, Cousine" font-size="14px" font-style="normal" font-weight="normal" text-decoration="normal" x="415" y="164" text-anchor="start" dominant-baseline="alphabetic">caseType</text><path fill="rgb(0,0,0)" stroke="none" paint-order="stroke fill markers" d=" M 1165 227 L 1425 227 L 1425 267 L 1295 287 L 1165 267 Z" fill-opacity="0.3"/><path fill="#ffffff" stroke="none" paint-order="stroke fill markers" d=" M 1160 220 L 1420 220 L 1420 260 L 1290 280 L 1160 260 Z"/><path fill="none" stroke="#000000" paint-order="fill stroke markers" d=" M 1160.5 259.5 L 1419.5 259.5" stroke-linecap="round" stroke-miterlimit="10"/><text fill="#800000" stroke="none" font-family="Consolas, Monaco, Cousine" font-size="14px" font-style="normal" font-weight="normal" text-decoration="normal" x="1170" y="244" text-anchor="start" dominant-baseline="alphabetic">"BLACK_SIBLING_CHILDREN"</text><path fill="rgb(0,0,0)" stroke="none" paint-order="stroke fill markers" d=" M 1445 227 L 1665 227 L 1665 267 L 1555 287 L 1445 267 Z" fill-opacity="0.3"/><path fill="#ffffff" stroke="none" paint-order="stroke fill markers" d=" M 1440 220 L 1660 220 L 1660 260 L 1550 280 L 1440 260 Z"/><path fill="none" stroke="#000000" paint-order="fill stroke markers" d=" M 1440.5 259.5 L 1659.5 259.5" stroke-linecap="round" stroke-miterlimit="10"/><text fill="#800000" stroke="none" font-family="Consolas, Monaco, Cousine" font-size="14px" font-style="normal" font-weight="normal" text-decoration="normal" x="1450" y="244" text-anchor="start" dominant-baseline="alphabetic">"COMPLEX_ROTATION"</text><path fill="rgb(0,0,0)" stroke="none" paint-order="stroke fill markers" d=" M 1685 227 L 2025 227 L 2025 267 L 1855 287 L 1685 267 Z" fill-opacity="0.3"/><path fill="#ffffff" stroke="none" paint-order="stroke fill markers" d=" M 1680 220 L 2020 220 L 2020 260 L 1850 280 L 1680 260 Z"/><path fill="none" stroke="#000000" paint-order="fill stroke markers" d=" M 1680.5 259.5 L 2019.5 259.5" stroke-linecap="round" stroke-miterlimit="10"/><rect fill="rgb(0,0,0)" stroke="none" x="1685" y="367" width="340" height="40" fill-opacity="0.3"/><rect fill="#ffffff" stroke="none" x="1680" y="360" width="340" height="40"/><text fill="#000000" stroke="none" font-family="Consolas, Monaco, Cousine" font-size="14px" font-style="normal" font-weight="normal" text-decoration="normal" x="1690" y="384" text-anchor="start" dominant-baseline="alphabetic">console</text><text fill="#cc3399" stroke="none" font-family="Consolas, Monaco, Cousine" font-size="14px" font-style="normal" font-weight="normal" text-decoration="normal" x="1744" y="384" text-anchor="start" dominant-baseline="alphabetic">.</text><text fill="#000000" stroke="none" font-family="Consolas, Monaco, Cousine" font-size="14px" font-style="normal" font-weight="normal" text-decoration="normal" x="1752" y="384" text-anchor="start" dominant-baseline="alphabetic">log</text><text fill="#cc3399" stroke="none" font-family="Consolas, Monaco, Cousine" font-size="14px" font-style="normal" font-weight="normal" text-decoration="normal" x="1775" y="384" text-anchor="start" dominant-baseline="alphabetic">(</text><text fill="#800000" stroke="none" font-family="Consolas, Monaco, Cousine" font-size="14px" font-style="normal" font-weight="normal" text-decoration="normal" x="1783" y="384" text-anchor="start" dominant-baseline="alphabetic">`Unknown case: ${caseType}`</text><text fill="#cc3399" stroke="none" font-family="Consolas, Monaco, Cousine" font-size="14px" font-style="normal" font-weight="normal" text-decoration="normal" x="1991" y="384" text-anchor="start" dominant-baseline="alphabetic">)</text><rect fill="rgb(0,0,0)" stroke="none" x="405" y="367" width="180" height="40" fill-opacity="0.3"/><rect fill="#ffffff" stroke="none" x="400" y="360" width="180" height="40"/><text fill="#000000" stroke="none" font-family="Consolas, Monaco, Cousine" font-size="14px" font-style="normal" font-weight="normal" text-decoration="normal" x="410" y="384" text-anchor="start" dominant-baseline="alphabetic">nodes</text><text fill="#cc3399" stroke="none" font-family="Consolas, Monaco, Cousine" font-size="14px" font-style="normal" font-weight="normal" text-decoration="normal" x="448" y="384" text-anchor="start" dominant-baseline="alphabetic">.</text><text fill="#000000" stroke="none" font-family="Consolas, Monaco, Cousine" font-size="14px" font-style="normal" font-weight="normal" text-decoration="normal" x="456" y="384" text-anchor="start" dominant-baseline="alphabetic">x</text><text fill="#cc3399" stroke="none" font-family="Consolas, Monaco, Cousine" font-size="14px" font-style="normal" font-weight="normal" text-decoration="normal" x="464" y="384" text-anchor="start" dominant-baseline="alphabetic">.</text><text fill="#000000" stroke="none" font-family="Consolas, Monaco, Cousine" font-size="14px" font-style="normal" font-weight="normal" text-decoration="normal" x="472" y="384" text-anchor="start" dominant-baseline="alphabetic">color</text><text fill="#cc3399" stroke="none" font-family="Consolas, Monaco, Cousine" font-size="14px" font-style="normal" font-weight="normal" text-decoration="normal" x="518" y="384" text-anchor="start" dominant-baseline="alphabetic">=</text><text fill="#800000" stroke="none" font-family="Consolas, Monaco, Cousine" font-size="14px" font-style="normal" font-weight="normal" text-decoration="normal" x="534" y="384" text-anchor="start" dominant-baseline="alphabetic">"B"</text><rect fill="rgb(0,0,0)" stroke="none" x="605" y="367" width="180" height="40" fill-opacity="0.3"/><rect fill="#ffffff" stroke="none" x="600" y="360" width="180" height="40"/><text fill="#000000" stroke="none" font-family="Consolas, Monaco, Cousine" font-size="14px" font-style="normal" font-weight="normal" text-decoration="normal" x="610" y="384" text-anchor="start" dominant-baseline="alphabetic">nodes</text><text fill="#cc3399" stroke="none" font-family="Consolas, Monaco, Cousine" font-size="14px" font-style="normal" font-weight="normal" text-decoration="normal" x="648" y="384" text-anchor="start" dominant-baseline="alphabetic">.</text><text fill="#000000" stroke="none" font-family="Consolas, Monaco, Cousine" font-size="14px" font-style="normal" font-weight="normal" text-decoration="normal" x="656" y="384" text-anchor="start" dominant-baseline="alphabetic">x</text><text fill="#cc3399" stroke="none" font-family="Consolas, Monaco, Cousine" font-size="14px" font-style="normal" font-weight="normal" text-decoration="normal" x="664" y="384" text-anchor="start" dominant-baseline="alphabetic">.</text><text fill="#000000" stroke="none" font-family="Consolas, Monaco, Cousine" font-size="14px" font-style="normal" font-weight="normal" text-decoration="normal" x="672" y="384" text-anchor="start" dominant-baseline="alphabetic">color</text><text fill="#cc3399" stroke="none" font-family="Consolas, Monaco, Cousine" font-size="14px" font-style="normal" font-weight="normal" text-decoration="normal" x="718" y="384" text-anchor="start" dominant-baseline="alphabetic">=</text><text fill="#800000" stroke="none" font-family="Consolas, Monaco, Cousine" font-size="14px" font-style="normal" font-weight="normal" text-decoration="normal" x="734" y="384" text-anchor="start" dominant-baseline="alphabetic">"B"</text><rect fill="rgb(0,0,0)" stroke="none" x="805" y="367" width="340" height="40" fill-opacity="0.3"/><rect fill="#ffffff" stroke="none" x="800" y="360" width="340" height="40"/><text fill="#000000" stroke="none" font-family="Consolas, Monaco, Cousine" font-size="14px" font-style="normal" font-weight="normal" text-decoration="normal" x="810" y="384" text-anchor="start" dominant-baseline="alphabetic">handleRedSiblingCase</text><text fill="#cc3399" stroke="none" font-family="Consolas, Monaco, Cousine" font-size="14px" font-style="normal" font-weight="normal" text-decoration="normal" x="964" y="384" text-anchor="start" dominant-baseline="alphabetic">(</text><text fill="#000000" stroke="none" font-family="Consolas, Monaco, Cousine" font-size="14px" font-style="normal" font-weight="normal" text-decoration="normal" x="972" y="384" text-anchor="start" dominant-baseline="alphabetic">tree</text><text fill="#cc3399" stroke="none" font-family="Consolas, Monaco, Cousine" font-size="14px" font-style="normal" font-weight="normal" text-decoration="normal" x="1003" y="384" text-anchor="start" dominant-baseline="alphabetic">,</text><text fill="#000000" stroke="none" font-family="Consolas, Monaco, Cousine" font-size="14px" font-style="normal" font-weight="normal" text-decoration="normal" x="1019" y="384" text-anchor="start" dominant-baseline="alphabetic">clusterInfo</text><text fill="#cc3399" stroke="none" font-family="Consolas, Monaco, Cousine" font-size="14px" font-style="normal" font-weight="normal" text-decoration="normal" x="1104" y="384" text-anchor="start" dominant-baseline="alphabetic">)</text><rect fill="rgb(0,0,0)" stroke="none" x="1165" y="307" width="260" height="100" fill-opacity="0.3"/><rect fill="#ffffff" stroke="none" x="1160" y="300" width="260" height="100"/><text fill="#000000" stroke="none" font-family="Consolas, Monaco, Cousine" font-size="14px" font-style="normal" font-weight="normal" text-decoration="normal" x="1170" y="330" text-anchor="start" dominant-baseline="alphabetic">handleBlackSiblingChildrenCase</text><text fill="#cc3399" stroke="none" font-family="Consolas, Monaco, Cousine" font-size="14px" font-style="normal" font-weight="normal" text-decoration="normal" x="1401" y="330" text-anchor="start" dominant-baseline="alphabetic">(</text><text fill="#000000" stroke="none" font-family="Consolas, Monaco, Cousine" font-size="14px" font-style="normal" font-weight="normal" text-decoration="normal" x="1202" y="346" text-anchor="start" dominant-baseline="alphabetic">tree</text><text fill="#cc3399" stroke="none" font-family="Consolas, Monaco, Cousine" font-size="14px" font-style="normal" font-weight="normal" text-decoration="normal" x="1233" y="346" text-anchor="start" dominant-baseline="alphabetic">,</text><text fill="#000000" stroke="none" font-family="Consolas, Monaco, Cousine" font-size="14px" font-style="normal" font-weight="normal" text-decoration="normal" x="1202" y="362" text-anchor="start" dominant-baseline="alphabetic">clusterInfo</text><text fill="#cc3399" stroke="none" font-family="Consolas, Monaco, Cousine" font-size="14px" font-style="normal" font-weight="normal" text-decoration="normal" x="1170" y="378" text-anchor="start" dominant-baseline="alphabetic">)</text><rect fill="rgb(0,0,0)" stroke="none" x="1445" y="307" width="220" height="100" fill-opacity="0.3"/><rect fill="#ffffff" stroke="none" x="1440" y="300" width="220" height="100"/><text fill="#000000" stroke="none" font-family="Consolas, Monaco, Cousine" font-size="14px" font-style="normal" font-weight="normal" text-decoration="normal" x="1450" y="330" text-anchor="start" dominant-baseline="alphabetic">handleComplexRotationCase</text><text fill="#cc3399" stroke="none" font-family="Consolas, Monaco, Cousine" font-size="14px" font-style="normal" font-weight="normal" text-decoration="normal" x="1642" y="330" text-anchor="start" dominant-baseline="alphabetic">(</text><text fill="#000000" stroke="none" font-family="Consolas, Monaco, Cousine" font-size="14px" font-style="normal" font-weight="normal" text-decoration="normal" x="1482" y="346" text-anchor="start" dominant-baseline="alphabetic">tree</text><text fill="#cc3399" stroke="none" font-family="Consolas, Monaco, Cousine" font-size="14px" font-style="normal" font-weight="normal" text-decoration="normal" x="1513" y="346" text-anchor="start" dominant-baseline="alphabetic">,</text><text fill="#000000" stroke="none" font-family="Consolas, Monaco, Cousine" font-size="14px" font-style="normal" font-weight="normal" text-decoration="normal" x="1482" y="362" text-anchor="start" dominant-baseline="alphabetic">clusterInfo</text><text fill="#cc3399" stroke="none" font-family="Consolas, Monaco, Cousine" font-size="14px" font-style="normal" font-weight="normal" text-decoration="normal" x="1450" y="378" text-anchor="start" dominant-baseline="alphabetic">)</text><path fill="rgb(0,0,0)" stroke="none" paint-order="stroke fill markers" d=" M 145 27 A 20 20 0 0 1 145 -13 L 245 -13 L 245 -13 A 20 20 0 0 1 245 27 Z" fill-opacity="0.3"/><path fill="#ffffff" stroke="none" paint-order="stroke fill markers" d=" M 140 20 A 20 20 0 0 1 140 -20 L 240 -20 L 240 -20 A 20 20 0 0 1 240 20 Z"/><text fill="#000000" stroke="none" font-family="Consolas, Monaco, Cousine" font-size="18px" font-style="normal" font-weight="normal" text-decoration="normal" x="145" y="6" text-anchor="start" dominant-baseline="alphabetic">fixDelete</text><rect fill="rgb(0,0,0)" stroke="none" x="285" y="-13" width="180" height="40" fill-opacity="0.3"/><rect fill="#ffffff" stroke="none" x="280" y="-20" width="180" height="40"/><text fill="#000000" stroke="none" font-family="Consolas, Monaco, Cousine" font-size="14px" font-style="normal" font-weight="normal" text-decoration="normal" x="290" y="4" text-anchor="start" dominant-baseline="alphabetic">tree,</text><text fill="#000000" stroke="none" font-family="Consolas, Monaco, Cousine" font-size="14px" font-style="normal" font-weight="normal" text-decoration="normal" x="336" y="4" text-anchor="start" dominant-baseline="alphabetic">caseInfoAfter</text><path fill="rgb(0,0,0)" stroke="none" paint-order="stroke fill markers" d=" M 25 467 L 195 447 L 365 467 L 365 507 L 25 507 Z" fill-opacity="0.3"/><path fill="#ffffff" stroke="none" paint-order="stroke fill markers" d=" M 20 460 L 190 440 L 360 460 L 360 500 L 20 500 Z"/><text fill="#000000" stroke="none" font-family="Consolas, Monaco, Cousine" font-size="14px" font-style="normal" font-weight="normal" text-decoration="normal" x="30" y="484" text-anchor="start" dominant-baseline="alphabetic">Switch</text><path fill="rgb(0,0,0)" stroke="none" paint-order="stroke fill markers" d=" M 405 467 L 495 447 L 585 467 L 585 507 L 405 507 Z" fill-opacity="0.3"/><path fill="#ffffff" stroke="none" paint-order="stroke fill markers" d=" M 400 460 L 490 440 L 580 460 L 580 500 L 400 500 Z"/><text fill="#000000" stroke="none" font-family="Consolas, Monaco, Cousine" font-size="14px" font-style="normal" font-weight="normal" text-decoration="normal" x="410" y="484" text-anchor="start" dominant-baseline="alphabetic">Exit</text></g></g></svg>